# Static pose baked from local Project Zomboid assets
o Kate_Hair_Bob
v -0.088002772 0.035347572 0.439036631
v -0.059973809 0.020310829 0.441886800
v -0.071490940 0.008849957 0.442747629
v -0.088002772 0.035347572 0.439036631
v -0.061950940 0.037576744 0.435482067
v -0.059973809 0.020310829 0.441886800
v -0.088002772 0.035347572 0.439036631
v -0.061593309 0.051955870 0.444444174
v -0.061950940 0.037576744 0.435482067
v -0.088002772 0.035347572 0.439036631
v -0.075119758 0.065257561 0.445044675
v -0.061593309 0.051955870 0.444444174
v -0.088002772 0.035347572 0.439036631
v -0.089739172 0.066749288 0.444628068
v -0.075119758 0.065257561 0.445044675
v -0.088002772 0.035347572 0.439036631
v -0.106017072 0.064480657 0.433394598
v -0.089739172 0.066749288 0.444628068
v -0.034375352 0.004914503 0.418393454
v -0.071490940 0.008849957 0.442747629
v -0.059973809 0.020310829 0.441886800
v -0.071490940 0.008849957 0.442747629
v -0.034375352 0.004914503 0.418393454
v -0.052714783 -0.016908359 0.415911221
v -0.043237252 0.034713190 0.420530622
v -0.059973809 0.020310829 0.441886800
v -0.061950940 0.037576744 0.435482067
v -0.059973809 0.020310829 0.441886800
v -0.043237252 0.034713190 0.420530622
v -0.034375352 0.004914503 0.418393454
v -0.038743495 0.059623814 0.422756826
v -0.061950940 0.037576744 0.435482067
v -0.061593309 0.051955870 0.444444174
v -0.061950940 0.037576744 0.435482067
v -0.038743495 0.059623814 0.422756826
v -0.043237252 0.034713190 0.420530622
v -0.061962435 0.090849352 0.427317282
v -0.061593309 0.051955870 0.444444174
v -0.075119758 0.065257561 0.445044675
v -0.061593309 0.051955870 0.444444174
v -0.061962435 0.090849352 0.427317282
v -0.038743495 0.059623814 0.422756826
v -0.086775831 0.095253018 0.426764983
v -0.075119758 0.065257561 0.445044675
v -0.089739172 0.066749288 0.444628068
v -0.075119758 0.065257561 0.445044675
v -0.086775831 0.095253018 0.426764983
v -0.061962435 0.090849352 0.427317282
v -0.118358979 0.085506491 0.421956782
v -0.089739172 0.066749288 0.444628068
v -0.106017072 0.064480657 0.433394598
v -0.089739172 0.066749288 0.444628068
v -0.118358979 0.085506491 0.421956782
v -0.086775831 0.095253018 0.426764983
v -0.025156516 0.002272275 0.390216059
v -0.052714783 -0.016908359 0.415911221
v -0.034375352 0.004914503 0.418393454
v -0.052714783 -0.016908359 0.415911221
v -0.025156516 0.002272275 0.390216059
v -0.046298581 -0.022848439 0.386414766
v -0.022930849 0.028756023 0.394090144
v -0.034375352 0.004914503 0.418393454
v -0.043237252 0.034713190 0.420530622
v -0.034375352 0.004914503 0.418393454
v -0.022930849 0.028756023 0.394090144
v -0.025156516 0.002272275 0.390216059
v -0.017706816 0.071147917 0.382761825
v -0.043237252 0.034713190 0.420530622
v -0.038743495 0.059623814 0.422756826
v -0.043237252 0.034713190 0.420530622
v -0.017706816 0.071147917 0.382761825
v -0.022930849 0.028756023 0.394090144
v -0.042990608 0.108103021 0.394964435
v -0.038743495 0.059623814 0.422756826
v -0.061962435 0.090849352 0.427317282
v -0.038743495 0.059623814 0.422756826
v -0.042990608 0.108103021 0.394964435
v -0.017706816 0.071147917 0.382761825
v -0.078936341 0.112425598 0.393994248
v -0.061962435 0.090849352 0.427317282
v -0.086775831 0.095253018 0.426764983
v -0.061962435 0.090849352 0.427317282
v -0.078936341 0.112425598 0.393994248
v -0.042990608 0.108103021 0.394964435
v -0.122545099 0.096442076 0.391061613
v -0.086775831 0.095253018 0.426764983
v -0.118358979 0.085506491 0.421956782
v -0.086775831 0.095253018 0.426764983
v -0.122545099 0.096442076 0.391061613
v -0.078936341 0.112425598 0.393994248
v -0.029350374 0.001836467 0.384114041
v -0.046298581 -0.022848439 0.386414766
v -0.025156516 0.002272275 0.390216059
v -0.046298581 -0.022848439 0.386414766
v -0.029350374 0.001836467 0.384114041
v -0.047655300 -0.019909134 0.380697634
v -0.029194746 0.025836244 0.387706231
v -0.025156516 0.002272275 0.390216059
v -0.022930849 0.028756023 0.394090144
v -0.025156516 0.002272275 0.390216059
v -0.029194746 0.025836244 0.387706231
v -0.029350374 0.001836467 0.384114041
v -0.016958131 0.032049336 0.345594369
v -0.022930849 0.028756023 0.394090144
v -0.017706816 0.071147917 0.382761825
v -0.022930849 0.028756023 0.394090144
v -0.016958131 0.032049336 0.345594369
v -0.029194746 0.025836244 0.387706231
v -0.040751672 0.100041710 0.348913044
v -0.017706816 0.071147917 0.382761825
v -0.042990608 0.108103021 0.394964435
v -0.017706816 0.071147917 0.382761825
v -0.040751672 0.100041710 0.348913044
v -0.016958131 0.032049336 0.345594369
v -0.076661896 0.110552759 0.348455984
v -0.042990608 0.108103021 0.394964435
v -0.078936341 0.112425598 0.393994248
v -0.042990608 0.108103021 0.394964435
v -0.076661896 0.110552759 0.348455984
v -0.040751672 0.100041710 0.348913044
v -0.118068693 0.095786729 0.345705373
v -0.078936341 0.112425598 0.393994248
v -0.122545099 0.096442076 0.391061613
v -0.078936341 0.112425598 0.393994248
v -0.118068693 0.095786729 0.345705373
v -0.076661896 0.110552759 0.348455984
v -0.040751672 0.100041710 0.348913044
v -0.023938972 0.042020494 0.318359872
v -0.016958131 0.032049336 0.345594369
v -0.023938972 0.042020494 0.318359872
v -0.040751672 0.100041710 0.348913044
v -0.021025332 0.096530021 0.320599987
v -0.076661896 0.110552759 0.348455984
v -0.021025332 0.096530021 0.320599987
v -0.040751672 0.100041710 0.348913044
v -0.021025332 0.096530021 0.320599987
v -0.076661896 0.110552759 0.348455984
v -0.073637189 0.120737324 0.320238046
v -0.118068693 0.095786729 0.345705373
v -0.073637189 0.120737324 0.320238046
v -0.076661896 0.110552759 0.348455984
v -0.073637189 0.120737324 0.320238046
v -0.118068693 0.095786729 0.345705373
v -0.122322239 0.106483295 0.317260951
v -0.021025332 0.096530021 0.320599987
v -0.033002810 0.029776521 0.297758968
v -0.023938972 0.042020494 0.318359872
v -0.033002810 0.029776521 0.297758968
v -0.021025332 0.096530021 0.320599987
v -0.030780559 0.072408974 0.291122176
v -0.073637189 0.120737324 0.320238046
v -0.030780559 0.072408974 0.291122176
v -0.021025332 0.096530021 0.320599987
v -0.030780559 0.072408974 0.291122176
v -0.073637189 0.120737324 0.320238046
v -0.073627073 0.107783004 0.294778592
v -0.122322239 0.106483295 0.317260951
v -0.073627073 0.107783004 0.294778592
v -0.073637189 0.120737324 0.320238046
v -0.073627073 0.107783004 0.294778592
v -0.122322239 0.106483295 0.317260951
v -0.111900418 0.093618265 0.292193447
v -0.034171984 0.025486118 0.384238148
v -0.016958131 0.032049336 0.345594369
v -0.031264342 0.041170009 0.345820279
v -0.016958131 0.032049336 0.345594369
v -0.034171984 0.025486118 0.384238148
v -0.029194746 0.025836244 0.387706231
v -0.023938972 0.042020494 0.318359872
v -0.031264342 0.041170009 0.345820279
v -0.016958131 0.032049336 0.345594369
v -0.031264342 0.041170009 0.345820279
v -0.023938972 0.042020494 0.318359872
v -0.038297770 0.042821056 0.317895728
v -0.033002810 0.029776521 0.297758968
v -0.038297770 0.042821056 0.317895728
v -0.023938972 0.042020494 0.318359872
v -0.038297770 0.042821056 0.317895728
v -0.033002810 0.029776521 0.297758968
v -0.039013826 0.025955440 0.297220925
v -0.030780559 0.072408974 0.291122176
v -0.039013826 0.025955440 0.297220925
v -0.033002810 0.029776521 0.297758968
v -0.039013826 0.025955440 0.297220925
v -0.030780559 0.072408974 0.291122176
v -0.052863023 0.058371595 0.289145587
v -0.073627073 0.107783004 0.294778592
v -0.052863023 0.058371595 0.289145587
v -0.030780559 0.072408974 0.291122176
v -0.052863023 0.058371595 0.289145587
v -0.073627073 0.107783004 0.294778592
v -0.078315756 0.086739142 0.292864987
v -0.111900418 0.093618265 0.292193447
v -0.078315756 0.086739142 0.292864987
v -0.073627073 0.107783004 0.294778592
v -0.078315756 0.086739142 0.292864987
v -0.111900418 0.093618265 0.292193447
v -0.100809077 0.076314099 0.291171980
v -0.088002772 0.035347572 0.439036631
v -0.071490940 0.008849957 0.442747629
v -0.086495321 0.003451638 0.439512874
v -0.088002772 0.035347572 0.439036631
v -0.086495321 0.003451638 0.439512874
v -0.100405282 0.013132094 0.432040041
v -0.088002772 0.035347572 0.439036631
v -0.100405282 0.013132094 0.432040041
v -0.114636333 0.018237487 0.439696322
v -0.088002772 0.035347572 0.439036631
v -0.114636333 0.018237487 0.439696322
v -0.121056943 0.036056217 0.440932863
v -0.088002772 0.035347572 0.439036631
v -0.121056943 0.036056217 0.440932863
v -0.116260685 0.049890096 0.442254142
v -0.088002772 0.035347572 0.439036631
v -0.116260685 0.049890096 0.442254142
v -0.106017072 0.064480657 0.433394598
v -0.080312537 -0.024286841 0.414281642
v -0.071490940 0.008849957 0.442747629
v -0.052714783 -0.016908359 0.415911221
v -0.071490940 0.008849957 0.442747629
v -0.080312537 -0.024286841 0.414281642
v -0.086495321 0.003451638 0.439512874
v -0.103722722 -0.003736206 0.415116601
v -0.086495321 0.003451638 0.439512874
v -0.080312537 -0.024286841 0.414281642
v -0.086495321 0.003451638 0.439512874
v -0.103722722 -0.003736206 0.415116601
v -0.100405282 0.013132094 0.432040041
v -0.128303668 0.002692215 0.414740345
v -0.100405282 0.013132094 0.432040041
v -0.103722722 -0.003736206 0.415116601
v -0.100405282 0.013132094 0.432040041
v -0.128303668 0.002692215 0.414740345
v -0.114636333 0.018237487 0.439696322
v -0.147328447 0.036583897 0.419676217
v -0.114636333 0.018237487 0.439696322
v -0.128303668 0.002692215 0.414740345
v -0.114636333 0.018237487 0.439696322
v -0.147328447 0.036583897 0.419676217
v -0.121056943 0.036056217 0.440932863
v -0.140892643 0.060852050 0.421921017
v -0.121056943 0.036056217 0.440932863
v -0.147328447 0.036583897 0.419676217
v -0.121056943 0.036056217 0.440932863
v -0.140892643 0.060852050 0.421921017
v -0.116260685 0.049890096 0.442254142
v -0.118358979 0.085506491 0.421956782
v -0.116260685 0.049890096 0.442254142
v -0.140892643 0.060852050 0.421921017
v -0.116260685 0.049890096 0.442254142
v -0.118358979 0.085506491 0.421956782
v -0.106017072 0.064480657 0.433394598
v -0.078199540 -0.031446108 0.385468208
v -0.052714783 -0.016908359 0.415911221
v -0.046298581 -0.022848439 0.386414766
v -0.052714783 -0.016908359 0.415911221
v -0.078199540 -0.031446108 0.385468208
v -0.080312537 -0.024286841 0.414281642
v -0.103461457 -0.022435663 0.386881894
v -0.080312537 -0.024286841 0.414281642
v -0.078199540 -0.031446108 0.385468208
v -0.080312537 -0.024286841 0.414281642
v -0.103461457 -0.022435663 0.386881894
v -0.103722722 -0.003736206 0.415116601
v -0.142367013 -0.008096060 0.371603560
v -0.103722722 -0.003736206 0.415116601
v -0.103461457 -0.022435663 0.386881894
v -0.103722722 -0.003736206 0.415116601
v -0.142367013 -0.008096060 0.371603560
v -0.128303668 0.002692215 0.414740345
v -0.166659479 0.029489210 0.383894903
v -0.128303668 0.002692215 0.414740345
v -0.142367013 -0.008096060 0.371603560
v -0.128303668 0.002692215 0.414740345
v -0.166659479 0.029489210 0.383894903
v -0.147328447 0.036583897 0.419676217
v -0.155462971 0.063779160 0.387144392
v -0.147328447 0.036583897 0.419676217
v -0.166659479 0.029489210 0.383894903
v -0.147328447 0.036583897 0.419676217
v -0.155462971 0.063779160 0.387144392
v -0.140892643 0.060852050 0.421921017
v -0.122545099 0.096442076 0.391061613
v -0.140892643 0.060852050 0.421921017
v -0.155462971 0.063779160 0.387144392
v -0.140892643 0.060852050 0.421921017
v -0.122545099 0.096442076 0.391061613
v -0.118358979 0.085506491 0.421956782
v -0.075287558 -0.027364876 0.380002229
v -0.046298581 -0.022848439 0.386414766
v -0.047655300 -0.019909134 0.380697634
v -0.046298581 -0.022848439 0.386414766
v -0.075287558 -0.027364876 0.380002229
v -0.078199540 -0.031446108 0.385468208
v -0.097415521 -0.017530329 0.381599828
v -0.078199540 -0.031446108 0.385468208
v -0.075287558 -0.027364876 0.380002229
v -0.078199540 -0.031446108 0.385468208
v -0.097415521 -0.017530329 0.381599828
v -0.103461457 -0.022435663 0.386881894
v -0.102765101 -0.022496427 0.337913834
v -0.103461457 -0.022435663 0.386881894
v -0.097415521 -0.017530329 0.381599828
v -0.103461457 -0.022435663 0.386881894
v -0.102765101 -0.022496427 0.337913834
v -0.142367013 -0.008096060 0.371603560
v -0.154495593 0.027736990 0.338731889
v -0.142367013 -0.008096060 0.371603560
v -0.102765101 -0.022496427 0.337913834
v -0.142367013 -0.008096060 0.371603560
v -0.154495593 0.027736990 0.338731889
v -0.166659479 0.029489210 0.383894903
v -0.148950601 0.064600284 0.341985462
v -0.166659479 0.029489210 0.383894903
v -0.154495593 0.027736990 0.338731889
v -0.166659479 0.029489210 0.383894903
v -0.148950601 0.064600284 0.341985462
v -0.155462971 0.063779160 0.387144392
v -0.118068693 0.095786729 0.345705373
v -0.155462971 0.063779160 0.387144392
v -0.148950601 0.064600284 0.341985462
v -0.155462971 0.063779160 0.387144392
v -0.118068693 0.095786729 0.345705373
v -0.122545099 0.096442076 0.391061613
v -0.154495593 0.027736990 0.338731889
v -0.105383474 -0.009752136 0.311069820
v -0.155957177 0.010756564 0.308522312
v -0.105383474 -0.009752136 0.311069820
v -0.154495593 0.027736990 0.338731889
v -0.102765101 -0.022496427 0.337913834
v -0.148950601 0.064600284 0.341985462
v -0.155957177 0.010756564 0.308522312
v -0.155802040 0.068506782 0.312883516
v -0.155957177 0.010756564 0.308522312
v -0.148950601 0.064600284 0.341985462
v -0.154495593 0.027736990 0.338731889
v -0.118068693 0.095786729 0.345705373
v -0.155802040 0.068506782 0.312883516
v -0.122322239 0.106483295 0.317260951
v -0.155802040 0.068506782 0.312883516
v -0.118068693 0.095786729 0.345705373
v -0.148950601 0.064600284 0.341985462
v -0.155957177 0.010756564 0.308522312
v -0.087974610 -0.005167945 0.292838472
v -0.126441787 0.011599057 0.282559593
v -0.087974610 -0.005167945 0.292838472
v -0.155957177 0.010756564 0.308522312
v -0.105383474 -0.009752136 0.311069820
v -0.155802040 0.068506782 0.312883516
v -0.126441787 0.011599057 0.282559593
v -0.140915440 0.065009145 0.288755648
v -0.126441787 0.011599057 0.282559593
v -0.155802040 0.068506782 0.312883516
v -0.155957177 0.010756564 0.308522312
v -0.122322239 0.106483295 0.317260951
v -0.140915440 0.065009145 0.288755648
v -0.111900418 0.093618265 0.292193447
v -0.140915440 0.065009145 0.288755648
v -0.122322239 0.106483295 0.317260951
v -0.155802040 0.068506782 0.312883516
v -0.094588454 -0.012919416 0.378830303
v -0.102765101 -0.022496427 0.337913834
v -0.097415521 -0.017530329 0.381599828
v -0.102765101 -0.022496427 0.337913834
v -0.094588454 -0.012919416 0.378830303
v -0.105049279 -0.005733590 0.339215830
v -0.105383474 -0.009752136 0.311069820
v -0.105049279 -0.005733590 0.339215830
v -0.100067413 0.003555338 0.312366762
v -0.105049279 -0.005733590 0.339215830
v -0.105383474 -0.009752136 0.311069820
v -0.102765101 -0.022496427 0.337913834
v -0.087974610 -0.005167945 0.292838472
v -0.100067413 0.003555338 0.312366762
v -0.081963595 -0.001346864 0.293376515
v -0.100067413 0.003555338 0.312366762
v -0.087974610 -0.005167945 0.292838472
v -0.105383474 -0.009752136 0.311069820
v -0.126441787 0.011599057 0.282559593
v -0.081963595 -0.001346864 0.293376515
v -0.104359322 0.025636435 0.284536182
v -0.081963595 -0.001346864 0.293376515
v -0.126441787 0.011599057 0.282559593
v -0.087974610 -0.005167945 0.292838472
v -0.140915440 0.065009145 0.288755648
v -0.104359322 0.025636435 0.284536182
v -0.119774341 0.060384754 0.289154052
v -0.104359322 0.025636435 0.284536182
v -0.140915440 0.065009145 0.288755648
v -0.126441787 0.011599057 0.282559593
v -0.111900418 0.093618265 0.292193447
v -0.119774341 0.060384754 0.289154052
v -0.100809077 0.076314099 0.291171980
v -0.119774341 0.060384754 0.289154052
v -0.111900418 0.093618265 0.292193447
v -0.140915440 0.065009145 0.288755648
vt 0.201452002 0.376536965
vt 0.241410002 0.458920956
vt 0.200026006 0.462502956
vt 0.201452002 0.376536965
vt 0.278138995 0.426470041
vt 0.241410002 0.458920956
vt 0.306840986 0.024426997
vt 0.252721995 0.061303020
vt 0.229321003 0.043986022
vt 0.306840986 0.024426997
vt 0.294961005 0.070536017
vt 0.252721995 0.061303020
vt 0.306840986 0.024426997
vt 0.334239006 0.068275988
vt 0.294961005 0.070536017
vt 0.306840986 0.024426997
vt 0.393480986 0.068028986
vt 0.334239006 0.068275988
vt 0.268258005 0.559836984
vt 0.200026006 0.462502956
vt 0.241410002 0.458920956
vt 0.200026006 0.462502956
vt 0.268258005 0.559836984
vt 0.198148996 0.575707972
vt 0.324712992 0.497231007
vt 0.241410002 0.458920956
vt 0.278138995 0.426470041
vt 0.241410002 0.458920956
vt 0.324712992 0.497231007
vt 0.268258005 0.559836984
vt 0.195352003 0.095734000
vt 0.229321003 0.043986022
vt 0.252721995 0.061303020
vt 0.229321003 0.043986022
vt 0.195352003 0.095734000
vt 0.158020005 0.069949985
vt 0.275628000 0.114161015
vt 0.252721995 0.061303020
vt 0.294961005 0.070536017
vt 0.252721995 0.061303020
vt 0.275628000 0.114161015
vt 0.195352003 0.095734000
vt 0.326647013 0.114273012
vt 0.294961005 0.070536017
vt 0.334239006 0.068275988
vt 0.294961005 0.070536017
vt 0.326647013 0.114273012
vt 0.275628000 0.114161015
vt 0.392738998 0.113941014
vt 0.334239006 0.068275988
vt 0.393480986 0.068028986
vt 0.334239006 0.068275988
vt 0.392738998 0.113941014
vt 0.326647013 0.114273012
vt 0.289133012 0.637656987
vt 0.198148996 0.575707972
vt 0.268258005 0.559836984
vt 0.198148996 0.575707972
vt 0.289133012 0.637656987
vt 0.196775004 0.658820987
vt 0.353841990 0.597265005
vt 0.268258005 0.559836984
vt 0.324712992 0.497231007
vt 0.268258005 0.559836984
vt 0.353841990 0.597265005
vt 0.289133012 0.637656987
vt 0.152842999 0.161903977
vt 0.158020005 0.069949985
vt 0.195352003 0.095734000
vt 0.158020005 0.069949985
vt 0.152842999 0.161903977
vt 0.083094999 0.122246027
vt 0.241043001 0.163609028
vt 0.195352003 0.095734000
vt 0.275628000 0.114161015
vt 0.195352003 0.095734000
vt 0.241043001 0.163609028
vt 0.152842999 0.161903977
vt 0.304280013 0.165601969
vt 0.275628000 0.114161015
vt 0.326647013 0.114273012
vt 0.275628000 0.114161015
vt 0.304280013 0.165601969
vt 0.241043001 0.163609028
vt 0.391914994 0.164876997
vt 0.326647013 0.114273012
vt 0.392738998 0.113941014
vt 0.326647013 0.114273012
vt 0.391914994 0.164876997
vt 0.304280013 0.165601969
vt 0.286778986 0.657455027
vt 0.196775004 0.658820987
vt 0.289133012 0.637656987
vt 0.196775004 0.658820987
vt 0.286778986 0.657455027
vt 0.196502998 0.675261974
vt 0.353377014 0.625795007
vt 0.289133012 0.637656987
vt 0.353841990 0.597265005
vt 0.289133012 0.637656987
vt 0.353377014 0.625795007
vt 0.286778986 0.657455027
vt 0.054724999 0.211055994
vt 0.083094999 0.122246027
vt 0.152842999 0.161903977
vt 0.083094999 0.122246027
vt 0.054724999 0.211055994
vt 0.057367999 0.142791986
vt 0.213997006 0.222612977
vt 0.152842999 0.161903977
vt 0.241043001 0.163609028
vt 0.152842999 0.161903977
vt 0.213997006 0.222612977
vt 0.054724999 0.211055994
vt 0.297816008 0.229247987
vt 0.241043001 0.163609028
vt 0.304280013 0.165601969
vt 0.241043001 0.163609028
vt 0.297816008 0.229247987
vt 0.213997006 0.222612977
vt 0.390839010 0.231364965
vt 0.304280013 0.165601969
vt 0.391914994 0.164876997
vt 0.304280013 0.165601969
vt 0.390839010 0.231364965
vt 0.297816008 0.229247987
vt 0.213997006 0.222612977
vt 0.070221998 0.261026025
vt 0.054724999 0.211055994
vt 0.070221998 0.261026025
vt 0.213997006 0.222612977
vt 0.183258995 0.257542968
vt 0.297816008 0.229247987
vt 0.183258995 0.257542968
vt 0.213997006 0.222612977
vt 0.183258995 0.257542968
vt 0.297816008 0.229247987
vt 0.293633997 0.270334959
vt 0.390839010 0.231364965
vt 0.293633997 0.270334959
vt 0.297816008 0.229247987
vt 0.293633997 0.270334959
vt 0.390839010 0.231364965
vt 0.390127987 0.275061965
vt 0.183258995 0.257542968
vt 0.064595997 0.304639995
vt 0.070221998 0.261026025
vt 0.064595997 0.304639995
vt 0.183258995 0.257542968
vt 0.161569998 0.304264009
vt 0.293633997 0.270334959
vt 0.161569998 0.304264009
vt 0.183258995 0.257542968
vt 0.161569998 0.304264009
vt 0.293633997 0.270334959
vt 0.290253013 0.309579015
vt 0.390127987 0.275061965
vt 0.290253013 0.309579015
vt 0.293633997 0.270334959
vt 0.290253013 0.309579015
vt 0.390127987 0.275061965
vt 0.389432013 0.318019986
vt 0.043471001 0.149921000
vt 0.054724999 0.211055994
vt 0.023313999 0.216723979
vt 0.054724999 0.211055994
vt 0.043471001 0.149921000
vt 0.057367999 0.142791986
vt 0.070221998 0.261026025
vt 0.023313999 0.216723979
vt 0.054724999 0.211055994
vt 0.023313999 0.216723979
vt 0.070221998 0.261026025
vt 0.038550999 0.267773032
vt 0.064595997 0.304639995
vt 0.038550999 0.267773032
vt 0.070221998 0.261026025
vt 0.038550999 0.267773032
vt 0.064595997 0.304639995
vt 0.059560999 0.312649012
vt 0.161569998 0.304264009
vt 0.059560999 0.312649012
vt 0.064595997 0.304639995
vt 0.059560999 0.312649012
vt 0.161569998 0.304264009
vt 0.159804001 0.338217974
vt 0.290253013 0.309579015
vt 0.159804001 0.338217974
vt 0.161569998 0.304264009
vt 0.159804001 0.338217974
vt 0.290253013 0.309579015
vt 0.289321989 0.337581992
vt 0.389432013 0.318019986
vt 0.289321989 0.337581992
vt 0.290253013 0.309579015
vt 0.289321989 0.337581992
vt 0.389432013 0.318019986
vt 0.388965011 0.346894026
vt 0.201452002 0.376536965
vt 0.200026006 0.462502956
vt 0.158782005 0.457549989
vt 0.201452002 0.376536965
vt 0.158782005 0.457549989
vt 0.123147003 0.423898995
vt 0.481510997 0.025641024
vt 0.558393002 0.046283007
vt 0.534435987 0.063266993
vt 0.481510997 0.025641024
vt 0.534435987 0.063266993
vt 0.491903991 0.071905017
vt 0.481510997 0.025641024
vt 0.491903991 0.071905017
vt 0.452702999 0.069097996
vt 0.481510997 0.025641024
vt 0.452702999 0.069097996
vt 0.393480986 0.068028986
vt 0.128601998 0.557519019
vt 0.200026006 0.462502956
vt 0.198148996 0.575707972
vt 0.200026006 0.462502956
vt 0.128601998 0.557519019
vt 0.158782005 0.457549989
vt 0.074244000 0.493083000
vt 0.158782005 0.457549989
vt 0.128601998 0.557519019
vt 0.158782005 0.457549989
vt 0.074244000 0.493083000
vt 0.123147003 0.423898995
vt 0.590687990 0.098500013
vt 0.558393002 0.046283007
vt 0.628849983 0.073251009
vt 0.558393002 0.046283007
vt 0.590687990 0.098500013
vt 0.534435987 0.063266993
vt 0.509827018 0.115790009
vt 0.534435987 0.063266993
vt 0.590687990 0.098500013
vt 0.534435987 0.063266993
vt 0.509827018 0.115790009
vt 0.491903991 0.071905017
vt 0.458808988 0.115188003
vt 0.491903991 0.071905017
vt 0.509827018 0.115790009
vt 0.491903991 0.071905017
vt 0.458808988 0.115188003
vt 0.452702999 0.069097996
vt 0.392738998 0.113941014
vt 0.452702999 0.069097996
vt 0.458808988 0.115188003
vt 0.452702999 0.069097996
vt 0.392738998 0.113941014
vt 0.393480986 0.068028986
vt 0.105169997 0.634597003
vt 0.198148996 0.575707972
vt 0.196775004 0.658820987
vt 0.198148996 0.575707972
vt 0.105169997 0.634597003
vt 0.128601998 0.557519019
vt 0.041809998 0.592123985
vt 0.128601998 0.557519019
vt 0.105169997 0.634597003
vt 0.128601998 0.557519019
vt 0.041809998 0.592123985
vt 0.074244000 0.493083000
vt 0.631047010 0.165261984
vt 0.628849983 0.073251009
vt 0.702073991 0.126608968
vt 0.628849983 0.073251009
vt 0.631047010 0.165261984
vt 0.590687990 0.098500013
vt 0.542809010 0.165705979
vt 0.590687990 0.098500013
vt 0.631047010 0.165261984
vt 0.590687990 0.098500013
vt 0.542809010 0.165705979
vt 0.509827018 0.115790009
vt 0.479510009 0.166813970
vt 0.509827018 0.115790009
vt 0.542809010 0.165705979
vt 0.509827018 0.115790009
vt 0.479510009 0.166813970
vt 0.458808988 0.115188003
vt 0.391914994 0.164876997
vt 0.458808988 0.115188003
vt 0.479510009 0.166813970
vt 0.458808988 0.115188003
vt 0.391914994 0.164876997
vt 0.392738998 0.113941014
vt 0.106880002 0.654456973
vt 0.196775004 0.658820987
vt 0.196502998 0.675261974
vt 0.196775004 0.658820987
vt 0.106880002 0.654456973
vt 0.105169997 0.634597003
vt 0.041342001 0.620671988
vt 0.105169997 0.634597003
vt 0.106880002 0.654456973
vt 0.105169997 0.634597003
vt 0.041342001 0.620671988
vt 0.041809998 0.592123985
vt 0.727549016 0.215829968
vt 0.702073991 0.126608968
vt 0.727135003 0.147533000
vt 0.702073991 0.126608968
vt 0.727549016 0.215829968
vt 0.631047010 0.165261984
vt 0.567942977 0.225058019
vt 0.631047010 0.165261984
vt 0.727549016 0.215829968
vt 0.631047010 0.165261984
vt 0.567942977 0.225058019
vt 0.542809010 0.165705979
vt 0.483915001 0.230525970
vt 0.542809010 0.165705979
vt 0.567942977 0.225058019
vt 0.542809010 0.165705979
vt 0.483915001 0.230525970
vt 0.479510009 0.166813970
vt 0.390839010 0.231364965
vt 0.479510009 0.166813970
vt 0.483915001 0.230525970
vt 0.479510009 0.166813970
vt 0.390839010 0.231364965
vt 0.391914994 0.164876997
vt 0.567942977 0.225058019
vt 0.710393012 0.265568972
vt 0.597498000 0.260421038
vt 0.710393012 0.265568972
vt 0.567942977 0.225058019
vt 0.727549016 0.215829968
vt 0.483915001 0.230525970
vt 0.597498000 0.260421038
vt 0.486746997 0.271661043
vt 0.597498000 0.260421038
vt 0.483915001 0.230525970
vt 0.567942977 0.225058019
vt 0.390839010 0.231364965
vt 0.486746997 0.271661043
vt 0.390127987 0.275061965
vt 0.486746997 0.271661043
vt 0.390839010 0.231364965
vt 0.483915001 0.230525970
vt 0.597498000 0.260421038
vt 0.714591980 0.309240997
vt 0.617663980 0.307456970
vt 0.714591980 0.309240997
vt 0.597498000 0.260421038
vt 0.710393012 0.265568972
vt 0.486746997 0.271661043
vt 0.617663980 0.307456970
vt 0.488851994 0.310953975
vt 0.617663980 0.307456970
vt 0.486746997 0.271661043
vt 0.597498000 0.260421038
vt 0.390127987 0.275061965
vt 0.488851994 0.310953975
vt 0.389432013 0.318019986
vt 0.488851994 0.310953975
vt 0.390127987 0.275061965
vt 0.486746997 0.271661043
vt 0.740795016 0.154863000
vt 0.727549016 0.215829968
vt 0.727135003 0.147533000
vt 0.727549016 0.215829968
vt 0.740795016 0.154863000
vt 0.758762002 0.221939981
vt 0.710393012 0.265568972
vt 0.758762002 0.221939981
vt 0.741840005 0.272758961
vt 0.758762002 0.221939981
vt 0.710393012 0.265568972
vt 0.727549016 0.215829968
vt 0.714591980 0.309240997
vt 0.741840005 0.272758961
vt 0.719367981 0.317321002
vt 0.741840005 0.272758961
vt 0.714591980 0.309240997
vt 0.710393012 0.265568972
vt 0.617663980 0.307456970
vt 0.719367981 0.317321002
vt 0.618317008 0.341436028
vt 0.719367981 0.317321002
vt 0.617663980 0.307456970
vt 0.714591980 0.309240997
vt 0.488851994 0.310953975
vt 0.618317008 0.341436028
vt 0.488873988 0.338968992
vt 0.618317008 0.341436028
vt 0.488851994 0.310953975
vt 0.617663980 0.307456970
vt 0.389432013 0.318019986
vt 0.488873988 0.338968992
vt 0.388965011 0.346894026
vt 0.488873988 0.338968992
vt 0.389432013 0.318019986
vt 0.488851994 0.310953975
vn -0.051145138 -0.059914040 0.996892413
vn 0.465966196 0.106015192 0.878428303
vn 0.210200460 -0.452686847 0.866539316
vn -0.051145138 -0.059914040 0.996892413
vn 0.502408318 -0.102495282 0.858533983
vn 0.465966196 0.106015192 0.878428303
vn -0.051145138 -0.059914040 0.996892413
vn 0.449353583 0.031532376 0.892797327
vn 0.502408318 -0.102495282 0.858533983
vn -0.051145138 -0.059914040 0.996892413
vn 0.088429048 0.276212508 0.957019829
vn 0.449353583 0.031532376 0.892797327
vn -0.051145138 -0.059914040 0.996892413
vn -0.319928025 0.241804888 0.916065748
vn 0.088429048 0.276212508 0.957019829
vn -0.051145138 -0.059914040 0.996892413
vn -0.211488521 0.197924006 0.957130447
vn -0.319928025 0.241804888 0.916065748
vn 0.744699686 -0.224178688 0.628622536
vn 0.210200460 -0.452686847 0.866539316
vn 0.465966196 0.106015192 0.878428303
vn 0.210200460 -0.452686847 0.866539316
vn 0.744699686 -0.224178688 0.628622536
vn 0.437447093 -0.756591409 0.486013869
vn 0.788638303 0.045961555 0.613137148
vn 0.465966196 0.106015192 0.878428303
vn 0.502408318 -0.102495282 0.858533983
vn 0.465966196 0.106015192 0.878428303
vn 0.788638303 0.045961555 0.613137148
vn 0.744699686 -0.224178688 0.628622536
vn 0.761427636 0.186471382 0.620851334
vn 0.502408318 -0.102495282 0.858533983
vn 0.449353583 0.031532376 0.892797327
vn 0.502408318 -0.102495282 0.858533983
vn 0.761427636 0.186471382 0.620851334
vn 0.788638303 0.045961555 0.613137148
vn 0.386157188 0.608628256 0.693148088
vn 0.449353583 0.031532376 0.892797327
vn 0.088429048 0.276212508 0.957019829
vn 0.449353583 0.031532376 0.892797327
vn 0.386157188 0.608628256 0.693148088
vn 0.761427636 0.186471382 0.620851334
vn -0.177539375 0.781354321 0.598301927
vn 0.088429048 0.276212508 0.957019829
vn -0.319928025 0.241804888 0.916065748
vn 0.088429048 0.276212508 0.957019829
vn -0.177539375 0.781354321 0.598301927
vn 0.386157188 0.608628256 0.693148088
vn -0.444162197 0.605768452 0.660124629
vn -0.319928025 0.241804888 0.916065748
vn -0.211488521 0.197924006 0.957130447
vn -0.319928025 0.241804888 0.916065748
vn -0.444162197 0.605768452 0.660124629
vn -0.177539375 0.781354321 0.598301927
vn 0.867881358 -0.474095566 0.148375682
vn 0.437447093 -0.756591409 0.486013869
vn 0.744699686 -0.224178688 0.628622536
vn 0.437447093 -0.756591409 0.486013869
vn 0.867881358 -0.474095566 0.148375682
vn 0.531540756 -0.844810547 0.061315289
vn 0.941778637 -0.062268188 0.330417420
vn 0.744699686 -0.224178688 0.628622536
vn 0.788638303 0.045961555 0.613137148
vn 0.744699686 -0.224178688 0.628622536
vn 0.941778637 -0.062268188 0.330417420
vn 0.867881358 -0.474095566 0.148375682
vn 0.957497735 0.238500965 0.162220151
vn 0.788638303 0.045961555 0.613137148
vn 0.761427636 0.186471382 0.620851334
vn 0.788638303 0.045961555 0.613137148
vn 0.957497735 0.238500965 0.162220151
vn 0.941778637 -0.062268188 0.330417420
vn 0.568803812 0.781073512 0.257655570
vn 0.761427636 0.186471382 0.620851334
vn 0.386157188 0.608628256 0.693148088
vn 0.761427636 0.186471382 0.620851334
vn 0.568803812 0.781073512 0.257655570
vn 0.957497735 0.238500965 0.162220151
vn -0.163462944 0.972733881 0.164525567
vn 0.386157188 0.608628256 0.693148088
vn -0.177539375 0.781354321 0.598301927
vn 0.386157188 0.608628256 0.693148088
vn -0.163462944 0.972733881 0.164525567
vn 0.568803812 0.781073512 0.257655570
vn -0.539195096 0.823151534 0.178017419
vn -0.177539375 0.781354321 0.598301927
vn -0.444162197 0.605768452 0.660124629
vn -0.177539375 0.781354321 0.598301927
vn -0.539195096 0.823151534 0.178017419
vn -0.163462944 0.972733881 0.164525567
vn 0.781914933 -0.361069410 -0.508171151
vn 0.531540756 -0.844810547 0.061315289
vn 0.867881358 -0.474095566 0.148375682
vn 0.531540756 -0.844810547 0.061315289
vn 0.781914933 -0.361069410 -0.508171151
vn 0.499192360 -0.716722666 -0.486945180
vn 0.617286521 -0.701239791 -0.356679276
vn 0.867881358 -0.474095566 0.148375682
vn 0.941778637 -0.062268188 0.330417420
vn 0.867881358 -0.474095566 0.148375682
vn 0.617286521 -0.701239791 -0.356679276
vn 0.781914933 -0.361069410 -0.508171151
vn 0.978193793 -0.027669198 -0.205842948
vn 0.941778637 -0.062268188 0.330417420
vn 0.957497735 0.238500965 0.162220151
vn 0.941778637 -0.062268188 0.330417420
vn 0.978193793 -0.027669198 -0.205842948
vn 0.617286521 -0.701239791 -0.356679276
vn 0.842199674 0.538055337 -0.034585582
vn 0.957497735 0.238500965 0.162220151
vn 0.568803812 0.781073512 0.257655570
vn 0.957497735 0.238500965 0.162220151
vn 0.842199674 0.538055337 -0.034585582
vn 0.978193793 -0.027669198 -0.205842948
vn 0.062044996 0.995545590 0.070988709
vn 0.568803812 0.781073512 0.257655570
vn -0.163462944 0.972733881 0.164525567
vn 0.568803812 0.781073512 0.257655570
vn 0.062044996 0.995545590 0.070988709
vn 0.842199674 0.538055337 -0.034585582
vn -0.540068566 0.836351750 0.094030285
vn -0.163462944 0.972733881 0.164525567
vn -0.539195096 0.823151534 0.178017419
vn -0.163462944 0.972733881 0.164525567
vn -0.540068566 0.836351750 0.094030285
vn 0.062044996 0.995545590 0.070988709
vn 0.842199674 0.538055337 -0.034585582
vn 0.984707903 -0.134297192 0.110971212
vn 0.978193793 -0.027669198 -0.205842948
vn 0.984707903 -0.134297192 0.110971212
vn 0.842199674 0.538055337 -0.034585582
vn 0.834075096 0.545846901 -0.079811617
vn 0.062044996 0.995545590 0.070988709
vn 0.834075096 0.545846901 -0.079811617
vn 0.842199674 0.538055337 -0.034585582
vn 0.834075096 0.545846901 -0.079811617
vn 0.062044996 0.995545590 0.070988709
vn 0.130101683 0.981658469 -0.139356387
vn -0.540068566 0.836351750 0.094030285
vn 0.130101683 0.981658469 -0.139356387
vn 0.062044996 0.995545590 0.070988709
vn 0.130101683 0.981658469 -0.139356387
vn -0.540068566 0.836351750 0.094030285
vn -0.511752628 0.834060155 -0.206041028
vn 0.834075096 0.545846901 -0.079811617
vn 0.933042113 -0.224123618 -0.281426755
vn 0.984707903 -0.134297192 0.110971212
vn 0.933042113 -0.224123618 -0.281426755
vn 0.834075096 0.545846901 -0.079811617
vn 0.503874125 0.386282301 -0.772590998
vn 0.130101683 0.981658469 -0.139356387
vn 0.503874125 0.386282301 -0.772590998
vn 0.834075096 0.545846901 -0.079811617
vn 0.503874125 0.386282301 -0.772590998
vn 0.130101683 0.981658469 -0.139356387
vn 0.039050723 0.615527160 -0.787147607
vn -0.511752628 0.834060155 -0.206041028
vn 0.039050723 0.615527160 -0.787147607
vn 0.130101683 0.981658469 -0.139356387
vn 0.039050723 0.615527160 -0.787147607
vn -0.511752628 0.834060155 -0.206041028
vn -0.206739939 0.447722495 -0.869944346
vn -0.350886075 -0.884810340 -0.306577275
vn 0.978193793 -0.027669198 -0.205842948
vn -0.412618412 -0.881575675 -0.229282305
vn 0.978193793 -0.027669198 -0.205842948
vn -0.350886075 -0.884810340 -0.306577275
vn 0.617286521 -0.701239791 -0.356679276
vn 0.984707903 -0.134297192 0.110971212
vn -0.412618412 -0.881575675 -0.229282305
vn 0.978193793 -0.027669198 -0.205842948
vn -0.412618412 -0.881575675 -0.229282305
vn 0.984707903 -0.134297192 0.110971212
vn 0.030589065 -0.950813518 0.308249838
vn 0.933042113 -0.224123618 -0.281426755
vn 0.030589065 -0.950813518 0.308249838
vn 0.984707903 -0.134297192 0.110971212
vn 0.030589065 -0.950813518 0.308249838
vn 0.933042113 -0.224123618 -0.281426755
vn 0.258365314 -0.276084540 -0.925756281
vn 0.503874125 0.386282301 -0.772590998
vn 0.258365314 -0.276084540 -0.925756281
vn 0.933042113 -0.224123618 -0.281426755
vn 0.258365314 -0.276084540 -0.925756281
vn 0.503874125 0.386282301 -0.772590998
vn 0.057972750 0.027170203 -0.997948366
vn 0.039050723 0.615527160 -0.787147607
vn 0.057972750 0.027170203 -0.997948366
vn 0.503874125 0.386282301 -0.772590998
vn 0.057972750 0.027170203 -0.997948366
vn 0.039050723 0.615527160 -0.787147607
vn 0.011435363 0.088027274 -0.996052424
vn -0.206739939 0.447722495 -0.869944346
vn 0.011435363 0.088027274 -0.996052424
vn 0.039050723 0.615527160 -0.787147607
vn 0.011435363 0.088027274 -0.996052424
vn -0.206739939 0.447722495 -0.869944346
vn 0.036785196 0.082367422 -0.995922917
vn -0.051145138 -0.059914040 0.996892413
vn 0.210200460 -0.452686847 0.866539316
vn -0.400806968 -0.444975081 0.800843900
vn -0.051145138 -0.059914040 0.996892413
vn -0.400806968 -0.444975081 0.800843900
vn -0.225728112 -0.565356978 0.793358876
vn -0.051145138 -0.059914040 0.996892413
vn -0.225728112 -0.565356978 0.793358876
vn -0.328653004 -0.463030772 0.823158373
vn -0.051145138 -0.059914040 0.996892413
vn -0.328653004 -0.463030772 0.823158373
vn -0.406824673 -0.038610314 0.912689942
vn -0.051145138 -0.059914040 0.996892413
vn -0.406824673 -0.038610314 0.912689942
vn -0.200643356 0.317631750 0.926742853
vn -0.051145138 -0.059914040 0.996892413
vn -0.200643356 0.317631750 0.926742853
vn -0.211488521 0.197924006 0.957130447
vn -0.187898670 -0.817012720 0.545146131
vn 0.210200460 -0.452686847 0.866539316
vn 0.437447093 -0.756591409 0.486013869
vn 0.210200460 -0.452686847 0.866539316
vn -0.187898670 -0.817012720 0.545146131
vn -0.400806968 -0.444975081 0.800843900
vn -0.447444395 -0.739791368 0.502496014
vn -0.400806968 -0.444975081 0.800843900
vn -0.187898670 -0.817012720 0.545146131
vn -0.400806968 -0.444975081 0.800843900
vn -0.447444395 -0.739791368 0.502496014
vn -0.225728112 -0.565356978 0.793358876
vn -0.563599274 -0.655821584 0.502248852
vn -0.225728112 -0.565356978 0.793358876
vn -0.447444395 -0.739791368 0.502496014
vn -0.225728112 -0.565356978 0.793358876
vn -0.563599274 -0.655821584 0.502248852
vn -0.328653004 -0.463030772 0.823158373
vn -0.796609957 -0.143233009 0.587279220
vn -0.328653004 -0.463030772 0.823158373
vn -0.563599274 -0.655821584 0.502248852
vn -0.328653004 -0.463030772 0.823158373
vn -0.796609957 -0.143233009 0.587279220
vn -0.406824673 -0.038610314 0.912689942
vn -0.705413174 0.445795587 0.551052219
vn -0.406824673 -0.038610314 0.912689942
vn -0.796609957 -0.143233009 0.587279220
vn -0.406824673 -0.038610314 0.912689942
vn -0.705413174 0.445795587 0.551052219
vn -0.200643356 0.317631750 0.926742853
vn -0.444162197 0.605768452 0.660124629
vn -0.200643356 0.317631750 0.926742853
vn -0.705413174 0.445795587 0.551052219
vn -0.200643356 0.317631750 0.926742853
vn -0.444162197 0.605768452 0.660124629
vn -0.211488521 0.197924006 0.957130447
vn 0.046708595 -0.996098566 0.074872914
vn 0.437447093 -0.756591409 0.486013869
vn 0.531540756 -0.844810547 0.061315289
vn 0.437447093 -0.756591409 0.486013869
vn 0.046708595 -0.996098566 0.074872914
vn -0.187898670 -0.817012720 0.545146131
vn -0.377916746 -0.901172004 0.212292140
vn -0.187898670 -0.817012720 0.545146131
vn 0.046708595 -0.996098566 0.074872914
vn -0.187898670 -0.817012720 0.545146131
vn -0.377916746 -0.901172004 0.212292140
vn -0.447444395 -0.739791368 0.502496014
vn -0.633930005 -0.773137638 0.019772241
vn -0.447444395 -0.739791368 0.502496014
vn -0.377916746 -0.901172004 0.212292140
vn -0.447444395 -0.739791368 0.502496014
vn -0.633930005 -0.773137638 0.019772241
vn -0.563599274 -0.655821584 0.502248852
vn -0.972699604 -0.198829191 0.119676366
vn -0.563599274 -0.655821584 0.502248852
vn -0.633930005 -0.773137638 0.019772241
vn -0.563599274 -0.655821584 0.502248852
vn -0.972699604 -0.198829191 0.119676366
vn -0.796609957 -0.143233009 0.587279220
vn -0.828586826 0.549928025 0.104990660
vn -0.796609957 -0.143233009 0.587279220
vn -0.972699604 -0.198829191 0.119676366
vn -0.796609957 -0.143233009 0.587279220
vn -0.828586826 0.549928025 0.104990660
vn -0.705413174 0.445795587 0.551052219
vn -0.539195096 0.823151534 0.178017419
vn -0.705413174 0.445795587 0.551052219
vn -0.828586826 0.549928025 0.104990660
vn -0.705413174 0.445795587 0.551052219
vn -0.539195096 0.823151534 0.178017419
vn -0.444162197 0.605768452 0.660124629
vn 0.063971504 -0.817451579 -0.572433893
vn 0.531540756 -0.844810547 0.061315289
vn 0.499192360 -0.716722666 -0.486945180
vn 0.531540756 -0.844810547 0.061315289
vn 0.063971504 -0.817451579 -0.572433893
vn 0.046708595 -0.996098566 0.074872914
vn 0.419572110 -0.826922857 -0.374376592
vn 0.046708595 -0.996098566 0.074872914
vn 0.063971504 -0.817451579 -0.572433893
vn 0.046708595 -0.996098566 0.074872914
vn 0.419572110 -0.826922857 -0.374376592
vn -0.377916746 -0.901172004 0.212292140
vn -0.356243679 -0.875944236 -0.325287776
vn -0.377916746 -0.901172004 0.212292140
vn 0.419572110 -0.826922857 -0.374376592
vn -0.377916746 -0.901172004 0.212292140
vn -0.356243679 -0.875944236 -0.325287776
vn -0.633930005 -0.773137638 0.019772241
vn -0.830676418 -0.525358345 -0.184323893
vn -0.633930005 -0.773137638 0.019772241
vn -0.356243679 -0.875944236 -0.325287776
vn -0.633930005 -0.773137638 0.019772241
vn -0.830676418 -0.525358345 -0.184323893
vn -0.972699604 -0.198829191 0.119676366
vn -0.931152412 0.364189990 -0.017911899
vn -0.972699604 -0.198829191 0.119676366
vn -0.830676418 -0.525358345 -0.184323893
vn -0.972699604 -0.198829191 0.119676366
vn -0.931152412 0.364189990 -0.017911899
vn -0.828586826 0.549928025 0.104990660
vn -0.540068566 0.836351750 0.094030285
vn -0.828586826 0.549928025 0.104990660
vn -0.931152412 0.364189990 -0.017911899
vn -0.828586826 0.549928025 0.104990660
vn -0.540068566 0.836351750 0.094030285
vn -0.539195096 0.823151534 0.178017419
vn -0.830676418 -0.525358345 -0.184323893
vn -0.303119170 -0.952942950 -0.004301553
vn -0.828575384 -0.511066566 -0.228634638
vn -0.303119170 -0.952942950 -0.004301553
vn -0.830676418 -0.525358345 -0.184323893
vn -0.356243679 -0.875944236 -0.325287776
vn -0.931152412 0.364189990 -0.017911899
vn -0.828575384 -0.511066566 -0.228634638
vn -0.920316910 0.313928500 -0.233378836
vn -0.828575384 -0.511066566 -0.228634638
vn -0.931152412 0.364189990 -0.017911899
vn -0.830676418 -0.525358345 -0.184323893
vn -0.540068566 0.836351750 0.094030285
vn -0.920316910 0.313928500 -0.233378836
vn -0.511752628 0.834060155 -0.206041028
vn -0.920316910 0.313928500 -0.233378836
vn -0.540068566 0.836351750 0.094030285
vn -0.931152412 0.364189990 -0.017911899
vn -0.828575384 -0.511066566 -0.228634638
vn -0.150989365 -0.913220596 -0.378457864
vn -0.459614849 -0.226188263 -0.858832382
vn -0.150989365 -0.913220596 -0.378457864
vn -0.828575384 -0.511066566 -0.228634638
vn -0.303119170 -0.952942950 -0.004301553
vn -0.920316910 0.313928500 -0.233378836
vn -0.459614849 -0.226188263 -0.858832382
vn -0.470646290 0.291523010 -0.832770319
vn -0.459614849 -0.226188263 -0.858832382
vn -0.920316910 0.313928500 -0.233378836
vn -0.828575384 -0.511066566 -0.228634638
vn -0.511752628 0.834060155 -0.206041028
vn -0.470646290 0.291523010 -0.832770319
vn -0.206739939 0.447722495 -0.869944346
vn -0.470646290 0.291523010 -0.832770319
vn -0.511752628 0.834060155 -0.206041028
vn -0.920316910 0.313928500 -0.233378836
vn 0.981573680 -0.037792497 -0.187309470
vn -0.356243679 -0.875944236 -0.325287776
vn 0.419572110 -0.826922857 -0.374376592
vn -0.356243679 -0.875944236 -0.325287776
vn 0.981573680 -0.037792497 -0.187309470
vn 0.994563332 0.012941439 -0.103326168
vn -0.303119170 -0.952942950 -0.004301553
vn 0.994563332 0.012941439 -0.103326168
vn 0.804234472 -0.459022690 0.377498455
vn 0.994563332 0.012941439 -0.103326168
vn -0.303119170 -0.952942950 -0.004301553
vn -0.356243679 -0.875944236 -0.325287776
vn -0.150989365 -0.913220596 -0.378457864
vn 0.804234472 -0.459022690 0.377498455
vn 0.258365314 -0.276084540 -0.925756281
vn 0.804234472 -0.459022690 0.377498455
vn -0.150989365 -0.913220596 -0.378457864
vn -0.303119170 -0.952942950 -0.004301553
vn -0.459614849 -0.226188263 -0.858832382
vn 0.258365314 -0.276084540 -0.925756281
vn 0.077916798 0.039848233 -0.996163185
vn 0.258365314 -0.276084540 -0.925756281
vn -0.459614849 -0.226188263 -0.858832382
vn -0.150989365 -0.913220596 -0.378457864
vn -0.470646290 0.291523010 -0.832770319
vn 0.077916798 0.039848233 -0.996163185
vn 0.042259750 0.107621716 -0.993293350
vn 0.077916798 0.039848233 -0.996163185
vn -0.470646290 0.291523010 -0.832770319
vn -0.459614849 -0.226188263 -0.858832382
vn -0.206739939 0.447722495 -0.869944346
vn 0.042259750 0.107621716 -0.993293350
vn 0.036785196 0.082367422 -0.995922917
vn 0.042259750 0.107621716 -0.993293350
vn -0.206739939 0.447722495 -0.869944346
vn -0.470646290 0.291523010 -0.832770319
f 3/3/3 2/2/2 1/1/1
f 6/6/6 5/5/5 4/4/4
f 9/9/9 8/8/8 7/7/7
f 12/12/12 11/11/11 10/10/10
f 15/15/15 14/14/14 13/13/13
f 18/18/18 17/17/17 16/16/16
f 21/21/21 20/20/20 19/19/19
f 24/24/24 23/23/23 22/22/22
f 27/27/27 26/26/26 25/25/25
f 30/30/30 29/29/29 28/28/28
f 33/33/33 32/32/32 31/31/31
f 36/36/36 35/35/35 34/34/34
f 39/39/39 38/38/38 37/37/37
f 42/42/42 41/41/41 40/40/40
f 45/45/45 44/44/44 43/43/43
f 48/48/48 47/47/47 46/46/46
f 51/51/51 50/50/50 49/49/49
f 54/54/54 53/53/53 52/52/52
f 57/57/57 56/56/56 55/55/55
f 60/60/60 59/59/59 58/58/58
f 63/63/63 62/62/62 61/61/61
f 66/66/66 65/65/65 64/64/64
f 69/69/69 68/68/68 67/67/67
f 72/72/72 71/71/71 70/70/70
f 75/75/75 74/74/74 73/73/73
f 78/78/78 77/77/77 76/76/76
f 81/81/81 80/80/80 79/79/79
f 84/84/84 83/83/83 82/82/82
f 87/87/87 86/86/86 85/85/85
f 90/90/90 89/89/89 88/88/88
f 93/93/93 92/92/92 91/91/91
f 96/96/96 95/95/95 94/94/94
f 99/99/99 98/98/98 97/97/97
f 102/102/102 101/101/101 100/100/100
f 105/105/105 104/104/104 103/103/103
f 108/108/108 107/107/107 106/106/106
f 111/111/111 110/110/110 109/109/109
f 114/114/114 113/113/113 112/112/112
f 117/117/117 116/116/116 115/115/115
f 120/120/120 119/119/119 118/118/118
f 123/123/123 122/122/122 121/121/121
f 126/126/126 125/125/125 124/124/124
f 129/129/129 128/128/128 127/127/127
f 132/132/132 131/131/131 130/130/130
f 135/135/135 134/134/134 133/133/133
f 138/138/138 137/137/137 136/136/136
f 141/141/141 140/140/140 139/139/139
f 144/144/144 143/143/143 142/142/142
f 147/147/147 146/146/146 145/145/145
f 150/150/150 149/149/149 148/148/148
f 153/153/153 152/152/152 151/151/151
f 156/156/156 155/155/155 154/154/154
f 159/159/159 158/158/158 157/157/157
f 162/162/162 161/161/161 160/160/160
f 165/165/165 164/164/164 163/163/163
f 168/168/168 167/167/167 166/166/166
f 171/171/171 170/170/170 169/169/169
f 174/174/174 173/173/173 172/172/172
f 177/177/177 176/176/176 175/175/175
f 180/180/180 179/179/179 178/178/178
f 183/183/183 182/182/182 181/181/181
f 186/186/186 185/185/185 184/184/184
f 189/189/189 188/188/188 187/187/187
f 192/192/192 191/191/191 190/190/190
f 195/195/195 194/194/194 193/193/193
f 198/198/198 197/197/197 196/196/196
f 201/201/201 200/200/200 199/199/199
f 204/204/204 203/203/203 202/202/202
f 207/207/207 206/206/206 205/205/205
f 210/210/210 209/209/209 208/208/208
f 213/213/213 212/212/212 211/211/211
f 216/216/216 215/215/215 214/214/214
f 219/219/219 218/218/218 217/217/217
f 222/222/222 221/221/221 220/220/220
f 225/225/225 224/224/224 223/223/223
f 228/228/228 227/227/227 226/226/226
f 231/231/231 230/230/230 229/229/229
f 234/234/234 233/233/233 232/232/232
f 237/237/237 236/236/236 235/235/235
f 240/240/240 239/239/239 238/238/238
f 243/243/243 242/242/242 241/241/241
f 246/246/246 245/245/245 244/244/244
f 249/249/249 248/248/248 247/247/247
f 252/252/252 251/251/251 250/250/250
f 255/255/255 254/254/254 253/253/253
f 258/258/258 257/257/257 256/256/256
f 261/261/261 260/260/260 259/259/259
f 264/264/264 263/263/263 262/262/262
f 267/267/267 266/266/266 265/265/265
f 270/270/270 269/269/269 268/268/268
f 273/273/273 272/272/272 271/271/271
f 276/276/276 275/275/275 274/274/274
f 279/279/279 278/278/278 277/277/277
f 282/282/282 281/281/281 280/280/280
f 285/285/285 284/284/284 283/283/283
f 288/288/288 287/287/287 286/286/286
f 291/291/291 290/290/290 289/289/289
f 294/294/294 293/293/293 292/292/292
f 297/297/297 296/296/296 295/295/295
f 300/300/300 299/299/299 298/298/298
f 303/303/303 302/302/302 301/301/301
f 306/306/306 305/305/305 304/304/304
f 309/309/309 308/308/308 307/307/307
f 312/312/312 311/311/311 310/310/310
f 315/315/315 314/314/314 313/313/313
f 318/318/318 317/317/317 316/316/316
f 321/321/321 320/320/320 319/319/319
f 324/324/324 323/323/323 322/322/322
f 327/327/327 326/326/326 325/325/325
f 330/330/330 329/329/329 328/328/328
f 333/333/333 332/332/332 331/331/331
f 336/336/336 335/335/335 334/334/334
f 339/339/339 338/338/338 337/337/337
f 342/342/342 341/341/341 340/340/340
f 345/345/345 344/344/344 343/343/343
f 348/348/348 347/347/347 346/346/346
f 351/351/351 350/350/350 349/349/349
f 354/354/354 353/353/353 352/352/352
f 357/357/357 356/356/356 355/355/355
f 360/360/360 359/359/359 358/358/358
f 363/363/363 362/362/362 361/361/361
f 366/366/366 365/365/365 364/364/364
f 369/369/369 368/368/368 367/367/367
f 372/372/372 371/371/371 370/370/370
f 375/375/375 374/374/374 373/373/373
f 378/378/378 377/377/377 376/376/376
f 381/381/381 380/380/380 379/379/379
f 384/384/384 383/383/383 382/382/382
f 387/387/387 386/386/386 385/385/385
f 390/390/390 389/389/389 388/388/388
f 393/393/393 392/392/392 391/391/391
f 396/396/396 395/395/395 394/394/394
