# Static pose baked from local Project Zomboid assets
o Kate_Hair_Bun
v -0.108509084 0.069546590 0.425258032
v -0.141242594 0.071657577 0.401319204
v -0.123734892 0.097461745 0.397112479
v -0.108509084 0.069546590 0.425258032
v -0.139288734 0.044859287 0.414611972
v -0.141242594 0.071657577 0.401319204
v -0.108509084 0.069546590 0.425258032
v -0.113934160 0.024595280 0.430457136
v -0.139288734 0.044859287 0.414611972
v -0.108509084 0.069546590 0.425258032
v -0.083946173 0.028983162 0.438915174
v -0.113934160 0.024595280 0.430457136
v -0.108509084 0.069546590 0.425258032
v -0.066438472 0.054787332 0.434708449
v -0.083946173 0.028983162 0.438915174
v -0.108509084 0.069546590 0.425258032
v -0.072118184 0.087558253 0.420624370
v -0.066438472 0.054787332 0.434708449
v -0.108509084 0.069546590 0.425258032
v -0.093746064 0.101850164 0.405570592
v -0.072118184 0.087558253 0.420624370
v -0.108509084 0.069546590 0.425258032
v -0.123734892 0.097461745 0.397112479
v -0.093746064 0.101850164 0.405570592
v -0.151440444 0.063429782 0.366086686
v -0.123734892 0.097461745 0.397112479
v -0.141242594 0.071657577 0.401319204
v -0.123734892 0.097461745 0.397112479
v -0.151440444 0.063429782 0.366086686
v -0.124269258 0.103573400 0.359678577
v -0.148869358 0.023197485 0.381914973
v -0.141242594 0.071657577 0.401319204
v -0.139288734 0.044859287 0.414611972
v -0.141242594 0.071657577 0.401319204
v -0.148869358 0.023197485 0.381914973
v -0.151440444 0.063429782 0.366086686
v -0.107181994 -0.012269631 0.409234543
v -0.139288734 0.044859287 0.414611972
v -0.113934160 0.024595280 0.430457136
v -0.139288734 0.044859287 0.414611972
v -0.107181994 -0.012269631 0.409234543
v -0.148869358 0.023197485 0.381914973
v -0.060539591 -0.005491375 0.422248654
v -0.113934160 0.024595280 0.430457136
v -0.083946173 0.028983162 0.438915174
v -0.113934160 0.024595280 0.430457136
v -0.060539591 -0.005491375 0.422248654
v -0.107181994 -0.012269631 0.409234543
v -0.033368441 0.034652158 0.415841554
v -0.083946173 0.028983162 0.438915174
v -0.066438472 0.054787332 0.434708449
v -0.083946173 0.028983162 0.438915174
v -0.033368441 0.034652158 0.415841554
v -0.060539591 -0.005491375 0.422248654
v -0.044481511 0.089554737 0.391258671
v -0.066438472 0.054787332 0.434708449
v -0.072118184 0.087558253 0.420624370
v -0.066438472 0.054787332 0.434708449
v -0.044481511 0.089554737 0.391258671
v -0.033368441 0.034652158 0.415841554
v -0.077626892 0.110351571 0.372693696
v -0.072118184 0.087558253 0.420624370
v -0.093746064 0.101850164 0.405570592
v -0.072118184 0.087558253 0.420624370
v -0.077626892 0.110351571 0.372693696
v -0.044481511 0.089554737 0.391258671
v -0.124269258 0.103573400 0.359678577
v -0.093746064 0.101850164 0.405570592
v -0.123734892 0.097461745 0.397112479
v -0.093746064 0.101850164 0.405570592
v -0.124269258 0.103573400 0.359678577
v -0.077626892 0.110351571 0.372693696
v -0.129826802 0.051600030 0.317799503
v -0.124269258 0.103573400 0.359678577
v -0.151440444 0.063429782 0.366086686
v -0.124269258 0.103573400 0.359678577
v -0.129826802 0.051600030 0.317799503
v -0.104225983 0.079390971 0.307494273
v -0.139235548 0.020626637 0.364830989
v -0.151440444 0.063429782 0.366086686
v -0.148869358 0.023197485 0.381914973
v -0.151440444 0.063429782 0.366086686
v -0.139235548 0.020626637 0.364830989
v -0.129826802 0.051600030 0.317799503
v -0.099351584 -0.018278641 0.394710397
v -0.148869358 0.023197485 0.381914973
v -0.107181994 -0.012269631 0.409234543
v -0.148869358 0.023197485 0.381914973
v -0.099351584 -0.018278641 0.394710397
v -0.139235548 0.020626637 0.364830989
v -0.055492815 -0.010857010 0.403971826
v -0.107181994 -0.012269631 0.409234543
v -0.060539591 -0.005491375 0.422248654
v -0.107181994 -0.012269631 0.409234543
v -0.055492815 -0.010857010 0.403971826
v -0.099351584 -0.018278641 0.394710397
v -0.029377069 0.026202750 0.400973777
v -0.060539591 -0.005491375 0.422248654
v -0.033368441 0.034652158 0.415841554
v -0.060539591 -0.005491375 0.422248654
v -0.029377069 0.026202750 0.400973777
v -0.055492815 -0.010857010 0.403971826
v -0.044011912 0.081158386 0.373354404
v -0.033368441 0.034652158 0.415841554
v -0.044481511 0.089554737 0.391258671
v -0.033368441 0.034652158 0.415841554
v -0.044011912 0.081158386 0.373354404
v -0.029377069 0.026202750 0.400973777
v -0.069852976 0.089724183 0.323167727
v -0.044481511 0.089554737 0.391258671
v -0.077626892 0.110351571 0.372693696
v -0.044481511 0.089554737 0.391258671
v -0.069852976 0.089724183 0.323167727
v -0.044011912 0.081158386 0.373354404
v -0.104225983 0.079390971 0.307494273
v -0.077626892 0.110351571 0.372693696
v -0.124269258 0.103573400 0.359678577
v -0.077626892 0.110351571 0.372693696
v -0.104225983 0.079390971 0.307494273
v -0.069852976 0.089724183 0.323167727
v -0.089899404 0.056037419 0.313290346
v -0.104225983 0.079390971 0.307494273
v -0.129826802 0.051600030 0.317799503
v -0.089899404 0.056037419 0.313290346
v -0.129826802 0.051600030 0.317799503
v -0.139235548 0.020626637 0.364830989
v -0.089899404 0.056037419 0.313290346
v -0.139235548 0.020626637 0.364830989
v -0.099351584 -0.018278641 0.394710397
v -0.089899404 0.056037419 0.313290346
v -0.099351584 -0.018278641 0.394710397
v -0.055492815 -0.010857010 0.403971826
v -0.089899404 0.056037419 0.313290346
v -0.055492815 -0.010857010 0.403971826
v -0.029377069 0.026202750 0.400973777
v -0.089899404 0.056037419 0.313290346
v -0.029377069 0.026202750 0.400973777
v -0.044011912 0.081158386 0.373354404
v -0.089899404 0.056037419 0.313290346
v -0.044011912 0.081158386 0.373354404
v -0.069852976 0.089724183 0.323167727
v -0.089899404 0.056037419 0.313290346
v -0.069852976 0.089724183 0.323167727
v -0.104225983 0.079390971 0.307494273
v -0.126166426 0.095363112 0.439181669
v -0.146110949 0.095525631 0.422439174
v -0.133893985 0.110317147 0.419313164
v -0.126166426 0.095363112 0.439181669
v -0.145380299 0.079028197 0.432691977
v -0.146110949 0.095525631 0.422439174
v -0.126166426 0.095363112 0.439181669
v -0.132131659 0.070489376 0.444065416
v -0.145380299 0.079028197 0.432691977
v -0.126166426 0.095363112 0.439181669
v -0.114124398 0.074910794 0.449896721
v -0.132131659 0.070489376 0.444065416
v -0.126166426 0.095363112 0.439181669
v -0.101907436 0.089702306 0.446770770
v -0.114124398 0.074910794 0.449896721
v -0.126166426 0.095363112 0.439181669
v -0.102637545 0.106198905 0.436517858
v -0.101907436 0.089702306 0.446770770
v -0.126166426 0.095363112 0.439181669
v -0.115886725 0.114738561 0.425144528
v -0.102637545 0.106198905 0.436517858
v -0.126166426 0.095363112 0.439181669
v -0.133893985 0.110317147 0.419313164
v -0.115886725 0.114738561 0.425144528
v -0.150056841 0.090094275 0.406349056
v -0.133893985 0.110317147 0.419313164
v -0.146110949 0.095525631 0.422439174
v -0.133893985 0.110317147 0.419313164
v -0.150056841 0.090094275 0.406349056
v -0.132779728 0.111012205 0.401928517
v -0.149024357 0.066764395 0.420849531
v -0.146110949 0.095525631 0.422439174
v -0.145380299 0.079028197 0.432691977
v -0.146110949 0.095525631 0.422439174
v -0.149024357 0.066764395 0.420849531
v -0.150056841 0.090094275 0.406349056
v -0.130287291 0.054687839 0.436933622
v -0.145380299 0.079028197 0.432691977
v -0.132131659 0.070489376 0.444065416
v -0.145380299 0.079028197 0.432691977
v -0.130287291 0.054687839 0.436933622
v -0.149024357 0.066764395 0.420849531
v -0.104821649 0.060940617 0.445180042
v -0.132131659 0.070489376 0.444065416
v -0.114124398 0.074910794 0.449896721
v -0.132131659 0.070489376 0.444065416
v -0.104821649 0.060940617 0.445180042
v -0.130287291 0.054687839 0.436933622
v -0.087544536 0.081858547 0.440759502
v -0.114124398 0.074910794 0.449896721
v -0.101907436 0.089702306 0.446770770
v -0.114124398 0.074910794 0.449896721
v -0.087544536 0.081858547 0.440759502
v -0.104821649 0.060940617 0.445180042
v -0.088577596 0.105189183 0.426260087
v -0.101907436 0.089702306 0.446770770
v -0.102637545 0.106198905 0.436517858
v -0.101907436 0.089702306 0.446770770
v -0.088577596 0.105189183 0.426260087
v -0.087544536 0.081858547 0.440759502
v -0.107314086 0.117264983 0.410174936
v -0.102637545 0.106198905 0.436517858
v -0.115886725 0.114738561 0.425144528
v -0.102637545 0.106198905 0.436517858
v -0.107314086 0.117264983 0.410174936
v -0.088577596 0.105189183 0.426260087
v -0.132779728 0.111012205 0.401928517
v -0.115886725 0.114738561 0.425144528
v -0.133893985 0.110317147 0.419313164
v -0.115886725 0.114738561 0.425144528
v -0.132779728 0.111012205 0.401928517
v -0.107314086 0.117264983 0.410174936
v -0.135693945 0.082250522 0.400337789
v -0.132779728 0.111012205 0.401928517
v -0.150056841 0.090094275 0.406349056
v -0.132779728 0.111012205 0.401928517
v -0.135693945 0.082250522 0.400337789
v -0.123476977 0.097042032 0.397211778
v -0.134963832 0.065753917 0.410590701
v -0.150056841 0.090094275 0.406349056
v -0.149024357 0.066764395 0.420849531
v -0.150056841 0.090094275 0.406349056
v -0.134963832 0.065753917 0.410590701
v -0.135693945 0.082250522 0.400337789
v -0.121715190 0.057215100 0.421964080
v -0.149024357 0.066764395 0.420849531
v -0.130287291 0.054687839 0.436933622
v -0.149024357 0.066764395 0.420849531
v -0.121715190 0.057215100 0.421964080
v -0.134963832 0.065753917 0.410590701
v -0.103707934 0.061636521 0.427795445
v -0.130287291 0.054687839 0.436933622
v -0.104821649 0.060940617 0.445180042
v -0.130287291 0.054687839 0.436933622
v -0.103707934 0.061636521 0.427795445
v -0.121715190 0.057215100 0.421964080
v -0.091490966 0.076428031 0.424669434
v -0.104821649 0.060940617 0.445180042
v -0.087544536 0.081858547 0.440759502
v -0.104821649 0.060940617 0.445180042
v -0.091490966 0.076428031 0.424669434
v -0.103707934 0.061636521 0.427795445
v -0.092221078 0.092924625 0.414416581
v -0.087544536 0.081858547 0.440759502
v -0.088577596 0.105189183 0.426260087
v -0.087544536 0.081858547 0.440759502
v -0.092221078 0.092924625 0.414416581
v -0.091490966 0.076428031 0.424669434
v -0.105469722 0.101463453 0.403043143
v -0.088577596 0.105189183 0.426260087
v -0.107314086 0.117264983 0.410174936
v -0.088577596 0.105189183 0.426260087
v -0.105469722 0.101463453 0.403043143
v -0.092221078 0.092924625 0.414416581
v -0.123476977 0.097042032 0.397211778
v -0.107314086 0.117264983 0.410174936
v -0.132779728 0.111012205 0.401928517
v -0.107314086 0.117264983 0.410174936
v -0.123476977 0.097042032 0.397211778
v -0.105469722 0.101463453 0.403043143
v -0.111434949 0.076589715 0.407926830
v -0.123476977 0.097042032 0.397211778
v -0.135693945 0.082250522 0.400337789
v -0.111434949 0.076589715 0.407926830
v -0.135693945 0.082250522 0.400337789
v -0.134963832 0.065753917 0.410590701
v -0.111434949 0.076589715 0.407926830
v -0.134963832 0.065753917 0.410590701
v -0.121715190 0.057215100 0.421964080
v -0.111434949 0.076589715 0.407926830
v -0.121715190 0.057215100 0.421964080
v -0.103707934 0.061636521 0.427795445
v -0.111434949 0.076589715 0.407926830
v -0.103707934 0.061636521 0.427795445
v -0.091490966 0.076428031 0.424669434
v -0.111434949 0.076589715 0.407926830
v -0.091490966 0.076428031 0.424669434
v -0.092221078 0.092924625 0.414416581
v -0.111434949 0.076589715 0.407926830
v -0.092221078 0.092924625 0.414416581
v -0.105469722 0.101463453 0.403043143
v -0.111434949 0.076589715 0.407926830
v -0.105469722 0.101463453 0.403043143
v -0.123476977 0.097042032 0.397211778
vt 0.154459998 0.009316981
vt 0.201528996 0.070632994
vt 0.106816001 0.070632994
vt 0.248598993 0.009316981
vt 0.298539013 0.070632994
vt 0.201528996 0.070632994
vt 0.348479003 0.009316981
vt 0.397843987 0.070632994
vt 0.298539013 0.070632994
vt 0.447210014 0.009316981
vt 0.493781000 0.070632994
vt 0.397843987 0.070632994
vt 0.540351987 0.009316981
vt 0.587336004 0.070632994
vt 0.493781000 0.070632994
vt 0.634320021 0.009316981
vt 0.682923973 0.070632994
vt 0.587336004 0.070632994
vt 0.731527984 0.009316981
vt 0.775116980 0.070632994
vt 0.682923973 0.070632994
vt 0.059172001 0.009316981
vt 0.106816001 0.070632994
vt 0.015582000 0.070632994
vt 0.201528996 0.221266031
vt 0.106816001 0.070632994
vt 0.201528996 0.070632994
vt 0.106816001 0.070632994
vt 0.201528996 0.221266031
vt 0.106816001 0.221266031
vt 0.298539013 0.221266031
vt 0.201528996 0.070632994
vt 0.298539013 0.070632994
vt 0.201528996 0.070632994
vt 0.298539013 0.221266031
vt 0.201528996 0.221266031
vt 0.397843987 0.221266031
vt 0.298539013 0.070632994
vt 0.397843987 0.070632994
vt 0.298539013 0.070632994
vt 0.397843987 0.221266031
vt 0.298539013 0.221266031
vt 0.493781000 0.221266031
vt 0.397843987 0.070632994
vt 0.493781000 0.070632994
vt 0.397843987 0.070632994
vt 0.493781000 0.221266031
vt 0.397843987 0.221266031
vt 0.587336004 0.221266031
vt 0.493781000 0.070632994
vt 0.587336004 0.070632994
vt 0.493781000 0.070632994
vt 0.587336004 0.221266031
vt 0.493781000 0.221266031
vt 0.682923973 0.221266031
vt 0.587336004 0.070632994
vt 0.682923973 0.070632994
vt 0.587336004 0.070632994
vt 0.682923973 0.221266031
vt 0.587336004 0.221266031
vt 0.775116980 0.221266031
vt 0.682923973 0.070632994
vt 0.775116980 0.070632994
vt 0.682923973 0.070632994
vt 0.775116980 0.221266031
vt 0.682923973 0.221266031
vt 0.106816001 0.221266031
vt 0.015582000 0.070632994
vt 0.106816001 0.070632994
vt 0.015582000 0.070632994
vt 0.106816001 0.221266031
vt 0.015582000 0.221266031
vt 0.201528996 0.329205990
vt 0.106816001 0.221266031
vt 0.201528996 0.221266031
vt 0.106816001 0.221266031
vt 0.201528996 0.329205990
vt 0.106816001 0.329205990
vt 0.298539013 0.329205990
vt 0.201528996 0.221266031
vt 0.298539013 0.221266031
vt 0.201528996 0.221266031
vt 0.298539013 0.329205990
vt 0.201528996 0.329205990
vt 0.397843987 0.329205990
vt 0.298539013 0.221266031
vt 0.397843987 0.221266031
vt 0.298539013 0.221266031
vt 0.397843987 0.329205990
vt 0.298539013 0.329205990
vt 0.493781000 0.329205990
vt 0.397843987 0.221266031
vt 0.493781000 0.221266031
vt 0.397843987 0.221266031
vt 0.493781000 0.329205990
vt 0.397843987 0.329205990
vt 0.587336004 0.329205990
vt 0.493781000 0.221266031
vt 0.587336004 0.221266031
vt 0.493781000 0.221266031
vt 0.587336004 0.329205990
vt 0.493781000 0.329205990
vt 0.682923973 0.329205990
vt 0.587336004 0.221266031
vt 0.682923973 0.221266031
vt 0.587336004 0.221266031
vt 0.682923973 0.329205990
vt 0.587336004 0.329205990
vt 0.775116980 0.329205990
vt 0.682923973 0.221266031
vt 0.775116980 0.221266031
vt 0.682923973 0.221266031
vt 0.775116980 0.329205990
vt 0.682923973 0.329205990
vt 0.106816001 0.329205990
vt 0.015582000 0.221266031
vt 0.106816001 0.221266031
vt 0.015582000 0.221266031
vt 0.106816001 0.329205990
vt 0.015582000 0.329205990
vt 0.154459998 0.351482034
vt 0.106816001 0.329205990
vt 0.201528996 0.329205990
vt 0.248598993 0.351482034
vt 0.201528996 0.329205990
vt 0.298539013 0.329205990
vt 0.348479003 0.351482034
vt 0.298539013 0.329205990
vt 0.397843987 0.329205990
vt 0.447210014 0.351482034
vt 0.397843987 0.329205990
vt 0.493781000 0.329205990
vt 0.540351987 0.351482034
vt 0.493781000 0.329205990
vt 0.587336004 0.329205990
vt 0.634320021 0.351482034
vt 0.587336004 0.329205990
vt 0.682923973 0.329205990
vt 0.731527984 0.351482034
vt 0.682923973 0.329205990
vt 0.775116980 0.329205990
vt 0.059172001 0.351482034
vt 0.015582000 0.329205990
vt 0.106816001 0.329205990
vt 0.335110009 0.379826009
vt 0.377016991 0.437445045
vt 0.304392993 0.437445045
vt 0.408868015 0.379826009
vt 0.448556006 0.437445045
vt 0.377016991 0.437445045
vt 0.478188008 0.379826009
vt 0.519293010 0.437445045
vt 0.448556006 0.437445045
vt 0.550342023 0.379826009
vt 0.587228000 0.437445045
vt 0.519293010 0.437445045
vt 0.049461000 0.379826009
vt 0.090458997 0.437445045
vt 0.022630000 0.437445045
vt 0.121402003 0.379826009
vt 0.162515000 0.437445045
vt 0.090458997 0.437445045
vt 0.193572998 0.379826009
vt 0.233623996 0.437445045
vt 0.162515000 0.437445045
vt 0.263619989 0.379826009
vt 0.304392993 0.437445045
vt 0.233623996 0.437445045
vt 0.377016991 0.506259024
vt 0.304392993 0.437445045
vt 0.377016991 0.437445045
vt 0.304392993 0.437445045
vt 0.377016991 0.506259024
vt 0.304392993 0.506259024
vt 0.448556006 0.506259024
vt 0.377016991 0.437445045
vt 0.448556006 0.437445045
vt 0.377016991 0.437445045
vt 0.448556006 0.506259024
vt 0.377016991 0.506259024
vt 0.519293010 0.506259024
vt 0.448556006 0.437445045
vt 0.519293010 0.437445045
vt 0.448556006 0.437445045
vt 0.519293010 0.506259024
vt 0.448556006 0.506259024
vt 0.587228000 0.506259024
vt 0.519293010 0.437445045
vt 0.587228000 0.437445045
vt 0.519293010 0.437445045
vt 0.587228000 0.506259024
vt 0.519293010 0.506259024
vt 0.090458997 0.506259024
vt 0.022630000 0.437445045
vt 0.090458997 0.437445045
vt 0.022630000 0.437445045
vt 0.090458997 0.506259024
vt 0.022630000 0.506259024
vt 0.162515000 0.506259024
vt 0.090458997 0.437445045
vt 0.162515000 0.437445045
vt 0.090458997 0.437445045
vt 0.162515000 0.506259024
vt 0.090458997 0.506259024
vt 0.233623996 0.506259024
vt 0.162515000 0.437445045
vt 0.233623996 0.437445045
vt 0.162515000 0.437445045
vt 0.233623996 0.506259024
vt 0.162515000 0.506259024
vt 0.304392993 0.506259024
vt 0.233623996 0.437445045
vt 0.304392993 0.437445045
vt 0.233623996 0.437445045
vt 0.304392993 0.506259024
vt 0.233623996 0.506259024
vt 0.377016991 0.575073004
vt 0.304392993 0.506259024
vt 0.377016991 0.506259024
vt 0.304392993 0.506259024
vt 0.377016991 0.575073004
vt 0.304392993 0.575073004
vt 0.448556006 0.575073004
vt 0.377016991 0.506259024
vt 0.448556006 0.506259024
vt 0.377016991 0.506259024
vt 0.448556006 0.575073004
vt 0.377016991 0.575073004
vt 0.519293010 0.575073004
vt 0.448556006 0.506259024
vt 0.519293010 0.506259024
vt 0.448556006 0.506259024
vt 0.519293010 0.575073004
vt 0.448556006 0.575073004
vt 0.587228000 0.575073004
vt 0.519293010 0.506259024
vt 0.587228000 0.506259024
vt 0.519293010 0.506259024
vt 0.587228000 0.575073004
vt 0.519293010 0.575073004
vt 0.090458997 0.575073004
vt 0.022630000 0.506259024
vt 0.090458997 0.506259024
vt 0.022630000 0.506259024
vt 0.090458997 0.575073004
vt 0.022630000 0.575073004
vt 0.162515000 0.575073004
vt 0.090458997 0.506259024
vt 0.162515000 0.506259024
vt 0.090458997 0.506259024
vt 0.162515000 0.575073004
vt 0.090458997 0.575073004
vt 0.233623996 0.575073004
vt 0.162515000 0.506259024
vt 0.233623996 0.506259024
vt 0.162515000 0.506259024
vt 0.233623996 0.575073004
vt 0.162515000 0.575073004
vt 0.304392993 0.575073004
vt 0.233623996 0.506259024
vt 0.304392993 0.506259024
vt 0.233623996 0.506259024
vt 0.304392993 0.575073004
vt 0.233623996 0.575073004
vt 0.339987993 0.625446975
vt 0.304392993 0.575073004
vt 0.377016991 0.575073004
vt 0.413745999 0.625446975
vt 0.377016991 0.575073004
vt 0.448556006 0.575073004
vt 0.483065993 0.625446975
vt 0.448556006 0.575073004
vt 0.519293010 0.575073004
vt 0.555220008 0.625446975
vt 0.519293010 0.575073004
vt 0.587228000 0.575073004
vt 0.054338999 0.625446975
vt 0.022630000 0.575073004
vt 0.090458997 0.575073004
vt 0.126279995 0.625446975
vt 0.090458997 0.575073004
vt 0.162515000 0.575073004
vt 0.198451996 0.625446975
vt 0.162515000 0.575073004
vt 0.233623996 0.575073004
vt 0.268498003 0.625446975
vt 0.233623996 0.575073004
vt 0.304392993 0.575073004
vn -0.308619856 0.361616849 0.879765332
vn -0.841506217 0.300033169 0.449274287
vn -0.610108442 0.691420714 0.386917415
vn -0.308619856 0.361616849 0.879765332
vn -0.746499564 -0.156077698 0.646821577
vn -0.841506217 0.300033169 0.449274287
vn -0.308619856 0.361616849 0.879765332
vn -0.364617720 -0.282960478 0.887123039
vn -0.746499564 -0.156077698 0.646821577
vn -0.308619856 0.361616849 0.879765332
vn 0.094730729 -0.093201873 0.991130415
vn -0.364617720 -0.282960478 0.887123039
vn -0.308619856 0.361616849 0.879765332
vn 0.377815715 0.311357452 0.871958613
vn 0.094730729 -0.093201873 0.991130415
vn -0.308619856 0.361616849 0.879765332
vn 0.252568799 0.684699724 0.683663140
vn 0.377815715 0.311357452 0.871958613
vn -0.308619856 0.361616849 0.879765332
vn -0.131062905 0.879006968 0.458442215
vn 0.252568799 0.684699724 0.683663140
vn -0.308619856 0.361616849 0.879765332
vn -0.610108442 0.691420714 0.386917415
vn -0.131062905 0.879006968 0.458442215
vn -0.955520596 0.236554260 -0.176131972
vn -0.610108442 0.691420714 0.386917415
vn -0.841506217 0.300033169 0.449274287
vn -0.610108442 0.691420714 0.386917415
vn -0.955520596 0.236554260 -0.176131972
vn -0.524361556 0.807562727 -0.269976668
vn -0.898912148 -0.401328624 0.175762013
vn -0.841506217 0.300033169 0.449274287
vn -0.746499564 -0.156077698 0.646821577
vn -0.841506217 0.300033169 0.449274287
vn -0.898912148 -0.401328624 0.175762013
vn -0.955520596 0.236554260 -0.176131972
vn -0.472370120 -0.677606202 0.563663290
vn -0.746499564 -0.156077698 0.646821577
vn -0.364617720 -0.282960478 0.887123039
vn -0.746499564 -0.156077698 0.646821577
vn -0.472370120 -0.677606202 0.563663290
vn -0.898912148 -0.401328624 0.175762013
vn 0.242494858 -0.536604165 0.808240196
vn -0.364617720 -0.282960478 0.887123039
vn 0.094730729 -0.093201873 0.991130415
vn -0.364617720 -0.282960478 0.887123039
vn 0.242494858 -0.536604165 0.808240196
vn -0.472370120 -0.677606202 0.563663290
vn 0.753169820 0.088141631 0.651894374
vn 0.094730729 -0.093201873 0.991130415
vn 0.377815715 0.311357452 0.871958613
vn 0.094730729 -0.093201873 0.991130415
vn 0.753169820 0.088141631 0.651894374
vn 0.242494858 -0.536604165 0.808240196
vn 0.718106224 0.640923286 0.271184056
vn 0.377815715 0.311357452 0.871958613
vn 0.252568799 0.684699724 0.683663140
vn 0.377815715 0.311357452 0.871958613
vn 0.718106224 0.640923286 0.271184056
vn 0.753169820 0.088141631 0.651894374
vn 0.165076848 0.979538177 -0.115128596
vn 0.252568799 0.684699724 0.683663140
vn -0.131062905 0.879006968 0.458442215
vn 0.252568799 0.684699724 0.683663140
vn 0.165076848 0.979538177 -0.115128596
vn 0.718106224 0.640923286 0.271184056
vn -0.524361556 0.807562727 -0.269976668
vn -0.131062905 0.879006968 0.458442215
vn -0.610108442 0.691420714 0.386917415
vn -0.131062905 0.879006968 0.458442215
vn -0.524361556 0.807562727 -0.269976668
vn 0.165076848 0.979538177 -0.115128596
vn -0.733581973 -0.049620808 -0.677787035
vn -0.524361556 0.807562727 -0.269976668
vn -0.955520596 0.236554260 -0.176131972
vn -0.524361556 0.807562727 -0.269976668
vn -0.733581973 -0.049620808 -0.677787035
vn -0.207162507 0.704861312 -0.678420391
vn -0.428953389 -0.691559423 -0.581157944
vn -0.955520596 0.236554260 -0.176131972
vn -0.898912148 -0.401328624 0.175762013
vn -0.955520596 0.236554260 -0.176131972
vn -0.428953389 -0.691559423 -0.581157944
vn -0.733581973 -0.049620808 -0.677787035
vn -0.087385683 -0.827239484 -0.555012234
vn -0.898912148 -0.401328624 0.175762013
vn -0.472370120 -0.677606202 0.563663290
vn -0.898912148 -0.401328624 0.175762013
vn -0.087385683 -0.827239484 -0.555012234
vn -0.428953389 -0.691559423 -0.581157944
vn 0.473562453 -0.741125396 -0.475890481
vn -0.472370120 -0.677606202 0.563663290
vn 0.242494858 -0.536604165 0.808240196
vn -0.472370120 -0.677606202 0.563663290
vn 0.473562453 -0.741125396 -0.475890481
vn -0.087385683 -0.827239484 -0.555012234
vn 0.842210776 -0.297430066 -0.449684738
vn 0.242494858 -0.536604165 0.808240196
vn 0.753169820 0.088141631 0.651894374
vn 0.242494858 -0.536604165 0.808240196
vn 0.842210776 -0.297430066 -0.449684738
vn 0.473562453 -0.741125396 -0.475890481
vn 0.901627487 -0.012036612 -0.432345921
vn 0.753169820 0.088141631 0.651894374
vn 0.718106224 0.640923286 0.271184056
vn 0.753169820 0.088141631 0.651894374
vn 0.901627487 -0.012036612 -0.432345921
vn 0.842210776 -0.297430066 -0.449684738
vn 0.634605517 0.534733293 -0.557975039
vn 0.718106224 0.640923286 0.271184056
vn 0.165076848 0.979538177 -0.115128596
vn 0.718106224 0.640923286 0.271184056
vn 0.634605517 0.534733293 -0.557975039
vn 0.901627487 -0.012036612 -0.432345921
vn -0.207162507 0.704861312 -0.678420391
vn 0.165076848 0.979538177 -0.115128596
vn -0.524361556 0.807562727 -0.269976668
vn 0.165076848 0.979538177 -0.115128596
vn -0.207162507 0.704861312 -0.678420391
vn 0.634605517 0.534733293 -0.557975039
vn 0.418360063 -0.557120752 -0.717350211
vn -0.207162507 0.704861312 -0.678420391
vn -0.733581973 -0.049620808 -0.677787035
vn 0.418360063 -0.557120752 -0.717350211
vn -0.733581973 -0.049620808 -0.677787035
vn -0.428953389 -0.691559423 -0.581157944
vn 0.418360063 -0.557120752 -0.717350211
vn -0.428953389 -0.691559423 -0.581157944
vn -0.087385683 -0.827239484 -0.555012234
vn 0.418360063 -0.557120752 -0.717350211
vn -0.087385683 -0.827239484 -0.555012234
vn 0.473562453 -0.741125396 -0.475890481
vn 0.418360063 -0.557120752 -0.717350211
vn 0.473562453 -0.741125396 -0.475890481
vn 0.842210776 -0.297430066 -0.449684738
vn 0.418360063 -0.557120752 -0.717350211
vn 0.842210776 -0.297430066 -0.449684738
vn 0.901627487 -0.012036612 -0.432345921
vn 0.418360063 -0.557120752 -0.717350211
vn 0.901627487 -0.012036612 -0.432345921
vn 0.634605517 0.534733293 -0.557975039
vn 0.418360063 -0.557120752 -0.717350211
vn 0.634605517 0.534733293 -0.557975039
vn -0.207162507 0.704861312 -0.678420391
vn -0.374616217 0.477396589 0.794830288
vn -0.821606475 0.390374682 0.415415945
vn -0.592239814 0.743034221 0.311692395
vn -0.374616217 0.477396589 0.794830288
vn -0.750580898 0.039583418 0.659591895
vn -0.821606475 0.390374682 0.415415945
vn -0.374616217 0.477396589 0.794830288
vn -0.420771083 -0.103869272 0.901200793
vn -0.750580898 0.039583418 0.659591895
vn -0.374616217 0.477396589 0.794830288
vn -0.025387607 0.044039287 0.998707170
vn -0.420771083 -0.103869272 0.901200793
vn -0.374616217 0.477396589 0.794830288
vn 0.203971025 0.396697699 0.895000981
vn -0.025387607 0.044039287 0.998707170
vn -0.374616217 0.477396589 0.794830288
vn 0.132958844 0.747497906 0.650821655
vn 0.203971025 0.396697699 0.895000981
vn -0.374616217 0.477396589 0.794830288
vn -0.196833663 0.890955828 0.409211708
vn 0.132958844 0.747497906 0.650821655
vn -0.374616217 0.477396589 0.794830288
vn -0.592239814 0.743034221 0.311692395
vn -0.196833663 0.890955828 0.409211708
vn -0.870270879 0.114653491 -0.479044021
vn -0.592239814 0.743034221 0.311692395
vn -0.821606475 0.390374682 0.415415945
vn -0.592239814 0.743034221 0.311692395
vn -0.870270879 0.114653491 -0.479044021
vn -0.389219586 0.697082199 -0.602149916
vn -0.841525228 -0.534940660 -0.075324507
vn -0.821606475 0.390374682 0.415415945
vn -0.750580898 0.039583418 0.659591895
vn -0.821606475 0.390374682 0.415415945
vn -0.841525228 -0.534940660 -0.075324507
vn -0.870270879 0.114653491 -0.479044021
vn -0.319814032 -0.871183530 0.372502674
vn -0.750580898 0.039583418 0.659591895
vn -0.420771083 -0.103869272 0.901200793
vn -0.750580898 0.039583418 0.659591895
vn -0.319814032 -0.871183530 0.372502674
vn -0.841525228 -0.534940660 -0.075324507
vn 0.389232636 -0.697093001 0.602128975
vn -0.420771083 -0.103869272 0.901200793
vn -0.025387607 0.044039287 0.998707170
vn -0.420771083 -0.103869272 0.901200793
vn 0.389232636 -0.697093001 0.602128975
vn -0.319814032 -0.871183530 0.372502674
vn 0.870273016 -0.114659101 0.479038796
vn -0.025387607 0.044039287 0.998707170
vn 0.203971025 0.396697699 0.895000981
vn -0.025387607 0.044039287 0.998707170
vn 0.870273016 -0.114659101 0.479038796
vn 0.389232636 -0.697093001 0.602128975
vn 0.841525228 0.534940660 0.075324507
vn 0.203971025 0.396697699 0.895000981
vn 0.132958844 0.747497906 0.650821655
vn 0.203971025 0.396697699 0.895000981
vn 0.841525228 0.534940660 0.075324507
vn 0.870273016 -0.114659101 0.479038796
vn 0.319822494 0.871172316 -0.372521634
vn 0.132958844 0.747497906 0.650821655
vn -0.196833663 0.890955828 0.409211708
vn 0.132958844 0.747497906 0.650821655
vn 0.319822494 0.871172316 -0.372521634
vn 0.841525228 0.534940660 0.075324507
vn -0.389219586 0.697082199 -0.602149916
vn -0.196833663 0.890955828 0.409211708
vn -0.592239814 0.743034221 0.311692395
vn -0.196833663 0.890955828 0.409211708
vn -0.389219586 0.697082199 -0.602149916
vn 0.319822494 0.871172316 -0.372521634
vn -0.154448555 -0.261785246 -0.952687844
vn -0.389219586 0.697082199 -0.602149916
vn -0.870270879 0.114653491 -0.479044021
vn -0.389219586 0.697082199 -0.602149916
vn -0.154448555 -0.261785246 -0.952687844
vn 0.155690737 0.038793114 -0.987043813
vn -0.193250394 -0.639563958 -0.744051227
vn -0.870270879 0.114653491 -0.479044021
vn -0.841525228 -0.534940660 -0.075324507
vn -0.870270879 0.114653491 -0.479044021
vn -0.193250394 -0.639563958 -0.744051227
vn -0.154448555 -0.261785246 -0.952687844
vn 0.062069131 -0.873201950 -0.483389881
vn -0.841525228 -0.534940660 -0.075324507
vn -0.319814032 -0.871183530 0.372502674
vn -0.841525228 -0.534940660 -0.075324507
vn 0.062069131 -0.873201950 -0.483389881
vn -0.193250394 -0.639563958 -0.744051227
vn 0.461927511 -0.825866695 -0.323368484
vn -0.319814032 -0.871183530 0.372502674
vn 0.389232636 -0.697093001 0.602128975
vn -0.319814032 -0.871183530 0.372502674
vn 0.461927511 -0.825866695 -0.323368484
vn 0.062069131 -0.873201950 -0.483389881
vn 0.772074772 -0.525293724 -0.357724823
vn 0.389232636 -0.697093001 0.602128975
vn 0.870273016 -0.114659101 0.479038796
vn 0.389232636 -0.697093001 0.602128975
vn 0.772074772 -0.525293724 -0.357724823
vn 0.461927511 -0.825866695 -0.323368484
vn 0.810869580 -0.147519597 -0.566328962
vn 0.870273016 -0.114659101 0.479038796
vn 0.841525228 0.534940660 0.075324507
vn 0.870273016 -0.114659101 0.479038796
vn 0.810869580 -0.147519597 -0.566328962
vn 0.772074772 -0.525293724 -0.357724823
vn 0.555554196 0.086119588 -0.827008435
vn 0.841525228 0.534940660 0.075324507
vn 0.319822494 0.871172316 -0.372521634
vn 0.841525228 0.534940660 0.075324507
vn 0.555554196 0.086119588 -0.827008435
vn 0.810869580 -0.147519597 -0.566328962
vn 0.155690737 0.038793114 -0.987043813
vn 0.319822494 0.871172316 -0.372521634
vn -0.389219586 0.697082199 -0.602149916
vn 0.319822494 0.871172316 -0.372521634
vn 0.155690737 0.038793114 -0.987043813
vn 0.555554196 0.086119588 -0.827008435
vn 0.374622320 -0.477407520 -0.794820846
vn 0.155690737 0.038793114 -0.987043813
vn -0.154448555 -0.261785246 -0.952687844
vn 0.374622320 -0.477407520 -0.794820846
vn -0.154448555 -0.261785246 -0.952687844
vn -0.193250394 -0.639563958 -0.744051227
vn 0.374622320 -0.477407520 -0.794820846
vn -0.193250394 -0.639563958 -0.744051227
vn 0.062069131 -0.873201950 -0.483389881
vn 0.374622320 -0.477407520 -0.794820846
vn 0.062069131 -0.873201950 -0.483389881
vn 0.461927511 -0.825866695 -0.323368484
vn 0.374622320 -0.477407520 -0.794820846
vn 0.461927511 -0.825866695 -0.323368484
vn 0.772074772 -0.525293724 -0.357724823
vn 0.374622320 -0.477407520 -0.794820846
vn 0.772074772 -0.525293724 -0.357724823
vn 0.810869580 -0.147519597 -0.566328962
vn 0.374622320 -0.477407520 -0.794820846
vn 0.810869580 -0.147519597 -0.566328962
vn 0.555554196 0.086119588 -0.827008435
vn 0.374622320 -0.477407520 -0.794820846
vn 0.555554196 0.086119588 -0.827008435
vn 0.155690737 0.038793114 -0.987043813
f 3/3/3 2/2/2 1/1/1
f 6/6/6 5/5/5 4/4/4
f 9/9/9 8/8/8 7/7/7
f 12/12/12 11/11/11 10/10/10
f 15/15/15 14/14/14 13/13/13
f 18/18/18 17/17/17 16/16/16
f 21/21/21 20/20/20 19/19/19
f 24/24/24 23/23/23 22/22/22
f 27/27/27 26/26/26 25/25/25
f 30/30/30 29/29/29 28/28/28
f 33/33/33 32/32/32 31/31/31
f 36/36/36 35/35/35 34/34/34
f 39/39/39 38/38/38 37/37/37
f 42/42/42 41/41/41 40/40/40
f 45/45/45 44/44/44 43/43/43
f 48/48/48 47/47/47 46/46/46
f 51/51/51 50/50/50 49/49/49
f 54/54/54 53/53/53 52/52/52
f 57/57/57 56/56/56 55/55/55
f 60/60/60 59/59/59 58/58/58
f 63/63/63 62/62/62 61/61/61
f 66/66/66 65/65/65 64/64/64
f 69/69/69 68/68/68 67/67/67
f 72/72/72 71/71/71 70/70/70
f 75/75/75 74/74/74 73/73/73
f 78/78/78 77/77/77 76/76/76
f 81/81/81 80/80/80 79/79/79
f 84/84/84 83/83/83 82/82/82
f 87/87/87 86/86/86 85/85/85
f 90/90/90 89/89/89 88/88/88
f 93/93/93 92/92/92 91/91/91
f 96/96/96 95/95/95 94/94/94
f 99/99/99 98/98/98 97/97/97
f 102/102/102 101/101/101 100/100/100
f 105/105/105 104/104/104 103/103/103
f 108/108/108 107/107/107 106/106/106
f 111/111/111 110/110/110 109/109/109
f 114/114/114 113/113/113 112/112/112
f 117/117/117 116/116/116 115/115/115
f 120/120/120 119/119/119 118/118/118
f 123/123/123 122/122/122 121/121/121
f 126/126/126 125/125/125 124/124/124
f 129/129/129 128/128/128 127/127/127
f 132/132/132 131/131/131 130/130/130
f 135/135/135 134/134/134 133/133/133
f 138/138/138 137/137/137 136/136/136
f 141/141/141 140/140/140 139/139/139
f 144/144/144 143/143/143 142/142/142
f 147/147/147 146/146/146 145/145/145
f 150/150/150 149/149/149 148/148/148
f 153/153/153 152/152/152 151/151/151
f 156/156/156 155/155/155 154/154/154
f 159/159/159 158/158/158 157/157/157
f 162/162/162 161/161/161 160/160/160
f 165/165/165 164/164/164 163/163/163
f 168/168/168 167/167/167 166/166/166
f 171/171/171 170/170/170 169/169/169
f 174/174/174 173/173/173 172/172/172
f 177/177/177 176/176/176 175/175/175
f 180/180/180 179/179/179 178/178/178
f 183/183/183 182/182/182 181/181/181
f 186/186/186 185/185/185 184/184/184
f 189/189/189 188/188/188 187/187/187
f 192/192/192 191/191/191 190/190/190
f 195/195/195 194/194/194 193/193/193
f 198/198/198 197/197/197 196/196/196
f 201/201/201 200/200/200 199/199/199
f 204/204/204 203/203/203 202/202/202
f 207/207/207 206/206/206 205/205/205
f 210/210/210 209/209/209 208/208/208
f 213/213/213 212/212/212 211/211/211
f 216/216/216 215/215/215 214/214/214
f 219/219/219 218/218/218 217/217/217
f 222/222/222 221/221/221 220/220/220
f 225/225/225 224/224/224 223/223/223
f 228/228/228 227/227/227 226/226/226
f 231/231/231 230/230/230 229/229/229
f 234/234/234 233/233/233 232/232/232
f 237/237/237 236/236/236 235/235/235
f 240/240/240 239/239/239 238/238/238
f 243/243/243 242/242/242 241/241/241
f 246/246/246 245/245/245 244/244/244
f 249/249/249 248/248/248 247/247/247
f 252/252/252 251/251/251 250/250/250
f 255/255/255 254/254/254 253/253/253
f 258/258/258 257/257/257 256/256/256
f 261/261/261 260/260/260 259/259/259
f 264/264/264 263/263/263 262/262/262
f 267/267/267 266/266/266 265/265/265
f 270/270/270 269/269/269 268/268/268
f 273/273/273 272/272/272 271/271/271
f 276/276/276 275/275/275 274/274/274
f 279/279/279 278/278/278 277/277/277
f 282/282/282 281/281/281 280/280/280
f 285/285/285 284/284/284 283/283/283
f 288/288/288 287/287/287 286/286/286
