# Static pose baked from local Project Zomboid assets
o Kate_Hair_PonyTail
v -0.048834076 0.022674864 0.419928676
v -0.072241191 0.011869470 0.429685400
v -0.060461273 0.056009470 0.428963500
v -0.072241191 0.011869470 0.429685400
v -0.048834076 0.022674864 0.419928676
v -0.072237885 0.011864587 0.429683144
v -0.061562360 0.086788038 0.411132447
v -0.040314765 0.067723828 0.377993665
v -0.036474806 0.042693141 0.413008959
v -0.040314765 0.067723828 0.377993665
v -0.061562360 0.086788038 0.411132447
v -0.056806538 0.088530889 0.392128495
v -0.120088803 0.093995032 0.380998323
v -0.085075775 0.095121240 0.405189669
v -0.117550253 0.086858656 0.403318875
v -0.085075775 0.095121240 0.405189669
v -0.120088803 0.093995032 0.380998323
v -0.084849278 0.101273011 0.383557487
v -0.060461273 0.056009470 0.428963500
v -0.061562360 0.086788038 0.411132447
v -0.036474806 0.042693141 0.413008959
v -0.061562360 0.086788038 0.411132447
v -0.060461273 0.056009470 0.428963500
v -0.075585735 0.079610148 0.424299050
v -0.085075775 0.095121240 0.405189669
v -0.107887176 0.068367246 0.426685548
v -0.117550253 0.086858656 0.403318875
v -0.107887176 0.068367246 0.426685548
v -0.085075775 0.095121240 0.405189669
v -0.075585735 0.079610148 0.424299050
v -0.036474806 0.042693141 0.413008959
v -0.048834076 0.022674864 0.419928676
v -0.060461273 0.056009470 0.428963500
v -0.065402596 0.096592896 0.368153590
v -0.084849278 0.101273011 0.383557487
v -0.090067840 0.101807549 0.355672865
v -0.084849278 0.101273011 0.383557487
v -0.065402596 0.096592896 0.368153590
v -0.056806538 0.088530889 0.392128495
v -0.075585735 0.079610148 0.424299050
v -0.085075775 0.095121240 0.405189669
v -0.061562360 0.086788038 0.411132447
v -0.040267030 0.015009105 0.410786130
v -0.064212252 0.000594221 0.420060831
v -0.048834076 0.022674864 0.419928676
v -0.064212252 0.000594221 0.420060831
v -0.040267030 0.015009105 0.410786130
v -0.058946743 -0.005844023 0.406957785
v -0.060461273 0.056009470 0.428963500
v -0.072241191 0.011869470 0.429685400
v -0.089480474 0.038116311 0.435882437
v -0.117306326 0.093607280 0.352666234
v -0.095436183 0.094542088 0.337035982
v -0.090067840 0.101807549 0.355672865
v -0.095436183 0.094542088 0.337035982
v -0.117306326 0.093607280 0.352666234
v -0.112130925 0.088015681 0.334557169
v -0.090067840 0.101807549 0.355672865
v -0.073576047 0.093164418 0.341896486
v -0.065402596 0.096592896 0.368153590
v -0.073576047 0.093164418 0.341896486
v -0.090067840 0.101807549 0.355672865
v -0.095436183 0.094542088 0.337035982
v -0.047876988 0.081360076 0.377107057
v -0.057020645 0.075853397 0.349471482
v -0.046302924 0.068179641 0.373245589
v -0.057020645 0.075853397 0.349471482
v -0.047876988 0.081360076 0.377107057
v -0.060935696 0.091606520 0.347873462
v -0.065402596 0.096592896 0.368153590
v -0.060935696 0.091606520 0.347873462
v -0.047876988 0.081360076 0.377107057
v -0.060935696 0.091606520 0.347873462
v -0.065402596 0.096592896 0.368153590
v -0.073576047 0.093164418 0.341896486
v -0.112130925 0.088015681 0.334557169
v -0.102155565 0.088948925 0.317811858
v -0.095436183 0.094542088 0.337035982
v -0.102155565 0.088948925 0.317811858
v -0.112130925 0.088015681 0.334557169
v -0.109826710 0.090155495 0.317656625
v -0.095436183 0.094542088 0.337035982
v -0.102155565 0.088948925 0.317811858
v -0.073576047 0.093164418 0.341896486
v -0.060935696 0.091606520 0.347873462
v -0.099288311 0.083495242 0.317024713
v -0.057020645 0.075853397 0.349471482
v -0.099288311 0.083495242 0.317024713
v -0.060935696 0.091606520 0.347873462
v -0.102155565 0.088948925 0.317811858
v -0.073576047 0.093164418 0.341896486
v -0.102155565 0.088948925 0.317811858
v -0.060935696 0.091606520 0.347873462
v -0.040314765 0.067723828 0.377993665
v -0.033431313 0.040851128 0.400784383
v -0.036474806 0.042693141 0.413008959
v -0.033431313 0.040851128 0.400784383
v -0.040314765 0.067723828 0.377993665
v -0.039790982 0.057184651 0.359102810
v -0.040267030 0.015009105 0.410786130
v -0.036474806 0.042693141 0.413008959
v -0.033431313 0.040851128 0.400784383
v -0.036474806 0.042693141 0.413008959
v -0.040267030 0.015009105 0.410786130
v -0.048834076 0.022674864 0.419928676
v -0.090067840 0.101807549 0.355672865
v -0.120088803 0.093995032 0.380998323
v -0.117306326 0.093607280 0.352666234
v -0.120088803 0.093995032 0.380998323
v -0.090067840 0.101807549 0.355672865
v -0.084849278 0.101273011 0.383557487
v -0.085075775 0.095121240 0.405189669
v -0.056806538 0.088530889 0.392128495
v -0.061562360 0.086788038 0.411132447
v -0.056806538 0.088530889 0.392128495
v -0.085075775 0.095121240 0.405189669
v -0.084849278 0.101273011 0.383557487
v -0.047876988 0.081360076 0.377107057
v -0.056806538 0.088530889 0.392128495
v -0.065402596 0.096592896 0.368153590
v -0.056806538 0.088530889 0.392128495
v -0.047876988 0.081360076 0.377107057
v -0.040314765 0.067723828 0.377993665
v -0.046302924 0.068179641 0.373245589
v -0.040314765 0.067723828 0.377993665
v -0.047876988 0.081360076 0.377107057
v -0.040314765 0.067723828 0.377993665
v -0.046302924 0.068179641 0.373245589
v -0.039790982 0.057184651 0.359102810
v -0.033431313 0.040851128 0.400784383
v -0.047403160 0.026390797 0.398807316
v -0.040267030 0.015009105 0.410786130
v -0.047403160 0.026390797 0.398807316
v -0.033431313 0.040851128 0.400784383
v -0.045633813 0.047207595 0.386225730
v -0.040267030 0.015009105 0.410786130
v -0.064921920 0.004963927 0.396956409
v -0.058946743 -0.005844023 0.406957785
v -0.064921920 0.004963927 0.396956409
v -0.040267030 0.015009105 0.410786130
v -0.047403160 0.026390797 0.398807316
v -0.057020645 0.075853397 0.349471482
v -0.051038915 0.068825161 0.366490005
v -0.046302924 0.068179641 0.373245589
v -0.051038915 0.068825161 0.366490005
v -0.057020645 0.075853397 0.349471482
v -0.062007604 0.074733498 0.346467540
v -0.099288311 0.083495242 0.317024713
v -0.062007604 0.074733498 0.346467540
v -0.057020645 0.075853397 0.349471482
v -0.039790982 0.057184651 0.359102810
v -0.045633813 0.047207595 0.386225730
v -0.033431313 0.040851128 0.400784383
v -0.045633813 0.047207595 0.386225730
v -0.039790982 0.057184651 0.359102810
v -0.047659343 0.058486300 0.365463570
v -0.046302924 0.068179641 0.373245589
v -0.047659343 0.058486300 0.365463570
v -0.039790982 0.057184651 0.359102810
v -0.047659343 0.058486300 0.365463570
v -0.046302924 0.068179641 0.373245589
v -0.051038915 0.068825161 0.366490005
v -0.045633813 0.047207595 0.386225730
v -0.059177813 0.044448754 0.366463696
v -0.047403160 0.026390797 0.398807316
v -0.059177813 0.044448754 0.366463696
v -0.045633813 0.047207595 0.386225730
v -0.062845633 0.052101499 0.364071347
v -0.047403160 0.026390797 0.398807316
v -0.075932477 0.026816679 0.364772140
v -0.064921920 0.004963927 0.396956409
v -0.075932477 0.026816679 0.364772140
v -0.047403160 0.026390797 0.398807316
v -0.059177813 0.044448754 0.366463696
v -0.062007604 0.074733498 0.346467540
v -0.069150782 0.063258755 0.353111738
v -0.051038915 0.068825161 0.366490005
v -0.069150782 0.063258755 0.353111738
v -0.062007604 0.074733498 0.346467540
v -0.076100585 0.068744049 0.339611857
v -0.099288311 0.083495242 0.317024713
v -0.076100585 0.068744049 0.339611857
v -0.062007604 0.074733498 0.346467540
v -0.076100585 0.068744049 0.339611857
v -0.099288311 0.083495242 0.317024713
v -0.103277936 0.079434435 0.316497456
v -0.047659343 0.058486300 0.365463570
v -0.062845633 0.052101499 0.364071347
v -0.045633813 0.047207595 0.386225730
v -0.062845633 0.052101499 0.364071347
v -0.047659343 0.058486300 0.365463570
v -0.065426498 0.058508581 0.357957217
v -0.051038915 0.068825161 0.366490005
v -0.065426498 0.058508581 0.357957217
v -0.047659343 0.058486300 0.365463570
v -0.065426498 0.058508581 0.357957217
v -0.051038915 0.068825161 0.366490005
v -0.069150782 0.063258755 0.353111738
v -0.089480474 0.038116311 0.435882437
v -0.075585735 0.079610148 0.424299050
v -0.060461273 0.056009470 0.428963500
v -0.075585735 0.079610148 0.424299050
v -0.089480474 0.038116311 0.435882437
v -0.107887176 0.068367246 0.426685548
v -0.064212252 0.000594221 0.420060831
v -0.072237885 0.011864587 0.429683144
v -0.048834076 0.022674864 0.419928676
v -0.090476956 -0.003796676 0.416201245
v -0.072241191 0.011869470 0.429685400
v -0.072237885 0.011864587 0.429683144
v -0.072241191 0.011869470 0.429685400
v -0.090476956 -0.003796676 0.416201245
v -0.116794659 0.020199471 0.423921130
v -0.141785808 0.035791608 0.403951690
v -0.129266515 0.011178992 0.370031644
v -0.142926556 0.033786127 0.384419940
v -0.129266515 0.011178992 0.370031644
v -0.141785808 0.035791608 0.403951690
v -0.112676954 -0.005740839 0.406083266
v -0.120088803 0.093995032 0.380998323
v -0.138732022 0.060981089 0.400384286
v -0.142426440 0.064672368 0.378403788
v -0.138732022 0.060981089 0.400384286
v -0.120088803 0.093995032 0.380998323
v -0.117550253 0.086858656 0.403318875
v -0.116794659 0.020199471 0.423921130
v -0.141785808 0.035791608 0.403951690
v -0.131155014 0.044285876 0.419325075
v -0.141785808 0.035791608 0.403951690
v -0.116794659 0.020199471 0.423921130
v -0.112676954 -0.005740839 0.406083266
v -0.138732022 0.060981089 0.400384286
v -0.107887176 0.068367246 0.426685548
v -0.131155014 0.044285876 0.419325075
v -0.107887176 0.068367246 0.426685548
v -0.138732022 0.060981089 0.400384286
v -0.117550253 0.086858656 0.403318875
v -0.112676954 -0.005740839 0.406083266
v -0.116794659 0.020199471 0.423921130
v -0.090476956 -0.003796676 0.416201245
v -0.143566830 0.046905466 0.361157153
v -0.142426440 0.064672368 0.378403788
v -0.142926556 0.033786127 0.384419940
v -0.142426440 0.064672368 0.378403788
v -0.143566830 0.046905466 0.361157153
v -0.136409798 0.072348899 0.351524822
v -0.131155014 0.044285876 0.419325075
v -0.141785808 0.035791608 0.403951690
v -0.138732022 0.060981089 0.400384286
v -0.085983736 -0.014052084 0.406694053
v -0.064212252 0.000594221 0.420060831
v -0.058946743 -0.005844023 0.406957785
v -0.064212252 0.000594221 0.420060831
v -0.085983736 -0.014052084 0.406694053
v -0.090476956 -0.003796676 0.416201245
v -0.116794659 0.020199471 0.423921130
v -0.089480474 0.038116311 0.435882437
v -0.072241191 0.011869470 0.429685400
v -0.117306326 0.093607280 0.352666234
v -0.123683832 0.073099108 0.334219200
v -0.112130925 0.088015681 0.334557169
v -0.123683832 0.073099108 0.334219200
v -0.117306326 0.093607280 0.352666234
v -0.136409798 0.072348899 0.351524822
v -0.136409798 0.072348899 0.351524822
v -0.133747630 0.054914555 0.336510561
v -0.123683832 0.073099108 0.334219200
v -0.133747630 0.054914555 0.336510561
v -0.136409798 0.072348899 0.351524822
v -0.143566830 0.046905466 0.361157153
v -0.138282895 0.023890861 0.369014875
v -0.126014782 0.031995213 0.343295855
v -0.138365282 0.042386091 0.340942783
v -0.126014782 0.031995213 0.343295855
v -0.138282895 0.023890861 0.369014875
v -0.126581914 0.017147904 0.366059861
v -0.143566830 0.046905466 0.361157153
v -0.138365282 0.042386091 0.340942783
v -0.133747630 0.054914555 0.336510561
v -0.138365282 0.042386091 0.340942783
v -0.143566830 0.046905466 0.361157153
v -0.138282895 0.023890861 0.369014875
v -0.112130925 0.088015681 0.334557169
v -0.112367800 0.082939557 0.317030252
v -0.109826710 0.090155495 0.317656625
v -0.112367800 0.082939557 0.317030252
v -0.112130925 0.088015681 0.334557169
v -0.123683832 0.073099108 0.334219200
v -0.123683832 0.073099108 0.334219200
v -0.133747630 0.054914555 0.336510561
v -0.112367800 0.082939557 0.317030252
v -0.138365282 0.042386091 0.340942783
v -0.108686286 0.077964799 0.316305734
v -0.112367800 0.082939557 0.317030252
v -0.108686286 0.077964799 0.316305734
v -0.138365282 0.042386091 0.340942783
v -0.126014782 0.031995213 0.343295855
v -0.133747630 0.054914555 0.336510561
v -0.138365282 0.042386091 0.340942783
v -0.112367800 0.082939557 0.317030252
v -0.110827236 -0.008347902 0.393856717
v -0.129266515 0.011178992 0.370031644
v -0.112676954 -0.005740839 0.406083266
v -0.129266515 0.011178992 0.370031644
v -0.110827236 -0.008347902 0.393856717
v -0.117600938 0.007722429 0.352138084
v -0.085983736 -0.014052084 0.406694053
v -0.110827236 -0.008347902 0.393856717
v -0.112676954 -0.005740839 0.406083266
v -0.112676954 -0.005740839 0.406083266
v -0.090476956 -0.003796676 0.416201245
v -0.085983736 -0.014052084 0.406694053
v -0.136409798 0.072348899 0.351524822
v -0.120088803 0.093995032 0.380998323
v -0.142426440 0.064672368 0.378403788
v -0.120088803 0.093995032 0.380998323
v -0.136409798 0.072348899 0.351524822
v -0.117306326 0.093607280 0.352666234
v -0.138732022 0.060981089 0.400384286
v -0.142926556 0.033786127 0.384419940
v -0.142426440 0.064672368 0.378403788
v -0.142926556 0.033786127 0.384419940
v -0.138732022 0.060981089 0.400384286
v -0.141785808 0.035791608 0.403951690
v -0.138282895 0.023890861 0.369014875
v -0.142926556 0.033786127 0.384419940
v -0.129266515 0.011178992 0.370031644
v -0.142926556 0.033786127 0.384419940
v -0.138282895 0.023890861 0.369014875
v -0.143566830 0.046905466 0.361157153
v -0.126581914 0.017147904 0.366059861
v -0.129266515 0.011178992 0.370031644
v -0.117600938 0.007722429 0.352138084
v -0.129266515 0.011178992 0.370031644
v -0.126581914 0.017147904 0.366059861
v -0.138282895 0.023890861 0.369014875
v -0.110827236 -0.008347902 0.393856717
v -0.091740603 -0.001793622 0.394838696
v -0.109624238 0.006530171 0.380497982
v -0.091740603 -0.001793622 0.394838696
v -0.110827236 -0.008347902 0.393856717
v -0.085983736 -0.014052084 0.406694053
v -0.085983736 -0.014052084 0.406694053
v -0.064921920 0.004963927 0.396956409
v -0.091740603 -0.001793622 0.394838696
v -0.064921920 0.004963927 0.396956409
v -0.085983736 -0.014052084 0.406694053
v -0.058946743 -0.005844023 0.406957785
v -0.126014782 0.031995213 0.343295855
v -0.124334928 0.022232360 0.359929320
v -0.122550299 0.036247725 0.341048397
v -0.124334928 0.022232360 0.359929320
v -0.126014782 0.031995213 0.343295855
v -0.126581914 0.017147904 0.366059861
v -0.108686286 0.077964799 0.316305734
v -0.126014782 0.031995213 0.343295855
v -0.122550299 0.036247725 0.341048397
v -0.117600938 0.007722429 0.352138084
v -0.109624238 0.006530171 0.380497982
v -0.116303406 0.014850652 0.359319278
v -0.109624238 0.006530171 0.380497982
v -0.117600938 0.007722429 0.352138084
v -0.110827236 -0.008347902 0.393856717
v -0.126581914 0.017147904 0.366059861
v -0.116303406 0.014850652 0.359319278
v -0.124334928 0.022232360 0.359929320
v -0.116303406 0.014850652 0.359319278
v -0.126581914 0.017147904 0.366059861
v -0.117600938 0.007722429 0.352138084
v -0.109624238 0.006530171 0.380497982
v -0.098996266 0.019136965 0.362899568
v -0.104055968 0.025904919 0.360382633
v -0.098996266 0.019136965 0.362899568
v -0.109624238 0.006530171 0.380497982
v -0.091740603 -0.001793622 0.394838696
v -0.091740603 -0.001793622 0.394838696
v -0.075932477 0.026816679 0.364772140
v -0.098996266 0.019136965 0.362899568
v -0.075932477 0.026816679 0.364772140
v -0.091740603 -0.001793622 0.394838696
v -0.064921920 0.004963927 0.396956409
v -0.122550299 0.036247725 0.341048397
v -0.110086780 0.037236565 0.349447579
v -0.110420513 0.046927562 0.336539900
v -0.110086780 0.037236565 0.349447579
v -0.122550299 0.036247725 0.341048397
v -0.124334928 0.022232360 0.359929320
v -0.108686286 0.077964799 0.316305734
v -0.110420513 0.046927562 0.336539900
v -0.103277936 0.079434435 0.316497456
v -0.110420513 0.046927562 0.336539900
v -0.108686286 0.077964799 0.316305734
v -0.122550299 0.036247725 0.341048397
v -0.116303406 0.014850652 0.359319278
v -0.104055968 0.025904919 0.360382633
v -0.107974861 0.031461444 0.354148736
v -0.104055968 0.025904919 0.360382633
v -0.116303406 0.014850652 0.359319278
v -0.109624238 0.006530171 0.380497982
v -0.124334928 0.022232360 0.359929320
v -0.107974861 0.031461444 0.354148736
v -0.110086780 0.037236565 0.349447579
v -0.107974861 0.031461444 0.354148736
v -0.124334928 0.022232360 0.359929320
v -0.116303406 0.014850652 0.359319278
v -0.089480474 0.038116311 0.435882437
v -0.131155014 0.044285876 0.419325075
v -0.107887176 0.068367246 0.426685548
v -0.131155014 0.044285876 0.419325075
v -0.089480474 0.038116311 0.435882437
v -0.116794659 0.020199471 0.423921130
v -0.064212252 0.000594221 0.420060831
v -0.090476956 -0.003796676 0.416201245
v -0.072237885 0.011864587 0.429683144
v -0.109826710 0.090155495 0.317656625
v -0.104242377 0.088229387 0.314589525
v -0.102155565 0.088948925 0.317811858
v -0.104242377 0.088229387 0.314589525
v -0.109826710 0.090155495 0.317656625
v -0.111984449 0.089340091 0.314687053
v -0.102155565 0.088948925 0.317811858
v -0.101210906 0.082787691 0.313320449
v -0.099288311 0.083495242 0.317024713
v -0.101210906 0.082787691 0.313320449
v -0.102155565 0.088948925 0.317811858
v -0.104242377 0.088229387 0.314589525
v -0.099288311 0.083495242 0.317024713
v -0.105107555 0.078628035 0.312566726
v -0.103277936 0.079434435 0.316497456
v -0.105107555 0.078628035 0.312566726
v -0.099288311 0.083495242 0.317024713
v -0.101210906 0.082787691 0.313320449
v -0.103277936 0.079434435 0.316497456
v -0.110502917 0.077054880 0.312377981
v -0.108686286 0.077964799 0.316305734
v -0.110502917 0.077054880 0.312377981
v -0.103277936 0.079434435 0.316497456
v -0.105107555 0.078628035 0.312566726
v -0.108686286 0.077964799 0.316305734
v -0.114338947 0.081999306 0.313565018
v -0.112367800 0.082939557 0.317030252
v -0.114338947 0.081999306 0.313565018
v -0.108686286 0.077964799 0.316305734
v -0.110502917 0.077054880 0.312377981
v -0.112367800 0.082939557 0.317030252
v -0.111984449 0.089340091 0.314687053
v -0.109826710 0.090155495 0.317656625
v -0.111984449 0.089340091 0.314687053
v -0.112367800 0.082939557 0.317030252
v -0.114338947 0.081999306 0.313565018
v -0.111984449 0.089340091 0.314687053
v -0.104428607 0.092310711 0.308544471
v -0.104242377 0.088229387 0.314589525
v -0.104428607 0.092310711 0.308544471
v -0.111984449 0.089340091 0.314687053
v -0.113774568 0.091454139 0.308239105
v -0.104242377 0.088229387 0.314589525
v -0.104428607 0.092310711 0.308544471
v -0.099987612 0.088777945 0.306581042
v -0.104242377 0.088229387 0.314589525
v -0.098087123 0.082973662 0.304579826
v -0.101210906 0.082787691 0.313320449
v -0.098087123 0.082973662 0.304579826
v -0.104242377 0.088229387 0.314589525
v -0.099987612 0.088777945 0.306581042
v -0.101210906 0.082787691 0.313320449
v -0.103786207 0.075912554 0.302156199
v -0.105107555 0.078628035 0.312566726
v -0.103786207 0.075912554 0.302156199
v -0.101210906 0.082787691 0.313320449
v -0.098087123 0.082973662 0.304579826
v -0.105107555 0.078628035 0.312566726
v -0.112872815 0.074357612 0.302720511
v -0.110502917 0.077054880 0.312377981
v -0.112872815 0.074357612 0.302720511
v -0.105107555 0.078628035 0.312566726
v -0.103786207 0.075912554 0.302156199
v -0.110502917 0.077054880 0.312377981
v -0.117588299 0.078520920 0.304367602
v -0.114338947 0.081999306 0.313565018
v -0.117588299 0.078520920 0.304367602
v -0.110502917 0.077054880 0.312377981
v -0.112872815 0.074357612 0.302720511
v -0.114338947 0.081999306 0.313565018
v -0.117588299 0.078520920 0.304367602
v -0.118958944 0.083842447 0.306717388
v -0.114338947 0.081999306 0.313565018
v -0.113774568 0.091454139 0.308239105
v -0.111984449 0.089340091 0.314687053
v -0.113774568 0.091454139 0.308239105
v -0.114338947 0.081999306 0.313565018
v -0.118958944 0.083842447 0.306717388
v -0.113774568 0.091454139 0.308239105
v -0.104384729 0.099648882 0.291092767
v -0.104428607 0.092310711 0.308544471
v -0.104384729 0.099648882 0.291092767
v -0.113774568 0.091454139 0.308239105
v -0.116329687 0.099394531 0.290861762
v -0.104428607 0.092310711 0.308544471
v -0.099055715 0.095322238 0.288691067
v -0.099987612 0.088777945 0.306581042
v -0.099055715 0.095322238 0.288691067
v -0.104428607 0.092310711 0.308544471
v -0.104384729 0.099648882 0.291092767
v -0.099987612 0.088777945 0.306581042
v -0.096567374 0.087639713 0.285653156
v -0.098087123 0.082973662 0.304579826
v -0.096567374 0.087639713 0.285653156
v -0.099987612 0.088777945 0.306581042
v -0.099055715 0.095322238 0.288691067
v -0.098087123 0.082973662 0.304579826
v -0.103996392 0.079371887 0.282306685
v -0.103786207 0.075912554 0.302156199
v -0.103996392 0.079371887 0.282306685
v -0.098087123 0.082973662 0.304579826
v -0.096567374 0.087639713 0.285653156
v -0.103786207 0.075912554 0.302156199
v -0.115289484 0.077654570 0.282603513
v -0.112872815 0.074357612 0.302720511
v -0.115289484 0.077654570 0.282603513
v -0.103786207 0.075912554 0.302156199
v -0.103996392 0.079371887 0.282306685
v -0.112872815 0.074357612 0.302720511
v -0.121343711 0.083435864 0.285061695
v -0.117588299 0.078520920 0.304367602
v -0.121343711 0.083435864 0.285061695
v -0.112872815 0.074357612 0.302720511
v -0.115289484 0.077654570 0.282603513
v -0.117588299 0.078520920 0.304367602
v -0.122784606 0.089836236 0.288096741
v -0.118958944 0.083842447 0.306717388
v -0.122784606 0.089836236 0.288096741
v -0.117588299 0.078520920 0.304367602
v -0.121343711 0.083435864 0.285061695
v -0.118958944 0.083842447 0.306717388
v -0.116329687 0.099394531 0.290861762
v -0.113774568 0.091454139 0.308239105
v -0.116329687 0.099394531 0.290861762
v -0.118958944 0.083842447 0.306717388
v -0.122784606 0.089836236 0.288096741
v -0.116329687 0.099394531 0.290861762
v -0.104953254 0.104400819 0.272597550
v -0.104384729 0.099648882 0.291092767
v -0.104953254 0.104400819 0.272597550
v -0.116329687 0.099394531 0.290861762
v -0.114931830 0.105094703 0.272269820
v -0.104384729 0.099648882 0.291092767
v -0.100257518 0.100082142 0.270214675
v -0.099055715 0.095322238 0.288691067
v -0.100257518 0.100082142 0.270214675
v -0.104384729 0.099648882 0.291092767
v -0.104953254 0.104400819 0.272597550
v -0.099055715 0.095322238 0.288691067
v -0.097936517 0.093082919 0.267313815
v -0.096567374 0.087639713 0.285653156
v -0.097936517 0.093082919 0.267313815
v -0.099055715 0.095322238 0.288691067
v -0.100257518 0.100082142 0.270214675
v -0.096567374 0.087639713 0.285653156
v -0.103853044 0.086266937 0.263979312
v -0.103996392 0.079371887 0.282306685
v -0.103853044 0.086266937 0.263979312
v -0.096567374 0.087639713 0.285653156
v -0.097936517 0.093082919 0.267313815
v -0.103996392 0.079371887 0.282306685
v -0.113352824 0.085651606 0.264279832
v -0.115289484 0.077654570 0.282603513
v -0.113352824 0.085651606 0.264279832
v -0.103996392 0.079371887 0.282306685
v -0.103853044 0.086266937 0.263979312
v -0.115289484 0.077654570 0.282603513
v -0.118608839 0.091234448 0.266603683
v -0.121343711 0.083435864 0.285061695
v -0.118608839 0.091234448 0.266603683
v -0.115289484 0.077654570 0.282603513
v -0.113352824 0.085651606 0.264279832
v -0.121343711 0.083435864 0.285061695
v -0.120103427 0.097096807 0.269615949
v -0.122784606 0.089836236 0.288096741
v -0.120103427 0.097096807 0.269615949
v -0.121343711 0.083435864 0.285061695
v -0.118608839 0.091234448 0.266603683
v -0.122784606 0.089836236 0.288096741
v -0.114931830 0.105094703 0.272269820
v -0.116329687 0.099394531 0.290861762
v -0.114931830 0.105094703 0.272269820
v -0.122784606 0.089836236 0.288096741
v -0.120103427 0.097096807 0.269615949
v -0.114931830 0.105094703 0.272269820
v -0.103700460 0.105158334 0.251893475
v -0.104953254 0.104400819 0.272597550
v -0.103700460 0.105158334 0.251893475
v -0.114931830 0.105094703 0.272269820
v -0.108336136 0.105642090 0.251460949
v -0.104953254 0.104400819 0.272597550
v -0.103700460 0.105158334 0.251893475
v -0.100257518 0.100082142 0.270214675
v -0.100257518 0.100082142 0.270214675
v -0.101401576 0.101034661 0.250563768
v -0.097936517 0.093082919 0.267313815
v -0.101401576 0.101034661 0.250563768
v -0.100257518 0.100082142 0.270214675
v -0.103700460 0.105158334 0.251893475
v -0.097936517 0.093082919 0.267313815
v -0.104704434 0.098596818 0.249435082
v -0.103853044 0.086266937 0.263979312
v -0.104704434 0.098596818 0.249435082
v -0.097936517 0.093082919 0.267313815
v -0.101401576 0.101034661 0.250563768
v -0.103853044 0.086266937 0.263979312
v -0.108770759 0.097841607 0.248856858
v -0.113352824 0.085651606 0.264279832
v -0.108770759 0.097841607 0.248856858
v -0.103853044 0.086266937 0.263979312
v -0.104704434 0.098596818 0.249435082
v -0.113352824 0.085651606 0.264279832
v -0.110942371 0.102020294 0.250217123
v -0.118608839 0.091234448 0.266603683
v -0.110942371 0.102020294 0.250217123
v -0.113352824 0.085651606 0.264279832
v -0.108770759 0.097841607 0.248856858
v -0.118608839 0.091234448 0.266603683
v -0.110942371 0.102020294 0.250217123
v -0.120103427 0.097096807 0.269615949
v -0.120103427 0.097096807 0.269615949
v -0.108336136 0.105642090 0.251460949
v -0.114931830 0.105094703 0.272269820
v -0.108336136 0.105642090 0.251460949
v -0.120103427 0.097096807 0.269615949
v -0.110942371 0.102020294 0.250217123
v -0.108336136 0.105642090 0.251460949
v -0.105889718 0.106784292 0.239453001
v -0.103700460 0.105158334 0.251893475
v -0.103700460 0.105158334 0.251893475
v -0.105889718 0.106784292 0.239453001
v -0.101401576 0.101034661 0.250563768
v -0.101401576 0.101034661 0.250563768
v -0.105889718 0.106784292 0.239453001
v -0.104704434 0.098596818 0.249435082
v -0.104704434 0.098596818 0.249435082
v -0.105889718 0.106784292 0.239453001
v -0.108770759 0.097841607 0.248856858
v -0.108770759 0.097841607 0.248856858
v -0.105889718 0.106784292 0.239453001
v -0.110942371 0.102020294 0.250217123
v -0.110942371 0.102020294 0.250217123
v -0.105889718 0.106784292 0.239453001
v -0.108336136 0.105642090 0.251460949
vt 0.163342997 0.059368014
vt 0.222782001 0.014806986
vt 0.220088005 0.112595975
vt 0.222782001 0.014806986
vt 0.163342997 0.059368014
vt 0.202781007 0.011348009
vt 0.212077007 0.185289025
vt 0.132737994 0.208414018
vt 0.153439999 0.110207975
vt 0.132737994 0.208414018
vt 0.212077007 0.185289025
vt 0.190157995 0.211098015
vt 0.298171014 0.270264030
vt 0.241968006 0.216840029
vt 0.298016995 0.225439012
vt 0.241968006 0.216840029
vt 0.298171014 0.270264030
vt 0.237657994 0.261389971
vt 0.220088005 0.112595975
vt 0.212077007 0.185289025
vt 0.153439999 0.110207975
vt 0.212077007 0.185289025
vt 0.220088005 0.112595975
vt 0.238821000 0.163273990
vt 0.241968006 0.216840029
vt 0.297951013 0.159473002
vt 0.298016995 0.225439012
vt 0.297951013 0.159473002
vt 0.241968006 0.216840029
vt 0.238821000 0.163273990
vt 0.153439999 0.110207975
vt 0.163342997 0.059368014
vt 0.220088005 0.112595975
vt 0.199494004 0.264167011
vt 0.237657994 0.261389971
vt 0.238591999 0.312813997
vt 0.237657994 0.261389971
vt 0.199494004 0.264167011
vt 0.190157995 0.211098015
vt 0.238821000 0.163273990
vt 0.241968006 0.216840029
vt 0.212077007 0.185289025
vt 0.130790994 0.065918982
vt 0.149899006 0.003461003
vt 0.163342997 0.059368014
vt 0.149899006 0.003461003
vt 0.130790994 0.065918982
vt 0.101453997 0.016242981
vt 0.220088005 0.112595975
vt 0.222782001 0.014806986
vt 0.297771007 0.074699998
vt 0.298626006 0.324665010
vt 0.251242995 0.348680019
vt 0.238591999 0.312813997
vt 0.251242995 0.348680019
vt 0.298626006 0.324665010
vt 0.299187005 0.360895991
vt 0.238591999 0.312813997
vt 0.203952998 0.321265996
vt 0.199494004 0.264167011
vt 0.203952998 0.321265996
vt 0.238591999 0.312813997
vt 0.251242995 0.348680019
vt 0.159139007 0.230387986
vt 0.146193996 0.296365023
vt 0.131629005 0.231251001
vt 0.146193996 0.296365023
vt 0.159139007 0.230387986
vt 0.179668993 0.299072027
vt 0.199494004 0.264167011
vt 0.179668993 0.299072027
vt 0.159139007 0.230387986
vt 0.179668993 0.299072027
vt 0.199494004 0.264167011
vt 0.203952998 0.321265996
vt 0.299187005 0.360895991
vt 0.263218999 0.380483985
vt 0.251242995 0.348680019
vt 0.263218999 0.380483985
vt 0.299187005 0.360895991
vt 0.299071014 0.385213017
vt 0.251242995 0.348680019
vt 0.263218999 0.380483985
vt 0.203952998 0.321265996
vt 0.179668993 0.299072027
vt 0.235625997 0.375804007
vt 0.146193996 0.296365023
vt 0.235625997 0.375804007
vt 0.179668993 0.299072027
vt 0.263218999 0.380483985
vt 0.203952998 0.321265996
vt 0.263218999 0.380483985
vt 0.179668993 0.299072027
vt 0.132737994 0.208414018
vt 0.139124006 0.128910005
vt 0.153439999 0.110207975
vt 0.139124006 0.128910005
vt 0.132737994 0.208414018
vt 0.097488999 0.218639970
vt 0.130790994 0.065918982
vt 0.153439999 0.110207975
vt 0.139124006 0.128910005
vt 0.153439999 0.110207975
vt 0.130790994 0.065918982
vt 0.163342997 0.059368014
vt 0.238591999 0.312813997
vt 0.298171014 0.270264030
vt 0.298626006 0.324665010
vt 0.298171014 0.270264030
vt 0.238591999 0.312813997
vt 0.237657994 0.261389971
vt 0.241968006 0.216840029
vt 0.190157995 0.211098015
vt 0.212077007 0.185289025
vt 0.190157995 0.211098015
vt 0.241968006 0.216840029
vt 0.237657994 0.261389971
vt 0.159139007 0.230387986
vt 0.190157995 0.211098015
vt 0.199494004 0.264167011
vt 0.190157995 0.211098015
vt 0.159139007 0.230387986
vt 0.132737994 0.208414018
vt 0.131629005 0.231251001
vt 0.132737994 0.208414018
vt 0.159139007 0.230387986
vt 0.132737994 0.208414018
vt 0.131629005 0.231251001
vt 0.097488999 0.218639970
vt 0.139124006 0.128910005
vt 0.110794000 0.102204978
vt 0.130790994 0.065918982
vt 0.110794000 0.102204978
vt 0.139124006 0.128910005
vt 0.110816002 0.160995007
vt 0.130790994 0.065918982
vt 0.070404001 0.054355979
vt 0.101453997 0.016242981
vt 0.070404001 0.054355979
vt 0.130790994 0.065918982
vt 0.110794000 0.102204978
vt 0.146193996 0.296365023
vt 0.127875000 0.244826019
vt 0.131629005 0.231251001
vt 0.127875000 0.244826019
vt 0.146193996 0.296365023
vt 0.143608004 0.302091956
vt 0.235625997 0.375804007
vt 0.143608004 0.302091956
vt 0.146193996 0.296365023
vt 0.097488999 0.218639970
vt 0.110816002 0.160995007
vt 0.139124006 0.128910005
vt 0.110816002 0.160995007
vt 0.097488999 0.218639970
vt 0.103749000 0.220232964
vt 0.131629005 0.231251001
vt 0.103749000 0.220232964
vt 0.097488999 0.218639970
vt 0.103749000 0.220232964
vt 0.131629005 0.231251001
vt 0.127875000 0.244826019
vt 0.110816002 0.160995007
vt 0.062576003 0.175248981
vt 0.110794000 0.102204978
vt 0.062576003 0.175248981
vt 0.110816002 0.160995007
vt 0.066363998 0.204941988
vt 0.110794000 0.102204978
vt 0.020341000 0.135594010
vt 0.070404001 0.054355979
vt 0.020341000 0.135594010
vt 0.110794000 0.102204978
vt 0.062576003 0.175248981
vt 0.143608004 0.302091956
vt 0.096699998 0.281803966
vt 0.127875000 0.244826019
vt 0.096699998 0.281803966
vt 0.143608004 0.302091956
vt 0.136298999 0.332224965
vt 0.235625997 0.375804007
vt 0.136298999 0.332224965
vt 0.143608004 0.302091956
vt 0.136298999 0.332224965
vt 0.235625997 0.375804007
vt 0.222844005 0.382516980
vt 0.103749000 0.220232964
vt 0.066363998 0.204941988
vt 0.110816002 0.160995007
vt 0.066363998 0.204941988
vt 0.103749000 0.220232964
vt 0.074534997 0.243723989
vt 0.127875000 0.244826019
vt 0.074534997 0.243723989
vt 0.103749000 0.220232964
vt 0.074534997 0.243723989
vt 0.127875000 0.244826019
vt 0.096699998 0.281803966
vt 0.297771007 0.074699998
vt 0.238821000 0.163273990
vt 0.220088005 0.112595975
vt 0.238821000 0.163273990
vt 0.297771007 0.074699998
vt 0.297951013 0.159473002
vt 0.149899006 0.003461003
vt 0.202781007 0.011348009
vt 0.163342997 0.059368014
vt 0.432211995 0.058580995
vt 0.372478992 0.014337003
vt 0.392509013 0.010766983
vt 0.372478992 0.014337003
vt 0.432211995 0.058580995
vt 0.375708014 0.112082005
vt 0.384065986 0.184598982
vt 0.463613987 0.207252026
vt 0.406327993 0.210209012
vt 0.463613987 0.207252026
vt 0.384065986 0.184598982
vt 0.442465007 0.109296978
vt 0.298171014 0.270264030
vt 0.354142994 0.216152012
vt 0.360338986 0.260125995
vt 0.354142994 0.216152012
vt 0.298171014 0.270264030
vt 0.298016995 0.225439012
vt 0.375708014 0.112082005
vt 0.384065986 0.184598982
vt 0.357156008 0.162775993
vt 0.384065986 0.184598982
vt 0.375708014 0.112082005
vt 0.442465007 0.109296978
vt 0.354142994 0.216152012
vt 0.297951013 0.159473002
vt 0.357156008 0.162775993
vt 0.297951013 0.159473002
vt 0.354142994 0.216152012
vt 0.298016995 0.225439012
vt 0.442465007 0.109296978
vt 0.375708014 0.112082005
vt 0.432211995 0.058580995
vt 0.397056013 0.263381958
vt 0.360338986 0.260125995
vt 0.406327993 0.210209012
vt 0.360338986 0.260125995
vt 0.397056013 0.263381958
vt 0.358190000 0.311708987
vt 0.357156008 0.162775993
vt 0.384065986 0.184598982
vt 0.354142994 0.216152012
vt 0.464798003 0.064925015
vt 0.445365012 0.002596021
vt 0.493891001 0.015111983
vt 0.445365012 0.002596021
vt 0.464798003 0.064925015
vt 0.432211995 0.058580995
vt 0.375708014 0.112082005
vt 0.297771007 0.074699998
vt 0.372478992 0.014337003
vt 0.298626006 0.324665010
vt 0.349505991 0.349341989
vt 0.299187005 0.360895991
vt 0.349505991 0.349341989
vt 0.298626006 0.324665010
vt 0.358190000 0.311708987
vt 0.358190000 0.311708987
vt 0.391932994 0.320119023
vt 0.349505991 0.349341989
vt 0.391932994 0.320119023
vt 0.358190000 0.311708987
vt 0.397056013 0.263381958
vt 0.437283009 0.229294002
vt 0.450309008 0.295001984
vt 0.416417003 0.297721982
vt 0.450309008 0.295001984
vt 0.437283009 0.229294002
vt 0.464796990 0.230054975
vt 0.397056013 0.263381958
vt 0.416417003 0.297721982
vt 0.391932994 0.320119023
vt 0.416417003 0.297721982
vt 0.397056013 0.263381958
vt 0.437283009 0.229294002
vt 0.299187005 0.360895991
vt 0.335083991 0.380952001
vt 0.299071014 0.385213017
vt 0.335083991 0.380952001
vt 0.299187005 0.360895991
vt 0.349505991 0.349341989
vt 0.349505991 0.349341989
vt 0.391932994 0.320119023
vt 0.335083991 0.380952001
vt 0.416417003 0.297721982
vt 0.362291992 0.376278996
vt 0.335083991 0.380952001
vt 0.362291992 0.376278996
vt 0.416417003 0.297721982
vt 0.450309008 0.295001984
vt 0.391932994 0.320119023
vt 0.416417003 0.297721982
vt 0.335083991 0.380952001
vt 0.456730008 0.127893984
vt 0.463613987 0.207252026
vt 0.442465007 0.109296978
vt 0.463613987 0.207252026
vt 0.456730008 0.127893984
vt 0.498899996 0.217360020
vt 0.464798003 0.064925015
vt 0.456730008 0.127893984
vt 0.442465007 0.109296978
vt 0.442465007 0.109296978
vt 0.432211995 0.058580995
vt 0.464798003 0.064925015
vt 0.358190000 0.311708987
vt 0.298171014 0.270264030
vt 0.360338986 0.260125995
vt 0.298171014 0.270264030
vt 0.358190000 0.311708987
vt 0.298626006 0.324665010
vt 0.354142994 0.216152012
vt 0.406327993 0.210209012
vt 0.360338986 0.260125995
vt 0.406327993 0.210209012
vt 0.354142994 0.216152012
vt 0.384065986 0.184598982
vt 0.437283009 0.229294002
vt 0.406327993 0.210209012
vt 0.463613987 0.207252026
vt 0.406327993 0.210209012
vt 0.437283009 0.229294002
vt 0.397056013 0.263381958
vt 0.464796990 0.230054975
vt 0.463613987 0.207252026
vt 0.498899996 0.217360020
vt 0.463613987 0.207252026
vt 0.464796990 0.230054975
vt 0.437283009 0.229294002
vt 0.456730008 0.127893984
vt 0.484988004 0.101098001
vt 0.485228002 0.159850001
vt 0.484988004 0.101098001
vt 0.456730008 0.127893984
vt 0.464798003 0.064925015
vt 0.464798003 0.064925015
vt 0.525147974 0.053066969
vt 0.484988004 0.101098001
vt 0.525147974 0.053066969
vt 0.464798003 0.064925015
vt 0.493891001 0.015111983
vt 0.450309008 0.295001984
vt 0.468618006 0.243659973
vt 0.453106999 0.300978005
vt 0.468618006 0.243659973
vt 0.450309008 0.295001984
vt 0.464796990 0.230054975
vt 0.362291992 0.376278996
vt 0.450309008 0.295001984
vt 0.453106999 0.300978005
vt 0.498899996 0.217360020
vt 0.485228002 0.159850001
vt 0.492624015 0.219004035
vt 0.485228002 0.159850001
vt 0.498899996 0.217360020
vt 0.456730008 0.127893984
vt 0.464796990 0.230054975
vt 0.492624015 0.219004035
vt 0.468618006 0.243659973
vt 0.492624015 0.219004035
vt 0.464796990 0.230054975
vt 0.498899996 0.217360020
vt 0.485228002 0.159850001
vt 0.533538997 0.173916996
vt 0.529895008 0.203599989
vt 0.533538997 0.173916996
vt 0.485228002 0.159850001
vt 0.484988004 0.101098001
vt 0.484988004 0.101098001
vt 0.575591981 0.134073973
vt 0.533538997 0.173916996
vt 0.575591981 0.134073973
vt 0.484988004 0.101098001
vt 0.525147974 0.053066969
vt 0.453106999 0.300978005
vt 0.499971002 0.280539989
vt 0.460763007 0.331212997
vt 0.499971002 0.280539989
vt 0.453106999 0.300978005
vt 0.468618006 0.243659973
vt 0.362291992 0.376278996
vt 0.460763007 0.331212997
vt 0.374909997 0.382735014
vt 0.460763007 0.331212997
vt 0.362291992 0.376278996
vt 0.453106999 0.300978005
vt 0.492624015 0.219004035
vt 0.529895008 0.203599989
vt 0.521929979 0.242380977
vt 0.529895008 0.203599989
vt 0.492624015 0.219004035
vt 0.485228002 0.159850001
vt 0.468618006 0.243659973
vt 0.521929979 0.242380977
vt 0.499971002 0.280539989
vt 0.521929979 0.242380977
vt 0.468618006 0.243659973
vt 0.492624015 0.219004035
vt 0.297771007 0.074699998
vt 0.357156008 0.162775993
vt 0.297951013 0.159473002
vt 0.357156008 0.162775993
vt 0.297771007 0.074699998
vt 0.375708014 0.112082005
vt 0.445365012 0.002596021
vt 0.432211995 0.058580995
vt 0.392509013 0.010766983
vt 0.299071014 0.385213017
vt 0.269391000 0.395680010
vt 0.263218999 0.380483985
vt 0.269391000 0.395680010
vt 0.299071014 0.385213017
vt 0.298970997 0.398939967
vt 0.263218999 0.380483985
vt 0.247292995 0.393938005
vt 0.235625997 0.375804007
vt 0.247292995 0.393938005
vt 0.263218999 0.380483985
vt 0.269391000 0.395680010
vt 0.235625997 0.375804007
vt 0.232977003 0.395280957
vt 0.222844005 0.382516980
vt 0.232977003 0.395280957
vt 0.235625997 0.375804007
vt 0.247292995 0.393938005
vt 0.374909997 0.382735014
vt 0.350629002 0.394439995
vt 0.362291992 0.376278996
vt 0.350629002 0.394439995
vt 0.374909997 0.382735014
vt 0.364639014 0.395828009
vt 0.362291992 0.376278996
vt 0.328543007 0.396049976
vt 0.335083991 0.380952001
vt 0.328543007 0.396049976
vt 0.362291992 0.376278996
vt 0.350629002 0.394439995
vt 0.335083991 0.380952001
vt 0.298970997 0.398939967
vt 0.299071014 0.385213017
vt 0.298970997 0.398939967
vt 0.335083991 0.380952001
vt 0.328543007 0.396049976
vt 0.298970997 0.398939967
vt 0.276257008 0.417158961
vt 0.269391000 0.395680010
vt 0.276257008 0.417158961
vt 0.298970997 0.398939967
vt 0.298808992 0.418444991
vt 0.269391000 0.395680010
vt 0.276257008 0.417158961
vt 0.262432009 0.418080986
vt 0.269391000 0.395680010
vt 0.248041004 0.418350995
vt 0.247292995 0.393938005
vt 0.248041004 0.418350995
vt 0.269391000 0.395680010
vt 0.262432009 0.418080986
vt 0.247292995 0.393938005
vt 0.226924002 0.417912006
vt 0.232977003 0.395280957
vt 0.226924002 0.417912006
vt 0.247292995 0.393938005
vt 0.248041004 0.418350995
vt 0.364639014 0.395828009
vt 0.349640012 0.418869972
vt 0.350629002 0.394439995
vt 0.349640012 0.418869972
vt 0.364639014 0.395828009
vt 0.370317012 0.418796003
vt 0.350629002 0.394439995
vt 0.335134000 0.418537021
vt 0.328543007 0.396049976
vt 0.335134000 0.418537021
vt 0.350629002 0.394439995
vt 0.349640012 0.418869972
vt 0.328543007 0.396049976
vt 0.335134000 0.418537021
vt 0.321341991 0.417441010
vt 0.328543007 0.396049976
vt 0.298808992 0.418444991
vt 0.298970997 0.398939967
vt 0.298808992 0.418444991
vt 0.328543007 0.396049976
vt 0.321341991 0.417441010
vt 0.298808992 0.418444991
vt 0.274832010 0.488086998
vt 0.276257008 0.417158961
vt 0.274832010 0.488086998
vt 0.298808992 0.418444991
vt 0.298361003 0.489840031
vt 0.276257008 0.417158961
vt 0.261691988 0.489627004
vt 0.262432009 0.418080986
vt 0.261691988 0.489627004
vt 0.276257008 0.417158961
vt 0.274832010 0.488086998
vt 0.262432009 0.418080986
vt 0.245046005 0.490584970
vt 0.248041004 0.418350995
vt 0.245046005 0.490584970
vt 0.262432009 0.418080986
vt 0.261691988 0.489627004
vt 0.248041004 0.418350995
vt 0.220255002 0.493229032
vt 0.226924002 0.417912006
vt 0.220255002 0.493229032
vt 0.248041004 0.418350995
vt 0.245046005 0.490584970
vt 0.370317012 0.418796003
vt 0.351848006 0.491286039
vt 0.349640012 0.418869972
vt 0.351848006 0.491286039
vt 0.370317012 0.418796003
vt 0.375995010 0.494289994
vt 0.349640012 0.418869972
vt 0.335085005 0.490090966
vt 0.335134000 0.418537021
vt 0.335085005 0.490090966
vt 0.349640012 0.418869972
vt 0.351848006 0.491286039
vt 0.335134000 0.418537021
vt 0.321951002 0.488389969
vt 0.321341991 0.417441010
vt 0.321951002 0.488389969
vt 0.335134000 0.418537021
vt 0.335085005 0.490090966
vt 0.321341991 0.417441010
vt 0.298361003 0.489840031
vt 0.298808992 0.418444991
vt 0.298361003 0.489840031
vt 0.321341991 0.417441010
vt 0.321951002 0.488389969
vt 0.298361003 0.489840031
vt 0.279110998 0.557170987
vt 0.274832010 0.488086998
vt 0.279110998 0.557170987
vt 0.298361003 0.489840031
vt 0.297987014 0.557582974
vt 0.274832010 0.488086998
vt 0.267251015 0.559674025
vt 0.261691988 0.489627004
vt 0.267251015 0.559674025
vt 0.274832010 0.488086998
vt 0.279110998 0.557170987
vt 0.261691988 0.489627004
vt 0.252090007 0.561896980
vt 0.245046005 0.490584970
vt 0.252090007 0.561896980
vt 0.261691988 0.489627004
vt 0.267251015 0.559674025
vt 0.245046005 0.490584970
vt 0.233245999 0.569836020
vt 0.220255002 0.493229032
vt 0.233245999 0.569836020
vt 0.245046005 0.490584970
vt 0.252090007 0.561896980
vt 0.375995010 0.494289994
vt 0.343858004 0.562592983
vt 0.351848006 0.491286039
vt 0.343858004 0.562592983
vt 0.375995010 0.494289994
vt 0.362188011 0.570650995
vt 0.351848006 0.491286039
vt 0.328637987 0.560030997
vt 0.335085005 0.490090966
vt 0.328637987 0.560030997
vt 0.351848006 0.491286039
vt 0.343858004 0.562592983
vt 0.335085005 0.490090966
vt 0.316830009 0.557385027
vt 0.321951002 0.488389969
vt 0.316830009 0.557385027
vt 0.335085005 0.490090966
vt 0.328637987 0.560030997
vt 0.321951002 0.488389969
vt 0.297987014 0.557582974
vt 0.298361003 0.489840031
vt 0.297987014 0.557582974
vt 0.321951002 0.488389969
vt 0.316830009 0.557385027
vt 0.297987014 0.557582974
vt 0.286861986 0.636878014
vt 0.279110998 0.557170987
vt 0.286861986 0.636878014
vt 0.297987014 0.557582974
vt 0.297567993 0.637149990
vt 0.279110998 0.557170987
vt 0.286861986 0.636878014
vt 0.267251015 0.559674025
vt 0.267251015 0.559674025
vt 0.276118010 0.637996972
vt 0.252090007 0.561896980
vt 0.276118010 0.637996972
vt 0.267251015 0.559674025
vt 0.286861986 0.636878014
vt 0.252090007 0.561896980
vt 0.268886000 0.643573999
vt 0.233245999 0.569836020
vt 0.268886000 0.643573999
vt 0.252090007 0.561896980
vt 0.276118010 0.637996972
vt 0.362188011 0.570650995
vt 0.318978012 0.638338029
vt 0.343858004 0.562592983
vt 0.318978012 0.638338029
vt 0.362188011 0.570650995
vt 0.325987995 0.643836975
vt 0.343858004 0.562592983
vt 0.308272988 0.637000024
vt 0.328637987 0.560030997
vt 0.308272988 0.637000024
vt 0.343858004 0.562592983
vt 0.318978012 0.638338029
vt 0.328637987 0.560030997
vt 0.308272988 0.637000024
vt 0.316830009 0.557385027
vt 0.316830009 0.557385027
vt 0.297567993 0.637149990
vt 0.297987014 0.557582974
vt 0.297567993 0.637149990
vt 0.316830009 0.557385027
vt 0.308272988 0.637000024
vt 0.297567993 0.637149990
vt 0.297367990 0.678640008
vt 0.286861986 0.636878014
vt 0.286861986 0.636878014
vt 0.297367990 0.678640008
vt 0.276118010 0.637996972
vt 0.276118010 0.637996972
vt 0.297367990 0.678640008
vt 0.268886000 0.643573999
vt 0.325987995 0.643836975
vt 0.297367990 0.678640008
vt 0.318978012 0.638338029
vt 0.318978012 0.638338029
vt 0.297367990 0.678640008
vt 0.308272988 0.637000024
vt 0.308272988 0.637000024
vt 0.297367990 0.678640008
vt 0.297567993 0.637149990
vn 0.508481165 -0.160456328 0.845990941
vn 0.077475030 -0.257500062 0.963167347
vn 0.418605796 0.143799415 0.896711166
vn 0.077475030 -0.257500062 0.963167347
vn 0.508481165 -0.160456328 0.845990941
vn 0.255012717 -0.516286220 0.817567767
vn 0.675369195 0.580104636 0.455362561
vn 0.886347102 0.442076868 0.137683904
vn 0.807053809 0.300446774 0.508326554
vn 0.886347102 0.442076868 0.137683904
vn 0.675369195 0.580104636 0.455362561
vn 0.528207782 0.825372955 0.199389126
vn -0.540259209 0.831573409 0.128862924
vn -0.068758726 0.881713172 0.466748454
vn -0.490590808 0.697520770 0.522288651
vn -0.068758726 0.881713172 0.466748454
vn -0.540259209 0.831573409 0.128862924
vn 0.061077315 0.986448571 0.152278622
vn 0.418605796 0.143799415 0.896711166
vn 0.675369195 0.580104636 0.455362561
vn 0.807053809 0.300446774 0.508326554
vn 0.675369195 0.580104636 0.455362561
vn 0.418605796 0.143799415 0.896711166
vn 0.054407945 0.475082229 0.878257736
vn -0.068758726 0.881713172 0.466748454
vn -0.358812849 0.449062348 0.818288670
vn -0.490590808 0.697520770 0.522288651
vn -0.358812849 0.449062348 0.818288670
vn -0.068758726 0.881713172 0.466748454
vn 0.054407945 0.475082229 0.878257736
vn 0.807053809 0.300446774 0.508326554
vn 0.508481165 -0.160456328 0.845990941
vn 0.418605796 0.143799415 0.896711166
vn 0.412349371 0.910554497 -0.029300237
vn 0.061077315 0.986448571 0.152278622
vn -0.048955258 0.992202520 -0.114619114
vn 0.061077315 0.986448571 0.152278622
vn 0.412349371 0.910554497 -0.029300237
vn 0.528207782 0.825372955 0.199389126
vn 0.054407945 0.475082229 0.878257736
vn -0.068758726 0.881713172 0.466748454
vn 0.675369195 0.580104636 0.455362561
vn 0.862043186 -0.506316338 -0.022919652
vn 0.323503523 -0.610683455 0.722780180
vn 0.508481165 -0.160456328 0.845990941
vn 0.323503523 -0.610683455 0.722780180
vn 0.862043186 -0.506316338 -0.022919652
vn 0.539374847 -0.824218180 -0.172450473
vn 0.418605796 0.143799415 0.896711166
vn 0.077475030 -0.257500062 0.963167347
vn -0.106745086 0.027973656 0.993892832
vn -0.520450102 0.820132089 -0.237728936
vn -0.116380743 0.941986699 -0.314827861
vn -0.048955258 0.992202520 -0.114619114
vn -0.116380743 0.941986699 -0.314827861
vn -0.520450102 0.820132089 -0.237728936
vn -0.557536472 0.794524559 -0.240590538
vn -0.048955258 0.992202520 -0.114619114
vn 0.223461745 0.924413324 -0.309070955
vn 0.412349371 0.910554497 -0.029300237
vn 0.223461745 0.924413324 -0.309070955
vn -0.048955258 0.992202520 -0.114619114
vn -0.116380743 0.941986699 -0.314827861
vn 0.838972962 0.521825336 -0.154345998
vn 0.793381519 0.050182643 -0.606652675
vn 0.715018458 0.387194999 -0.582089887
vn 0.793381519 0.050182643 -0.606652675
vn 0.838972962 0.521825336 -0.154345998
vn 0.698295391 0.478200944 -0.532641909
vn 0.412349371 0.910554497 -0.029300237
vn 0.698295391 0.478200944 -0.532641909
vn 0.838972962 0.521825336 -0.154345998
vn 0.698295391 0.478200944 -0.532641909
vn 0.412349371 0.910554497 -0.029300237
vn 0.223461745 0.924413324 -0.309070955
vn -0.557536472 0.794524559 -0.240590538
vn 0.180015667 0.890750140 -0.417323073
vn -0.116380743 0.941986699 -0.314827861
vn 0.180015667 0.890750140 -0.417323073
vn -0.557536472 0.794524559 -0.240590538
vn -0.455978048 0.889797735 0.018547532
vn -0.116380743 0.941986699 -0.314827861
vn 0.180015667 0.890750140 -0.417323073
vn 0.223461745 0.924413324 -0.309070955
vn 0.698295391 0.478200944 -0.532641909
vn 0.598731818 -0.059288122 -0.798752232
vn 0.793381519 0.050182643 -0.606652675
vn 0.598731818 -0.059288122 -0.798752232
vn 0.698295391 0.478200944 -0.532641909
vn 0.180015667 0.890750140 -0.417323073
vn 0.223461745 0.924413324 -0.309070955
vn 0.180015667 0.890750140 -0.417323073
vn 0.698295391 0.478200944 -0.532641909
vn 0.886347102 0.442076868 0.137683904
vn 0.922230006 -0.253127248 -0.292264287
vn 0.807053809 0.300446774 0.508326554
vn 0.922230006 -0.253127248 -0.292264287
vn 0.886347102 0.442076868 0.137683904
vn 0.772371756 -0.325181213 -0.545618044
vn 0.862043186 -0.506316338 -0.022919652
vn 0.807053809 0.300446774 0.508326554
vn 0.922230006 -0.253127248 -0.292264287
vn 0.807053809 0.300446774 0.508326554
vn 0.862043186 -0.506316338 -0.022919652
vn 0.508481165 -0.160456328 0.845990941
vn -0.048955258 0.992202520 -0.114619114
vn -0.540259209 0.831573409 0.128862924
vn -0.520450102 0.820132089 -0.237728936
vn -0.540259209 0.831573409 0.128862924
vn -0.048955258 0.992202520 -0.114619114
vn 0.061077315 0.986448571 0.152278622
vn -0.068758726 0.881713172 0.466748454
vn 0.528207782 0.825372955 0.199389126
vn 0.675369195 0.580104636 0.455362561
vn 0.528207782 0.825372955 0.199389126
vn -0.068758726 0.881713172 0.466748454
vn 0.061077315 0.986448571 0.152278622
vn 0.838972962 0.521825336 -0.154345998
vn 0.528207782 0.825372955 0.199389126
vn 0.412349371 0.910554497 -0.029300237
vn 0.528207782 0.825372955 0.199389126
vn 0.838972962 0.521825336 -0.154345998
vn 0.886347102 0.442076868 0.137683904
vn 0.715018458 0.387194999 -0.582089887
vn 0.886347102 0.442076868 0.137683904
vn 0.838972962 0.521825336 -0.154345998
vn 0.886347102 0.442076868 0.137683904
vn 0.715018458 0.387194999 -0.582089887
vn 0.772371756 -0.325181213 -0.545618044
vn 0.922230006 -0.253127248 -0.292264287
vn 0.647727962 -0.471355387 -0.598558757
vn 0.862043186 -0.506316338 -0.022919652
vn 0.647727962 -0.471355387 -0.598558757
vn 0.922230006 -0.253127248 -0.292264287
vn 0.456611242 -0.671633955 -0.583450087
vn 0.862043186 -0.506316338 -0.022919652
vn 0.436098594 -0.590404997 -0.679146490
vn 0.539374847 -0.824218180 -0.172450473
vn 0.436098594 -0.590404997 -0.679146490
vn 0.862043186 -0.506316338 -0.022919652
vn 0.647727962 -0.471355387 -0.598558757
vn 0.793381519 0.050182643 -0.606652675
vn 0.617045010 -0.353319528 -0.703150600
vn 0.715018458 0.387194999 -0.582089887
vn 0.617045010 -0.353319528 -0.703150600
vn 0.793381519 0.050182643 -0.606652675
vn 0.549163215 -0.527675360 -0.648057465
vn 0.598731818 -0.059288122 -0.798752232
vn 0.549163215 -0.527675360 -0.648057465
vn 0.793381519 0.050182643 -0.606652675
vn 0.772371756 -0.325181213 -0.545618044
vn 0.456611242 -0.671633955 -0.583450087
vn 0.922230006 -0.253127248 -0.292264287
vn 0.456611242 -0.671633955 -0.583450087
vn 0.772371756 -0.325181213 -0.545618044
vn 0.230624778 -0.519119975 -0.822998581
vn 0.715018458 0.387194999 -0.582089887
vn 0.230624778 -0.519119975 -0.822998581
vn 0.772371756 -0.325181213 -0.545618044
vn 0.230624778 -0.519119975 -0.822998581
vn 0.715018458 0.387194999 -0.582089887
vn 0.617045010 -0.353319528 -0.703150600
vn 0.456611242 -0.671633955 -0.583450087
vn 0.728407804 -0.415534828 -0.544750290
vn 0.647727962 -0.471355387 -0.598558757
vn 0.728407804 -0.415534828 -0.544750290
vn 0.456611242 -0.671633955 -0.583450087
vn 0.542652340 -0.554300868 -0.631093484
vn 0.647727962 -0.471355387 -0.598558757
vn 0.471880537 -0.660012681 -0.584561390
vn 0.436098594 -0.590404997 -0.679146490
vn 0.471880537 -0.660012681 -0.584561390
vn 0.647727962 -0.471355387 -0.598558757
vn 0.728407804 -0.415534828 -0.544750290
vn 0.549163215 -0.527675360 -0.648057465
vn 0.581587005 -0.577170701 -0.573263062
vn 0.617045010 -0.353319528 -0.703150600
vn 0.581587005 -0.577170701 -0.573263062
vn 0.549163215 -0.527675360 -0.648057465
vn 0.530519435 -0.443503032 -0.722394760
vn 0.598731818 -0.059288122 -0.798752232
vn 0.530519435 -0.443503032 -0.722394760
vn 0.549163215 -0.527675360 -0.648057465
vn 0.530519435 -0.443503032 -0.722394760
vn 0.598731818 -0.059288122 -0.798752232
vn 0.374839823 -0.563642028 -0.736072531
vn 0.230624778 -0.519119975 -0.822998581
vn 0.542652340 -0.554300868 -0.631093484
vn 0.456611242 -0.671633955 -0.583450087
vn 0.542652340 -0.554300868 -0.631093484
vn 0.230624778 -0.519119975 -0.822998581
vn 0.463880965 -0.179425122 -0.867537363
vn 0.617045010 -0.353319528 -0.703150600
vn 0.463880965 -0.179425122 -0.867537363
vn 0.230624778 -0.519119975 -0.822998581
vn 0.463880965 -0.179425122 -0.867537363
vn 0.617045010 -0.353319528 -0.703150600
vn 0.581587005 -0.577170701 -0.573263062
vn -0.106745086 0.027973656 0.993892832
vn 0.054407945 0.475082229 0.878257736
vn 0.418605796 0.143799415 0.896711166
vn 0.054407945 0.475082229 0.878257736
vn -0.106745086 0.027973656 0.993892832
vn -0.358812849 0.449062348 0.818288670
vn 0.323503523 -0.610683455 0.722780180
vn 0.255012717 -0.516286220 0.817567767
vn 0.508481165 -0.160456328 0.845990941
vn -0.176142268 -0.595574105 0.783750845
vn 0.077475030 -0.257500062 0.963167347
vn 0.255012717 -0.516286220 0.817567767
vn 0.077475030 -0.257500062 0.963167347
vn -0.176142268 -0.595574105 0.783750845
vn -0.418167725 -0.388959738 0.820881280
vn -0.860512888 -0.398075422 0.317889176
vn -0.784258651 -0.620348550 -0.010297843
vn -0.986431600 -0.149822630 0.067125839
vn -0.784258651 -0.620348550 -0.010297843
vn -0.860512888 -0.398075422 0.317889176
vn -0.670949535 -0.639088764 0.376021638
vn -0.540259209 0.831573409 0.128862924
vn -0.822063382 0.400532260 0.404704467
vn -0.932833722 0.354633224 0.063690852
vn -0.822063382 0.400532260 0.404704467
vn -0.540259209 0.831573409 0.128862924
vn -0.490590808 0.697520770 0.522288651
vn -0.418167725 -0.388959738 0.820881280
vn -0.860512888 -0.398075422 0.317889176
vn -0.561786520 0.083537456 0.823053704
vn -0.860512888 -0.398075422 0.317889176
vn -0.418167725 -0.388959738 0.820881280
vn -0.670949535 -0.639088764 0.376021638
vn -0.822063382 0.400532260 0.404704467
vn -0.358812849 0.449062348 0.818288670
vn -0.561786520 0.083537456 0.823053704
vn -0.358812849 0.449062348 0.818288670
vn -0.822063382 0.400532260 0.404704467
vn -0.490590808 0.697520770 0.522288651
vn -0.670949535 -0.639088764 0.376021638
vn -0.418167725 -0.388959738 0.820881280
vn -0.176142268 -0.595574105 0.783750845
vn -0.986333640 0.011956566 -0.164325866
vn -0.932833722 0.354633224 0.063690852
vn -0.986431600 -0.149822630 0.067125839
vn -0.932833722 0.354633224 0.063690852
vn -0.986333640 0.011956566 -0.164325866
vn -0.846148066 0.485794958 -0.219172783
vn -0.561786520 0.083537456 0.823053704
vn -0.860512888 -0.398075422 0.317889176
vn -0.822063382 0.400532260 0.404704467
vn 0.099135341 -0.990914302 -0.090890215
vn 0.323503523 -0.610683455 0.722780180
vn 0.539374847 -0.824218180 -0.172450473
vn 0.323503523 -0.610683455 0.722780180
vn 0.099135341 -0.990914302 -0.090890215
vn -0.176142268 -0.595574105 0.783750845
vn -0.418167725 -0.388959738 0.820881280
vn -0.106745086 0.027973656 0.993892832
vn 0.077475030 -0.257500062 0.963167347
vn -0.520450102 0.820132089 -0.237728936
vn -0.752966854 0.527454785 -0.393487441
vn -0.557536472 0.794524559 -0.240590538
vn -0.752966854 0.527454785 -0.393487441
vn -0.520450102 0.820132089 -0.237728936
vn -0.846148066 0.485794958 -0.219172783
vn -0.846148066 0.485794958 -0.219172783
vn -0.872182583 0.247850479 -0.421743621
vn -0.752966854 0.527454785 -0.393487441
vn -0.872182583 0.247850479 -0.421743621
vn -0.846148066 0.485794958 -0.219172783
vn -0.986333640 0.011956566 -0.164325866
vn -0.799518621 -0.519761802 -0.301027647
vn -0.292441448 -0.630571150 -0.718928386
vn -0.630698991 -0.376017420 -0.678844373
vn -0.292441448 -0.630571150 -0.718928386
vn -0.799518621 -0.519761802 -0.301027647
vn -0.572492917 -0.431250142 -0.697334335
vn -0.986333640 0.011956566 -0.164325866
vn -0.630698991 -0.376017420 -0.678844373
vn -0.872182583 0.247850479 -0.421743621
vn -0.630698991 -0.376017420 -0.678844373
vn -0.986333640 0.011956566 -0.164325866
vn -0.799518621 -0.519761802 -0.301027647
vn -0.557536472 0.794524559 -0.240590538
vn -0.844484571 0.267553814 -0.463962030
vn -0.455978048 0.889797735 0.018547532
vn -0.844484571 0.267553814 -0.463962030
vn -0.557536472 0.794524559 -0.240590538
vn -0.752966854 0.527454785 -0.393487441
vn -0.752966854 0.527454785 -0.393487441
vn -0.872182583 0.247850479 -0.421743621
vn -0.844484571 0.267553814 -0.463962030
vn -0.630698991 -0.376017420 -0.678844373
vn -0.122172744 -0.483911344 -0.866546959
vn -0.844484571 0.267553814 -0.463962030
vn -0.122172744 -0.483911344 -0.866546959
vn -0.630698991 -0.376017420 -0.678844373
vn -0.292441448 -0.630571150 -0.718928386
vn -0.872182583 0.247850479 -0.421743621
vn -0.630698991 -0.376017420 -0.678844373
vn -0.844484571 0.267553814 -0.463962030
vn -0.119492868 -0.915303690 -0.384630485
vn -0.784258651 -0.620348550 -0.010297843
vn -0.670949535 -0.639088764 0.376021638
vn -0.784258651 -0.620348550 -0.010297843
vn -0.119492868 -0.915303690 -0.384630485
vn 0.040380554 -0.790493218 -0.611138187
vn 0.099135341 -0.990914302 -0.090890215
vn -0.119492868 -0.915303690 -0.384630485
vn -0.670949535 -0.639088764 0.376021638
vn -0.670949535 -0.639088764 0.376021638
vn -0.176142268 -0.595574105 0.783750845
vn 0.099135341 -0.990914302 -0.090890215
vn -0.846148066 0.485794958 -0.219172783
vn -0.540259209 0.831573409 0.128862924
vn -0.932833722 0.354633224 0.063690852
vn -0.540259209 0.831573409 0.128862924
vn -0.846148066 0.485794958 -0.219172783
vn -0.520450102 0.820132089 -0.237728936
vn -0.822063382 0.400532260 0.404704467
vn -0.986431600 -0.149822630 0.067125839
vn -0.932833722 0.354633224 0.063690852
vn -0.986431600 -0.149822630 0.067125839
vn -0.822063382 0.400532260 0.404704467
vn -0.860512888 -0.398075422 0.317889176
vn -0.799518621 -0.519761802 -0.301027647
vn -0.986431600 -0.149822630 0.067125839
vn -0.784258651 -0.620348550 -0.010297843
vn -0.986431600 -0.149822630 0.067125839
vn -0.799518621 -0.519761802 -0.301027647
vn -0.986333640 0.011956566 -0.164325866
vn -0.572492917 -0.431250142 -0.697334335
vn -0.784258651 -0.620348550 -0.010297843
vn 0.040380554 -0.790493218 -0.611138187
vn -0.784258651 -0.620348550 -0.010297843
vn -0.572492917 -0.431250142 -0.697334335
vn -0.799518621 -0.519761802 -0.301027647
vn -0.119492868 -0.915303690 -0.384630485
vn 0.230583986 -0.736521387 -0.635898791
vn 0.488559717 -0.651324958 -0.580590391
vn 0.230583986 -0.736521387 -0.635898791
vn -0.119492868 -0.915303690 -0.384630485
vn 0.099135341 -0.990914302 -0.090890215
vn 0.099135341 -0.990914302 -0.090890215
vn 0.436098594 -0.590404997 -0.679146490
vn 0.230583986 -0.736521387 -0.635898791
vn 0.436098594 -0.590404997 -0.679146490
vn 0.099135341 -0.990914302 -0.090890215
vn 0.539374847 -0.824218180 -0.172450473
vn -0.292441448 -0.630571150 -0.718928386
vn 0.150350335 -0.649986403 -0.744924461
vn 0.319240899 -0.662866002 -0.677269452
vn 0.150350335 -0.649986403 -0.744924461
vn -0.292441448 -0.630571150 -0.718928386
vn -0.572492917 -0.431250142 -0.697334335
vn -0.122172744 -0.483911344 -0.866546959
vn -0.292441448 -0.630571150 -0.718928386
vn 0.319240899 -0.662866002 -0.677269452
vn 0.040380554 -0.790493218 -0.611138187
vn 0.488559717 -0.651324958 -0.580590391
vn 0.475700061 -0.363330635 -0.801061983
vn 0.488559717 -0.651324958 -0.580590391
vn 0.040380554 -0.790493218 -0.611138187
vn -0.119492868 -0.915303690 -0.384630485
vn -0.572492917 -0.431250142 -0.697334335
vn 0.475700061 -0.363330635 -0.801061983
vn 0.150350335 -0.649986403 -0.744924461
vn 0.475700061 -0.363330635 -0.801061983
vn -0.572492917 -0.431250142 -0.697334335
vn 0.040380554 -0.790493218 -0.611138187
vn 0.488559717 -0.651324958 -0.580590391
vn 0.139914172 -0.789624531 -0.597425414
vn 0.353139497 -0.674770350 -0.648056688
vn 0.139914172 -0.789624531 -0.597425414
vn 0.488559717 -0.651324958 -0.580590391
vn 0.230583986 -0.736521387 -0.635898791
vn 0.230583986 -0.736521387 -0.635898791
vn 0.471880537 -0.660012681 -0.584561390
vn 0.139914172 -0.789624531 -0.597425414
vn 0.471880537 -0.660012681 -0.584561390
vn 0.230583986 -0.736521387 -0.635898791
vn 0.436098594 -0.590404997 -0.679146490
vn 0.319240899 -0.662866002 -0.677269452
vn 0.350195532 -0.724266517 -0.593970623
vn 0.243952493 -0.598538234 -0.763045977
vn 0.350195532 -0.724266517 -0.593970623
vn 0.319240899 -0.662866002 -0.677269452
vn 0.150350335 -0.649986403 -0.744924461
vn -0.122172744 -0.483911344 -0.866546959
vn 0.243952493 -0.598538234 -0.763045977
vn 0.374839823 -0.563642028 -0.736072531
vn 0.243952493 -0.598538234 -0.763045977
vn -0.122172744 -0.483911344 -0.866546959
vn 0.319240899 -0.662866002 -0.677269452
vn 0.475700061 -0.363330635 -0.801061983
vn 0.353139497 -0.674770350 -0.648056688
vn 0.078396849 -0.424469645 -0.902041825
vn 0.353139497 -0.674770350 -0.648056688
vn 0.475700061 -0.363330635 -0.801061983
vn 0.488559717 -0.651324958 -0.580590391
vn 0.150350335 -0.649986403 -0.744924461
vn 0.078396849 -0.424469645 -0.902041825
vn 0.350195532 -0.724266517 -0.593970623
vn 0.078396849 -0.424469645 -0.902041825
vn 0.150350335 -0.649986403 -0.744924461
vn 0.475700061 -0.363330635 -0.801061983
vn -0.106745086 0.027973656 0.993892832
vn -0.561786520 0.083537456 0.823053704
vn -0.358812849 0.449062348 0.818288670
vn -0.561786520 0.083537456 0.823053704
vn -0.106745086 0.027973656 0.993892832
vn -0.418167725 -0.388959738 0.820881280
vn 0.323503523 -0.610683455 0.722780180
vn -0.176142268 -0.595574105 0.783750845
vn 0.255012717 -0.516286220 0.817567767
vn -0.455978048 0.889797735 0.018547532
vn 0.665537290 0.697933415 0.264478854
vn 0.180015667 0.890750140 -0.417323073
vn 0.665537290 0.697933415 0.264478854
vn -0.455978048 0.889797735 0.018547532
vn -0.454157049 0.775157985 0.439171349
vn 0.180015667 0.890750140 -0.417323073
vn 0.946605646 -0.303334630 0.109205557
vn 0.598731818 -0.059288122 -0.798752232
vn 0.946605646 -0.303334630 0.109205557
vn 0.180015667 0.890750140 -0.417323073
vn 0.665537290 0.697933415 0.264478854
vn 0.598731818 -0.059288122 -0.798752232
vn 0.416957043 -0.892334251 0.172876858
vn 0.374839823 -0.563642028 -0.736072531
vn 0.416957043 -0.892334251 0.172876858
vn 0.598731818 -0.059288122 -0.798752232
vn 0.946605646 -0.303334630 0.109205557
vn 0.374839823 -0.563642028 -0.736072531
vn -0.307018663 -0.884659797 0.350879729
vn -0.122172744 -0.483911344 -0.866546959
vn -0.307018663 -0.884659797 0.350879729
vn 0.374839823 -0.563642028 -0.736072531
vn 0.416957043 -0.892334251 0.172876858
vn -0.122172744 -0.483911344 -0.866546959
vn -0.840944878 -0.147655001 0.520585933
vn -0.844484571 0.267553814 -0.463962030
vn -0.840944878 -0.147655001 0.520585933
vn -0.122172744 -0.483911344 -0.866546959
vn -0.307018663 -0.884659797 0.350879729
vn -0.844484571 0.267553814 -0.463962030
vn -0.454157049 0.775157985 0.439171349
vn -0.455978048 0.889797735 0.018547532
vn -0.454157049 0.775157985 0.439171349
vn -0.844484571 0.267553814 -0.463962030
vn -0.840944878 -0.147655001 0.520585933
vn -0.454157049 0.775157985 0.439171349
vn 0.335127557 0.859170682 0.386672032
vn 0.665537290 0.697933415 0.264478854
vn 0.335127557 0.859170682 0.386672032
vn -0.454157049 0.775157985 0.439171349
vn -0.400477033 0.801619544 0.443874140
vn 0.665537290 0.697933415 0.264478854
vn 0.335127557 0.859170682 0.386672032
vn 0.890289426 0.385848399 0.241879622
vn 0.665537290 0.697933415 0.264478854
vn 0.918900971 -0.389973585 0.059511417
vn 0.946605646 -0.303334630 0.109205557
vn 0.918900971 -0.389973585 0.059511417
vn 0.665537290 0.697933415 0.264478854
vn 0.890289426 0.385848399 0.241879622
vn 0.946605646 -0.303334630 0.109205557
vn 0.421595227 -0.905955386 -0.038759551
vn 0.416957043 -0.892334251 0.172876858
vn 0.421595227 -0.905955386 -0.038759551
vn 0.946605646 -0.303334630 0.109205557
vn 0.918900971 -0.389973585 0.059511417
vn 0.416957043 -0.892334251 0.172876858
vn -0.295399948 -0.955156151 0.020386194
vn -0.307018663 -0.884659797 0.350879729
vn -0.295399948 -0.955156151 0.020386194
vn 0.416957043 -0.892334251 0.172876858
vn 0.421595227 -0.905955386 -0.038759551
vn -0.307018663 -0.884659797 0.350879729
vn -0.840156003 -0.513204419 0.175382767
vn -0.840944878 -0.147655001 0.520585933
vn -0.840156003 -0.513204419 0.175382767
vn -0.307018663 -0.884659797 0.350879729
vn -0.295399948 -0.955156151 0.020386194
vn -0.840944878 -0.147655001 0.520585933
vn -0.840156003 -0.513204419 0.175382767
vn -0.894590162 0.276872472 0.350784943
vn -0.840944878 -0.147655001 0.520585933
vn -0.400477033 0.801619544 0.443874140
vn -0.454157049 0.775157985 0.439171349
vn -0.400477033 0.801619544 0.443874140
vn -0.840944878 -0.147655001 0.520585933
vn -0.894590162 0.276872472 0.350784943
vn -0.400477033 0.801619544 0.443874140
vn 0.257844448 0.913690763 0.314142373
vn 0.335127557 0.859170682 0.386672032
vn 0.257844448 0.913690763 0.314142373
vn -0.400477033 0.801619544 0.443874140
vn -0.469194345 0.821087141 0.325073183
vn 0.335127557 0.859170682 0.386672032
vn 0.859532129 0.490178295 0.144671207
vn 0.890289426 0.385848399 0.241879622
vn 0.859532129 0.490178295 0.144671207
vn 0.335127557 0.859170682 0.386672032
vn 0.257844448 0.913690763 0.314142373
vn 0.890289426 0.385848399 0.241879622
vn 0.959583204 -0.272003576 -0.072208924
vn 0.918900971 -0.389973585 0.059511417
vn 0.959583204 -0.272003576 -0.072208924
vn 0.890289426 0.385848399 0.241879622
vn 0.859532129 0.490178295 0.144671207
vn 0.918900971 -0.389973585 0.059511417
vn 0.478605845 -0.844343275 -0.240875236
vn 0.421595227 -0.905955386 -0.038759551
vn 0.478605845 -0.844343275 -0.240875236
vn 0.918900971 -0.389973585 0.059511417
vn 0.959583204 -0.272003576 -0.072208924
vn 0.421595227 -0.905955386 -0.038759551
vn -0.274166857 -0.921071671 -0.276513131
vn -0.295399948 -0.955156151 0.020386194
vn -0.274166857 -0.921071671 -0.276513131
vn 0.421595227 -0.905955386 -0.038759551
vn 0.478605845 -0.844343275 -0.240875236
vn -0.295399948 -0.955156151 0.020386194
vn -0.870835464 -0.473083307 -0.133558150
vn -0.840156003 -0.513204419 0.175382767
vn -0.870835464 -0.473083307 -0.133558150
vn -0.295399948 -0.955156151 0.020386194
vn -0.274166857 -0.921071671 -0.276513131
vn -0.840156003 -0.513204419 0.175382767
vn -0.961615153 0.247708581 0.118054038
vn -0.894590162 0.276872472 0.350784943
vn -0.961615153 0.247708581 0.118054038
vn -0.840156003 -0.513204419 0.175382767
vn -0.870835464 -0.473083307 -0.133558150
vn -0.894590162 0.276872472 0.350784943
vn -0.469194345 0.821087141 0.325073183
vn -0.400477033 0.801619544 0.443874140
vn -0.469194345 0.821087141 0.325073183
vn -0.894590162 0.276872472 0.350784943
vn -0.961615153 0.247708581 0.118054038
vn -0.469194345 0.821087141 0.325073183
vn 0.241539434 0.953175559 0.181975427
vn 0.257844448 0.913690763 0.314142373
vn 0.241539434 0.953175559 0.181975427
vn -0.469194345 0.821087141 0.325073183
vn -0.503724421 0.861570901 0.062906989
vn 0.257844448 0.913690763 0.314142373
vn 0.831071969 0.553310663 0.056273363
vn 0.859532129 0.490178295 0.144671207
vn 0.831071969 0.553310663 0.056273363
vn 0.257844448 0.913690763 0.314142373
vn 0.241539434 0.953175559 0.181975427
vn 0.859532129 0.490178295 0.144671207
vn 0.973701062 -0.117578380 -0.195144987
vn 0.959583204 -0.272003576 -0.072208924
vn 0.973701062 -0.117578380 -0.195144987
vn 0.859532129 0.490178295 0.144671207
vn 0.831071969 0.553310663 0.056273363
vn 0.959583204 -0.272003576 -0.072208924
vn 0.519702600 -0.742432223 -0.422733488
vn 0.478605845 -0.844343275 -0.240875236
vn 0.519702600 -0.742432223 -0.422733488
vn 0.959583204 -0.272003576 -0.072208924
vn 0.973701062 -0.117578380 -0.195144987
vn 0.478605845 -0.844343275 -0.240875236
vn -0.307056218 -0.797977137 -0.518602899
vn -0.274166857 -0.921071671 -0.276513131
vn -0.307056218 -0.797977137 -0.518602899
vn 0.478605845 -0.844343275 -0.240875236
vn 0.519702600 -0.742432223 -0.422733488
vn -0.274166857 -0.921071671 -0.276513131
vn -0.831010709 -0.381004816 -0.405285742
vn -0.870835464 -0.473083307 -0.133558150
vn -0.831010709 -0.381004816 -0.405285742
vn -0.274166857 -0.921071671 -0.276513131
vn -0.307056218 -0.797977137 -0.518602899
vn -0.870835464 -0.473083307 -0.133558150
vn -0.936861455 0.289079342 -0.196783506
vn -0.961615153 0.247708581 0.118054038
vn -0.936861455 0.289079342 -0.196783506
vn -0.870835464 -0.473083307 -0.133558150
vn -0.831010709 -0.381004816 -0.405285742
vn -0.961615153 0.247708581 0.118054038
vn -0.503724421 0.861570901 0.062906989
vn -0.469194345 0.821087141 0.325073183
vn -0.503724421 0.861570901 0.062906989
vn -0.961615153 0.247708581 0.118054038
vn -0.936861455 0.289079342 -0.196783506
vn -0.503724421 0.861570901 0.062906989
vn 0.431358793 0.901434851 0.036671542
vn 0.241539434 0.953175559 0.181975427
vn 0.431358793 0.901434851 0.036671542
vn -0.503724421 0.861570901 0.062906989
vn -0.582054384 0.801725926 -0.135824273
vn 0.241539434 0.953175559 0.181975427
vn 0.431358793 0.901434851 0.036671542
vn 0.831071969 0.553310663 0.056273363
vn 0.831071969 0.553310663 0.056273363
vn 0.970167738 0.119003943 -0.211217003
vn 0.973701062 -0.117578380 -0.195144987
vn 0.970167738 0.119003943 -0.211217003
vn 0.831071969 0.553310663 0.056273363
vn 0.431358793 0.901434851 0.036671542
vn 0.973701062 -0.117578380 -0.195144987
vn 0.587728350 -0.612698361 -0.528371181
vn 0.519702600 -0.742432223 -0.422733488
vn 0.587728350 -0.612698361 -0.528371181
vn 0.973701062 -0.117578380 -0.195144987
vn 0.970167738 0.119003943 -0.211217003
vn 0.519702600 -0.742432223 -0.422733488
vn -0.235212696 -0.702278748 -0.671922278
vn -0.307056218 -0.797977137 -0.518602899
vn -0.235212696 -0.702278748 -0.671922278
vn 0.519702600 -0.742432223 -0.422733488
vn 0.587728350 -0.612698361 -0.528371181
vn -0.307056218 -0.797977137 -0.518602899
vn -0.883562547 -0.030429386 -0.467323525
vn -0.831010709 -0.381004816 -0.405285742
vn -0.883562547 -0.030429386 -0.467323525
vn -0.307056218 -0.797977137 -0.518602899
vn -0.235212696 -0.702278748 -0.671922278
vn -0.831010709 -0.381004816 -0.405285742
vn -0.883562547 -0.030429386 -0.467323525
vn -0.936861455 0.289079342 -0.196783506
vn -0.936861455 0.289079342 -0.196783506
vn -0.582054384 0.801725926 -0.135824273
vn -0.503724421 0.861570901 0.062906989
vn -0.582054384 0.801725926 -0.135824273
vn -0.936861455 0.289079342 -0.196783506
vn -0.883562547 -0.030429386 -0.467323525
vn -0.582054384 0.801725926 -0.135824273
vn 0.077600979 0.324633675 -0.942651083
vn 0.431358793 0.901434851 0.036671542
vn 0.431358793 0.901434851 0.036671542
vn 0.077600979 0.324633675 -0.942651083
vn 0.970167738 0.119003943 -0.211217003
vn 0.970167738 0.119003943 -0.211217003
vn 0.077600979 0.324633675 -0.942651083
vn 0.587728350 -0.612698361 -0.528371181
vn 0.587728350 -0.612698361 -0.528371181
vn 0.077600979 0.324633675 -0.942651083
vn -0.235212696 -0.702278748 -0.671922278
vn -0.235212696 -0.702278748 -0.671922278
vn 0.077600979 0.324633675 -0.942651083
vn -0.883562547 -0.030429386 -0.467323525
vn -0.883562547 -0.030429386 -0.467323525
vn 0.077600979 0.324633675 -0.942651083
vn -0.582054384 0.801725926 -0.135824273
f 3/3/3 2/2/2 1/1/1
f 6/6/6 5/5/5 4/4/4
f 9/9/9 8/8/8 7/7/7
f 12/12/12 11/11/11 10/10/10
f 15/15/15 14/14/14 13/13/13
f 18/18/18 17/17/17 16/16/16
f 21/21/21 20/20/20 19/19/19
f 24/24/24 23/23/23 22/22/22
f 27/27/27 26/26/26 25/25/25
f 30/30/30 29/29/29 28/28/28
f 33/33/33 32/32/32 31/31/31
f 36/36/36 35/35/35 34/34/34
f 39/39/39 38/38/38 37/37/37
f 42/42/42 41/41/41 40/40/40
f 45/45/45 44/44/44 43/43/43
f 48/48/48 47/47/47 46/46/46
f 51/51/51 50/50/50 49/49/49
f 54/54/54 53/53/53 52/52/52
f 57/57/57 56/56/56 55/55/55
f 60/60/60 59/59/59 58/58/58
f 63/63/63 62/62/62 61/61/61
f 66/66/66 65/65/65 64/64/64
f 69/69/69 68/68/68 67/67/67
f 72/72/72 71/71/71 70/70/70
f 75/75/75 74/74/74 73/73/73
f 78/78/78 77/77/77 76/76/76
f 81/81/81 80/80/80 79/79/79
f 84/84/84 83/83/83 82/82/82
f 87/87/87 86/86/86 85/85/85
f 90/90/90 89/89/89 88/88/88
f 93/93/93 92/92/92 91/91/91
f 96/96/96 95/95/95 94/94/94
f 99/99/99 98/98/98 97/97/97
f 102/102/102 101/101/101 100/100/100
f 105/105/105 104/104/104 103/103/103
f 108/108/108 107/107/107 106/106/106
f 111/111/111 110/110/110 109/109/109
f 114/114/114 113/113/113 112/112/112
f 117/117/117 116/116/116 115/115/115
f 120/120/120 119/119/119 118/118/118
f 123/123/123 122/122/122 121/121/121
f 126/126/126 125/125/125 124/124/124
f 129/129/129 128/128/128 127/127/127
f 132/132/132 131/131/131 130/130/130
f 135/135/135 134/134/134 133/133/133
f 138/138/138 137/137/137 136/136/136
f 141/141/141 140/140/140 139/139/139
f 144/144/144 143/143/143 142/142/142
f 147/147/147 146/146/146 145/145/145
f 150/150/150 149/149/149 148/148/148
f 153/153/153 152/152/152 151/151/151
f 156/156/156 155/155/155 154/154/154
f 159/159/159 158/158/158 157/157/157
f 162/162/162 161/161/161 160/160/160
f 165/165/165 164/164/164 163/163/163
f 168/168/168 167/167/167 166/166/166
f 171/171/171 170/170/170 169/169/169
f 174/174/174 173/173/173 172/172/172
f 177/177/177 176/176/176 175/175/175
f 180/180/180 179/179/179 178/178/178
f 183/183/183 182/182/182 181/181/181
f 186/186/186 185/185/185 184/184/184
f 189/189/189 188/188/188 187/187/187
f 192/192/192 191/191/191 190/190/190
f 195/195/195 194/194/194 193/193/193
f 198/198/198 197/197/197 196/196/196
f 201/201/201 200/200/200 199/199/199
f 204/204/204 203/203/203 202/202/202
f 207/207/207 206/206/206 205/205/205
f 210/210/210 209/209/209 208/208/208
f 213/213/213 212/212/212 211/211/211
f 216/216/216 215/215/215 214/214/214
f 219/219/219 218/218/218 217/217/217
f 222/222/222 221/221/221 220/220/220
f 225/225/225 224/224/224 223/223/223
f 228/228/228 227/227/227 226/226/226
f 231/231/231 230/230/230 229/229/229
f 234/234/234 233/233/233 232/232/232
f 237/237/237 236/236/236 235/235/235
f 240/240/240 239/239/239 238/238/238
f 243/243/243 242/242/242 241/241/241
f 246/246/246 245/245/245 244/244/244
f 249/249/249 248/248/248 247/247/247
f 252/252/252 251/251/251 250/250/250
f 255/255/255 254/254/254 253/253/253
f 258/258/258 257/257/257 256/256/256
f 261/261/261 260/260/260 259/259/259
f 264/264/264 263/263/263 262/262/262
f 267/267/267 266/266/266 265/265/265
f 270/270/270 269/269/269 268/268/268
f 273/273/273 272/272/272 271/271/271
f 276/276/276 275/275/275 274/274/274
f 279/279/279 278/278/278 277/277/277
f 282/282/282 281/281/281 280/280/280
f 285/285/285 284/284/284 283/283/283
f 288/288/288 287/287/287 286/286/286
f 291/291/291 290/290/290 289/289/289
f 294/294/294 293/293/293 292/292/292
f 297/297/297 296/296/296 295/295/295
f 300/300/300 299/299/299 298/298/298
f 303/303/303 302/302/302 301/301/301
f 306/306/306 305/305/305 304/304/304
f 309/309/309 308/308/308 307/307/307
f 312/312/312 311/311/311 310/310/310
f 315/315/315 314/314/314 313/313/313
f 318/318/318 317/317/317 316/316/316
f 321/321/321 320/320/320 319/319/319
f 324/324/324 323/323/323 322/322/322
f 327/327/327 326/326/326 325/325/325
f 330/330/330 329/329/329 328/328/328
f 333/333/333 332/332/332 331/331/331
f 336/336/336 335/335/335 334/334/334
f 339/339/339 338/338/338 337/337/337
f 342/342/342 341/341/341 340/340/340
f 345/345/345 344/344/344 343/343/343
f 348/348/348 347/347/347 346/346/346
f 351/351/351 350/350/350 349/349/349
f 354/354/354 353/353/353 352/352/352
f 357/357/357 356/356/356 355/355/355
f 360/360/360 359/359/359 358/358/358
f 363/363/363 362/362/362 361/361/361
f 366/366/366 365/365/365 364/364/364
f 369/369/369 368/368/368 367/367/367
f 372/372/372 371/371/371 370/370/370
f 375/375/375 374/374/374 373/373/373
f 378/378/378 377/377/377 376/376/376
f 381/381/381 380/380/380 379/379/379
f 384/384/384 383/383/383 382/382/382
f 387/387/387 386/386/386 385/385/385
f 390/390/390 389/389/389 388/388/388
f 393/393/393 392/392/392 391/391/391
f 396/396/396 395/395/395 394/394/394
f 399/399/399 398/398/398 397/397/397
f 402/402/402 401/401/401 400/400/400
f 405/405/405 404/404/404 403/403/403
f 408/408/408 407/407/407 406/406/406
f 411/411/411 410/410/410 409/409/409
f 414/414/414 413/413/413 412/412/412
f 417/417/417 416/416/416 415/415/415
f 420/420/420 419/419/419 418/418/418
f 423/423/423 422/422/422 421/421/421
f 426/426/426 425/425/425 424/424/424
f 429/429/429 428/428/428 427/427/427
f 432/432/432 431/431/431 430/430/430
f 435/435/435 434/434/434 433/433/433
f 438/438/438 437/437/437 436/436/436
f 441/441/441 440/440/440 439/439/439
f 444/444/444 443/443/443 442/442/442
f 447/447/447 446/446/446 445/445/445
f 450/450/450 449/449/449 448/448/448
f 453/453/453 452/452/452 451/451/451
f 456/456/456 455/455/455 454/454/454
f 459/459/459 458/458/458 457/457/457
f 462/462/462 461/461/461 460/460/460
f 465/465/465 464/464/464 463/463/463
f 468/468/468 467/467/467 466/466/466
f 471/471/471 470/470/470 469/469/469
f 474/474/474 473/473/473 472/472/472
f 477/477/477 476/476/476 475/475/475
f 480/480/480 479/479/479 478/478/478
f 483/483/483 482/482/482 481/481/481
f 486/486/486 485/485/485 484/484/484
f 489/489/489 488/488/488 487/487/487
f 492/492/492 491/491/491 490/490/490
f 495/495/495 494/494/494 493/493/493
f 498/498/498 497/497/497 496/496/496
f 501/501/501 500/500/500 499/499/499
f 504/504/504 503/503/503 502/502/502
f 507/507/507 506/506/506 505/505/505
f 510/510/510 509/509/509 508/508/508
f 513/513/513 512/512/512 511/511/511
f 516/516/516 515/515/515 514/514/514
f 519/519/519 518/518/518 517/517/517
f 522/522/522 521/521/521 520/520/520
f 525/525/525 524/524/524 523/523/523
f 528/528/528 527/527/527 526/526/526
f 531/531/531 530/530/530 529/529/529
f 534/534/534 533/533/533 532/532/532
f 537/537/537 536/536/536 535/535/535
f 540/540/540 539/539/539 538/538/538
f 543/543/543 542/542/542 541/541/541
f 546/546/546 545/545/545 544/544/544
f 549/549/549 548/548/548 547/547/547
f 552/552/552 551/551/551 550/550/550
f 555/555/555 554/554/554 553/553/553
f 558/558/558 557/557/557 556/556/556
f 561/561/561 560/560/560 559/559/559
f 564/564/564 563/563/563 562/562/562
f 567/567/567 566/566/566 565/565/565
f 570/570/570 569/569/569 568/568/568
f 573/573/573 572/572/572 571/571/571
f 576/576/576 575/575/575 574/574/574
f 579/579/579 578/578/578 577/577/577
f 582/582/582 581/581/581 580/580/580
f 585/585/585 584/584/584 583/583/583
f 588/588/588 587/587/587 586/586/586
f 591/591/591 590/590/590 589/589/589
f 594/594/594 593/593/593 592/592/592
f 597/597/597 596/596/596 595/595/595
f 600/600/600 599/599/599 598/598/598
f 603/603/603 602/602/602 601/601/601
f 606/606/606 605/605/605 604/604/604
f 609/609/609 608/608/608 607/607/607
f 612/612/612 611/611/611 610/610/610
f 615/615/615 614/614/614 613/613/613
f 618/618/618 617/617/617 616/616/616
f 621/621/621 620/620/620 619/619/619
f 624/624/624 623/623/623 622/622/622
f 627/627/627 626/626/626 625/625/625
f 630/630/630 629/629/629 628/628/628
f 633/633/633 632/632/632 631/631/631
f 636/636/636 635/635/635 634/634/634
f 639/639/639 638/638/638 637/637/637
f 642/642/642 641/641/641 640/640/640
f 645/645/645 644/644/644 643/643/643
f 648/648/648 647/647/647 646/646/646
