# Static pose baked from local Project Zomboid assets
o Kate_Trousers
v 0.064846329 0.111338660 0.039266073
v 0.015077611 0.130895112 0.050037450
v 0.030983443 0.134362316 0.023560095
v 0.015077611 0.130895112 0.050037450
v 0.064846329 0.111338660 0.039266073
v 0.045074073 0.106517085 0.065240599
v 0.057991411 0.060918021 0.074315575
v 0.064846329 0.111338660 0.039266073
v 0.081737490 0.065197138 0.033679303
v 0.064846329 0.111338660 0.039266073
v 0.057991411 0.060918021 0.074315575
v 0.045074073 0.106517085 0.065240599
v 0.034007716 0.030083698 0.066318229
v 0.071618152 0.032819800 0.015102808
v 0.041188650 0.017874798 -0.000592566
v 0.071618152 0.032819800 0.015102808
v 0.034007716 0.030083698 0.066318229
v 0.057991411 0.060918021 0.074315575
v 0.030983443 0.134362316 0.023560095
v -0.022835517 0.113973690 0.040703976
v -0.010851276 0.130422890 0.012499793
v -0.022835517 0.113973690 0.040703976
v 0.030983443 0.134362316 0.023560095
v 0.015077611 0.130895112 0.050037450
v 0.079922402 0.010802749 -0.032036272
v 0.160666053 0.041453593 -0.108761224
v 0.129874729 -0.007115746 -0.115475617
v 0.160666053 0.041453593 -0.108761224
v 0.079922402 0.010802749 -0.032036272
v 0.114410315 0.058198792 -0.023592666
v 0.160666053 0.041453593 -0.108761224
v 0.182861855 -0.015504037 -0.209011156
v 0.129874729 -0.007115746 -0.115475617
v 0.182861855 -0.015504037 -0.209011156
v 0.160666053 0.041453593 -0.108761224
v 0.195048901 0.035636176 -0.194837540
v 0.027745873 0.012515920 -0.063919420
v 0.081560992 0.091923743 -0.158919158
v 0.015937991 0.112894516 -0.088573443
v 0.081560992 0.091923743 -0.158919158
v 0.027745873 0.012515920 -0.063919420
v 0.084071160 0.013844512 -0.145842407
v 0.084071160 0.013844512 -0.145842407
v 0.140418775 0.065257176 -0.220167241
v 0.081560992 0.091923743 -0.158919158
v 0.140418775 0.065257176 -0.220167241
v 0.084071160 0.013844512 -0.145842407
v 0.147018094 0.020765558 -0.221113751
v 0.081560992 0.091923743 -0.158919158
v 0.102765174 0.116637154 -0.048797456
v 0.015937991 0.112894516 -0.088573443
v 0.102765174 0.116637154 -0.048797456
v 0.081560992 0.091923743 -0.158919158
v 0.152041905 0.094066599 -0.118954116
v 0.081560992 0.091923743 -0.158919158
v 0.185145197 0.076116332 -0.194270424
v 0.152041905 0.094066599 -0.118954116
v 0.185145197 0.076116332 -0.194270424
v 0.081560992 0.091923743 -0.158919158
v 0.140418775 0.065257176 -0.220167241
v 0.102765174 0.116637154 -0.048797456
v 0.160666053 0.041453593 -0.108761224
v 0.114410315 0.058198792 -0.023592666
v 0.160666053 0.041453593 -0.108761224
v 0.102765174 0.116637154 -0.048797456
v 0.152041905 0.094066599 -0.118954116
v 0.152041905 0.094066599 -0.118954116
v 0.195048901 0.035636176 -0.194837540
v 0.160666053 0.041453593 -0.108761224
v 0.195048901 0.035636176 -0.194837540
v 0.152041905 0.094066599 -0.118954116
v 0.185145197 0.076116332 -0.194270424
v 0.203463055 0.002385730 -0.253598844
v 0.246291887 0.056561519 -0.307191728
v 0.232236435 0.017754476 -0.319030073
v 0.246291887 0.056561519 -0.307191728
v 0.203463055 0.002385730 -0.253598844
v 0.216528918 0.043975120 -0.239497241
v 0.232236435 0.017754476 -0.319030073
v 0.267057129 0.062167691 -0.355056238
v 0.256665128 0.023372942 -0.360929779
v 0.267057129 0.062167691 -0.355056238
v 0.232236435 0.017754476 -0.319030073
v 0.246291887 0.056561519 -0.307191728
v 0.175870882 0.029795990 -0.282922939
v 0.188599306 0.081003908 -0.323267388
v 0.154727489 0.077854830 -0.265106322
v 0.188599306 0.081003908 -0.323267388
v 0.175870882 0.029795990 -0.282922939
v 0.200302030 0.042760249 -0.334158653
v 0.200302030 0.042760249 -0.334158653
v 0.216545040 0.081845493 -0.363826714
v 0.188599306 0.081003908 -0.323267388
v 0.216545040 0.081845493 -0.363826714
v 0.200302030 0.042760249 -0.334158653
v 0.239128772 0.036458921 -0.378405838
v 0.154727489 0.077854830 -0.265106322
v 0.234115578 0.091336955 -0.299614301
v 0.201405236 0.087600287 -0.230338002
v 0.234115578 0.091336955 -0.299614301
v 0.154727489 0.077854830 -0.265106322
v 0.188599306 0.081003908 -0.323267388
v 0.188599306 0.081003908 -0.323267388
v 0.247187927 0.098170887 -0.343778786
v 0.234115578 0.091336955 -0.299614301
v 0.247187927 0.098170887 -0.343778786
v 0.188599306 0.081003908 -0.323267388
v 0.216545040 0.081845493 -0.363826714
v 0.201405236 0.087600287 -0.230338002
v 0.246291887 0.056561519 -0.307191728
v 0.216528918 0.043975120 -0.239497241
v 0.246291887 0.056561519 -0.307191728
v 0.201405236 0.087600287 -0.230338002
v 0.234115578 0.091336955 -0.299614301
v 0.234115578 0.091336955 -0.299614301
v 0.267057129 0.062167691 -0.355056238
v 0.246291887 0.056561519 -0.307191728
v 0.267057129 0.062167691 -0.355056238
v 0.234115578 0.091336955 -0.299614301
v 0.247187927 0.098170887 -0.343778786
v 0.114410315 0.058198792 -0.023592666
v 0.071618152 0.032819800 0.015102808
v 0.089715515 0.071042251 0.010866524
v 0.071618152 0.032819800 0.015102808
v 0.114410315 0.058198792 -0.023592666
v 0.079922402 0.010802749 -0.032036272
v 0.041188650 0.017874798 -0.000592566
v 0.008715783 0.011505942 -0.055676604
v 0.002397998 0.002470602 -0.012542124
v 0.008715783 0.011505942 -0.055676604
v 0.041188650 0.017874798 -0.000592566
v 0.027745873 0.012515920 -0.063919420
v 0.030983443 0.134362316 0.023560095
v 0.084101167 0.121626097 -0.009130997
v 0.064846329 0.111338660 0.039266073
v 0.084101167 0.121626097 -0.009130997
v 0.030983443 0.134362316 0.023560095
v 0.036714310 0.142508037 -0.022680206
v 0.036714310 0.142508037 -0.022680206
v 0.100222517 0.119144576 -0.042295358
v 0.084101167 0.121626097 -0.009130997
v 0.100222517 0.119144576 -0.042295358
v 0.036714310 0.142508037 -0.022680206
v 0.043298487 0.134394551 -0.059739169
v 0.043298487 0.134394551 -0.059739169
v 0.102765174 0.116637154 -0.048797456
v 0.100222517 0.119144576 -0.042295358
v 0.102765174 0.116637154 -0.048797456
v 0.043298487 0.134394551 -0.059739169
v 0.015937991 0.112894516 -0.088573443
v 0.203463055 0.002385730 -0.253598844
v 0.195048901 0.035636176 -0.194837540
v 0.216528918 0.043975120 -0.239497241
v 0.195048901 0.035636176 -0.194837540
v 0.203463055 0.002385730 -0.253598844
v 0.182861855 -0.015504037 -0.209011156
v 0.216528918 0.043975120 -0.239497241
v 0.185145197 0.076116332 -0.194270424
v 0.201405236 0.087600287 -0.230338002
v 0.185145197 0.076116332 -0.194270424
v 0.216528918 0.043975120 -0.239497241
v 0.195048901 0.035636176 -0.194837540
v 0.185145197 0.076116332 -0.194270424
v 0.154727489 0.077854830 -0.265106322
v 0.201405236 0.087600287 -0.230338002
v 0.154727489 0.077854830 -0.265106322
v 0.185145197 0.076116332 -0.194270424
v 0.140418775 0.065257176 -0.220167241
v 0.140418775 0.065257176 -0.220167241
v 0.175870882 0.029795990 -0.282922939
v 0.154727489 0.077854830 -0.265106322
v 0.175870882 0.029795990 -0.282922939
v 0.140418775 0.065257176 -0.220167241
v 0.147018094 0.020765558 -0.221113751
v 0.064846329 0.111338660 0.039266073
v 0.089715515 0.071042251 0.010866524
v 0.081737490 0.065197138 0.033679303
v 0.089715515 0.071042251 0.010866524
v 0.064846329 0.111338660 0.039266073
v 0.084101167 0.121626097 -0.009130997
v 0.084101167 0.121626097 -0.009130997
v 0.114410315 0.058198792 -0.023592666
v 0.089715515 0.071042251 0.010866524
v 0.114410315 0.058198792 -0.023592666
v 0.084101167 0.121626097 -0.009130997
v 0.100222517 0.119144576 -0.042295358
v 0.100222517 0.119144576 -0.042295358
v 0.102765174 0.116637154 -0.048797456
v 0.114410315 0.058198792 -0.023592666
v 0.041188650 0.017874798 -0.000592566
v 0.079922402 0.010802749 -0.032036272
v 0.027745873 0.012515920 -0.063919420
v 0.071618152 0.032819800 0.015102808
v 0.079922402 0.010802749 -0.032036272
v 0.041188650 0.017874798 -0.000592566
v 0.079922402 0.010802749 -0.032036272
v 0.129874729 -0.007115746 -0.115475617
v 0.084071160 0.013844512 -0.145842407
v 0.129874729 -0.007115746 -0.115475617
v 0.147018094 0.020765558 -0.221113751
v 0.084071160 0.013844512 -0.145842407
v 0.147018094 0.020765558 -0.221113751
v 0.129874729 -0.007115746 -0.115475617
v 0.182861855 -0.015504037 -0.209011156
v 0.182861855 -0.015504037 -0.209011156
v 0.175870882 0.029795990 -0.282922939
v 0.147018094 0.020765558 -0.221113751
v 0.175870882 0.029795990 -0.282922939
v 0.182861855 -0.015504037 -0.209011156
v 0.203463055 0.002385730 -0.253598844
v 0.175870882 0.029795990 -0.282922939
v 0.232236435 0.017754476 -0.319030073
v 0.200302030 0.042760249 -0.334158653
v 0.232236435 0.017754476 -0.319030073
v 0.175870882 0.029795990 -0.282922939
v 0.203463055 0.002385730 -0.253598844
v 0.200302030 0.042760249 -0.334158653
v 0.256665128 0.023372942 -0.360929779
v 0.239128772 0.036458921 -0.378405838
v 0.256665128 0.023372942 -0.360929779
v 0.200302030 0.042760249 -0.334158653
v 0.232236435 0.017754476 -0.319030073
v 0.057991411 0.060918021 0.074315575
v 0.081737490 0.065197138 0.033679303
v 0.071618152 0.032819800 0.015102808
v 0.081737490 0.065197138 0.033679303
v 0.089715515 0.071042251 0.010866524
v 0.071618152 0.032819800 0.015102808
v 0.027745873 0.012515920 -0.063919420
v 0.009337918 0.056386638 -0.079514048
v 0.008715783 0.011505942 -0.055676604
v 0.002397998 0.002470602 -0.012542124
v 0.034007716 0.030083698 0.066318229
v 0.041188650 0.017874798 -0.000592566
v -0.010851276 0.130422890 0.012499793
v 0.036714310 0.142508037 -0.022680206
v 0.030983443 0.134362316 0.023560095
v 0.036714310 0.142508037 -0.022680206
v -0.010851276 0.130422890 0.012499793
v -0.004283471 0.138936593 -0.031950164
v 0.036714310 0.142508037 -0.022680206
v 0.001380707 0.132221253 -0.064024406
v 0.043298487 0.134394551 -0.059739169
v 0.001380707 0.132221253 -0.064024406
v 0.036714310 0.142508037 -0.022680206
v -0.004283471 0.138936593 -0.031950164
v 0.001380707 0.132221253 -0.064024406
v 0.005269925 0.121922442 -0.083514802
v 0.043298487 0.134394551 -0.059739169
v 0.005269925 0.121922442 -0.083514802
v 0.009337918 0.056386638 -0.079514048
v 0.015937991 0.112894516 -0.088573443
v 0.015937991 0.112894516 -0.088573443
v 0.009337918 0.056386638 -0.079514048
v 0.027745873 0.012515920 -0.063919420
v 0.079922402 0.010802749 -0.032036272
v 0.084071160 0.013844512 -0.145842407
v 0.027745873 0.012515920 -0.063919420
v 0.267057129 0.062167691 -0.355056238
v 0.285657119 0.026457831 -0.373572811
v 0.256665128 0.023372942 -0.360929779
v 0.285657119 0.026457831 -0.373572811
v 0.267057129 0.062167691 -0.355056238
v 0.287540897 0.068545395 -0.378749941
v 0.239128772 0.036458921 -0.378405838
v 0.210042070 0.075986390 -0.400915746
v 0.216545040 0.081845493 -0.363826714
v 0.210042070 0.075986390 -0.400915746
v 0.239128772 0.036458921 -0.378405838
v 0.244294288 0.031648457 -0.403666952
v 0.216545040 0.081845493 -0.363826714
v 0.248723981 0.108976487 -0.380252503
v 0.247187927 0.098170887 -0.343778786
v 0.248723981 0.108976487 -0.380252503
v 0.216545040 0.081845493 -0.363826714
v 0.210042070 0.075986390 -0.400915746
v 0.247187927 0.098170887 -0.343778786
v 0.287540897 0.068545395 -0.378749941
v 0.267057129 0.062167691 -0.355056238
v 0.287540897 0.068545395 -0.378749941
v 0.247187927 0.098170887 -0.343778786
v 0.248723981 0.108976487 -0.380252503
v 0.256665128 0.023372942 -0.360929779
v 0.244294288 0.031648457 -0.403666952
v 0.239128772 0.036458921 -0.378405838
v 0.244294288 0.031648457 -0.403666952
v 0.256665128 0.023372942 -0.360929779
v 0.285657119 0.026457831 -0.373572811
v 0.287540897 0.068545395 -0.378749941
v 0.292162504 0.033730594 -0.397372693
v 0.285657119 0.026457831 -0.373572811
v 0.292162504 0.033730594 -0.397372693
v 0.287540897 0.068545395 -0.378749941
v 0.294810129 0.075182336 -0.402534526
v 0.244294288 0.031648457 -0.403666952
v 0.216790364 0.082081907 -0.422553724
v 0.210042070 0.075986390 -0.400915746
v 0.216790364 0.082081907 -0.422553724
v 0.244294288 0.031648457 -0.403666952
v 0.250771805 0.037402079 -0.420399012
v 0.210042070 0.075986390 -0.400915746
v 0.255852123 0.115438601 -0.404083185
v 0.248723981 0.108976487 -0.380252503
v 0.255852123 0.115438601 -0.404083185
v 0.210042070 0.075986390 -0.400915746
v 0.216790364 0.082081907 -0.422553724
v 0.248723981 0.108976487 -0.380252503
v 0.294810129 0.075182336 -0.402534526
v 0.287540897 0.068545395 -0.378749941
v 0.294810129 0.075182336 -0.402534526
v 0.248723981 0.108976487 -0.380252503
v 0.255852123 0.115438601 -0.404083185
v 0.285657119 0.026457831 -0.373572811
v 0.250771805 0.037402079 -0.420399012
v 0.244294288 0.031648457 -0.403666952
v 0.250771805 0.037402079 -0.420399012
v 0.285657119 0.026457831 -0.373572811
v 0.292162504 0.033730594 -0.397372693
v 0.294810129 0.075182336 -0.402534526
v 0.263097102 0.069439249 -0.416927069
v 0.292162504 0.033730594 -0.397372693
v 0.250771805 0.037402079 -0.420399012
v 0.263097102 0.069439249 -0.416927069
v 0.216790364 0.082081907 -0.422553724
v 0.216790364 0.082081907 -0.422553724
v 0.260009987 0.090121517 -0.411538827
v 0.255852123 0.115438601 -0.404083185
v 0.260009987 0.090121517 -0.411538827
v 0.216790364 0.082081907 -0.422553724
v 0.263097102 0.069439249 -0.416927069
v 0.260009987 0.090121517 -0.411538827
v 0.294810129 0.075182336 -0.402534526
v 0.255852123 0.115438601 -0.404083185
v 0.294810129 0.075182336 -0.402534526
v 0.260009987 0.090121517 -0.411538827
v 0.263097102 0.069439249 -0.416927069
v 0.292162504 0.033730594 -0.397372693
v 0.263097102 0.069439249 -0.416927069
v 0.250771805 0.037402079 -0.420399012
v 0.045074073 0.106517085 0.065240599
v -0.017595154 0.072638320 0.050381648
v 0.015077611 0.130895112 0.050037450
v 0.057991411 0.060918021 0.074315575
v -0.017595154 0.072638320 0.050381648
v 0.045074073 0.106517085 0.065240599
v 0.034007716 0.030083698 0.066318229
v -0.017595154 0.072638320 0.050381648
v 0.057991411 0.060918021 0.074315575
v -0.009165358 0.018231388 0.056010646
v -0.017595154 0.072638320 0.050381648
v 0.034007716 0.030083698 0.066318229
v 0.015077611 0.130895112 0.050037450
v -0.017595154 0.072638320 0.050381648
v -0.022835517 0.113973690 0.040703976
v -0.087681407 0.100366721 0.014627498
v -0.064505741 0.117107066 0.032310463
v -0.088188858 0.083428896 0.035556623
v -0.064505741 0.117107066 0.032310463
v -0.087681407 0.100366721 0.014627498
v -0.054163621 0.128237342 0.009805861
v -0.087863098 0.035648306 0.041826858
v -0.087681407 0.100366721 0.014627498
v -0.088188858 0.083428896 0.035556623
v -0.087681407 0.100366721 0.014627498
v -0.087863098 0.035648306 0.041826858
v -0.095361073 0.052457719 0.005071679
v -0.054051359 0.014827209 0.046703296
v -0.073166894 0.019115640 -0.011025713
v -0.087863098 0.035648306 0.041826858
v -0.073166894 0.019115640 -0.011025713
v -0.054051359 0.014827209 0.046703296
v -0.039932858 0.012039398 -0.013696533
v -0.054163621 0.128237342 0.009805861
v -0.022835517 0.113973690 0.040703976
v -0.064505741 0.117107066 0.032310463
v -0.022835517 0.113973690 0.040703976
v -0.054163621 0.128237342 0.009805861
v -0.010851276 0.130422890 0.012499793
v -0.038718379 0.005131365 -0.058760064
v -0.070187861 0.009649226 -0.166976048
v -0.093289426 0.027345678 -0.071253797
v -0.070187861 0.009649226 -0.166976048
v -0.038718379 0.005131365 -0.058760064
v -0.021627949 -0.007800719 -0.155407502
v -0.070187861 0.009649226 -0.166976048
v -0.007970029 -0.011764567 -0.261968435
v -0.051738943 0.020858760 -0.258660960
v -0.007970029 -0.011764567 -0.261968435
v -0.070187861 0.009649226 -0.166976048
v -0.021627949 -0.007800719 -0.155407502
v 0.007452126 0.029668376 -0.061174363
v -0.022984251 0.110136737 -0.166111692
v 0.012370308 0.040126820 -0.155056891
v -0.022984251 0.110136737 -0.166111692
v 0.007452126 0.029668376 -0.061174363
v -0.004752463 0.116466408 -0.087965896
v 0.012370308 0.040126820 -0.155056891
v -0.018359019 0.079081065 -0.249916768
v 0.002347359 0.039093372 -0.252768162
v -0.018359019 0.079081065 -0.249916768
v 0.012370308 0.040126820 -0.155056891
v -0.022984251 0.110136737 -0.166111692
v -0.102672324 0.090050474 -0.086760372
v -0.022984251 0.110136737 -0.166111692
v -0.004752463 0.116466408 -0.087965896
v -0.022984251 0.110136737 -0.166111692
v -0.102672324 0.090050474 -0.086760372
v -0.091141341 0.067011612 -0.172971119
v -0.022984251 0.110136737 -0.166111692
v -0.067758132 0.059217353 -0.254208094
v -0.018359019 0.079081065 -0.249916768
v -0.067758132 0.059217353 -0.254208094
v -0.022984251 0.110136737 -0.166111692
v -0.091141341 0.067011612 -0.172971119
v -0.102672324 0.090050474 -0.086760372
v -0.070187861 0.009649226 -0.166976048
v -0.091141341 0.067011612 -0.172971119
v -0.070187861 0.009649226 -0.166976048
v -0.102672324 0.090050474 -0.086760372
v -0.093289426 0.027345678 -0.071253797
v -0.091141341 0.067011612 -0.172971119
v -0.051738943 0.020858760 -0.258660960
v -0.067758132 0.059217353 -0.254208094
v -0.051738943 0.020858760 -0.258660960
v -0.091141341 0.067011612 -0.172971119
v -0.070187861 0.009649226 -0.166976048
v -0.010035880 0.005405205 -0.310587533
v -0.041401074 0.045161821 -0.381291015
v -0.049078585 0.029740110 -0.308378214
v -0.041401074 0.045161821 -0.381291015
v -0.010035880 0.005405205 -0.310587533
v -0.005138809 0.022679644 -0.381402016
v -0.005138809 0.022679644 -0.381402016
v -0.036103664 0.052758576 -0.433009987
v -0.041401074 0.045161821 -0.381291015
v -0.036103664 0.052758576 -0.433009987
v -0.005138809 0.022679644 -0.381402016
v -0.004368991 0.028039402 -0.429919327
v 0.008284603 0.049798257 -0.320660120
v -0.009167987 0.097312580 -0.363782128
v 0.009375426 0.062808074 -0.377444344
v -0.009167987 0.097312580 -0.363782128
v 0.008284603 0.049798257 -0.320660120
v -0.012738599 0.095103855 -0.296483192
v 0.009375426 0.062808074 -0.377444344
v -0.008018452 0.097855096 -0.412613518
v 0.017468124 0.066514280 -0.441348124
v -0.008018452 0.097855096 -0.412613518
v 0.009375426 0.062808074 -0.377444344
v -0.009167987 0.097312580 -0.363782128
v -0.012738599 0.095103855 -0.296483192
v -0.056129752 0.077900634 -0.369943478
v -0.009167987 0.097312580 -0.363782128
v -0.056129752 0.077900634 -0.369943478
v -0.012738599 0.095103855 -0.296483192
v -0.067452569 0.070846034 -0.294506039
v -0.009167987 0.097312580 -0.363782128
v -0.048706334 0.091209710 -0.414190362
v -0.008018452 0.097855096 -0.412613518
v -0.048706334 0.091209710 -0.414190362
v -0.009167987 0.097312580 -0.363782128
v -0.056129752 0.077900634 -0.369943478
v -0.067452569 0.070846034 -0.294506039
v -0.041401074 0.045161821 -0.381291015
v -0.056129752 0.077900634 -0.369943478
v -0.041401074 0.045161821 -0.381291015
v -0.067452569 0.070846034 -0.294506039
v -0.049078585 0.029740110 -0.308378214
v -0.056129752 0.077900634 -0.369943478
v -0.036103664 0.052758576 -0.433009987
v -0.048706334 0.091209710 -0.414190362
v -0.036103664 0.052758576 -0.433009987
v -0.056129752 0.077900634 -0.369943478
v -0.041401074 0.045161821 -0.381291015
v -0.093289426 0.027345678 -0.071253797
v -0.073166894 0.019115640 -0.011025713
v -0.038718379 0.005131365 -0.058760064
v -0.073166894 0.019115640 -0.011025713
v -0.093289426 0.027345678 -0.071253797
v -0.098721353 0.042748275 -0.027457138
v 0.008715783 0.011505942 -0.055676604
v -0.039932858 0.012039398 -0.013696533
v 0.002397998 0.002470602 -0.012542124
v -0.039932858 0.012039398 -0.013696533
v 0.008715783 0.011505942 -0.055676604
v 0.007452126 0.029668376 -0.061174363
v -0.054163621 0.128237342 0.009805861
v -0.092042209 0.108955389 -0.037584325
v -0.046197426 0.136543859 -0.036073357
v -0.092042209 0.108955389 -0.037584325
v -0.054163621 0.128237342 0.009805861
v -0.087681407 0.100366721 0.014627498
v -0.046197426 0.136543859 -0.036073357
v -0.102152787 0.096221843 -0.077922823
v -0.039640821 0.128428390 -0.073136773
v -0.102152787 0.096221843 -0.077922823
v -0.046197426 0.136543859 -0.036073357
v -0.092042209 0.108955389 -0.037584325
v -0.039640821 0.128428390 -0.073136773
v -0.102672324 0.090050474 -0.086760372
v -0.004752463 0.116466408 -0.087965896
v -0.102672324 0.090050474 -0.086760372
v -0.039640821 0.128428390 -0.073136773
v -0.102152787 0.096221843 -0.077922823
v -0.010035880 0.005405205 -0.310587533
v -0.051738943 0.020858760 -0.258660960
v -0.007970029 -0.011764567 -0.261968435
v -0.051738943 0.020858760 -0.258660960
v -0.010035880 0.005405205 -0.310587533
v -0.049078585 0.029740110 -0.308378214
v -0.049078585 0.029740110 -0.308378214
v -0.067758132 0.059217353 -0.254208094
v -0.051738943 0.020858760 -0.258660960
v -0.067758132 0.059217353 -0.254208094
v -0.049078585 0.029740110 -0.308378214
v -0.067452569 0.070846034 -0.294506039
v -0.067758132 0.059217353 -0.254208094
v -0.012738599 0.095103855 -0.296483192
v -0.018359019 0.079081065 -0.249916768
v -0.012738599 0.095103855 -0.296483192
v -0.067758132 0.059217353 -0.254208094
v -0.067452569 0.070846034 -0.294506039
v -0.018359019 0.079081065 -0.249916768
v 0.008284603 0.049798257 -0.320660120
v 0.002347359 0.039093372 -0.252768162
v 0.008284603 0.049798257 -0.320660120
v -0.018359019 0.079081065 -0.249916768
v -0.012738599 0.095103855 -0.296483192
v -0.087681407 0.100366721 0.014627498
v -0.098721353 0.042748275 -0.027457138
v -0.092042209 0.108955389 -0.037584325
v -0.098721353 0.042748275 -0.027457138
v -0.087681407 0.100366721 0.014627498
v -0.095361073 0.052457719 0.005071679
v -0.092042209 0.108955389 -0.037584325
v -0.093289426 0.027345678 -0.071253797
v -0.102152787 0.096221843 -0.077922823
v -0.093289426 0.027345678 -0.071253797
v -0.092042209 0.108955389 -0.037584325
v -0.098721353 0.042748275 -0.027457138
v -0.102152787 0.096221843 -0.077922823
v -0.093289426 0.027345678 -0.071253797
v -0.102672324 0.090050474 -0.086760372
v -0.039932858 0.012039398 -0.013696533
v 0.007452126 0.029668376 -0.061174363
v -0.038718379 0.005131365 -0.058760064
v -0.073166894 0.019115640 -0.011025713
v -0.039932858 0.012039398 -0.013696533
v -0.038718379 0.005131365 -0.058760064
v -0.038718379 0.005131365 -0.058760064
v 0.012370308 0.040126820 -0.155056891
v -0.021627949 -0.007800719 -0.155407502
v -0.021627949 -0.007800719 -0.155407502
v 0.002347359 0.039093372 -0.252768162
v -0.007970029 -0.011764567 -0.261968435
v 0.002347359 0.039093372 -0.252768162
v -0.021627949 -0.007800719 -0.155407502
v 0.012370308 0.040126820 -0.155056891
v -0.007970029 -0.011764567 -0.261968435
v 0.008284603 0.049798257 -0.320660120
v -0.010035880 0.005405205 -0.310587533
v 0.008284603 0.049798257 -0.320660120
v -0.007970029 -0.011764567 -0.261968435
v 0.002347359 0.039093372 -0.252768162
v 0.008284603 0.049798257 -0.320660120
v -0.005138809 0.022679644 -0.381402016
v -0.010035880 0.005405205 -0.310587533
v -0.005138809 0.022679644 -0.381402016
v 0.008284603 0.049798257 -0.320660120
v 0.009375426 0.062808074 -0.377444344
v 0.009375426 0.062808074 -0.377444344
v -0.004368991 0.028039402 -0.429919327
v -0.005138809 0.022679644 -0.381402016
v -0.004368991 0.028039402 -0.429919327
v 0.009375426 0.062808074 -0.377444344
v 0.017468124 0.066514280 -0.441348124
v -0.087863098 0.035648306 0.041826858
v -0.073166894 0.019115640 -0.011025713
v -0.095361073 0.052457719 0.005071679
v -0.095361073 0.052457719 0.005071679
v -0.073166894 0.019115640 -0.011025713
v -0.098721353 0.042748275 -0.027457138
v 0.007452126 0.029668376 -0.061174363
v 0.008715783 0.011505942 -0.055676604
v 0.009337918 0.056386638 -0.079514048
v 0.002397998 0.002470602 -0.012542124
v -0.039932858 0.012039398 -0.013696533
v -0.054051359 0.014827209 0.046703296
v -0.010851276 0.130422890 0.012499793
v -0.046197426 0.136543859 -0.036073357
v -0.004283471 0.138936593 -0.031950164
v -0.046197426 0.136543859 -0.036073357
v -0.010851276 0.130422890 0.012499793
v -0.054163621 0.128237342 0.009805861
v -0.046197426 0.136543859 -0.036073357
v 0.001380707 0.132221253 -0.064024406
v -0.004283471 0.138936593 -0.031950164
v 0.001380707 0.132221253 -0.064024406
v -0.046197426 0.136543859 -0.036073357
v -0.039640821 0.128428390 -0.073136773
v 0.001380707 0.132221253 -0.064024406
v -0.039640821 0.128428390 -0.073136773
v 0.005269925 0.121922442 -0.083514802
v 0.005269925 0.121922442 -0.083514802
v -0.004752463 0.116466408 -0.087965896
v 0.009337918 0.056386638 -0.079514048
v -0.004752463 0.116466408 -0.087965896
v 0.007452126 0.029668376 -0.061174363
v 0.009337918 0.056386638 -0.079514048
v -0.038718379 0.005131365 -0.058760064
v 0.007452126 0.029668376 -0.061174363
v 0.012370308 0.040126820 -0.155056891
v -0.036103664 0.052758576 -0.433009987
v 0.000986687 0.020774230 -0.452593792
v -0.034539376 0.045645797 -0.457139803
v 0.000986687 0.020774230 -0.452593792
v -0.036103664 0.052758576 -0.433009987
v -0.004368991 0.028039402 -0.429919327
v 0.017468124 0.066514280 -0.441348124
v 0.001723835 0.116914466 -0.452475386
v 0.021798359 0.066512069 -0.466896869
v 0.001723835 0.116914466 -0.452475386
v 0.017468124 0.066514280 -0.441348124
v -0.008018452 0.097855096 -0.412613518
v -0.008018452 0.097855096 -0.412613518
v -0.048349979 0.098680057 -0.445248445
v 0.001723835 0.116914466 -0.452475386
v -0.048349979 0.098680057 -0.445248445
v -0.008018452 0.097855096 -0.412613518
v -0.048706334 0.091209710 -0.414190362
v -0.048706334 0.091209710 -0.414190362
v -0.034539376 0.045645797 -0.457139803
v -0.048349979 0.098680057 -0.445248445
v -0.034539376 0.045645797 -0.457139803
v -0.048706334 0.091209710 -0.414190362
v -0.036103664 0.052758576 -0.433009987
v -0.004368991 0.028039402 -0.429919327
v 0.021798359 0.066512069 -0.466896869
v 0.000986687 0.020774230 -0.452593792
v 0.021798359 0.066512069 -0.466896869
v -0.004368991 0.028039402 -0.429919327
v 0.017468124 0.066514280 -0.441348124
v -0.034539376 0.045645797 -0.457139803
v -0.004432134 0.025247381 -0.477337282
v -0.039818243 0.050172751 -0.481869278
v -0.004432134 0.025247381 -0.477337282
v -0.034539376 0.045645797 -0.457139803
v 0.000986687 0.020774230 -0.452593792
v 0.021798359 0.066512069 -0.466896869
v -0.003243827 0.120986625 -0.475048096
v 0.016460699 0.069236122 -0.484752047
v -0.003243827 0.120986625 -0.475048096
v 0.021798359 0.066512069 -0.466896869
v 0.001723835 0.116914466 -0.452475386
v 0.001723835 0.116914466 -0.452475386
v -0.053456096 0.103268809 -0.470012180
v -0.003243827 0.120986625 -0.475048096
v -0.053456096 0.103268809 -0.470012180
v 0.001723835 0.116914466 -0.452475386
v -0.048349979 0.098680057 -0.445248445
v -0.048349979 0.098680057 -0.445248445
v -0.039818243 0.050172751 -0.481869278
v -0.053456096 0.103268809 -0.470012180
v -0.039818243 0.050172751 -0.481869278
v -0.048349979 0.098680057 -0.445248445
v -0.034539376 0.045645797 -0.457139803
v 0.000986687 0.020774230 -0.452593792
v 0.016460699 0.069236122 -0.484752047
v -0.004432134 0.025247381 -0.477337282
v 0.016460699 0.069236122 -0.484752047
v 0.000986687 0.020774230 -0.452593792
v 0.021798359 0.066512069 -0.466896869
v -0.039818243 0.050172751 -0.481869278
v -0.004432134 0.025247381 -0.477337282
v -0.016853751 0.076046779 -0.485112643
v 0.016460699 0.069236122 -0.484752047
v -0.003243827 0.120986625 -0.475048096
v -0.016853751 0.076046779 -0.485112643
v -0.003243827 0.120986625 -0.475048096
v -0.033335608 0.088259513 -0.478744266
v -0.016853751 0.076046779 -0.485112643
v -0.033335608 0.088259513 -0.478744266
v -0.003243827 0.120986625 -0.475048096
v -0.053456096 0.103268809 -0.470012180
v -0.039818243 0.050172751 -0.481869278
v -0.033335608 0.088259513 -0.478744266
v -0.053456096 0.103268809 -0.470012180
v -0.033335608 0.088259513 -0.478744266
v -0.039818243 0.050172751 -0.481869278
v -0.016853751 0.076046779 -0.485112643
v -0.004432134 0.025247381 -0.477337282
v 0.016460699 0.069236122 -0.484752047
v -0.016853751 0.076046779 -0.485112643
v -0.088188858 0.083428896 0.035556623
v -0.064505741 0.117107066 0.032310463
v -0.017595154 0.072638320 0.050381648
v -0.087863098 0.035648306 0.041826858
v -0.088188858 0.083428896 0.035556623
v -0.017595154 0.072638320 0.050381648
v -0.054051359 0.014827209 0.046703296
v -0.087863098 0.035648306 0.041826858
v -0.017595154 0.072638320 0.050381648
v -0.009165358 0.018231388 0.056010646
v -0.054051359 0.014827209 0.046703296
v -0.017595154 0.072638320 0.050381648
v -0.064505741 0.117107066 0.032310463
v -0.022835517 0.113973690 0.040703976
v -0.017595154 0.072638320 0.050381648
v 0.034007716 0.030083698 0.066318229
v 0.002397998 0.002470602 -0.012542124
v -0.009165358 0.018231388 0.056010646
v 0.002397998 0.002470602 -0.012542124
v -0.054051359 0.014827209 0.046703296
v -0.009165358 0.018231388 0.056010646
v 0.043298487 0.134394551 -0.059739169
v 0.005269925 0.121922442 -0.083514802
v 0.015937991 0.112894516 -0.088573443
v 0.005269925 0.121922442 -0.083514802
v -0.039640821 0.128428390 -0.073136773
v -0.004752463 0.116466408 -0.087965896
vt 0.655812979 0.560059011
vt 0.740234017 0.535561979
vt 0.742870986 0.568826020
vt 0.740234017 0.535561979
vt 0.655812979 0.560059011
vt 0.652606010 0.535561979
vt 0.584580004 0.535561979
vt 0.655812979 0.560059011
vt 0.606445014 0.576452017
vt 0.655812979 0.560059011
vt 0.584580004 0.535561979
vt 0.652606010 0.535561979
vt 0.546494007 0.535561979
vt 0.577148020 0.587302029
vt 0.539062977 0.589254975
vt 0.577148020 0.587302029
vt 0.546494007 0.535561979
vt 0.584580004 0.535561979
vt 0.742870986 0.568826020
vt 0.785156012 0.535561979
vt 0.785156012 0.570591986
vt 0.785156012 0.535561979
vt 0.742870986 0.568826020
vt 0.740234017 0.535561979
vt 0.571289003 0.614257991
vt 0.620117009 0.710937977
vt 0.583007991 0.711914003
vt 0.620117009 0.710937977
vt 0.571289003 0.614257991
vt 0.616210997 0.614257991
vt 0.620117009 0.710937977
vt 0.594506025 0.771530986
vt 0.583007991 0.711914003
vt 0.594506025 0.771530986
vt 0.620117009 0.710937977
vt 0.633000016 0.774496973
vt 0.781250000 0.617187977
vt 0.729492009 0.701171994
vt 0.738281012 0.629882991
vt 0.729492009 0.701171994
vt 0.781250000 0.617187977
vt 0.774414003 0.709960997
vt 0.774414003 0.709960997
vt 0.722656012 0.771484017
vt 0.729492009 0.701171994
vt 0.722656012 0.771484017
vt 0.774414003 0.709960997
vt 0.768554986 0.771484017
vt 0.729492009 0.701171994
vt 0.680441976 0.630411983
vt 0.738281012 0.629882991
vt 0.680441976 0.630411983
vt 0.729492009 0.701171994
vt 0.676757991 0.704101980
vt 0.729492009 0.701171994
vt 0.676864982 0.770649016
vt 0.676757991 0.704101980
vt 0.676864982 0.770649016
vt 0.729492009 0.701171994
vt 0.722656012 0.771484017
vt 0.680441976 0.630411983
vt 0.620117009 0.710937977
vt 0.616210997 0.614257991
vt 0.620117009 0.710937977
vt 0.680441976 0.630411983
vt 0.676757991 0.704101980
vt 0.676757991 0.704101980
vt 0.633000016 0.774496973
vt 0.620117009 0.710937977
vt 0.633000016 0.774496973
vt 0.676757991 0.704101980
vt 0.676864982 0.770649016
vt 0.605823994 0.832777023
vt 0.655273020 0.876953006
vt 0.614238977 0.877417028
vt 0.655273020 0.876953006
vt 0.605823994 0.832777023
vt 0.646853983 0.829473019
vt 0.614238977 0.877417028
vt 0.661132991 0.920898020
vt 0.624240994 0.921905994
vt 0.661132991 0.920898020
vt 0.614238977 0.877417028
vt 0.655273020 0.876953006
vt 0.758789003 0.829101980
vt 0.722656012 0.876953006
vt 0.724609017 0.825195014
vt 0.722656012 0.876953006
vt 0.758789003 0.829101980
vt 0.753906012 0.876953006
vt 0.753906012 0.876953006
vt 0.717773020 0.921875000
vt 0.722656012 0.876953006
vt 0.717773020 0.921875000
vt 0.753906012 0.876953006
vt 0.747070014 0.921875000
vt 0.724609017 0.825195014
vt 0.679687977 0.875976980
vt 0.676509023 0.820604026
vt 0.679687977 0.875976980
vt 0.724609017 0.825195014
vt 0.722656012 0.876953006
vt 0.722656012 0.876953006
vt 0.683311999 0.921037018
vt 0.679687977 0.875976980
vt 0.683311999 0.921037018
vt 0.722656012 0.876953006
vt 0.717773020 0.921875000
vt 0.676509023 0.820604026
vt 0.655273020 0.876953006
vt 0.646853983 0.829473019
vt 0.655273020 0.876953006
vt 0.676509023 0.820604026
vt 0.679687977 0.875976980
vt 0.679687977 0.875976980
vt 0.661132991 0.920898020
vt 0.655273020 0.876953006
vt 0.661132991 0.920898020
vt 0.679687977 0.875976980
vt 0.683311999 0.921037018
vt 0.616210997 0.614257991
vt 0.577148020 0.587302029
vt 0.622070014 0.584178984
vt 0.577148020 0.587302029
vt 0.616210997 0.614257991
vt 0.571289003 0.614257991
vt 0.539062977 0.589254975
vt 0.500618994 0.616203010
vt 0.500618994 0.591796994
vt 0.500618994 0.616203010
vt 0.539062977 0.589254975
vt 0.512254000 0.615234017
vt 0.742870986 0.568826020
vt 0.677475989 0.591902971
vt 0.655812979 0.560059011
vt 0.677475989 0.591902971
vt 0.742870986 0.568826020
vt 0.744140983 0.590817988
vt 0.744140983 0.590817988
vt 0.681532979 0.613192976
vt 0.677475989 0.591902971
vt 0.681532979 0.613192976
vt 0.744140983 0.590817988
vt 0.741210997 0.610741973
vt 0.741210997 0.610741973
vt 0.680441976 0.630411983
vt 0.681532979 0.613192976
vt 0.680441976 0.630411983
vt 0.741210997 0.610741973
vt 0.738281012 0.629882991
vt 0.605823994 0.832777023
vt 0.633000016 0.774496973
vt 0.646853983 0.829473019
vt 0.633000016 0.774496973
vt 0.605823994 0.832777023
vt 0.594506025 0.771530986
vt 0.646853983 0.829473019
vt 0.676864982 0.770649016
vt 0.676509023 0.820604026
vt 0.676864982 0.770649016
vt 0.646853983 0.829473019
vt 0.633000016 0.774496973
vt 0.676864982 0.770649016
vt 0.724609017 0.825195014
vt 0.676509023 0.820604026
vt 0.724609017 0.825195014
vt 0.676864982 0.770649016
vt 0.722656012 0.771484017
vt 0.722656012 0.771484017
vt 0.758789003 0.829101980
vt 0.724609017 0.825195014
vt 0.758789003 0.829101980
vt 0.722656012 0.771484017
vt 0.768554986 0.771484017
vt 0.655812979 0.560059011
vt 0.622070014 0.584178984
vt 0.606445014 0.576452017
vt 0.622070014 0.584178984
vt 0.655812979 0.560059011
vt 0.677475989 0.591902971
vt 0.677475989 0.591902971
vt 0.616210997 0.614257991
vt 0.622070014 0.584178984
vt 0.616210997 0.614257991
vt 0.677475989 0.591902971
vt 0.681532979 0.613192976
vt 0.681532979 0.613192976
vt 0.680441976 0.630411983
vt 0.616210997 0.614257991
vt 0.539062977 0.589254975
vt 0.571289003 0.614257991
vt 0.512254000 0.615234017
vt 0.577148020 0.587302029
vt 0.571289003 0.614257991
vt 0.539062977 0.589254975
vt 0.571289003 0.614257991
vt 0.583007991 0.711914003
vt 0.537109017 0.710937977
vt 0.583007991 0.711914003
vt 0.551757991 0.772460997
vt 0.537109017 0.710937977
vt 0.551757991 0.772460997
vt 0.583007991 0.711914003
vt 0.594506025 0.771530986
vt 0.594506025 0.771530986
vt 0.567382991 0.843750000
vt 0.551757991 0.772460997
vt 0.567382991 0.843750000
vt 0.594506025 0.771530986
vt 0.605823994 0.832777023
vt 0.567382991 0.843750000
vt 0.614238977 0.877417028
vt 0.577046990 0.878556013
vt 0.614238977 0.877417028
vt 0.567382991 0.843750000
vt 0.605823994 0.832777023
vt 0.577046990 0.878556013
vt 0.624240994 0.921905994
vt 0.591796994 0.923828006
vt 0.624240994 0.921905994
vt 0.577046990 0.878556013
vt 0.614238977 0.877417028
vt 0.584580004 0.535561979
vt 0.606445014 0.576452017
vt 0.577148020 0.587302029
vt 0.606445014 0.576452017
vt 0.622070014 0.584178984
vt 0.577148020 0.587302029
vt 0.781250000 0.617187977
vt 0.781250000 0.609375000
vt 0.785156012 0.617187977
vt 0.500618994 0.591796994
vt 0.546494007 0.535561979
vt 0.539062977 0.589254975
vt 0.785156012 0.570591986
vt 0.744140983 0.590817988
vt 0.742870986 0.568826020
vt 0.744140983 0.590817988
vt 0.785156012 0.570591986
vt 0.785156012 0.589843988
vt 0.744140983 0.590817988
vt 0.785156012 0.609375000
vt 0.741210997 0.610741973
vt 0.785156012 0.609375000
vt 0.744140983 0.590817988
vt 0.785156012 0.589843988
vt 0.785156012 0.609375000
vt 0.781250000 0.605468988
vt 0.741210997 0.610741973
vt 0.781250000 0.605468988
vt 0.781250000 0.609375000
vt 0.738281012 0.629882991
vt 0.738281012 0.629882991
vt 0.781250000 0.609375000
vt 0.781250000 0.617187977
vt 0.571289003 0.614257991
vt 0.537109017 0.710937977
vt 0.512254000 0.615234017
vt 0.661132991 0.920898020
vt 0.631226003 0.953270972
vt 0.624240994 0.921905994
vt 0.631226003 0.953270972
vt 0.661132991 0.920898020
vt 0.663504004 0.952373981
vt 0.747070014 0.921875000
vt 0.712890983 0.952148020
vt 0.717773020 0.921875000
vt 0.712890983 0.952148020
vt 0.747070014 0.921875000
vt 0.742407978 0.952904999
vt 0.717773020 0.921875000
vt 0.685379028 0.952244997
vt 0.683311999 0.921037018
vt 0.685379028 0.952244997
vt 0.717773020 0.921875000
vt 0.712890983 0.952148020
vt 0.683311999 0.921037018
vt 0.663504004 0.952373981
vt 0.661132991 0.920898020
vt 0.663504004 0.952373981
vt 0.683311999 0.921037018
vt 0.685379028 0.952244997
vt 0.624240994 0.921905994
vt 0.604492009 0.955078006
vt 0.591796994 0.923828006
vt 0.604492009 0.955078006
vt 0.624240994 0.921905994
vt 0.631226003 0.953270972
vt 0.663504004 0.952373981
vt 0.637695014 0.980468988
vt 0.631226003 0.953270972
vt 0.637695014 0.980468988
vt 0.663504004 0.952373981
vt 0.666342020 0.980485976
vt 0.742407978 0.952904999
vt 0.708984017 0.980468988
vt 0.712890983 0.952148020
vt 0.708984017 0.980468988
vt 0.742407978 0.952904999
vt 0.738281012 0.980468988
vt 0.712890983 0.952148020
vt 0.687500000 0.980468988
vt 0.685379028 0.952244997
vt 0.687500000 0.980468988
vt 0.712890983 0.952148020
vt 0.708984017 0.980468988
vt 0.685379028 0.952244997
vt 0.666342020 0.980485976
vt 0.663504004 0.952373981
vt 0.666342020 0.980485976
vt 0.685379028 0.952244997
vt 0.687500000 0.980468988
vt 0.631226003 0.953270972
vt 0.615234017 0.981445014
vt 0.604492009 0.955078006
vt 0.615234017 0.981445014
vt 0.631226003 0.953270972
vt 0.637695014 0.980468988
vt 0.666342020 0.980485976
vt 0.639518976 0.992693007
vt 0.637695014 0.980468988
vt 0.738281012 0.980468988
vt 0.715812027 0.992156029
vt 0.708984017 0.980468988
vt 0.708984017 0.980468988
vt 0.685859978 0.991764009
vt 0.687500000 0.980468988
vt 0.685859978 0.991764009
vt 0.708984017 0.980468988
vt 0.715812027 0.992156029
vt 0.685859978 0.991764009
vt 0.666342020 0.980485976
vt 0.687500000 0.980468988
vt 0.666342020 0.980485976
vt 0.685859978 0.991764009
vt 0.639518976 0.992693007
vt 0.637695014 0.980468988
vt 0.639518976 0.992693007
vt 0.615234017 0.981445014
vt 0.503664017 0.565295994
vt 0.503464997 0.565297008
vt 0.506848991 0.565295994
vt 0.501191974 0.565295994
vt 0.503464997 0.565297008
vt 0.503664017 0.565295994
vt 0.499808013 0.565295994
vt 0.503464997 0.565297008
vt 0.501191974 0.565295994
vt 0.498140007 0.565298021
vt 0.503464997 0.565297008
vt 0.499808013 0.565298021
vt 0.506848991 0.565295994
vt 0.503464997 0.565297008
vt 0.508481979 0.565295994
vt 0.346322000 0.559849977
vt 0.261361003 0.535561979
vt 0.349251986 0.535561979
vt 0.261361003 0.535561979
vt 0.346322000 0.559849977
vt 0.259407997 0.568638980
vt 0.416635007 0.535561979
vt 0.346322000 0.559849977
vt 0.349251986 0.535561979
vt 0.346322000 0.559849977
vt 0.416635007 0.535561979
vt 0.395150006 0.576452017
vt 0.454721004 0.535561979
vt 0.424447000 0.586914003
vt 0.416635007 0.535561979
vt 0.424447000 0.586914003
vt 0.454721004 0.535561979
vt 0.462532997 0.588867009
vt 0.259407997 0.568638980
vt 0.210938007 0.535561979
vt 0.261361003 0.535561979
vt 0.210938007 0.535561979
vt 0.259407997 0.568638980
vt 0.210938007 0.570591986
vt 0.430307001 0.614257991
vt 0.381478995 0.710937977
vt 0.385385007 0.614257991
vt 0.381478995 0.710937977
vt 0.430307001 0.614257991
vt 0.418588012 0.711914003
vt 0.381478995 0.710937977
vt 0.406868994 0.771484017
vt 0.368782997 0.774414003
vt 0.406868994 0.771484017
vt 0.381478995 0.710937977
vt 0.418588012 0.711914003
vt 0.218750000 0.617187977
vt 0.272103995 0.701171994
vt 0.227182001 0.709960997
vt 0.272103995 0.701171994
vt 0.218750000 0.617187977
vt 0.263314009 0.629882991
vt 0.227182001 0.709960997
vt 0.278939009 0.771484017
vt 0.233041003 0.771484017
vt 0.278939009 0.771484017
vt 0.227182001 0.709960997
vt 0.272103995 0.701171994
vt 0.321907997 0.630859017
vt 0.272103995 0.701171994
vt 0.263314009 0.629882991
vt 0.272103995 0.701171994
vt 0.321907997 0.630859017
vt 0.324838012 0.704101980
vt 0.272103995 0.701171994
vt 0.324838012 0.770507991
vt 0.278939009 0.771484017
vt 0.324838012 0.770507991
vt 0.272103995 0.701171994
vt 0.324838012 0.704101980
vt 0.321907997 0.630859017
vt 0.381478995 0.710937977
vt 0.324838012 0.704101980
vt 0.381478995 0.710937977
vt 0.321907997 0.630859017
vt 0.385385007 0.614257991
vt 0.324838012 0.704101980
vt 0.368782997 0.774414003
vt 0.324838012 0.770507991
vt 0.368782997 0.774414003
vt 0.324838012 0.704101980
vt 0.381478995 0.710937977
vt 0.396126986 0.833007991
vt 0.346322000 0.876953006
vt 0.355111003 0.829101980
vt 0.346322000 0.876953006
vt 0.396126986 0.833007991
vt 0.387338012 0.876953006
vt 0.387338012 0.876953006
vt 0.340463012 0.920898020
vt 0.346322000 0.876953006
vt 0.340463012 0.920898020
vt 0.387338012 0.876953006
vt 0.377572000 0.921875000
vt 0.242807001 0.829101980
vt 0.278939009 0.876953006
vt 0.247690007 0.876953006
vt 0.278939009 0.876953006
vt 0.242807001 0.829101980
vt 0.276986003 0.825195014
vt 0.247690007 0.876953006
vt 0.283822000 0.921875000
vt 0.254525006 0.921875000
vt 0.283822000 0.921875000
vt 0.247690007 0.876953006
vt 0.278939009 0.876953006
vt 0.276986003 0.825195014
vt 0.321907997 0.875976980
vt 0.278939009 0.876953006
vt 0.321907997 0.875976980
vt 0.276986003 0.825195014
vt 0.325814009 0.820312977
vt 0.278939009 0.876953006
vt 0.318978995 0.920898020
vt 0.283822000 0.921875000
vt 0.318978995 0.920898020
vt 0.278939009 0.876953006
vt 0.321907997 0.875976980
vt 0.325814009 0.820312977
vt 0.346322000 0.876953006
vt 0.321907997 0.875976980
vt 0.346322000 0.876953006
vt 0.325814009 0.820312977
vt 0.355111003 0.829101980
vt 0.321907997 0.875976980
vt 0.340463012 0.920898020
vt 0.318978995 0.920898020
vt 0.340463012 0.920898020
vt 0.321907997 0.875976980
vt 0.346322000 0.876953006
vt 0.385385007 0.614257991
vt 0.424447000 0.586914003
vt 0.430307001 0.614257991
vt 0.424447000 0.586914003
vt 0.385385007 0.614257991
vt 0.379525006 0.583984017
vt 0.500618994 0.616203010
vt 0.462532997 0.588867009
vt 0.500618994 0.591796994
vt 0.462532997 0.588867009
vt 0.500618994 0.616203010
vt 0.489342004 0.615234017
vt 0.259407997 0.568638980
vt 0.324838012 0.591796994
vt 0.257454991 0.590820014
vt 0.324838012 0.591796994
vt 0.259407997 0.568638980
vt 0.346322000 0.559849977
vt 0.257454991 0.590820014
vt 0.319954991 0.613281012
vt 0.260385007 0.610351980
vt 0.319954991 0.613281012
vt 0.257454991 0.590820014
vt 0.324838012 0.591796994
vt 0.260385007 0.610351980
vt 0.321907997 0.630859017
vt 0.263314009 0.629882991
vt 0.321907997 0.630859017
vt 0.260385007 0.610351980
vt 0.319954991 0.613281012
vt 0.396126986 0.833007991
vt 0.368782997 0.774414003
vt 0.406868994 0.771484017
vt 0.368782997 0.774414003
vt 0.396126986 0.833007991
vt 0.355111003 0.829101980
vt 0.355111003 0.829101980
vt 0.324838012 0.770507991
vt 0.368782997 0.774414003
vt 0.324838012 0.770507991
vt 0.355111003 0.829101980
vt 0.325814009 0.820312977
vt 0.324838012 0.770507991
vt 0.276986003 0.825195014
vt 0.278939009 0.771484017
vt 0.276986003 0.825195014
vt 0.324838012 0.770507991
vt 0.325814009 0.820312977
vt 0.278939009 0.771484017
vt 0.242807001 0.829101980
vt 0.233041003 0.771484017
vt 0.242807001 0.829101980
vt 0.278939009 0.771484017
vt 0.276986003 0.825195014
vt 0.346322000 0.559849977
vt 0.379525006 0.583984017
vt 0.324838012 0.591796994
vt 0.379525006 0.583984017
vt 0.346322000 0.559849977
vt 0.395150006 0.576452017
vt 0.324838012 0.591796994
vt 0.385385007 0.614257991
vt 0.319954991 0.613281012
vt 0.385385007 0.614257991
vt 0.324838012 0.591796994
vt 0.379525006 0.583984017
vt 0.319954991 0.613281012
vt 0.385385007 0.614257991
vt 0.321907997 0.630859017
vt 0.462532997 0.588867009
vt 0.489342004 0.615234017
vt 0.430307001 0.614257991
vt 0.424447000 0.586914003
vt 0.462532997 0.588867009
vt 0.430307001 0.614257991
vt 0.430307001 0.614257991
vt 0.464486003 0.710937977
vt 0.418588012 0.711914003
vt 0.418588012 0.711914003
vt 0.449838012 0.772460997
vt 0.406868994 0.771484017
vt 0.449838012 0.772460997
vt 0.418588012 0.711914003
vt 0.464486003 0.710937977
vt 0.406868994 0.771484017
vt 0.434213012 0.843750000
vt 0.396126986 0.833007991
vt 0.434213012 0.843750000
vt 0.406868994 0.771484017
vt 0.449838012 0.772460997
vt 0.434213012 0.843750000
vt 0.387338012 0.876953006
vt 0.396126986 0.833007991
vt 0.387338012 0.876953006
vt 0.434213012 0.843750000
vt 0.424447000 0.878906012
vt 0.424447000 0.878906012
vt 0.377572000 0.921875000
vt 0.387338012 0.876953006
vt 0.377572000 0.921875000
vt 0.424447000 0.878906012
vt 0.409799010 0.923828006
vt 0.416635007 0.535561979
vt 0.424447000 0.586914003
vt 0.395150006 0.576452017
vt 0.395150006 0.576452017
vt 0.424447000 0.586914003
vt 0.379525006 0.583984017
vt 0.218750000 0.617187977
vt 0.214844003 0.617187977
vt 0.217416003 0.610351980
vt 0.500618994 0.591796994
vt 0.462532997 0.588867009
vt 0.454721004 0.535561979
vt 0.210938007 0.570591986
vt 0.257454991 0.590820014
vt 0.210938007 0.589843988
vt 0.257454991 0.590820014
vt 0.210938007 0.570591986
vt 0.259407997 0.568638980
vt 0.257454991 0.590820014
vt 0.210938007 0.609375000
vt 0.210938007 0.589843988
vt 0.210938007 0.609375000
vt 0.257454991 0.590820014
vt 0.260385007 0.610351980
vt 0.210938007 0.609375000
vt 0.260385007 0.610351980
vt 0.216440007 0.603515983
vt 0.216440007 0.603515983
vt 0.263314009 0.629882991
vt 0.217416003 0.610351980
vt 0.263314009 0.629882991
vt 0.218750000 0.617187977
vt 0.217416003 0.610351980
vt 0.430307001 0.614257991
vt 0.489342004 0.615234017
vt 0.464486003 0.710937977
vt 0.340463012 0.920898020
vt 0.370736003 0.953125000
vt 0.338510007 0.952148020
vt 0.370736003 0.953125000
vt 0.340463012 0.920898020
vt 0.377572000 0.921875000
vt 0.254525006 0.921875000
vt 0.288704991 0.952148020
vt 0.259407997 0.953125000
vt 0.288704991 0.952148020
vt 0.254525006 0.921875000
vt 0.283822000 0.921875000
vt 0.283822000 0.921875000
vt 0.317025006 0.952148020
vt 0.288704991 0.952148020
vt 0.317025006 0.952148020
vt 0.283822000 0.921875000
vt 0.318978995 0.920898020
vt 0.318978995 0.920898020
vt 0.338510007 0.952148020
vt 0.317025006 0.952148020
vt 0.338510007 0.952148020
vt 0.318978995 0.920898020
vt 0.340463012 0.920898020
vt 0.377572000 0.921875000
vt 0.397103995 0.955078006
vt 0.370736003 0.953125000
vt 0.397103995 0.955078006
vt 0.377572000 0.921875000
vt 0.409799010 0.923828006
vt 0.338510007 0.952148020
vt 0.363900006 0.980468988
vt 0.335579991 0.980468988
vt 0.363900006 0.980468988
vt 0.338510007 0.952148020
vt 0.370736003 0.953125000
vt 0.259407997 0.953125000
vt 0.292611003 0.980468988
vt 0.263314009 0.980468988
vt 0.292611003 0.980468988
vt 0.259407997 0.953125000
vt 0.288704991 0.952148020
vt 0.288704991 0.952148020
vt 0.314096004 0.980468988
vt 0.292611003 0.980468988
vt 0.314096004 0.980468988
vt 0.288704991 0.952148020
vt 0.317025006 0.952148020
vt 0.317025006 0.952148020
vt 0.335579991 0.980468988
vt 0.314096004 0.980468988
vt 0.335579991 0.980468988
vt 0.317025006 0.952148020
vt 0.338510007 0.952148020
vt 0.370736003 0.953125000
vt 0.386361003 0.981445014
vt 0.363900006 0.980468988
vt 0.386361003 0.981445014
vt 0.370736003 0.953125000
vt 0.397103995 0.955078006
vt 0.335579991 0.980468988
vt 0.363900006 0.980468988
vt 0.361947000 0.993164003
vt 0.263314009 0.980468988
vt 0.292611003 0.980468988
vt 0.285775006 0.992187977
vt 0.292611003 0.980468988
vt 0.316049010 0.992187977
vt 0.285775006 0.992187977
vt 0.316049010 0.992187977
vt 0.292611003 0.980468988
vt 0.314096004 0.980468988
vt 0.335579991 0.980468988
vt 0.316049010 0.992187977
vt 0.314096004 0.980468988
vt 0.316049010 0.992187977
vt 0.335579991 0.980468988
vt 0.361947000 0.993164003
vt 0.363900006 0.980468988
vt 0.386361003 0.981445014
vt 0.361947000 0.993164003
vt 0.492639005 0.565295994
vt 0.489445001 0.565295994
vt 0.492852002 0.565297008
vt 0.495088011 0.565295994
vt 0.492639005 0.565295994
vt 0.492852002 0.565297008
vt 0.496472001 0.565295994
vt 0.495088011 0.565295994
vt 0.492852002 0.565297008
vt 0.498140007 0.565298021
vt 0.496472001 0.565298021
vt 0.492852002 0.565297008
vt 0.489445001 0.565295994
vt 0.487612009 0.565295994
vt 0.492852002 0.565297008
vt 0.546494007 0.535561979
vt 0.500618994 0.591796994
vt 0.500618994 0.535561979
vt 0.500618994 0.591796994
vt 0.454721004 0.535561979
vt 0.500618994 0.535561979
vt 0.741210997 0.610741973
vt 0.781250000 0.605468988
vt 0.738281012 0.629882991
vt 0.216440007 0.603515983
vt 0.260385007 0.610351980
vt 0.263314009 0.629882991
vn 0.711327575 0.525687136 0.466547014
vn -0.118027759 0.626270016 0.770620085
vn 0.128610239 0.958598934 0.254061980
vn -0.118027759 0.626270016 0.770620085
vn 0.711327575 0.525687136 0.466547014
vn -0.020645470 0.316383033 0.948406844
vn 0.391863052 -0.089761757 0.915634302
vn 0.711327575 0.525687136 0.466547014
vn 0.896592784 -0.057792092 0.439068848
vn 0.711327575 0.525687136 0.466547014
vn 0.391863052 -0.089761757 0.915634302
vn -0.020645470 0.316383033 0.948406844
vn 0.198039762 -0.742121760 0.640340180
vn 0.631603914 -0.650956221 0.421108649
vn 0.207712369 -0.965642043 0.156176235
vn 0.631603914 -0.650956221 0.421108649
vn 0.198039762 -0.742121760 0.640340180
vn 0.391863052 -0.089761757 0.915634302
vn 0.128610239 0.958598934 0.254061980
vn -0.232239031 0.711824167 0.662850954
vn -0.109165194 0.962838627 0.247031858
vn -0.232239031 0.711824167 0.662850954
vn 0.128610239 0.958598934 0.254061980
vn -0.118027759 0.626270016 0.770620085
vn 0.289988603 -0.911538489 0.291554787
vn 0.857534668 -0.186625561 0.479380009
vn 0.060206556 -0.992022140 0.110757592
vn 0.857534668 -0.186625561 0.479380009
vn 0.289988603 -0.911538489 0.291554787
vn 0.864572530 -0.089639059 0.494448358
vn 0.857534668 -0.186625561 0.479380009
vn 0.335683959 -0.936983716 0.096839013
vn 0.060206556 -0.992022140 0.110757592
vn 0.335683959 -0.936983716 0.096839013
vn 0.857534668 -0.186625561 0.479380009
vn 0.926992489 -0.051156736 0.371574911
vn -0.592052150 -0.603904779 -0.533641518
vn -0.480021016 0.620495551 -0.620133127
vn -0.374189958 0.486938986 -0.789222592
vn -0.480021016 0.620495551 -0.620133127
vn -0.592052150 -0.603904779 -0.533641518
vn -0.620415435 -0.635301787 -0.459865554
vn -0.620415435 -0.635301787 -0.459865554
vn -0.772101024 0.225332401 -0.594209826
vn -0.480021016 0.620495551 -0.620133127
vn -0.772101024 0.225332401 -0.594209826
vn -0.620415435 -0.635301787 -0.459865554
vn -0.645976484 -0.627617802 -0.434523045
vn -0.480021016 0.620495551 -0.620133127
vn 0.497622361 0.867028574 -0.025168205
vn -0.374189958 0.486938986 -0.789222592
vn 0.497622361 0.867028574 -0.025168205
vn -0.480021016 0.620495551 -0.620133127
vn 0.611586576 0.783663814 0.108779072
vn -0.480021016 0.620495551 -0.620133127
vn 0.308697706 0.950543878 0.034235378
vn 0.611586576 0.783663814 0.108779072
vn 0.308697706 0.950543878 0.034235378
vn -0.480021016 0.620495551 -0.620133127
vn -0.772101024 0.225332401 -0.594209826
vn 0.497622361 0.867028574 -0.025168205
vn 0.857534668 -0.186625561 0.479380009
vn 0.864572530 -0.089639059 0.494448358
vn 0.857534668 -0.186625561 0.479380009
vn 0.497622361 0.867028574 -0.025168205
vn 0.611586576 0.783663814 0.108779072
vn 0.611586576 0.783663814 0.108779072
vn 0.926992489 -0.051156736 0.371574911
vn 0.857534668 -0.186625561 0.479380009
vn 0.926992489 -0.051156736 0.371574911
vn 0.611586576 0.783663814 0.108779072
vn 0.308697706 0.950543878 0.034235378
vn 0.678082233 -0.726764688 0.109624696
vn 0.918435892 -0.105800607 0.381158422
vn 0.303808789 -0.951241146 -0.053296356
vn 0.918435892 -0.105800607 0.381158422
vn 0.678082233 -0.726764688 0.109624696
vn 0.911020582 -0.048427319 0.409507380
vn 0.303808789 -0.951241146 -0.053296356
vn 0.848657277 -0.031065903 0.528030051
vn 0.021311537 -0.995816646 0.088853958
vn 0.848657277 -0.031065903 0.528030051
vn 0.303808789 -0.951241146 -0.053296356
vn 0.918435892 -0.105800607 0.381158422
vn -0.720829710 -0.520675062 -0.457495366
vn -0.738107337 0.560314276 -0.375826384
vn -0.589556022 0.792201108 -0.157610600
vn -0.738107337 0.560314276 -0.375826384
vn -0.720829710 -0.520675062 -0.457495366
vn -0.696821878 -0.511654753 -0.502641706
vn -0.696821878 -0.511654753 -0.502641706
vn -0.903869354 0.320136512 -0.283783025
vn -0.738107337 0.560314276 -0.375826384
vn -0.903869354 0.320136512 -0.283783025
vn -0.696821878 -0.511654753 -0.502641706
vn -0.785388899 -0.576798556 -0.224650179
vn -0.589556022 0.792201108 -0.157610600
vn 0.292680907 0.937233070 0.189557536
vn 0.522668559 0.776589406 0.351747740
vn 0.292680907 0.937233070 0.189557536
vn -0.589556022 0.792201108 -0.157610600
vn -0.738107337 0.560314276 -0.375826384
vn -0.738107337 0.560314276 -0.375826384
vn 0.238176711 0.939597795 0.245820744
vn 0.292680907 0.937233070 0.189557536
vn 0.238176711 0.939597795 0.245820744
vn -0.738107337 0.560314276 -0.375826384
vn -0.903869354 0.320136512 -0.283783025
vn 0.522668559 0.776589406 0.351747740
vn 0.918435892 -0.105800607 0.381158422
vn 0.911020582 -0.048427319 0.409507380
vn 0.918435892 -0.105800607 0.381158422
vn 0.522668559 0.776589406 0.351747740
vn 0.292680907 0.937233070 0.189557536
vn 0.292680907 0.937233070 0.189557536
vn 0.848657277 -0.031065903 0.528030051
vn 0.918435892 -0.105800607 0.381158422
vn 0.848657277 -0.031065903 0.528030051
vn 0.292680907 0.937233070 0.189557536
vn 0.238176711 0.939597795 0.245820744
vn 0.864572530 -0.089639059 0.494448358
vn 0.631603914 -0.650956221 0.421108649
vn 0.877374125 0.091474278 0.471006477
vn 0.631603914 -0.650956221 0.421108649
vn 0.864572530 -0.089639059 0.494448358
vn 0.289988603 -0.911538489 0.291554787
vn 0.207712369 -0.965642043 0.156176235
vn -0.131208794 -0.912984712 -0.386320034
vn 0.092591541 -0.991236051 0.094222592
vn -0.131208794 -0.912984712 -0.386320034
vn 0.207712369 -0.965642043 0.156176235
vn -0.592052150 -0.603904779 -0.533641518
vn 0.128610239 0.958598934 0.254061980
vn 0.686590661 0.630087978 0.362742889
vn 0.711327575 0.525687136 0.466547014
vn 0.686590661 0.630087978 0.362742889
vn 0.128610239 0.958598934 0.254061980
vn 0.127032491 0.991530955 0.027002064
vn 0.127032491 0.991530955 0.027002064
vn 0.603210018 0.788336341 0.121092886
vn 0.686590661 0.630087978 0.362742889
vn 0.603210018 0.788336341 0.121092886
vn 0.127032491 0.991530955 0.027002064
vn 0.214760867 0.871380573 -0.441105052
vn 0.214760867 0.871380573 -0.441105052
vn 0.497622361 0.867028574 -0.025168205
vn 0.603210018 0.788336341 0.121092886
vn 0.497622361 0.867028574 -0.025168205
vn 0.214760867 0.871380573 -0.441105052
vn -0.374189958 0.486938986 -0.789222592
vn 0.678082233 -0.726764688 0.109624696
vn 0.926992489 -0.051156736 0.371574911
vn 0.911020582 -0.048427319 0.409507380
vn 0.926992489 -0.051156736 0.371574911
vn 0.678082233 -0.726764688 0.109624696
vn 0.335683959 -0.936983716 0.096839013
vn 0.911020582 -0.048427319 0.409507380
vn 0.308697706 0.950543878 0.034235378
vn 0.522668559 0.776589406 0.351747740
vn 0.308697706 0.950543878 0.034235378
vn 0.911020582 -0.048427319 0.409507380
vn 0.926992489 -0.051156736 0.371574911
vn 0.308697706 0.950543878 0.034235378
vn -0.589556022 0.792201108 -0.157610600
vn 0.522668559 0.776589406 0.351747740
vn -0.589556022 0.792201108 -0.157610600
vn 0.308697706 0.950543878 0.034235378
vn -0.772101024 0.225332401 -0.594209826
vn -0.772101024 0.225332401 -0.594209826
vn -0.720829710 -0.520675062 -0.457495366
vn -0.589556022 0.792201108 -0.157610600
vn -0.720829710 -0.520675062 -0.457495366
vn -0.772101024 0.225332401 -0.594209826
vn -0.645976484 -0.627617802 -0.434523045
vn 0.711327575 0.525687136 0.466547014
vn 0.877374125 0.091474278 0.471006477
vn 0.896592784 -0.057792092 0.439068848
vn 0.877374125 0.091474278 0.471006477
vn 0.711327575 0.525687136 0.466547014
vn 0.686590661 0.630087978 0.362742889
vn 0.686590661 0.630087978 0.362742889
vn 0.864572530 -0.089639059 0.494448358
vn 0.877374125 0.091474278 0.471006477
vn 0.864572530 -0.089639059 0.494448358
vn 0.686590661 0.630087978 0.362742889
vn 0.603210018 0.788336341 0.121092886
vn 0.603210018 0.788336341 0.121092886
vn 0.497622361 0.867028574 -0.025168205
vn 0.864572530 -0.089639059 0.494448358
vn 0.207712369 -0.965642043 0.156176235
vn 0.289988603 -0.911538489 0.291554787
vn -0.592052150 -0.603904779 -0.533641518
vn 0.631603914 -0.650956221 0.421108649
vn 0.289988603 -0.911538489 0.291554787
vn 0.207712369 -0.965642043 0.156176235
vn 0.289988603 -0.911538489 0.291554787
vn 0.060206556 -0.992022140 0.110757592
vn -0.620415435 -0.635301787 -0.459865554
vn 0.060206556 -0.992022140 0.110757592
vn -0.645976484 -0.627617802 -0.434523045
vn -0.620415435 -0.635301787 -0.459865554
vn -0.645976484 -0.627617802 -0.434523045
vn 0.060206556 -0.992022140 0.110757592
vn 0.335683959 -0.936983716 0.096839013
vn 0.335683959 -0.936983716 0.096839013
vn -0.720829710 -0.520675062 -0.457495366
vn -0.645976484 -0.627617802 -0.434523045
vn -0.720829710 -0.520675062 -0.457495366
vn 0.335683959 -0.936983716 0.096839013
vn 0.678082233 -0.726764688 0.109624696
vn -0.720829710 -0.520675062 -0.457495366
vn 0.303808789 -0.951241146 -0.053296356
vn -0.696821878 -0.511654753 -0.502641706
vn 0.303808789 -0.951241146 -0.053296356
vn -0.720829710 -0.520675062 -0.457495366
vn 0.678082233 -0.726764688 0.109624696
vn -0.696821878 -0.511654753 -0.502641706
vn 0.021311537 -0.995816646 0.088853958
vn -0.785388899 -0.576798556 -0.224650179
vn 0.021311537 -0.995816646 0.088853958
vn -0.696821878 -0.511654753 -0.502641706
vn 0.303808789 -0.951241146 -0.053296356
vn 0.391863052 -0.089761757 0.915634302
vn 0.896592784 -0.057792092 0.439068848
vn 0.631603914 -0.650956221 0.421108649
vn 0.896592784 -0.057792092 0.439068848
vn 0.877374125 0.091474278 0.471006477
vn 0.631603914 -0.650956221 0.421108649
vn -0.592052150 -0.603904779 -0.533641518
vn -0.225306688 -0.255912272 -0.940077553
vn -0.131208794 -0.912984712 -0.386320034
vn 0.092591541 -0.991236051 0.094222592
vn 0.198039762 -0.742121760 0.640340180
vn 0.207712369 -0.965642043 0.156176235
vn -0.109165194 0.962838627 0.247031858
vn 0.127032491 0.991530955 0.027002064
vn 0.128610239 0.958598934 0.254061980
vn 0.127032491 0.991530955 0.027002064
vn -0.109165194 0.962838627 0.247031858
vn -0.073618690 0.997218208 0.011667652
vn 0.127032491 0.991530955 0.027002064
vn -0.024385791 0.960614176 -0.276813543
vn 0.214760867 0.871380573 -0.441105052
vn -0.024385791 0.960614176 -0.276813543
vn 0.127032491 0.991530955 0.027002064
vn -0.073618690 0.997218208 0.011667652
vn -0.024385791 0.960614176 -0.276813543
vn 0.024035676 0.613067281 -0.789664990
vn 0.214760867 0.871380573 -0.441105052
vn 0.024035676 0.613067281 -0.789664990
vn -0.225306688 -0.255912272 -0.940077553
vn -0.374189958 0.486938986 -0.789222592
vn -0.374189958 0.486938986 -0.789222592
vn -0.225306688 -0.255912272 -0.940077553
vn -0.592052150 -0.603904779 -0.533641518
vn 0.289988603 -0.911538489 0.291554787
vn -0.620415435 -0.635301787 -0.459865554
vn -0.592052150 -0.603904779 -0.533641518
vn 0.848657277 -0.031065903 0.528030051
vn 0.558990421 -0.779649350 0.282270438
vn 0.021311537 -0.995816646 0.088853958
vn 0.558990421 -0.779649350 0.282270438
vn 0.848657277 -0.031065903 0.528030051
vn 0.828250433 0.348741215 0.438612340
vn -0.785388899 -0.576798556 -0.224650179
vn -0.991784927 0.126408797 -0.019582510
vn -0.903869354 0.320136512 -0.283783025
vn -0.991784927 0.126408797 -0.019582510
vn -0.785388899 -0.576798556 -0.224650179
vn -0.512956247 -0.817617337 -0.261491450
vn -0.903869354 0.320136512 -0.283783025
vn 0.074131221 0.961267293 0.265461398
vn 0.238176711 0.939597795 0.245820744
vn 0.074131221 0.961267293 0.265461398
vn -0.903869354 0.320136512 -0.283783025
vn -0.991784927 0.126408797 -0.019582510
vn 0.238176711 0.939597795 0.245820744
vn 0.828250433 0.348741215 0.438612340
vn 0.848657277 -0.031065903 0.528030051
vn 0.828250433 0.348741215 0.438612340
vn 0.238176711 0.939597795 0.245820744
vn 0.074131221 0.961267293 0.265461398
vn 0.021311537 -0.995816646 0.088853958
vn -0.512956247 -0.817617337 -0.261491450
vn -0.785388899 -0.576798556 -0.224650179
vn -0.512956247 -0.817617337 -0.261491450
vn 0.021311537 -0.995816646 0.088853958
vn 0.558990421 -0.779649350 0.282270438
vn 0.828250433 0.348741215 0.438612340
vn 0.760311867 -0.341192088 -0.552733049
vn 0.558990421 -0.779649350 0.282270438
vn 0.760311867 -0.341192088 -0.552733049
vn 0.828250433 0.348741215 0.438612340
vn 0.845242656 0.446639260 -0.293390906
vn -0.512956247 -0.817617337 -0.261491450
vn -0.379102809 0.077293444 -0.922120807
vn -0.991784927 0.126408797 -0.019582510
vn -0.379102809 0.077293444 -0.922120807
vn -0.512956247 -0.817617337 -0.261491450
vn 0.082921328 -0.542142229 -0.836185300
vn -0.991784927 0.126408797 -0.019582510
vn -0.063136741 0.933295082 -0.353516678
vn 0.074131221 0.961267293 0.265461398
vn -0.063136741 0.933295082 -0.353516678
vn -0.991784927 0.126408797 -0.019582510
vn -0.379102809 0.077293444 -0.922120807
vn 0.074131221 0.961267293 0.265461398
vn 0.845242656 0.446639260 -0.293390906
vn 0.828250433 0.348741215 0.438612340
vn 0.845242656 0.446639260 -0.293390906
vn 0.074131221 0.961267293 0.265461398
vn -0.063136741 0.933295082 -0.353516678
vn 0.558990421 -0.779649350 0.282270438
vn 0.082921328 -0.542142229 -0.836185300
vn -0.512956247 -0.817617337 -0.261491450
vn 0.082921328 -0.542142229 -0.836185300
vn 0.558990421 -0.779649350 0.282270438
vn 0.760311867 -0.341192088 -0.552733049
vn 0.845242656 0.446639260 -0.293390906
vn 0.328163154 0.037055042 -0.943893992
vn 0.760311867 -0.341192088 -0.552733049
vn 0.082921328 -0.542142229 -0.836185300
vn 0.328163154 0.037055042 -0.943893992
vn -0.379102809 0.077293444 -0.922120807
vn -0.379102809 0.077293444 -0.922120807
vn 0.261886268 0.297590404 -0.918071639
vn -0.063136741 0.933295082 -0.353516678
vn 0.261886268 0.297590404 -0.918071639
vn -0.379102809 0.077293444 -0.922120807
vn 0.328163154 0.037055042 -0.943893992
vn 0.261886268 0.297590404 -0.918071639
vn 0.845242656 0.446639260 -0.293390906
vn -0.063136741 0.933295082 -0.353516678
vn 0.845242656 0.446639260 -0.293390906
vn 0.261886268 0.297590404 -0.918071639
vn 0.328163154 0.037055042 -0.943893992
vn 0.760311867 -0.341192088 -0.552733049
vn 0.328163154 0.037055042 -0.943893992
vn 0.082921328 -0.542142229 -0.836185300
vn -0.020645470 0.316383033 0.948406844
vn -0.234398537 0.111283418 0.965750137
vn -0.118027759 0.626270016 0.770620085
vn 0.391863052 -0.089761757 0.915634302
vn -0.234398537 0.111283418 0.965750137
vn -0.020645470 0.316383033 0.948406844
vn 0.198039762 -0.742121760 0.640340180
vn -0.234398537 0.111283418 0.965750137
vn 0.391863052 -0.089761757 0.915634302
vn -0.047318233 -0.674323405 0.736918537
vn -0.234398537 0.111283418 0.965750137
vn 0.198039762 -0.742121760 0.640340180
vn -0.118027759 0.626270016 0.770620085
vn -0.234398537 0.111283418 0.965750137
vn -0.232239031 0.711824167 0.662850954
vn -0.926630988 0.340526895 0.159362627
vn -0.311895146 0.486578199 0.816065606
vn -0.375773680 0.213110009 0.901874861
vn -0.311895146 0.486578199 0.816065606
vn -0.926630988 0.340526895 0.159362627
vn -0.359076135 0.906379977 0.222575082
vn -0.680221849 -0.220393575 0.699088627
vn -0.926630988 0.340526895 0.159362627
vn -0.375773680 0.213110009 0.901874861
vn -0.926630988 0.340526895 0.159362627
vn -0.680221849 -0.220393575 0.699088627
vn -0.968183449 -0.213939062 0.129810964
vn -0.257007775 -0.807230699 0.531343206
vn -0.517742376 -0.852616248 0.070628359
vn -0.680221849 -0.220393575 0.699088627
vn -0.517742376 -0.852616248 0.070628359
vn -0.257007775 -0.807230699 0.531343206
vn -0.129683271 -0.988703962 -0.075144690
vn -0.359076135 0.906379977 0.222575082
vn -0.232239031 0.711824167 0.662850954
vn -0.311895146 0.486578199 0.816065606
vn -0.232239031 0.711824167 0.662850954
vn -0.359076135 0.906379977 0.222575082
vn -0.109165194 0.962838627 0.247031858
vn 0.092980167 -0.991550476 0.090456296
vn -0.715751828 -0.692948116 -0.086730786
vn -0.846533700 -0.532299072 -0.006196110
vn -0.715751828 -0.692948116 -0.086730786
vn 0.092980167 -0.991550476 0.090456296
vn 0.516602431 -0.851848808 0.086461185
vn -0.715751828 -0.692948116 -0.086730786
vn 0.289321775 -0.953296607 -0.086709226
vn -0.782005209 -0.583837109 -0.218179019
vn 0.289321775 -0.953296607 -0.086709226
vn -0.715751828 -0.692948116 -0.086730786
vn 0.516602431 -0.851848808 0.086461185
vn 0.966291501 -0.205733954 -0.154771691
vn 0.277717726 0.935450274 -0.218645030
vn 0.996101568 -0.088206963 -0.001094041
vn 0.277717726 0.935450274 -0.218645030
vn 0.966291501 -0.205733954 -0.154771691
vn 0.333986259 0.821743024 -0.461726739
vn 0.996101568 -0.088206963 -0.001094041
vn 0.680292707 0.730651014 -0.057887210
vn 0.995500765 -0.091264254 0.025476709
vn 0.680292707 0.730651014 -0.057887210
vn 0.996101568 -0.088206963 -0.001094041
vn 0.277717726 0.935450274 -0.218645030
vn -0.798973142 0.540517305 -0.263596207
vn 0.277717726 0.935450274 -0.218645030
vn 0.333986259 0.821743024 -0.461726739
vn 0.277717726 0.935450274 -0.218645030
vn -0.798973142 0.540517305 -0.263596207
vn -0.918283871 0.295223512 -0.263813969
vn 0.277717726 0.935450274 -0.218645030
vn -0.752065365 0.636994901 -0.169219336
vn 0.680292707 0.730651014 -0.057887210
vn -0.752065365 0.636994901 -0.169219336
vn 0.277717726 0.935450274 -0.218645030
vn -0.918283871 0.295223512 -0.263813969
vn -0.798973142 0.540517305 -0.263596207
vn -0.715751828 -0.692948116 -0.086730786
vn -0.918283871 0.295223512 -0.263813969
vn -0.715751828 -0.692948116 -0.086730786
vn -0.798973142 0.540517305 -0.263596207
vn -0.846533700 -0.532299072 -0.006196110
vn -0.918283871 0.295223512 -0.263813969
vn -0.782005209 -0.583837109 -0.218179019
vn -0.752065365 0.636994901 -0.169219336
vn -0.782005209 -0.583837109 -0.218179019
vn -0.918283871 0.295223512 -0.263813969
vn -0.715751828 -0.692948116 -0.086730786
vn -0.108958861 -0.959947107 -0.258126944
vn -0.749162862 -0.630543090 -0.202904949
vn -0.786835588 -0.590825762 -0.178366689
vn -0.749162862 -0.630543090 -0.202904949
vn -0.108958861 -0.959947107 -0.258126944
vn 0.349701333 -0.921432645 -0.169324716
vn 0.349701333 -0.921432645 -0.169324716
vn -0.780086522 -0.618478031 -0.094604145
vn -0.749162862 -0.630543090 -0.202904949
vn -0.780086522 -0.618478031 -0.094604145
vn 0.349701333 -0.921432645 -0.169324716
vn 0.671526466 -0.735146930 0.092796530
vn 0.997921244 0.040040848 0.050496755
vn 0.379164601 0.920637487 0.093063541
vn 0.997675334 0.038264082 0.056389614
vn 0.379164601 0.920637487 0.093063541
vn 0.997921244 0.040040848 0.050496755
vn 0.036340036 0.986610994 0.158991030
vn 0.997675334 0.038264082 0.056389614
vn 0.464600308 0.853114400 0.237365488
vn 0.976021780 0.087589627 0.199272530
vn 0.464600308 0.853114400 0.237365488
vn 0.997675334 0.038264082 0.056389614
vn 0.379164601 0.920637487 0.093063541
vn 0.036340036 0.986610994 0.158991030
vn -0.816185876 0.575938534 -0.046210625
vn 0.379164601 0.920637487 0.093063541
vn -0.816185876 0.575938534 -0.046210625
vn 0.036340036 0.986610994 0.158991030
vn -0.949944109 0.308168201 -0.051366813
vn 0.379164601 0.920637487 0.093063541
vn -0.813403841 0.580690469 0.034245736
vn 0.464600308 0.853114400 0.237365488
vn -0.813403841 0.580690469 0.034245736
vn 0.379164601 0.920637487 0.093063541
vn -0.816185876 0.575938534 -0.046210625
vn -0.949944109 0.308168201 -0.051366813
vn -0.749162862 -0.630543090 -0.202904949
vn -0.816185876 0.575938534 -0.046210625
vn -0.749162862 -0.630543090 -0.202904949
vn -0.949944109 0.308168201 -0.051366813
vn -0.786835588 -0.590825762 -0.178366689
vn -0.816185876 0.575938534 -0.046210625
vn -0.780086522 -0.618478031 -0.094604145
vn -0.813403841 0.580690469 0.034245736
vn -0.780086522 -0.618478031 -0.094604145
vn -0.816185876 0.575938534 -0.046210625
vn -0.749162862 -0.630543090 -0.202904949
vn -0.846533700 -0.532299072 -0.006196110
vn -0.517742376 -0.852616248 0.070628359
vn 0.092980167 -0.991550476 0.090456296
vn -0.517742376 -0.852616248 0.070628359
vn -0.846533700 -0.532299072 -0.006196110
vn -0.992221414 -0.111555845 0.055244541
vn -0.131208794 -0.912984712 -0.386320034
vn -0.129683271 -0.988703962 -0.075144690
vn 0.092591541 -0.991236051 0.094222592
vn -0.129683271 -0.988703962 -0.075144690
vn -0.131208794 -0.912984712 -0.386320034
vn 0.966291501 -0.205733954 -0.154771691
vn -0.359076135 0.906379977 0.222575082
vn -0.905261359 0.419640477 0.066360702
vn -0.284367381 0.956802487 -0.060532588
vn -0.905261359 0.419640477 0.066360702
vn -0.359076135 0.906379977 0.222575082
vn -0.926630988 0.340526895 0.159362627
vn -0.284367381 0.956802487 -0.060532588
vn -0.807507005 0.586140680 -0.066117618
vn -0.223845080 0.832090498 -0.507463085
vn -0.807507005 0.586140680 -0.066117618
vn -0.284367381 0.956802487 -0.060532588
vn -0.905261359 0.419640477 0.066360702
vn -0.223845080 0.832090498 -0.507463085
vn -0.798973142 0.540517305 -0.263596207
vn 0.333986259 0.821743024 -0.461726739
vn -0.798973142 0.540517305 -0.263596207
vn -0.223845080 0.832090498 -0.507463085
vn -0.807507005 0.586140680 -0.066117618
vn -0.108958861 -0.959947107 -0.258126944
vn -0.782005209 -0.583837109 -0.218179019
vn 0.289321775 -0.953296607 -0.086709226
vn -0.782005209 -0.583837109 -0.218179019
vn -0.108958861 -0.959947107 -0.258126944
vn -0.786835588 -0.590825762 -0.178366689
vn -0.786835588 -0.590825762 -0.178366689
vn -0.752065365 0.636994901 -0.169219336
vn -0.782005209 -0.583837109 -0.218179019
vn -0.752065365 0.636994901 -0.169219336
vn -0.786835588 -0.590825762 -0.178366689
vn -0.949944109 0.308168201 -0.051366813
vn -0.752065365 0.636994901 -0.169219336
vn 0.036340036 0.986610994 0.158991030
vn 0.680292707 0.730651014 -0.057887210
vn 0.036340036 0.986610994 0.158991030
vn -0.752065365 0.636994901 -0.169219336
vn -0.949944109 0.308168201 -0.051366813
vn 0.680292707 0.730651014 -0.057887210
vn 0.997921244 0.040040848 0.050496755
vn 0.995500765 -0.091264254 0.025476709
vn 0.997921244 0.040040848 0.050496755
vn 0.680292707 0.730651014 -0.057887210
vn 0.036340036 0.986610994 0.158991030
vn -0.926630988 0.340526895 0.159362627
vn -0.992221414 -0.111555845 0.055244541
vn -0.905261359 0.419640477 0.066360702
vn -0.992221414 -0.111555845 0.055244541
vn -0.926630988 0.340526895 0.159362627
vn -0.968183449 -0.213939062 0.129810964
vn -0.905261359 0.419640477 0.066360702
vn -0.846533700 -0.532299072 -0.006196110
vn -0.807507005 0.586140680 -0.066117618
vn -0.846533700 -0.532299072 -0.006196110
vn -0.905261359 0.419640477 0.066360702
vn -0.992221414 -0.111555845 0.055244541
vn -0.807507005 0.586140680 -0.066117618
vn -0.846533700 -0.532299072 -0.006196110
vn -0.798973142 0.540517305 -0.263596207
vn -0.129683271 -0.988703962 -0.075144690
vn 0.966291501 -0.205733954 -0.154771691
vn 0.092980167 -0.991550476 0.090456296
vn -0.517742376 -0.852616248 0.070628359
vn -0.129683271 -0.988703962 -0.075144690
vn 0.092980167 -0.991550476 0.090456296
vn 0.092980167 -0.991550476 0.090456296
vn 0.996101568 -0.088206963 -0.001094041
vn 0.516602431 -0.851848808 0.086461185
vn 0.516602431 -0.851848808 0.086461185
vn 0.995500765 -0.091264254 0.025476709
vn 0.289321775 -0.953296607 -0.086709226
vn 0.995500765 -0.091264254 0.025476709
vn 0.516602431 -0.851848808 0.086461185
vn 0.996101568 -0.088206963 -0.001094041
vn 0.289321775 -0.953296607 -0.086709226
vn 0.997921244 0.040040848 0.050496755
vn -0.108958861 -0.959947107 -0.258126944
vn 0.997921244 0.040040848 0.050496755
vn 0.289321775 -0.953296607 -0.086709226
vn 0.995500765 -0.091264254 0.025476709
vn 0.997921244 0.040040848 0.050496755
vn 0.349701333 -0.921432645 -0.169324716
vn -0.108958861 -0.959947107 -0.258126944
vn 0.349701333 -0.921432645 -0.169324716
vn 0.997921244 0.040040848 0.050496755
vn 0.997675334 0.038264082 0.056389614
vn 0.997675334 0.038264082 0.056389614
vn 0.671526466 -0.735146930 0.092796530
vn 0.349701333 -0.921432645 -0.169324716
vn 0.671526466 -0.735146930 0.092796530
vn 0.997675334 0.038264082 0.056389614
vn 0.976021780 0.087589627 0.199272530
vn -0.680221849 -0.220393575 0.699088627
vn -0.517742376 -0.852616248 0.070628359
vn -0.968183449 -0.213939062 0.129810964
vn -0.968183449 -0.213939062 0.129810964
vn -0.517742376 -0.852616248 0.070628359
vn -0.992221414 -0.111555845 0.055244541
vn 0.966291501 -0.205733954 -0.154771691
vn -0.131208794 -0.912984712 -0.386320034
vn -0.225306688 -0.255912272 -0.940077553
vn 0.092591541 -0.991236051 0.094222592
vn -0.129683271 -0.988703962 -0.075144690
vn -0.257007775 -0.807230699 0.531343206
vn -0.109165194 0.962838627 0.247031858
vn -0.284367381 0.956802487 -0.060532588
vn -0.073618690 0.997218208 0.011667652
vn -0.284367381 0.956802487 -0.060532588
vn -0.109165194 0.962838627 0.247031858
vn -0.359076135 0.906379977 0.222575082
vn -0.284367381 0.956802487 -0.060532588
vn -0.024385791 0.960614176 -0.276813543
vn -0.073618690 0.997218208 0.011667652
vn -0.024385791 0.960614176 -0.276813543
vn -0.284367381 0.956802487 -0.060532588
vn -0.223845080 0.832090498 -0.507463085
vn -0.024385791 0.960614176 -0.276813543
vn -0.223845080 0.832090498 -0.507463085
vn 0.024035676 0.613067281 -0.789664990
vn 0.024035676 0.613067281 -0.789664990
vn 0.333986259 0.821743024 -0.461726739
vn -0.225306688 -0.255912272 -0.940077553
vn 0.333986259 0.821743024 -0.461726739
vn 0.966291501 -0.205733954 -0.154771691
vn -0.225306688 -0.255912272 -0.940077553
vn 0.092980167 -0.991550476 0.090456296
vn 0.966291501 -0.205733954 -0.154771691
vn 0.996101568 -0.088206963 -0.001094041
vn -0.780086522 -0.618478031 -0.094604145
vn 0.288891568 -0.957277004 0.012743582
vn -0.840618866 -0.539994295 0.042024803
vn 0.288891568 -0.957277004 0.012743582
vn -0.780086522 -0.618478031 -0.094604145
vn 0.671526466 -0.735146930 0.092796530
vn 0.976021780 0.087589627 0.199272530
vn 0.408345709 0.856744637 0.315027631
vn 0.999892149 0.004288924 0.014046159
vn 0.408345709 0.856744637 0.315027631
vn 0.976021780 0.087589627 0.199272530
vn 0.464600308 0.853114400 0.237365488
vn 0.464600308 0.853114400 0.237365488
vn -0.841246667 0.478427039 0.251816627
vn 0.408345709 0.856744637 0.315027631
vn -0.841246667 0.478427039 0.251816627
vn 0.464600308 0.853114400 0.237365488
vn -0.813403841 0.580690469 0.034245736
vn -0.813403841 0.580690469 0.034245736
vn -0.840618866 -0.539994295 0.042024803
vn -0.841246667 0.478427039 0.251816627
vn -0.840618866 -0.539994295 0.042024803
vn -0.813403841 0.580690469 0.034245736
vn -0.780086522 -0.618478031 -0.094604145
vn 0.671526466 -0.735146930 0.092796530
vn 0.999892149 0.004288924 0.014046159
vn 0.288891568 -0.957277004 0.012743582
vn 0.999892149 0.004288924 0.014046159
vn 0.671526466 -0.735146930 0.092796530
vn 0.976021780 0.087589627 0.199272530
vn -0.840618866 -0.539994295 0.042024803
vn -0.030232089 -0.617758256 -0.785786712
vn -0.769902061 -0.337797357 -0.541427522
vn -0.030232089 -0.617758256 -0.785786712
vn -0.840618866 -0.539994295 0.042024803
vn 0.288891568 -0.957277004 0.012743582
vn 0.999892149 0.004288924 0.014046159
vn 0.292309145 0.602583939 -0.742595421
vn 0.569787079 -0.105696381 -0.814966846
vn 0.292309145 0.602583939 -0.742595421
vn 0.999892149 0.004288924 0.014046159
vn 0.408345709 0.856744637 0.315027631
vn 0.408345709 0.856744637 0.315027631
vn -0.698856306 0.649536145 -0.299504023
vn 0.292309145 0.602583939 -0.742595421
vn -0.698856306 0.649536145 -0.299504023
vn 0.408345709 0.856744637 0.315027631
vn -0.841246667 0.478427039 0.251816627
vn -0.841246667 0.478427039 0.251816627
vn -0.769902061 -0.337797357 -0.541427522
vn -0.698856306 0.649536145 -0.299504023
vn -0.769902061 -0.337797357 -0.541427522
vn -0.841246667 0.478427039 0.251816627
vn -0.840618866 -0.539994295 0.042024803
vn 0.288891568 -0.957277004 0.012743582
vn 0.569787079 -0.105696381 -0.814966846
vn -0.030232089 -0.617758256 -0.785786712
vn 0.569787079 -0.105696381 -0.814966846
vn 0.288891568 -0.957277004 0.012743582
vn 0.999892149 0.004288924 0.014046159
vn -0.769902061 -0.337797357 -0.541427522
vn -0.030232089 -0.617758256 -0.785786712
vn -0.044561001 0.032071299 -0.998491737
vn 0.569787079 -0.105696381 -0.814966846
vn 0.292309145 0.602583939 -0.742595421
vn -0.044561001 0.032071299 -0.998491737
vn 0.292309145 0.602583939 -0.742595421
vn -0.233714484 0.212112381 -0.948886652
vn -0.044561001 0.032071299 -0.998491737
vn -0.233714484 0.212112381 -0.948886652
vn 0.292309145 0.602583939 -0.742595421
vn -0.698856306 0.649536145 -0.299504023
vn -0.769902061 -0.337797357 -0.541427522
vn -0.233714484 0.212112381 -0.948886652
vn -0.698856306 0.649536145 -0.299504023
vn -0.233714484 0.212112381 -0.948886652
vn -0.769902061 -0.337797357 -0.541427522
vn -0.044561001 0.032071299 -0.998491737
vn -0.030232089 -0.617758256 -0.785786712
vn 0.569787079 -0.105696381 -0.814966846
vn -0.044561001 0.032071299 -0.998491737
vn -0.375773680 0.213110009 0.901874861
vn -0.311895146 0.486578199 0.816065606
vn -0.234398537 0.111283418 0.965750137
vn -0.680221849 -0.220393575 0.699088627
vn -0.375773680 0.213110009 0.901874861
vn -0.234398537 0.111283418 0.965750137
vn -0.257007775 -0.807230699 0.531343206
vn -0.680221849 -0.220393575 0.699088627
vn -0.234398537 0.111283418 0.965750137
vn -0.047318233 -0.674323405 0.736918537
vn -0.257007775 -0.807230699 0.531343206
vn -0.234398537 0.111283418 0.965750137
vn -0.311895146 0.486578199 0.816065606
vn -0.232239031 0.711824167 0.662850954
vn -0.234398537 0.111283418 0.965750137
vn 0.198039762 -0.742121760 0.640340180
vn 0.092591541 -0.991236051 0.094222592
vn -0.047318233 -0.674323405 0.736918537
vn 0.092591541 -0.991236051 0.094222592
vn -0.257007775 -0.807230699 0.531343206
vn -0.047318233 -0.674323405 0.736918537
vn 0.214760867 0.871380573 -0.441105052
vn 0.024035676 0.613067281 -0.789664990
vn -0.374189958 0.486938986 -0.789222592
vn 0.024035676 0.613067281 -0.789664990
vn -0.223845080 0.832090498 -0.507463085
vn 0.333986259 0.821743024 -0.461726739
f 3/3/3 2/2/2 1/1/1
f 6/6/6 5/5/5 4/4/4
f 9/9/9 8/8/8 7/7/7
f 12/12/12 11/11/11 10/10/10
f 15/15/15 14/14/14 13/13/13
f 18/18/18 17/17/17 16/16/16
f 21/21/21 20/20/20 19/19/19
f 24/24/24 23/23/23 22/22/22
f 27/27/27 26/26/26 25/25/25
f 30/30/30 29/29/29 28/28/28
f 33/33/33 32/32/32 31/31/31
f 36/36/36 35/35/35 34/34/34
f 39/39/39 38/38/38 37/37/37
f 42/42/42 41/41/41 40/40/40
f 45/45/45 44/44/44 43/43/43
f 48/48/48 47/47/47 46/46/46
f 51/51/51 50/50/50 49/49/49
f 54/54/54 53/53/53 52/52/52
f 57/57/57 56/56/56 55/55/55
f 60/60/60 59/59/59 58/58/58
f 63/63/63 62/62/62 61/61/61
f 66/66/66 65/65/65 64/64/64
f 69/69/69 68/68/68 67/67/67
f 72/72/72 71/71/71 70/70/70
f 75/75/75 74/74/74 73/73/73
f 78/78/78 77/77/77 76/76/76
f 81/81/81 80/80/80 79/79/79
f 84/84/84 83/83/83 82/82/82
f 87/87/87 86/86/86 85/85/85
f 90/90/90 89/89/89 88/88/88
f 93/93/93 92/92/92 91/91/91
f 96/96/96 95/95/95 94/94/94
f 99/99/99 98/98/98 97/97/97
f 102/102/102 101/101/101 100/100/100
f 105/105/105 104/104/104 103/103/103
f 108/108/108 107/107/107 106/106/106
f 111/111/111 110/110/110 109/109/109
f 114/114/114 113/113/113 112/112/112
f 117/117/117 116/116/116 115/115/115
f 120/120/120 119/119/119 118/118/118
f 123/123/123 122/122/122 121/121/121
f 126/126/126 125/125/125 124/124/124
f 129/129/129 128/128/128 127/127/127
f 132/132/132 131/131/131 130/130/130
f 135/135/135 134/134/134 133/133/133
f 138/138/138 137/137/137 136/136/136
f 141/141/141 140/140/140 139/139/139
f 144/144/144 143/143/143 142/142/142
f 147/147/147 146/146/146 145/145/145
f 150/150/150 149/149/149 148/148/148
f 153/153/153 152/152/152 151/151/151
f 156/156/156 155/155/155 154/154/154
f 159/159/159 158/158/158 157/157/157
f 162/162/162 161/161/161 160/160/160
f 165/165/165 164/164/164 163/163/163
f 168/168/168 167/167/167 166/166/166
f 171/171/171 170/170/170 169/169/169
f 174/174/174 173/173/173 172/172/172
f 177/177/177 176/176/176 175/175/175
f 180/180/180 179/179/179 178/178/178
f 183/183/183 182/182/182 181/181/181
f 186/186/186 185/185/185 184/184/184
f 189/189/189 188/188/188 187/187/187
f 192/192/192 191/191/191 190/190/190
f 195/195/195 194/194/194 193/193/193
f 198/198/198 197/197/197 196/196/196
f 201/201/201 200/200/200 199/199/199
f 204/204/204 203/203/203 202/202/202
f 207/207/207 206/206/206 205/205/205
f 210/210/210 209/209/209 208/208/208
f 213/213/213 212/212/212 211/211/211
f 216/216/216 215/215/215 214/214/214
f 219/219/219 218/218/218 217/217/217
f 222/222/222 221/221/221 220/220/220
f 225/225/225 224/224/224 223/223/223
f 228/228/228 227/227/227 226/226/226
f 231/231/231 230/230/230 229/229/229
f 234/234/234 233/233/233 232/232/232
f 237/237/237 236/236/236 235/235/235
f 240/240/240 239/239/239 238/238/238
f 243/243/243 242/242/242 241/241/241
f 246/246/246 245/245/245 244/244/244
f 249/249/249 248/248/248 247/247/247
f 252/252/252 251/251/251 250/250/250
f 255/255/255 254/254/254 253/253/253
f 258/258/258 257/257/257 256/256/256
f 261/261/261 260/260/260 259/259/259
f 264/264/264 263/263/263 262/262/262
f 267/267/267 266/266/266 265/265/265
f 270/270/270 269/269/269 268/268/268
f 273/273/273 272/272/272 271/271/271
f 276/276/276 275/275/275 274/274/274
f 279/279/279 278/278/278 277/277/277
f 282/282/282 281/281/281 280/280/280
f 285/285/285 284/284/284 283/283/283
f 288/288/288 287/287/287 286/286/286
f 291/291/291 290/290/290 289/289/289
f 294/294/294 293/293/293 292/292/292
f 297/297/297 296/296/296 295/295/295
f 300/300/300 299/299/299 298/298/298
f 303/303/303 302/302/302 301/301/301
f 306/306/306 305/305/305 304/304/304
f 309/309/309 308/308/308 307/307/307
f 312/312/312 311/311/311 310/310/310
f 315/315/315 314/314/314 313/313/313
f 318/318/318 317/317/317 316/316/316
f 321/321/321 320/320/320 319/319/319
f 324/324/324 323/323/323 322/322/322
f 327/327/327 326/326/326 325/325/325
f 330/330/330 329/329/329 328/328/328
f 333/333/333 332/332/332 331/331/331
f 336/336/336 335/335/335 334/334/334
f 339/339/339 338/338/338 337/337/337
f 342/342/342 341/341/341 340/340/340
f 345/345/345 344/344/344 343/343/343
f 348/348/348 347/347/347 346/346/346
f 351/351/351 350/350/350 349/349/349
f 354/354/354 353/353/353 352/352/352
f 357/357/357 356/356/356 355/355/355
f 360/360/360 359/359/359 358/358/358
f 363/363/363 362/362/362 361/361/361
f 366/366/366 365/365/365 364/364/364
f 369/369/369 368/368/368 367/367/367
f 372/372/372 371/371/371 370/370/370
f 375/375/375 374/374/374 373/373/373
f 378/378/378 377/377/377 376/376/376
f 381/381/381 380/380/380 379/379/379
f 384/384/384 383/383/383 382/382/382
f 387/387/387 386/386/386 385/385/385
f 390/390/390 389/389/389 388/388/388
f 393/393/393 392/392/392 391/391/391
f 396/396/396 395/395/395 394/394/394
f 399/399/399 398/398/398 397/397/397
f 402/402/402 401/401/401 400/400/400
f 405/405/405 404/404/404 403/403/403
f 408/408/408 407/407/407 406/406/406
f 411/411/411 410/410/410 409/409/409
f 414/414/414 413/413/413 412/412/412
f 417/417/417 416/416/416 415/415/415
f 420/420/420 419/419/419 418/418/418
f 423/423/423 422/422/422 421/421/421
f 426/426/426 425/425/425 424/424/424
f 429/429/429 428/428/428 427/427/427
f 432/432/432 431/431/431 430/430/430
f 435/435/435 434/434/434 433/433/433
f 438/438/438 437/437/437 436/436/436
f 441/441/441 440/440/440 439/439/439
f 444/444/444 443/443/443 442/442/442
f 447/447/447 446/446/446 445/445/445
f 450/450/450 449/449/449 448/448/448
f 453/453/453 452/452/452 451/451/451
f 456/456/456 455/455/455 454/454/454
f 459/459/459 458/458/458 457/457/457
f 462/462/462 461/461/461 460/460/460
f 465/465/465 464/464/464 463/463/463
f 468/468/468 467/467/467 466/466/466
f 471/471/471 470/470/470 469/469/469
f 474/474/474 473/473/473 472/472/472
f 477/477/477 476/476/476 475/475/475
f 480/480/480 479/479/479 478/478/478
f 483/483/483 482/482/482 481/481/481
f 486/486/486 485/485/485 484/484/484
f 489/489/489 488/488/488 487/487/487
f 492/492/492 491/491/491 490/490/490
f 495/495/495 494/494/494 493/493/493
f 498/498/498 497/497/497 496/496/496
f 501/501/501 500/500/500 499/499/499
f 504/504/504 503/503/503 502/502/502
f 507/507/507 506/506/506 505/505/505
f 510/510/510 509/509/509 508/508/508
f 513/513/513 512/512/512 511/511/511
f 516/516/516 515/515/515 514/514/514
f 519/519/519 518/518/518 517/517/517
f 522/522/522 521/521/521 520/520/520
f 525/525/525 524/524/524 523/523/523
f 528/528/528 527/527/527 526/526/526
f 531/531/531 530/530/530 529/529/529
f 534/534/534 533/533/533 532/532/532
f 537/537/537 536/536/536 535/535/535
f 540/540/540 539/539/539 538/538/538
f 543/543/543 542/542/542 541/541/541
f 546/546/546 545/545/545 544/544/544
f 549/549/549 548/548/548 547/547/547
f 552/552/552 551/551/551 550/550/550
f 555/555/555 554/554/554 553/553/553
f 558/558/558 557/557/557 556/556/556
f 561/561/561 560/560/560 559/559/559
f 564/564/564 563/563/563 562/562/562
f 567/567/567 566/566/566 565/565/565
f 570/570/570 569/569/569 568/568/568
f 573/573/573 572/572/572 571/571/571
f 576/576/576 575/575/575 574/574/574
f 579/579/579 578/578/578 577/577/577
f 582/582/582 581/581/581 580/580/580
f 585/585/585 584/584/584 583/583/583
f 588/588/588 587/587/587 586/586/586
f 591/591/591 590/590/590 589/589/589
f 594/594/594 593/593/593 592/592/592
f 597/597/597 596/596/596 595/595/595
f 600/600/600 599/599/599 598/598/598
f 603/603/603 602/602/602 601/601/601
f 606/606/606 605/605/605 604/604/604
f 609/609/609 608/608/608 607/607/607
f 612/612/612 611/611/611 610/610/610
f 615/615/615 614/614/614 613/613/613
f 618/618/618 617/617/617 616/616/616
f 621/621/621 620/620/620 619/619/619
f 624/624/624 623/623/623 622/622/622
f 627/627/627 626/626/626 625/625/625
f 630/630/630 629/629/629 628/628/628
f 633/633/633 632/632/632 631/631/631
f 636/636/636 635/635/635 634/634/634
f 639/639/639 638/638/638 637/637/637
f 642/642/642 641/641/641 640/640/640
f 645/645/645 644/644/644 643/643/643
f 648/648/648 647/647/647 646/646/646
f 651/651/651 650/650/650 649/649/649
f 654/654/654 653/653/653 652/652/652
f 657/657/657 656/656/656 655/655/655
f 660/660/660 659/659/659 658/658/658
f 663/663/663 662/662/662 661/661/661
f 666/666/666 665/665/665 664/664/664
f 669/669/669 668/668/668 667/667/667
f 672/672/672 671/671/671 670/670/670
f 675/675/675 674/674/674 673/673/673
f 678/678/678 677/677/677 676/676/676
f 681/681/681 680/680/680 679/679/679
f 684/684/684 683/683/683 682/682/682
f 687/687/687 686/686/686 685/685/685
f 690/690/690 689/689/689 688/688/688
f 693/693/693 692/692/692 691/691/691
f 696/696/696 695/695/695 694/694/694
f 699/699/699 698/698/698 697/697/697
f 702/702/702 701/701/701 700/700/700
f 705/705/705 704/704/704 703/703/703
f 708/708/708 707/707/707 706/706/706
f 711/711/711 710/710/710 709/709/709
f 714/714/714 713/713/713 712/712/712
f 717/717/717 716/716/716 715/715/715
f 720/720/720 719/719/719 718/718/718
