# Static pose baked from local Project Zomboid assets
o Bob_Hair_MohawkShort
v -0.118860723 0.134434308 -0.442377611
v -0.131735926 0.151450302 -0.438138551
v -0.125977611 0.142607642 -0.430442794
v -0.131735926 0.151450302 -0.438138551
v -0.118860723 0.134434308 -0.442377611
v -0.123452688 0.141881712 -0.450806792
v -0.125977611 0.142607642 -0.430442794
v -0.118832584 0.161984139 -0.437658020
v -0.111666547 0.154290693 -0.429909838
v -0.118832584 0.161984139 -0.437658020
v -0.125977611 0.142607642 -0.430442794
v -0.131735926 0.151450302 -0.438138551
v -0.111666547 0.154290693 -0.429909838
v -0.110549345 0.152415549 -0.450326260
v -0.104549659 0.146117359 -0.441844655
v -0.110549345 0.152415549 -0.450326260
v -0.111666547 0.154290693 -0.429909838
v -0.118832584 0.161984139 -0.437658020
v -0.104549659 0.146117359 -0.441844655
v -0.093648844 0.132317573 -0.463570195
v -0.091023279 0.130191658 -0.455947302
v -0.093648844 0.132317573 -0.463570195
v -0.104549659 0.146117359 -0.441844655
v -0.110549345 0.152415549 -0.450326260
v -0.091023279 0.130191658 -0.455947302
v -0.068085215 0.101732361 -0.472297639
v -0.068264789 0.102661985 -0.463579401
v -0.068085215 0.101732361 -0.472297639
v -0.091023279 0.130191658 -0.455947302
v -0.093648844 0.132317573 -0.463570195
v -0.068264789 0.102661985 -0.463579401
v -0.044262285 0.071859128 -0.457138679
v -0.048095230 0.077286282 -0.448910611
v -0.044262285 0.071859128 -0.457138679
v -0.068264789 0.102661985 -0.463579401
v -0.068085215 0.101732361 -0.472297639
v -0.048095230 0.077286282 -0.448910611
v -0.030985079 0.052978329 -0.406845460
v -0.035874068 0.060300375 -0.404724251
v -0.030985079 0.052978329 -0.406845460
v -0.048095230 0.077286282 -0.448910611
v -0.044262285 0.071859128 -0.457138679
v -0.035874068 0.060300375 -0.404724251
v -0.035998779 0.057644923 -0.367474238
v -0.041471040 0.065254158 -0.363026098
v -0.035998779 0.057644923 -0.367474238
v -0.035874068 0.060300375 -0.404724251
v -0.030985079 0.052978329 -0.406845460
v -0.041471040 0.065254158 -0.363026098
v -0.049224240 0.046848120 -0.367966766
v -0.055782103 0.053571107 -0.363559054
v -0.049224240 0.046848120 -0.367966766
v -0.041471040 0.065254158 -0.363026098
v -0.035998779 0.057644923 -0.367474238
v -0.055782103 0.053571107 -0.363559054
v -0.043896165 0.042438171 -0.407326279
v -0.050185132 0.048617324 -0.405257207
v -0.043896165 0.042438171 -0.407326279
v -0.055782103 0.053571107 -0.363559054
v -0.049224240 0.046848120 -0.367966766
v -0.050185132 0.048617324 -0.405257207
v -0.057489294 0.061061061 -0.457631265
v -0.062406294 0.065603230 -0.449443567
v -0.057489294 0.061061061 -0.457631265
v -0.050185132 0.048617324 -0.405257207
v -0.043896165 0.042438171 -0.407326279
v -0.062406294 0.065603230 -0.449443567
v -0.081312225 0.090934293 -0.472790224
v -0.082575853 0.090978934 -0.464112357
v -0.081312225 0.090934293 -0.472790224
v -0.062406294 0.065603230 -0.449443567
v -0.057489294 0.061061061 -0.457631265
v -0.082575853 0.090978934 -0.464112357
v -0.106552186 0.121783736 -0.464050726
v -0.105334343 0.118508607 -0.456480258
v -0.106552186 0.121783736 -0.464050726
v -0.082575853 0.090978934 -0.464112357
v -0.081312225 0.090934293 -0.472790224
v -0.105334343 0.118508607 -0.456480258
v -0.123452688 0.141881712 -0.450806792
v -0.118860723 0.134434308 -0.442377611
v -0.123452688 0.141881712 -0.450806792
v -0.105334343 0.118508607 -0.456480258
v -0.106552186 0.121783736 -0.464050726
v -0.118832584 0.161984139 -0.437658020
v -0.123452688 0.141881712 -0.450806792
v -0.110549345 0.152415549 -0.450326260
v -0.123452688 0.141881712 -0.450806792
v -0.118832584 0.161984139 -0.437658020
v -0.131735926 0.151450302 -0.438138551
v -0.110549345 0.152415549 -0.450326260
v -0.106552186 0.121783736 -0.464050726
v -0.093648844 0.132317573 -0.463570195
v -0.106552186 0.121783736 -0.464050726
v -0.110549345 0.152415549 -0.450326260
v -0.123452688 0.141881712 -0.450806792
v -0.093648844 0.132317573 -0.463570195
v -0.081312225 0.090934293 -0.472790224
v -0.068085215 0.101732361 -0.472297639
v -0.081312225 0.090934293 -0.472790224
v -0.093648844 0.132317573 -0.463570195
v -0.106552186 0.121783736 -0.464050726
v -0.068085215 0.101732361 -0.472297639
v -0.057489294 0.061061061 -0.457631265
v -0.044262285 0.071859128 -0.457138679
v -0.057489294 0.061061061 -0.457631265
v -0.068085215 0.101732361 -0.472297639
v -0.081312225 0.090934293 -0.472790224
v -0.044262285 0.071859128 -0.457138679
v -0.043896165 0.042438171 -0.407326279
v -0.030985079 0.052978329 -0.406845460
v -0.043896165 0.042438171 -0.407326279
v -0.044262285 0.071859128 -0.457138679
v -0.057489294 0.061061061 -0.457631265
v -0.030985079 0.052978329 -0.406845460
v -0.049224240 0.046848120 -0.367966766
v -0.035998779 0.057644923 -0.367474238
v -0.049224240 0.046848120 -0.367966766
v -0.030985079 0.052978329 -0.406845460
v -0.043896165 0.042438171 -0.407326279
vt 0.640625000 0.328125000
vt 0.734375000 0.218750000
vt 0.734375000 0.328125000
vt 0.734375000 0.218750000
vt 0.640625000 0.328125000
vt 0.640625000 0.218750000
vt 0.781250000 0.218750000
vt 0.734375000 0.132812977
vt 0.781250000 0.132812977
vt 0.734375000 0.132812977
vt 0.781250000 0.218750000
vt 0.734375000 0.218750000
vt 0.734375000 0.023437977
vt 0.640625000 0.132812977
vt 0.640625000 0.023437977
vt 0.640625000 0.132812977
vt 0.734375000 0.023437977
vt 0.734375000 0.132812977
vt 0.640625000 0.023437977
vt 0.570312977 0.132812977
vt 0.570312977 0.023437977
vt 0.570312977 0.132812977
vt 0.640625000 0.023437977
vt 0.640625000 0.132812977
vt 0.570312977 0.023437977
vt 0.453125000 0.132812977
vt 0.453125000 0.023437977
vt 0.453125000 0.132812977
vt 0.570312977 0.023437977
vt 0.570312977 0.132812977
vt 0.453125000 0.023437977
vt 0.296875000 0.132812977
vt 0.296875000 0.023437977
vt 0.296875000 0.132812977
vt 0.453125000 0.023437977
vt 0.453125000 0.132812977
vt 0.296875000 0.023437977
vt 0.140625000 0.132812977
vt 0.140625000 0.023437977
vt 0.140625000 0.132812977
vt 0.296875000 0.023437977
vt 0.296875000 0.132812977
vt 0.140625000 0.023437977
vt 0.046875000 0.132812977
vt 0.046875000 0.023437977
vt 0.046875000 0.132812977
vt 0.140625000 0.023437977
vt 0.140625000 0.132812977
vt 0.000000000 0.132812977
vt 0.046875000 0.218750000
vt 0.000000000 0.218750000
vt 0.046875000 0.218750000
vt 0.000000000 0.132812977
vt 0.046875000 0.132812977
vt 0.046875000 0.328125000
vt 0.140625000 0.218750000
vt 0.140625000 0.328125000
vt 0.140625000 0.218750000
vt 0.046875000 0.328125000
vt 0.046875000 0.218750000
vt 0.140625000 0.328125000
vt 0.296875000 0.218750000
vt 0.296875000 0.328125000
vt 0.296875000 0.218750000
vt 0.140625000 0.328125000
vt 0.140625000 0.218750000
vt 0.296875000 0.328125000
vt 0.453125000 0.218750000
vt 0.453125000 0.328125000
vt 0.453125000 0.218750000
vt 0.296875000 0.328125000
vt 0.296875000 0.218750000
vt 0.453125000 0.328125000
vt 0.570312977 0.218750000
vt 0.570312977 0.328125000
vt 0.570312977 0.218750000
vt 0.453125000 0.328125000
vt 0.453125000 0.218750000
vt 0.570312977 0.328125000
vt 0.640625000 0.218750000
vt 0.640625000 0.328125000
vt 0.640625000 0.218750000
vt 0.570312977 0.328125000
vt 0.570312977 0.218750000
vt 0.734375000 0.132812977
vt 0.640625000 0.218750000
vt 0.640625000 0.132812977
vt 0.640625000 0.218750000
vt 0.734375000 0.132812977
vt 0.734375000 0.218750000
vt 0.640625000 0.132812977
vt 0.570312977 0.218750000
vt 0.570312977 0.132812977
vt 0.570312977 0.218750000
vt 0.640625000 0.132812977
vt 0.640625000 0.218750000
vt 0.570312977 0.132812977
vt 0.453125000 0.218750000
vt 0.453125000 0.132812977
vt 0.453125000 0.218750000
vt 0.570312977 0.132812977
vt 0.570312977 0.218750000
vt 0.453125000 0.132812977
vt 0.296875000 0.218750000
vt 0.296875000 0.132812977
vt 0.296875000 0.218750000
vt 0.453125000 0.132812977
vt 0.453125000 0.218750000
vt 0.296875000 0.132812977
vt 0.140625000 0.218750000
vt 0.140625000 0.132812977
vt 0.140625000 0.218750000
vt 0.296875000 0.132812977
vt 0.296875000 0.218750000
vt 0.140625000 0.132812977
vt 0.046875000 0.218750000
vt 0.046875000 0.132812977
vt 0.046875000 0.218750000
vt 0.140625000 0.132812977
vt 0.140625000 0.218750000
vn -0.801603231 -0.591894205 -0.084222978
vn -0.992058724 0.022221081 -0.123797060
vn -0.693719414 0.159514344 0.702359273
vn -0.992058724 0.022221081 -0.123797060
vn -0.801603231 -0.591894205 -0.084222978
vn -0.728753983 0.046074985 -0.683223776
vn -0.693719414 0.159514344 0.702359273
vn -0.357105481 0.930846732 -0.077459910
vn 0.453569406 0.806899813 0.378401223
vn -0.357105481 0.930846732 -0.077459910
vn -0.693719414 0.159514344 0.702359273
vn -0.992058724 0.022221081 -0.123797060
vn 0.453569406 0.806899813 0.378401223
vn 0.118758507 0.677655939 -0.725726426
vn 0.742533977 0.668463397 -0.042426175
vn 0.118758507 0.677655939 -0.725726426
vn 0.453569406 0.806899813 0.378401223
vn -0.357105481 0.930846732 -0.077459910
vn 0.742533977 0.668463397 -0.042426175
vn 0.174163514 0.475777176 -0.862150305
vn 0.751868820 0.656071957 -0.065290617
vn 0.174163514 0.475777176 -0.862150305
vn 0.742533977 0.668463397 -0.042426175
vn 0.118758507 0.677655939 -0.725726426
vn 0.751868820 0.656071957 -0.065290617
vn 0.446357850 0.161758952 -0.880112897
vn 0.783465295 0.619840829 -0.044491316
vn 0.446357850 0.161758952 -0.880112897
vn 0.751868820 0.656071957 -0.065290617
vn 0.174163514 0.475777176 -0.862150305
vn 0.783465295 0.619840829 -0.044491316
vn 0.809138354 -0.270455043 -0.521679206
vn 0.814590424 0.579870688 -0.013871775
vn 0.809138354 -0.270455043 -0.521679206
vn 0.783465295 0.619840829 -0.044491316
vn 0.446357850 0.161758952 -0.880112897
vn 0.814590424 0.579870688 -0.013871775
vn 0.930309981 -0.362469797 -0.056026649
vn 0.829838305 0.557631071 0.020395507
vn 0.930309981 -0.362469797 -0.056026649
vn 0.814590424 0.579870688 -0.013871775
vn 0.809138354 -0.270455043 -0.521679206
vn 0.829838305 0.557631071 0.020395507
vn 0.943803745 -0.180978575 0.276552428
vn 0.736303426 0.142889294 0.661392406
vn 0.943803745 -0.180978575 0.276552428
vn 0.829838305 0.557631071 0.020395507
vn 0.930309981 -0.362469797 -0.056026649
vn 0.736303426 0.142889294 0.661392406
vn 0.413542169 -0.846210010 0.336023055
vn -0.611560923 -0.758978294 0.223484198
vn 0.413542169 -0.846210010 0.336023055
vn 0.736303426 0.142889294 0.661392406
vn 0.943803745 -0.180978575 0.276552428
vn -0.611560923 -0.758978294 0.223484198
vn 0.235349222 -0.938863479 -0.251288901
vn -0.715384808 -0.696988111 -0.049316831
vn 0.235349222 -0.938863479 -0.251288901
vn -0.611560923 -0.758978294 0.223484198
vn 0.413542169 -0.846210010 0.336023055
vn -0.715384808 -0.696988111 -0.049316831
vn -0.035031947 -0.737822649 -0.674084937
vn -0.743329751 -0.663728978 -0.083214931
vn -0.035031947 -0.737822649 -0.674084937
vn -0.715384808 -0.696988111 -0.049316831
vn 0.235349222 -0.938863479 -0.251288901
vn -0.743329751 -0.663728978 -0.083214931
vn -0.335327408 -0.261070434 -0.905205920
vn -0.772361505 -0.624169246 -0.117772908
vn -0.335327408 -0.261070434 -0.905205920
vn -0.743329751 -0.663728978 -0.083214931
vn -0.035031947 -0.737822649 -0.674084937
vn -0.772361505 -0.624169246 -0.117772908
vn -0.530907586 -0.026064937 -0.847028780
vn -0.792537525 -0.598297037 -0.118003928
vn -0.530907586 -0.026064937 -0.847028780
vn -0.772361505 -0.624169246 -0.117772908
vn -0.335327408 -0.261070434 -0.905205920
vn -0.792537525 -0.598297037 -0.118003928
vn -0.728753983 0.046074985 -0.683223776
vn -0.801603231 -0.591894205 -0.084222978
vn -0.728753983 0.046074985 -0.683223776
vn -0.792537525 -0.598297037 -0.118003928
vn -0.530907586 -0.026064937 -0.847028780
vn -0.357105481 0.930846732 -0.077459910
vn -0.728753983 0.046074985 -0.683223776
vn 0.118758507 0.677655939 -0.725726426
vn -0.728753983 0.046074985 -0.683223776
vn -0.357105481 0.930846732 -0.077459910
vn -0.992058724 0.022221081 -0.123797060
vn 0.118758507 0.677655939 -0.725726426
vn -0.530907586 -0.026064937 -0.847028780
vn 0.174163514 0.475777176 -0.862150305
vn -0.530907586 -0.026064937 -0.847028780
vn 0.118758507 0.677655939 -0.725726426
vn -0.728753983 0.046074985 -0.683223776
vn 0.174163514 0.475777176 -0.862150305
vn -0.335327408 -0.261070434 -0.905205920
vn 0.446357850 0.161758952 -0.880112897
vn -0.335327408 -0.261070434 -0.905205920
vn 0.174163514 0.475777176 -0.862150305
vn -0.530907586 -0.026064937 -0.847028780
vn 0.446357850 0.161758952 -0.880112897
vn -0.035031947 -0.737822649 -0.674084937
vn 0.809138354 -0.270455043 -0.521679206
vn -0.035031947 -0.737822649 -0.674084937
vn 0.446357850 0.161758952 -0.880112897
vn -0.335327408 -0.261070434 -0.905205920
vn 0.809138354 -0.270455043 -0.521679206
vn 0.235349222 -0.938863479 -0.251288901
vn 0.930309981 -0.362469797 -0.056026649
vn 0.235349222 -0.938863479 -0.251288901
vn 0.809138354 -0.270455043 -0.521679206
vn -0.035031947 -0.737822649 -0.674084937
vn 0.930309981 -0.362469797 -0.056026649
vn 0.413542169 -0.846210010 0.336023055
vn 0.943803745 -0.180978575 0.276552428
vn 0.413542169 -0.846210010 0.336023055
vn 0.930309981 -0.362469797 -0.056026649
vn 0.235349222 -0.938863479 -0.251288901
f 3/3/3 2/2/2 1/1/1
f 6/6/6 5/5/5 4/4/4
f 9/9/9 8/8/8 7/7/7
f 12/12/12 11/11/11 10/10/10
f 15/15/15 14/14/14 13/13/13
f 18/18/18 17/17/17 16/16/16
f 21/21/21 20/20/20 19/19/19
f 24/24/24 23/23/23 22/22/22
f 27/27/27 26/26/26 25/25/25
f 30/30/30 29/29/29 28/28/28
f 33/33/33 32/32/32 31/31/31
f 36/36/36 35/35/35 34/34/34
f 39/39/39 38/38/38 37/37/37
f 42/42/42 41/41/41 40/40/40
f 45/45/45 44/44/44 43/43/43
f 48/48/48 47/47/47 46/46/46
f 51/51/51 50/50/50 49/49/49
f 54/54/54 53/53/53 52/52/52
f 57/57/57 56/56/56 55/55/55
f 60/60/60 59/59/59 58/58/58
f 63/63/63 62/62/62 61/61/61
f 66/66/66 65/65/65 64/64/64
f 69/69/69 68/68/68 67/67/67
f 72/72/72 71/71/71 70/70/70
f 75/75/75 74/74/74 73/73/73
f 78/78/78 77/77/77 76/76/76
f 81/81/81 80/80/80 79/79/79
f 84/84/84 83/83/83 82/82/82
f 87/87/87 86/86/86 85/85/85
f 90/90/90 89/89/89 88/88/88
f 93/93/93 92/92/92 91/91/91
f 96/96/96 95/95/95 94/94/94
f 99/99/99 98/98/98 97/97/97
f 102/102/102 101/101/101 100/100/100
f 105/105/105 104/104/104 103/103/103
f 108/108/108 107/107/107 106/106/106
f 111/111/111 110/110/110 109/109/109
f 114/114/114 113/113/113 112/112/112
f 117/117/117 116/116/116 115/115/115
f 120/120/120 119/119/119 118/118/118
