# Static pose baked from local Project Zomboid assets
o Bob_Hair_Short
v -0.023207051 0.113091321 -0.353580745
v -0.030383764 0.082746467 -0.340054776
v -0.041209229 0.104526238 -0.330665876
v -0.030383764 0.082746467 -0.340054776
v -0.023207051 0.113091321 -0.353580745
v -0.024801509 0.085838692 -0.360070031
v -0.075886920 0.145432039 -0.462687906
v -0.124169442 0.155853049 -0.448889821
v -0.099839998 0.126944993 -0.468489685
v -0.043362902 0.145602630 -0.390070974
v -0.068033420 0.161228404 -0.419740208
v -0.050330782 0.155033820 -0.434540681
v -0.068033420 0.161228404 -0.419740208
v -0.043362902 0.145602630 -0.390070974
v -0.059282577 0.158214803 -0.385859618
v -0.031054152 0.135584449 -0.395382232
v -0.032519018 0.126807427 -0.443844688
v -0.019947093 0.123545125 -0.395036641
v -0.031054152 0.135584449 -0.395382232
v -0.050330782 0.155033820 -0.434540681
v -0.032519018 0.126807427 -0.443844688
v -0.043362902 0.145602630 -0.390070974
v -0.050330782 0.155033820 -0.434540681
v -0.031054152 0.135584449 -0.395382232
v -0.024801509 0.085838692 -0.360070031
v -0.019947093 0.123545125 -0.395036641
v -0.016806488 0.089099178 -0.402751930
v -0.019947093 0.123545125 -0.395036641
v -0.024801509 0.085838692 -0.360070031
v -0.023207051 0.113091321 -0.353580745
v -0.039084312 0.049778384 -0.408328996
v -0.026082418 0.096488033 -0.454080810
v -0.047962490 0.062926277 -0.458147972
v -0.026082418 0.096488033 -0.454080810
v -0.039084312 0.049778384 -0.408328996
v -0.016806488 0.089099178 -0.402751930
v -0.102497846 0.179565156 -0.432938328
v -0.068033420 0.161228404 -0.419740208
v -0.091412057 0.169478102 -0.413437176
v -0.060407995 0.154404123 -0.449692212
v -0.032519018 0.126807427 -0.443844688
v -0.050330782 0.155033820 -0.434540681
v -0.032519018 0.126807427 -0.443844688
v -0.060407995 0.154404123 -0.449692212
v -0.046290385 0.129696234 -0.456869811
v -0.026082418 0.096488033 -0.454080810
v -0.057571153 0.075330282 -0.472044870
v -0.047962490 0.062926277 -0.458147972
v -0.102497846 0.179565156 -0.432938328
v -0.050330782 0.155033820 -0.434540681
v -0.068033420 0.161228404 -0.419740208
v -0.050330782 0.155033820 -0.434540681
v -0.102497846 0.179565156 -0.432938328
v -0.060407995 0.154404123 -0.449692212
v -0.045445365 0.054337148 -0.337454268
v -0.024801509 0.085838692 -0.360070031
v -0.041090512 0.050298585 -0.365861505
v -0.024801509 0.085838692 -0.360070031
v -0.045445365 0.054337148 -0.337454268
v -0.030383764 0.082746467 -0.340054776
v -0.041090512 0.050298585 -0.365861505
v -0.016806488 0.089099178 -0.402751930
v -0.039084312 0.049778384 -0.408328996
v -0.016806488 0.089099178 -0.402751930
v -0.041090512 0.050298585 -0.365861505
v -0.024801509 0.085838692 -0.360070031
v -0.026082418 0.096488033 -0.454080810
v -0.019947093 0.123545125 -0.395036641
v -0.032519018 0.126807427 -0.443844688
v -0.019947093 0.123545125 -0.395036641
v -0.026082418 0.096488033 -0.454080810
v -0.016806488 0.089099178 -0.402751930
v -0.046290385 0.129696234 -0.456869811
v -0.026082418 0.096488033 -0.454080810
v -0.032519018 0.126807427 -0.443844688
v -0.056255771 0.154246565 -0.363709938
v -0.043362902 0.145602630 -0.390070974
v -0.043720126 0.145864888 -0.368680569
v -0.043362902 0.145602630 -0.390070974
v -0.056255771 0.154246565 -0.363709938
v -0.059282577 0.158214803 -0.385859618
v -0.041209229 0.104526238 -0.330665876
v -0.039515459 0.118056400 -0.348850057
v -0.023207051 0.113091321 -0.353580745
v -0.039515459 0.118056400 -0.348850057
v -0.041209229 0.104526238 -0.330665876
v -0.056345476 0.109795834 -0.314842547
v -0.023207051 0.113091321 -0.353580745
v -0.031054152 0.135584449 -0.395382232
v -0.019947093 0.123545125 -0.395036641
v -0.031054152 0.135584449 -0.395382232
v -0.023207051 0.113091321 -0.353580745
v -0.039515459 0.118056400 -0.348850057
v -0.075886920 0.145432039 -0.462687906
v -0.046290385 0.129696234 -0.456869811
v -0.060407995 0.154404123 -0.449692212
v -0.046290385 0.129696234 -0.456869811
v -0.075886920 0.145432039 -0.462687906
v -0.054689757 0.115905511 -0.469479200
v -0.134695418 0.167816067 -0.428487860
v -0.124169442 0.155853049 -0.448889821
v -0.102497846 0.179565156 -0.432938328
v -0.091412057 0.169478102 -0.413437176
v -0.134695418 0.167816067 -0.428487860
v -0.102497846 0.179565156 -0.432938328
v -0.134695418 0.167816067 -0.428487860
v -0.091412057 0.169478102 -0.413437176
v -0.126313245 0.156538998 -0.406360791
v -0.057571153 0.075330282 -0.472044870
v -0.054689757 0.115905511 -0.469479200
v -0.073418642 0.094837621 -0.474129171
v -0.054689757 0.115905511 -0.469479200
v -0.099839998 0.126944993 -0.468489685
v -0.073418642 0.094837621 -0.474129171
v -0.099839998 0.126944993 -0.468489685
v -0.054689757 0.115905511 -0.469479200
v -0.075886920 0.145432039 -0.462687906
v -0.060407995 0.154404123 -0.449692212
v -0.124169442 0.155853049 -0.448889821
v -0.075886920 0.145432039 -0.462687906
v -0.124169442 0.155853049 -0.448889821
v -0.060407995 0.154404123 -0.449692212
v -0.102497846 0.179565156 -0.432938328
v -0.054689757 0.115905511 -0.469479200
v -0.026082418 0.096488033 -0.454080810
v -0.046290385 0.129696234 -0.456869811
v -0.057571153 0.075330282 -0.472044870
v -0.026082418 0.096488033 -0.454080810
v -0.054689757 0.115905511 -0.469479200
v -0.030383764 0.082746467 -0.340054776
v -0.044642185 0.106553054 -0.340583538
v -0.041209229 0.104526238 -0.330665876
v -0.044642185 0.106553054 -0.340583538
v -0.030383764 0.082746467 -0.340054776
v -0.035421831 0.088003162 -0.348579562
v -0.059282577 0.158214803 -0.385859618
v -0.073039345 0.161539193 -0.414130966
v -0.068033420 0.161228404 -0.419740208
v -0.073039345 0.161539193 -0.414130966
v -0.059282577 0.158214803 -0.385859618
v -0.063193136 0.156087042 -0.386273386
v -0.031054152 0.135584449 -0.395382232
v -0.046476158 0.141536353 -0.391177476
v -0.043362902 0.145602630 -0.390070974
v -0.046476158 0.141536353 -0.391177476
v -0.031054152 0.135584449 -0.395382232
v -0.035992481 0.133004374 -0.395700815
v -0.068033420 0.161228404 -0.419740208
v -0.087398893 0.161871255 -0.411077808
v -0.091412057 0.169478102 -0.413437176
v -0.087398893 0.161871255 -0.411077808
v -0.068033420 0.161228404 -0.419740208
v -0.073039345 0.161539193 -0.414130966
v -0.045445365 0.054337148 -0.337454268
v -0.035421831 0.088003162 -0.348579562
v -0.030383764 0.082746467 -0.340054776
v -0.035421831 0.088003162 -0.348579562
v -0.045445365 0.054337148 -0.337454268
v -0.052091419 0.063228372 -0.353899387
v -0.056255771 0.154246565 -0.363709938
v -0.063193136 0.156087042 -0.386273386
v -0.059282577 0.158214803 -0.385859618
v -0.063193136 0.156087042 -0.386273386
v -0.056255771 0.154246565 -0.363709938
v -0.059520651 0.151052905 -0.360523381
v -0.043720126 0.145864888 -0.368680569
v -0.059520651 0.151052905 -0.360523381
v -0.056255771 0.154246565 -0.363709938
v -0.059520651 0.151052905 -0.360523381
v -0.043720126 0.145864888 -0.368680569
v -0.045768992 0.140205228 -0.366040364
v -0.043362902 0.145602630 -0.390070974
v -0.045768992 0.140205228 -0.366040364
v -0.043720126 0.145864888 -0.368680569
v -0.045768992 0.140205228 -0.366040364
v -0.043362902 0.145602630 -0.390070974
v -0.046476158 0.141536353 -0.391177476
v -0.041209229 0.104526238 -0.330665876
v -0.057533806 0.111040526 -0.327106720
v -0.056345476 0.109795834 -0.314842547
v -0.057533806 0.111040526 -0.327106720
v -0.041209229 0.104526238 -0.330665876
v -0.044642185 0.106553054 -0.340583538
v -0.056345476 0.109795834 -0.314842547
v -0.043199572 0.118075264 -0.356071005
v -0.039515459 0.118056400 -0.348850057
v -0.043199572 0.118075264 -0.356071005
v -0.056345476 0.109795834 -0.314842547
v -0.057533806 0.111040526 -0.327106720
v -0.039515459 0.118056400 -0.348850057
v -0.035992481 0.133004374 -0.395700815
v -0.031054152 0.135584449 -0.395382232
v -0.035992481 0.133004374 -0.395700815
v -0.039515459 0.118056400 -0.348850057
v -0.043199572 0.118075264 -0.356071005
v -0.091412057 0.169478102 -0.413437176
v -0.119878530 0.148601803 -0.405154222
v -0.126313245 0.156538998 -0.406360791
v -0.119878530 0.148601803 -0.405154222
v -0.091412057 0.169478102 -0.413437176
v -0.087398893 0.161871255 -0.411077808
v -0.106671481 0.044953884 -0.356689032
v -0.076140143 0.045392561 -0.341758783
v -0.079385186 0.041278490 -0.362102774
v -0.076140143 0.045392561 -0.341758783
v -0.106671481 0.044953884 -0.356689032
v -0.095724766 0.060021663 -0.332696081
v -0.122967395 0.106997188 -0.464441223
v -0.099839998 0.126944993 -0.468489685
v -0.124169442 0.155853049 -0.448889821
v -0.132854674 0.072544682 -0.393403724
v -0.141913262 0.100915488 -0.422491556
v -0.142218915 0.090508481 -0.388948238
v -0.141913262 0.100915488 -0.422491556
v -0.132854674 0.072544682 -0.393403724
v -0.138713721 0.082881084 -0.437832137
v -0.114213341 0.060115043 -0.446887054
v -0.125261561 0.058676820 -0.398890596
v -0.115703147 0.045373235 -0.398602678
v -0.138713721 0.082881084 -0.437832137
v -0.125261561 0.058676820 -0.398890596
v -0.114213341 0.060115043 -0.446887054
v -0.132854674 0.072544682 -0.393403724
v -0.125261561 0.058676820 -0.398890596
v -0.138713721 0.082881084 -0.437832137
v -0.079385186 0.041278490 -0.362102774
v -0.115703147 0.045373235 -0.398602678
v -0.106671481 0.044953884 -0.356689032
v -0.115703147 0.045373235 -0.398602678
v -0.079385186 0.041278490 -0.362102774
v -0.082263226 0.035662590 -0.405189595
v -0.039084312 0.049778384 -0.408328996
v -0.085356952 0.048098379 -0.456288244
v -0.082263226 0.035662590 -0.405189595
v -0.085356952 0.048098379 -0.456288244
v -0.039084312 0.049778384 -0.408328996
v -0.047962490 0.062926277 -0.458147972
v -0.152410800 0.138817969 -0.434797129
v -0.145614767 0.125228908 -0.415455731
v -0.141913262 0.100915488 -0.422491556
v -0.135413702 0.093172090 -0.452485489
v -0.114213341 0.060115043 -0.446887054
v -0.113717006 0.074651503 -0.459380835
v -0.114213341 0.060115043 -0.446887054
v -0.135413702 0.093172090 -0.452485489
v -0.138713721 0.082881084 -0.437832137
v -0.085356952 0.048098379 -0.456288244
v -0.047962490 0.062926277 -0.458147972
v -0.057571153 0.075330282 -0.472044870
v -0.152410800 0.138817969 -0.434797129
v -0.138713721 0.082881084 -0.437832137
v -0.135413702 0.093172090 -0.452485489
v -0.138713721 0.082881084 -0.437832137
v -0.152410800 0.138817969 -0.434797129
v -0.141913262 0.100915488 -0.422491556
v -0.045445365 0.054337148 -0.337454268
v -0.079385186 0.041278490 -0.362102774
v -0.076140143 0.045392561 -0.341758783
v -0.079385186 0.041278490 -0.362102774
v -0.045445365 0.054337148 -0.337454268
v -0.041090512 0.050298585 -0.365861505
v -0.041090512 0.050298585 -0.365861505
v -0.082263226 0.035662590 -0.405189595
v -0.079385186 0.041278490 -0.362102774
v -0.082263226 0.035662590 -0.405189595
v -0.041090512 0.050298585 -0.365861505
v -0.039084312 0.049778384 -0.408328996
v -0.085356952 0.048098379 -0.456288244
v -0.115703147 0.045373235 -0.398602678
v -0.082263226 0.035662590 -0.405189595
v -0.115703147 0.045373235 -0.398602678
v -0.085356952 0.048098379 -0.456288244
v -0.114213341 0.060115043 -0.446887054
v -0.113717006 0.074651503 -0.459380835
v -0.114213341 0.060115043 -0.446887054
v -0.085356952 0.048098379 -0.456288244
v -0.139926172 0.085940980 -0.366825895
v -0.132854674 0.072544682 -0.393403724
v -0.142218915 0.090508481 -0.388948238
v -0.132854674 0.072544682 -0.393403724
v -0.139926172 0.085940980 -0.366825895
v -0.133995513 0.072167224 -0.372042501
v -0.095724766 0.060021663 -0.332696081
v -0.108495376 0.061743613 -0.351418928
v -0.098575582 0.075320655 -0.316415232
v -0.108495376 0.061743613 -0.351418928
v -0.095724766 0.060021663 -0.332696081
v -0.106671481 0.044953884 -0.356689032
v -0.106671481 0.044953884 -0.356689032
v -0.125261561 0.058676820 -0.398890596
v -0.108495376 0.061743613 -0.351418928
v -0.125261561 0.058676820 -0.398890596
v -0.106671481 0.044953884 -0.356689032
v -0.115703147 0.045373235 -0.398602678
v -0.122967395 0.106997188 -0.464441223
v -0.113717006 0.074651503 -0.459380835
v -0.097980685 0.080564313 -0.471091391
v -0.113717006 0.074651503 -0.459380835
v -0.122967395 0.106997188 -0.464441223
v -0.135413702 0.093172090 -0.452485489
v -0.134695418 0.167816067 -0.428487860
v -0.152410800 0.138817969 -0.434797129
v -0.124169442 0.155853049 -0.448889821
v -0.145614767 0.125228908 -0.415455731
v -0.134695418 0.167816067 -0.428487860
v -0.126313245 0.156538998 -0.406360791
v -0.134695418 0.167816067 -0.428487860
v -0.145614767 0.125228908 -0.415455731
v -0.152410800 0.138817969 -0.434797129
v -0.057571153 0.075330282 -0.472044870
v -0.073418642 0.094837621 -0.474129171
v -0.097980685 0.080564313 -0.471091391
v -0.097980685 0.080564313 -0.471091391
v -0.099839998 0.126944993 -0.468489685
v -0.122967395 0.106997188 -0.464441223
v -0.099839998 0.126944993 -0.468489685
v -0.097980685 0.080564313 -0.471091391
v -0.073418642 0.094837621 -0.474129171
v -0.135413702 0.093172090 -0.452485489
v -0.124169442 0.155853049 -0.448889821
v -0.152410800 0.138817969 -0.434797129
v -0.124169442 0.155853049 -0.448889821
v -0.135413702 0.093172090 -0.452485489
v -0.122967395 0.106997188 -0.464441223
v -0.097980685 0.080564313 -0.471091391
v -0.113717006 0.074651503 -0.459380835
v -0.085356952 0.048098379 -0.456288244
v -0.057571153 0.075330282 -0.472044870
v -0.097980685 0.080564313 -0.471091391
v -0.085356952 0.048098379 -0.456288244
v -0.076140143 0.045392561 -0.341758783
v -0.096582320 0.064150947 -0.342517833
v -0.079902122 0.051691010 -0.350236046
v -0.096582320 0.064150947 -0.342517833
v -0.076140143 0.045392561 -0.341758783
v -0.095724766 0.060021663 -0.332696081
v -0.142218915 0.090508481 -0.388948238
v -0.141471041 0.105673953 -0.416679420
v -0.139338652 0.093924510 -0.389109110
v -0.141471041 0.105673953 -0.416679420
v -0.142218915 0.090508481 -0.388948238
v -0.141913262 0.100915488 -0.422491556
v -0.125261561 0.058676820 -0.398890596
v -0.128204554 0.074816153 -0.394221111
v -0.121738069 0.063004679 -0.398894054
v -0.128204554 0.074816153 -0.394221111
v -0.125261561 0.058676820 -0.398890596
v -0.132854674 0.072544682 -0.393403724
v -0.141913262 0.100915488 -0.422491556
v -0.139072660 0.119686602 -0.413002183
v -0.141471041 0.105673953 -0.416679420
v -0.139072660 0.119686602 -0.413002183
v -0.141913262 0.100915488 -0.422491556
v -0.145614767 0.125228908 -0.415455731
v -0.045445365 0.054337148 -0.337454268
v -0.079902122 0.051691010 -0.350236046
v -0.052091419 0.063228372 -0.353899387
v -0.079902122 0.051691010 -0.350236046
v -0.045445365 0.054337148 -0.337454268
v -0.076140143 0.045392561 -0.341758783
v -0.139926172 0.085940980 -0.366825895
v -0.139338652 0.093924510 -0.389109110
v -0.136291821 0.088379611 -0.363382405
v -0.139338652 0.093924510 -0.389109110
v -0.139926172 0.085940980 -0.366825895
v -0.142218915 0.090508481 -0.388948238
v -0.133995513 0.072167224 -0.372042501
v -0.136291821 0.088379611 -0.363382405
v -0.128164851 0.072940134 -0.369108857
v -0.136291821 0.088379611 -0.363382405
v -0.133995513 0.072167224 -0.372042501
v -0.139926172 0.085940980 -0.366825895
v -0.132854674 0.072544682 -0.393403724
v -0.128164851 0.072940134 -0.369108857
v -0.128204554 0.074816153 -0.394221111
v -0.128164851 0.072940134 -0.369108857
v -0.132854674 0.072544682 -0.393403724
v -0.133995513 0.072167224 -0.372042501
v -0.095724766 0.060021663 -0.332696081
v -0.099009720 0.077181042 -0.328651319
v -0.096582320 0.064150947 -0.342517833
v -0.099009720 0.077181042 -0.328651319
v -0.095724766 0.060021663 -0.332696081
v -0.098575582 0.075320655 -0.316415232
v -0.098575582 0.075320655 -0.316415232
v -0.107457656 0.065617215 -0.358464031
v -0.099009720 0.077181042 -0.328651319
v -0.107457656 0.065617215 -0.358464031
v -0.098575582 0.075320655 -0.316415232
v -0.108495376 0.061743613 -0.351418928
v -0.108495376 0.061743613 -0.351418928
v -0.121738069 0.063004679 -0.398894054
v -0.107457656 0.065617215 -0.358464031
v -0.121738069 0.063004679 -0.398894054
v -0.108495376 0.061743613 -0.351418928
v -0.125261561 0.058676820 -0.398890596
v -0.145614767 0.125228908 -0.415455731
v -0.119878530 0.148601803 -0.405154222
v -0.139072660 0.119686602 -0.413002183
v -0.119878530 0.148601803 -0.405154222
v -0.145614767 0.125228908 -0.415455731
v -0.126313245 0.156538998 -0.406360791
vt 0.231472000 0.269191027
vt 0.311340988 0.298097968
vt 0.243588999 0.307554007
vt 0.311340988 0.298097968
vt 0.231472000 0.269191027
vt 0.299506992 0.271335006
vt 0.245623007 0.091320992
vt 0.174061000 0.037231982
vt 0.289168000 0.058817029
vt 0.139311999 0.192520976
vt 0.130154997 0.130401969
vt 0.186589003 0.137696981
vt 0.130154997 0.130401969
vt 0.139311999 0.192520976
vt 0.096551999 0.173452973
vt 0.177185997 0.208970010
vt 0.255980998 0.153638005
vt 0.213566005 0.215201974
vt 0.177185997 0.208970010
vt 0.186589003 0.137696981
vt 0.255980998 0.153638005
vt 0.139311999 0.192520976
vt 0.186589003 0.137696981
vt 0.177185997 0.208970010
vt 0.299506992 0.271335006
vt 0.213566005 0.215201974
vt 0.295488000 0.218972981
vt 0.213566005 0.215201974
vt 0.299506992 0.271335006
vt 0.231472000 0.269191027
vt 0.397085011 0.219743013
vt 0.319485009 0.159254014
vt 0.397762001 0.158024013
vt 0.319485009 0.159254014
vt 0.397085011 0.219743013
vt 0.295488000 0.218972981
vt 0.124989003 0.076780021
vt 0.130154997 0.130401969
vt 0.093029000 0.101359010
vt 0.210366994 0.115438998
vt 0.255980998 0.153638005
vt 0.186589003 0.137696981
vt 0.255980998 0.153638005
vt 0.210366994 0.115438998
vt 0.266377002 0.128005981
vt 0.319485009 0.159254014
vt 0.398012012 0.133623004
vt 0.397762001 0.158024013
vt 0.124989003 0.076780021
vt 0.186589003 0.137696981
vt 0.130154997 0.130401969
vt 0.186589003 0.137696981
vt 0.124989003 0.076780021
vt 0.210366994 0.115438998
vt 0.396254987 0.299126029
vt 0.299506992 0.271335006
vt 0.396586001 0.267223001
vt 0.299506992 0.271335006
vt 0.396254987 0.299126029
vt 0.311340988 0.298097968
vt 0.396586001 0.267223001
vt 0.295488000 0.218972981
vt 0.397085011 0.219743013
vt 0.295488000 0.218972981
vt 0.396586001 0.267223001
vt 0.299506992 0.271335006
vt 0.319485009 0.159254014
vt 0.213566005 0.215201974
vt 0.255980998 0.153638005
vt 0.213566005 0.215201974
vt 0.319485009 0.159254014
vt 0.295488000 0.218972981
vt 0.266377002 0.128005981
vt 0.319485009 0.159254014
vt 0.255980998 0.153638005
vt 0.062592000 0.195635021
vt 0.139311999 0.192520976
vt 0.092519999 0.206597984
vt 0.139311999 0.192520976
vt 0.062592000 0.195635021
vt 0.096551999 0.173452973
vt 0.243588999 0.307554007
vt 0.196217000 0.278376997
vt 0.231472000 0.269191027
vt 0.196217000 0.278376997
vt 0.243588999 0.307554007
vt 0.208454996 0.325343966
vt 0.231472000 0.269191027
vt 0.177185997 0.208970010
vt 0.213566005 0.215201974
vt 0.177185997 0.208970010
vt 0.231472000 0.269191027
vt 0.196217000 0.278376997
vt 0.245623007 0.091320992
vt 0.266377002 0.128005981
vt 0.210366994 0.115438998
vt 0.266377002 0.128005981
vt 0.245623007 0.091320992
vt 0.316464990 0.114346027
vt 0.096952997 0.038388014
vt 0.174061000 0.037231982
vt 0.124989003 0.076780021
vt 0.093029000 0.101359010
vt 0.096952997 0.038388014
vt 0.124989003 0.076780021
vt 0.096952997 0.038388014
vt 0.093029000 0.101359010
vt 0.039018001 0.060724974
vt 0.398012012 0.133623004
vt 0.316464990 0.114346027
vt 0.398351997 0.099462986
vt 0.316464990 0.114346027
vt 0.289168000 0.058817029
vt 0.398351997 0.099462986
vt 0.289168000 0.058817029
vt 0.316464990 0.114346027
vt 0.245623007 0.091320992
vt 0.210366994 0.115438998
vt 0.174061000 0.037231982
vt 0.245623007 0.091320992
vt 0.174061000 0.037231982
vt 0.210366994 0.115438998
vt 0.124989003 0.076780021
vt 0.316464990 0.114346027
vt 0.319485009 0.159254014
vt 0.266377002 0.128005981
vt 0.398012012 0.133623004
vt 0.319485009 0.159254014
vt 0.316464990 0.114346027
vt 0.311340988 0.298097968
vt 0.260289997 0.320204020
vt 0.243588999 0.307554007
vt 0.260289997 0.320204020
vt 0.311340988 0.298097968
vt 0.311482012 0.313256025
vt 0.096551999 0.173452973
vt 0.110900000 0.129186988
vt 0.130154997 0.130401969
vt 0.110900000 0.129186988
vt 0.096551999 0.173452973
vt 0.088729002 0.168857992
vt 0.177185997 0.208970010
vt 0.141003996 0.198900998
vt 0.139311999 0.192520976
vt 0.141003996 0.198900998
vt 0.177185997 0.208970010
vt 0.163987994 0.213379979
vt 0.130154997 0.130401969
vt 0.082898997 0.110795975
vt 0.093029000 0.101359010
vt 0.082898997 0.110795975
vt 0.130154997 0.130401969
vt 0.110900000 0.129186988
vt 0.396254987 0.299126029
vt 0.311482012 0.313256025
vt 0.311340988 0.298097968
vt 0.311482012 0.313256025
vt 0.396254987 0.299126029
vt 0.396023005 0.321511030
vt 0.062592000 0.195635021
vt 0.088729002 0.168857992
vt 0.096551999 0.173452973
vt 0.088729002 0.168857992
vt 0.062592000 0.195635021
vt 0.050524998 0.197710037
vt 0.092519999 0.206597984
vt 0.050524998 0.197710037
vt 0.062592000 0.195635021
vt 0.050524998 0.197710037
vt 0.092519999 0.206597984
vt 0.088462003 0.214053035
vt 0.139311999 0.192520976
vt 0.088462003 0.214053035
vt 0.092519999 0.206597984
vt 0.088462003 0.214053035
vt 0.139311999 0.192520976
vt 0.141003996 0.198900998
vt 0.243588999 0.307554007
vt 0.208065003 0.321933031
vt 0.208454996 0.325343966
vt 0.208065003 0.321933031
vt 0.243588999 0.307554007
vt 0.260289997 0.320204020
vt 0.208454996 0.325343966
vt 0.178407997 0.272451997
vt 0.196217000 0.278376997
vt 0.178407997 0.272451997
vt 0.208454996 0.325343966
vt 0.208065003 0.321933031
vt 0.196217000 0.278376997
vt 0.163987994 0.213379979
vt 0.177185997 0.208970010
vt 0.163987994 0.213379979
vt 0.196217000 0.278376997
vt 0.178407997 0.272451997
vt 0.093029000 0.101359010
vt 0.025242999 0.073077977
vt 0.039018001 0.060724974
vt 0.025242999 0.073077977
vt 0.093029000 0.101359010
vt 0.082898997 0.110795975
vt 0.561630011 0.270137012
vt 0.481184006 0.298583031
vt 0.493566990 0.271888971
vt 0.481184006 0.298583031
vt 0.561630011 0.270137012
vt 0.548731983 0.308427989
vt 0.551253021 0.092194974
vt 0.508328974 0.059454978
vt 0.623642981 0.038424015
vt 0.655161977 0.194045007
vt 0.666571021 0.131835997
vt 0.698036015 0.175338030
vt 0.666571021 0.131835997
vt 0.655161977 0.194045007
vt 0.609579027 0.138836980
vt 0.539686978 0.154408991
vt 0.617075026 0.210240006
vt 0.580617011 0.216246009
vt 0.609579027 0.138836980
vt 0.617075026 0.210240006
vt 0.539686978 0.154408991
vt 0.655161977 0.194045007
vt 0.617075026 0.210240006
vt 0.609579027 0.138836980
vt 0.493566990 0.271888971
vt 0.580617011 0.216246009
vt 0.561630011 0.270137012
vt 0.580617011 0.216246009
vt 0.493566990 0.271888971
vt 0.498676002 0.219547987
vt 0.397085011 0.219743013
vt 0.476029992 0.159684002
vt 0.498676002 0.219547987
vt 0.476029992 0.159684002
vt 0.397085011 0.219743013
vt 0.397762001 0.158024013
vt 0.672026992 0.078193009
vt 0.703835011 0.102828979
vt 0.666571021 0.131835997
vt 0.586139977 0.116492033
vt 0.539686978 0.154408991
vt 0.529814005 0.128735006
vt 0.539686978 0.154408991
vt 0.586139977 0.116492033
vt 0.609579027 0.138836980
vt 0.476029992 0.159684002
vt 0.397762001 0.158024013
vt 0.398012012 0.133623004
vt 0.672026992 0.078193009
vt 0.609579027 0.138836980
vt 0.586139977 0.116492033
vt 0.609579027 0.138836980
vt 0.672026992 0.078193009
vt 0.666571021 0.131835997
vt 0.396254987 0.299126029
vt 0.493566990 0.271888971
vt 0.481184006 0.298583031
vt 0.493566990 0.271888971
vt 0.396254987 0.299126029
vt 0.396586001 0.267223001
vt 0.396586001 0.267223001
vt 0.498676002 0.219547987
vt 0.493566990 0.271888971
vt 0.498676002 0.219547987
vt 0.396586001 0.267223001
vt 0.397085011 0.219743013
vt 0.476029992 0.159684002
vt 0.580617011 0.216246009
vt 0.498676002 0.219547987
vt 0.580617011 0.216246009
vt 0.476029992 0.159684002
vt 0.539686978 0.154408991
vt 0.529814005 0.128735006
vt 0.539686978 0.154408991
vt 0.476029992 0.159684002
vt 0.731719971 0.197631001
vt 0.655161977 0.194045007
vt 0.698036015 0.175338030
vt 0.655161977 0.194045007
vt 0.731719971 0.197631001
vt 0.701600015 0.208433986
vt 0.548731983 0.308427989
vt 0.596689999 0.279528022
vt 0.583496988 0.326421022
vt 0.596689999 0.279528022
vt 0.548731983 0.308427989
vt 0.561630011 0.270137012
vt 0.561630011 0.270137012
vt 0.617075026 0.210240006
vt 0.596689999 0.279528022
vt 0.617075026 0.210240006
vt 0.561630011 0.270137012
vt 0.580617011 0.216246009
vt 0.551253021 0.092194974
vt 0.529814005 0.128735006
vt 0.479947001 0.114804983
vt 0.529814005 0.128735006
vt 0.551253021 0.092194974
vt 0.586139977 0.116492033
vt 0.700621009 0.039879024
vt 0.672026992 0.078193009
vt 0.623642981 0.038424015
vt 0.703835011 0.102828979
vt 0.700621009 0.039879024
vt 0.758270979 0.062367976
vt 0.700621009 0.039879024
vt 0.703835011 0.102828979
vt 0.672026992 0.078193009
vt 0.398012012 0.133623004
vt 0.398351997 0.099462986
vt 0.479947001 0.114804983
vt 0.479947001 0.114804983
vt 0.508328974 0.059454978
vt 0.551253021 0.092194974
vt 0.508328974 0.059454978
vt 0.479947001 0.114804983
vt 0.398351997 0.099462986
vt 0.586139977 0.116492033
vt 0.623642981 0.038424015
vt 0.672026992 0.078193009
vt 0.623642981 0.038424015
vt 0.586139977 0.116492033
vt 0.551253021 0.092194974
vt 0.479947001 0.114804983
vt 0.529814005 0.128735006
vt 0.476029992 0.159684002
vt 0.398012012 0.133623004
vt 0.479947001 0.114804983
vt 0.476029992 0.159684002
vt 0.481184006 0.298583031
vt 0.531772017 0.320981026
vt 0.480729014 0.313739002
vt 0.531772017 0.320981026
vt 0.481184006 0.298583031
vt 0.548731983 0.308427989
vt 0.698036015 0.175338030
vt 0.685962975 0.130748987
vt 0.705775976 0.170845985
vt 0.685962975 0.130748987
vt 0.698036015 0.175338030
vt 0.666571021 0.131835997
vt 0.617075026 0.210240006
vt 0.653364003 0.200389028
vt 0.630153000 0.214730024
vt 0.653364003 0.200389028
vt 0.617075026 0.210240006
vt 0.655161977 0.194045007
vt 0.666571021 0.131835997
vt 0.713918984 0.112308025
vt 0.685962975 0.130748987
vt 0.713918984 0.112308025
vt 0.666571021 0.131835997
vt 0.703835011 0.102828979
vt 0.396254987 0.299126029
vt 0.480729014 0.313739002
vt 0.396023005 0.321511030
vt 0.480729014 0.313739002
vt 0.396254987 0.299126029
vt 0.481184006 0.298583031
vt 0.731719971 0.197631001
vt 0.705775976 0.170845985
vt 0.743750989 0.199755013
vt 0.705775976 0.170845985
vt 0.731719971 0.197631001
vt 0.698036015 0.175338030
vt 0.701600015 0.208433986
vt 0.743750989 0.199755013
vt 0.705498993 0.215909004
vt 0.743750989 0.199755013
vt 0.701600015 0.208433986
vt 0.731719971 0.197631001
vt 0.655161977 0.194045007
vt 0.705498993 0.215909004
vt 0.653364003 0.200389028
vt 0.705498993 0.215909004
vt 0.655161977 0.194045007
vt 0.701600015 0.208433986
vt 0.548731983 0.308427989
vt 0.583953977 0.323011041
vt 0.531772017 0.320981026
vt 0.583953977 0.323011041
vt 0.548731983 0.308427989
vt 0.583496988 0.326421022
vt 0.583496988 0.326421022
vt 0.614612997 0.273705959
vt 0.583953977 0.323011041
vt 0.614612997 0.273705959
vt 0.583496988 0.326421022
vt 0.596689999 0.279528022
vt 0.596689999 0.279528022
vt 0.630153000 0.214730024
vt 0.614612997 0.273705959
vt 0.630153000 0.214730024
vt 0.596689999 0.279528022
vt 0.617075026 0.210240006
vt 0.703835011 0.102828979
vt 0.771929026 0.074750006
vt 0.713918984 0.112308025
vt 0.771929026 0.074750006
vt 0.703835011 0.102828979
vt 0.758270979 0.062367976
vn 0.857200264 0.361042300 0.367227674
vn 0.676441970 -0.255166340 0.690880887
vn 0.561307008 0.084190622 0.823314267
vn 0.676441970 -0.255166340 0.690880887
vn 0.857200264 0.361042300 0.367227674
vn 0.956938455 -0.241376166 0.161264811
vn 0.087280120 0.516565226 -0.851787854
vn -0.345615079 0.460652374 -0.817526518
vn -0.147287496 0.224362899 -0.963310793
vn 0.629904309 0.774036455 0.063938472
vn 0.438103335 0.888720817 0.135058419
vn 0.614277062 0.783888716 -0.090455358
vn 0.438103335 0.888720817 0.135058419
vn 0.629904309 0.774036455 0.063938472
vn 0.435266334 0.899922662 0.026123202
vn 0.672134103 0.734374460 0.094498150
vn 0.819636941 0.488864527 -0.298675006
vn 0.973222857 0.227127677 -0.035359436
vn 0.672134103 0.734374460 0.094498150
vn 0.614277062 0.783888716 -0.090455358
vn 0.819636941 0.488864527 -0.298675006
vn 0.629904309 0.774036455 0.063938472
vn 0.614277062 0.783888716 -0.090455358
vn 0.672134103 0.734374460 0.094498150
vn 0.956938455 -0.241376166 0.161264811
vn 0.973222857 0.227127677 -0.035359436
vn 0.960247818 -0.278076326 -0.024447607
vn 0.973222857 0.227127677 -0.035359436
vn 0.956938455 -0.241376166 0.161264811
vn 0.857200264 0.361042300 0.367227674
vn 0.625801796 -0.758225949 -0.182935843
vn 0.890153563 -0.120977219 -0.439307576
vn 0.576891935 -0.686465451 -0.442674687
vn 0.890153563 -0.120977219 -0.439307576
vn 0.625801796 -0.758225949 -0.182935843
vn 0.960247818 -0.278076326 -0.024447607
vn 0.100862600 0.933457053 -0.344216018
vn 0.438103335 0.888720817 0.135058419
vn -0.014900572 0.770184573 0.637647000
vn 0.268331724 0.690723582 -0.671490148
vn 0.819636941 0.488864527 -0.298675006
vn 0.614277062 0.783888716 -0.090455358
vn 0.819636941 0.488864527 -0.298675006
vn 0.268331724 0.690723582 -0.671490148
vn 0.549468945 0.424004692 -0.719933261
vn 0.890153563 -0.120977219 -0.439307576
vn 0.251783161 -0.265971557 -0.930518334
vn 0.576891935 -0.686465451 -0.442674687
vn 0.100862600 0.933457053 -0.344216018
vn 0.614277062 0.783888716 -0.090455358
vn 0.438103335 0.888720817 0.135058419
vn 0.614277062 0.783888716 -0.090455358
vn 0.100862600 0.933457053 -0.344216018
vn 0.268331724 0.690723582 -0.671490148
vn 0.430426173 -0.559556487 0.708258320
vn 0.956938455 -0.241376166 0.161264811
vn 0.625942294 -0.771836288 0.111646717
vn 0.956938455 -0.241376166 0.161264811
vn 0.430426173 -0.559556487 0.708258320
vn 0.676441970 -0.255166340 0.690880887
vn 0.625942294 -0.771836288 0.111646717
vn 0.960247818 -0.278076326 -0.024447607
vn 0.625801796 -0.758225949 -0.182935843
vn 0.960247818 -0.278076326 -0.024447607
vn 0.625942294 -0.771836288 0.111646717
vn 0.956938455 -0.241376166 0.161264811
vn 0.890153563 -0.120977219 -0.439307576
vn 0.973222857 0.227127677 -0.035359436
vn 0.819636941 0.488864527 -0.298675006
vn 0.973222857 0.227127677 -0.035359436
vn 0.890153563 -0.120977219 -0.439307576
vn 0.960247818 -0.278076326 -0.024447607
vn 0.549468945 0.424004692 -0.719933261
vn 0.890153563 -0.120977219 -0.439307576
vn 0.819636941 0.488864527 -0.298675006
vn 0.427829469 0.891073705 0.151491248
vn 0.629904309 0.774036455 0.063938472
vn 0.781785855 0.529122354 0.329909703
vn 0.629904309 0.774036455 0.063938472
vn 0.427829469 0.891073705 0.151491248
vn 0.435266334 0.899922662 0.026123202
vn 0.561307008 0.084190622 0.823314267
vn 0.221519358 0.880303841 0.419516772
vn 0.857200264 0.361042300 0.367227674
vn 0.221519358 0.880303841 0.419516772
vn 0.561307008 0.084190622 0.823314267
vn 0.202195926 0.870622742 0.448478371
vn 0.857200264 0.361042300 0.367227674
vn 0.672134103 0.734374460 0.094498150
vn 0.973222857 0.227127677 -0.035359436
vn 0.672134103 0.734374460 0.094498150
vn 0.857200264 0.361042300 0.367227674
vn 0.221519358 0.880303841 0.419516772
vn 0.087280120 0.516565226 -0.851787854
vn 0.549468945 0.424004692 -0.719933261
vn 0.268331724 0.690723582 -0.671490148
vn 0.549468945 0.424004692 -0.719933261
vn 0.087280120 0.516565226 -0.851787854
vn 0.287981008 0.201337536 -0.936231881
vn -0.624018683 0.755238819 0.200536803
vn -0.345615079 0.460652374 -0.817526518
vn 0.100862600 0.933457053 -0.344216018
vn -0.014900572 0.770184573 0.637647000
vn -0.624018683 0.755238819 0.200536803
vn 0.100862600 0.933457053 -0.344216018
vn -0.624018683 0.755238819 0.200536803
vn -0.014900572 0.770184573 0.637647000
vn -0.454625844 0.524035992 0.720209429
vn 0.251783161 -0.265971557 -0.930518334
vn 0.287981008 0.201337536 -0.936231881
vn -0.011360177 0.059449825 -0.998166652
vn 0.287981008 0.201337536 -0.936231881
vn -0.147287496 0.224362899 -0.963310793
vn -0.011360177 0.059449825 -0.998166652
vn -0.147287496 0.224362899 -0.963310793
vn 0.287981008 0.201337536 -0.936231881
vn 0.087280120 0.516565226 -0.851787854
vn 0.268331724 0.690723582 -0.671490148
vn -0.345615079 0.460652374 -0.817526518
vn 0.087280120 0.516565226 -0.851787854
vn -0.345615079 0.460652374 -0.817526518
vn 0.268331724 0.690723582 -0.671490148
vn 0.100862600 0.933457053 -0.344216018
vn 0.287981008 0.201337536 -0.936231881
vn 0.890153563 -0.120977219 -0.439307576
vn 0.549468945 0.424004692 -0.719933261
vn 0.251783161 -0.265971557 -0.930518334
vn 0.890153563 -0.120977219 -0.439307576
vn 0.287981008 0.201337536 -0.936231881
vn 0.676441970 -0.255166340 0.690880887
vn -0.754315946 -0.643598706 0.129569130
vn 0.561307008 0.084190622 0.823314267
vn -0.754315946 -0.643598706 0.129569130
vn 0.676441970 -0.255166340 0.690880887
vn -0.811415850 0.240089417 0.532880278
vn 0.435266334 0.899922662 0.026123202
vn -0.084293439 0.987701804 0.131680530
vn 0.438103335 0.888720817 0.135058419
vn -0.084293439 0.987701804 0.131680530
vn 0.435266334 0.899922662 0.026123202
vn -0.506376992 0.820556610 0.265083369
vn 0.672134103 0.734374460 0.094498150
vn 0.532422167 -0.576332876 0.619973428
vn 0.629904309 0.774036455 0.063938472
vn 0.532422167 -0.576332876 0.619973428
vn 0.672134103 0.734374460 0.094498150
vn -0.447750334 0.810182135 0.378318048
vn 0.438103335 0.888720817 0.135058419
vn 0.160075656 0.480014537 0.862532219
vn -0.014900572 0.770184573 0.637647000
vn 0.160075656 0.480014537 0.862532219
vn 0.438103335 0.888720817 0.135058419
vn -0.084293439 0.987701804 0.131680530
vn 0.430426173 -0.559556487 0.708258320
vn -0.811415850 0.240089417 0.532880278
vn 0.676441970 -0.255166340 0.690880887
vn -0.811415850 0.240089417 0.532880278
vn 0.430426173 -0.559556487 0.708258320
vn -0.536861044 0.632135485 0.558735132
vn 0.427829469 0.891073705 0.151491248
vn -0.506376992 0.820556610 0.265083369
vn 0.435266334 0.899922662 0.026123202
vn -0.506376992 0.820556610 0.265083369
vn 0.427829469 0.891073705 0.151491248
vn 0.147435821 0.587647167 0.795571170
vn 0.781785855 0.529122354 0.329909703
vn 0.147435821 0.587647167 0.795571170
vn 0.427829469 0.891073705 0.151491248
vn 0.147435821 0.587647167 0.795571170
vn 0.781785855 0.529122354 0.329909703
vn 0.903888901 -0.302097530 0.302856297
vn 0.629904309 0.774036455 0.063938472
vn 0.903888901 -0.302097530 0.302856297
vn 0.781785855 0.529122354 0.329909703
vn 0.903888901 -0.302097530 0.302856297
vn 0.629904309 0.774036455 0.063938472
vn 0.532422167 -0.576332876 0.619973428
vn 0.561307008 0.084190622 0.823314267
vn -0.774839579 -0.632064151 0.010887448
vn 0.202195926 0.870622742 0.448478371
vn -0.774839579 -0.632064151 0.010887448
vn 0.561307008 0.084190622 0.823314267
vn -0.754315946 -0.643598706 0.129569130
vn 0.202195926 0.870622742 0.448478371
vn -0.309464378 0.937289206 0.160376879
vn 0.221519358 0.880303841 0.419516772
vn -0.309464378 0.937289206 0.160376879
vn 0.202195926 0.870622742 0.448478371
vn -0.774839579 -0.632064151 0.010887448
vn 0.221519358 0.880303841 0.419516772
vn -0.447750334 0.810182135 0.378318048
vn 0.672134103 0.734374460 0.094498150
vn -0.447750334 0.810182135 0.378318048
vn 0.221519358 0.880303841 0.419516772
vn -0.309464378 0.937289206 0.160376879
vn -0.014900572 0.770184573 0.637647000
vn -0.127882232 0.111692830 0.985480008
vn -0.454625844 0.524035992 0.720209429
vn -0.127882232 0.111692830 0.985480008
vn -0.014900572 0.770184573 0.637647000
vn 0.160075656 0.480014537 0.862532219
vn -0.540558884 -0.780039432 0.315173884
vn 0.084223917 -0.738632457 0.668826155
vn 0.038512669 -0.991146845 0.127061817
vn 0.084223917 -0.738632457 0.668826155
vn -0.540558884 -0.780039432 0.315173884
vn -0.230973683 -0.562599656 0.793809036
vn -0.485034893 0.049347244 -0.873101370
vn -0.147287496 0.224362899 -0.963310793
vn -0.345615079 0.460652374 -0.817526518
vn -0.886047659 -0.463533764 0.007483082
vn -0.963295481 -0.255332194 0.082869095
vn -0.968831723 -0.246333916 -0.026166650
vn -0.963295481 -0.255332194 0.082869095
vn -0.886047659 -0.463533764 0.007483082
vn -0.885685389 -0.440628221 -0.146315287
vn -0.628471767 -0.693320826 -0.352603845
vn -0.856995632 -0.513953630 0.037552008
vn -0.414591310 -0.905835298 -0.087042858
vn -0.885685389 -0.440628221 -0.146315287
vn -0.856995632 -0.513953630 0.037552008
vn -0.628471767 -0.693320826 -0.352603845
vn -0.886047659 -0.463533764 0.007483082
vn -0.856995632 -0.513953630 0.037552008
vn -0.885685389 -0.440628221 -0.146315287
vn 0.038512669 -0.991146845 0.127061817
vn -0.414591310 -0.905835298 -0.087042858
vn -0.540558884 -0.780039432 0.315173884
vn -0.414591310 -0.905835298 -0.087042858
vn 0.038512669 -0.991146845 0.127061817
vn 0.082074664 -0.994986156 -0.057151548
vn 0.625801796 -0.758225949 -0.182935843
vn -0.039231029 -0.879694285 -0.473918654
vn 0.082074664 -0.994986156 -0.057151548
vn -0.039231029 -0.879694285 -0.473918654
vn 0.625801796 -0.758225949 -0.182935843
vn 0.576891935 -0.686465451 -0.442674687
vn -0.918522978 0.101266310 -0.382178849
vn -0.779480115 0.146008580 0.609173411
vn -0.963295481 -0.255332194 0.082869095
vn -0.699636447 -0.099491813 -0.707538141
vn -0.628471767 -0.693320826 -0.352603845
vn -0.492359107 -0.426507331 -0.758731841
vn -0.628471767 -0.693320826 -0.352603845
vn -0.699636447 -0.099491813 -0.707538141
vn -0.885685389 -0.440628221 -0.146315287
vn -0.039231029 -0.879694285 -0.473918654
vn 0.576891935 -0.686465451 -0.442674687
vn 0.251783161 -0.265971557 -0.930518334
vn -0.918522978 0.101266310 -0.382178849
vn -0.885685389 -0.440628221 -0.146315287
vn -0.699636447 -0.099491813 -0.707538141
vn -0.885685389 -0.440628221 -0.146315287
vn -0.918522978 0.101266310 -0.382178849
vn -0.963295481 -0.255332194 0.082869095
vn 0.430426173 -0.559556487 0.708258320
vn 0.038512669 -0.991146845 0.127061817
vn 0.084223917 -0.738632457 0.668826155
vn 0.038512669 -0.991146845 0.127061817
vn 0.430426173 -0.559556487 0.708258320
vn 0.625942294 -0.771836288 0.111646717
vn 0.625942294 -0.771836288 0.111646717
vn 0.082074664 -0.994986156 -0.057151548
vn 0.038512669 -0.991146845 0.127061817
vn 0.082074664 -0.994986156 -0.057151548
vn 0.625942294 -0.771836288 0.111646717
vn 0.625801796 -0.758225949 -0.182935843
vn -0.039231029 -0.879694285 -0.473918654
vn -0.414591310 -0.905835298 -0.087042858
vn 0.082074664 -0.994986156 -0.057151548
vn -0.414591310 -0.905835298 -0.087042858
vn -0.039231029 -0.879694285 -0.473918654
vn -0.628471767 -0.693320826 -0.352603845
vn -0.492359107 -0.426507331 -0.758731841
vn -0.628471767 -0.693320826 -0.352603845
vn -0.039231029 -0.879694285 -0.473918654
vn -0.964286582 -0.245401180 0.099647622
vn -0.886047659 -0.463533764 0.007483082
vn -0.968831723 -0.246333916 -0.026166650
vn -0.886047659 -0.463533764 0.007483082
vn -0.964286582 -0.245401180 0.099647622
vn -0.688414966 -0.671098234 0.275158127
vn -0.230973683 -0.562599656 0.793809036
vn -0.924624776 -0.055368149 0.376833375
vn -0.912592432 -0.039451489 0.406962691
vn -0.924624776 -0.055368149 0.376833375
vn -0.230973683 -0.562599656 0.793809036
vn -0.540558884 -0.780039432 0.315173884
vn -0.540558884 -0.780039432 0.315173884
vn -0.856995632 -0.513953630 0.037552008
vn -0.924624776 -0.055368149 0.376833375
vn -0.856995632 -0.513953630 0.037552008
vn -0.540558884 -0.780039432 0.315173884
vn -0.414591310 -0.905835298 -0.087042858
vn -0.485034893 0.049347244 -0.873101370
vn -0.492359107 -0.426507331 -0.758731841
vn -0.212642747 -0.207354207 -0.954875539
vn -0.492359107 -0.426507331 -0.758731841
vn -0.485034893 0.049347244 -0.873101370
vn -0.699636447 -0.099491813 -0.707538141
vn -0.624018683 0.755238819 0.200536803
vn -0.918522978 0.101266310 -0.382178849
vn -0.345615079 0.460652374 -0.817526518
vn -0.779480115 0.146008580 0.609173411
vn -0.624018683 0.755238819 0.200536803
vn -0.454625844 0.524035992 0.720209429
vn -0.624018683 0.755238819 0.200536803
vn -0.779480115 0.146008580 0.609173411
vn -0.918522978 0.101266310 -0.382178849
vn 0.251783161 -0.265971557 -0.930518334
vn -0.011360177 0.059449825 -0.998166652
vn -0.212642747 -0.207354207 -0.954875539
vn -0.212642747 -0.207354207 -0.954875539
vn -0.147287496 0.224362899 -0.963310793
vn -0.485034893 0.049347244 -0.873101370
vn -0.147287496 0.224362899 -0.963310793
vn -0.212642747 -0.207354207 -0.954875539
vn -0.011360177 0.059449825 -0.998166652
vn -0.699636447 -0.099491813 -0.707538141
vn -0.345615079 0.460652374 -0.817526518
vn -0.918522978 0.101266310 -0.382178849
vn -0.345615079 0.460652374 -0.817526518
vn -0.699636447 -0.099491813 -0.707538141
vn -0.485034893 0.049347244 -0.873101370
vn -0.212642747 -0.207354207 -0.954875539
vn -0.492359107 -0.426507331 -0.758731841
vn -0.039231029 -0.879694285 -0.473918654
vn 0.251783161 -0.265971557 -0.930518334
vn -0.212642747 -0.207354207 -0.954875539
vn -0.039231029 -0.879694285 -0.473918654
vn 0.084223917 -0.738632457 0.668826155
vn 0.774491484 0.604466270 0.186503268
vn -0.097233674 0.823122754 0.559477028
vn 0.774491484 0.604466270 0.186503268
vn 0.084223917 -0.738632457 0.668826155
vn -0.230973683 -0.562599656 0.793809036
vn -0.968831723 -0.246333916 -0.026166650
vn -0.956003209 0.276068456 0.099217295
vn -0.714273142 0.650837474 0.257341137
vn -0.956003209 0.276068456 0.099217295
vn -0.968831723 -0.246333916 -0.026166650
vn -0.963295481 -0.255332194 0.082869095
vn -0.856995632 -0.513953630 0.037552008
vn 0.430478817 -0.659555862 0.616176966
vn -0.720849742 0.587233343 0.368147593
vn 0.430478817 -0.659555862 0.616176966
vn -0.856995632 -0.513953630 0.037552008
vn -0.886047659 -0.463533764 0.007483082
vn -0.963295481 -0.255332194 0.082869095
vn -0.540308802 -0.091754856 0.836449308
vn -0.956003209 0.276068456 0.099217295
vn -0.540308802 -0.091754856 0.836449308
vn -0.963295481 -0.255332194 0.082869095
vn -0.779480115 0.146008580 0.609173411
vn 0.430426173 -0.559556487 0.708258320
vn -0.097233674 0.823122754 0.559477028
vn -0.536861044 0.632135485 0.558735132
vn -0.097233674 0.823122754 0.559477028
vn 0.430426173 -0.559556487 0.708258320
vn 0.084223917 -0.738632457 0.668826155
vn -0.964286582 -0.245401180 0.099647622
vn -0.714273142 0.650837474 0.257341137
vn -0.640168094 -0.055325136 0.766240133
vn -0.714273142 0.650837474 0.257341137
vn -0.964286582 -0.245401180 0.099647622
vn -0.968831723 -0.246333916 -0.026166650
vn -0.688414966 -0.671098234 0.275158127
vn -0.640168094 -0.055325136 0.766240133
vn 0.102197854 -0.956570054 0.273000604
vn -0.640168094 -0.055325136 0.766240133
vn -0.688414966 -0.671098234 0.275158127
vn -0.964286582 -0.245401180 0.099647622
vn -0.886047659 -0.463533764 0.007483082
vn 0.102197854 -0.956570054 0.273000604
vn 0.430478817 -0.659555862 0.616176966
vn 0.102197854 -0.956570054 0.273000604
vn -0.886047659 -0.463533764 0.007483082
vn -0.688414966 -0.671098234 0.275158127
vn -0.230973683 -0.562599656 0.793809036
vn 0.772587200 0.631201010 0.068514989
vn 0.774491484 0.604466270 0.186503268
vn 0.772587200 0.631201010 0.068514989
vn -0.230973683 -0.562599656 0.793809036
vn -0.912592432 -0.039451489 0.406962691
vn -0.912592432 -0.039451489 0.406962691
vn -0.863089010 0.485329442 0.139759415
vn 0.772587200 0.631201010 0.068514989
vn -0.863089010 0.485329442 0.139759415
vn -0.912592432 -0.039451489 0.406962691
vn -0.924624776 -0.055368149 0.376833375
vn -0.924624776 -0.055368149 0.376833375
vn -0.720849742 0.587233343 0.368147593
vn -0.863089010 0.485329442 0.139759415
vn -0.720849742 0.587233343 0.368147593
vn -0.924624776 -0.055368149 0.376833375
vn -0.856995632 -0.513953630 0.037552008
vn -0.779480115 0.146008580 0.609173411
vn -0.127882232 0.111692830 0.985480008
vn -0.540308802 -0.091754856 0.836449308
vn -0.127882232 0.111692830 0.985480008
vn -0.779480115 0.146008580 0.609173411
vn -0.454625844 0.524035992 0.720209429
f 3/3/3 2/2/2 1/1/1
f 6/6/6 5/5/5 4/4/4
f 9/9/9 8/8/8 7/7/7
f 12/12/12 11/11/11 10/10/10
f 15/15/15 14/14/14 13/13/13
f 18/18/18 17/17/17 16/16/16
f 21/21/21 20/20/20 19/19/19
f 24/24/24 23/23/23 22/22/22
f 27/27/27 26/26/26 25/25/25
f 30/30/30 29/29/29 28/28/28
f 33/33/33 32/32/32 31/31/31
f 36/36/36 35/35/35 34/34/34
f 39/39/39 38/38/38 37/37/37
f 42/42/42 41/41/41 40/40/40
f 45/45/45 44/44/44 43/43/43
f 48/48/48 47/47/47 46/46/46
f 51/51/51 50/50/50 49/49/49
f 54/54/54 53/53/53 52/52/52
f 57/57/57 56/56/56 55/55/55
f 60/60/60 59/59/59 58/58/58
f 63/63/63 62/62/62 61/61/61
f 66/66/66 65/65/65 64/64/64
f 69/69/69 68/68/68 67/67/67
f 72/72/72 71/71/71 70/70/70
f 75/75/75 74/74/74 73/73/73
f 78/78/78 77/77/77 76/76/76
f 81/81/81 80/80/80 79/79/79
f 84/84/84 83/83/83 82/82/82
f 87/87/87 86/86/86 85/85/85
f 90/90/90 89/89/89 88/88/88
f 93/93/93 92/92/92 91/91/91
f 96/96/96 95/95/95 94/94/94
f 99/99/99 98/98/98 97/97/97
f 102/102/102 101/101/101 100/100/100
f 105/105/105 104/104/104 103/103/103
f 108/108/108 107/107/107 106/106/106
f 111/111/111 110/110/110 109/109/109
f 114/114/114 113/113/113 112/112/112
f 117/117/117 116/116/116 115/115/115
f 120/120/120 119/119/119 118/118/118
f 123/123/123 122/122/122 121/121/121
f 126/126/126 125/125/125 124/124/124
f 129/129/129 128/128/128 127/127/127
f 132/132/132 131/131/131 130/130/130
f 135/135/135 134/134/134 133/133/133
f 138/138/138 137/137/137 136/136/136
f 141/141/141 140/140/140 139/139/139
f 144/144/144 143/143/143 142/142/142
f 147/147/147 146/146/146 145/145/145
f 150/150/150 149/149/149 148/148/148
f 153/153/153 152/152/152 151/151/151
f 156/156/156 155/155/155 154/154/154
f 159/159/159 158/158/158 157/157/157
f 162/162/162 161/161/161 160/160/160
f 165/165/165 164/164/164 163/163/163
f 168/168/168 167/167/167 166/166/166
f 171/171/171 170/170/170 169/169/169
f 174/174/174 173/173/173 172/172/172
f 177/177/177 176/176/176 175/175/175
f 180/180/180 179/179/179 178/178/178
f 183/183/183 182/182/182 181/181/181
f 186/186/186 185/185/185 184/184/184
f 189/189/189 188/188/188 187/187/187
f 192/192/192 191/191/191 190/190/190
f 195/195/195 194/194/194 193/193/193
f 198/198/198 197/197/197 196/196/196
f 201/201/201 200/200/200 199/199/199
f 204/204/204 203/203/203 202/202/202
f 207/207/207 206/206/206 205/205/205
f 210/210/210 209/209/209 208/208/208
f 213/213/213 212/212/212 211/211/211
f 216/216/216 215/215/215 214/214/214
f 219/219/219 218/218/218 217/217/217
f 222/222/222 221/221/221 220/220/220
f 225/225/225 224/224/224 223/223/223
f 228/228/228 227/227/227 226/226/226
f 231/231/231 230/230/230 229/229/229
f 234/234/234 233/233/233 232/232/232
f 237/237/237 236/236/236 235/235/235
f 240/240/240 239/239/239 238/238/238
f 243/243/243 242/242/242 241/241/241
f 246/246/246 245/245/245 244/244/244
f 249/249/249 248/248/248 247/247/247
f 252/252/252 251/251/251 250/250/250
f 255/255/255 254/254/254 253/253/253
f 258/258/258 257/257/257 256/256/256
f 261/261/261 260/260/260 259/259/259
f 264/264/264 263/263/263 262/262/262
f 267/267/267 266/266/266 265/265/265
f 270/270/270 269/269/269 268/268/268
f 273/273/273 272/272/272 271/271/271
f 276/276/276 275/275/275 274/274/274
f 279/279/279 278/278/278 277/277/277
f 282/282/282 281/281/281 280/280/280
f 285/285/285 284/284/284 283/283/283
f 288/288/288 287/287/287 286/286/286
f 291/291/291 290/290/290 289/289/289
f 294/294/294 293/293/293 292/292/292
f 297/297/297 296/296/296 295/295/295
f 300/300/300 299/299/299 298/298/298
f 303/303/303 302/302/302 301/301/301
f 306/306/306 305/305/305 304/304/304
f 309/309/309 308/308/308 307/307/307
f 312/312/312 311/311/311 310/310/310
f 315/315/315 314/314/314 313/313/313
f 318/318/318 317/317/317 316/316/316
f 321/321/321 320/320/320 319/319/319
f 324/324/324 323/323/323 322/322/322
f 327/327/327 326/326/326 325/325/325
f 330/330/330 329/329/329 328/328/328
f 333/333/333 332/332/332 331/331/331
f 336/336/336 335/335/335 334/334/334
f 339/339/339 338/338/338 337/337/337
f 342/342/342 341/341/341 340/340/340
f 345/345/345 344/344/344 343/343/343
f 348/348/348 347/347/347 346/346/346
f 351/351/351 350/350/350 349/349/349
f 354/354/354 353/353/353 352/352/352
f 357/357/357 356/356/356 355/355/355
f 360/360/360 359/359/359 358/358/358
f 363/363/363 362/362/362 361/361/361
f 366/366/366 365/365/365 364/364/364
f 369/369/369 368/368/368 367/367/367
f 372/372/372 371/371/371 370/370/370
f 375/375/375 374/374/374 373/373/373
f 378/378/378 377/377/377 376/376/376
f 381/381/381 380/380/380 379/379/379
f 384/384/384 383/383/383 382/382/382
f 387/387/387 386/386/386 385/385/385
f 390/390/390 389/389/389 388/388/388
f 393/393/393 392/392/392 391/391/391
f 396/396/396 395/395/395 394/394/394
f 399/399/399 398/398/398 397/397/397
f 402/402/402 401/401/401 400/400/400
