# Static pose baked from local Project Zomboid assets
o Bob_Hair_Messy
v -0.017767171 0.118882642 -0.365652486
v -0.030515204 0.083579930 -0.354795845
v -0.048071825 0.100274268 -0.343195829
v -0.030515204 0.083579930 -0.354795845
v -0.017767171 0.118882642 -0.365652486
v -0.015371754 0.092322142 -0.368222253
v -0.076676938 0.146186940 -0.458022538
v -0.119634312 0.150161764 -0.445908251
v -0.099862382 0.126519974 -0.458571696
v -0.043362902 0.145602630 -0.390070974
v -0.057429144 0.166048201 -0.422788250
v -0.034271370 0.158872297 -0.407131604
v -0.057429144 0.166048201 -0.422788250
v -0.043362902 0.145602630 -0.390070974
v -0.057950987 0.157342641 -0.402496900
v -0.031054152 0.135584449 -0.395382232
v -0.012654894 0.133133610 -0.413440788
v -0.019947093 0.123545125 -0.395036641
v -0.031054152 0.135584449 -0.395382232
v -0.034271370 0.158872297 -0.407131604
v -0.012654894 0.133133610 -0.413440788
v -0.043362902 0.145602630 -0.390070974
v -0.034271370 0.158872297 -0.407131604
v -0.031054152 0.135584449 -0.395382232
v -0.015371754 0.092322142 -0.368222253
v -0.019947093 0.123545125 -0.395036641
v -0.014646307 0.086494178 -0.403652799
v -0.019947093 0.123545125 -0.395036641
v -0.015371754 0.092322142 -0.368222253
v -0.017767171 0.118882642 -0.365652486
v -0.041377115 0.052543316 -0.407372819
v -0.018517595 0.092760205 -0.447358426
v -0.042931867 0.056468474 -0.451668480
v -0.018517595 0.092760205 -0.447358426
v -0.041377115 0.052543316 -0.407372819
v -0.014646307 0.086494178 -0.403652799
v -0.100410889 0.157295251 -0.444467985
v -0.057429144 0.166048201 -0.422788250
v -0.100740493 0.161196514 -0.425079099
v -0.049610128 0.157750499 -0.433476727
v -0.012654894 0.133133610 -0.413440788
v -0.034271370 0.158872297 -0.407131604
v -0.012654894 0.133133610 -0.413440788
v -0.049610128 0.157750499 -0.433476727
v -0.031688720 0.135529902 -0.437660511
v -0.018517595 0.092760205 -0.447358426
v -0.061167556 0.079447717 -0.465732644
v -0.042931867 0.056468474 -0.451668480
v -0.049610128 0.157750499 -0.433476727
v -0.057429144 0.166048201 -0.422788250
v -0.100410889 0.157295251 -0.444467985
v -0.057429144 0.166048201 -0.422788250
v -0.049610128 0.157750499 -0.433476727
v -0.034271370 0.158872297 -0.407131604
v -0.045577412 0.055171341 -0.352195022
v -0.015371754 0.092322142 -0.368222253
v -0.036031037 0.044142483 -0.366770424
v -0.015371754 0.092322142 -0.368222253
v -0.045577412 0.055171341 -0.352195022
v -0.030515204 0.083579930 -0.354795845
v -0.036031037 0.044142483 -0.366770424
v -0.014646307 0.086494178 -0.403652799
v -0.041377115 0.052543316 -0.407372819
v -0.014646307 0.086494178 -0.403652799
v -0.036031037 0.044142483 -0.366770424
v -0.015371754 0.092322142 -0.368222253
v -0.018517595 0.092760205 -0.447358426
v -0.014646307 0.086494178 -0.403652799
v -0.012654894 0.133133610 -0.413440788
v -0.031688720 0.135529902 -0.437660511
v -0.018517595 0.092760205 -0.447358426
v -0.012654894 0.133133610 -0.413440788
v -0.054943712 0.153037945 -0.372447225
v -0.043362902 0.145602630 -0.390070974
v -0.042407442 0.144655512 -0.377418055
v -0.043362902 0.145602630 -0.390070974
v -0.054943712 0.153037945 -0.372447225
v -0.057950987 0.157342641 -0.402496900
v -0.048071825 0.100274268 -0.343195829
v -0.046378677 0.113803566 -0.361379003
v -0.017767171 0.118882642 -0.365652486
v -0.046378677 0.113803566 -0.361379003
v -0.048071825 0.100274268 -0.343195829
v -0.063207920 0.105543629 -0.327371464
v -0.017767171 0.118882642 -0.365652486
v -0.031054152 0.135584449 -0.395382232
v -0.019947093 0.123545125 -0.395036641
v -0.031054152 0.135584449 -0.395382232
v -0.017767171 0.118882642 -0.365652486
v -0.046378677 0.113803566 -0.361379003
v -0.076676938 0.146186940 -0.458022538
v -0.031688720 0.135529902 -0.437660511
v -0.049610128 0.157750499 -0.433476727
v -0.031688720 0.135529902 -0.437660511
v -0.076676938 0.146186940 -0.458022538
v -0.058964068 0.121064747 -0.467801178
v -0.130160290 0.162124783 -0.425506289
v -0.119634312 0.150161764 -0.445908251
v -0.100410889 0.157295251 -0.444467985
v -0.100740493 0.161196514 -0.425079099
v -0.130160290 0.162124783 -0.425506289
v -0.100410889 0.157295251 -0.444467985
v -0.130160290 0.162124783 -0.425506289
v -0.100740493 0.161196514 -0.425079099
v -0.126313245 0.156538998 -0.406360791
v -0.061167556 0.079447717 -0.465732644
v -0.058964068 0.121064747 -0.467801178
v -0.076791443 0.098611361 -0.466286942
v -0.058964068 0.121064747 -0.467801178
v -0.099862382 0.126519974 -0.458571696
v -0.076791443 0.098611361 -0.466286942
v -0.099862382 0.126519974 -0.458571696
v -0.058964068 0.121064747 -0.467801178
v -0.076676938 0.146186940 -0.458022538
v -0.119634312 0.150161764 -0.445908251
v -0.076676938 0.146186940 -0.458022538
v -0.100410889 0.157295251 -0.444467985
v -0.058964068 0.121064747 -0.467801178
v -0.018517595 0.092760205 -0.447358426
v -0.031688720 0.135529902 -0.437660511
v -0.061167556 0.079447717 -0.465732644
v -0.018517595 0.092760205 -0.447358426
v -0.058964068 0.121064747 -0.467801178
v -0.030515204 0.083579930 -0.354795845
v -0.051505556 0.102300451 -0.353113520
v -0.048071825 0.100274268 -0.343195829
v -0.051505556 0.102300451 -0.353113520
v -0.030515204 0.083579930 -0.354795845
v -0.034637552 0.087429085 -0.357054722
v -0.057950987 0.157342641 -0.402496900
v -0.065709166 0.157843903 -0.423599179
v -0.057429144 0.166048201 -0.422788250
v -0.065709166 0.157843903 -0.423599179
v -0.057950987 0.157342641 -0.402496900
v -0.063193136 0.156087042 -0.386273386
v -0.031054152 0.135584449 -0.395382232
v -0.046476158 0.141536353 -0.391177476
v -0.043362902 0.145602630 -0.390070974
v -0.046476158 0.141536353 -0.391177476
v -0.031054152 0.135584449 -0.395382232
v -0.035992481 0.133004374 -0.395700815
v -0.057429144 0.166048201 -0.422788250
v -0.089847200 0.145292842 -0.425589957
v -0.100740493 0.161196514 -0.425079099
v -0.089847200 0.145292842 -0.425589957
v -0.057429144 0.166048201 -0.422788250
v -0.065709166 0.157843903 -0.423599179
v -0.045577412 0.055171341 -0.352195022
v -0.034637552 0.087429085 -0.357054722
v -0.030515204 0.083579930 -0.354795845
v -0.034637552 0.087429085 -0.357054722
v -0.045577412 0.055171341 -0.352195022
v -0.051306997 0.062654075 -0.362373569
v -0.054943712 0.153037945 -0.372447225
v -0.063193136 0.156087042 -0.386273386
v -0.057950987 0.157342641 -0.402496900
v -0.063193136 0.156087042 -0.386273386
v -0.054943712 0.153037945 -0.372447225
v -0.058208592 0.149844286 -0.369260668
v -0.042407442 0.144655512 -0.377418055
v -0.058208592 0.149844286 -0.369260668
v -0.054943712 0.153037945 -0.372447225
v -0.058208592 0.149844286 -0.369260668
v -0.042407442 0.144655512 -0.377418055
v -0.044456788 0.138996387 -0.374776673
v -0.043362902 0.145602630 -0.390070974
v -0.044456788 0.138996387 -0.374776673
v -0.042407442 0.144655512 -0.377418055
v -0.044456788 0.138996387 -0.374776673
v -0.043362902 0.145602630 -0.390070974
v -0.046476158 0.141536353 -0.391177476
v -0.048071825 0.100274268 -0.343195829
v -0.064396401 0.106788554 -0.339636674
v -0.063207920 0.105543629 -0.327371464
v -0.064396401 0.106788554 -0.339636674
v -0.048071825 0.100274268 -0.343195829
v -0.051505556 0.102300451 -0.353113520
v -0.043199572 0.118075264 -0.356071005
v -0.063207920 0.105543629 -0.327371464
v -0.064396401 0.106788554 -0.339636674
v -0.063207920 0.105543629 -0.327371464
v -0.043199572 0.118075264 -0.356071005
v -0.046378677 0.113803566 -0.361379003
v -0.035992481 0.133004374 -0.395700815
v -0.046378677 0.113803566 -0.361379003
v -0.043199572 0.118075264 -0.356071005
v -0.046378677 0.113803566 -0.361379003
v -0.035992481 0.133004374 -0.395700815
v -0.031054152 0.135584449 -0.395382232
v -0.100740493 0.161196514 -0.425079099
v -0.119878530 0.148601803 -0.405154222
v -0.126313245 0.156538998 -0.406360791
v -0.119878530 0.148601803 -0.405154222
v -0.100740493 0.161196514 -0.425079099
v -0.089847200 0.145292842 -0.425589957
v -0.100410889 0.157295251 -0.444467985
v -0.076676938 0.146186940 -0.458022538
v -0.049610128 0.157750499 -0.433476727
v -0.012654894 0.133133610 -0.413440788
v -0.014646307 0.086494178 -0.403652799
v -0.019947093 0.123545125 -0.395036641
v -0.112885185 0.041231627 -0.369194763
v -0.076271583 0.046226025 -0.356499851
v -0.087246096 0.033646446 -0.370898915
v -0.076271583 0.046226025 -0.356499851
v -0.112885185 0.041231627 -0.369194763
v -0.089636010 0.066342723 -0.344743715
v -0.123757412 0.107752089 -0.459775856
v -0.099862382 0.126519974 -0.458571696
v -0.119634312 0.150161764 -0.445908251
v -0.132854674 0.072544682 -0.393403724
v -0.148607394 0.091613471 -0.426183806
v -0.140887325 0.089636319 -0.405585520
v -0.148607394 0.091613471 -0.426183806
v -0.132854674 0.072544682 -0.393403724
v -0.146893762 0.066931321 -0.411325758
v -0.125720196 0.040831057 -0.417651436
v -0.125261561 0.058676820 -0.398890596
v -0.115703147 0.045373235 -0.398602678
v -0.146893762 0.066931321 -0.411325758
v -0.125261561 0.058676820 -0.398890596
v -0.125720196 0.040831057 -0.417651436
v -0.132854674 0.072544682 -0.393403724
v -0.125261561 0.058676820 -0.398890596
v -0.146893762 0.066931321 -0.411325758
v -0.087246096 0.033646446 -0.370898915
v -0.115703147 0.045373235 -0.398602678
v -0.112885185 0.041231627 -0.369194763
v -0.115703147 0.045373235 -0.398602678
v -0.087246096 0.033646446 -0.370898915
v -0.080103045 0.033057589 -0.406090464
v -0.041377115 0.052543316 -0.407372819
v -0.083514387 0.039699101 -0.449778962
v -0.080103045 0.033057589 -0.406090464
v -0.083514387 0.039699101 -0.449778962
v -0.041377115 0.052543316 -0.407372819
v -0.042931867 0.056468474 -0.451668480
v -0.130510428 0.132723042 -0.445588918
v -0.135129788 0.133122298 -0.426359786
v -0.148607394 0.091613471 -0.426183806
v -0.141564250 0.082682374 -0.436901177
v -0.125720196 0.040831057 -0.417651436
v -0.123193735 0.060828412 -0.441068236
v -0.125720196 0.040831057 -0.417651436
v -0.141564250 0.082682374 -0.436901177
v -0.146893762 0.066931321 -0.411325758
v -0.083514387 0.039699101 -0.449778962
v -0.042931867 0.056468474 -0.451668480
v -0.061167556 0.079447717 -0.465732644
v -0.141564250 0.082682374 -0.436901177
v -0.148607394 0.091613471 -0.426183806
v -0.146893762 0.066931321 -0.411325758
v -0.148607394 0.091613471 -0.426183806
v -0.141564250 0.082682374 -0.436901177
v -0.130510428 0.132723042 -0.445588918
v -0.045577412 0.055171341 -0.352195022
v -0.087246096 0.033646446 -0.370898915
v -0.076271583 0.046226025 -0.356499851
v -0.087246096 0.033646446 -0.370898915
v -0.045577412 0.055171341 -0.352195022
v -0.036031037 0.044142483 -0.366770424
v -0.036031037 0.044142483 -0.366770424
v -0.080103045 0.033057589 -0.406090464
v -0.087246096 0.033646446 -0.370898915
v -0.080103045 0.033057589 -0.406090464
v -0.036031037 0.044142483 -0.366770424
v -0.041377115 0.052543316 -0.407372819
v -0.083514387 0.039699101 -0.449778962
v -0.125720196 0.040831057 -0.417651436
v -0.080103045 0.033057589 -0.406090464
v -0.123193735 0.060828412 -0.441068236
v -0.125720196 0.040831057 -0.417651436
v -0.083514387 0.039699101 -0.449778962
v -0.138614113 0.084732361 -0.375563182
v -0.132854674 0.072544682 -0.393403724
v -0.140887325 0.089636319 -0.405585520
v -0.132854674 0.072544682 -0.393403724
v -0.138614113 0.084732361 -0.375563182
v -0.132682829 0.070957848 -0.380779988
v -0.089636010 0.066342723 -0.344743715
v -0.102405696 0.068065070 -0.363465497
v -0.092486674 0.081641480 -0.328461830
v -0.102405696 0.068065070 -0.363465497
v -0.089636010 0.066342723 -0.344743715
v -0.112885185 0.041231627 -0.369194763
v -0.112885185 0.041231627 -0.369194763
v -0.125261561 0.058676820 -0.398890596
v -0.102405696 0.068065070 -0.363465497
v -0.125261561 0.058676820 -0.398890596
v -0.112885185 0.041231627 -0.369194763
v -0.115703147 0.045373235 -0.398602678
v -0.123757412 0.107752089 -0.459775856
v -0.123193735 0.060828412 -0.441068236
v -0.102254996 0.085723549 -0.469413369
v -0.123193735 0.060828412 -0.441068236
v -0.123757412 0.107752089 -0.459775856
v -0.141564250 0.082682374 -0.436901177
v -0.130160290 0.162124783 -0.425506289
v -0.130510428 0.132723042 -0.445588918
v -0.119634312 0.150161764 -0.445908251
v -0.135129788 0.133122298 -0.426359786
v -0.130160290 0.162124783 -0.425506289
v -0.126313245 0.156538998 -0.406360791
v -0.130160290 0.162124783 -0.425506289
v -0.135129788 0.133122298 -0.426359786
v -0.130510428 0.132723042 -0.445588918
v -0.061167556 0.079447717 -0.465732644
v -0.076791443 0.098611361 -0.466286942
v -0.102254996 0.085723549 -0.469413369
v -0.102254996 0.085723549 -0.469413369
v -0.099862382 0.126519974 -0.458571696
v -0.123757412 0.107752089 -0.459775856
v -0.099862382 0.126519974 -0.458571696
v -0.102254996 0.085723549 -0.469413369
v -0.076791443 0.098611361 -0.466286942
v -0.119634312 0.150161764 -0.445908251
v -0.130510428 0.132723042 -0.445588918
v -0.123757412 0.107752089 -0.459775856
v -0.102254996 0.085723549 -0.469413369
v -0.123193735 0.060828412 -0.441068236
v -0.083514387 0.039699101 -0.449778962
v -0.061167556 0.079447717 -0.465732644
v -0.102254996 0.085723549 -0.469413369
v -0.083514387 0.039699101 -0.449778962
v -0.076271583 0.046226025 -0.356499851
v -0.090492790 0.070472639 -0.354565438
v -0.079117843 0.051116933 -0.358711206
v -0.090492790 0.070472639 -0.354565438
v -0.076271583 0.046226025 -0.356499851
v -0.089636010 0.066342723 -0.344743715
v -0.140887325 0.089636319 -0.405585520
v -0.138890564 0.098101173 -0.426324517
v -0.139338652 0.093924510 -0.389109110
v -0.138890564 0.098101173 -0.426324517
v -0.140887325 0.089636319 -0.405585520
v -0.148607394 0.091613471 -0.426183806
v -0.125261561 0.058676820 -0.398890596
v -0.128204554 0.074816153 -0.394221111
v -0.121738069 0.063004679 -0.398894054
v -0.128204554 0.074816153 -0.394221111
v -0.125261561 0.058676820 -0.398890596
v -0.132854674 0.072544682 -0.393403724
v -0.148607394 0.091613471 -0.426183806
v -0.121707552 0.119283166 -0.426776463
v -0.138890564 0.098101173 -0.426324517
v -0.121707552 0.119283166 -0.426776463
v -0.148607394 0.091613471 -0.426183806
v -0.135129788 0.133122298 -0.426359786
v -0.045577412 0.055171341 -0.352195022
v -0.079117843 0.051116933 -0.358711206
v -0.051306997 0.062654075 -0.362373569
v -0.079117843 0.051116933 -0.358711206
v -0.045577412 0.055171341 -0.352195022
v -0.076271583 0.046226025 -0.356499851
v -0.138614113 0.084732361 -0.375563182
v -0.139338652 0.093924510 -0.389109110
v -0.134979762 0.087170991 -0.372119692
v -0.139338652 0.093924510 -0.389109110
v -0.138614113 0.084732361 -0.375563182
v -0.140887325 0.089636319 -0.405585520
v -0.132682829 0.070957848 -0.380779988
v -0.134979762 0.087170991 -0.372119692
v -0.126852648 0.071731294 -0.377845165
v -0.134979762 0.087170991 -0.372119692
v -0.132682829 0.070957848 -0.380779988
v -0.138614113 0.084732361 -0.375563182
v -0.132854674 0.072544682 -0.393403724
v -0.126852648 0.071731294 -0.377845165
v -0.128204554 0.074816153 -0.394221111
v -0.126852648 0.071731294 -0.377845165
v -0.132854674 0.072544682 -0.393403724
v -0.132682829 0.070957848 -0.380779988
v -0.089636010 0.066342723 -0.344743715
v -0.092920963 0.083502100 -0.340698953
v -0.090492790 0.070472639 -0.354565438
v -0.092920963 0.083502100 -0.340698953
v -0.089636010 0.066342723 -0.344743715
v -0.092486674 0.081641480 -0.328461830
v -0.107457656 0.065617215 -0.358464031
v -0.092486674 0.081641480 -0.328461830
v -0.102405696 0.068065070 -0.363465497
v -0.092486674 0.081641480 -0.328461830
v -0.107457656 0.065617215 -0.358464031
v -0.092920963 0.083502100 -0.340698953
v -0.121738069 0.063004679 -0.398894054
v -0.102405696 0.068065070 -0.363465497
v -0.125261561 0.058676820 -0.398890596
v -0.102405696 0.068065070 -0.363465497
v -0.121738069 0.063004679 -0.398894054
v -0.107457656 0.065617215 -0.358464031
v -0.135129788 0.133122298 -0.426359786
v -0.119878530 0.148601803 -0.405154222
v -0.121707552 0.119283166 -0.426776463
v -0.119878530 0.148601803 -0.405154222
v -0.135129788 0.133122298 -0.426359786
v -0.126313245 0.156538998 -0.406360791
v -0.130510428 0.132723042 -0.445588918
v -0.141564250 0.082682374 -0.436901177
v -0.123757412 0.107752089 -0.459775856
v -0.125720196 0.040831057 -0.417651436
v -0.115703147 0.045373235 -0.398602678
v -0.080103045 0.033057589 -0.406090464
vt 0.547159016 0.892579973
vt 0.623470008 0.950547993
vt 0.564655006 0.975055993
vt 0.623470008 0.950547993
vt 0.547159016 0.892579973
vt 0.598622978 0.908309996
vt 0.575388014 0.633992016
vt 0.536593974 0.552173972
vt 0.614920020 0.582588017
vt 0.466116011 0.797484994
vt 0.496448994 0.701074004
vt 0.496257007 0.760087013
vt 0.496448994 0.701074004
vt 0.466116011 0.797484994
vt 0.471264988 0.745384991
vt 0.501564980 0.825398982
vt 0.543417990 0.793291986
vt 0.537249982 0.835762024
vt 0.501564980 0.825398982
vt 0.496257007 0.760087013
vt 0.543417990 0.793291986
vt 0.466116011 0.797484994
vt 0.496257007 0.760087013
vt 0.501564980 0.825398982
vt 0.598622978 0.908309996
vt 0.537249982 0.835762024
vt 0.618745983 0.844866991
vt 0.537249982 0.835762024
vt 0.598622978 0.908309996
vt 0.547159016 0.892579973
vt 0.701747000 0.848196030
vt 0.635069013 0.764032006
vt 0.702112973 0.763076007
vt 0.635069013 0.764032006
vt 0.701747000 0.848196030
vt 0.618745983 0.844866991
vt 0.524047971 0.597316980
vt 0.496448994 0.701074004
vt 0.482524008 0.605809987
vt 0.525842011 0.700514972
vt 0.543417990 0.793291986
vt 0.496257007 0.760087013
vt 0.543417990 0.793291986
vt 0.525842011 0.700514972
vt 0.563948989 0.731159985
vt 0.635069013 0.764032006
vt 0.702381015 0.698305011
vt 0.702112973 0.763076007
vt 0.525842011 0.700514972
vt 0.496448994 0.701074004
vt 0.524047971 0.597316980
vt 0.496448994 0.701074004
vt 0.525842011 0.700514972
vt 0.496257007 0.760087013
vt 0.701799989 0.954851985
vt 0.598622978 0.908309996
vt 0.701798975 0.923744023
vt 0.598622978 0.908309996
vt 0.701799989 0.954851985
vt 0.623470008 0.950547993
vt 0.701798975 0.923744023
vt 0.618745983 0.844866991
vt 0.701747000 0.848196030
vt 0.618745983 0.844866991
vt 0.701798975 0.923744023
vt 0.598622978 0.908309996
vt 0.635069013 0.764032006
vt 0.618745983 0.844866991
vt 0.543417990 0.793291986
vt 0.563948989 0.731159985
vt 0.635069013 0.764032006
vt 0.543417990 0.793291986
vt 0.416601986 0.771685004
vt 0.466116011 0.797484994
vt 0.436928988 0.798636973
vt 0.466116011 0.797484994
vt 0.416601986 0.771685004
vt 0.471264988 0.745384991
vt 0.564655006 0.975055993
vt 0.510908008 0.926572025
vt 0.547159016 0.892579973
vt 0.510908008 0.926572025
vt 0.564655006 0.975055993
vt 0.535815001 1.001693010
vt 0.547159016 0.892579973
vt 0.501564980 0.825398982
vt 0.537249982 0.835762024
vt 0.501564980 0.825398982
vt 0.547159016 0.892579973
vt 0.510908008 0.926572025
vt 0.575388014 0.633992016
vt 0.563948989 0.731159985
vt 0.525842011 0.700514972
vt 0.563948989 0.731159985
vt 0.575388014 0.633992016
vt 0.629576027 0.662782013
vt 0.482804000 0.537523985
vt 0.536593974 0.552173972
vt 0.524047971 0.597316980
vt 0.482524008 0.605809987
vt 0.482804000 0.537523985
vt 0.524047971 0.597316980
vt 0.482804000 0.537523985
vt 0.482524008 0.605809987
vt 0.443269014 0.548183978
vt 0.702381015 0.698305011
vt 0.629576027 0.662782013
vt 0.701249003 0.643194973
vt 0.629576027 0.662782013
vt 0.614920020 0.582588017
vt 0.701249003 0.643194973
vt 0.614920020 0.582588017
vt 0.629576027 0.662782013
vt 0.575388014 0.633992016
vt 0.536593974 0.552173972
vt 0.575388014 0.633992016
vt 0.524047971 0.597316980
vt 0.629576027 0.662782013
vt 0.635069013 0.764032006
vt 0.563948989 0.731159985
vt 0.702381015 0.698305011
vt 0.635069013 0.764032006
vt 0.629576027 0.662782013
vt 0.623470008 0.950547993
vt 0.581928015 0.993404984
vt 0.564655006 0.975055993
vt 0.581928015 0.993404984
vt 0.623470008 0.950547993
vt 0.623659015 0.964627981
vt 0.471264988 0.745384991
vt 0.477443010 0.687121987
vt 0.496448994 0.701074004
vt 0.477443010 0.687121987
vt 0.471264988 0.745384991
vt 0.443235993 0.755833983
vt 0.501564980 0.825398982
vt 0.465986997 0.810808003
vt 0.466116011 0.797484994
vt 0.465986997 0.810808003
vt 0.501564980 0.825398982
vt 0.495902985 0.832556009
vt 0.496448994 0.701074004
vt 0.452951014 0.635303020
vt 0.482524008 0.605809987
vt 0.452951014 0.635303020
vt 0.496448994 0.701074004
vt 0.477443010 0.687121987
vt 0.701799989 0.954851985
vt 0.623659015 0.964627981
vt 0.623470008 0.950547993
vt 0.623659015 0.964627981
vt 0.701799989 0.954851985
vt 0.701831996 0.978793979
vt 0.416601986 0.771685004
vt 0.443235993 0.755833983
vt 0.471264988 0.745384991
vt 0.443235993 0.755833983
vt 0.416601986 0.771685004
vt 0.405966997 0.769429982
vt 0.436928988 0.798636973
vt 0.405966997 0.769429982
vt 0.416601986 0.771685004
vt 0.405966997 0.769429982
vt 0.436928988 0.798636973
vt 0.428570986 0.807705998
vt 0.466116011 0.797484994
vt 0.428570986 0.807705998
vt 0.436928988 0.798636973
vt 0.428570986 0.807705998
vt 0.466116011 0.797484994
vt 0.465986997 0.810808003
vt 0.564655006 0.975055993
vt 0.536336005 0.997380018
vt 0.535815001 1.001693010
vt 0.536336005 0.997380018
vt 0.564655006 0.975055993
vt 0.581928015 0.993404984
vt 0.506120980 0.928981006
vt 0.535815001 1.001693010
vt 0.536336005 0.997380018
vt 0.535815001 1.001693010
vt 0.506120980 0.928981006
vt 0.510908008 0.926572025
vt 0.495902985 0.832556009
vt 0.510908008 0.926572025
vt 0.506120980 0.928981006
vt 0.510908008 0.926572025
vt 0.495902985 0.832556009
vt 0.501564980 0.825398982
vt 0.482524008 0.605809987
vt 0.430467993 0.564294994
vt 0.443269014 0.548183978
vt 0.430467993 0.564294994
vt 0.482524008 0.605809987
vt 0.452951014 0.635303020
vt 0.524047971 0.597316980
vt 0.575388014 0.633992016
vt 0.525842011 0.700514972
vt 0.543417990 0.793291986
vt 0.618745983 0.844866991
vt 0.537249982 0.835762024
vt 0.856059015 0.892018974
vt 0.780059993 0.950192988
vt 0.804904997 0.907872021
vt 0.780059993 0.950192988
vt 0.856059015 0.892018974
vt 0.838787019 0.974663019
vt 0.834345996 0.623040974
vt 0.769070983 0.578867018
vt 0.903346002 0.554719985
vt 0.935509026 0.800552011
vt 0.912904978 0.703616977
vt 0.933768988 0.750177979
vt 0.912904978 0.703616977
vt 0.935509026 0.800552011
vt 0.906023026 0.760452986
vt 0.859230995 0.791541994
vt 0.899888992 0.825468004
vt 0.864673972 0.834962010
vt 0.906023026 0.760452986
vt 0.899888992 0.825468004
vt 0.859230995 0.791541994
vt 0.935509026 0.800552011
vt 0.899888992 0.825468004
vt 0.906023026 0.760452986
vt 0.804904997 0.907872021
vt 0.864673972 0.834962010
vt 0.856059015 0.892018974
vt 0.864673972 0.834962010
vt 0.804904997 0.907872021
vt 0.784198999 0.844097972
vt 0.701747000 0.848196030
vt 0.769288003 0.761848986
vt 0.784198999 0.844097972
vt 0.769288003 0.761848986
vt 0.701747000 0.848196030
vt 0.702112973 0.763076007
vt 0.899870992 0.597337008
vt 0.938205004 0.614369988
vt 0.912904978 0.703616977
vt 0.880010009 0.697547972
vt 0.859230995 0.791541994
vt 0.840429008 0.727449000
vt 0.859230995 0.791541994
vt 0.880010009 0.697547972
vt 0.906023026 0.760452986
vt 0.769288003 0.761848986
vt 0.702112973 0.763076007
vt 0.702381015 0.698305011
vt 0.880010009 0.697547972
vt 0.912904978 0.703616977
vt 0.906023026 0.760452986
vt 0.912904978 0.703616977
vt 0.880010009 0.697547972
vt 0.899870992 0.597337008
vt 0.701799989 0.954851985
vt 0.804904997 0.907872021
vt 0.780059993 0.950192988
vt 0.804904997 0.907872021
vt 0.701799989 0.954851985
vt 0.701798975 0.923744023
vt 0.701798975 0.923744023
vt 0.784198999 0.844097972
vt 0.804904997 0.907872021
vt 0.784198999 0.844097972
vt 0.701798975 0.923744023
vt 0.701747000 0.848196030
vt 0.769288003 0.761848986
vt 0.859230995 0.791541994
vt 0.784198999 0.844097972
vt 0.840429008 0.727449000
vt 0.859230995 0.791541994
vt 0.769288003 0.761848986
vt 0.987073004 0.777397990
vt 0.935509026 0.800552011
vt 0.933768988 0.750177979
vt 0.935509026 0.800552011
vt 0.987073004 0.777397990
vt 0.965135992 0.803327024
vt 0.838787019 0.974663019
vt 0.892302990 0.926320016
vt 0.867556989 1.001423001
vt 0.892302990 0.926320016
vt 0.838787019 0.974663019
vt 0.856059015 0.892018974
vt 0.856059015 0.892018974
vt 0.899888992 0.825468004
vt 0.892302990 0.926320016
vt 0.899888992 0.825468004
vt 0.856059015 0.892018974
vt 0.864673972 0.834962010
vt 0.834345996 0.623040974
vt 0.840429008 0.727449000
vt 0.775618017 0.658420026
vt 0.840429008 0.727449000
vt 0.834345996 0.623040974
vt 0.880010009 0.697547972
vt 0.960444987 0.555580974
vt 0.899870992 0.597337008
vt 0.903346002 0.554719985
vt 0.938205004 0.614369988
vt 0.960444987 0.555580974
vt 0.994813025 0.578773022
vt 0.960444987 0.555580974
vt 0.938205004 0.614369988
vt 0.899870992 0.597337008
vt 0.702381015 0.698305011
vt 0.701249003 0.643194973
vt 0.775618017 0.658420026
vt 0.775618017 0.658420026
vt 0.769070983 0.578867018
vt 0.834345996 0.623040974
vt 0.769070983 0.578867018
vt 0.775618017 0.658420026
vt 0.701249003 0.643194973
vt 0.903346002 0.554719985
vt 0.899870992 0.597337008
vt 0.834345996 0.623040974
vt 0.775618017 0.658420026
vt 0.840429008 0.727449000
vt 0.769288003 0.761848986
vt 0.702381015 0.698305011
vt 0.775618017 0.658420026
vt 0.769288003 0.761848986
vt 0.780059993 0.950192988
vt 0.821519971 0.993003011
vt 0.779891014 0.964271009
vt 0.821519971 0.993003011
vt 0.780059993 0.950192988
vt 0.838787019 0.974663019
vt 0.933768988 0.750177979
vt 0.933595002 0.692207992
vt 0.960435987 0.762238026
vt 0.933595002 0.692207992
vt 0.933768988 0.750177979
vt 0.912904978 0.703616977
vt 0.899888992 0.825468004
vt 0.935525000 0.813561022
vt 0.905080974 0.833117008
vt 0.935525000 0.813561022
vt 0.899888992 0.825468004
vt 0.935509026 0.800552011
vt 0.912904978 0.703616977
vt 0.966790974 0.643610001
vt 0.933595002 0.692207992
vt 0.966790974 0.643610001
vt 0.912904978 0.703616977
vt 0.938205004 0.614369988
vt 0.701799989 0.954851985
vt 0.779891014 0.964271009
vt 0.701831996 0.978793979
vt 0.779891014 0.964271009
vt 0.701799989 0.954851985
vt 0.780059993 0.950192988
vt 0.987073004 0.777397990
vt 0.960435987 0.762238026
vt 0.997792006 0.775247991
vt 0.960435987 0.762238026
vt 0.987073004 0.777397990
vt 0.933768988 0.750177979
vt 0.965135992 0.803327024
vt 0.997792006 0.775247991
vt 0.972985029 0.812638998
vt 0.997792006 0.775247991
vt 0.965135992 0.803327024
vt 0.987073004 0.777397990
vt 0.935509026 0.800552011
vt 0.972985029 0.812638998
vt 0.935525000 0.813561022
vt 0.972985029 0.812638998
vt 0.935509026 0.800552011
vt 0.965135992 0.803327024
vt 0.838787019 0.974663019
vt 0.867008984 0.997119009
vt 0.821519971 0.993003011
vt 0.867008984 0.997119009
vt 0.838787019 0.974663019
vt 0.867556989 1.001423001
vt 0.897174001 0.928879976
vt 0.867556989 1.001423001
vt 0.892302990 0.926320016
vt 0.867556989 1.001423001
vt 0.897174001 0.928879976
vt 0.867008984 0.997119009
vt 0.905080974 0.833117008
vt 0.892302990 0.926320016
vt 0.899888992 0.825468004
vt 0.892302990 0.926320016
vt 0.905080974 0.833117008
vt 0.897174001 0.928879976
vt 0.938205004 0.614369988
vt 0.983116984 0.568921030
vt 0.966790974 0.643610001
vt 0.983116984 0.568921030
vt 0.938205004 0.614369988
vt 0.967749000 0.553937972
vt 0.899870992 0.597337008
vt 0.880010009 0.697547972
vt 0.834345996 0.623040974
vt 0.859230995 0.791541994
vt 0.864673972 0.834962010
vt 0.784198999 0.844097972
vn 0.574751033 0.533869632 0.620197118
vn 0.502729639 -0.169962366 0.847570471
vn 0.340392153 0.138298942 0.930057302
vn 0.502729639 -0.169962366 0.847570471
vn 0.574751033 0.533869632 0.620197118
vn 0.946772129 -0.168509785 0.274275387
vn 0.131035257 0.560783585 -0.817527695
vn -0.325913164 0.437457190 -0.838100123
vn -0.166728861 0.247769343 -0.954364626
vn 0.447808035 0.772705611 0.449882210
vn 0.013508201 0.971814694 0.235358726
vn 0.582568278 0.789425920 0.193444873
vn 0.013508201 0.971814694 0.235358726
vn 0.447808035 0.772705611 0.449882210
vn 0.196979063 0.960776776 0.195210748
vn 0.392452950 0.706957393 0.588380767
vn 0.930568055 0.339430050 -0.137223673
vn 0.962202574 0.234123842 0.139112307
vn 0.392452950 0.706957393 0.588380767
vn 0.582568278 0.789425920 0.193444873
vn 0.930568055 0.339430050 -0.137223673
vn 0.447808035 0.772705611 0.449882210
vn 0.582568278 0.789425920 0.193444873
vn 0.392452950 0.706957393 0.588380767
vn 0.946772129 -0.168509785 0.274275387
vn 0.962202574 0.234123842 0.139112307
vn 0.948301112 -0.313911366 -0.046740296
vn 0.962202574 0.234123842 0.139112307
vn 0.946772129 -0.168509785 0.274275387
vn 0.574751033 0.533869632 0.620197118
vn 0.627545495 -0.761256456 -0.163325626
vn 0.825278020 -0.149747630 -0.544510640
vn 0.560176071 -0.663562819 -0.495870098
vn 0.825278020 -0.149747630 -0.544510640
vn 0.627545495 -0.761256456 -0.163325626
vn 0.948301112 -0.313911366 -0.046740296
vn -0.017247836 0.881792960 -0.471321216
vn 0.013508201 0.971814694 0.235358726
vn 0.144134119 0.861337266 0.487158568
vn 0.420029928 0.727624761 -0.542344048
vn 0.930568055 0.339430050 -0.137223673
vn 0.582568278 0.789425920 0.193444873
vn 0.930568055 0.339430050 -0.137223673
vn 0.420029928 0.727624761 -0.542344048
vn 0.594200931 0.465740538 -0.655752243
vn 0.825278020 -0.149747630 -0.544510640
vn 0.218151686 -0.223891450 -0.949885499
vn 0.560176071 -0.663562819 -0.495870098
vn 0.420029928 0.727624761 -0.542344048
vn 0.013508201 0.971814694 0.235358726
vn -0.017247836 0.881792960 -0.471321216
vn 0.013508201 0.971814694 0.235358726
vn 0.420029928 0.727624761 -0.542344048
vn 0.582568278 0.789425920 0.193444873
vn 0.249723568 -0.347133536 0.903955999
vn 0.946772129 -0.168509785 0.274275387
vn 0.627350454 -0.772833907 0.095703504
vn 0.946772129 -0.168509785 0.274275387
vn 0.249723568 -0.347133536 0.903955999
vn 0.502729639 -0.169962366 0.847570471
vn 0.627350454 -0.772833907 0.095703504
vn 0.948301112 -0.313911366 -0.046740296
vn 0.627545495 -0.761256456 -0.163325626
vn 0.948301112 -0.313911366 -0.046740296
vn 0.627350454 -0.772833907 0.095703504
vn 0.946772129 -0.168509785 0.274275387
vn 0.825278020 -0.149747630 -0.544510640
vn 0.948301112 -0.313911366 -0.046740296
vn 0.930568055 0.339430050 -0.137223673
vn 0.594200931 0.465740538 -0.655752243
vn 0.825278020 -0.149747630 -0.544510640
vn 0.930568055 0.339430050 -0.137223673
vn 0.455238503 0.875291096 0.163166792
vn 0.447808035 0.772705611 0.449882210
vn 0.753678068 0.490265412 0.437731876
vn 0.447808035 0.772705611 0.449882210
vn 0.455238503 0.875291096 0.163166792
vn 0.196979063 0.960776776 0.195210748
vn 0.340392153 0.138298942 0.930057302
vn 0.269207318 0.739557605 0.616913259
vn 0.574751033 0.533869632 0.620197118
vn 0.269207318 0.739557605 0.616913259
vn 0.340392153 0.138298942 0.930057302
vn 0.687916010 0.292232361 0.664358194
vn 0.574751033 0.533869632 0.620197118
vn 0.392452950 0.706957393 0.588380767
vn 0.962202574 0.234123842 0.139112307
vn 0.392452950 0.706957393 0.588380767
vn 0.574751033 0.533869632 0.620197118
vn 0.269207318 0.739557605 0.616913259
vn 0.131035257 0.560783585 -0.817527695
vn 0.594200931 0.465740538 -0.655752243
vn 0.420029928 0.727624761 -0.542344048
vn 0.594200931 0.465740538 -0.655752243
vn 0.131035257 0.560783585 -0.817527695
vn 0.297755889 0.227374319 -0.927168997
vn -0.611693111 0.759401269 -0.221678258
vn -0.325913164 0.437457190 -0.838100123
vn -0.017247836 0.881792960 -0.471321216
vn 0.144134119 0.861337266 0.487158568
vn -0.611693111 0.759401269 -0.221678258
vn -0.017247836 0.881792960 -0.471321216
vn -0.611693111 0.759401269 -0.221678258
vn 0.144134119 0.861337266 0.487158568
vn -0.500000808 0.583269720 0.640152814
vn 0.218151686 -0.223891450 -0.949885499
vn 0.297755889 0.227374319 -0.927168997
vn -0.051654959 0.108561367 -0.992746793
vn 0.297755889 0.227374319 -0.927168997
vn -0.166728861 0.247769343 -0.954364626
vn -0.051654959 0.108561367 -0.992746793
vn -0.166728861 0.247769343 -0.954364626
vn 0.297755889 0.227374319 -0.927168997
vn 0.131035257 0.560783585 -0.817527695
vn -0.325913164 0.437457190 -0.838100123
vn 0.131035257 0.560783585 -0.817527695
vn -0.017247836 0.881792960 -0.471321216
vn 0.297755889 0.227374319 -0.927168997
vn 0.825278020 -0.149747630 -0.544510640
vn 0.594200931 0.465740538 -0.655752243
vn 0.218151686 -0.223891450 -0.949885499
vn 0.825278020 -0.149747630 -0.544510640
vn 0.297755889 0.227374319 -0.927168997
vn 0.502729639 -0.169962366 0.847570471
vn -0.573353858 -0.819192650 0.013738889
vn 0.340392153 0.138298942 0.930057302
vn -0.573353858 -0.819192650 0.013738889
vn 0.502729639 -0.169962366 0.847570471
vn -0.653896658 0.214586231 0.725514927
vn 0.196979063 0.960776776 0.195210748
vn -0.412016242 0.835937257 0.362562433
vn 0.013508201 0.971814694 0.235358726
vn -0.412016242 0.835937257 0.362562433
vn 0.196979063 0.960776776 0.195210748
vn -0.039795189 0.988743668 0.144230035
vn 0.392452950 0.706957393 0.588380767
vn 0.463098746 -0.544787606 0.699103723
vn 0.447808035 0.772705611 0.449882210
vn 0.463098746 -0.544787606 0.699103723
vn 0.392452950 0.706957393 0.588380767
vn 0.800871628 -0.084207640 0.592885916
vn 0.013508201 0.971814694 0.235358726
vn 0.214914081 0.119217617 0.969329200
vn 0.144134119 0.861337266 0.487158568
vn 0.214914081 0.119217617 0.969329200
vn 0.013508201 0.971814694 0.235358726
vn -0.412016242 0.835937257 0.362562433
vn 0.249723568 -0.347133536 0.903955999
vn -0.653896658 0.214586231 0.725514927
vn 0.502729639 -0.169962366 0.847570471
vn -0.653896658 0.214586231 0.725514927
vn 0.249723568 -0.347133536 0.903955999
vn -0.479392279 0.556262957 0.678789044
vn 0.455238503 0.875291096 0.163166792
vn -0.039795189 0.988743668 0.144230035
vn 0.196979063 0.960776776 0.195210748
vn -0.039795189 0.988743668 0.144230035
vn 0.455238503 0.875291096 0.163166792
vn 0.276331034 0.488206032 0.827826087
vn 0.753678068 0.490265412 0.437731876
vn 0.276331034 0.488206032 0.827826087
vn 0.455238503 0.875291096 0.163166792
vn 0.276331034 0.488206032 0.827826087
vn 0.753678068 0.490265412 0.437731876
vn 0.906011795 -0.238562102 0.349615147
vn 0.447808035 0.772705611 0.449882210
vn 0.906011795 -0.238562102 0.349615147
vn 0.753678068 0.490265412 0.437731876
vn 0.906011795 -0.238562102 0.349615147
vn 0.447808035 0.772705611 0.449882210
vn 0.463098746 -0.544787606 0.699103723
vn 0.340392153 0.138298942 0.930057302
vn -0.938967586 -0.339323342 0.056564493
vn 0.687916010 0.292232361 0.664358194
vn -0.938967586 -0.339323342 0.056564493
vn 0.340392153 0.138298942 0.930057302
vn -0.573353858 -0.819192650 0.013738889
vn 0.948160164 -0.243722180 0.203940682
vn 0.687916010 0.292232361 0.664358194
vn -0.938967586 -0.339323342 0.056564493
vn 0.687916010 0.292232361 0.664358194
vn 0.948160164 -0.243722180 0.203940682
vn 0.269207318 0.739557605 0.616913259
vn 0.800871628 -0.084207640 0.592885916
vn 0.269207318 0.739557605 0.616913259
vn 0.948160164 -0.243722180 0.203940682
vn 0.269207318 0.739557605 0.616913259
vn 0.800871628 -0.084207640 0.592885916
vn 0.392452950 0.706957393 0.588380767
vn 0.144134119 0.861337266 0.487158568
vn -0.005887761 -0.038371344 0.999246203
vn -0.500000808 0.583269720 0.640152814
vn -0.005887761 -0.038371344 0.999246203
vn 0.144134119 0.861337266 0.487158568
vn 0.214914081 0.119217617 0.969329200
vn -0.017247836 0.881792960 -0.471321216
vn 0.131035257 0.560783585 -0.817527695
vn 0.420029928 0.727624761 -0.542344048
vn 0.930568055 0.339430050 -0.137223673
vn 0.948301112 -0.313911366 -0.046740296
vn 0.962202574 0.234123842 0.139112307
vn -0.664793498 -0.478051216 0.574035400
vn 0.028412119 -0.557178616 0.829906465
vn -0.035841929 -0.970681534 0.237681961
vn 0.028412119 -0.557178616 0.829906465
vn -0.664793498 -0.478051216 0.574035400
vn -0.244713215 -0.339360640 0.908267471
vn -0.538566541 0.014144071 -0.842464258
vn -0.166728861 0.247769343 -0.954364626
vn -0.325913164 0.437457190 -0.838100123
vn -0.865714482 -0.299608264 0.400965490
vn -0.964558408 0.173355337 0.198934674
vn -0.988499385 -0.007006369 0.151062493
vn -0.964558408 0.173355337 0.198934674
vn -0.865714482 -0.299608264 0.400965490
vn -0.897469336 -0.418825071 0.138326970
vn -0.511485659 -0.837812206 -0.190927021
vn -0.796510970 -0.263671197 0.544102725
vn -0.427036934 -0.900002737 0.087375797
vn -0.897469336 -0.418825071 0.138326970
vn -0.796510970 -0.263671197 0.544102725
vn -0.511485659 -0.837812206 -0.190927021
vn -0.865714482 -0.299608264 0.400965490
vn -0.796510970 -0.263671197 0.544102725
vn -0.897469336 -0.418825071 0.138326970
vn -0.035841929 -0.970681534 0.237681961
vn -0.427036934 -0.900002737 0.087375797
vn -0.664793498 -0.478051216 0.574035400
vn -0.427036934 -0.900002737 0.087375797
vn -0.035841929 -0.970681534 0.237681961
vn 0.120530163 -0.989674597 -0.077567214
vn 0.627545495 -0.761256456 -0.163325626
vn 0.006552268 -0.818126691 -0.575000682
vn 0.120530163 -0.989674597 -0.077567214
vn 0.006552268 -0.818126691 -0.575000682
vn 0.627545495 -0.761256456 -0.163325626
vn 0.560176071 -0.663562819 -0.495870098
vn -0.838747728 0.211149173 -0.501914611
vn -0.893666386 0.014113231 0.448509986
vn -0.964558408 0.173355337 0.198934674
vn -0.771739912 -0.245294498 -0.586726613
vn -0.511485659 -0.837812206 -0.190927021
vn -0.544991239 -0.464256151 -0.698176751
vn -0.511485659 -0.837812206 -0.190927021
vn -0.771739912 -0.245294498 -0.586726613
vn -0.897469336 -0.418825071 0.138326970
vn 0.006552268 -0.818126691 -0.575000682
vn 0.560176071 -0.663562819 -0.495870098
vn 0.218151686 -0.223891450 -0.949885499
vn -0.771739912 -0.245294498 -0.586726613
vn -0.964558408 0.173355337 0.198934674
vn -0.897469336 -0.418825071 0.138326970
vn -0.964558408 0.173355337 0.198934674
vn -0.771739912 -0.245294498 -0.586726613
vn -0.838747728 0.211149173 -0.501914611
vn 0.249723568 -0.347133536 0.903955999
vn -0.035841929 -0.970681534 0.237681961
vn 0.028412119 -0.557178616 0.829906465
vn -0.035841929 -0.970681534 0.237681961
vn 0.249723568 -0.347133536 0.903955999
vn 0.627350454 -0.772833907 0.095703504
vn 0.627350454 -0.772833907 0.095703504
vn 0.120530163 -0.989674597 -0.077567214
vn -0.035841929 -0.970681534 0.237681961
vn 0.120530163 -0.989674597 -0.077567214
vn 0.627350454 -0.772833907 0.095703504
vn 0.627545495 -0.761256456 -0.163325626
vn 0.006552268 -0.818126691 -0.575000682
vn -0.511485659 -0.837812206 -0.190927021
vn 0.120530163 -0.989674597 -0.077567214
vn -0.544991239 -0.464256151 -0.698176751
vn -0.511485659 -0.837812206 -0.190927021
vn 0.006552268 -0.818126691 -0.575000682
vn -0.954816298 -0.275828360 0.110655112
vn -0.865714482 -0.299608264 0.400965490
vn -0.988499385 -0.007006369 0.151062493
vn -0.865714482 -0.299608264 0.400965490
vn -0.954816298 -0.275828360 0.110655112
vn -0.649593211 -0.655316235 0.385472817
vn -0.244713215 -0.339360640 0.908267471
vn -0.805153935 -0.137513363 0.576903125
vn -0.452752481 -0.638969546 0.621878694
vn -0.805153935 -0.137513363 0.576903125
vn -0.244713215 -0.339360640 0.908267471
vn -0.664793498 -0.478051216 0.574035400
vn -0.664793498 -0.478051216 0.574035400
vn -0.796510970 -0.263671197 0.544102725
vn -0.805153935 -0.137513363 0.576903125
vn -0.796510970 -0.263671197 0.544102725
vn -0.664793498 -0.478051216 0.574035400
vn -0.427036934 -0.900002737 0.087375797
vn -0.538566541 0.014144071 -0.842464258
vn -0.544991239 -0.464256151 -0.698176751
vn -0.240482903 -0.212025027 -0.947213472
vn -0.544991239 -0.464256151 -0.698176751
vn -0.538566541 0.014144071 -0.842464258
vn -0.771739912 -0.245294498 -0.586726613
vn -0.611693111 0.759401269 -0.221678258
vn -0.838747728 0.211149173 -0.501914611
vn -0.325913164 0.437457190 -0.838100123
vn -0.893666386 0.014113231 0.448509986
vn -0.611693111 0.759401269 -0.221678258
vn -0.500000808 0.583269720 0.640152814
vn -0.611693111 0.759401269 -0.221678258
vn -0.893666386 0.014113231 0.448509986
vn -0.838747728 0.211149173 -0.501914611
vn 0.218151686 -0.223891450 -0.949885499
vn -0.051654959 0.108561367 -0.992746793
vn -0.240482903 -0.212025027 -0.947213472
vn -0.240482903 -0.212025027 -0.947213472
vn -0.166728861 0.247769343 -0.954364626
vn -0.538566541 0.014144071 -0.842464258
vn -0.166728861 0.247769343 -0.954364626
vn -0.240482903 -0.212025027 -0.947213472
vn -0.051654959 0.108561367 -0.992746793
vn -0.325913164 0.437457190 -0.838100123
vn -0.838747728 0.211149173 -0.501914611
vn -0.538566541 0.014144071 -0.842464258
vn -0.240482903 -0.212025027 -0.947213472
vn -0.544991239 -0.464256151 -0.698176751
vn 0.006552268 -0.818126691 -0.575000682
vn 0.218151686 -0.223891450 -0.949885499
vn -0.240482903 -0.212025027 -0.947213472
vn 0.006552268 -0.818126691 -0.575000682
vn 0.028412119 -0.557178616 0.829906465
vn 0.915522011 0.396273584 0.069185942
vn -0.112240951 0.656775002 0.745686640
vn 0.915522011 0.396273584 0.069185942
vn 0.028412119 -0.557178616 0.829906465
vn -0.244713215 -0.339360640 0.908267471
vn -0.988499385 -0.007006369 0.151062493
vn -0.752475787 0.557998008 0.349883428
vn -0.966445699 0.232258619 0.109720759
vn -0.752475787 0.557998008 0.349883428
vn -0.988499385 -0.007006369 0.151062493
vn -0.964558408 0.173355337 0.198934674
vn -0.796510970 -0.263671197 0.544102725
vn 0.409870045 -0.588241657 0.697121438
vn -0.103540799 -0.822538333 0.559204787
vn 0.409870045 -0.588241657 0.697121438
vn -0.796510970 -0.263671197 0.544102725
vn -0.865714482 -0.299608264 0.400965490
vn -0.964558408 0.173355337 0.198934674
vn -0.202797549 -0.221787565 0.953773259
vn -0.752475787 0.557998008 0.349883428
vn -0.202797549 -0.221787565 0.953773259
vn -0.964558408 0.173355337 0.198934674
vn -0.893666386 0.014113231 0.448509986
vn 0.249723568 -0.347133536 0.903955999
vn -0.112240951 0.656775002 0.745686640
vn -0.479392279 0.556262957 0.678789044
vn -0.112240951 0.656775002 0.745686640
vn 0.249723568 -0.347133536 0.903955999
vn 0.028412119 -0.557178616 0.829906465
vn -0.954816298 -0.275828360 0.110655112
vn -0.966445699 0.232258619 0.109720759
vn -0.569931009 -0.202652726 0.796310566
vn -0.966445699 0.232258619 0.109720759
vn -0.954816298 -0.275828360 0.110655112
vn -0.988499385 -0.007006369 0.151062493
vn -0.649593211 -0.655316235 0.385472817
vn -0.569931009 -0.202652726 0.796310566
vn 0.037488951 -0.947593773 0.317270578
vn -0.569931009 -0.202652726 0.796310566
vn -0.649593211 -0.655316235 0.385472817
vn -0.954816298 -0.275828360 0.110655112
vn -0.865714482 -0.299608264 0.400965490
vn 0.037488951 -0.947593773 0.317270578
vn 0.409870045 -0.588241657 0.697121438
vn 0.037488951 -0.947593773 0.317270578
vn -0.865714482 -0.299608264 0.400965490
vn -0.649593211 -0.655316235 0.385472817
vn -0.244713215 -0.339360640 0.908267471
vn 0.516656068 0.848996940 0.110773201
vn 0.915522011 0.396273584 0.069185942
vn 0.516656068 0.848996940 0.110773201
vn -0.244713215 -0.339360640 0.908267471
vn -0.452752481 -0.638969546 0.621878694
vn 0.040651751 -0.984580299 0.170144260
vn -0.452752481 -0.638969546 0.621878694
vn -0.805153935 -0.137513363 0.576903125
vn -0.452752481 -0.638969546 0.621878694
vn 0.040651751 -0.984580299 0.170144260
vn 0.516656068 0.848996940 0.110773201
vn -0.103540799 -0.822538333 0.559204787
vn -0.805153935 -0.137513363 0.576903125
vn -0.796510970 -0.263671197 0.544102725
vn -0.805153935 -0.137513363 0.576903125
vn -0.103540799 -0.822538333 0.559204787
vn 0.040651751 -0.984580299 0.170144260
vn -0.893666386 0.014113231 0.448509986
vn -0.005887761 -0.038371344 0.999246203
vn -0.202797549 -0.221787565 0.953773259
vn -0.005887761 -0.038371344 0.999246203
vn -0.893666386 0.014113231 0.448509986
vn -0.500000808 0.583269720 0.640152814
vn -0.838747728 0.211149173 -0.501914611
vn -0.771739912 -0.245294498 -0.586726613
vn -0.538566541 0.014144071 -0.842464258
vn -0.511485659 -0.837812206 -0.190927021
vn -0.427036934 -0.900002737 0.087375797
vn 0.120530163 -0.989674597 -0.077567214
f 3/3/3 2/2/2 1/1/1
f 6/6/6 5/5/5 4/4/4
f 9/9/9 8/8/8 7/7/7
f 12/12/12 11/11/11 10/10/10
f 15/15/15 14/14/14 13/13/13
f 18/18/18 17/17/17 16/16/16
f 21/21/21 20/20/20 19/19/19
f 24/24/24 23/23/23 22/22/22
f 27/27/27 26/26/26 25/25/25
f 30/30/30 29/29/29 28/28/28
f 33/33/33 32/32/32 31/31/31
f 36/36/36 35/35/35 34/34/34
f 39/39/39 38/38/38 37/37/37
f 42/42/42 41/41/41 40/40/40
f 45/45/45 44/44/44 43/43/43
f 48/48/48 47/47/47 46/46/46
f 51/51/51 50/50/50 49/49/49
f 54/54/54 53/53/53 52/52/52
f 57/57/57 56/56/56 55/55/55
f 60/60/60 59/59/59 58/58/58
f 63/63/63 62/62/62 61/61/61
f 66/66/66 65/65/65 64/64/64
f 69/69/69 68/68/68 67/67/67
f 72/72/72 71/71/71 70/70/70
f 75/75/75 74/74/74 73/73/73
f 78/78/78 77/77/77 76/76/76
f 81/81/81 80/80/80 79/79/79
f 84/84/84 83/83/83 82/82/82
f 87/87/87 86/86/86 85/85/85
f 90/90/90 89/89/89 88/88/88
f 93/93/93 92/92/92 91/91/91
f 96/96/96 95/95/95 94/94/94
f 99/99/99 98/98/98 97/97/97
f 102/102/102 101/101/101 100/100/100
f 105/105/105 104/104/104 103/103/103
f 108/108/108 107/107/107 106/106/106
f 111/111/111 110/110/110 109/109/109
f 114/114/114 113/113/113 112/112/112
f 117/117/117 116/116/116 115/115/115
f 120/120/120 119/119/119 118/118/118
f 123/123/123 122/122/122 121/121/121
f 126/126/126 125/125/125 124/124/124
f 129/129/129 128/128/128 127/127/127
f 132/132/132 131/131/131 130/130/130
f 135/135/135 134/134/134 133/133/133
f 138/138/138 137/137/137 136/136/136
f 141/141/141 140/140/140 139/139/139
f 144/144/144 143/143/143 142/142/142
f 147/147/147 146/146/146 145/145/145
f 150/150/150 149/149/149 148/148/148
f 153/153/153 152/152/152 151/151/151
f 156/156/156 155/155/155 154/154/154
f 159/159/159 158/158/158 157/157/157
f 162/162/162 161/161/161 160/160/160
f 165/165/165 164/164/164 163/163/163
f 168/168/168 167/167/167 166/166/166
f 171/171/171 170/170/170 169/169/169
f 174/174/174 173/173/173 172/172/172
f 177/177/177 176/176/176 175/175/175
f 180/180/180 179/179/179 178/178/178
f 183/183/183 182/182/182 181/181/181
f 186/186/186 185/185/185 184/184/184
f 189/189/189 188/188/188 187/187/187
f 192/192/192 191/191/191 190/190/190
f 195/195/195 194/194/194 193/193/193
f 198/198/198 197/197/197 196/196/196
f 201/201/201 200/200/200 199/199/199
f 204/204/204 203/203/203 202/202/202
f 207/207/207 206/206/206 205/205/205
f 210/210/210 209/209/209 208/208/208
f 213/213/213 212/212/212 211/211/211
f 216/216/216 215/215/215 214/214/214
f 219/219/219 218/218/218 217/217/217
f 222/222/222 221/221/221 220/220/220
f 225/225/225 224/224/224 223/223/223
f 228/228/228 227/227/227 226/226/226
f 231/231/231 230/230/230 229/229/229
f 234/234/234 233/233/233 232/232/232
f 237/237/237 236/236/236 235/235/235
f 240/240/240 239/239/239 238/238/238
f 243/243/243 242/242/242 241/241/241
f 246/246/246 245/245/245 244/244/244
f 249/249/249 248/248/248 247/247/247
f 252/252/252 251/251/251 250/250/250
f 255/255/255 254/254/254 253/253/253
f 258/258/258 257/257/257 256/256/256
f 261/261/261 260/260/260 259/259/259
f 264/264/264 263/263/263 262/262/262
f 267/267/267 266/266/266 265/265/265
f 270/270/270 269/269/269 268/268/268
f 273/273/273 272/272/272 271/271/271
f 276/276/276 275/275/275 274/274/274
f 279/279/279 278/278/278 277/277/277
f 282/282/282 281/281/281 280/280/280
f 285/285/285 284/284/284 283/283/283
f 288/288/288 287/287/287 286/286/286
f 291/291/291 290/290/290 289/289/289
f 294/294/294 293/293/293 292/292/292
f 297/297/297 296/296/296 295/295/295
f 300/300/300 299/299/299 298/298/298
f 303/303/303 302/302/302 301/301/301
f 306/306/306 305/305/305 304/304/304
f 309/309/309 308/308/308 307/307/307
f 312/312/312 311/311/311 310/310/310
f 315/315/315 314/314/314 313/313/313
f 318/318/318 317/317/317 316/316/316
f 321/321/321 320/320/320 319/319/319
f 324/324/324 323/323/323 322/322/322
f 327/327/327 326/326/326 325/325/325
f 330/330/330 329/329/329 328/328/328
f 333/333/333 332/332/332 331/331/331
f 336/336/336 335/335/335 334/334/334
f 339/339/339 338/338/338 337/337/337
f 342/342/342 341/341/341 340/340/340
f 345/345/345 344/344/344 343/343/343
f 348/348/348 347/347/347 346/346/346
f 351/351/351 350/350/350 349/349/349
f 354/354/354 353/353/353 352/352/352
f 357/357/357 356/356/356 355/355/355
f 360/360/360 359/359/359 358/358/358
f 363/363/363 362/362/362 361/361/361
f 366/366/366 365/365/365 364/364/364
f 369/369/369 368/368/368 367/367/367
f 372/372/372 371/371/371 370/370/370
f 375/375/375 374/374/374 373/373/373
f 378/378/378 377/377/377 376/376/376
f 381/381/381 380/380/380 379/379/379
f 384/384/384 383/383/383 382/382/382
f 387/387/387 386/386/386 385/385/385
f 390/390/390 389/389/389 388/388/388
f 393/393/393 392/392/392 391/391/391
f 396/396/396 395/395/395 394/394/394
f 399/399/399 398/398/398 397/397/397
f 402/402/402 401/401/401 400/400/400
