# Static pose baked from local Project Zomboid assets
o Kate_Hair_PonyTail
v 0.039417719 0.024947674 0.435685348
v 0.016353119 0.013998874 0.446077229
v 0.026861457 0.058360160 0.443031212
v 0.016353119 0.013998874 0.446077229
v 0.039417719 0.024947674 0.435685348
v 0.016356558 0.013993977 0.446075215
v 0.024836416 0.088131104 0.423638710
v 0.046542896 0.067991213 0.391447147
v 0.051181750 0.044925211 0.427693415
v 0.046542896 0.067991213 0.391447147
v 0.024836416 0.088131104 0.423638710
v 0.029495202 0.089023251 0.404551926
v -0.033943911 0.092098631 0.393398302
v 0.001079797 0.095472225 0.417364117
v -0.031148897 0.086201834 0.416047690
v 0.001079797 0.095472225 0.417364117
v -0.033943911 0.092098631 0.393398302
v 0.001078538 0.100500546 0.395442373
v 0.026861457 0.058360160 0.443031212
v 0.024836416 0.088131104 0.423638710
v 0.051181750 0.044925211 0.427693415
v 0.024836416 0.088131104 0.423638710
v 0.026861457 0.058360160 0.443031212
v 0.011055811 0.081247302 0.437212390
v 0.001079797 0.095472225 0.417364117
v -0.020904397 0.069226984 0.440300800
v -0.031148897 0.086201834 0.416047690
v -0.020904397 0.069226984 0.440300800
v 0.001079797 0.095472225 0.417364117
v 0.011055811 0.081247302 0.437212390
v 0.051181750 0.044925211 0.427693415
v 0.039417719 0.024947674 0.435685348
v 0.026861457 0.058360160 0.443031212
v 0.020614729 0.095585848 0.380225937
v 0.001078538 0.100500546 0.395442373
v -0.004219392 0.099442793 0.367587671
v 0.001078538 0.100500546 0.395442373
v 0.020614729 0.095585848 0.380225937
v 0.029495202 0.089023251 0.404551926
v 0.011055811 0.081247302 0.437212390
v 0.001079797 0.095472225 0.417364117
v 0.024836416 0.088131104 0.423638710
v 0.048179204 0.017066440 0.426917977
v 0.024679019 0.002474178 0.437016975
v 0.039417719 0.024947674 0.435685348
v 0.024679019 0.002474178 0.437016975
v 0.048179204 0.017066440 0.426917977
v 0.030095751 -0.004480671 0.424243742
v 0.026861457 0.058360160 0.443031212
v 0.016353119 0.013998874 0.446077229
v -0.001616520 0.040029222 0.450976798
v -0.031218742 0.090325059 0.365113540
v -0.009421546 0.091072833 0.349371722
v -0.004219392 0.099442793 0.367587671
v -0.009421546 0.091072833 0.349371722
v -0.031218742 0.090325059 0.365113540
v -0.025928230 0.083953816 0.347297628
v -0.004219392 0.099442793 0.367587671
v 0.012480571 0.090571993 0.354212632
v 0.020614729 0.095585848 0.380225937
v 0.012480571 0.090571993 0.354212632
v -0.004219392 0.099442793 0.367587671
v -0.009421546 0.091072833 0.349371722
v 0.038590899 0.081342278 0.389886593
v 0.029543222 0.074154884 0.362607738
v 0.040532877 0.068029935 0.386704973
v 0.029543222 0.074154884 0.362607738
v 0.038590899 0.081342278 0.389886593
v 0.025174533 0.089686259 0.360213346
v 0.020614729 0.095585848 0.380225937
v 0.025174533 0.089686259 0.360213346
v 0.038590899 0.081342278 0.389886593
v 0.025174533 0.089686259 0.360213346
v 0.020614729 0.095585848 0.380225937
v 0.012480571 0.090571993 0.354212632
v -0.025928230 0.083953816 0.347297628
v -0.014839496 0.084304731 0.331828825
v -0.009421546 0.091072833 0.349371722
v -0.014839496 0.084304731 0.331828825
v -0.025928230 0.083953816 0.347297628
v -0.022469498 0.085487006 0.331757605
v -0.009421546 0.091072833 0.349371722
v -0.014839496 0.084304731 0.331828825
v 0.012480571 0.090571993 0.354212632
v 0.025174533 0.089686259 0.360213346
v -0.011941598 0.078826431 0.331162062
v 0.029543222 0.074154884 0.362607738
v -0.011941598 0.078826431 0.331162062
v 0.025174533 0.089686259 0.360213346
v -0.014839496 0.084304731 0.331828825
v 0.012480571 0.090571993 0.354212632
v -0.014839496 0.084304731 0.331828825
v 0.025174533 0.089686259 0.360213346
v 0.046542896 0.067991213 0.391447147
v 0.054247750 0.042540695 0.415568653
v 0.051181750 0.044925211 0.427693415
v 0.054247750 0.042540695 0.415568653
v 0.046542896 0.067991213 0.391447147
v 0.047323649 0.056508024 0.373123942
v 0.048179204 0.017066440 0.426917977
v 0.051181750 0.044925211 0.427693415
v 0.054247750 0.042540695 0.415568653
v 0.051181750 0.044925211 0.427693415
v 0.048179204 0.017066440 0.426917977
v 0.039417719 0.024947674 0.435685348
v -0.004219392 0.099442793 0.367587671
v -0.033943911 0.092098631 0.393398302
v -0.031218742 0.090325059 0.365113540
v -0.033943911 0.092098631 0.393398302
v -0.004219392 0.099442793 0.367587671
v 0.001078538 0.100500546 0.395442373
v 0.001079797 0.095472225 0.417364117
v 0.029495202 0.089023251 0.404551926
v 0.024836416 0.088131104 0.423638710
v 0.029495202 0.089023251 0.404551926
v 0.001079797 0.095472225 0.417364117
v 0.001078538 0.100500546 0.395442373
v 0.038590899 0.081342278 0.389886593
v 0.029495202 0.089023251 0.404551926
v 0.020614729 0.095585848 0.380225937
v 0.029495202 0.089023251 0.404551926
v 0.038590899 0.081342278 0.389886593
v 0.046542896 0.067991213 0.391447147
v 0.040532877 0.068029935 0.386704973
v 0.046542896 0.067991213 0.391447147
v 0.038590899 0.081342278 0.389886593
v 0.046542896 0.067991213 0.391447147
v 0.040532877 0.068029935 0.386704973
v 0.047323649 0.056508024 0.373123942
v 0.054247750 0.042540695 0.415568653
v 0.040691401 0.027605161 0.414394903
v 0.048179204 0.017066440 0.426917977
v 0.040691401 0.027605161 0.414394903
v 0.054247750 0.042540695 0.415568653
v 0.041833561 0.047785114 0.400748259
v 0.048179204 0.017066440 0.426917977
v 0.023789557 0.005620699 0.413720611
v 0.030095751 -0.004480671 0.424243742
v 0.023789557 0.005620699 0.413720611
v 0.048179204 0.017066440 0.426917977
v 0.040691401 0.027605161 0.414394903
v 0.029543222 0.074154884 0.362607738
v 0.035764306 0.068189856 0.379943363
v 0.040532877 0.068029935 0.386704973
v 0.035764306 0.068189856 0.379943363
v 0.029543222 0.074154884 0.362607738
v 0.024583289 0.072739413 0.359684881
v -0.011941598 0.078826431 0.331162062
v 0.024583289 0.072739413 0.359684881
v 0.029543222 0.074154884 0.362607738
v 0.047323649 0.056508024 0.373123942
v 0.041833561 0.047785114 0.400748259
v 0.054247750 0.042540695 0.415568653
v 0.041833561 0.047785114 0.400748259
v 0.047323649 0.056508024 0.373123942
v 0.039436340 0.057912252 0.379439256
v 0.040532877 0.068029935 0.386704973
v 0.039436340 0.057912252 0.379439256
v 0.047323649 0.056508024 0.373123942
v 0.039436340 0.057912252 0.379439256
v 0.040532877 0.068029935 0.386704973
v 0.035764306 0.068189856 0.379943363
v 0.041833561 0.047785114 0.400748259
v 0.028327307 0.043622709 0.381207415
v 0.040691401 0.027605161 0.414394903
v 0.028327307 0.043622709 0.381207415
v 0.041833561 0.047785114 0.400748259
v 0.024436006 0.051033798 0.378437167
v 0.040691401 0.027605161 0.414394903
v 0.012080867 0.025456436 0.380493327
v 0.023789557 0.005620699 0.413720611
v 0.012080867 0.025456436 0.380493327
v 0.040691401 0.027605161 0.414394903
v 0.028327307 0.043622709 0.381207415
v 0.024583289 0.072739413 0.359684881
v 0.017787691 0.061424885 0.366940320
v 0.035764306 0.068189856 0.379943363
v 0.017787691 0.061424885 0.366940320
v 0.024583289 0.072739413 0.359684881
v 0.010651508 0.066004119 0.353202035
v -0.011941598 0.078826431 0.331162062
v 0.010651508 0.066004119 0.353202035
v 0.024583289 0.072739413 0.359684881
v 0.010651508 0.066004119 0.353202035
v -0.011941598 0.078826431 0.331162062
v -0.015860683 0.074731530 0.330824869
v 0.039436340 0.057912252 0.379439256
v 0.024436006 0.051033798 0.378437167
v 0.041833561 0.047785114 0.400748259
v 0.024436006 0.051033798 0.378437167
v 0.039436340 0.057912252 0.379439256
v 0.021658073 0.057039824 0.372010279
v 0.035764306 0.068189856 0.379943363
v 0.021658073 0.057039824 0.372010279
v 0.039436340 0.057912252 0.379439256
v 0.021658073 0.057039824 0.372010279
v 0.035764306 0.068189856 0.379943363
v 0.017787691 0.061424885 0.366940320
v -0.001616520 0.040029222 0.450976798
v 0.011055811 0.081247302 0.437212390
v 0.026861457 0.058360160 0.443031212
v 0.011055811 0.081247302 0.437212390
v -0.001616520 0.040029222 0.450976798
v -0.020904397 0.069226984 0.440300800
v 0.024679019 0.002474178 0.437016975
v 0.016356558 0.013993977 0.446075215
v 0.039417719 0.024947674 0.435685348
v -0.001458148 -0.002857213 0.433490539
v 0.016353119 0.013998874 0.446077229
v 0.016356558 0.013993977 0.446075215
v 0.016353119 0.013998874 0.446077229
v -0.001458148 -0.002857213 0.433490539
v -0.028434335 0.020746444 0.440062133
v -0.053909411 0.034566030 0.419410493
v -0.040770469 0.008598265 0.386758901
v -0.055038587 0.031521046 0.400012927
v -0.040770469 0.008598265 0.386758901
v -0.053909411 0.034566030 0.419410493
v -0.023617271 -0.005954093 0.423572082
v -0.033943911 0.092098631 0.393398302
v -0.051587256 0.059613995 0.414535149
v -0.055438121 0.062056362 0.392407740
v -0.051587256 0.059613995 0.414535149
v -0.033943911 0.092098631 0.393398302
v -0.031148897 0.086201834 0.416047690
v -0.028434335 0.020746444 0.440062133
v -0.053909411 0.034566030 0.419410493
v -0.043489948 0.044143779 0.434283584
v -0.053909411 0.034566030 0.419410493
v -0.028434335 0.020746444 0.440062133
v -0.023617271 -0.005954093 0.423572082
v -0.051587256 0.059613995 0.414535149
v -0.020904397 0.069226984 0.440300800
v -0.043489948 0.044143779 0.434283584
v -0.020904397 0.069226984 0.440300800
v -0.051587256 0.059613995 0.414535149
v -0.031148897 0.086201834 0.416047690
v -0.023617271 -0.005954093 0.423572082
v -0.028434335 0.020746444 0.440062133
v -0.001458148 -0.002857213 0.433490539
v -0.056109813 0.043395708 0.376106252
v -0.055438121 0.062056362 0.392407740
v -0.055038587 0.031521046 0.400012927
v -0.055438121 0.062056362 0.392407740
v -0.056109813 0.043395708 0.376106252
v -0.049707786 0.068500338 0.365145195
v -0.043489948 0.044143779 0.434283584
v -0.053909411 0.034566030 0.419410493
v -0.051587256 0.059613995 0.414535149
v 0.003304547 -0.013458535 0.424508455
v 0.024679019 0.002474178 0.437016975
v 0.030095751 -0.004480671 0.424243742
v 0.024679019 0.002474178 0.437016975
v 0.003304547 -0.013458535 0.424508455
v -0.001458148 -0.002857213 0.433490539
v -0.028434335 0.020746444 0.440062133
v -0.001616520 0.040029222 0.450976798
v 0.016353119 0.013998874 0.446077229
v -0.031218742 0.090325059 0.365113540
v -0.037049673 0.068716571 0.347775020
v -0.025928230 0.083953816 0.347297628
v -0.037049673 0.068716571 0.347775020
v -0.031218742 0.090325059 0.365113540
v -0.049707786 0.068500338 0.365145195
v -0.049707786 0.068500338 0.365145195
v -0.046582723 0.050395519 0.351041259
v -0.037049673 0.068716571 0.347775020
v -0.046582723 0.050395519 0.351041259
v -0.049707786 0.068500338 0.365145195
v -0.056109813 0.043395708 0.376106252
v -0.050149839 0.020978392 0.385121705
v -0.038180125 0.028087605 0.358971368
v -0.050828892 0.037986643 0.356132381
v -0.038180125 0.028087605 0.358971368
v -0.050149839 0.020978392 0.385121705
v -0.038267469 0.014427776 0.382473829
v -0.056109813 0.043395708 0.376106252
v -0.050828892 0.037986643 0.356132381
v -0.046582723 0.050395519 0.351041259
v -0.050828892 0.037986643 0.356132381
v -0.056109813 0.043395708 0.376106252
v -0.050149839 0.020978392 0.385121705
v -0.025928230 0.083953816 0.347297628
v -0.024914518 0.078232570 0.331398618
v -0.022469498 0.085487006 0.331757605
v -0.024914518 0.078232570 0.331398618
v -0.025928230 0.083953816 0.347297628
v -0.037049673 0.068716571 0.347775020
v -0.037049673 0.068716571 0.347775020
v -0.046582723 0.050395519 0.351041259
v -0.024914518 0.078232570 0.331398618
v -0.050828892 0.037986643 0.356132381
v -0.021213292 0.073238210 0.330766475
v -0.024914518 0.078232570 0.331398618
v -0.021213292 0.073238210 0.330766475
v -0.050828892 0.037986643 0.356132381
v -0.038180125 0.028087605 0.358971368
v -0.046582723 0.050395519 0.351041259
v -0.050828892 0.037986643 0.356132381
v -0.024914518 0.078232570 0.331398618
v -0.021722633 -0.009136445 0.411489462
v -0.040770469 0.008598265 0.386758901
v -0.023617271 -0.005954093 0.423572082
v -0.040770469 0.008598265 0.386758901
v -0.021722633 -0.009136445 0.411489462
v -0.029053140 0.004554435 0.369022930
v 0.003304547 -0.013458535 0.424508455
v -0.021722633 -0.009136445 0.411489462
v -0.023617271 -0.005954093 0.423572082
v -0.023617271 -0.005954093 0.423572082
v -0.001458148 -0.002857213 0.433490539
v 0.003304547 -0.013458535 0.424508455
v -0.049707786 0.068500338 0.365145195
v -0.033943911 0.092098631 0.393398302
v -0.055438121 0.062056362 0.392407740
v -0.033943911 0.092098631 0.393398302
v -0.049707786 0.068500338 0.365145195
v -0.031218742 0.090325059 0.365113540
v -0.051587256 0.059613995 0.414535149
v -0.055038587 0.031521046 0.400012927
v -0.055438121 0.062056362 0.392407740
v -0.055038587 0.031521046 0.400012927
v -0.051587256 0.059613995 0.414535149
v -0.053909411 0.034566030 0.419410493
v -0.050149839 0.020978392 0.385121705
v -0.055038587 0.031521046 0.400012927
v -0.040770469 0.008598265 0.386758901
v -0.055038587 0.031521046 0.400012927
v -0.050149839 0.020978392 0.385121705
v -0.056109813 0.043395708 0.376106252
v -0.038267469 0.014427776 0.382473829
v -0.040770469 0.008598265 0.386758901
v -0.029053140 0.004554435 0.369022930
v -0.040770469 0.008598265 0.386758901
v -0.038267469 0.014427776 0.382473829
v -0.050149839 0.020978392 0.385121705
v -0.021722633 -0.009136445 0.411489462
v -0.002829399 -0.001998882 0.412058076
v -0.020978236 0.005058805 0.397375612
v -0.002829399 -0.001998882 0.412058076
v -0.021722633 -0.009136445 0.411489462
v 0.003304547 -0.013458535 0.424508455
v 0.003304547 -0.013458535 0.424508455
v 0.023789557 0.005620699 0.413720611
v -0.002829399 -0.001998882 0.412058076
v 0.023789557 0.005620699 0.413720611
v 0.003304547 -0.013458535 0.424508455
v 0.030095751 -0.004480671 0.424243742
v -0.038180125 0.028087605 0.358971368
v -0.036181682 0.019250219 0.376080260
v -0.034844282 0.032315147 0.356493948
v -0.036181682 0.019250219 0.376080260
v -0.038180125 0.028087605 0.358971368
v -0.038267469 0.014427776 0.382473829
v -0.021213292 0.073238210 0.330766475
v -0.038180125 0.028087605 0.358971368
v -0.034844282 0.032315147 0.356493948
v -0.029053140 0.004554435 0.369022930
v -0.020978236 0.005058805 0.397375612
v -0.027943380 0.012078716 0.375821336
v -0.020978236 0.005058805 0.397375612
v -0.029053140 0.004554435 0.369022930
v -0.021722633 -0.009136445 0.411489462
v -0.038267469 0.014427776 0.382473829
v -0.027943380 0.012078716 0.375821336
v -0.036181682 0.019250219 0.376080260
v -0.027943380 0.012078716 0.375821336
v -0.038267469 0.014427776 0.382473829
v -0.029053140 0.004554435 0.369022930
v -0.020978236 0.005058805 0.397375612
v -0.010757738 0.017035988 0.379108764
v -0.016015283 0.023517720 0.376265156
v -0.010757738 0.017035988 0.379108764
v -0.020978236 0.005058805 0.397375612
v -0.002829399 -0.001998882 0.412058076
v -0.002829399 -0.001998882 0.412058076
v 0.012080867 0.025456436 0.380493327
v -0.010757738 0.017035988 0.379108764
v 0.012080867 0.025456436 0.380493327
v -0.002829399 -0.001998882 0.412058076
v 0.023789557 0.005620699 0.413720611
v -0.034844282 0.032315147 0.356493948
v -0.022394314 0.034091981 0.364782768
v -0.023036287 0.043088755 0.351393186
v -0.022394314 0.034091981 0.364782768
v -0.034844282 0.032315147 0.356493948
v -0.036181682 0.019250219 0.376080260
v -0.021213292 0.073238210 0.330766475
v -0.023036287 0.043088755 0.351393186
v -0.015860683 0.074731530 0.330824869
v -0.023036287 0.043088755 0.351393186
v -0.021213292 0.073238210 0.330766475
v -0.034844282 0.032315147 0.356493948
v -0.027943380 0.012078716 0.375821336
v -0.016015283 0.023517720 0.376265156
v -0.020106599 0.028630347 0.369767747
v -0.016015283 0.023517720 0.376265156
v -0.027943380 0.012078716 0.375821336
v -0.020978236 0.005058805 0.397375612
v -0.036181682 0.019250219 0.376080260
v -0.020106599 0.028630347 0.369767747
v -0.022394314 0.034091981 0.364782768
v -0.020106599 0.028630347 0.369767747
v -0.036181682 0.019250219 0.376080260
v -0.027943380 0.012078716 0.375821336
v -0.001616520 0.040029222 0.450976798
v -0.043489948 0.044143779 0.434283584
v -0.020904397 0.069226984 0.440300800
v -0.043489948 0.044143779 0.434283584
v -0.001616520 0.040029222 0.450976798
v -0.028434335 0.020746444 0.440062133
v 0.024679019 0.002474178 0.437016975
v -0.001458148 -0.002857213 0.433490539
v 0.016356558 0.013993977 0.446075215
v -0.022469498 0.085487006 0.331757605
v -0.016976452 0.084062525 0.327202589
v -0.014839496 0.084304731 0.331828825
v -0.016976452 0.084062525 0.327202589
v -0.022469498 0.085487006 0.331757605
v -0.024680667 0.085063228 0.327365427
v -0.014839496 0.084304731 0.331828825
v -0.013917590 0.078628271 0.326209406
v -0.011941598 0.078826431 0.331162062
v -0.013917590 0.078628271 0.326209406
v -0.014839496 0.084304731 0.331828825
v -0.016976452 0.084062525 0.327202589
v -0.011941598 0.078826431 0.331162062
v -0.017750142 0.074399333 0.325772391
v -0.015860683 0.074731530 0.330824869
v -0.017750142 0.074399333 0.325772391
v -0.011941598 0.078826431 0.331162062
v -0.013917590 0.078628271 0.326209406
v -0.015860683 0.074731530 0.330824869
v -0.023094616 0.072750445 0.325770233
v -0.021213292 0.073238210 0.330766475
v -0.023094616 0.072750445 0.325770233
v -0.015860683 0.074731530 0.330824869
v -0.017750142 0.074399333 0.325772391
v -0.021213292 0.073238210 0.330766475
v -0.026948075 0.077674853 0.326725009
v -0.024914518 0.078232570 0.331398618
v -0.026948075 0.077674853 0.326725009
v -0.021213292 0.073238210 0.330766475
v -0.023094616 0.072750445 0.325770233
v -0.024914518 0.078232570 0.331398618
v -0.024680667 0.085063228 0.327365427
v -0.022469498 0.085487006 0.331757605
v -0.024680667 0.085063228 0.327365427
v -0.024914518 0.078232570 0.331398618
v -0.026948075 0.077674853 0.326725009
v -0.024680667 0.085063228 0.327365427
v -0.014923429 0.089092502 0.320567393
v -0.016976452 0.084062525 0.327202589
v -0.014923429 0.089092502 0.320567393
v -0.024680667 0.085063228 0.327365427
v -0.024134434 0.088375751 0.320740037
v -0.016976452 0.084062525 0.327202589
v -0.014923429 0.089092502 0.320567393
v -0.010713866 0.085425213 0.318678548
v -0.016976452 0.084062525 0.327202589
v -0.009048413 0.079558144 0.317036951
v -0.013917590 0.078628271 0.326209406
v -0.009048413 0.079558144 0.317036951
v -0.016976452 0.084062525 0.327202589
v -0.010713866 0.085425213 0.318678548
v -0.013917590 0.078628271 0.326209406
v -0.014891466 0.072545894 0.315404429
v -0.017750142 0.074399333 0.325772391
v -0.014891466 0.072545894 0.315404429
v -0.013917590 0.078628271 0.326209406
v -0.009048413 0.079558144 0.317036951
v -0.017750142 0.074399333 0.325772391
v -0.023826708 0.071190134 0.316487658
v -0.023094616 0.072750445 0.325770233
v -0.023826708 0.071190134 0.316487658
v -0.017750142 0.074399333 0.325772391
v -0.014891466 0.072545894 0.315404429
v -0.023094616 0.072750445 0.325770233
v -0.028305766 0.075463452 0.318024585
v -0.026948075 0.077674853 0.326725009
v -0.028305766 0.075463452 0.318024585
v -0.023094616 0.072750445 0.325770233
v -0.023826708 0.071190134 0.316487658
v -0.026948075 0.077674853 0.326725009
v -0.028305766 0.075463452 0.318024585
v -0.029446513 0.080868018 0.320027784
v -0.026948075 0.077674853 0.326725009
v -0.024134434 0.088375751 0.320740037
v -0.024680667 0.085063228 0.327365427
v -0.024134434 0.088375751 0.320740037
v -0.026948075 0.077674853 0.326725009
v -0.029446513 0.080868018 0.320027784
v -0.024134434 0.088375751 0.320740037
v -0.011923609 0.096990908 0.301818247
v -0.014923429 0.089092502 0.320567393
v -0.011923609 0.096990908 0.301818247
v -0.024134434 0.088375751 0.320740037
v -0.023514861 0.097455839 0.302643734
v -0.014923429 0.089092502 0.320567393
v -0.007262488 0.092294340 0.299391303
v -0.010713866 0.085425213 0.318678548
v -0.007262488 0.092294340 0.299391303
v -0.014923429 0.089092502 0.320567393
v -0.011923609 0.096990908 0.301818247
v -0.010713866 0.085425213 0.318678548
v -0.005630440 0.084462061 0.296905276
v -0.009048413 0.079558144 0.317036951
v -0.005630440 0.084462061 0.296905276
v -0.010713866 0.085425213 0.318678548
v -0.007262488 0.092294340 0.299391303
v -0.009048413 0.079558144 0.317036951
v -0.013657239 0.076643847 0.295025050
v -0.014891466 0.072545894 0.315404429
v -0.013657239 0.076643847 0.295025050
v -0.009048413 0.079558144 0.317036951
v -0.005630440 0.084462061 0.296905276
v -0.014891466 0.072545894 0.315404429
v -0.024673662 0.075680482 0.296463599
v -0.023826708 0.071190134 0.316487658
v -0.024673662 0.075680482 0.296463599
v -0.014891466 0.072545894 0.315404429
v -0.013657239 0.076643847 0.295025050
v -0.023826708 0.071190134 0.316487658
v -0.029932624 0.081840824 0.298866561
v -0.028305766 0.075463452 0.318024585
v -0.029932624 0.081840824 0.298866561
v -0.023826708 0.071190134 0.316487658
v -0.024673662 0.075680482 0.296463599
v -0.028305766 0.075463452 0.318024585
v -0.030638934 0.088361169 0.301385234
v -0.029446513 0.080868018 0.320027784
v -0.030638934 0.088361169 0.301385234
v -0.028305766 0.075463452 0.318024585
v -0.029932624 0.081840824 0.298866561
v -0.029446513 0.080868018 0.320027784
v -0.023514861 0.097455839 0.302643734
v -0.024134434 0.088375751 0.320740037
v -0.023514861 0.097455839 0.302643734
v -0.029446513 0.080868018 0.320027784
v -0.030638934 0.088361169 0.301385234
v -0.023514861 0.097455839 0.302643734
v -0.010528515 0.102118260 0.282281583
v -0.011923609 0.096990908 0.301818247
v -0.010528515 0.102118260 0.282281583
v -0.023514861 0.097455839 0.302643734
v -0.020014197 0.103835404 0.283171738
v -0.011923609 0.096990908 0.301818247
v -0.006842307 0.097281679 0.279820365
v -0.007262488 0.092294340 0.299391303
v -0.006842307 0.097281679 0.279820365
v -0.011923609 0.096990908 0.301818247
v -0.010528515 0.102118260 0.282281583
v -0.007262488 0.092294340 0.299391303
v -0.005791158 0.090078781 0.277469150
v -0.005630440 0.084462061 0.296905276
v -0.005791158 0.090078781 0.277469150
v -0.007262488 0.092294340 0.299391303
v -0.006842307 0.097281679 0.279820365
v -0.005630440 0.084462061 0.296905276
v -0.012635616 0.083906263 0.275737068
v -0.013657239 0.076643847 0.295025050
v -0.012635616 0.083906263 0.275737068
v -0.005630440 0.084462061 0.296905276
v -0.005791158 0.090078781 0.277469150
v -0.013657239 0.076643847 0.295025050
v -0.021730935 0.084353983 0.277340055
v -0.024673662 0.075680482 0.296463599
v -0.021730935 0.084353983 0.277340055
v -0.013657239 0.076643847 0.295025050
v -0.012635616 0.083906263 0.275737068
v -0.024673662 0.075680482 0.296463599
v -0.025816858 0.090465493 0.279667483
v -0.029932624 0.081840824 0.298866561
v -0.025816858 0.090465493 0.279667483
v -0.024673662 0.075680482 0.296463599
v -0.021730935 0.084353983 0.277340055
v -0.029932624 0.081840824 0.298866561
v -0.026193232 0.096491340 0.282154839
v -0.030638934 0.088361169 0.301385234
v -0.026193232 0.096491340 0.282154839
v -0.029932624 0.081840824 0.298866561
v -0.025816858 0.090465493 0.279667483
v -0.030638934 0.088361169 0.301385234
v -0.020014197 0.103835404 0.283171738
v -0.023514861 0.097455839 0.302643734
v -0.020014197 0.103835404 0.283171738
v -0.030638934 0.088361169 0.301385234
v -0.026193232 0.096491340 0.282154839
v -0.020014197 0.103835404 0.283171738
v -0.009648445 0.103029376 0.261115526
v -0.010528515 0.102118260 0.282281583
v -0.009648445 0.103029376 0.261115526
v -0.020014197 0.103835404 0.283171738
v -0.014020210 0.104177432 0.261435956
v -0.010528515 0.102118260 0.282281583
v -0.009648445 0.103029376 0.261115526
v -0.006842307 0.097281679 0.279820365
v -0.006842307 0.097281679 0.279820365
v -0.008354613 0.098627885 0.259958465
v -0.005791158 0.090078781 0.277469150
v -0.008354613 0.098627885 0.259958465
v -0.006842307 0.097281679 0.279820365
v -0.009648445 0.103029376 0.261115526
v -0.005791158 0.090078781 0.277469150
v -0.012044680 0.096720928 0.259751694
v -0.012635616 0.083906263 0.275737068
v -0.012044680 0.096720928 0.259751694
v -0.005791158 0.090078781 0.277469150
v -0.008354613 0.098627885 0.259958465
v -0.012635616 0.083906263 0.275737068
v -0.016096741 0.096583577 0.259994335
v -0.021730935 0.084353983 0.277340055
v -0.016096741 0.096583577 0.259994335
v -0.012635616 0.083906263 0.275737068
v -0.012044680 0.096720928 0.259751694
v -0.021730935 0.084353983 0.277340055
v -0.017256688 0.101020326 0.261151851
v -0.025816858 0.090465493 0.279667483
v -0.017256688 0.101020326 0.261151851
v -0.021730935 0.084353983 0.277340055
v -0.016096741 0.096583577 0.259994335
v -0.025816858 0.090465493 0.279667483
v -0.017256688 0.101020326 0.261151851
v -0.026193232 0.096491340 0.282154839
v -0.026193232 0.096491340 0.282154839
v -0.014020210 0.104177432 0.261435956
v -0.020014197 0.103835404 0.283171738
v -0.014020210 0.104177432 0.261435956
v -0.026193232 0.096491340 0.282154839
v -0.017256688 0.101020326 0.261151851
v -0.014020210 0.104177432 0.261435956
v -0.013683661 0.104028510 0.249092336
v -0.009648445 0.103029376 0.261115526
v -0.009648445 0.103029376 0.261115526
v -0.013683661 0.104028510 0.249092336
v -0.008354613 0.098627885 0.259958465
v -0.008354613 0.098627885 0.259958465
v -0.013683661 0.104028510 0.249092336
v -0.012044680 0.096720928 0.259751694
v -0.012044680 0.096720928 0.259751694
v -0.013683661 0.104028510 0.249092336
v -0.016096741 0.096583577 0.259994335
v -0.016096741 0.096583577 0.259994335
v -0.013683661 0.104028510 0.249092336
v -0.017256688 0.101020326 0.261151851
v -0.017256688 0.101020326 0.261151851
v -0.013683661 0.104028510 0.249092336
v -0.014020210 0.104177432 0.261435956
vt 0.163342997 0.059368014
vt 0.222782001 0.014806986
vt 0.220088005 0.112595975
vt 0.222782001 0.014806986
vt 0.163342997 0.059368014
vt 0.202781007 0.011348009
vt 0.212077007 0.185289025
vt 0.132737994 0.208414018
vt 0.153439999 0.110207975
vt 0.132737994 0.208414018
vt 0.212077007 0.185289025
vt 0.190157995 0.211098015
vt 0.298171014 0.270264030
vt 0.241968006 0.216840029
vt 0.298016995 0.225439012
vt 0.241968006 0.216840029
vt 0.298171014 0.270264030
vt 0.237657994 0.261389971
vt 0.220088005 0.112595975
vt 0.212077007 0.185289025
vt 0.153439999 0.110207975
vt 0.212077007 0.185289025
vt 0.220088005 0.112595975
vt 0.238821000 0.163273990
vt 0.241968006 0.216840029
vt 0.297951013 0.159473002
vt 0.298016995 0.225439012
vt 0.297951013 0.159473002
vt 0.241968006 0.216840029
vt 0.238821000 0.163273990
vt 0.153439999 0.110207975
vt 0.163342997 0.059368014
vt 0.220088005 0.112595975
vt 0.199494004 0.264167011
vt 0.237657994 0.261389971
vt 0.238591999 0.312813997
vt 0.237657994 0.261389971
vt 0.199494004 0.264167011
vt 0.190157995 0.211098015
vt 0.238821000 0.163273990
vt 0.241968006 0.216840029
vt 0.212077007 0.185289025
vt 0.130790994 0.065918982
vt 0.149899006 0.003461003
vt 0.163342997 0.059368014
vt 0.149899006 0.003461003
vt 0.130790994 0.065918982
vt 0.101453997 0.016242981
vt 0.220088005 0.112595975
vt 0.222782001 0.014806986
vt 0.297771007 0.074699998
vt 0.298626006 0.324665010
vt 0.251242995 0.348680019
vt 0.238591999 0.312813997
vt 0.251242995 0.348680019
vt 0.298626006 0.324665010
vt 0.299187005 0.360895991
vt 0.238591999 0.312813997
vt 0.203952998 0.321265996
vt 0.199494004 0.264167011
vt 0.203952998 0.321265996
vt 0.238591999 0.312813997
vt 0.251242995 0.348680019
vt 0.159139007 0.230387986
vt 0.146193996 0.296365023
vt 0.131629005 0.231251001
vt 0.146193996 0.296365023
vt 0.159139007 0.230387986
vt 0.179668993 0.299072027
vt 0.199494004 0.264167011
vt 0.179668993 0.299072027
vt 0.159139007 0.230387986
vt 0.179668993 0.299072027
vt 0.199494004 0.264167011
vt 0.203952998 0.321265996
vt 0.299187005 0.360895991
vt 0.263218999 0.380483985
vt 0.251242995 0.348680019
vt 0.263218999 0.380483985
vt 0.299187005 0.360895991
vt 0.299071014 0.385213017
vt 0.251242995 0.348680019
vt 0.263218999 0.380483985
vt 0.203952998 0.321265996
vt 0.179668993 0.299072027
vt 0.235625997 0.375804007
vt 0.146193996 0.296365023
vt 0.235625997 0.375804007
vt 0.179668993 0.299072027
vt 0.263218999 0.380483985
vt 0.203952998 0.321265996
vt 0.263218999 0.380483985
vt 0.179668993 0.299072027
vt 0.132737994 0.208414018
vt 0.139124006 0.128910005
vt 0.153439999 0.110207975
vt 0.139124006 0.128910005
vt 0.132737994 0.208414018
vt 0.097488999 0.218639970
vt 0.130790994 0.065918982
vt 0.153439999 0.110207975
vt 0.139124006 0.128910005
vt 0.153439999 0.110207975
vt 0.130790994 0.065918982
vt 0.163342997 0.059368014
vt 0.238591999 0.312813997
vt 0.298171014 0.270264030
vt 0.298626006 0.324665010
vt 0.298171014 0.270264030
vt 0.238591999 0.312813997
vt 0.237657994 0.261389971
vt 0.241968006 0.216840029
vt 0.190157995 0.211098015
vt 0.212077007 0.185289025
vt 0.190157995 0.211098015
vt 0.241968006 0.216840029
vt 0.237657994 0.261389971
vt 0.159139007 0.230387986
vt 0.190157995 0.211098015
vt 0.199494004 0.264167011
vt 0.190157995 0.211098015
vt 0.159139007 0.230387986
vt 0.132737994 0.208414018
vt 0.131629005 0.231251001
vt 0.132737994 0.208414018
vt 0.159139007 0.230387986
vt 0.132737994 0.208414018
vt 0.131629005 0.231251001
vt 0.097488999 0.218639970
vt 0.139124006 0.128910005
vt 0.110794000 0.102204978
vt 0.130790994 0.065918982
vt 0.110794000 0.102204978
vt 0.139124006 0.128910005
vt 0.110816002 0.160995007
vt 0.130790994 0.065918982
vt 0.070404001 0.054355979
vt 0.101453997 0.016242981
vt 0.070404001 0.054355979
vt 0.130790994 0.065918982
vt 0.110794000 0.102204978
vt 0.146193996 0.296365023
vt 0.127875000 0.244826019
vt 0.131629005 0.231251001
vt 0.127875000 0.244826019
vt 0.146193996 0.296365023
vt 0.143608004 0.302091956
vt 0.235625997 0.375804007
vt 0.143608004 0.302091956
vt 0.146193996 0.296365023
vt 0.097488999 0.218639970
vt 0.110816002 0.160995007
vt 0.139124006 0.128910005
vt 0.110816002 0.160995007
vt 0.097488999 0.218639970
vt 0.103749000 0.220232964
vt 0.131629005 0.231251001
vt 0.103749000 0.220232964
vt 0.097488999 0.218639970
vt 0.103749000 0.220232964
vt 0.131629005 0.231251001
vt 0.127875000 0.244826019
vt 0.110816002 0.160995007
vt 0.062576003 0.175248981
vt 0.110794000 0.102204978
vt 0.062576003 0.175248981
vt 0.110816002 0.160995007
vt 0.066363998 0.204941988
vt 0.110794000 0.102204978
vt 0.020341000 0.135594010
vt 0.070404001 0.054355979
vt 0.020341000 0.135594010
vt 0.110794000 0.102204978
vt 0.062576003 0.175248981
vt 0.143608004 0.302091956
vt 0.096699998 0.281803966
vt 0.127875000 0.244826019
vt 0.096699998 0.281803966
vt 0.143608004 0.302091956
vt 0.136298999 0.332224965
vt 0.235625997 0.375804007
vt 0.136298999 0.332224965
vt 0.143608004 0.302091956
vt 0.136298999 0.332224965
vt 0.235625997 0.375804007
vt 0.222844005 0.382516980
vt 0.103749000 0.220232964
vt 0.066363998 0.204941988
vt 0.110816002 0.160995007
vt 0.066363998 0.204941988
vt 0.103749000 0.220232964
vt 0.074534997 0.243723989
vt 0.127875000 0.244826019
vt 0.074534997 0.243723989
vt 0.103749000 0.220232964
vt 0.074534997 0.243723989
vt 0.127875000 0.244826019
vt 0.096699998 0.281803966
vt 0.297771007 0.074699998
vt 0.238821000 0.163273990
vt 0.220088005 0.112595975
vt 0.238821000 0.163273990
vt 0.297771007 0.074699998
vt 0.297951013 0.159473002
vt 0.149899006 0.003461003
vt 0.202781007 0.011348009
vt 0.163342997 0.059368014
vt 0.432211995 0.058580995
vt 0.372478992 0.014337003
vt 0.392509013 0.010766983
vt 0.372478992 0.014337003
vt 0.432211995 0.058580995
vt 0.375708014 0.112082005
vt 0.384065986 0.184598982
vt 0.463613987 0.207252026
vt 0.406327993 0.210209012
vt 0.463613987 0.207252026
vt 0.384065986 0.184598982
vt 0.442465007 0.109296978
vt 0.298171014 0.270264030
vt 0.354142994 0.216152012
vt 0.360338986 0.260125995
vt 0.354142994 0.216152012
vt 0.298171014 0.270264030
vt 0.298016995 0.225439012
vt 0.375708014 0.112082005
vt 0.384065986 0.184598982
vt 0.357156008 0.162775993
vt 0.384065986 0.184598982
vt 0.375708014 0.112082005
vt 0.442465007 0.109296978
vt 0.354142994 0.216152012
vt 0.297951013 0.159473002
vt 0.357156008 0.162775993
vt 0.297951013 0.159473002
vt 0.354142994 0.216152012
vt 0.298016995 0.225439012
vt 0.442465007 0.109296978
vt 0.375708014 0.112082005
vt 0.432211995 0.058580995
vt 0.397056013 0.263381958
vt 0.360338986 0.260125995
vt 0.406327993 0.210209012
vt 0.360338986 0.260125995
vt 0.397056013 0.263381958
vt 0.358190000 0.311708987
vt 0.357156008 0.162775993
vt 0.384065986 0.184598982
vt 0.354142994 0.216152012
vt 0.464798003 0.064925015
vt 0.445365012 0.002596021
vt 0.493891001 0.015111983
vt 0.445365012 0.002596021
vt 0.464798003 0.064925015
vt 0.432211995 0.058580995
vt 0.375708014 0.112082005
vt 0.297771007 0.074699998
vt 0.372478992 0.014337003
vt 0.298626006 0.324665010
vt 0.349505991 0.349341989
vt 0.299187005 0.360895991
vt 0.349505991 0.349341989
vt 0.298626006 0.324665010
vt 0.358190000 0.311708987
vt 0.358190000 0.311708987
vt 0.391932994 0.320119023
vt 0.349505991 0.349341989
vt 0.391932994 0.320119023
vt 0.358190000 0.311708987
vt 0.397056013 0.263381958
vt 0.437283009 0.229294002
vt 0.450309008 0.295001984
vt 0.416417003 0.297721982
vt 0.450309008 0.295001984
vt 0.437283009 0.229294002
vt 0.464796990 0.230054975
vt 0.397056013 0.263381958
vt 0.416417003 0.297721982
vt 0.391932994 0.320119023
vt 0.416417003 0.297721982
vt 0.397056013 0.263381958
vt 0.437283009 0.229294002
vt 0.299187005 0.360895991
vt 0.335083991 0.380952001
vt 0.299071014 0.385213017
vt 0.335083991 0.380952001
vt 0.299187005 0.360895991
vt 0.349505991 0.349341989
vt 0.349505991 0.349341989
vt 0.391932994 0.320119023
vt 0.335083991 0.380952001
vt 0.416417003 0.297721982
vt 0.362291992 0.376278996
vt 0.335083991 0.380952001
vt 0.362291992 0.376278996
vt 0.416417003 0.297721982
vt 0.450309008 0.295001984
vt 0.391932994 0.320119023
vt 0.416417003 0.297721982
vt 0.335083991 0.380952001
vt 0.456730008 0.127893984
vt 0.463613987 0.207252026
vt 0.442465007 0.109296978
vt 0.463613987 0.207252026
vt 0.456730008 0.127893984
vt 0.498899996 0.217360020
vt 0.464798003 0.064925015
vt 0.456730008 0.127893984
vt 0.442465007 0.109296978
vt 0.442465007 0.109296978
vt 0.432211995 0.058580995
vt 0.464798003 0.064925015
vt 0.358190000 0.311708987
vt 0.298171014 0.270264030
vt 0.360338986 0.260125995
vt 0.298171014 0.270264030
vt 0.358190000 0.311708987
vt 0.298626006 0.324665010
vt 0.354142994 0.216152012
vt 0.406327993 0.210209012
vt 0.360338986 0.260125995
vt 0.406327993 0.210209012
vt 0.354142994 0.216152012
vt 0.384065986 0.184598982
vt 0.437283009 0.229294002
vt 0.406327993 0.210209012
vt 0.463613987 0.207252026
vt 0.406327993 0.210209012
vt 0.437283009 0.229294002
vt 0.397056013 0.263381958
vt 0.464796990 0.230054975
vt 0.463613987 0.207252026
vt 0.498899996 0.217360020
vt 0.463613987 0.207252026
vt 0.464796990 0.230054975
vt 0.437283009 0.229294002
vt 0.456730008 0.127893984
vt 0.484988004 0.101098001
vt 0.485228002 0.159850001
vt 0.484988004 0.101098001
vt 0.456730008 0.127893984
vt 0.464798003 0.064925015
vt 0.464798003 0.064925015
vt 0.525147974 0.053066969
vt 0.484988004 0.101098001
vt 0.525147974 0.053066969
vt 0.464798003 0.064925015
vt 0.493891001 0.015111983
vt 0.450309008 0.295001984
vt 0.468618006 0.243659973
vt 0.453106999 0.300978005
vt 0.468618006 0.243659973
vt 0.450309008 0.295001984
vt 0.464796990 0.230054975
vt 0.362291992 0.376278996
vt 0.450309008 0.295001984
vt 0.453106999 0.300978005
vt 0.498899996 0.217360020
vt 0.485228002 0.159850001
vt 0.492624015 0.219004035
vt 0.485228002 0.159850001
vt 0.498899996 0.217360020
vt 0.456730008 0.127893984
vt 0.464796990 0.230054975
vt 0.492624015 0.219004035
vt 0.468618006 0.243659973
vt 0.492624015 0.219004035
vt 0.464796990 0.230054975
vt 0.498899996 0.217360020
vt 0.485228002 0.159850001
vt 0.533538997 0.173916996
vt 0.529895008 0.203599989
vt 0.533538997 0.173916996
vt 0.485228002 0.159850001
vt 0.484988004 0.101098001
vt 0.484988004 0.101098001
vt 0.575591981 0.134073973
vt 0.533538997 0.173916996
vt 0.575591981 0.134073973
vt 0.484988004 0.101098001
vt 0.525147974 0.053066969
vt 0.453106999 0.300978005
vt 0.499971002 0.280539989
vt 0.460763007 0.331212997
vt 0.499971002 0.280539989
vt 0.453106999 0.300978005
vt 0.468618006 0.243659973
vt 0.362291992 0.376278996
vt 0.460763007 0.331212997
vt 0.374909997 0.382735014
vt 0.460763007 0.331212997
vt 0.362291992 0.376278996
vt 0.453106999 0.300978005
vt 0.492624015 0.219004035
vt 0.529895008 0.203599989
vt 0.521929979 0.242380977
vt 0.529895008 0.203599989
vt 0.492624015 0.219004035
vt 0.485228002 0.159850001
vt 0.468618006 0.243659973
vt 0.521929979 0.242380977
vt 0.499971002 0.280539989
vt 0.521929979 0.242380977
vt 0.468618006 0.243659973
vt 0.492624015 0.219004035
vt 0.297771007 0.074699998
vt 0.357156008 0.162775993
vt 0.297951013 0.159473002
vt 0.357156008 0.162775993
vt 0.297771007 0.074699998
vt 0.375708014 0.112082005
vt 0.445365012 0.002596021
vt 0.432211995 0.058580995
vt 0.392509013 0.010766983
vt 0.299071014 0.385213017
vt 0.269391000 0.395680010
vt 0.263218999 0.380483985
vt 0.269391000 0.395680010
vt 0.299071014 0.385213017
vt 0.298970997 0.398939967
vt 0.263218999 0.380483985
vt 0.247292995 0.393938005
vt 0.235625997 0.375804007
vt 0.247292995 0.393938005
vt 0.263218999 0.380483985
vt 0.269391000 0.395680010
vt 0.235625997 0.375804007
vt 0.232977003 0.395280957
vt 0.222844005 0.382516980
vt 0.232977003 0.395280957
vt 0.235625997 0.375804007
vt 0.247292995 0.393938005
vt 0.374909997 0.382735014
vt 0.350629002 0.394439995
vt 0.362291992 0.376278996
vt 0.350629002 0.394439995
vt 0.374909997 0.382735014
vt 0.364639014 0.395828009
vt 0.362291992 0.376278996
vt 0.328543007 0.396049976
vt 0.335083991 0.380952001
vt 0.328543007 0.396049976
vt 0.362291992 0.376278996
vt 0.350629002 0.394439995
vt 0.335083991 0.380952001
vt 0.298970997 0.398939967
vt 0.299071014 0.385213017
vt 0.298970997 0.398939967
vt 0.335083991 0.380952001
vt 0.328543007 0.396049976
vt 0.298970997 0.398939967
vt 0.276257008 0.417158961
vt 0.269391000 0.395680010
vt 0.276257008 0.417158961
vt 0.298970997 0.398939967
vt 0.298808992 0.418444991
vt 0.269391000 0.395680010
vt 0.276257008 0.417158961
vt 0.262432009 0.418080986
vt 0.269391000 0.395680010
vt 0.248041004 0.418350995
vt 0.247292995 0.393938005
vt 0.248041004 0.418350995
vt 0.269391000 0.395680010
vt 0.262432009 0.418080986
vt 0.247292995 0.393938005
vt 0.226924002 0.417912006
vt 0.232977003 0.395280957
vt 0.226924002 0.417912006
vt 0.247292995 0.393938005
vt 0.248041004 0.418350995
vt 0.364639014 0.395828009
vt 0.349640012 0.418869972
vt 0.350629002 0.394439995
vt 0.349640012 0.418869972
vt 0.364639014 0.395828009
vt 0.370317012 0.418796003
vt 0.350629002 0.394439995
vt 0.335134000 0.418537021
vt 0.328543007 0.396049976
vt 0.335134000 0.418537021
vt 0.350629002 0.394439995
vt 0.349640012 0.418869972
vt 0.328543007 0.396049976
vt 0.335134000 0.418537021
vt 0.321341991 0.417441010
vt 0.328543007 0.396049976
vt 0.298808992 0.418444991
vt 0.298970997 0.398939967
vt 0.298808992 0.418444991
vt 0.328543007 0.396049976
vt 0.321341991 0.417441010
vt 0.298808992 0.418444991
vt 0.274832010 0.488086998
vt 0.276257008 0.417158961
vt 0.274832010 0.488086998
vt 0.298808992 0.418444991
vt 0.298361003 0.489840031
vt 0.276257008 0.417158961
vt 0.261691988 0.489627004
vt 0.262432009 0.418080986
vt 0.261691988 0.489627004
vt 0.276257008 0.417158961
vt 0.274832010 0.488086998
vt 0.262432009 0.418080986
vt 0.245046005 0.490584970
vt 0.248041004 0.418350995
vt 0.245046005 0.490584970
vt 0.262432009 0.418080986
vt 0.261691988 0.489627004
vt 0.248041004 0.418350995
vt 0.220255002 0.493229032
vt 0.226924002 0.417912006
vt 0.220255002 0.493229032
vt 0.248041004 0.418350995
vt 0.245046005 0.490584970
vt 0.370317012 0.418796003
vt 0.351848006 0.491286039
vt 0.349640012 0.418869972
vt 0.351848006 0.491286039
vt 0.370317012 0.418796003
vt 0.375995010 0.494289994
vt 0.349640012 0.418869972
vt 0.335085005 0.490090966
vt 0.335134000 0.418537021
vt 0.335085005 0.490090966
vt 0.349640012 0.418869972
vt 0.351848006 0.491286039
vt 0.335134000 0.418537021
vt 0.321951002 0.488389969
vt 0.321341991 0.417441010
vt 0.321951002 0.488389969
vt 0.335134000 0.418537021
vt 0.335085005 0.490090966
vt 0.321341991 0.417441010
vt 0.298361003 0.489840031
vt 0.298808992 0.418444991
vt 0.298361003 0.489840031
vt 0.321341991 0.417441010
vt 0.321951002 0.488389969
vt 0.298361003 0.489840031
vt 0.279110998 0.557170987
vt 0.274832010 0.488086998
vt 0.279110998 0.557170987
vt 0.298361003 0.489840031
vt 0.297987014 0.557582974
vt 0.274832010 0.488086998
vt 0.267251015 0.559674025
vt 0.261691988 0.489627004
vt 0.267251015 0.559674025
vt 0.274832010 0.488086998
vt 0.279110998 0.557170987
vt 0.261691988 0.489627004
vt 0.252090007 0.561896980
vt 0.245046005 0.490584970
vt 0.252090007 0.561896980
vt 0.261691988 0.489627004
vt 0.267251015 0.559674025
vt 0.245046005 0.490584970
vt 0.233245999 0.569836020
vt 0.220255002 0.493229032
vt 0.233245999 0.569836020
vt 0.245046005 0.490584970
vt 0.252090007 0.561896980
vt 0.375995010 0.494289994
vt 0.343858004 0.562592983
vt 0.351848006 0.491286039
vt 0.343858004 0.562592983
vt 0.375995010 0.494289994
vt 0.362188011 0.570650995
vt 0.351848006 0.491286039
vt 0.328637987 0.560030997
vt 0.335085005 0.490090966
vt 0.328637987 0.560030997
vt 0.351848006 0.491286039
vt 0.343858004 0.562592983
vt 0.335085005 0.490090966
vt 0.316830009 0.557385027
vt 0.321951002 0.488389969
vt 0.316830009 0.557385027
vt 0.335085005 0.490090966
vt 0.328637987 0.560030997
vt 0.321951002 0.488389969
vt 0.297987014 0.557582974
vt 0.298361003 0.489840031
vt 0.297987014 0.557582974
vt 0.321951002 0.488389969
vt 0.316830009 0.557385027
vt 0.297987014 0.557582974
vt 0.286861986 0.636878014
vt 0.279110998 0.557170987
vt 0.286861986 0.636878014
vt 0.297987014 0.557582974
vt 0.297567993 0.637149990
vt 0.279110998 0.557170987
vt 0.286861986 0.636878014
vt 0.267251015 0.559674025
vt 0.267251015 0.559674025
vt 0.276118010 0.637996972
vt 0.252090007 0.561896980
vt 0.276118010 0.637996972
vt 0.267251015 0.559674025
vt 0.286861986 0.636878014
vt 0.252090007 0.561896980
vt 0.268886000 0.643573999
vt 0.233245999 0.569836020
vt 0.268886000 0.643573999
vt 0.252090007 0.561896980
vt 0.276118010 0.637996972
vt 0.362188011 0.570650995
vt 0.318978012 0.638338029
vt 0.343858004 0.562592983
vt 0.318978012 0.638338029
vt 0.362188011 0.570650995
vt 0.325987995 0.643836975
vt 0.343858004 0.562592983
vt 0.308272988 0.637000024
vt 0.328637987 0.560030997
vt 0.308272988 0.637000024
vt 0.343858004 0.562592983
vt 0.318978012 0.638338029
vt 0.328637987 0.560030997
vt 0.308272988 0.637000024
vt 0.316830009 0.557385027
vt 0.316830009 0.557385027
vt 0.297567993 0.637149990
vt 0.297987014 0.557582974
vt 0.297567993 0.637149990
vt 0.316830009 0.557385027
vt 0.308272988 0.637000024
vt 0.297567993 0.637149990
vt 0.297367990 0.678640008
vt 0.286861986 0.636878014
vt 0.286861986 0.636878014
vt 0.297367990 0.678640008
vt 0.276118010 0.637996972
vt 0.276118010 0.637996972
vt 0.297367990 0.678640008
vt 0.268886000 0.643573999
vt 0.325987995 0.643836975
vt 0.297367990 0.678640008
vt 0.318978012 0.638338029
vt 0.318978012 0.638338029
vt 0.297367990 0.678640008
vt 0.308272988 0.637000024
vt 0.308272988 0.637000024
vt 0.297367990 0.678640008
vt 0.297567993 0.637149990
vn 0.514878005 -0.101917462 0.851183571
vn 0.087109468 -0.205012159 0.974875354
vn 0.416440665 0.201869926 0.886468108
vn 0.087109468 -0.205012159 0.974875354
vn 0.514878005 -0.101917462 0.851183571
vn 0.271644505 -0.465819861 0.842152670
vn 0.659546039 0.621896902 0.422188661
vn 0.873638112 0.473687025 0.111252201
vn 0.799316572 0.349220131 0.489017707
vn 0.873638112 0.473687025 0.111252201
vn 0.659546039 0.621896902 0.422188661
vn 0.504808653 0.849300204 0.154458368
vn -0.563561612 0.821392349 0.087823230
vn -0.092890817 0.902362080 0.420849109
vn -0.509137870 0.709343490 0.487453016
vn -0.092890817 0.902362080 0.420849109
vn -0.563561612 0.821392349 0.087823230
vn 0.033143301 0.994345195 0.100891799
vn 0.416440665 0.201869926 0.886468108
vn 0.659546039 0.621896902 0.422188661
vn 0.799316572 0.349220131 0.489017707
vn 0.659546039 0.621896902 0.422188661
vn 0.416440665 0.201869926 0.886468108
vn 0.042855479 0.521240900 0.852332876
vn -0.092890817 0.902362080 0.420849109
vn -0.369591125 0.480388085 0.795380216
vn -0.509137870 0.709343490 0.487453016
vn -0.369591125 0.480388085 0.795380216
vn -0.092890817 0.902362080 0.420849109
vn 0.042855479 0.521240900 0.852332876
vn 0.799316572 0.349220131 0.489017707
vn 0.514878005 -0.101917462 0.851183571
vn 0.416440665 0.201869926 0.886468108
vn 0.386013983 0.919199852 -0.077877067
vn 0.033143301 0.994345195 0.100891799
vn -0.077642367 0.983145192 -0.165520978
vn 0.033143301 0.994345195 0.100891799
vn 0.386013983 0.919199852 -0.077877067
vn 0.504808653 0.849300204 0.154458368
vn 0.042855479 0.521240900 0.852332876
vn -0.092890817 0.902362080 0.420849109
vn 0.659546039 0.621896902 0.422188661
vn 0.876142613 -0.482051986 -0.000060489
vn 0.342587228 -0.563004400 0.752103740
vn 0.514878005 -0.101917462 0.851183571
vn 0.342587228 -0.563004400 0.752103740
vn 0.876142613 -0.482051986 -0.000060489
vn 0.562363334 -0.816330213 -0.131728751
vn 0.416440665 0.201869926 0.886468108
vn 0.087109468 -0.205012159 0.974875354
vn -0.105142815 0.076302949 0.991525516
vn -0.544303208 0.791569493 -0.277762049
vn -0.142359018 0.916576870 -0.373658602
vn -0.077642367 0.983145192 -0.165520978
vn -0.142359018 0.916576870 -0.373658602
vn -0.544303208 0.791569493 -0.277762049
vn -0.572459468 0.759696947 -0.308465083
vn -0.077642367 0.983145192 -0.165520978
vn 0.198488307 0.910614652 -0.362468410
vn 0.386013983 0.919199852 -0.077877067
vn 0.198488307 0.910614652 -0.362468410
vn -0.077642367 0.983145192 -0.165520978
vn -0.142359018 0.916576870 -0.373658602
vn 0.823304706 0.536837734 -0.184322024
vn 0.790809704 0.042030646 -0.610617259
vn 0.702244199 0.376780261 -0.604061024
vn 0.790809704 0.042030646 -0.610617259
vn 0.823304706 0.536837734 -0.184322024
vn 0.682711272 0.470751225 -0.558836830
vn 0.386013983 0.919199852 -0.077877067
vn 0.682711272 0.470751225 -0.558836830
vn 0.823304706 0.536837734 -0.184322024
vn 0.682711272 0.470751225 -0.558836830
vn 0.386013983 0.919199852 -0.077877067
vn 0.198488307 0.910614652 -0.362468410
vn -0.572459468 0.759696947 -0.308465083
vn 0.177147552 0.863486395 -0.472239336
vn -0.142359018 0.916576870 -0.373658602
vn 0.177147552 0.863486395 -0.472239336
vn -0.572459468 0.759696947 -0.308465083
vn -0.441904651 0.897060736 -0.001521402
vn -0.142359018 0.916576870 -0.373658602
vn 0.177147552 0.863486395 -0.472239336
vn 0.198488307 0.910614652 -0.362468410
vn 0.682711272 0.470751225 -0.558836830
vn 0.598728820 -0.082289598 -0.796713388
vn 0.790809704 0.042030646 -0.610617259
vn 0.598728820 -0.082289598 -0.796713388
vn 0.682711272 0.470751225 -0.558836830
vn 0.177147552 0.863486395 -0.472239336
vn 0.198488307 0.910614652 -0.362468410
vn 0.177147552 0.863486395 -0.472239336
vn 0.682711272 0.470751225 -0.558836830
vn 0.873638112 0.473687025 0.111252201
vn 0.928408972 -0.241524592 -0.282351999
vn 0.799316572 0.349220131 0.489017707
vn 0.928408972 -0.241524592 -0.282351999
vn 0.873638112 0.473687025 0.111252201
vn 0.780076135 -0.330830888 -0.531066990
vn 0.876142613 -0.482051986 -0.000060489
vn 0.799316572 0.349220131 0.489017707
vn 0.928408972 -0.241524592 -0.282351999
vn 0.799316572 0.349220131 0.489017707
vn 0.876142613 -0.482051986 -0.000060489
vn 0.514878005 -0.101917462 0.851183571
vn -0.077642367 0.983145192 -0.165520978
vn -0.563561612 0.821392349 0.087823230
vn -0.544303208 0.791569493 -0.277762049
vn -0.563561612 0.821392349 0.087823230
vn -0.077642367 0.983145192 -0.165520978
vn 0.033143301 0.994345195 0.100891799
vn -0.092890817 0.902362080 0.420849109
vn 0.504808653 0.849300204 0.154458368
vn 0.659546039 0.621896902 0.422188661
vn 0.504808653 0.849300204 0.154458368
vn -0.092890817 0.902362080 0.420849109
vn 0.033143301 0.994345195 0.100891799
vn 0.823304706 0.536837734 -0.184322024
vn 0.504808653 0.849300204 0.154458368
vn 0.386013983 0.919199852 -0.077877067
vn 0.504808653 0.849300204 0.154458368
vn 0.823304706 0.536837734 -0.184322024
vn 0.873638112 0.473687025 0.111252201
vn 0.702244199 0.376780261 -0.604061024
vn 0.873638112 0.473687025 0.111252201
vn 0.823304706 0.536837734 -0.184322024
vn 0.873638112 0.473687025 0.111252201
vn 0.702244199 0.376780261 -0.604061024
vn 0.780076135 -0.330830888 -0.531066990
vn 0.928408972 -0.241524592 -0.282351999
vn 0.659547351 -0.483040852 -0.575906960
vn 0.876142613 -0.482051986 -0.000060489
vn 0.659547351 -0.483040852 -0.575906960
vn 0.928408972 -0.241524592 -0.282351999
vn 0.474285259 -0.687634460 -0.549738430
vn 0.876142613 -0.482051986 -0.000060489
vn 0.451225968 -0.612082838 -0.649422609
vn 0.562363334 -0.816330213 -0.131728751
vn 0.451225968 -0.612082838 -0.649422609
vn 0.876142613 -0.482051986 -0.000060489
vn 0.659547351 -0.483040852 -0.575906960
vn 0.790809704 0.042030646 -0.610617259
vn 0.625246005 -0.371496631 -0.686336423
vn 0.702244199 0.376780261 -0.604061024
vn 0.625246005 -0.371496631 -0.686336423
vn 0.790809704 0.042030646 -0.610617259
vn 0.562725229 -0.542729220 -0.623526511
vn 0.598728820 -0.082289598 -0.796713388
vn 0.562725229 -0.542729220 -0.623526511
vn 0.790809704 0.042030646 -0.610617259
vn 0.780076135 -0.330830888 -0.531066990
vn 0.474285259 -0.687634460 -0.549738430
vn 0.928408972 -0.241524592 -0.282351999
vn 0.474285259 -0.687634460 -0.549738430
vn 0.780076135 -0.330830888 -0.531066990
vn 0.243452640 -0.554220124 -0.795971649
vn 0.702244199 0.376780261 -0.604061024
vn 0.243452640 -0.554220124 -0.795971649
vn 0.780076135 -0.330830888 -0.531066990
vn 0.243452640 -0.554220124 -0.795971649
vn 0.702244199 0.376780261 -0.604061024
vn 0.625246005 -0.371496631 -0.686336423
vn 0.474285259 -0.687634460 -0.549738430
vn 0.738721840 -0.422234728 -0.525364519
vn 0.659547351 -0.483040852 -0.575906960
vn 0.738721840 -0.422234728 -0.525364519
vn 0.474285259 -0.687634460 -0.549738430
vn 0.556815045 -0.570519142 -0.603709296
vn 0.659547351 -0.483040852 -0.575906960
vn 0.489212551 -0.675655833 -0.551507276
vn 0.451225968 -0.612082838 -0.649422609
vn 0.489212551 -0.675655833 -0.551507276
vn 0.659547351 -0.483040852 -0.575906960
vn 0.738721840 -0.422234728 -0.525364519
vn 0.562725229 -0.542729220 -0.623526511
vn 0.596526333 -0.589247582 -0.544925335
vn 0.625246005 -0.371496631 -0.686336423
vn 0.596526333 -0.589247582 -0.544925335
vn 0.562725229 -0.542729220 -0.623526511
vn 0.539143735 -0.462328751 -0.703971703
vn 0.598728820 -0.082289598 -0.796713388
vn 0.539143735 -0.462328751 -0.703971703
vn 0.562725229 -0.542729220 -0.623526511
vn 0.539143735 -0.462328751 -0.703971703
vn 0.598728820 -0.082289598 -0.796713388
vn 0.373932568 -0.599441281 -0.707703741
vn 0.243452640 -0.554220124 -0.795971649
vn 0.556815045 -0.570519142 -0.603709296
vn 0.474285259 -0.687634460 -0.549738430
vn 0.556815045 -0.570519142 -0.603709296
vn 0.243452640 -0.554220124 -0.795971649
vn 0.466771414 -0.210775355 -0.858893589
vn 0.625246005 -0.371496631 -0.686336423
vn 0.466771414 -0.210775355 -0.858893589
vn 0.243452640 -0.554220124 -0.795971649
vn 0.466771414 -0.210775355 -0.858893589
vn 0.625246005 -0.371496631 -0.686336423
vn 0.596526333 -0.589247582 -0.544925335
vn -0.105142815 0.076302949 0.991525516
vn 0.042855479 0.521240900 0.852332876
vn 0.416440665 0.201869926 0.886468108
vn 0.042855479 0.521240900 0.852332876
vn -0.105142815 0.076302949 0.991525516
vn -0.369591125 0.480388085 0.795380216
vn 0.342587228 -0.563004400 0.752103740
vn 0.271644505 -0.465819861 0.842152670
vn 0.514878005 -0.101917462 0.851183571
vn -0.157140185 -0.559005749 0.814137295
vn 0.087109468 -0.205012159 0.974875354
vn 0.271644505 -0.465819861 0.842152670
vn 0.087109468 -0.205012159 0.974875354
vn -0.157140185 -0.559005749 0.814137295
vn -0.404898691 -0.357728265 0.841479375
vn -0.847993931 -0.405456630 0.341337392
vn -0.766180394 -0.642147737 0.024776770
vn -0.981570552 -0.174199147 0.078574224
vn -0.766180394 -0.642147737 0.024776770
vn -0.847993931 -0.405456630 0.341337392
vn -0.651463825 -0.637639547 0.411109100
vn -0.563561612 0.821392349 0.087823230
vn -0.832241241 0.397343972 0.386642322
vn -0.942460031 0.330725677 0.048883698
vn -0.832241241 0.397343972 0.386642322
vn -0.563561612 0.821392349 0.087823230
vn -0.509137870 0.709343490 0.487453016
vn -0.404898691 -0.357728265 0.841479375
vn -0.847993931 -0.405456630 0.341337392
vn -0.561994084 0.109963614 0.819799154
vn -0.847993931 -0.405456630 0.341337392
vn -0.404898691 -0.357728265 0.841479375
vn -0.651463825 -0.637639547 0.411109100
vn -0.832241241 0.397343972 0.386642322
vn -0.369591125 0.480388085 0.795380216
vn -0.561994084 0.109963614 0.819799154
vn -0.369591125 0.480388085 0.795380216
vn -0.832241241 0.397343972 0.386642322
vn -0.509137870 0.709343490 0.487453016
vn -0.651463825 -0.637639547 0.411109100
vn -0.404898691 -0.357728265 0.841479375
vn -0.157140185 -0.559005749 0.814137295
vn -0.986658550 -0.024674009 -0.160922649
vn -0.942460031 0.330725677 0.048883698
vn -0.981570552 -0.174199147 0.078574224
vn -0.942460031 0.330725677 0.048883698
vn -0.986658550 -0.024674009 -0.160922649
vn -0.860240755 0.449494496 -0.240708415
vn -0.561994084 0.109963614 0.819799154
vn -0.847993931 -0.405456630 0.341337392
vn -0.832241241 0.397343972 0.386642322
vn 0.127276835 -0.991061458 -0.039972413
vn 0.342587228 -0.563004400 0.752103740
vn 0.562363334 -0.816330213 -0.131728751
vn 0.342587228 -0.563004400 0.752103740
vn 0.127276835 -0.991061458 -0.039972413
vn -0.157140185 -0.559005749 0.814137295
vn -0.404898691 -0.357728265 0.841479375
vn -0.105142815 0.076302949 0.991525516
vn 0.087109468 -0.205012159 0.974875354
vn -0.544303208 0.791569493 -0.277762049
vn -0.759461866 0.477355057 -0.441983964
vn -0.572459468 0.759696947 -0.308465083
vn -0.759461866 0.477355057 -0.441983964
vn -0.544303208 0.791569493 -0.277762049
vn -0.860240755 0.449494496 -0.240708415
vn -0.860240755 0.449494496 -0.240708415
vn -0.869870614 0.188028177 -0.456037848
vn -0.759461866 0.477355057 -0.441983964
vn -0.869870614 0.188028177 -0.456037848
vn -0.860240755 0.449494496 -0.240708415
vn -0.986658550 -0.024674009 -0.160922649
vn -0.785007024 -0.557212693 -0.270699069
vn -0.273507957 -0.667909183 -0.692163796
vn -0.609986934 -0.423385781 -0.669821186
vn -0.273507957 -0.667909183 -0.692163796
vn -0.785007024 -0.557212693 -0.270699069
vn -0.561552802 -0.482889238 -0.671919962
vn -0.986658550 -0.024674009 -0.160922649
vn -0.609986934 -0.423385781 -0.669821186
vn -0.869870614 0.188028177 -0.456037848
vn -0.609986934 -0.423385781 -0.669821186
vn -0.986658550 -0.024674009 -0.160922649
vn -0.785007024 -0.557212693 -0.270699069
vn -0.572459468 0.759696947 -0.308465083
vn -0.825340769 0.196832164 -0.529216132
vn -0.441904651 0.897060736 -0.001521402
vn -0.825340769 0.196832164 -0.529216132
vn -0.572459468 0.759696947 -0.308465083
vn -0.759461866 0.477355057 -0.441983964
vn -0.759461866 0.477355057 -0.441983964
vn -0.869870614 0.188028177 -0.456037848
vn -0.825340769 0.196832164 -0.529216132
vn -0.609986934 -0.423385781 -0.669821186
vn -0.125399033 -0.511340705 -0.850179843
vn -0.825340769 0.196832164 -0.529216132
vn -0.125399033 -0.511340705 -0.850179843
vn -0.609986934 -0.423385781 -0.669821186
vn -0.273507957 -0.667909183 -0.692163796
vn -0.869870614 0.188028177 -0.456037848
vn -0.609986934 -0.423385781 -0.669821186
vn -0.825340769 0.196832164 -0.529216132
vn -0.094125292 -0.937010206 -0.336381188
vn -0.766180394 -0.642147737 0.024776770
vn -0.651463825 -0.637639547 0.411109100
vn -0.766180394 -0.642147737 0.024776770
vn -0.094125292 -0.937010206 -0.336381188
vn 0.061567310 -0.819580257 -0.569646969
vn 0.127276835 -0.991061458 -0.039972413
vn -0.094125292 -0.937010206 -0.336381188
vn -0.651463825 -0.637639547 0.411109100
vn -0.651463825 -0.637639547 0.411109100
vn -0.157140185 -0.559005749 0.814137295
vn 0.127276835 -0.991061458 -0.039972413
vn -0.860240755 0.449494496 -0.240708415
vn -0.563561612 0.821392349 0.087823230
vn -0.942460031 0.330725677 0.048883698
vn -0.563561612 0.821392349 0.087823230
vn -0.860240755 0.449494496 -0.240708415
vn -0.544303208 0.791569493 -0.277762049
vn -0.832241241 0.397343972 0.386642322
vn -0.981570552 -0.174199147 0.078574224
vn -0.942460031 0.330725677 0.048883698
vn -0.981570552 -0.174199147 0.078574224
vn -0.832241241 0.397343972 0.386642322
vn -0.847993931 -0.405456630 0.341337392
vn -0.785007024 -0.557212693 -0.270699069
vn -0.981570552 -0.174199147 0.078574224
vn -0.766180394 -0.642147737 0.024776770
vn -0.981570552 -0.174199147 0.078574224
vn -0.785007024 -0.557212693 -0.270699069
vn -0.986658550 -0.024674009 -0.160922649
vn -0.561552802 -0.482889238 -0.671919962
vn -0.766180394 -0.642147737 0.024776770
vn 0.061567310 -0.819580257 -0.569646969
vn -0.766180394 -0.642147737 0.024776770
vn -0.561552802 -0.482889238 -0.671919962
vn -0.785007024 -0.557212693 -0.270699069
vn -0.094125292 -0.937010206 -0.336381188
vn 0.250086535 -0.761563331 -0.597894654
vn 0.505645283 -0.666302516 -0.548054564
vn 0.250086535 -0.761563331 -0.597894654
vn -0.094125292 -0.937010206 -0.336381188
vn 0.127276835 -0.991061458 -0.039972413
vn 0.127276835 -0.991061458 -0.039972413
vn 0.451225968 -0.612082838 -0.649422609
vn 0.250086535 -0.761563331 -0.597894654
vn 0.451225968 -0.612082838 -0.649422609
vn 0.127276835 -0.991061458 -0.039972413
vn 0.562363334 -0.816330213 -0.131728751
vn -0.273507957 -0.667909183 -0.692163796
vn 0.167147225 -0.683106456 -0.710934157
vn 0.329172430 -0.684508591 -0.650456378
vn 0.167147225 -0.683106456 -0.710934157
vn -0.273507957 -0.667909183 -0.692163796
vn -0.561552802 -0.482889238 -0.671919962
vn -0.125399033 -0.511340705 -0.850179843
vn -0.273507957 -0.667909183 -0.692163796
vn 0.329172430 -0.684508591 -0.650456378
vn 0.061567310 -0.819580257 -0.569646969
vn 0.505645283 -0.666302516 -0.548054564
vn 0.484013944 -0.390583803 -0.783054784
vn 0.505645283 -0.666302516 -0.548054564
vn 0.061567310 -0.819580257 -0.569646969
vn -0.094125292 -0.937010206 -0.336381188
vn -0.561552802 -0.482889238 -0.671919962
vn 0.484013944 -0.390583803 -0.783054784
vn 0.167147225 -0.683106456 -0.710934157
vn 0.484013944 -0.390583803 -0.783054784
vn -0.561552802 -0.482889238 -0.671919962
vn 0.061567310 -0.819580257 -0.569646969
vn 0.505645283 -0.666302516 -0.548054564
vn 0.161067430 -0.815167173 -0.556380952
vn 0.370792794 -0.697056569 -0.613697681
vn 0.161067430 -0.815167173 -0.556380952
vn 0.505645283 -0.666302516 -0.548054564
vn 0.250086535 -0.761563331 -0.597894654
vn 0.250086535 -0.761563331 -0.597894654
vn 0.489212551 -0.675655833 -0.551507276
vn 0.161067430 -0.815167173 -0.556380952
vn 0.489212551 -0.675655833 -0.551507276
vn 0.250086535 -0.761563331 -0.597894654
vn 0.451225968 -0.612082838 -0.649422609
vn 0.329172430 -0.684508591 -0.650456378
vn 0.369396958 -0.743752016 -0.557116528
vn 0.244328954 -0.620307718 -0.745333279
vn 0.369396958 -0.743752016 -0.557116528
vn 0.329172430 -0.684508591 -0.650456378
vn 0.167147225 -0.683106456 -0.710934157
vn -0.125399033 -0.511340705 -0.850179843
vn 0.244328954 -0.620307718 -0.745333279
vn 0.373932568 -0.599441281 -0.707703741
vn 0.244328954 -0.620307718 -0.745333279
vn -0.125399033 -0.511340705 -0.850179843
vn 0.329172430 -0.684508591 -0.650456378
vn 0.484013944 -0.390583803 -0.783054784
vn 0.370792794 -0.697056569 -0.613697681
vn 0.088387435 -0.468162559 -0.879210714
vn 0.370792794 -0.697056569 -0.613697681
vn 0.484013944 -0.390583803 -0.783054784
vn 0.505645283 -0.666302516 -0.548054564
vn 0.167147225 -0.683106456 -0.710934157
vn 0.088387435 -0.468162559 -0.879210714
vn 0.369396958 -0.743752016 -0.557116528
vn 0.088387435 -0.468162559 -0.879210714
vn 0.167147225 -0.683106456 -0.710934157
vn 0.484013944 -0.390583803 -0.783054784
vn -0.105142815 0.076302949 0.991525516
vn -0.561994084 0.109963614 0.819799154
vn -0.369591125 0.480388085 0.795380216
vn -0.561994084 0.109963614 0.819799154
vn -0.105142815 0.076302949 0.991525516
vn -0.404898691 -0.357728265 0.841479375
vn 0.342587228 -0.563004400 0.752103740
vn -0.157140185 -0.559005749 0.814137295
vn 0.271644505 -0.465819861 0.842152670
vn -0.441904651 0.897060736 -0.001521402
vn 0.630547456 0.660733286 0.407236333
vn 0.177147552 0.863486395 -0.472239336
vn 0.630547456 0.660733286 0.407236333
vn -0.441904651 0.897060736 -0.001521402
vn -0.470165567 0.776218132 0.420035416
vn 0.177147552 0.863486395 -0.472239336
vn 0.945616720 -0.266443484 0.186592842
vn 0.598728820 -0.082289598 -0.796713388
vn 0.945616720 -0.266443484 0.186592842
vn 0.177147552 0.863486395 -0.472239336
vn 0.630547456 0.660733286 0.407236333
vn 0.598728820 -0.082289598 -0.796713388
vn 0.449980297 -0.885764163 0.113752274
vn 0.373932568 -0.599441281 -0.707703741
vn 0.449980297 -0.885764163 0.113752274
vn 0.598728820 -0.082289598 -0.796713388
vn 0.945616720 -0.266443484 0.186592842
vn 0.373932568 -0.599441281 -0.707703741
vn -0.325941709 -0.925502672 0.192890660
vn -0.125399033 -0.511340705 -0.850179843
vn -0.325941709 -0.925502672 0.192890660
vn 0.373932568 -0.599441281 -0.707703741
vn 0.449980297 -0.885764163 0.113752274
vn -0.125399033 -0.511340705 -0.850179843
vn -0.930788149 -0.099364294 0.351795621
vn -0.825340769 0.196832164 -0.529216132
vn -0.930788149 -0.099364294 0.351795621
vn -0.125399033 -0.511340705 -0.850179843
vn -0.325941709 -0.925502672 0.192890660
vn -0.825340769 0.196832164 -0.529216132
vn -0.470165567 0.776218132 0.420035416
vn -0.441904651 0.897060736 -0.001521402
vn -0.470165567 0.776218132 0.420035416
vn -0.825340769 0.196832164 -0.529216132
vn -0.930788149 -0.099364294 0.351795621
vn -0.470165567 0.776218132 0.420035416
vn 0.376084801 0.805781054 0.457468158
vn 0.630547456 0.660733286 0.407236333
vn 0.376084801 0.805781054 0.457468158
vn -0.470165567 0.776218132 0.420035416
vn -0.351832789 0.840084397 0.412882422
vn 0.630547456 0.660733286 0.407236333
vn 0.376084801 0.805781054 0.457468158
vn 0.893445336 0.295424531 0.338348604
vn 0.630547456 0.660733286 0.407236333
vn 0.891140317 -0.430972731 0.141885304
vn 0.945616720 -0.266443484 0.186592842
vn 0.891140317 -0.430972731 0.141885304
vn 0.630547456 0.660733286 0.407236333
vn 0.893445336 0.295424531 0.338348604
vn 0.945616720 -0.266443484 0.186592842
vn 0.397703145 -0.916588389 -0.041205992
vn 0.449980297 -0.885764163 0.113752274
vn 0.397703145 -0.916588389 -0.041205992
vn 0.945616720 -0.266443484 0.186592842
vn 0.891140317 -0.430972731 0.141885304
vn 0.449980297 -0.885764163 0.113752274
vn -0.350817615 -0.933592248 -0.073024079
vn -0.325941709 -0.925502672 0.192890660
vn -0.350817615 -0.933592248 -0.073024079
vn 0.449980297 -0.885764163 0.113752274
vn 0.397703145 -0.916588389 -0.041205992
vn -0.325941709 -0.925502672 0.192890660
vn -0.905000177 -0.424057717 0.033907718
vn -0.930788149 -0.099364294 0.351795621
vn -0.905000177 -0.424057717 0.033907718
vn -0.325941709 -0.925502672 0.192890660
vn -0.350817615 -0.933592248 -0.073024079
vn -0.930788149 -0.099364294 0.351795621
vn -0.905000177 -0.424057717 0.033907718
vn -0.890826794 0.377235247 0.253221623
vn -0.930788149 -0.099364294 0.351795621
vn -0.351832789 0.840084397 0.412882422
vn -0.470165567 0.776218132 0.420035416
vn -0.351832789 0.840084397 0.412882422
vn -0.930788149 -0.099364294 0.351795621
vn -0.890826794 0.377235247 0.253221623
vn -0.351832789 0.840084397 0.412882422
vn 0.345700646 0.871322964 0.348263343
vn 0.376084801 0.805781054 0.457468158
vn 0.345700646 0.871322964 0.348263343
vn -0.351832789 0.840084397 0.412882422
vn -0.385507972 0.868666906 0.311129250
vn 0.376084801 0.805781054 0.457468158
vn 0.907041205 0.370699930 0.199644218
vn 0.893445336 0.295424531 0.338348604
vn 0.907041205 0.370699930 0.199644218
vn 0.376084801 0.805781054 0.457468158
vn 0.345700646 0.871322964 0.348263343
vn 0.893445336 0.295424531 0.338348604
vn 0.925988964 -0.376499347 -0.028154566
vn 0.891140317 -0.430972731 0.141885304
vn 0.925988964 -0.376499347 -0.028154566
vn 0.893445336 0.295424531 0.338348604
vn 0.907041205 0.370699930 0.199644218
vn 0.891140317 -0.430972731 0.141885304
vn 0.404335810 -0.883363844 -0.237025046
vn 0.397703145 -0.916588389 -0.041205992
vn 0.404335810 -0.883363844 -0.237025046
vn 0.891140317 -0.430972731 0.141885304
vn 0.925988964 -0.376499347 -0.028154566
vn 0.397703145 -0.916588389 -0.041205992
vn -0.366328457 -0.874163051 -0.318814087
vn -0.350817615 -0.933592248 -0.073024079
vn -0.366328457 -0.874163051 -0.318814087
vn 0.397703145 -0.916588389 -0.041205992
vn 0.404335810 -0.883363844 -0.237025046
vn -0.350817615 -0.933592248 -0.073024079
vn -0.915429477 -0.352490096 -0.194266838
vn -0.905000177 -0.424057717 0.033907718
vn -0.915429477 -0.352490096 -0.194266838
vn -0.350817615 -0.933592248 -0.073024079
vn -0.366328457 -0.874163051 -0.318814087
vn -0.905000177 -0.424057717 0.033907718
vn -0.930739150 0.359729609 0.065720943
vn -0.890826794 0.377235247 0.253221623
vn -0.930739150 0.359729609 0.065720943
vn -0.905000177 -0.424057717 0.033907718
vn -0.915429477 -0.352490096 -0.194266838
vn -0.890826794 0.377235247 0.253221623
vn -0.385507972 0.868666906 0.311129250
vn -0.351832789 0.840084397 0.412882422
vn -0.385507972 0.868666906 0.311129250
vn -0.890826794 0.377235247 0.253221623
vn -0.930739150 0.359729609 0.065720943
vn -0.385507972 0.868666906 0.311129250
vn 0.364275096 0.908323540 0.205552916
vn 0.345700646 0.871322964 0.348263343
vn 0.364275096 0.908323540 0.205552916
vn -0.385507972 0.868666906 0.311129250
vn -0.406194747 0.910554034 0.076793093
vn 0.345700646 0.871322964 0.348263343
vn 0.914859780 0.397991472 0.068076211
vn 0.907041205 0.370699930 0.199644218
vn 0.914859780 0.397991472 0.068076211
vn 0.345700646 0.871322964 0.348263343
vn 0.364275096 0.908323540 0.205552916
vn 0.907041205 0.370699930 0.199644218
vn 0.938063330 -0.288767829 -0.191442759
vn 0.925988964 -0.376499347 -0.028154566
vn 0.938063330 -0.288767829 -0.191442759
vn 0.907041205 0.370699930 0.199644218
vn 0.914859780 0.397991472 0.068076211
vn 0.925988964 -0.376499347 -0.028154566
vn 0.382356722 -0.821235659 -0.423527246
vn 0.404335810 -0.883363844 -0.237025046
vn 0.382356722 -0.821235659 -0.423527246
vn 0.925988964 -0.376499347 -0.028154566
vn 0.938063330 -0.288767829 -0.191442759
vn 0.404335810 -0.883363844 -0.237025046
vn -0.448202818 -0.736281656 -0.506955183
vn -0.366328457 -0.874163051 -0.318814087
vn -0.448202818 -0.736281656 -0.506955183
vn 0.404335810 -0.883363844 -0.237025046
vn 0.382356722 -0.821235659 -0.423527246
vn -0.366328457 -0.874163051 -0.318814087
vn -0.884323181 -0.257767337 -0.389266633
vn -0.915429477 -0.352490096 -0.194266838
vn -0.884323181 -0.257767337 -0.389266633
vn -0.366328457 -0.874163051 -0.318814087
vn -0.448202818 -0.736281656 -0.506955183
vn -0.915429477 -0.352490096 -0.194266838
vn -0.901715918 0.394645853 -0.176530601
vn -0.930739150 0.359729609 0.065720943
vn -0.901715918 0.394645853 -0.176530601
vn -0.915429477 -0.352490096 -0.194266838
vn -0.884323181 -0.257767337 -0.389266633
vn -0.930739150 0.359729609 0.065720943
vn -0.406194747 0.910554034 0.076793093
vn -0.385507972 0.868666906 0.311129250
vn -0.406194747 0.910554034 0.076793093
vn -0.930739150 0.359729609 0.065720943
vn -0.901715918 0.394645853 -0.176530601
vn -0.406194747 0.910554034 0.076793093
vn 0.567174737 0.823559848 0.007873605
vn 0.364275096 0.908323540 0.205552916
vn 0.567174737 0.823559848 0.007873605
vn -0.406194747 0.910554034 0.076793093
vn -0.493224479 0.863408368 -0.106092429
vn 0.364275096 0.908323540 0.205552916
vn 0.567174737 0.823559848 0.007873605
vn 0.914859780 0.397991472 0.068076211
vn 0.914859780 0.397991472 0.068076211
vn 0.959105426 -0.085789597 -0.269734919
vn 0.938063330 -0.288767829 -0.191442759
vn 0.959105426 -0.085789597 -0.269734919
vn 0.914859780 0.397991472 0.068076211
vn 0.567174737 0.823559848 0.007873605
vn 0.938063330 -0.288767829 -0.191442759
vn 0.406674053 -0.740719882 -0.534743183
vn 0.382356722 -0.821235659 -0.423527246
vn 0.406674053 -0.740719882 -0.534743183
vn 0.938063330 -0.288767829 -0.191442759
vn 0.959105426 -0.085789597 -0.269734919
vn 0.382356722 -0.821235659 -0.423527246
vn -0.423174728 -0.671556280 -0.608223078
vn -0.448202818 -0.736281656 -0.506955183
vn -0.423174728 -0.671556280 -0.608223078
vn 0.382356722 -0.821235659 -0.423527246
vn 0.406674053 -0.740719882 -0.534743183
vn -0.448202818 -0.736281656 -0.506955183
vn -0.917882678 0.079123463 -0.388884130
vn -0.884323181 -0.257767337 -0.389266633
vn -0.917882678 0.079123463 -0.388884130
vn -0.448202818 -0.736281656 -0.506955183
vn -0.423174728 -0.671556280 -0.608223078
vn -0.884323181 -0.257767337 -0.389266633
vn -0.917882678 0.079123463 -0.388884130
vn -0.901715918 0.394645853 -0.176530601
vn -0.901715918 0.394645853 -0.176530601
vn -0.493224479 0.863408368 -0.106092429
vn -0.406194747 0.910554034 0.076793093
vn -0.493224479 0.863408368 -0.106092429
vn -0.901715918 0.394645853 -0.176530601
vn -0.917882678 0.079123463 -0.388884130
vn -0.493224479 0.863408368 -0.106092429
vn -0.061791237 0.216626462 -0.974297090
vn 0.567174737 0.823559848 0.007873605
vn 0.567174737 0.823559848 0.007873605
vn -0.061791237 0.216626462 -0.974297090
vn 0.959105426 -0.085789597 -0.269734919
vn 0.959105426 -0.085789597 -0.269734919
vn -0.061791237 0.216626462 -0.974297090
vn 0.406674053 -0.740719882 -0.534743183
vn 0.406674053 -0.740719882 -0.534743183
vn -0.061791237 0.216626462 -0.974297090
vn -0.423174728 -0.671556280 -0.608223078
vn -0.423174728 -0.671556280 -0.608223078
vn -0.061791237 0.216626462 -0.974297090
vn -0.917882678 0.079123463 -0.388884130
vn -0.917882678 0.079123463 -0.388884130
vn -0.061791237 0.216626462 -0.974297090
vn -0.493224479 0.863408368 -0.106092429
f 3/3/3 2/2/2 1/1/1
f 6/6/6 5/5/5 4/4/4
f 9/9/9 8/8/8 7/7/7
f 12/12/12 11/11/11 10/10/10
f 15/15/15 14/14/14 13/13/13
f 18/18/18 17/17/17 16/16/16
f 21/21/21 20/20/20 19/19/19
f 24/24/24 23/23/23 22/22/22
f 27/27/27 26/26/26 25/25/25
f 30/30/30 29/29/29 28/28/28
f 33/33/33 32/32/32 31/31/31
f 36/36/36 35/35/35 34/34/34
f 39/39/39 38/38/38 37/37/37
f 42/42/42 41/41/41 40/40/40
f 45/45/45 44/44/44 43/43/43
f 48/48/48 47/47/47 46/46/46
f 51/51/51 50/50/50 49/49/49
f 54/54/54 53/53/53 52/52/52
f 57/57/57 56/56/56 55/55/55
f 60/60/60 59/59/59 58/58/58
f 63/63/63 62/62/62 61/61/61
f 66/66/66 65/65/65 64/64/64
f 69/69/69 68/68/68 67/67/67
f 72/72/72 71/71/71 70/70/70
f 75/75/75 74/74/74 73/73/73
f 78/78/78 77/77/77 76/76/76
f 81/81/81 80/80/80 79/79/79
f 84/84/84 83/83/83 82/82/82
f 87/87/87 86/86/86 85/85/85
f 90/90/90 89/89/89 88/88/88
f 93/93/93 92/92/92 91/91/91
f 96/96/96 95/95/95 94/94/94
f 99/99/99 98/98/98 97/97/97
f 102/102/102 101/101/101 100/100/100
f 105/105/105 104/104/104 103/103/103
f 108/108/108 107/107/107 106/106/106
f 111/111/111 110/110/110 109/109/109
f 114/114/114 113/113/113 112/112/112
f 117/117/117 116/116/116 115/115/115
f 120/120/120 119/119/119 118/118/118
f 123/123/123 122/122/122 121/121/121
f 126/126/126 125/125/125 124/124/124
f 129/129/129 128/128/128 127/127/127
f 132/132/132 131/131/131 130/130/130
f 135/135/135 134/134/134 133/133/133
f 138/138/138 137/137/137 136/136/136
f 141/141/141 140/140/140 139/139/139
f 144/144/144 143/143/143 142/142/142
f 147/147/147 146/146/146 145/145/145
f 150/150/150 149/149/149 148/148/148
f 153/153/153 152/152/152 151/151/151
f 156/156/156 155/155/155 154/154/154
f 159/159/159 158/158/158 157/157/157
f 162/162/162 161/161/161 160/160/160
f 165/165/165 164/164/164 163/163/163
f 168/168/168 167/167/167 166/166/166
f 171/171/171 170/170/170 169/169/169
f 174/174/174 173/173/173 172/172/172
f 177/177/177 176/176/176 175/175/175
f 180/180/180 179/179/179 178/178/178
f 183/183/183 182/182/182 181/181/181
f 186/186/186 185/185/185 184/184/184
f 189/189/189 188/188/188 187/187/187
f 192/192/192 191/191/191 190/190/190
f 195/195/195 194/194/194 193/193/193
f 198/198/198 197/197/197 196/196/196
f 201/201/201 200/200/200 199/199/199
f 204/204/204 203/203/203 202/202/202
f 207/207/207 206/206/206 205/205/205
f 210/210/210 209/209/209 208/208/208
f 213/213/213 212/212/212 211/211/211
f 216/216/216 215/215/215 214/214/214
f 219/219/219 218/218/218 217/217/217
f 222/222/222 221/221/221 220/220/220
f 225/225/225 224/224/224 223/223/223
f 228/228/228 227/227/227 226/226/226
f 231/231/231 230/230/230 229/229/229
f 234/234/234 233/233/233 232/232/232
f 237/237/237 236/236/236 235/235/235
f 240/240/240 239/239/239 238/238/238
f 243/243/243 242/242/242 241/241/241
f 246/246/246 245/245/245 244/244/244
f 249/249/249 248/248/248 247/247/247
f 252/252/252 251/251/251 250/250/250
f 255/255/255 254/254/254 253/253/253
f 258/258/258 257/257/257 256/256/256
f 261/261/261 260/260/260 259/259/259
f 264/264/264 263/263/263 262/262/262
f 267/267/267 266/266/266 265/265/265
f 270/270/270 269/269/269 268/268/268
f 273/273/273 272/272/272 271/271/271
f 276/276/276 275/275/275 274/274/274
f 279/279/279 278/278/278 277/277/277
f 282/282/282 281/281/281 280/280/280
f 285/285/285 284/284/284 283/283/283
f 288/288/288 287/287/287 286/286/286
f 291/291/291 290/290/290 289/289/289
f 294/294/294 293/293/293 292/292/292
f 297/297/297 296/296/296 295/295/295
f 300/300/300 299/299/299 298/298/298
f 303/303/303 302/302/302 301/301/301
f 306/306/306 305/305/305 304/304/304
f 309/309/309 308/308/308 307/307/307
f 312/312/312 311/311/311 310/310/310
f 315/315/315 314/314/314 313/313/313
f 318/318/318 317/317/317 316/316/316
f 321/321/321 320/320/320 319/319/319
f 324/324/324 323/323/323 322/322/322
f 327/327/327 326/326/326 325/325/325
f 330/330/330 329/329/329 328/328/328
f 333/333/333 332/332/332 331/331/331
f 336/336/336 335/335/335 334/334/334
f 339/339/339 338/338/338 337/337/337
f 342/342/342 341/341/341 340/340/340
f 345/345/345 344/344/344 343/343/343
f 348/348/348 347/347/347 346/346/346
f 351/351/351 350/350/350 349/349/349
f 354/354/354 353/353/353 352/352/352
f 357/357/357 356/356/356 355/355/355
f 360/360/360 359/359/359 358/358/358
f 363/363/363 362/362/362 361/361/361
f 366/366/366 365/365/365 364/364/364
f 369/369/369 368/368/368 367/367/367
f 372/372/372 371/371/371 370/370/370
f 375/375/375 374/374/374 373/373/373
f 378/378/378 377/377/377 376/376/376
f 381/381/381 380/380/380 379/379/379
f 384/384/384 383/383/383 382/382/382
f 387/387/387 386/386/386 385/385/385
f 390/390/390 389/389/389 388/388/388
f 393/393/393 392/392/392 391/391/391
f 396/396/396 395/395/395 394/394/394
f 399/399/399 398/398/398 397/397/397
f 402/402/402 401/401/401 400/400/400
f 405/405/405 404/404/404 403/403/403
f 408/408/408 407/407/407 406/406/406
f 411/411/411 410/410/410 409/409/409
f 414/414/414 413/413/413 412/412/412
f 417/417/417 416/416/416 415/415/415
f 420/420/420 419/419/419 418/418/418
f 423/423/423 422/422/422 421/421/421
f 426/426/426 425/425/425 424/424/424
f 429/429/429 428/428/428 427/427/427
f 432/432/432 431/431/431 430/430/430
f 435/435/435 434/434/434 433/433/433
f 438/438/438 437/437/437 436/436/436
f 441/441/441 440/440/440 439/439/439
f 444/444/444 443/443/443 442/442/442
f 447/447/447 446/446/446 445/445/445
f 450/450/450 449/449/449 448/448/448
f 453/453/453 452/452/452 451/451/451
f 456/456/456 455/455/455 454/454/454
f 459/459/459 458/458/458 457/457/457
f 462/462/462 461/461/461 460/460/460
f 465/465/465 464/464/464 463/463/463
f 468/468/468 467/467/467 466/466/466
f 471/471/471 470/470/470 469/469/469
f 474/474/474 473/473/473 472/472/472
f 477/477/477 476/476/476 475/475/475
f 480/480/480 479/479/479 478/478/478
f 483/483/483 482/482/482 481/481/481
f 486/486/486 485/485/485 484/484/484
f 489/489/489 488/488/488 487/487/487
f 492/492/492 491/491/491 490/490/490
f 495/495/495 494/494/494 493/493/493
f 498/498/498 497/497/497 496/496/496
f 501/501/501 500/500/500 499/499/499
f 504/504/504 503/503/503 502/502/502
f 507/507/507 506/506/506 505/505/505
f 510/510/510 509/509/509 508/508/508
f 513/513/513 512/512/512 511/511/511
f 516/516/516 515/515/515 514/514/514
f 519/519/519 518/518/518 517/517/517
f 522/522/522 521/521/521 520/520/520
f 525/525/525 524/524/524 523/523/523
f 528/528/528 527/527/527 526/526/526
f 531/531/531 530/530/530 529/529/529
f 534/534/534 533/533/533 532/532/532
f 537/537/537 536/536/536 535/535/535
f 540/540/540 539/539/539 538/538/538
f 543/543/543 542/542/542 541/541/541
f 546/546/546 545/545/545 544/544/544
f 549/549/549 548/548/548 547/547/547
f 552/552/552 551/551/551 550/550/550
f 555/555/555 554/554/554 553/553/553
f 558/558/558 557/557/557 556/556/556
f 561/561/561 560/560/560 559/559/559
f 564/564/564 563/563/563 562/562/562
f 567/567/567 566/566/566 565/565/565
f 570/570/570 569/569/569 568/568/568
f 573/573/573 572/572/572 571/571/571
f 576/576/576 575/575/575 574/574/574
f 579/579/579 578/578/578 577/577/577
f 582/582/582 581/581/581 580/580/580
f 585/585/585 584/584/584 583/583/583
f 588/588/588 587/587/587 586/586/586
f 591/591/591 590/590/590 589/589/589
f 594/594/594 593/593/593 592/592/592
f 597/597/597 596/596/596 595/595/595
f 600/600/600 599/599/599 598/598/598
f 603/603/603 602/602/602 601/601/601
f 606/606/606 605/605/605 604/604/604
f 609/609/609 608/608/608 607/607/607
f 612/612/612 611/611/611 610/610/610
f 615/615/615 614/614/614 613/613/613
f 618/618/618 617/617/617 616/616/616
f 621/621/621 620/620/620 619/619/619
f 624/624/624 623/623/623 622/622/622
f 627/627/627 626/626/626 625/625/625
f 630/630/630 629/629/629 628/628/628
f 633/633/633 632/632/632 631/631/631
f 636/636/636 635/635/635 634/634/634
f 639/639/639 638/638/638 637/637/637
f 642/642/642 641/641/641 640/640/640
f 645/645/645 644/644/644 643/643/643
f 648/648/648 647/647/647 646/646/646
