# Static pose baked from local Project Zomboid assets
o Kate_Hair_Bob
v -0.000052592 0.037470614 0.454264064
v 0.028402479 0.023406338 0.457779019
v 0.017220608 0.011681801 0.459274986
v -0.000052592 0.037470614 0.454264064
v 0.025916141 0.040254410 0.450498766
v 0.028402479 0.023406338 0.457779019
v -0.000052592 0.037470614 0.454264064
v 0.025882816 0.055082286 0.458704828
v 0.025916141 0.040254410 0.450498766
v -0.000052592 0.037470614 0.454264064
v 0.011982178 0.068006350 0.458669647
v 0.025882816 0.055082286 0.458704828
v -0.000052592 0.037470614 0.454264064
v -0.002674930 0.069057300 0.458232882
v 0.011982178 0.068006350 0.458669647
v -0.000052592 0.037470614 0.454264064
v -0.018907753 0.065747574 0.447194372
v -0.002674930 0.069057300 0.458232882
v 0.054375806 0.007550933 0.435013748
v 0.017220608 0.011681801 0.459274986
v 0.028402479 0.023406338 0.457779019
v 0.017220608 0.011681801 0.459274986
v 0.054375806 0.007550933 0.435013748
v 0.036663481 -0.014884878 0.433732592
v 0.044668655 0.037155620 0.435643179
v 0.028402479 0.023406338 0.457779019
v 0.025916141 0.040254410 0.450498766
v 0.028402479 0.023406338 0.457779019
v 0.044668655 0.037155620 0.435643179
v 0.054375806 0.007550933 0.435013748
v 0.048451934 0.062265989 0.436562522
v 0.025916141 0.040254410 0.450498766
v 0.025882816 0.055082286 0.458704828
v 0.025916141 0.040254410 0.450498766
v 0.048451934 0.062265989 0.436562522
v 0.044668655 0.037155620 0.435643179
v 0.024358543 0.093011266 0.439593611
v 0.025882816 0.055082286 0.458704828
v 0.011982178 0.068006350 0.458669647
v 0.025882816 0.055082286 0.458704828
v 0.024358543 0.093011266 0.439593611
v 0.048451934 0.062265989 0.436562522
v -0.000572106 0.096671547 0.438910220
v 0.011982178 0.068006350 0.458669647
v -0.002674930 0.069057300 0.458232882
v 0.011982178 0.068006350 0.458669647
v -0.000572106 0.096671547 0.438910220
v 0.024358543 0.093011266 0.439593611
v -0.031874284 0.085793236 0.434733537
v -0.002674930 0.069057300 0.458232882
v -0.018907753 0.065747574 0.447194372
v -0.002674930 0.069057300 0.458232882
v -0.031874284 0.085793236 0.434733537
v -0.000572106 0.096671547 0.438910220
v 0.063599651 0.003718245 0.406975113
v 0.036663481 -0.014884878 0.433732592
v 0.054375806 0.007550933 0.435013748
v 0.036663481 -0.014884878 0.433732592
v 0.063599651 0.003718245 0.406975113
v 0.043177230 -0.022157771 0.404557788
v 0.065074606 0.030419611 0.409467617
v 0.054375806 0.007550933 0.435013748
v 0.044668655 0.037155620 0.435643179
v 0.054375806 0.007550933 0.435013748
v 0.065074606 0.030419611 0.409467617
v 0.063599651 0.003718245 0.406975113
v 0.069054686 0.072300282 0.395944959
v 0.044668655 0.037155620 0.435643179
v 0.048451934 0.062265989 0.436562522
v 0.044668655 0.037155620 0.435643179
v 0.069054686 0.072300282 0.395944959
v 0.065074606 0.030419611 0.409467617
v 0.042751240 0.109101653 0.406319987
v 0.048451934 0.062265989 0.436562522
v 0.024358543 0.093011266 0.439593611
v 0.048451934 0.062265989 0.436562522
v 0.042751240 0.109101653 0.406319987
v 0.069054686 0.072300282 0.395944959
v 0.006694191 0.112342122 0.405266347
v 0.024358543 0.093011266 0.439593611
v -0.000572106 0.096671547 0.438910220
v 0.024358543 0.093011266 0.439593611
v 0.006694191 0.112342122 0.405266347
v 0.042751240 0.109101653 0.406319987
v -0.036445427 0.094992040 0.403331168
v -0.000572106 0.096671547 0.438910220
v -0.031874284 0.085793236 0.434733537
v -0.000572106 0.096671547 0.438910220
v -0.036445427 0.094992040 0.403331168
v 0.006694191 0.112342122 0.405266347
v 0.059405528 0.002847989 0.400919950
v 0.043177230 -0.022157771 0.404557788
v 0.063599651 0.003718245 0.406975113
v 0.043177230 -0.022157771 0.404557788
v 0.059405528 0.002847989 0.400919950
v 0.041723261 -0.019558044 0.398701749
v 0.058881820 0.026996145 0.403267203
v 0.063599651 0.003718245 0.406975113
v 0.065074606 0.030419611 0.409467617
v 0.063599651 0.003718245 0.406975113
v 0.058881820 0.026996145 0.403267203
v 0.059405528 0.002847989 0.400919950
v 0.070835328 0.031368401 0.360843822
v 0.065074606 0.030419611 0.409467617
v 0.069054686 0.072300282 0.395944959
v 0.065074606 0.030419611 0.409467617
v 0.070835328 0.031368401 0.360843822
v 0.058881820 0.026996145 0.403267203
v 0.045110935 0.098735702 0.360738114
v 0.069054686 0.072300282 0.395944959
v 0.042751240 0.109101653 0.406319987
v 0.069054686 0.072300282 0.395944959
v 0.045110935 0.098735702 0.360738114
v 0.070835328 0.031368401 0.360843822
v 0.008913246 0.108181398 0.359877160
v 0.042751240 0.109101653 0.406319987
v 0.006694191 0.112342122 0.405266347
v 0.042751240 0.109101653 0.406319987
v 0.008913246 0.108181398 0.359877160
v 0.045110935 0.098735702 0.360738114
v -0.032059782 0.092118849 0.358052396
v 0.006694191 0.112342122 0.405266347
v -0.036445427 0.094992040 0.403331168
v 0.006694191 0.112342122 0.405266347
v -0.032059782 0.092118849 0.358052396
v 0.008913246 0.108181398 0.359877160
v 0.045110935 0.098735702 0.360738114
v 0.063506950 0.039714207 0.333157790
v 0.070835328 0.031368401 0.360843822
v 0.063506950 0.039714207 0.333157790
v 0.045110935 0.098735702 0.360738114
v 0.064862534 0.094327491 0.332568419
v 0.008913246 0.108181398 0.359877160
v 0.064862534 0.094327491 0.332568419
v 0.045110935 0.098735702 0.360738114
v 0.064862534 0.094327491 0.332568419
v 0.008913246 0.108181398 0.359877160
v 0.011577828 0.116974493 0.331159435
v -0.032059782 0.092118849 0.358052396
v 0.011577828 0.116974493 0.331159435
v 0.008913246 0.108181398 0.359877160
v 0.011577828 0.116974493 0.331159435
v -0.032059782 0.092118849 0.358052396
v -0.036685653 0.101203921 0.329110090
v 0.064862534 0.094327491 0.332568419
v 0.054748844 0.026167503 0.313251819
v 0.063506950 0.039714207 0.333157790
v 0.054748844 0.026167503 0.313251819
v 0.064862534 0.094327491 0.332568419
v 0.055732629 0.068445490 0.304413534
v 0.011577828 0.116974493 0.331159435
v 0.055732629 0.068445490 0.304413534
v 0.064862534 0.094327491 0.332568419
v 0.055732629 0.068445490 0.304413534
v 0.011577828 0.116974493 0.331159435
v 0.011898744 0.102725907 0.306403161
v -0.036685653 0.101203921 0.329110090
v 0.011898744 0.102725907 0.306403161
v 0.011577828 0.116974493 0.331159435
v 0.011898744 0.102725907 0.306403161
v -0.036685653 0.101203921 0.329110090
v -0.025958966 0.087361454 0.304700513
v 0.053908440 0.026325366 0.399841034
v 0.070835328 0.031368401 0.360843822
v 0.056274183 0.040077145 0.360653493
v 0.070835328 0.031368401 0.360843822
v 0.053908440 0.026325366 0.399841034
v 0.058881820 0.026996145 0.403267203
v 0.063506950 0.039714207 0.333157790
v 0.056274183 0.040077145 0.360653493
v 0.070835328 0.031368401 0.360843822
v 0.056274183 0.040077145 0.360653493
v 0.063506950 0.039714207 0.333157790
v 0.049130046 0.040080167 0.332708245
v 0.054748844 0.026167503 0.313251819
v 0.049130046 0.040080167 0.332708245
v 0.063506950 0.039714207 0.333157790
v 0.049130046 0.040080167 0.332708245
v 0.054748844 0.026167503 0.313251819
v 0.048848544 0.022153957 0.312935006
v 0.055732629 0.068445490 0.304413534
v 0.048848544 0.022153957 0.312935006
v 0.054748844 0.026167503 0.313251819
v 0.048848544 0.022153957 0.312935006
v 0.055732629 0.068445490 0.304413534
v 0.034056897 0.053701062 0.303249667
v 0.011898744 0.102725907 0.306403161
v 0.034056897 0.053701062 0.303249667
v 0.055732629 0.068445490 0.304413534
v 0.034056897 0.053701062 0.303249667
v 0.011898744 0.102725907 0.306403161
v 0.007810547 0.081486167 0.305597042
v -0.025958966 0.087361454 0.304700513
v 0.007810547 0.081486167 0.305597042
v 0.011898744 0.102725907 0.306403161
v 0.007810547 0.081486167 0.305597042
v -0.025958966 0.087361454 0.304700513
v -0.014378723 0.070350730 0.304531392
v -0.000052592 0.037470614 0.454264064
v 0.017220608 0.011681801 0.459274986
v 0.002369462 0.005697965 0.456381189
v -0.000052592 0.037470614 0.454264064
v 0.002369462 0.005697965 0.456381189
v -0.011829918 0.014578504 0.448472011
v -0.000052592 0.037470614 0.454264064
v -0.011829918 0.014578504 0.448472011
v -0.026183219 0.019665539 0.455909169
v -0.000052592 0.037470614 0.454264064
v -0.026183219 0.019665539 0.455909169
v -0.033108898 0.037334161 0.456248504
v -0.000052592 0.037470614 0.454264064
v -0.033108898 0.037334161 0.456248504
v -0.028707947 0.051348927 0.456835053
v -0.000052592 0.037470614 0.454264064
v -0.028707947 0.051348927 0.456835053
v -0.018907753 0.065747574 0.447194372
v 0.009284729 -0.023121255 0.432592606
v 0.017220608 0.011681801 0.459274986
v 0.036663481 -0.014884878 0.433732592
v 0.017220608 0.011681801 0.459274986
v 0.009284729 -0.023121255 0.432592606
v 0.002369462 0.005697965 0.456381189
v -0.014702745 -0.003230436 0.432455262
v 0.002369462 0.005697965 0.456381189
v 0.009284729 -0.023121255 0.432592606
v 0.002369462 0.005697965 0.456381189
v -0.014702745 -0.003230436 0.432455262
v -0.011829918 0.014578504 0.448472011
v -0.039458647 0.002466798 0.431842208
v -0.011829918 0.014578504 0.448472011
v -0.014702745 -0.003230436 0.432455262
v -0.011829918 0.014578504 0.448472011
v -0.039458647 0.002466798 0.431842208
v -0.026183219 0.019665539 0.455909169
v -0.059435129 0.036012510 0.435094353
v -0.026183219 0.019665539 0.455909169
v -0.039458647 0.002466798 0.431842208
v -0.026183219 0.019665539 0.455909169
v -0.059435129 0.036012510 0.435094353
v -0.033108898 0.037334161 0.456248504
v -0.053692150 0.060537834 0.436057966
v -0.033108898 0.037334161 0.456248504
v -0.059435129 0.036012510 0.435094353
v -0.033108898 0.037334161 0.456248504
v -0.053692150 0.060537834 0.436057966
v -0.028707947 0.051348927 0.456835053
v -0.031874284 0.085793236 0.434733537
v -0.028707947 0.051348927 0.456835053
v -0.053692150 0.060537834 0.436057966
v -0.028707947 0.051348927 0.456835053
v -0.031874284 0.085793236 0.434733537
v -0.018907753 0.065747574 0.447194372
v 0.011533616 -0.031698501 0.404179454
v 0.036663481 -0.014884878 0.433732592
v 0.043177230 -0.022157771 0.404557788
v 0.036663481 -0.014884878 0.433732592
v 0.011533616 -0.031698501 0.404179454
v 0.009284729 -0.023121255 0.432592606
v -0.013972724 -0.023350553 0.405223211
v 0.009284729 -0.023121255 0.432592606
v 0.011533616 -0.031698501 0.404179454
v 0.009284729 -0.023121255 0.432592606
v -0.013972724 -0.023350553 0.405223211
v -0.014702745 -0.003230436 0.432455262
v -0.053309418 -0.010935142 0.389374681
v -0.014702745 -0.003230436 0.432455262
v -0.013972724 -0.023350553 0.405223211
v -0.014702745 -0.003230436 0.432455262
v -0.053309418 -0.010935142 0.389374681
v -0.039458647 0.002466798 0.431842208
v -0.078639797 0.026528136 0.399801957
v -0.039458647 0.002466798 0.431842208
v -0.053309418 -0.010935142 0.389374681
v -0.039458647 0.002466798 0.431842208
v -0.078639797 0.026528136 0.399801957
v -0.059435129 0.036012510 0.435094353
v -0.068422910 0.061245408 0.401232973
v -0.059435129 0.036012510 0.435094353
v -0.078639797 0.026528136 0.399801957
v -0.059435129 0.036012510 0.435094353
v -0.068422910 0.061245408 0.401232973
v -0.053692150 0.060537834 0.436057966
v -0.036445427 0.094992040 0.403331168
v -0.053692150 0.060537834 0.436057966
v -0.068422910 0.061245408 0.401232973
v -0.053692150 0.060537834 0.436057966
v -0.036445427 0.094992040 0.403331168
v -0.031874284 0.085793236 0.434733537
v 0.014314452 -0.027824199 0.398498807
v 0.043177230 -0.022157771 0.404557788
v 0.041723261 -0.019558044 0.398701749
v 0.043177230 -0.022157771 0.404557788
v 0.014314452 -0.027824199 0.398498807
v 0.011533616 -0.031698501 0.404179454
v -0.008082410 -0.018554763 0.399671593
v 0.011533616 -0.031698501 0.404179454
v 0.014314452 -0.027824199 0.398498807
v 0.011533616 -0.031698501 0.404179454
v -0.008082410 -0.018554763 0.399671593
v -0.013972724 -0.023350553 0.405223211
v -0.013391181 -0.025924783 0.356321323
v -0.013972724 -0.023350553 0.405223211
v -0.008082410 -0.018554763 0.399671593
v -0.013972724 -0.023350553 0.405223211
v -0.013391181 -0.025924783 0.356321323
v -0.053309418 -0.010935142 0.389374681
v -0.066537958 0.022789059 0.354743184
v -0.053309418 -0.010935142 0.389374681
v -0.013391181 -0.025924783 0.356321323
v -0.053309418 -0.010935142 0.389374681
v -0.066537958 0.022789059 0.354743184
v -0.078639797 0.026528136 0.399801957
v -0.062043987 0.059914339 0.356067148
v -0.078639797 0.026528136 0.399801957
v -0.066537958 0.022789059 0.354743184
v -0.078639797 0.026528136 0.399801957
v -0.062043987 0.059914339 0.356067148
v -0.068422910 0.061245408 0.401232973
v -0.032059782 0.092118849 0.358052396
v -0.068422910 0.061245408 0.401232973
v -0.062043987 0.059914339 0.356067148
v -0.068422910 0.061245408 0.401232973
v -0.032059782 0.092118849 0.358052396
v -0.036445427 0.094992040 0.403331168
v -0.066537958 0.022789059 0.354743184
v -0.016437440 -0.014666163 0.328865217
v -0.067584027 0.004233703 0.325456768
v -0.016437440 -0.014666163 0.328865217
v -0.066537958 0.022789059 0.354743184
v -0.013391181 -0.025924783 0.356321323
v -0.062043987 0.059914339 0.356067148
v -0.067584027 0.004233703 0.325456768
v -0.069073644 0.062113147 0.326828896
v -0.067584027 0.004233703 0.325456768
v -0.062043987 0.059914339 0.356067148
v -0.066537958 0.022789059 0.354743184
v -0.032059782 0.092118849 0.358052396
v -0.069073644 0.062113147 0.326828896
v -0.036685653 0.101203921 0.329110090
v -0.069073644 0.062113147 0.326828896
v -0.032059782 0.092118849 0.358052396
v -0.062043987 0.059914339 0.356067148
v -0.067584027 0.004233703 0.325456768
v 0.000789559 -0.010537084 0.310354503
v -0.038166633 0.004572633 0.299371661
v 0.000789559 -0.010537084 0.310354503
v -0.067584027 0.004233703 0.325456768
v -0.016437440 -0.014666163 0.328865217
v -0.069073644 0.062113147 0.326828896
v -0.038166633 0.004572633 0.299371661
v -0.054150251 0.057797567 0.302856694
v -0.038166633 0.004572633 0.299371661
v -0.069073644 0.062113147 0.326828896
v -0.067584027 0.004233703 0.325456768
v -0.036685653 0.101203921 0.329110090
v -0.054150251 0.057797567 0.302856694
v -0.025958966 0.087361454 0.304700513
v -0.054150251 0.057797567 0.302856694
v -0.036685653 0.101203921 0.329110090
v -0.069073644 0.062113147 0.326828896
v -0.005395231 -0.014014620 0.396656754
v -0.013391181 -0.025924783 0.356321323
v -0.008082410 -0.018554763 0.399671593
v -0.013391181 -0.025924783 0.356321323
v -0.005395231 -0.014014620 0.396656754
v -0.016151723 -0.009188945 0.356764622
v -0.016437440 -0.014666163 0.328865217
v -0.016151723 -0.009188945 0.356764622
v -0.011501874 -0.001163330 0.329452645
v -0.016151723 -0.009188945 0.356764622
v -0.016437440 -0.014666163 0.328865217
v -0.013391181 -0.025924783 0.356321323
v 0.000789559 -0.010537084 0.310354503
v -0.011501874 -0.001163330 0.329452645
v 0.006689858 -0.006523538 0.310671317
v -0.011501874 -0.001163330 0.329452645
v 0.000789559 -0.010537084 0.310354503
v -0.016437440 -0.014666163 0.328865217
v -0.038166633 0.004572633 0.299371661
v 0.006689858 -0.006523538 0.310671317
v -0.016490901 0.019317061 0.300535528
v 0.006689858 -0.006523538 0.310671317
v -0.038166633 0.004572633 0.299371661
v 0.000789559 -0.010537084 0.310354503
v -0.054150251 0.057797567 0.302856694
v -0.016490901 0.019317061 0.300535528
v -0.032884421 0.053804332 0.303411947
v -0.016490901 0.019317061 0.300535528
v -0.054150251 0.057797567 0.302856694
v -0.038166633 0.004572633 0.299371661
v -0.025958966 0.087361454 0.304700513
v -0.032884421 0.053804332 0.303411947
v -0.014378723 0.070350730 0.304531392
v -0.032884421 0.053804332 0.303411947
v -0.025958966 0.087361454 0.304700513
v -0.054150251 0.057797567 0.302856694
vt 0.201452002 0.376536965
vt 0.241410002 0.458920956
vt 0.200026006 0.462502956
vt 0.201452002 0.376536965
vt 0.278138995 0.426470041
vt 0.241410002 0.458920956
vt 0.306840986 0.024426997
vt 0.252721995 0.061303020
vt 0.229321003 0.043986022
vt 0.306840986 0.024426997
vt 0.294961005 0.070536017
vt 0.252721995 0.061303020
vt 0.306840986 0.024426997
vt 0.334239006 0.068275988
vt 0.294961005 0.070536017
vt 0.306840986 0.024426997
vt 0.393480986 0.068028986
vt 0.334239006 0.068275988
vt 0.268258005 0.559836984
vt 0.200026006 0.462502956
vt 0.241410002 0.458920956
vt 0.200026006 0.462502956
vt 0.268258005 0.559836984
vt 0.198148996 0.575707972
vt 0.324712992 0.497231007
vt 0.241410002 0.458920956
vt 0.278138995 0.426470041
vt 0.241410002 0.458920956
vt 0.324712992 0.497231007
vt 0.268258005 0.559836984
vt 0.195352003 0.095734000
vt 0.229321003 0.043986022
vt 0.252721995 0.061303020
vt 0.229321003 0.043986022
vt 0.195352003 0.095734000
vt 0.158020005 0.069949985
vt 0.275628000 0.114161015
vt 0.252721995 0.061303020
vt 0.294961005 0.070536017
vt 0.252721995 0.061303020
vt 0.275628000 0.114161015
vt 0.195352003 0.095734000
vt 0.326647013 0.114273012
vt 0.294961005 0.070536017
vt 0.334239006 0.068275988
vt 0.294961005 0.070536017
vt 0.326647013 0.114273012
vt 0.275628000 0.114161015
vt 0.392738998 0.113941014
vt 0.334239006 0.068275988
vt 0.393480986 0.068028986
vt 0.334239006 0.068275988
vt 0.392738998 0.113941014
vt 0.326647013 0.114273012
vt 0.289133012 0.637656987
vt 0.198148996 0.575707972
vt 0.268258005 0.559836984
vt 0.198148996 0.575707972
vt 0.289133012 0.637656987
vt 0.196775004 0.658820987
vt 0.353841990 0.597265005
vt 0.268258005 0.559836984
vt 0.324712992 0.497231007
vt 0.268258005 0.559836984
vt 0.353841990 0.597265005
vt 0.289133012 0.637656987
vt 0.152842999 0.161903977
vt 0.158020005 0.069949985
vt 0.195352003 0.095734000
vt 0.158020005 0.069949985
vt 0.152842999 0.161903977
vt 0.083094999 0.122246027
vt 0.241043001 0.163609028
vt 0.195352003 0.095734000
vt 0.275628000 0.114161015
vt 0.195352003 0.095734000
vt 0.241043001 0.163609028
vt 0.152842999 0.161903977
vt 0.304280013 0.165601969
vt 0.275628000 0.114161015
vt 0.326647013 0.114273012
vt 0.275628000 0.114161015
vt 0.304280013 0.165601969
vt 0.241043001 0.163609028
vt 0.391914994 0.164876997
vt 0.326647013 0.114273012
vt 0.392738998 0.113941014
vt 0.326647013 0.114273012
vt 0.391914994 0.164876997
vt 0.304280013 0.165601969
vt 0.286778986 0.657455027
vt 0.196775004 0.658820987
vt 0.289133012 0.637656987
vt 0.196775004 0.658820987
vt 0.286778986 0.657455027
vt 0.196502998 0.675261974
vt 0.353377014 0.625795007
vt 0.289133012 0.637656987
vt 0.353841990 0.597265005
vt 0.289133012 0.637656987
vt 0.353377014 0.625795007
vt 0.286778986 0.657455027
vt 0.054724999 0.211055994
vt 0.083094999 0.122246027
vt 0.152842999 0.161903977
vt 0.083094999 0.122246027
vt 0.054724999 0.211055994
vt 0.057367999 0.142791986
vt 0.213997006 0.222612977
vt 0.152842999 0.161903977
vt 0.241043001 0.163609028
vt 0.152842999 0.161903977
vt 0.213997006 0.222612977
vt 0.054724999 0.211055994
vt 0.297816008 0.229247987
vt 0.241043001 0.163609028
vt 0.304280013 0.165601969
vt 0.241043001 0.163609028
vt 0.297816008 0.229247987
vt 0.213997006 0.222612977
vt 0.390839010 0.231364965
vt 0.304280013 0.165601969
vt 0.391914994 0.164876997
vt 0.304280013 0.165601969
vt 0.390839010 0.231364965
vt 0.297816008 0.229247987
vt 0.213997006 0.222612977
vt 0.070221998 0.261026025
vt 0.054724999 0.211055994
vt 0.070221998 0.261026025
vt 0.213997006 0.222612977
vt 0.183258995 0.257542968
vt 0.297816008 0.229247987
vt 0.183258995 0.257542968
vt 0.213997006 0.222612977
vt 0.183258995 0.257542968
vt 0.297816008 0.229247987
vt 0.293633997 0.270334959
vt 0.390839010 0.231364965
vt 0.293633997 0.270334959
vt 0.297816008 0.229247987
vt 0.293633997 0.270334959
vt 0.390839010 0.231364965
vt 0.390127987 0.275061965
vt 0.183258995 0.257542968
vt 0.064595997 0.304639995
vt 0.070221998 0.261026025
vt 0.064595997 0.304639995
vt 0.183258995 0.257542968
vt 0.161569998 0.304264009
vt 0.293633997 0.270334959
vt 0.161569998 0.304264009
vt 0.183258995 0.257542968
vt 0.161569998 0.304264009
vt 0.293633997 0.270334959
vt 0.290253013 0.309579015
vt 0.390127987 0.275061965
vt 0.290253013 0.309579015
vt 0.293633997 0.270334959
vt 0.290253013 0.309579015
vt 0.390127987 0.275061965
vt 0.389432013 0.318019986
vt 0.043471001 0.149921000
vt 0.054724999 0.211055994
vt 0.023313999 0.216723979
vt 0.054724999 0.211055994
vt 0.043471001 0.149921000
vt 0.057367999 0.142791986
vt 0.070221998 0.261026025
vt 0.023313999 0.216723979
vt 0.054724999 0.211055994
vt 0.023313999 0.216723979
vt 0.070221998 0.261026025
vt 0.038550999 0.267773032
vt 0.064595997 0.304639995
vt 0.038550999 0.267773032
vt 0.070221998 0.261026025
vt 0.038550999 0.267773032
vt 0.064595997 0.304639995
vt 0.059560999 0.312649012
vt 0.161569998 0.304264009
vt 0.059560999 0.312649012
vt 0.064595997 0.304639995
vt 0.059560999 0.312649012
vt 0.161569998 0.304264009
vt 0.159804001 0.338217974
vt 0.290253013 0.309579015
vt 0.159804001 0.338217974
vt 0.161569998 0.304264009
vt 0.159804001 0.338217974
vt 0.290253013 0.309579015
vt 0.289321989 0.337581992
vt 0.389432013 0.318019986
vt 0.289321989 0.337581992
vt 0.290253013 0.309579015
vt 0.289321989 0.337581992
vt 0.389432013 0.318019986
vt 0.388965011 0.346894026
vt 0.201452002 0.376536965
vt 0.200026006 0.462502956
vt 0.158782005 0.457549989
vt 0.201452002 0.376536965
vt 0.158782005 0.457549989
vt 0.123147003 0.423898995
vt 0.481510997 0.025641024
vt 0.558393002 0.046283007
vt 0.534435987 0.063266993
vt 0.481510997 0.025641024
vt 0.534435987 0.063266993
vt 0.491903991 0.071905017
vt 0.481510997 0.025641024
vt 0.491903991 0.071905017
vt 0.452702999 0.069097996
vt 0.481510997 0.025641024
vt 0.452702999 0.069097996
vt 0.393480986 0.068028986
vt 0.128601998 0.557519019
vt 0.200026006 0.462502956
vt 0.198148996 0.575707972
vt 0.200026006 0.462502956
vt 0.128601998 0.557519019
vt 0.158782005 0.457549989
vt 0.074244000 0.493083000
vt 0.158782005 0.457549989
vt 0.128601998 0.557519019
vt 0.158782005 0.457549989
vt 0.074244000 0.493083000
vt 0.123147003 0.423898995
vt 0.590687990 0.098500013
vt 0.558393002 0.046283007
vt 0.628849983 0.073251009
vt 0.558393002 0.046283007
vt 0.590687990 0.098500013
vt 0.534435987 0.063266993
vt 0.509827018 0.115790009
vt 0.534435987 0.063266993
vt 0.590687990 0.098500013
vt 0.534435987 0.063266993
vt 0.509827018 0.115790009
vt 0.491903991 0.071905017
vt 0.458808988 0.115188003
vt 0.491903991 0.071905017
vt 0.509827018 0.115790009
vt 0.491903991 0.071905017
vt 0.458808988 0.115188003
vt 0.452702999 0.069097996
vt 0.392738998 0.113941014
vt 0.452702999 0.069097996
vt 0.458808988 0.115188003
vt 0.452702999 0.069097996
vt 0.392738998 0.113941014
vt 0.393480986 0.068028986
vt 0.105169997 0.634597003
vt 0.198148996 0.575707972
vt 0.196775004 0.658820987
vt 0.198148996 0.575707972
vt 0.105169997 0.634597003
vt 0.128601998 0.557519019
vt 0.041809998 0.592123985
vt 0.128601998 0.557519019
vt 0.105169997 0.634597003
vt 0.128601998 0.557519019
vt 0.041809998 0.592123985
vt 0.074244000 0.493083000
vt 0.631047010 0.165261984
vt 0.628849983 0.073251009
vt 0.702073991 0.126608968
vt 0.628849983 0.073251009
vt 0.631047010 0.165261984
vt 0.590687990 0.098500013
vt 0.542809010 0.165705979
vt 0.590687990 0.098500013
vt 0.631047010 0.165261984
vt 0.590687990 0.098500013
vt 0.542809010 0.165705979
vt 0.509827018 0.115790009
vt 0.479510009 0.166813970
vt 0.509827018 0.115790009
vt 0.542809010 0.165705979
vt 0.509827018 0.115790009
vt 0.479510009 0.166813970
vt 0.458808988 0.115188003
vt 0.391914994 0.164876997
vt 0.458808988 0.115188003
vt 0.479510009 0.166813970
vt 0.458808988 0.115188003
vt 0.391914994 0.164876997
vt 0.392738998 0.113941014
vt 0.106880002 0.654456973
vt 0.196775004 0.658820987
vt 0.196502998 0.675261974
vt 0.196775004 0.658820987
vt 0.106880002 0.654456973
vt 0.105169997 0.634597003
vt 0.041342001 0.620671988
vt 0.105169997 0.634597003
vt 0.106880002 0.654456973
vt 0.105169997 0.634597003
vt 0.041342001 0.620671988
vt 0.041809998 0.592123985
vt 0.727549016 0.215829968
vt 0.702073991 0.126608968
vt 0.727135003 0.147533000
vt 0.702073991 0.126608968
vt 0.727549016 0.215829968
vt 0.631047010 0.165261984
vt 0.567942977 0.225058019
vt 0.631047010 0.165261984
vt 0.727549016 0.215829968
vt 0.631047010 0.165261984
vt 0.567942977 0.225058019
vt 0.542809010 0.165705979
vt 0.483915001 0.230525970
vt 0.542809010 0.165705979
vt 0.567942977 0.225058019
vt 0.542809010 0.165705979
vt 0.483915001 0.230525970
vt 0.479510009 0.166813970
vt 0.390839010 0.231364965
vt 0.479510009 0.166813970
vt 0.483915001 0.230525970
vt 0.479510009 0.166813970
vt 0.390839010 0.231364965
vt 0.391914994 0.164876997
vt 0.567942977 0.225058019
vt 0.710393012 0.265568972
vt 0.597498000 0.260421038
vt 0.710393012 0.265568972
vt 0.567942977 0.225058019
vt 0.727549016 0.215829968
vt 0.483915001 0.230525970
vt 0.597498000 0.260421038
vt 0.486746997 0.271661043
vt 0.597498000 0.260421038
vt 0.483915001 0.230525970
vt 0.567942977 0.225058019
vt 0.390839010 0.231364965
vt 0.486746997 0.271661043
vt 0.390127987 0.275061965
vt 0.486746997 0.271661043
vt 0.390839010 0.231364965
vt 0.483915001 0.230525970
vt 0.597498000 0.260421038
vt 0.714591980 0.309240997
vt 0.617663980 0.307456970
vt 0.714591980 0.309240997
vt 0.597498000 0.260421038
vt 0.710393012 0.265568972
vt 0.486746997 0.271661043
vt 0.617663980 0.307456970
vt 0.488851994 0.310953975
vt 0.617663980 0.307456970
vt 0.486746997 0.271661043
vt 0.597498000 0.260421038
vt 0.390127987 0.275061965
vt 0.488851994 0.310953975
vt 0.389432013 0.318019986
vt 0.488851994 0.310953975
vt 0.390127987 0.275061965
vt 0.486746997 0.271661043
vt 0.740795016 0.154863000
vt 0.727549016 0.215829968
vt 0.727135003 0.147533000
vt 0.727549016 0.215829968
vt 0.740795016 0.154863000
vt 0.758762002 0.221939981
vt 0.710393012 0.265568972
vt 0.758762002 0.221939981
vt 0.741840005 0.272758961
vt 0.758762002 0.221939981
vt 0.710393012 0.265568972
vt 0.727549016 0.215829968
vt 0.714591980 0.309240997
vt 0.741840005 0.272758961
vt 0.719367981 0.317321002
vt 0.741840005 0.272758961
vt 0.714591980 0.309240997
vt 0.710393012 0.265568972
vt 0.617663980 0.307456970
vt 0.719367981 0.317321002
vt 0.618317008 0.341436028
vt 0.719367981 0.317321002
vt 0.617663980 0.307456970
vt 0.714591980 0.309240997
vt 0.488851994 0.310953975
vt 0.618317008 0.341436028
vt 0.488873988 0.338968992
vt 0.618317008 0.341436028
vt 0.488851994 0.310953975
vt 0.617663980 0.307456970
vt 0.389432013 0.318019986
vt 0.488873988 0.338968992
vt 0.388965011 0.346894026
vt 0.488873988 0.338968992
vt 0.389432013 0.318019986
vt 0.488851994 0.310953975
vn -0.047039992 -0.009691658 0.998845990
vn 0.464820916 0.164555442 0.869978748
vn 0.225144380 -0.401074971 0.887946437
vn -0.047039992 -0.009691658 0.998845990
vn 0.507176364 -0.043581743 0.860739663
vn 0.464820916 0.164555442 0.869978748
vn -0.047039992 -0.009691658 0.998845990
vn 0.450383869 0.090472640 0.888239310
vn 0.507176364 -0.043581743 0.860739663
vn -0.047039992 -0.009691658 0.998845990
vn 0.082748863 0.327762739 0.941129222
vn 0.450383869 0.090472640 0.888239310
vn -0.047039992 -0.009691658 0.998845990
vn -0.324550504 0.279659195 0.903580492
vn 0.082748863 0.327762739 0.941129222
vn -0.047039992 -0.009691658 0.998845990
vn -0.214800774 0.241069714 0.946438598
vn -0.324550504 0.279659195 0.903580492
vn 0.752308928 -0.170042698 0.636487830
vn 0.225144380 -0.401074971 0.887946437
vn 0.464820916 0.164555442 0.869978748
vn 0.225144380 -0.401074971 0.887946437
vn 0.752308928 -0.170042698 0.636487830
vn 0.460103043 -0.717659851 0.522751880
vn 0.788450747 0.100076903 0.606901997
vn 0.464820916 0.164555442 0.869978748
vn 0.507176364 -0.043581743 0.860739663
vn 0.464820916 0.164555442 0.869978748
vn 0.788450747 0.100076903 0.606901997
vn 0.752308928 -0.170042698 0.636487830
vn 0.757242824 0.239965081 0.607453756
vn 0.507176364 -0.043581743 0.860739663
vn 0.450383869 0.090472640 0.888239310
vn 0.507176364 -0.043581743 0.860739663
vn 0.757242824 0.239965081 0.607453756
vn 0.788450747 0.100076903 0.606901997
vn 0.370200770 0.654430975 0.659296207
vn 0.450383869 0.090472640 0.888239310
vn 0.082748863 0.327762739 0.941129222
vn 0.450383869 0.090472640 0.888239310
vn 0.370200770 0.654430975 0.659296207
vn 0.757242824 0.239965081 0.607453756
vn -0.198437979 0.805884521 0.557828385
vn 0.082748863 0.327762739 0.941129222
vn -0.324550504 0.279659195 0.903580492
vn 0.082748863 0.327762739 0.941129222
vn -0.198437979 0.805884521 0.557828385
vn 0.370200770 0.654430975 0.659296207
vn -0.459771696 0.626205560 0.629663866
vn -0.324550504 0.279659195 0.903580492
vn -0.214800774 0.241069714 0.946438598
vn -0.324550504 0.279659195 0.903580492
vn -0.459771696 0.626205560 0.629663866
vn -0.198437979 0.805884521 0.557828385
vn 0.881461675 -0.440858947 0.169318355
vn 0.460103043 -0.717659851 0.522751880
vn 0.752308928 -0.170042698 0.636487830
vn 0.460103043 -0.717659851 0.522751880
vn 0.881461675 -0.440858947 0.169318355
vn 0.555677665 -0.825015755 0.102817000
vn 0.943958194 -0.018226560 0.329561407
vn 0.752308928 -0.170042698 0.636487830
vn 0.788450747 0.100076903 0.606901997
vn 0.752308928 -0.170042698 0.636487830
vn 0.943958194 -0.018226560 0.329561407
vn 0.881461675 -0.440858947 0.169318355
vn 0.950651791 0.273763574 0.145995475
vn 0.788450747 0.100076903 0.606901997
vn 0.757242824 0.239965081 0.607453756
vn 0.788450747 0.100076903 0.606901997
vn 0.950651791 0.273763574 0.145995475
vn 0.943958194 -0.018226560 0.329561407
vn 0.546795802 0.809249468 0.214778139
vn 0.757242824 0.239965081 0.607453756
vn 0.370200770 0.654430975 0.659296207
vn 0.757242824 0.239965081 0.607453756
vn 0.546795802 0.809249468 0.214778139
vn 0.950651791 0.273763574 0.145995475
vn -0.190881974 0.974889202 0.114695752
vn 0.370200770 0.654430975 0.659296207
vn -0.198437979 0.805884521 0.557828385
vn 0.370200770 0.654430975 0.659296207
vn -0.190881974 0.974889202 0.114695752
vn 0.546795802 0.809249468 0.214778139
vn -0.562139871 0.815558563 0.137342622
vn -0.198437979 0.805884521 0.557828385
vn -0.459771696 0.626205560 0.629663866
vn -0.198437979 0.805884521 0.557828385
vn -0.562139871 0.815558563 0.137342622
vn -0.190881974 0.974889202 0.114695752
vn 0.790732784 -0.364447115 -0.491853601
vn 0.555677665 -0.825015755 0.102817000
vn 0.881461675 -0.440858947 0.169318355
vn 0.555677665 -0.825015755 0.102817000
vn 0.790732784 -0.364447115 -0.491853601
vn 0.518370081 -0.726438205 -0.451198396
vn 0.636280975 -0.700877513 -0.322361958
vn 0.881461675 -0.440858947 0.169318355
vn 0.943958194 -0.018226560 0.329561407
vn 0.881461675 -0.440858947 0.169318355
vn 0.636280975 -0.700877513 -0.322361958
vn 0.790732784 -0.364447115 -0.491853601
vn 0.978093475 -0.010394235 -0.207906501
vn 0.943958194 -0.018226560 0.329561407
vn 0.950651791 0.273763574 0.145995475
vn 0.943958194 -0.018226560 0.329561407
vn 0.978093475 -0.010394235 -0.207906501
vn 0.636280975 -0.700877513 -0.322361958
vn 0.826349302 0.559327286 -0.065572997
vn 0.950651791 0.273763574 0.145995475
vn 0.546795802 0.809249468 0.214778139
vn 0.950651791 0.273763574 0.145995475
vn 0.826349302 0.559327286 -0.065572997
vn 0.978093475 -0.010394235 -0.207906501
vn 0.033656865 0.999248286 0.019237420
vn 0.546795802 0.809249468 0.214778139
vn -0.190881974 0.974889202 0.114695752
vn 0.546795802 0.809249468 0.214778139
vn 0.033656865 0.999248286 0.019237420
vn 0.826349302 0.559327286 -0.065572997
vn -0.563590692 0.824365676 0.052789817
vn -0.190881974 0.974889202 0.114695752
vn -0.562139871 0.815558563 0.137342622
vn -0.190881974 0.974889202 0.114695752
vn -0.563590692 0.824365676 0.052789817
vn 0.033656865 0.999248286 0.019237420
vn 0.826349302 0.559327286 -0.065572997
vn 0.988412923 -0.100259712 0.113964393
vn 0.978093475 -0.010394235 -0.207906501
vn 0.988412923 -0.100259712 0.113964393
vn 0.826349302 0.559327286 -0.065572997
vn 0.817897407 0.564533899 -0.111109445
vn 0.033656865 0.999248286 0.019237420
vn 0.817897407 0.564533899 -0.111109445
vn 0.826349302 0.559327286 -0.065572997
vn 0.817897407 0.564533899 -0.111109445
vn 0.033656865 0.999248286 0.019237420
vn 0.101583967 0.976442432 -0.190370363
vn -0.563590692 0.824365676 0.052789817
vn 0.101583967 0.976442432 -0.190370363
vn 0.033656865 0.999248286 0.019237420
vn 0.101583967 0.976442432 -0.190370363
vn -0.563590692 0.824365676 0.052789817
vn -0.535933253 0.807360506 -0.246869522
vn 0.817897407 0.564533899 -0.111109445
vn 0.938411134 -0.211702789 -0.273068621
vn 0.988412923 -0.100259712 0.113964393
vn 0.938411134 -0.211702789 -0.273068621
vn 0.817897407 0.564533899 -0.111109445
vn 0.490761035 0.359996277 -0.793445831
vn 0.101583967 0.976442432 -0.190370363
vn 0.490761035 0.359996277 -0.793445831
vn 0.817897407 0.564533899 -0.111109445
vn 0.490761035 0.359996277 -0.793445831
vn 0.101583967 0.976442432 -0.190370363
vn 0.019525440 0.574841456 -0.818031820
vn -0.535933253 0.807360506 -0.246869522
vn 0.019525440 0.574841456 -0.818031820
vn 0.101583967 0.976442432 -0.190370363
vn 0.019525440 0.574841456 -0.818031820
vn -0.535933253 0.807360506 -0.246869522
vn -0.221551103 0.396041741 -0.891103837
vn -0.326111382 -0.909126072 -0.259116096
vn 0.978093475 -0.010394235 -0.207906501
vn -0.387727367 -0.903657338 -0.181854074
vn 0.978093475 -0.010394235 -0.207906501
vn -0.326111382 -0.909126072 -0.259116096
vn 0.636280975 -0.700877513 -0.322361958
vn 0.988412923 -0.100259712 0.113964393
vn -0.387727367 -0.903657338 -0.181854074
vn 0.978093475 -0.010394235 -0.207906501
vn -0.387727367 -0.903657338 -0.181854074
vn 0.988412923 -0.100259712 0.113964393
vn 0.058557357 -0.932334151 0.356824980
vn 0.938411134 -0.211702789 -0.273068621
vn 0.058557357 -0.932334151 0.356824980
vn 0.988412923 -0.100259712 0.113964393
vn 0.058557357 -0.932334151 0.356824980
vn 0.938411134 -0.211702789 -0.273068621
vn 0.263972652 -0.316134738 -0.911250386
vn 0.490761035 0.359996277 -0.793445831
vn 0.263972652 -0.316134738 -0.911250386
vn 0.938411134 -0.211702789 -0.273068621
vn 0.263972652 -0.316134738 -0.911250386
vn 0.490761035 0.359996277 -0.793445831
vn 0.054800668 -0.022855074 -0.998235710
vn 0.019525440 0.574841456 -0.818031820
vn 0.054800668 -0.022855074 -0.998235710
vn 0.490761035 0.359996277 -0.793445831
vn 0.054800668 -0.022855074 -0.998235710
vn 0.019525440 0.574841456 -0.818031820
vn 0.006542944 0.036667635 -0.999306096
vn -0.221551103 0.396041741 -0.891103837
vn 0.006542944 0.036667635 -0.999306096
vn 0.019525440 0.574841456 -0.818031820
vn 0.006542944 0.036667635 -0.999306096
vn -0.221551103 0.396041741 -0.891103837
vn 0.032044805 0.031746774 -0.998982118
vn -0.047039992 -0.009691658 0.998845990
vn 0.225144380 -0.401074971 0.887946437
vn -0.385987362 -0.414187728 0.824295021
vn -0.047039992 -0.009691658 0.998845990
vn -0.385987362 -0.414187728 0.824295021
vn -0.207548694 -0.529757374 0.822362855
vn -0.047039992 -0.009691658 0.998845990
vn -0.207548694 -0.529757374 0.822362855
vn -0.313292803 -0.429001220 0.847234072
vn -0.047039992 -0.009691658 0.998845990
vn -0.313292803 -0.429001220 0.847234072
vn -0.403382902 -0.002917437 0.915026624
vn -0.047039992 -0.009691658 0.998845990
vn -0.403382902 -0.002917437 0.915026624
vn -0.207462910 0.359305390 0.909867450
vn -0.047039992 -0.009691658 0.998845990
vn -0.207462910 0.359305390 0.909867450
vn -0.214800774 0.241069714 0.946438598
vn -0.163112109 -0.792737251 0.587334735
vn 0.225144380 -0.401074971 0.887946437
vn 0.460103043 -0.717659851 0.522751880
vn 0.225144380 -0.401074971 0.887946437
vn -0.163112109 -0.792737251 0.587334735
vn -0.385987362 -0.414187728 0.824295021
vn -0.424864824 -0.725253694 0.541753597
vn -0.385987362 -0.414187728 0.824295021
vn -0.163112109 -0.792737251 0.587334735
vn -0.385987362 -0.414187728 0.824295021
vn -0.424864824 -0.725253694 0.541753597
vn -0.207548694 -0.529757374 0.822362855
vn -0.543378717 -0.644753432 0.537617505
vn -0.207548694 -0.529757374 0.822362855
vn -0.424864824 -0.725253694 0.541753597
vn -0.207548694 -0.529757374 0.822362855
vn -0.543378717 -0.644753432 0.537617505
vn -0.313292803 -0.429001220 0.847234072
vn -0.790781263 -0.135300884 0.596957841
vn -0.313292803 -0.429001220 0.847234072
vn -0.543378717 -0.644753432 0.537617505
vn -0.313292803 -0.429001220 0.847234072
vn -0.790781263 -0.135300884 0.596957841
vn -0.403382902 -0.002917437 0.915026624
vn -0.716588991 0.453423984 0.530006518
vn -0.403382902 -0.002917437 0.915026624
vn -0.790781263 -0.135300884 0.596957841
vn -0.403382902 -0.002917437 0.915026624
vn -0.716588991 0.453423984 0.530006518
vn -0.207462910 0.359305390 0.909867450
vn -0.459771696 0.626205560 0.629663866
vn -0.207462910 0.359305390 0.909867450
vn -0.716588991 0.453423984 0.530006518
vn -0.207462910 0.359305390 0.909867450
vn -0.459771696 0.626205560 0.629663866
vn -0.214800774 0.241069714 0.946438598
vn 0.075413919 -0.989154773 0.126037995
vn 0.460103043 -0.717659851 0.522751880
vn 0.555677665 -0.825015755 0.102817000
vn 0.460103043 -0.717659851 0.522751880
vn 0.075413919 -0.989154773 0.126037995
vn -0.163112109 -0.792737251 0.587334735
vn -0.351430008 -0.899385210 0.260006142
vn -0.163112109 -0.792737251 0.587334735
vn 0.075413919 -0.989154773 0.126037995
vn -0.163112109 -0.792737251 0.587334735
vn -0.351430008 -0.899385210 0.260006142
vn -0.424864824 -0.725253694 0.541753597
vn -0.611463789 -0.788830361 0.062118405
vn -0.424864824 -0.725253694 0.541753597
vn -0.351430008 -0.899385210 0.260006142
vn -0.424864824 -0.725253694 0.541753597
vn -0.611463789 -0.788830361 0.062118405
vn -0.543378717 -0.644753432 0.537617505
vn -0.966315001 -0.220010062 0.133532361
vn -0.543378717 -0.644753432 0.537617505
vn -0.611463789 -0.788830361 0.062118405
vn -0.543378717 -0.644753432 0.537617505
vn -0.966315001 -0.220010062 0.133532361
vn -0.790781263 -0.135300884 0.596957841
vn -0.843755081 0.530786989 0.079640035
vn -0.790781263 -0.135300884 0.596957841
vn -0.966315001 -0.220010062 0.133532361
vn -0.790781263 -0.135300884 0.596957841
vn -0.843755081 0.530786989 0.079640035
vn -0.716588991 0.453423984 0.530006518
vn -0.562139871 0.815558563 0.137342622
vn -0.716588991 0.453423984 0.530006518
vn -0.843755081 0.530786989 0.079640035
vn -0.716588991 0.453423984 0.530006518
vn -0.562139871 0.815558563 0.137342622
vn -0.459771696 0.626205560 0.629663866
vn 0.086012992 -0.843816857 -0.529693191
vn 0.555677665 -0.825015755 0.102817000
vn 0.518370081 -0.726438205 -0.451198396
vn 0.555677665 -0.825015755 0.102817000
vn 0.086012992 -0.843816857 -0.529693191
vn 0.075413919 -0.989154773 0.126037995
vn 0.442208222 -0.832891126 -0.332782602
vn 0.075413919 -0.989154773 0.126037995
vn 0.086012992 -0.843816857 -0.529693191
vn 0.075413919 -0.989154773 0.126037995
vn 0.442208222 -0.832891126 -0.332782602
vn -0.351430008 -0.899385210 0.260006142
vn -0.331765286 -0.901396135 -0.278238752
vn -0.351430008 -0.899385210 0.260006142
vn 0.442208222 -0.832891126 -0.332782602
vn -0.351430008 -0.899385210 0.260006142
vn -0.331765286 -0.901396135 -0.278238752
vn -0.611463789 -0.788830361 0.062118405
vn -0.815714453 -0.557649593 -0.153742847
vn -0.611463789 -0.788830361 0.062118405
vn -0.331765286 -0.901396135 -0.278238752
vn -0.611463789 -0.788830361 0.062118405
vn -0.815714453 -0.557649593 -0.153742847
vn -0.966315001 -0.220010062 0.133532361
vn -0.941247052 0.336091866 -0.033109593
vn -0.966315001 -0.220010062 0.133532361
vn -0.815714453 -0.557649593 -0.153742847
vn -0.966315001 -0.220010062 0.133532361
vn -0.941247052 0.336091866 -0.033109593
vn -0.843755081 0.530786989 0.079640035
vn -0.563590692 0.824365676 0.052789817
vn -0.843755081 0.530786989 0.079640035
vn -0.941247052 0.336091866 -0.033109593
vn -0.843755081 0.530786989 0.079640035
vn -0.563590692 0.824365676 0.052789817
vn -0.562139871 0.815558563 0.137342622
vn -0.815714453 -0.557649593 -0.153742847
vn -0.275693940 -0.960139926 0.046088762
vn -0.814129080 -0.545615355 -0.198740346
vn -0.275693940 -0.960139926 0.046088762
vn -0.815714453 -0.557649593 -0.153742847
vn -0.331765286 -0.901396135 -0.278238752
vn -0.941247052 0.336091866 -0.033109593
vn -0.814129080 -0.545615355 -0.198740346
vn -0.929487191 0.275079501 -0.245733250
vn -0.814129080 -0.545615355 -0.198740346
vn -0.941247052 0.336091866 -0.033109593
vn -0.815714453 -0.557649593 -0.153742847
vn -0.563590692 0.824365676 0.052789817
vn -0.929487191 0.275079501 -0.245733250
vn -0.535933253 0.807360506 -0.246869522
vn -0.929487191 0.275079501 -0.245733250
vn -0.563590692 0.824365676 0.052789817
vn -0.941247052 0.336091866 -0.033109593
vn -0.814129080 -0.545615355 -0.198740346
vn -0.125653807 -0.935508975 -0.330203086
vn -0.454981668 -0.283323893 -0.844227016
vn -0.125653807 -0.935508975 -0.330203086
vn -0.814129080 -0.545615355 -0.198740346
vn -0.275693940 -0.960139926 0.046088762
vn -0.929487191 0.275079501 -0.245733250
vn -0.454981668 -0.283323893 -0.844227016
vn -0.480783584 0.234517503 -0.844895666
vn -0.454981668 -0.283323893 -0.844227016
vn -0.929487191 0.275079501 -0.245733250
vn -0.814129080 -0.545615355 -0.198740346
vn -0.535933253 0.807360506 -0.246869522
vn -0.480783584 0.234517503 -0.844895666
vn -0.221551103 0.396041741 -0.891103837
vn -0.480783584 0.234517503 -0.844895666
vn -0.535933253 0.807360506 -0.246869522
vn -0.929487191 0.275079501 -0.245733250
vn 0.981806089 -0.019444691 -0.188888080
vn -0.331765286 -0.901396135 -0.278238752
vn 0.442208222 -0.832891126 -0.332782602
vn -0.331765286 -0.901396135 -0.278238752
vn 0.981806089 -0.019444691 -0.188888080
vn 0.993535804 0.035915808 -0.107687793
vn -0.275693940 -0.960139926 0.046088762
vn 0.993535804 0.035915808 -0.107687793
vn 0.817953155 -0.415772259 0.397600382
vn 0.993535804 0.035915808 -0.107687793
vn -0.275693940 -0.960139926 0.046088762
vn -0.331765286 -0.901396135 -0.278238752
vn -0.125653807 -0.935508975 -0.330203086
vn 0.817953155 -0.415772259 0.397600382
vn 0.263972652 -0.316134738 -0.911250386
vn 0.817953155 -0.415772259 0.397600382
vn -0.125653807 -0.935508975 -0.330203086
vn -0.275693940 -0.960139926 0.046088762
vn -0.454981668 -0.283323893 -0.844227016
vn 0.263972652 -0.316134738 -0.911250386
vn 0.074377372 -0.009538462 -0.997184549
vn 0.263972652 -0.316134738 -0.911250386
vn -0.454981668 -0.283323893 -0.844227016
vn -0.125653807 -0.935508975 -0.330203086
vn -0.480783584 0.234517503 -0.844895666
vn 0.074377372 -0.009538462 -0.997184549
vn 0.036799584 0.057249032 -0.997681482
vn 0.074377372 -0.009538462 -0.997184549
vn -0.480783584 0.234517503 -0.844895666
vn -0.454981668 -0.283323893 -0.844227016
vn -0.221551103 0.396041741 -0.891103837
vn 0.036799584 0.057249032 -0.997681482
vn 0.032044805 0.031746774 -0.998982118
vn 0.036799584 0.057249032 -0.997681482
vn -0.221551103 0.396041741 -0.891103837
vn -0.480783584 0.234517503 -0.844895666
f 3/3/3 2/2/2 1/1/1
f 6/6/6 5/5/5 4/4/4
f 9/9/9 8/8/8 7/7/7
f 12/12/12 11/11/11 10/10/10
f 15/15/15 14/14/14 13/13/13
f 18/18/18 17/17/17 16/16/16
f 21/21/21 20/20/20 19/19/19
f 24/24/24 23/23/23 22/22/22
f 27/27/27 26/26/26 25/25/25
f 30/30/30 29/29/29 28/28/28
f 33/33/33 32/32/32 31/31/31
f 36/36/36 35/35/35 34/34/34
f 39/39/39 38/38/38 37/37/37
f 42/42/42 41/41/41 40/40/40
f 45/45/45 44/44/44 43/43/43
f 48/48/48 47/47/47 46/46/46
f 51/51/51 50/50/50 49/49/49
f 54/54/54 53/53/53 52/52/52
f 57/57/57 56/56/56 55/55/55
f 60/60/60 59/59/59 58/58/58
f 63/63/63 62/62/62 61/61/61
f 66/66/66 65/65/65 64/64/64
f 69/69/69 68/68/68 67/67/67
f 72/72/72 71/71/71 70/70/70
f 75/75/75 74/74/74 73/73/73
f 78/78/78 77/77/77 76/76/76
f 81/81/81 80/80/80 79/79/79
f 84/84/84 83/83/83 82/82/82
f 87/87/87 86/86/86 85/85/85
f 90/90/90 89/89/89 88/88/88
f 93/93/93 92/92/92 91/91/91
f 96/96/96 95/95/95 94/94/94
f 99/99/99 98/98/98 97/97/97
f 102/102/102 101/101/101 100/100/100
f 105/105/105 104/104/104 103/103/103
f 108/108/108 107/107/107 106/106/106
f 111/111/111 110/110/110 109/109/109
f 114/114/114 113/113/113 112/112/112
f 117/117/117 116/116/116 115/115/115
f 120/120/120 119/119/119 118/118/118
f 123/123/123 122/122/122 121/121/121
f 126/126/126 125/125/125 124/124/124
f 129/129/129 128/128/128 127/127/127
f 132/132/132 131/131/131 130/130/130
f 135/135/135 134/134/134 133/133/133
f 138/138/138 137/137/137 136/136/136
f 141/141/141 140/140/140 139/139/139
f 144/144/144 143/143/143 142/142/142
f 147/147/147 146/146/146 145/145/145
f 150/150/150 149/149/149 148/148/148
f 153/153/153 152/152/152 151/151/151
f 156/156/156 155/155/155 154/154/154
f 159/159/159 158/158/158 157/157/157
f 162/162/162 161/161/161 160/160/160
f 165/165/165 164/164/164 163/163/163
f 168/168/168 167/167/167 166/166/166
f 171/171/171 170/170/170 169/169/169
f 174/174/174 173/173/173 172/172/172
f 177/177/177 176/176/176 175/175/175
f 180/180/180 179/179/179 178/178/178
f 183/183/183 182/182/182 181/181/181
f 186/186/186 185/185/185 184/184/184
f 189/189/189 188/188/188 187/187/187
f 192/192/192 191/191/191 190/190/190
f 195/195/195 194/194/194 193/193/193
f 198/198/198 197/197/197 196/196/196
f 201/201/201 200/200/200 199/199/199
f 204/204/204 203/203/203 202/202/202
f 207/207/207 206/206/206 205/205/205
f 210/210/210 209/209/209 208/208/208
f 213/213/213 212/212/212 211/211/211
f 216/216/216 215/215/215 214/214/214
f 219/219/219 218/218/218 217/217/217
f 222/222/222 221/221/221 220/220/220
f 225/225/225 224/224/224 223/223/223
f 228/228/228 227/227/227 226/226/226
f 231/231/231 230/230/230 229/229/229
f 234/234/234 233/233/233 232/232/232
f 237/237/237 236/236/236 235/235/235
f 240/240/240 239/239/239 238/238/238
f 243/243/243 242/242/242 241/241/241
f 246/246/246 245/245/245 244/244/244
f 249/249/249 248/248/248 247/247/247
f 252/252/252 251/251/251 250/250/250
f 255/255/255 254/254/254 253/253/253
f 258/258/258 257/257/257 256/256/256
f 261/261/261 260/260/260 259/259/259
f 264/264/264 263/263/263 262/262/262
f 267/267/267 266/266/266 265/265/265
f 270/270/270 269/269/269 268/268/268
f 273/273/273 272/272/272 271/271/271
f 276/276/276 275/275/275 274/274/274
f 279/279/279 278/278/278 277/277/277
f 282/282/282 281/281/281 280/280/280
f 285/285/285 284/284/284 283/283/283
f 288/288/288 287/287/287 286/286/286
f 291/291/291 290/290/290 289/289/289
f 294/294/294 293/293/293 292/292/292
f 297/297/297 296/296/296 295/295/295
f 300/300/300 299/299/299 298/298/298
f 303/303/303 302/302/302 301/301/301
f 306/306/306 305/305/305 304/304/304
f 309/309/309 308/308/308 307/307/307
f 312/312/312 311/311/311 310/310/310
f 315/315/315 314/314/314 313/313/313
f 318/318/318 317/317/317 316/316/316
f 321/321/321 320/320/320 319/319/319
f 324/324/324 323/323/323 322/322/322
f 327/327/327 326/326/326 325/325/325
f 330/330/330 329/329/329 328/328/328
f 333/333/333 332/332/332 331/331/331
f 336/336/336 335/335/335 334/334/334
f 339/339/339 338/338/338 337/337/337
f 342/342/342 341/341/341 340/340/340
f 345/345/345 344/344/344 343/343/343
f 348/348/348 347/347/347 346/346/346
f 351/351/351 350/350/350 349/349/349
f 354/354/354 353/353/353 352/352/352
f 357/357/357 356/356/356 355/355/355
f 360/360/360 359/359/359 358/358/358
f 363/363/363 362/362/362 361/361/361
f 366/366/366 365/365/365 364/364/364
f 369/369/369 368/368/368 367/367/367
f 372/372/372 371/371/371 370/370/370
f 375/375/375 374/374/374 373/373/373
f 378/378/378 377/377/377 376/376/376
f 381/381/381 380/380/380 379/379/379
f 384/384/384 383/383/383 382/382/382
f 387/387/387 386/386/386 385/385/385
f 390/390/390 389/389/389 388/388/388
f 393/393/393 392/392/392 391/391/391
f 396/396/396 395/395/395 394/394/394
