# Static pose baked from local Project Zomboid assets
o Kate_Hair_Bun
v -0.021563235 0.070312692 0.438816687
v -0.054400543 0.070248666 0.414927077
v -0.037649584 0.096289070 0.409325834
v -0.021563235 0.070312692 0.438816687
v -0.051647927 0.044240560 0.429578529
v -0.054400543 0.070248666 0.414927077
v -0.021563235 0.070312692 0.438816687
v -0.025685479 0.025554242 0.446351316
v -0.051647927 0.044240560 0.429578529
v -0.021563235 0.070312692 0.438816687
v 0.004184437 0.031226635 0.454455842
v -0.025685479 0.025554242 0.446351316
v -0.021563235 0.070312692 0.438816687
v 0.020935395 0.057267041 0.448854600
v 0.004184437 0.031226635 0.454455842
v -0.021563235 0.070312692 0.438816687
v 0.014285421 0.089090234 0.433118786
v 0.020935395 0.057267041 0.448854600
v -0.021563235 0.070312692 0.438816687
v -0.007778843 0.101962026 0.417430405
v 0.014285421 0.089090234 0.433118786
v -0.021563235 0.070312692 0.438816687
v -0.037649584 0.096289070 0.409325834
v -0.007778843 0.101962026 0.417430405
v -0.064442031 0.059921829 0.380206074
v -0.037649584 0.096289070 0.409325834
v -0.054400543 0.070248666 0.414927077
v -0.037649584 0.096289070 0.409325834
v -0.064442031 0.059921829 0.380206074
v -0.038447761 0.100438143 0.371628579
v -0.060681423 0.020651938 0.398081090
v -0.054400543 0.070248666 0.414927077
v -0.051647927 0.044240560 0.429578529
v -0.054400543 0.070248666 0.414927077
v -0.060681423 0.020651938 0.398081090
v -0.064442031 0.059921829 0.380206074
v -0.017929995 -0.012151858 0.427035152
v -0.051647927 0.044240560 0.429578529
v -0.025685479 0.025554242 0.446351316
v -0.051647927 0.044240560 0.429578529
v -0.017929995 -0.012151858 0.427035152
v -0.060681423 0.020651938 0.398081090
v 0.028529761 -0.003382941 0.439502014
v -0.025685479 0.025554242 0.446351316
v 0.004184437 0.031226635 0.454455842
v -0.025685479 0.025554242 0.446351316
v 0.028529761 -0.003382941 0.439502014
v -0.017929995 -0.012151858 0.427035152
v 0.054524000 0.037133339 0.430925532
v 0.004184437 0.031226635 0.454455842
v 0.020935395 0.057267041 0.448854600
v 0.004184437 0.031226635 0.454455842
v 0.054524000 0.037133339 0.430925532
v 0.028529761 -0.003382941 0.439502014
v 0.041783724 0.090351545 0.403582904
v 0.020935395 0.057267041 0.448854600
v 0.014285421 0.089090234 0.433118786
v 0.020935395 0.057267041 0.448854600
v 0.041783724 0.090351545 0.403582904
v 0.054524000 0.037133339 0.430925532
v 0.008011963 0.109207026 0.384096454
v 0.014285421 0.089090234 0.433118786
v -0.007778843 0.101962026 0.417430405
v 0.014285421 0.089090234 0.433118786
v 0.008011963 0.109207026 0.384096454
v 0.041783724 0.090351545 0.403582904
v -0.038447761 0.100438143 0.371628579
v -0.007778843 0.101962026 0.417430405
v -0.037649584 0.096289070 0.409325834
v -0.007778843 0.101962026 0.417430405
v -0.038447761 0.100438143 0.371628579
v 0.008011963 0.109207026 0.384096454
v -0.042612952 0.046230478 0.332511390
v -0.038447761 0.100438143 0.371628579
v -0.064442031 0.059921829 0.380206074
v -0.038447761 0.100438143 0.371628579
v -0.042612952 0.046230478 0.332511390
v -0.017843641 0.074169308 0.320686034
v -0.051018484 0.017476261 0.381115692
v -0.064442031 0.059921829 0.380206074
v -0.060681423 0.020651938 0.398081090
v -0.064442031 0.059921829 0.380206074
v -0.051018484 0.017476261 0.381115692
v -0.042612952 0.046230478 0.332511390
v -0.009965098 -0.018678651 0.412810675
v -0.060681423 0.020651938 0.398081090
v -0.017929995 -0.012151858 0.427035152
v -0.060681423 0.020651938 0.398081090
v -0.009965098 -0.018678651 0.412810675
v -0.051018484 0.017476261 0.381115692
v 0.033684826 -0.009540959 0.421507389
v -0.017929995 -0.012151858 0.427035152
v 0.028529761 -0.003382941 0.439502014
v -0.017929995 -0.012151858 0.427035152
v 0.033684826 -0.009540959 0.421507389
v -0.009965098 -0.018678651 0.412810675
v 0.058720570 0.028043226 0.416498717
v 0.028529761 -0.003382941 0.439502014
v 0.054524000 0.037133339 0.430925532
v 0.028529761 -0.003382941 0.439502014
v 0.058720570 0.028043226 0.416498717
v 0.033684826 -0.009540959 0.421507389
v 0.042451247 0.081056938 0.386134502
v 0.054524000 0.037133339 0.430925532
v 0.041783724 0.090351545 0.403582904
v 0.054524000 0.037133339 0.430925532
v 0.042451247 0.081056938 0.386134502
v 0.058720570 0.028043226 0.416498717
v 0.016256227 0.086274910 0.335672341
v 0.041783724 0.090351545 0.403582904
v 0.008011963 0.109207026 0.384096454
v 0.041783724 0.090351545 0.403582904
v 0.016256227 0.086274910 0.335672341
v 0.042451247 0.081056938 0.386134502
v -0.017843641 0.074169308 0.320686034
v 0.008011963 0.109207026 0.384096454
v -0.038447761 0.100438143 0.371628579
v 0.008011963 0.109207026 0.384096454
v -0.017843641 0.074169308 0.320686034
v 0.016256227 0.086274910 0.335672341
v -0.002839944 0.051564669 0.327625272
v -0.017843641 0.074169308 0.320686034
v -0.042612952 0.046230478 0.332511390
v -0.002839944 0.051564669 0.327625272
v -0.042612952 0.046230478 0.332511390
v -0.051018484 0.017476261 0.381115692
v -0.002839944 0.051564669 0.327625272
v -0.051018484 0.017476261 0.381115692
v -0.009965098 -0.018678651 0.412810675
v -0.002839944 0.051564669 0.327625272
v -0.009965098 -0.018678651 0.412810675
v 0.033684826 -0.009540959 0.421507389
v -0.002839944 0.051564669 0.327625272
v 0.033684826 -0.009540959 0.421507389
v 0.058720570 0.028043226 0.416498717
v -0.002839944 0.051564669 0.327625272
v 0.058720570 0.028043226 0.416498717
v 0.042451247 0.081056938 0.386134502
v -0.002839944 0.051564669 0.327625272
v 0.042451247 0.081056938 0.386134502
v 0.016256227 0.086274910 0.335672341
v -0.002839944 0.051564669 0.327625272
v 0.016256227 0.086274910 0.335672341
v -0.017843641 0.074169308 0.320686034
v -0.039920082 0.096301304 0.451456323
v -0.059900766 0.095028976 0.434804747
v -0.048120182 0.109981094 0.430871924
v -0.039920082 0.096301304 0.451456323
v -0.058673281 0.079111607 0.445893018
v -0.059900766 0.095028976 0.434804747
v -0.039920082 0.096301304 0.451456323
v -0.045158405 0.071553665 0.457641153
v -0.058673281 0.079111607 0.445893018
v -0.039920082 0.096301304 0.451456323
v -0.027271458 0.076782217 0.463166900
v -0.045158405 0.071553665 0.457641153
v -0.039920082 0.096301304 0.451456323
v -0.015490876 0.091734333 0.459234136
v -0.027271458 0.076782217 0.463166900
v -0.039920082 0.096301304 0.451456323
v -0.016717797 0.107650879 0.448145797
v -0.015490876 0.091734333 0.459234136
v -0.039920082 0.096301304 0.451456323
v -0.030233237 0.115209644 0.436397729
v -0.016717797 0.107650879 0.448145797
v -0.039920082 0.096301304 0.451456323
v -0.048120182 0.109981094 0.430871924
v -0.030233237 0.115209644 0.436397729
v -0.063727574 0.088662215 0.419031938
v -0.048120182 0.109981094 0.430871924
v -0.059900766 0.095028976 0.434804747
v -0.048120182 0.109981094 0.430871924
v -0.063727574 0.088662215 0.419031938
v -0.047067582 0.109807278 0.413470417
v -0.061992484 0.066152688 0.434713893
v -0.059900766 0.095028976 0.434804747
v -0.058673281 0.079111607 0.445893018
v -0.059900766 0.095028976 0.434804747
v -0.061992484 0.066152688 0.434713893
v -0.063727574 0.088662215 0.419031938
v -0.042878881 0.055463306 0.451327926
v -0.058673281 0.079111607 0.445893018
v -0.045158405 0.071553665 0.457641153
v -0.058673281 0.079111607 0.445893018
v -0.042878881 0.055463306 0.451327926
v -0.061992484 0.066152688 0.434713893
v -0.017583389 0.062857514 0.459142226
v -0.045158405 0.071553665 0.457641153
v -0.027271458 0.076782217 0.463166900
v -0.045158405 0.071553665 0.457641153
v -0.017583389 0.062857514 0.459142226
v -0.042878881 0.055463306 0.451327926
v -0.000923398 0.084002578 0.453580704
v -0.027271458 0.076782217 0.463166900
v -0.015490876 0.091734333 0.459234136
v -0.027271458 0.076782217 0.463166900
v -0.000923398 0.084002578 0.453580704
v -0.017583389 0.062857514 0.459142226
v -0.002659081 0.106512898 0.437899770
v -0.015490876 0.091734333 0.459234136
v -0.016717797 0.107650879 0.448145797
v -0.015490876 0.091734333 0.459234136
v -0.002659081 0.106512898 0.437899770
v -0.000923398 0.084002578 0.453580704
v -0.021772090 0.117201487 0.421284716
v -0.016717797 0.107650879 0.448145797
v -0.030233237 0.115209644 0.436397729
v -0.016717797 0.107650879 0.448145797
v -0.021772090 0.117201487 0.421284716
v -0.002659081 0.106512898 0.437899770
v -0.047067582 0.109807278 0.413470417
v -0.030233237 0.115209644 0.436397729
v -0.048120182 0.109981094 0.430871924
v -0.030233237 0.115209644 0.436397729
v -0.047067582 0.109807278 0.413470417
v -0.021772090 0.117201487 0.421284716
v -0.049160100 0.080930465 0.413378507
v -0.047067582 0.109807278 0.413470417
v -0.063727574 0.088662215 0.419031938
v -0.047067582 0.109807278 0.413470417
v -0.049160100 0.080930465 0.413378507
v -0.037379512 0.095882577 0.409445684
v -0.047933174 0.065013914 0.424466846
v -0.063727574 0.088662215 0.419031938
v -0.061992484 0.066152688 0.434713893
v -0.063727574 0.088662215 0.419031938
v -0.047933174 0.065013914 0.424466846
v -0.049160100 0.080930465 0.413378507
v -0.034418296 0.057455974 0.436214922
v -0.061992484 0.066152688 0.434713893
v -0.042878881 0.055463306 0.451327926
v -0.061992484 0.066152688 0.434713893
v -0.034418296 0.057455974 0.436214922
v -0.047933174 0.065013914 0.424466846
v -0.016531355 0.062684530 0.441740727
v -0.042878881 0.055463306 0.451327926
v -0.017583389 0.062857514 0.459142226
v -0.042878881 0.055463306 0.451327926
v -0.016531355 0.062684530 0.441740727
v -0.034418296 0.057455974 0.436214922
v -0.004750767 0.077636642 0.437807904
v -0.017583389 0.062857514 0.459142226
v -0.000923398 0.084002578 0.453580704
v -0.017583389 0.062857514 0.459142226
v -0.004750767 0.077636642 0.437807904
v -0.016531355 0.062684530 0.441740727
v -0.005977690 0.093553186 0.426719624
v -0.000923398 0.084002578 0.453580704
v -0.002659081 0.106512898 0.437899770
v -0.000923398 0.084002578 0.453580704
v -0.005977690 0.093553186 0.426719624
v -0.004750767 0.077636642 0.437807904
v -0.019492570 0.101111134 0.414971489
v -0.002659081 0.106512898 0.437899770
v -0.021772090 0.117201487 0.421284716
v -0.002659081 0.106512898 0.437899770
v -0.019492570 0.101111134 0.414971489
v -0.005977690 0.093553186 0.426719624
v -0.037379512 0.095882577 0.409445684
v -0.021772090 0.117201487 0.421284716
v -0.047067582 0.109807278 0.413470417
v -0.021772090 0.117201487 0.421284716
v -0.037379512 0.095882577 0.409445684
v -0.019492570 0.101111134 0.414971489
v -0.024730887 0.076363491 0.421156260
v -0.037379512 0.095882577 0.409445684
v -0.049160100 0.080930465 0.413378507
v -0.024730887 0.076363491 0.421156260
v -0.049160100 0.080930465 0.413378507
v -0.047933174 0.065013914 0.424466846
v -0.024730887 0.076363491 0.421156260
v -0.047933174 0.065013914 0.424466846
v -0.034418296 0.057455974 0.436214922
v -0.024730887 0.076363491 0.421156260
v -0.034418296 0.057455974 0.436214922
v -0.016531355 0.062684530 0.441740727
v -0.024730887 0.076363491 0.421156260
v -0.016531355 0.062684530 0.441740727
v -0.004750767 0.077636642 0.437807904
v -0.024730887 0.076363491 0.421156260
v -0.004750767 0.077636642 0.437807904
v -0.005977690 0.093553186 0.426719624
v -0.024730887 0.076363491 0.421156260
v -0.005977690 0.093553186 0.426719624
v -0.019492570 0.101111134 0.414971489
v -0.024730887 0.076363491 0.421156260
v -0.019492570 0.101111134 0.414971489
v -0.037379512 0.095882577 0.409445684
vt 0.154459998 0.009316981
vt 0.201528996 0.070632994
vt 0.106816001 0.070632994
vt 0.248598993 0.009316981
vt 0.298539013 0.070632994
vt 0.201528996 0.070632994
vt 0.348479003 0.009316981
vt 0.397843987 0.070632994
vt 0.298539013 0.070632994
vt 0.447210014 0.009316981
vt 0.493781000 0.070632994
vt 0.397843987 0.070632994
vt 0.540351987 0.009316981
vt 0.587336004 0.070632994
vt 0.493781000 0.070632994
vt 0.634320021 0.009316981
vt 0.682923973 0.070632994
vt 0.587336004 0.070632994
vt 0.731527984 0.009316981
vt 0.775116980 0.070632994
vt 0.682923973 0.070632994
vt 0.059172001 0.009316981
vt 0.106816001 0.070632994
vt 0.015582000 0.070632994
vt 0.201528996 0.221266031
vt 0.106816001 0.070632994
vt 0.201528996 0.070632994
vt 0.106816001 0.070632994
vt 0.201528996 0.221266031
vt 0.106816001 0.221266031
vt 0.298539013 0.221266031
vt 0.201528996 0.070632994
vt 0.298539013 0.070632994
vt 0.201528996 0.070632994
vt 0.298539013 0.221266031
vt 0.201528996 0.221266031
vt 0.397843987 0.221266031
vt 0.298539013 0.070632994
vt 0.397843987 0.070632994
vt 0.298539013 0.070632994
vt 0.397843987 0.221266031
vt 0.298539013 0.221266031
vt 0.493781000 0.221266031
vt 0.397843987 0.070632994
vt 0.493781000 0.070632994
vt 0.397843987 0.070632994
vt 0.493781000 0.221266031
vt 0.397843987 0.221266031
vt 0.587336004 0.221266031
vt 0.493781000 0.070632994
vt 0.587336004 0.070632994
vt 0.493781000 0.070632994
vt 0.587336004 0.221266031
vt 0.493781000 0.221266031
vt 0.682923973 0.221266031
vt 0.587336004 0.070632994
vt 0.682923973 0.070632994
vt 0.587336004 0.070632994
vt 0.682923973 0.221266031
vt 0.587336004 0.221266031
vt 0.775116980 0.221266031
vt 0.682923973 0.070632994
vt 0.775116980 0.070632994
vt 0.682923973 0.070632994
vt 0.775116980 0.221266031
vt 0.682923973 0.221266031
vt 0.106816001 0.221266031
vt 0.015582000 0.070632994
vt 0.106816001 0.070632994
vt 0.015582000 0.070632994
vt 0.106816001 0.221266031
vt 0.015582000 0.221266031
vt 0.201528996 0.329205990
vt 0.106816001 0.221266031
vt 0.201528996 0.221266031
vt 0.106816001 0.221266031
vt 0.201528996 0.329205990
vt 0.106816001 0.329205990
vt 0.298539013 0.329205990
vt 0.201528996 0.221266031
vt 0.298539013 0.221266031
vt 0.201528996 0.221266031
vt 0.298539013 0.329205990
vt 0.201528996 0.329205990
vt 0.397843987 0.329205990
vt 0.298539013 0.221266031
vt 0.397843987 0.221266031
vt 0.298539013 0.221266031
vt 0.397843987 0.329205990
vt 0.298539013 0.329205990
vt 0.493781000 0.329205990
vt 0.397843987 0.221266031
vt 0.493781000 0.221266031
vt 0.397843987 0.221266031
vt 0.493781000 0.329205990
vt 0.397843987 0.329205990
vt 0.587336004 0.329205990
vt 0.493781000 0.221266031
vt 0.587336004 0.221266031
vt 0.493781000 0.221266031
vt 0.587336004 0.329205990
vt 0.493781000 0.329205990
vt 0.682923973 0.329205990
vt 0.587336004 0.221266031
vt 0.682923973 0.221266031
vt 0.587336004 0.221266031
vt 0.682923973 0.329205990
vt 0.587336004 0.329205990
vt 0.775116980 0.329205990
vt 0.682923973 0.221266031
vt 0.775116980 0.221266031
vt 0.682923973 0.221266031
vt 0.775116980 0.329205990
vt 0.682923973 0.329205990
vt 0.106816001 0.329205990
vt 0.015582000 0.221266031
vt 0.106816001 0.221266031
vt 0.015582000 0.221266031
vt 0.106816001 0.329205990
vt 0.015582000 0.329205990
vt 0.154459998 0.351482034
vt 0.106816001 0.329205990
vt 0.201528996 0.329205990
vt 0.248598993 0.351482034
vt 0.201528996 0.329205990
vt 0.298539013 0.329205990
vt 0.348479003 0.351482034
vt 0.298539013 0.329205990
vt 0.397843987 0.329205990
vt 0.447210014 0.351482034
vt 0.397843987 0.329205990
vt 0.493781000 0.329205990
vt 0.540351987 0.351482034
vt 0.493781000 0.329205990
vt 0.587336004 0.329205990
vt 0.634320021 0.351482034
vt 0.587336004 0.329205990
vt 0.682923973 0.329205990
vt 0.731527984 0.351482034
vt 0.682923973 0.329205990
vt 0.775116980 0.329205990
vt 0.059172001 0.351482034
vt 0.015582000 0.329205990
vt 0.106816001 0.329205990
vt 0.335110009 0.379826009
vt 0.377016991 0.437445045
vt 0.304392993 0.437445045
vt 0.408868015 0.379826009
vt 0.448556006 0.437445045
vt 0.377016991 0.437445045
vt 0.478188008 0.379826009
vt 0.519293010 0.437445045
vt 0.448556006 0.437445045
vt 0.550342023 0.379826009
vt 0.587228000 0.437445045
vt 0.519293010 0.437445045
vt 0.049461000 0.379826009
vt 0.090458997 0.437445045
vt 0.022630000 0.437445045
vt 0.121402003 0.379826009
vt 0.162515000 0.437445045
vt 0.090458997 0.437445045
vt 0.193572998 0.379826009
vt 0.233623996 0.437445045
vt 0.162515000 0.437445045
vt 0.263619989 0.379826009
vt 0.304392993 0.437445045
vt 0.233623996 0.437445045
vt 0.377016991 0.506259024
vt 0.304392993 0.437445045
vt 0.377016991 0.437445045
vt 0.304392993 0.437445045
vt 0.377016991 0.506259024
vt 0.304392993 0.506259024
vt 0.448556006 0.506259024
vt 0.377016991 0.437445045
vt 0.448556006 0.437445045
vt 0.377016991 0.437445045
vt 0.448556006 0.506259024
vt 0.377016991 0.506259024
vt 0.519293010 0.506259024
vt 0.448556006 0.437445045
vt 0.519293010 0.437445045
vt 0.448556006 0.437445045
vt 0.519293010 0.506259024
vt 0.448556006 0.506259024
vt 0.587228000 0.506259024
vt 0.519293010 0.437445045
vt 0.587228000 0.437445045
vt 0.519293010 0.437445045
vt 0.587228000 0.506259024
vt 0.519293010 0.506259024
vt 0.090458997 0.506259024
vt 0.022630000 0.437445045
vt 0.090458997 0.437445045
vt 0.022630000 0.437445045
vt 0.090458997 0.506259024
vt 0.022630000 0.506259024
vt 0.162515000 0.506259024
vt 0.090458997 0.437445045
vt 0.162515000 0.437445045
vt 0.090458997 0.437445045
vt 0.162515000 0.506259024
vt 0.090458997 0.506259024
vt 0.233623996 0.506259024
vt 0.162515000 0.437445045
vt 0.233623996 0.437445045
vt 0.162515000 0.437445045
vt 0.233623996 0.506259024
vt 0.162515000 0.506259024
vt 0.304392993 0.506259024
vt 0.233623996 0.437445045
vt 0.304392993 0.437445045
vt 0.233623996 0.437445045
vt 0.304392993 0.506259024
vt 0.233623996 0.506259024
vt 0.377016991 0.575073004
vt 0.304392993 0.506259024
vt 0.377016991 0.506259024
vt 0.304392993 0.506259024
vt 0.377016991 0.575073004
vt 0.304392993 0.575073004
vt 0.448556006 0.575073004
vt 0.377016991 0.506259024
vt 0.448556006 0.506259024
vt 0.377016991 0.506259024
vt 0.448556006 0.575073004
vt 0.377016991 0.575073004
vt 0.519293010 0.575073004
vt 0.448556006 0.506259024
vt 0.519293010 0.506259024
vt 0.448556006 0.506259024
vt 0.519293010 0.575073004
vt 0.448556006 0.575073004
vt 0.587228000 0.575073004
vt 0.519293010 0.506259024
vt 0.587228000 0.506259024
vt 0.519293010 0.506259024
vt 0.587228000 0.575073004
vt 0.519293010 0.575073004
vt 0.090458997 0.575073004
vt 0.022630000 0.506259024
vt 0.090458997 0.506259024
vt 0.022630000 0.506259024
vt 0.090458997 0.575073004
vt 0.022630000 0.575073004
vt 0.162515000 0.575073004
vt 0.090458997 0.506259024
vt 0.162515000 0.506259024
vt 0.090458997 0.506259024
vt 0.162515000 0.575073004
vt 0.090458997 0.575073004
vt 0.233623996 0.575073004
vt 0.162515000 0.506259024
vt 0.233623996 0.506259024
vt 0.162515000 0.506259024
vt 0.233623996 0.575073004
vt 0.162515000 0.575073004
vt 0.304392993 0.575073004
vt 0.233623996 0.506259024
vt 0.304392993 0.506259024
vt 0.233623996 0.506259024
vt 0.304392993 0.575073004
vt 0.233623996 0.575073004
vt 0.339987993 0.625446975
vt 0.304392993 0.575073004
vt 0.377016991 0.575073004
vt 0.413745999 0.625446975
vt 0.377016991 0.575073004
vt 0.448556006 0.575073004
vt 0.483065993 0.625446975
vt 0.448556006 0.575073004
vt 0.519293010 0.575073004
vt 0.555220008 0.625446975
vt 0.519293010 0.575073004
vt 0.587228000 0.575073004
vt 0.054338999 0.625446975
vt 0.022630000 0.575073004
vt 0.090458997 0.575073004
vt 0.126279995 0.625446975
vt 0.090458997 0.575073004
vt 0.162515000 0.575073004
vt 0.198451996 0.625446975
vt 0.162515000 0.575073004
vt 0.233623996 0.575073004
vt 0.268498003 0.625446975
vt 0.233623996 0.575073004
vt 0.304392993 0.575073004
vn -0.316766852 0.397706195 0.861097291
vn -0.848690042 0.298772135 0.436417717
vn -0.628752668 0.692844540 0.353038986
vn -0.316766852 0.397706195 0.861097291
vn -0.740182111 -0.143614635 0.656890614
vn -0.848690042 0.298772135 0.436417717
vn -0.316766852 0.397706195 0.861097291
vn -0.354251352 -0.246960933 0.901951372
vn -0.740182111 -0.143614635 0.656890614
vn -0.316766852 0.397706195 0.861097291
vn 0.099715856 -0.039062368 0.994248902
vn -0.354251352 -0.246960933 0.901951372
vn -0.316766852 0.397706195 0.861097291
vn 0.370806690 0.366692411 0.853252058
vn 0.099715856 -0.039062368 0.994248902
vn -0.316766852 0.397706195 0.861097291
vn 0.234464996 0.726071972 0.646409821
vn 0.370806690 0.366692411 0.853252058
vn -0.316766852 0.397706195 0.861097291
vn -0.155111396 0.897455350 0.412933833
vn 0.234464996 0.726071972 0.646409821
vn -0.316766852 0.397706195 0.861097291
vn -0.628752668 0.692844540 0.353038986
vn -0.155111396 0.897455350 0.412933833
vn -0.962322952 0.199798857 -0.184431431
vn -0.628752668 0.692844540 0.353038986
vn -0.848690042 0.298772135 0.436417717
vn -0.628752668 0.692844540 0.353038986
vn -0.962322952 0.199798857 -0.184431431
vn -0.547929389 0.777242237 -0.309302262
vn -0.886621531 -0.417151538 0.199716938
vn -0.848690042 0.298772135 0.436417717
vn -0.740182111 -0.143614635 0.656890614
vn -0.848690042 0.298772135 0.436417717
vn -0.886621531 -0.417151538 0.199716938
vn -0.962322952 0.199798857 -0.184431431
vn -0.451417156 -0.660722866 0.599723140
vn -0.740182111 -0.143614635 0.656890614
vn -0.354251352 -0.246960933 0.901951372
vn -0.740182111 -0.143614635 0.656890614
vn -0.451417156 -0.660722866 0.599723140
vn -0.886621531 -0.417151538 0.199716938
vn 0.259691960 -0.486941634 0.833935208
vn -0.354251352 -0.246960933 0.901951372
vn 0.099715856 -0.039062368 0.994248902
vn -0.354251352 -0.246960933 0.901951372
vn 0.259691960 -0.486941634 0.833935208
vn -0.451417156 -0.660722866 0.599723140
vn 0.751880130 0.143177719 0.643565390
vn 0.099715856 -0.039062368 0.994248902
vn 0.370806690 0.366692411 0.853252058
vn 0.099715856 -0.039062368 0.994248902
vn 0.751880130 0.143177719 0.643565390
vn 0.259691960 -0.486941634 0.833935208
vn 0.700085111 0.674298597 0.234951570
vn 0.370806690 0.366692411 0.853252058
vn 0.234464996 0.726071972 0.646409821
vn 0.370806690 0.366692411 0.853252058
vn 0.700085111 0.674298597 0.234951570
vn 0.751880130 0.143177719 0.643565390
vn 0.136662957 0.976576000 -0.166200336
vn 0.234464996 0.726071972 0.646409821
vn -0.155111396 0.897455350 0.412933833
vn 0.234464996 0.726071972 0.646409821
vn 0.136662957 0.976576000 -0.166200336
vn 0.700085111 0.674298597 0.234951570
vn -0.547929389 0.777242237 -0.309302262
vn -0.155111396 0.897455350 0.412933833
vn -0.628752668 0.692844540 0.353038986
vn -0.155111396 0.897455350 0.412933833
vn -0.547929389 0.777242237 -0.309302262
vn 0.136662957 0.976576000 -0.166200336
vn -0.733465817 -0.105505526 -0.671488257
vn -0.547929389 0.777242237 -0.309302262
vn -0.962322952 0.199798857 -0.184431431
vn -0.547929389 0.777242237 -0.309302262
vn -0.733465817 -0.105505526 -0.671488257
vn -0.228888013 0.662628272 -0.713115734
vn -0.410336672 -0.732643010 -0.543008320
vn -0.962322952 0.199798857 -0.184431431
vn -0.886621531 -0.417151538 0.199716938
vn -0.962322952 0.199798857 -0.184431431
vn -0.410336672 -0.732643010 -0.543008320
vn -0.733465817 -0.105505526 -0.671488257
vn -0.064959729 -0.856999659 -0.511206238
vn -0.886621531 -0.417151538 0.199716938
vn -0.451417156 -0.660722866 0.599723140
vn -0.886621531 -0.417151538 0.199716938
vn -0.064959729 -0.856999659 -0.511206238
vn -0.410336672 -0.732643010 -0.543008320
vn 0.493476371 -0.750956795 -0.438799457
vn -0.451417156 -0.660722866 0.599723140
vn 0.259691960 -0.486941634 0.833935208
vn -0.451417156 -0.660722866 0.599723140
vn 0.493476371 -0.750956795 -0.438799457
vn -0.064959729 -0.856999659 -0.511206238
vn 0.849318735 -0.296174733 -0.436964774
vn 0.259691960 -0.486941634 0.833935208
vn 0.751880130 0.143177719 0.643565390
vn 0.259691960 -0.486941634 0.833935208
vn 0.849318735 -0.296174733 -0.436964774
vn 0.493476371 -0.750956795 -0.438799457
vn 0.900573040 -0.008689269 -0.434617873
vn 0.751880130 0.143177719 0.643565390
vn 0.700085111 0.674298597 0.234951570
vn 0.751880130 0.143177719 0.643565390
vn 0.900573040 -0.008689269 -0.434617873
vn 0.849318735 -0.296174733 -0.436964774
vn 0.617693515 0.523017002 -0.587288632
vn 0.700085111 0.674298597 0.234951570
vn 0.136662957 0.976576000 -0.166200336
vn 0.700085111 0.674298597 0.234951570
vn 0.617693515 0.523017002 -0.587288632
vn 0.900573040 -0.008689269 -0.434617873
vn -0.228888013 0.662628272 -0.713115734
vn 0.136662957 0.976576000 -0.166200336
vn -0.547929389 0.777242237 -0.309302262
vn 0.136662957 0.976576000 -0.166200336
vn -0.228888013 0.662628272 -0.713115734
vn 0.617693515 0.523017002 -0.587288632
vn 0.432450183 -0.581338720 -0.689225748
vn -0.228888013 0.662628272 -0.713115734
vn -0.733465817 -0.105505526 -0.671488257
vn 0.432450183 -0.581338720 -0.689225748
vn -0.733465817 -0.105505526 -0.671488257
vn -0.410336672 -0.732643010 -0.543008320
vn 0.432450183 -0.581338720 -0.689225748
vn -0.410336672 -0.732643010 -0.543008320
vn -0.064959729 -0.856999659 -0.511206238
vn 0.432450183 -0.581338720 -0.689225748
vn -0.064959729 -0.856999659 -0.511206238
vn 0.493476371 -0.750956795 -0.438799457
vn 0.432450183 -0.581338720 -0.689225748
vn 0.493476371 -0.750956795 -0.438799457
vn 0.849318735 -0.296174733 -0.436964774
vn 0.432450183 -0.581338720 -0.689225748
vn 0.849318735 -0.296174733 -0.436964774
vn 0.900573040 -0.008689269 -0.434617873
vn 0.432450183 -0.581338720 -0.689225748
vn 0.900573040 -0.008689269 -0.434617873
vn 0.617693515 0.523017002 -0.587288632
vn 0.432450183 -0.581338720 -0.689225748
vn 0.617693515 0.523017002 -0.587288632
vn -0.228888013 0.662628272 -0.713115734
vn -0.386255677 0.507008855 0.770550824
vn -0.831467989 0.387771319 0.397862272
vn -0.612549211 0.740985300 0.275180393
vn -0.386255677 0.507008855 0.770550824
vn -0.749838827 0.052249257 0.659554205
vn -0.831467989 0.387771319 0.397862272
vn -0.386255677 0.507008855 0.770550824
vn -0.415480588 -0.069054305 0.906977058
vn -0.749838827 0.052249257 0.659554205
vn -0.386255677 0.507008855 0.770550824
vn -0.024267968 0.094908098 0.995190192
vn -0.415480588 -0.069054305 0.906977058
vn -0.386255677 0.507008855 0.770550824
vn 0.194642862 0.448121635 0.872525734
vn -0.024267968 0.094908098 0.995190192
vn -0.386255677 0.507008855 0.770550824
vn 0.113026815 0.783652832 0.610829910
vn 0.194642862 0.448121635 0.872525734
vn -0.386255677 0.507008855 0.770550824
vn -0.221314281 0.904962045 0.363405678
vn 0.113026815 0.783652832 0.610829910
vn -0.386255677 0.507008855 0.770550824
vn -0.612549211 0.740985300 0.275180393
vn -0.221314281 0.904962045 0.363405678
vn -0.874334192 0.064868847 -0.480969597
vn -0.612549211 0.740985300 0.275180393
vn -0.831467989 0.387771319 0.397862272
vn -0.612549211 0.740985300 0.275180393
vn -0.874334192 0.064868847 -0.480969597
vn -0.410465771 0.653620486 -0.635844408
vn -0.826025359 -0.561885143 -0.044353048
vn -0.831467989 0.387771319 0.397862272
vn -0.749838827 0.052249257 0.659554205
vn -0.831467989 0.387771319 0.397862272
vn -0.826025359 -0.561885143 -0.044353048
vn -0.874334192 0.064868847 -0.480969597
vn -0.293830362 -0.859504644 0.418228987
vn -0.749838827 0.052249257 0.659554205
vn -0.415480588 -0.069054305 0.906977058
vn -0.749838827 0.052249257 0.659554205
vn -0.293830362 -0.859504644 0.418228987
vn -0.826025359 -0.561885143 -0.044353048
vn 0.410479075 -0.653631980 0.635824003
vn -0.415480588 -0.069054305 0.906977058
vn -0.024267968 0.094908098 0.995190192
vn -0.415480588 -0.069054305 0.906977058
vn 0.410479075 -0.653631980 0.635824003
vn -0.293830362 -0.859504644 0.418228987
vn 0.874336476 -0.064874657 0.480964661
vn -0.024267968 0.094908098 0.995190192
vn 0.194642862 0.448121635 0.872525734
vn -0.024267968 0.094908098 0.995190192
vn 0.874336476 -0.064874657 0.480964661
vn 0.410479075 -0.653631980 0.635824003
vn 0.826025359 0.561885143 0.044353048
vn 0.194642862 0.448121635 0.872525734
vn 0.113026815 0.783652832 0.610829910
vn 0.194642862 0.448121635 0.872525734
vn 0.826025359 0.561885143 0.044353048
vn 0.874336476 -0.064874657 0.480964661
vn 0.293839097 0.859492710 -0.418247374
vn 0.113026815 0.783652832 0.610829910
vn -0.221314281 0.904962045 0.363405678
vn 0.113026815 0.783652832 0.610829910
vn 0.293839097 0.859492710 -0.418247374
vn 0.826025359 0.561885143 0.044353048
vn -0.410465771 0.653620486 -0.635844408
vn -0.221314281 0.904962045 0.363405678
vn -0.612549211 0.740985300 0.275180393
vn -0.221314281 0.904962045 0.363405678
vn -0.410465771 0.653620486 -0.635844408
vn 0.293839097 0.859492710 -0.418247374
vn -0.149144251 -0.315017941 -0.937293811
vn -0.410465771 0.653620486 -0.635844408
vn -0.874334192 0.064868847 -0.480969597
vn -0.410465771 0.653620486 -0.635844408
vn -0.149144251 -0.315017941 -0.937293811
vn 0.152171040 -0.007903569 -0.988322573
vn -0.176608034 -0.682448820 -0.709276540
vn -0.874334192 0.064868847 -0.480969597
vn -0.826025359 -0.561885143 -0.044353048
vn -0.874334192 0.064868847 -0.480969597
vn -0.176608034 -0.682448820 -0.709276540
vn -0.149144251 -0.315017941 -0.937293811
vn 0.085920556 -0.894917318 -0.437882008
vn -0.826025359 -0.561885143 -0.044353048
vn -0.293830362 -0.859504644 0.418228987
vn -0.826025359 -0.561885143 -0.044353048
vn 0.085920556 -0.894917318 -0.437882008
vn -0.176608034 -0.682448820 -0.709276540
vn 0.484636947 -0.827990820 -0.282060687
vn -0.293830362 -0.859504644 0.418228987
vn 0.410479075 -0.653631980 0.635824003
vn -0.293830362 -0.859504644 0.418228987
vn 0.484636947 -0.827990820 -0.282060687
vn 0.085920556 -0.894917318 -0.437882008
vn 0.785960347 -0.520881629 -0.333089569
vn 0.410479075 -0.653631980 0.635824003
vn 0.874336476 -0.064874657 0.480964661
vn 0.410479075 -0.653631980 0.635824003
vn 0.785960347 -0.520881629 -0.333089569
vn 0.484636947 -0.827990820 -0.282060687
vn 0.813417317 -0.153453854 -0.561074134
vn 0.874336476 -0.064874657 0.480964661
vn 0.826025359 0.561885143 0.044353048
vn 0.874336476 -0.064874657 0.480964661
vn 0.813417317 -0.153453854 -0.561074134
vn 0.785960347 -0.520881629 -0.333089569
vn 0.550892800 0.059015024 -0.832486847
vn 0.826025359 0.561885143 0.044353048
vn 0.293839097 0.859492710 -0.418247374
vn 0.826025359 0.561885143 0.044353048
vn 0.550892800 0.059015024 -0.832486847
vn 0.813417317 -0.153453854 -0.561074134
vn 0.152171040 -0.007903569 -0.988322573
vn 0.293839097 0.859492710 -0.418247374
vn -0.410465771 0.653620486 -0.635844408
vn 0.293839097 0.859492710 -0.418247374
vn 0.152171040 -0.007903569 -0.988322573
vn 0.550892800 0.059015024 -0.832486847
vn 0.386262114 -0.507019105 -0.770540853
vn 0.152171040 -0.007903569 -0.988322573
vn -0.149144251 -0.315017941 -0.937293811
vn 0.386262114 -0.507019105 -0.770540853
vn -0.149144251 -0.315017941 -0.937293811
vn -0.176608034 -0.682448820 -0.709276540
vn 0.386262114 -0.507019105 -0.770540853
vn -0.176608034 -0.682448820 -0.709276540
vn 0.085920556 -0.894917318 -0.437882008
vn 0.386262114 -0.507019105 -0.770540853
vn 0.085920556 -0.894917318 -0.437882008
vn 0.484636947 -0.827990820 -0.282060687
vn 0.386262114 -0.507019105 -0.770540853
vn 0.484636947 -0.827990820 -0.282060687
vn 0.785960347 -0.520881629 -0.333089569
vn 0.386262114 -0.507019105 -0.770540853
vn 0.785960347 -0.520881629 -0.333089569
vn 0.813417317 -0.153453854 -0.561074134
vn 0.386262114 -0.507019105 -0.770540853
vn 0.813417317 -0.153453854 -0.561074134
vn 0.550892800 0.059015024 -0.832486847
vn 0.386262114 -0.507019105 -0.770540853
vn 0.550892800 0.059015024 -0.832486847
vn 0.152171040 -0.007903569 -0.988322573
f 3/3/3 2/2/2 1/1/1
f 6/6/6 5/5/5 4/4/4
f 9/9/9 8/8/8 7/7/7
f 12/12/12 11/11/11 10/10/10
f 15/15/15 14/14/14 13/13/13
f 18/18/18 17/17/17 16/16/16
f 21/21/21 20/20/20 19/19/19
f 24/24/24 23/23/23 22/22/22
f 27/27/27 26/26/26 25/25/25
f 30/30/30 29/29/29 28/28/28
f 33/33/33 32/32/32 31/31/31
f 36/36/36 35/35/35 34/34/34
f 39/39/39 38/38/38 37/37/37
f 42/42/42 41/41/41 40/40/40
f 45/45/45 44/44/44 43/43/43
f 48/48/48 47/47/47 46/46/46
f 51/51/51 50/50/50 49/49/49
f 54/54/54 53/53/53 52/52/52
f 57/57/57 56/56/56 55/55/55
f 60/60/60 59/59/59 58/58/58
f 63/63/63 62/62/62 61/61/61
f 66/66/66 65/65/65 64/64/64
f 69/69/69 68/68/68 67/67/67
f 72/72/72 71/71/71 70/70/70
f 75/75/75 74/74/74 73/73/73
f 78/78/78 77/77/77 76/76/76
f 81/81/81 80/80/80 79/79/79
f 84/84/84 83/83/83 82/82/82
f 87/87/87 86/86/86 85/85/85
f 90/90/90 89/89/89 88/88/88
f 93/93/93 92/92/92 91/91/91
f 96/96/96 95/95/95 94/94/94
f 99/99/99 98/98/98 97/97/97
f 102/102/102 101/101/101 100/100/100
f 105/105/105 104/104/104 103/103/103
f 108/108/108 107/107/107 106/106/106
f 111/111/111 110/110/110 109/109/109
f 114/114/114 113/113/113 112/112/112
f 117/117/117 116/116/116 115/115/115
f 120/120/120 119/119/119 118/118/118
f 123/123/123 122/122/122 121/121/121
f 126/126/126 125/125/125 124/124/124
f 129/129/129 128/128/128 127/127/127
f 132/132/132 131/131/131 130/130/130
f 135/135/135 134/134/134 133/133/133
f 138/138/138 137/137/137 136/136/136
f 141/141/141 140/140/140 139/139/139
f 144/144/144 143/143/143 142/142/142
f 147/147/147 146/146/146 145/145/145
f 150/150/150 149/149/149 148/148/148
f 153/153/153 152/152/152 151/151/151
f 156/156/156 155/155/155 154/154/154
f 159/159/159 158/158/158 157/157/157
f 162/162/162 161/161/161 160/160/160
f 165/165/165 164/164/164 163/163/163
f 168/168/168 167/167/167 166/166/166
f 171/171/171 170/170/170 169/169/169
f 174/174/174 173/173/173 172/172/172
f 177/177/177 176/176/176 175/175/175
f 180/180/180 179/179/179 178/178/178
f 183/183/183 182/182/182 181/181/181
f 186/186/186 185/185/185 184/184/184
f 189/189/189 188/188/188 187/187/187
f 192/192/192 191/191/191 190/190/190
f 195/195/195 194/194/194 193/193/193
f 198/198/198 197/197/197 196/196/196
f 201/201/201 200/200/200 199/199/199
f 204/204/204 203/203/203 202/202/202
f 207/207/207 206/206/206 205/205/205
f 210/210/210 209/209/209 208/208/208
f 213/213/213 212/212/212 211/211/211
f 216/216/216 215/215/215 214/214/214
f 219/219/219 218/218/218 217/217/217
f 222/222/222 221/221/221 220/220/220
f 225/225/225 224/224/224 223/223/223
f 228/228/228 227/227/227 226/226/226
f 231/231/231 230/230/230 229/229/229
f 234/234/234 233/233/233 232/232/232
f 237/237/237 236/236/236 235/235/235
f 240/240/240 239/239/239 238/238/238
f 243/243/243 242/242/242 241/241/241
f 246/246/246 245/245/245 244/244/244
f 249/249/249 248/248/248 247/247/247
f 252/252/252 251/251/251 250/250/250
f 255/255/255 254/254/254 253/253/253
f 258/258/258 257/257/257 256/256/256
f 261/261/261 260/260/260 259/259/259
f 264/264/264 263/263/263 262/262/262
f 267/267/267 266/266/266 265/265/265
f 270/270/270 269/269/269 268/268/268
f 273/273/273 272/272/272 271/271/271
f 276/276/276 275/275/275 274/274/274
f 279/279/279 278/278/278 277/277/277
f 282/282/282 281/281/281 280/280/280
f 285/285/285 284/284/284 283/283/283
f 288/288/288 287/287/287 286/286/286
