# Static pose baked from local Project Zomboid assets
o Kate_Trousers
v 0.062033584 0.107023950 0.032962911
v 0.023166275 0.121811195 0.051604705
v 0.023631936 0.125515662 0.022626979
v 0.023166275 0.121811195 0.051604705
v 0.062033584 0.107023950 0.032962911
v 0.056687927 0.098125244 0.058010070
v 0.072810920 0.052716435 0.060068945
v 0.062033584 0.107023950 0.032962911
v 0.084034968 0.063766399 0.023460979
v 0.062033584 0.107023950 0.032962911
v 0.072810920 0.052716435 0.060068945
v 0.056687927 0.098125244 0.058010070
v 0.048537500 0.021135870 0.054463317
v 0.073975532 0.042779588 0.004665959
v 0.045987783 0.012074266 -0.007174103
v 0.073975532 0.042779588 0.004665959
v 0.048537500 0.021135870 0.054463317
v 0.072810920 0.052716435 0.060068945
v 0.023631936 0.125515662 0.022626979
v -0.015588366 0.103405214 0.048819046
v -0.018395311 0.116112266 0.016858124
v -0.015588366 0.103405214 0.048819046
v 0.023631936 0.125515662 0.022626979
v 0.023166275 0.121811195 0.051604705
v 0.104596401 0.041388260 -0.027640720
v 0.134125915 0.073085416 -0.134491431
v 0.164051190 0.032388630 -0.106199767
v 0.134125915 0.073085416 -0.134491431
v 0.104596401 0.041388260 -0.027640720
v 0.080359976 0.084762080 -0.053538546
v 0.134125915 0.073085416 -0.134491431
v 0.215022302 0.021683643 -0.207815667
v 0.164051190 0.032388630 -0.106199767
v 0.215022302 0.021683643 -0.207815667
v 0.134125915 0.073085416 -0.134491431
v 0.175666800 0.052462223 -0.214646063
v 0.066731492 -0.005764514 -0.044655170
v 0.067982576 -0.004536632 -0.164831917
v -0.001471766 0.083368932 -0.087802758
v 0.067982576 -0.004536632 -0.164831917
v 0.066731492 -0.005764514 -0.044655170
v 0.133205159 -0.015385356 -0.121220120
v 0.133205159 -0.015385356 -0.121220120
v 0.135934311 0.003348278 -0.206618955
v 0.067982576 -0.004536632 -0.164831917
v 0.135934311 0.003348278 -0.206618955
v 0.133205159 -0.015385356 -0.121220120
v 0.173886392 -0.004017140 -0.209339097
v 0.067982576 -0.004536632 -0.164831917
v 0.039003379 0.087123072 -0.089253303
v -0.001471766 0.083368932 -0.087802758
v 0.039003379 0.087123072 -0.089253303
v 0.067982576 -0.004536632 -0.164831917
v 0.087451093 0.074097444 -0.162183240
v 0.067982576 -0.004536632 -0.164831917
v 0.140468452 0.055969827 -0.207824243
v 0.087451093 0.074097444 -0.162183240
v 0.140468452 0.055969827 -0.207824243
v 0.067982576 -0.004536632 -0.164831917
v 0.135934311 0.003348278 -0.206618955
v 0.039003379 0.087123072 -0.089253303
v 0.134125915 0.073085416 -0.134491431
v 0.080359976 0.084762080 -0.053538546
v 0.134125915 0.073085416 -0.134491431
v 0.039003379 0.087123072 -0.089253303
v 0.087451093 0.074097444 -0.162183240
v 0.087451093 0.074097444 -0.162183240
v 0.175666800 0.052462223 -0.214646063
v 0.134125915 0.073085416 -0.134491431
v 0.175666800 0.052462223 -0.214646063
v 0.087451093 0.074097444 -0.162183240
v 0.140468452 0.055969827 -0.207824243
v 0.180138336 0.021647606 -0.266659691
v 0.111047844 0.047652359 -0.313478478
v 0.139508767 0.018658054 -0.327370739
v 0.111047844 0.047652359 -0.313478478
v 0.180138336 0.021647606 -0.266659691
v 0.150119168 0.051752707 -0.249576880
v 0.139508767 0.018658054 -0.327370739
v 0.086346364 0.043526727 -0.359591947
v 0.117694805 0.020412432 -0.371016893
v 0.086346364 0.043526727 -0.359591947
v 0.139508767 0.018658054 -0.327370739
v 0.111047844 0.047652359 -0.313478478
v 0.140698886 -0.006843381 -0.264330602
v 0.077979603 -0.000191159 -0.285162735
v 0.104104904 -0.001188485 -0.223062814
v 0.077979603 -0.000191159 -0.285162735
v 0.140698886 -0.006843381 -0.264330602
v 0.108188777 -0.007337315 -0.312630706
v 0.108188777 -0.007337315 -0.312630706
v 0.061279583 0.003658049 -0.331347409
v 0.077979603 -0.000191159 -0.285162735
v 0.061279583 0.003658049 -0.331347409
v 0.108188777 -0.007337315 -0.312630706
v 0.074950164 -0.008093610 -0.362951744
v 0.104104904 -0.001188485 -0.223062814
v 0.082440354 0.051771312 -0.289402413
v 0.114089111 0.056878501 -0.219721657
v 0.082440354 0.051771312 -0.289402413
v 0.104104904 -0.001188485 -0.223062814
v 0.077979603 -0.000191159 -0.285162735
v 0.077979603 -0.000191159 -0.285162735
v 0.057729930 0.043451109 -0.327980386
v 0.082440354 0.051771312 -0.289402413
v 0.057729930 0.043451109 -0.327980386
v 0.077979603 -0.000191159 -0.285162735
v 0.061279583 0.003658049 -0.331347409
v 0.114089111 0.056878501 -0.219721657
v 0.111047844 0.047652359 -0.313478478
v 0.150119168 0.051752707 -0.249576880
v 0.111047844 0.047652359 -0.313478478
v 0.114089111 0.056878501 -0.219721657
v 0.082440354 0.051771312 -0.289402413
v 0.082440354 0.051771312 -0.289402413
v 0.086346364 0.043526727 -0.359591947
v 0.111047844 0.047652359 -0.313478478
v 0.086346364 0.043526727 -0.359591947
v 0.082440354 0.051771312 -0.289402413
v 0.057729930 0.043451109 -0.327980386
v 0.080359976 0.084762080 -0.053538546
v 0.073975532 0.042779588 0.004665959
v 0.056931107 0.083993035 -0.017501604
v 0.073975532 0.042779588 0.004665959
v 0.080359976 0.084762080 -0.053538546
v 0.104596401 0.041388260 -0.027640720
v 0.045987783 0.012074266 -0.007174103
v 0.007671839 0.002492923 -0.057863223
v 0.008360603 -0.008246174 -0.014662152
v 0.007671839 0.002492923 -0.057863223
v 0.045987783 0.012074266 -0.007174103
v 0.066731492 -0.005764514 -0.044655170
v 0.023631936 0.125515662 0.022626979
v 0.073191341 0.120890617 -0.017057849
v 0.062033584 0.107023950 0.032962911
v 0.073191341 0.120890617 -0.017057849
v 0.023631936 0.125515662 0.022626979
v 0.022075416 0.135359810 -0.023611868
v 0.022075416 0.135359810 -0.023611868
v 0.052565025 0.101386405 -0.072453925
v 0.073191341 0.120890617 -0.017057849
v 0.052565025 0.101386405 -0.072453925
v 0.022075416 0.135359810 -0.023611868
v 0.024734397 0.129022520 -0.061497424
v 0.024734397 0.129022520 -0.061497424
v 0.039003379 0.087123072 -0.089253303
v 0.052565025 0.101386405 -0.072453925
v 0.039003379 0.087123072 -0.089253303
v 0.024734397 0.129022520 -0.061497424
v -0.001471766 0.083368932 -0.087802758
v 0.180138336 0.021647606 -0.266659691
v 0.175666800 0.052462223 -0.214646063
v 0.150119168 0.051752707 -0.249576880
v 0.175666800 0.052462223 -0.214646063
v 0.180138336 0.021647606 -0.266659691
v 0.215022302 0.021683643 -0.207815667
v 0.150119168 0.051752707 -0.249576880
v 0.140468452 0.055969827 -0.207824243
v 0.114089111 0.056878501 -0.219721657
v 0.140468452 0.055969827 -0.207824243
v 0.150119168 0.051752707 -0.249576880
v 0.175666800 0.052462223 -0.214646063
v 0.140468452 0.055969827 -0.207824243
v 0.104104904 -0.001188485 -0.223062814
v 0.114089111 0.056878501 -0.219721657
v 0.104104904 -0.001188485 -0.223062814
v 0.140468452 0.055969827 -0.207824243
v 0.135934311 0.003348278 -0.206618955
v 0.135934311 0.003348278 -0.206618955
v 0.140698886 -0.006843381 -0.264330602
v 0.104104904 -0.001188485 -0.223062814
v 0.140698886 -0.006843381 -0.264330602
v 0.135934311 0.003348278 -0.206618955
v 0.173886392 -0.004017140 -0.209339097
v 0.062033584 0.107023950 0.032962911
v 0.056931107 0.083993035 -0.017501604
v 0.084034968 0.063766399 0.023460979
v 0.056931107 0.083993035 -0.017501604
v 0.062033584 0.107023950 0.032962911
v 0.073191341 0.120890617 -0.017057849
v 0.073191341 0.120890617 -0.017057849
v 0.080359976 0.084762080 -0.053538546
v 0.056931107 0.083993035 -0.017501604
v 0.080359976 0.084762080 -0.053538546
v 0.073191341 0.120890617 -0.017057849
v 0.052565025 0.101386405 -0.072453925
v 0.052565025 0.101386405 -0.072453925
v 0.039003379 0.087123072 -0.089253303
v 0.080359976 0.084762080 -0.053538546
v 0.045987783 0.012074266 -0.007174103
v 0.104596401 0.041388260 -0.027640720
v 0.066731492 -0.005764514 -0.044655170
v 0.073975532 0.042779588 0.004665959
v 0.104596401 0.041388260 -0.027640720
v 0.045987783 0.012074266 -0.007174103
v 0.104596401 0.041388260 -0.027640720
v 0.164051190 0.032388630 -0.106199767
v 0.133205159 -0.015385356 -0.121220120
v 0.164051190 0.032388630 -0.106199767
v 0.173886392 -0.004017140 -0.209339097
v 0.133205159 -0.015385356 -0.121220120
v 0.173886392 -0.004017140 -0.209339097
v 0.164051190 0.032388630 -0.106199767
v 0.215022302 0.021683643 -0.207815667
v 0.215022302 0.021683643 -0.207815667
v 0.140698886 -0.006843381 -0.264330602
v 0.173886392 -0.004017140 -0.209339097
v 0.140698886 -0.006843381 -0.264330602
v 0.215022302 0.021683643 -0.207815667
v 0.180138336 0.021647606 -0.266659691
v 0.140698886 -0.006843381 -0.264330602
v 0.139508767 0.018658054 -0.327370739
v 0.108188777 -0.007337315 -0.312630706
v 0.139508767 0.018658054 -0.327370739
v 0.140698886 -0.006843381 -0.264330602
v 0.180138336 0.021647606 -0.266659691
v 0.108188777 -0.007337315 -0.312630706
v 0.117694805 0.020412432 -0.371016893
v 0.074950164 -0.008093610 -0.362951744
v 0.117694805 0.020412432 -0.371016893
v 0.108188777 -0.007337315 -0.312630706
v 0.139508767 0.018658054 -0.327370739
v 0.072810920 0.052716435 0.060068945
v 0.084034968 0.063766399 0.023460979
v 0.073975532 0.042779588 0.004665959
v 0.084034968 0.063766399 0.023460979
v 0.056931107 0.083993035 -0.017501604
v 0.073975532 0.042779588 0.004665959
v 0.066731492 -0.005764514 -0.044655170
v -0.000840879 0.047535156 -0.079809031
v 0.007671839 0.002492923 -0.057863223
v 0.008360603 -0.008246174 -0.014662152
v 0.048537500 0.021135870 0.054463317
v 0.045987783 0.012074266 -0.007174103
v -0.018395311 0.116112266 0.016858124
v 0.022075416 0.135359810 -0.023611868
v 0.023631936 0.125515662 0.022626979
v 0.022075416 0.135359810 -0.023611868
v -0.018395311 0.116112266 0.016858124
v -0.018942553 0.126397275 -0.027698997
v 0.022075416 0.135359810 -0.023611868
v -0.016715864 0.121211531 -0.060472241
v 0.024734397 0.129022520 -0.061497424
v -0.016715864 0.121211531 -0.060472241
v 0.022075416 0.135359810 -0.023611868
v -0.018942553 0.126397275 -0.027698997
v -0.016715864 0.121211531 -0.060472241
v -0.014095058 0.111963799 -0.080688025
v 0.024734397 0.129022520 -0.061497424
v -0.014095058 0.111963799 -0.080688025
v -0.000840879 0.047535156 -0.079809031
v -0.001471766 0.083368932 -0.087802758
v -0.001471766 0.083368932 -0.087802758
v -0.000840879 0.047535156 -0.079809031
v 0.066731492 -0.005764514 -0.044655170
v 0.104596401 0.041388260 -0.027640720
v 0.133205159 -0.015385356 -0.121220120
v 0.066731492 -0.005764514 -0.044655170
v 0.086346364 0.043526727 -0.359591947
v 0.113412422 0.020147642 -0.365848982
v 0.117694805 0.020412432 -0.371016893
v 0.113412422 0.020147642 -0.365848982
v 0.086346364 0.043526727 -0.359591947
v 0.083105071 0.047550746 -0.377655051
v 0.074950164 -0.008093610 -0.362951744
v 0.025656193 -0.008984053 -0.385046382
v 0.061279583 0.003658049 -0.331347409
v 0.025656193 -0.008984053 -0.385046382
v 0.074950164 -0.008093610 -0.362951744
v 0.081488126 -0.013703371 -0.387722085
v 0.061279583 0.003658049 -0.331347409
v 0.027123567 0.045358325 -0.377539092
v 0.057729930 0.043451109 -0.327980386
v 0.027123567 0.045358325 -0.377539092
v 0.061279583 0.003658049 -0.331347409
v 0.025656193 -0.008984053 -0.385046382
v 0.057729930 0.043451109 -0.327980386
v 0.083105071 0.047550746 -0.377655051
v 0.086346364 0.043526727 -0.359591947
v 0.083105071 0.047550746 -0.377655051
v 0.057729930 0.043451109 -0.327980386
v 0.027123567 0.045358325 -0.377539092
v 0.117694805 0.020412432 -0.371016893
v 0.081488126 -0.013703371 -0.387722085
v 0.074950164 -0.008093610 -0.362951744
v 0.081488126 -0.013703371 -0.387722085
v 0.117694805 0.020412432 -0.371016893
v 0.113412422 0.020147642 -0.365848982
v 0.083105071 0.047550746 -0.377655051
v 0.111882031 0.023698186 -0.391279262
v 0.113412422 0.020147642 -0.365848982
v 0.111882031 0.023698186 -0.391279262
v 0.083105071 0.047550746 -0.377655051
v 0.082603513 0.051199905 -0.403040429
v 0.081488126 -0.013703371 -0.387722085
v 0.025205060 -0.005489761 -0.408251626
v 0.025656193 -0.008984053 -0.385046382
v 0.025205060 -0.005489761 -0.408251626
v 0.081488126 -0.013703371 -0.387722085
v 0.081200227 -0.009419592 -0.406068491
v 0.025656193 -0.008984053 -0.385046382
v 0.026612003 0.048824863 -0.402998711
v 0.027123567 0.045358325 -0.377539092
v 0.026612003 0.048824863 -0.402998711
v 0.025656193 -0.008984053 -0.385046382
v 0.025205060 -0.005489761 -0.408251626
v 0.027123567 0.045358325 -0.377539092
v 0.082603513 0.051199905 -0.403040429
v 0.083105071 0.047550746 -0.377655051
v 0.082603513 0.051199905 -0.403040429
v 0.027123567 0.045358325 -0.377539092
v 0.026612003 0.048824863 -0.402998711
v 0.113412422 0.020147642 -0.365848982
v 0.081200227 -0.009419592 -0.406068491
v 0.081488126 -0.013703371 -0.387722085
v 0.081200227 -0.009419592 -0.406068491
v 0.113412422 0.020147642 -0.365848982
v 0.111882031 0.023698186 -0.391279262
v 0.082603513 0.051199905 -0.403040429
v 0.065541611 0.021079837 -0.409933733
v 0.111882031 0.023698186 -0.391279262
v 0.081200227 -0.009419592 -0.406068491
v 0.065541611 0.021079837 -0.409933733
v 0.025205060 -0.005489761 -0.408251626
v 0.025205060 -0.005489761 -0.408251626
v 0.048144419 0.033582329 -0.407223563
v 0.026612003 0.048824863 -0.402998711
v 0.048144419 0.033582329 -0.407223563
v 0.025205060 -0.005489761 -0.408251626
v 0.065541611 0.021079837 -0.409933733
v 0.048144419 0.033582329 -0.407223563
v 0.082603513 0.051199905 -0.403040429
v 0.026612003 0.048824863 -0.402998711
v 0.082603513 0.051199905 -0.403040429
v 0.048144419 0.033582329 -0.407223563
v 0.065541611 0.021079837 -0.409933733
v 0.111882031 0.023698186 -0.391279262
v 0.065541611 0.021079837 -0.409933733
v 0.081200227 -0.009419592 -0.406068491
v 0.056687927 0.098125244 0.058010070
v -0.007058872 0.061764096 0.053427132
v 0.023166275 0.121811195 0.051604705
v 0.072810920 0.052716435 0.060068945
v -0.007058872 0.061764096 0.053427132
v 0.056687927 0.098125244 0.058010070
v 0.048537500 0.021135870 0.054463317
v -0.007058872 0.061764096 0.053427132
v 0.072810920 0.052716435 0.060068945
v 0.004224585 0.007554350 0.052269676
v -0.007058872 0.061764096 0.053427132
v 0.048537500 0.021135870 0.054463317
v 0.023166275 0.121811195 0.051604705
v -0.007058872 0.061764096 0.053427132
v -0.015588366 0.103405214 0.048819046
v -0.089578239 0.075761507 0.027608758
v -0.058526205 0.104727059 0.049523105
v -0.080106757 0.069517728 0.054524414
v -0.058526205 0.104727059 0.049523105
v -0.089578239 0.075761507 0.027608758
v -0.061003829 0.108063720 0.019638077
v -0.076909044 0.021405888 0.056253941
v -0.089578239 0.075761507 0.027608758
v -0.080106757 0.069517728 0.054524414
v -0.089578239 0.075761507 0.027608758
v -0.076909044 0.021405888 0.056253941
v -0.092000137 0.027467862 0.017244321
v -0.041855328 0.002232253 0.052160024
v -0.071451817 -0.000239214 -0.002472357
v -0.076909044 0.021405888 0.056253941
v -0.071451817 -0.000239214 -0.002472357
v -0.041855328 0.002232253 0.052160024
v -0.034646599 -0.004552589 -0.010021696
v -0.061003829 0.108063720 0.019638077
v -0.015588366 0.103405214 0.048819046
v -0.058526205 0.104727059 0.049523105
v -0.015588366 0.103405214 0.048819046
v -0.061003829 0.108063720 0.019638077
v -0.018395311 0.116112266 0.016858124
v -0.055696036 -0.013706128 -0.055384031
v -0.104250744 0.007990183 -0.155206888
v -0.103641739 0.021478967 -0.056723712
v -0.104250744 0.007990183 -0.155206888
v -0.055696036 -0.013706128 -0.055384031
v -0.061339582 -0.022880889 -0.153790712
v -0.104250744 0.007990183 -0.155206888
v -0.068563307 -0.022318706 -0.259700206
v -0.100156953 0.021106731 -0.248448893
v -0.068563307 -0.022318706 -0.259700206
v -0.104250744 0.007990183 -0.155206888
v -0.061339582 -0.022880889 -0.153790712
v -0.001155763 0.004451105 -0.065003791
v -0.031240381 0.091442758 -0.160847910
v -0.015705523 0.013803037 -0.158778228
v -0.031240381 0.091442758 -0.160847910
v -0.001155763 0.004451105 -0.065003791
v -0.017710024 0.103016722 -0.084509689
v -0.015705523 0.013803037 -0.158778228
v -0.050977778 0.067863765 -0.247778440
v -0.042989334 0.023436604 -0.252787009
v -0.050977778 0.067863765 -0.247778440
v -0.015705523 0.013803037 -0.158778228
v -0.031240381 0.091442758 -0.160847910
v -0.102120201 0.084255795 -0.068525654
v -0.031240381 0.091442758 -0.160847910
v -0.017710024 0.103016722 -0.084509689
v -0.031240381 0.091442758 -0.160847910
v -0.102120201 0.084255795 -0.068525654
v -0.108877216 0.069178122 -0.155460550
v -0.031240381 0.091442758 -0.160847910
v -0.103926124 0.062676680 -0.243026826
v -0.050977778 0.067863765 -0.247778440
v -0.103926124 0.062676680 -0.243026826
v -0.031240381 0.091442758 -0.160847910
v -0.108877216 0.069178122 -0.155460550
v -0.102120201 0.084255795 -0.068525654
v -0.104250744 0.007990183 -0.155206888
v -0.108877216 0.069178122 -0.155460550
v -0.104250744 0.007990183 -0.155206888
v -0.102120201 0.084255795 -0.068525654
v -0.103641739 0.021478967 -0.056723712
v -0.108877216 0.069178122 -0.155460550
v -0.100156953 0.021106731 -0.248448893
v -0.103926124 0.062676680 -0.243026826
v -0.100156953 0.021106731 -0.248448893
v -0.108877216 0.069178122 -0.155460550
v -0.104250744 0.007990183 -0.155206888
v -0.073712280 -0.007602800 -0.305758396
v -0.104361572 0.036482028 -0.374172305
v -0.103639125 0.026909444 -0.299869594
v -0.104361572 0.036482028 -0.374172305
v -0.073712280 -0.007602800 -0.305758396
v -0.076207769 0.004622245 -0.377740193
v -0.076207769 0.004622245 -0.377740193
v -0.105931206 0.040113381 -0.426564809
v -0.104361572 0.036482028 -0.374172305
v -0.105931206 0.040113381 -0.426564809
v -0.076207769 0.004622245 -0.377740193
v -0.082141566 0.007532336 -0.426109297
v -0.045877626 0.029282015 -0.322268015
v -0.056601729 0.077975327 -0.366264219
v -0.050795173 0.039085962 -0.379492077
v -0.056601729 0.077975327 -0.366264219
v -0.045877626 0.029282015 -0.322268015
v -0.049307695 0.079656179 -0.299251193
v -0.050795173 0.039085962 -0.379492077
v -0.063549721 0.076150724 -0.414581052
v -0.055647143 0.035776268 -0.438481693
v -0.063549721 0.076150724 -0.414581052
v -0.050795173 0.039085962 -0.379492077
v -0.056601729 0.077975327 -0.366264219
v -0.049307695 0.079656179 -0.299251193
v -0.107428046 0.072498733 -0.363640254
v -0.056601729 0.077975327 -0.366264219
v -0.107428046 0.072498733 -0.363640254
v -0.049307695 0.079656179 -0.299251193
v -0.107439625 0.072081630 -0.287033427
v -0.056601729 0.077975327 -0.366264219
v -0.104165393 0.081304335 -0.409486100
v -0.063549721 0.076150724 -0.414581052
v -0.104165393 0.081304335 -0.409486100
v -0.056601729 0.077975327 -0.366264219
v -0.107428046 0.072498733 -0.363640254
v -0.107439625 0.072081630 -0.287033427
v -0.104361572 0.036482028 -0.374172305
v -0.107428046 0.072498733 -0.363640254
v -0.104361572 0.036482028 -0.374172305
v -0.107439625 0.072081630 -0.287033427
v -0.103639125 0.026909444 -0.299869594
v -0.107428046 0.072498733 -0.363640254
v -0.105931206 0.040113381 -0.426564809
v -0.104165393 0.081304335 -0.409486100
v -0.105931206 0.040113381 -0.426564809
v -0.107428046 0.072498733 -0.363640254
v -0.104361572 0.036482028 -0.374172305
v -0.103641739 0.021478967 -0.056723712
v -0.071451817 -0.000239214 -0.002472357
v -0.055696036 -0.013706128 -0.055384031
v -0.071451817 -0.000239214 -0.002472357
v -0.103641739 0.021478967 -0.056723712
v -0.098266957 0.032049115 -0.012636999
v 0.007671839 0.002492923 -0.057863223
v -0.034646599 -0.004552589 -0.010021696
v 0.008360603 -0.008246174 -0.014662152
v -0.034646599 -0.004552589 -0.010021696
v 0.007671839 0.002492923 -0.057863223
v -0.001155763 0.004451105 -0.065003791
v -0.061003829 0.108063720 0.019638077
v -0.101894312 0.084787857 -0.023240978
v -0.060338445 0.118366026 -0.026522304
v -0.101894312 0.084787857 -0.023240978
v -0.061003829 0.108063720 0.019638077
v -0.089578239 0.075761507 0.027608758
v -0.060338445 0.118366026 -0.026522304
v -0.105918668 0.083979656 -0.060549200
v -0.057706869 0.112023085 -0.064408828
v -0.105918668 0.083979656 -0.060549200
v -0.060338445 0.118366026 -0.026522304
v -0.101894312 0.084787857 -0.023240978
v -0.057706869 0.112023085 -0.064408828
v -0.102120201 0.084255795 -0.068525654
v -0.017710024 0.103016722 -0.084509689
v -0.102120201 0.084255795 -0.068525654
v -0.057706869 0.112023085 -0.064408828
v -0.105918668 0.083979656 -0.060549200
v -0.073712280 -0.007602800 -0.305758396
v -0.100156953 0.021106731 -0.248448893
v -0.068563307 -0.022318706 -0.259700206
v -0.100156953 0.021106731 -0.248448893
v -0.073712280 -0.007602800 -0.305758396
v -0.103639125 0.026909444 -0.299869594
v -0.103639125 0.026909444 -0.299869594
v -0.103926124 0.062676680 -0.243026826
v -0.100156953 0.021106731 -0.248448893
v -0.103926124 0.062676680 -0.243026826
v -0.103639125 0.026909444 -0.299869594
v -0.107439625 0.072081630 -0.287033427
v -0.103926124 0.062676680 -0.243026826
v -0.049307695 0.079656179 -0.299251193
v -0.050977778 0.067863765 -0.247778440
v -0.049307695 0.079656179 -0.299251193
v -0.103926124 0.062676680 -0.243026826
v -0.107439625 0.072081630 -0.287033427
v -0.050977778 0.067863765 -0.247778440
v -0.045877626 0.029282015 -0.322268015
v -0.042989334 0.023436604 -0.252787009
v -0.045877626 0.029282015 -0.322268015
v -0.050977778 0.067863765 -0.247778440
v -0.049307695 0.079656179 -0.299251193
v -0.089578239 0.075761507 0.027608758
v -0.098266957 0.032049115 -0.012636999
v -0.101894312 0.084787857 -0.023240978
v -0.098266957 0.032049115 -0.012636999
v -0.089578239 0.075761507 0.027608758
v -0.092000137 0.027467862 0.017244321
v -0.101894312 0.084787857 -0.023240978
v -0.103641739 0.021478967 -0.056723712
v -0.105918668 0.083979656 -0.060549200
v -0.103641739 0.021478967 -0.056723712
v -0.101894312 0.084787857 -0.023240978
v -0.098266957 0.032049115 -0.012636999
v -0.105918668 0.083979656 -0.060549200
v -0.103641739 0.021478967 -0.056723712
v -0.102120201 0.084255795 -0.068525654
v -0.034646599 -0.004552589 -0.010021696
v -0.001155763 0.004451105 -0.065003791
v -0.055696036 -0.013706128 -0.055384031
v -0.071451817 -0.000239214 -0.002472357
v -0.034646599 -0.004552589 -0.010021696
v -0.055696036 -0.013706128 -0.055384031
v -0.055696036 -0.013706128 -0.055384031
v -0.015705523 0.013803037 -0.158778228
v -0.061339582 -0.022880889 -0.153790712
v -0.061339582 -0.022880889 -0.153790712
v -0.042989334 0.023436604 -0.252787009
v -0.068563307 -0.022318706 -0.259700206
v -0.042989334 0.023436604 -0.252787009
v -0.061339582 -0.022880889 -0.153790712
v -0.015705523 0.013803037 -0.158778228
v -0.068563307 -0.022318706 -0.259700206
v -0.045877626 0.029282015 -0.322268015
v -0.073712280 -0.007602800 -0.305758396
v -0.045877626 0.029282015 -0.322268015
v -0.068563307 -0.022318706 -0.259700206
v -0.042989334 0.023436604 -0.252787009
v -0.045877626 0.029282015 -0.322268015
v -0.076207769 0.004622245 -0.377740193
v -0.073712280 -0.007602800 -0.305758396
v -0.076207769 0.004622245 -0.377740193
v -0.045877626 0.029282015 -0.322268015
v -0.050795173 0.039085962 -0.379492077
v -0.050795173 0.039085962 -0.379492077
v -0.082141566 0.007532336 -0.426109297
v -0.076207769 0.004622245 -0.377740193
v -0.082141566 0.007532336 -0.426109297
v -0.050795173 0.039085962 -0.379492077
v -0.055647143 0.035776268 -0.438481693
v -0.076909044 0.021405888 0.056253941
v -0.071451817 -0.000239214 -0.002472357
v -0.092000137 0.027467862 0.017244321
v -0.092000137 0.027467862 0.017244321
v -0.071451817 -0.000239214 -0.002472357
v -0.098266957 0.032049115 -0.012636999
v -0.001155763 0.004451105 -0.065003791
v 0.007671839 0.002492923 -0.057863223
v -0.000840879 0.047535156 -0.079809031
v 0.008360603 -0.008246174 -0.014662152
v -0.034646599 -0.004552589 -0.010021696
v -0.041855328 0.002232253 0.052160024
v -0.018395311 0.116112266 0.016858124
v -0.060338445 0.118366026 -0.026522304
v -0.018942553 0.126397275 -0.027698997
v -0.060338445 0.118366026 -0.026522304
v -0.018395311 0.116112266 0.016858124
v -0.061003829 0.108063720 0.019638077
v -0.060338445 0.118366026 -0.026522304
v -0.016715864 0.121211531 -0.060472241
v -0.018942553 0.126397275 -0.027698997
v -0.016715864 0.121211531 -0.060472241
v -0.060338445 0.118366026 -0.026522304
v -0.057706869 0.112023085 -0.064408828
v -0.016715864 0.121211531 -0.060472241
v -0.057706869 0.112023085 -0.064408828
v -0.014095058 0.111963799 -0.080688025
v -0.014095058 0.111963799 -0.080688025
v -0.017710024 0.103016722 -0.084509689
v -0.000840879 0.047535156 -0.079809031
v -0.017710024 0.103016722 -0.084509689
v -0.001155763 0.004451105 -0.065003791
v -0.000840879 0.047535156 -0.079809031
v -0.055696036 -0.013706128 -0.055384031
v -0.001155763 0.004451105 -0.065003791
v -0.015705523 0.013803037 -0.158778228
v -0.105931206 0.040113381 -0.426564809
v -0.084329460 -0.002466641 -0.452818925
v -0.111137645 0.031803744 -0.455633083
v -0.084329460 -0.002466641 -0.452818925
v -0.105931206 0.040113381 -0.426564809
v -0.082141566 0.007532336 -0.426109297
v -0.055647143 0.035776268 -0.438481693
v -0.056065231 0.089185100 -0.446141075
v -0.051000442 0.036193799 -0.463963449
v -0.056065231 0.089185100 -0.446141075
v -0.055647143 0.035776268 -0.438481693
v -0.063549721 0.076150724 -0.414581052
v -0.063549721 0.076150724 -0.414581052
v -0.109397614 0.085677431 -0.440186094
v -0.056065231 0.089185100 -0.446141075
v -0.109397614 0.085677431 -0.440186094
v -0.063549721 0.076150724 -0.414581052
v -0.104165393 0.081304335 -0.409486100
v -0.104165393 0.081304335 -0.409486100
v -0.111137645 0.031803744 -0.455633083
v -0.109397614 0.085677431 -0.440186094
v -0.111137645 0.031803744 -0.455633083
v -0.104165393 0.081304335 -0.409486100
v -0.105931206 0.040113381 -0.426564809
v -0.082141566 0.007532336 -0.426109297
v -0.051000442 0.036193799 -0.463963449
v -0.084329460 -0.002466641 -0.452818925
v -0.051000442 0.036193799 -0.463963449
v -0.082141566 0.007532336 -0.426109297
v -0.055647143 0.035776268 -0.438481693
v -0.111137645 0.031803744 -0.455633083
v -0.087747107 0.004980473 -0.477200744
v -0.114405624 0.039263299 -0.480029318
v -0.087747107 0.004980473 -0.477200744
v -0.111137645 0.031803744 -0.455633083
v -0.084329460 -0.002466641 -0.452818925
v -0.051000442 0.036193799 -0.463963449
v -0.059208715 0.095977658 -0.468384434
v -0.054978263 0.041496430 -0.481592330
v -0.059208715 0.095977658 -0.468384434
v -0.051000442 0.036193799 -0.463963449
v -0.056065231 0.089185100 -0.446141075
v -0.056065231 0.089185100 -0.446141075
v -0.112482205 0.093146477 -0.464580156
v -0.059208715 0.095977658 -0.468384434
v -0.112482205 0.093146477 -0.464580156
v -0.056065231 0.089185100 -0.446141075
v -0.109397614 0.085677431 -0.440186094
v -0.109397614 0.085677431 -0.440186094
v -0.114405624 0.039263299 -0.480029318
v -0.112482205 0.093146477 -0.464580156
v -0.114405624 0.039263299 -0.480029318
v -0.109397614 0.085677431 -0.440186094
v -0.111137645 0.031803744 -0.455633083
v -0.084329460 -0.002466641 -0.452818925
v -0.054978263 0.041496430 -0.481592330
v -0.087747107 0.004980473 -0.477200744
v -0.054978263 0.041496430 -0.481592330
v -0.084329460 -0.002466641 -0.452818925
v -0.051000442 0.036193799 -0.463963449
v -0.114405624 0.039263299 -0.480029318
v -0.087747107 0.004980473 -0.477200744
v -0.084928098 0.057601253 -0.481494720
v -0.054978263 0.041496430 -0.481592330
v -0.059208715 0.095977658 -0.468384434
v -0.084928098 0.057601253 -0.481494720
v -0.059208715 0.095977658 -0.468384434
v -0.097339993 0.073592046 -0.474311542
v -0.084928098 0.057601253 -0.481494720
v -0.097339993 0.073592046 -0.474311542
v -0.059208715 0.095977658 -0.468384434
v -0.112482205 0.093146477 -0.464580156
v -0.114405624 0.039263299 -0.480029318
v -0.097339993 0.073592046 -0.474311542
v -0.112482205 0.093146477 -0.464580156
v -0.097339993 0.073592046 -0.474311542
v -0.114405624 0.039263299 -0.480029318
v -0.084928098 0.057601253 -0.481494720
v -0.087747107 0.004980473 -0.477200744
v -0.054978263 0.041496430 -0.481592330
v -0.084928098 0.057601253 -0.481494720
v -0.080106757 0.069517728 0.054524414
v -0.058526205 0.104727059 0.049523105
v -0.007058872 0.061764096 0.053427132
v -0.076909044 0.021405888 0.056253941
v -0.080106757 0.069517728 0.054524414
v -0.007058872 0.061764096 0.053427132
v -0.041855328 0.002232253 0.052160024
v -0.076909044 0.021405888 0.056253941
v -0.007058872 0.061764096 0.053427132
v 0.004224585 0.007554350 0.052269676
v -0.041855328 0.002232253 0.052160024
v -0.007058872 0.061764096 0.053427132
v -0.058526205 0.104727059 0.049523105
v -0.015588366 0.103405214 0.048819046
v -0.007058872 0.061764096 0.053427132
v 0.048537500 0.021135870 0.054463317
v 0.008360603 -0.008246174 -0.014662152
v 0.004224585 0.007554350 0.052269676
v 0.008360603 -0.008246174 -0.014662152
v -0.041855328 0.002232253 0.052160024
v 0.004224585 0.007554350 0.052269676
v 0.024734397 0.129022520 -0.061497424
v -0.014095058 0.111963799 -0.080688025
v -0.001471766 0.083368932 -0.087802758
v -0.014095058 0.111963799 -0.080688025
v -0.057706869 0.112023085 -0.064408828
v -0.017710024 0.103016722 -0.084509689
vt 0.655812979 0.560059011
vt 0.740234017 0.535561979
vt 0.742870986 0.568826020
vt 0.740234017 0.535561979
vt 0.655812979 0.560059011
vt 0.652606010 0.535561979
vt 0.584580004 0.535561979
vt 0.655812979 0.560059011
vt 0.606445014 0.576452017
vt 0.655812979 0.560059011
vt 0.584580004 0.535561979
vt 0.652606010 0.535561979
vt 0.546494007 0.535561979
vt 0.577148020 0.587302029
vt 0.539062977 0.589254975
vt 0.577148020 0.587302029
vt 0.546494007 0.535561979
vt 0.584580004 0.535561979
vt 0.742870986 0.568826020
vt 0.785156012 0.535561979
vt 0.785156012 0.570591986
vt 0.785156012 0.535561979
vt 0.742870986 0.568826020
vt 0.740234017 0.535561979
vt 0.571289003 0.614257991
vt 0.620117009 0.710937977
vt 0.583007991 0.711914003
vt 0.620117009 0.710937977
vt 0.571289003 0.614257991
vt 0.616210997 0.614257991
vt 0.620117009 0.710937977
vt 0.594506025 0.771530986
vt 0.583007991 0.711914003
vt 0.594506025 0.771530986
vt 0.620117009 0.710937977
vt 0.633000016 0.774496973
vt 0.781250000 0.617187977
vt 0.729492009 0.701171994
vt 0.738281012 0.629882991
vt 0.729492009 0.701171994
vt 0.781250000 0.617187977
vt 0.774414003 0.709960997
vt 0.774414003 0.709960997
vt 0.722656012 0.771484017
vt 0.729492009 0.701171994
vt 0.722656012 0.771484017
vt 0.774414003 0.709960997
vt 0.768554986 0.771484017
vt 0.729492009 0.701171994
vt 0.680441976 0.630411983
vt 0.738281012 0.629882991
vt 0.680441976 0.630411983
vt 0.729492009 0.701171994
vt 0.676757991 0.704101980
vt 0.729492009 0.701171994
vt 0.676864982 0.770649016
vt 0.676757991 0.704101980
vt 0.676864982 0.770649016
vt 0.729492009 0.701171994
vt 0.722656012 0.771484017
vt 0.680441976 0.630411983
vt 0.620117009 0.710937977
vt 0.616210997 0.614257991
vt 0.620117009 0.710937977
vt 0.680441976 0.630411983
vt 0.676757991 0.704101980
vt 0.676757991 0.704101980
vt 0.633000016 0.774496973
vt 0.620117009 0.710937977
vt 0.633000016 0.774496973
vt 0.676757991 0.704101980
vt 0.676864982 0.770649016
vt 0.605823994 0.832777023
vt 0.655273020 0.876953006
vt 0.614238977 0.877417028
vt 0.655273020 0.876953006
vt 0.605823994 0.832777023
vt 0.646853983 0.829473019
vt 0.614238977 0.877417028
vt 0.661132991 0.920898020
vt 0.624240994 0.921905994
vt 0.661132991 0.920898020
vt 0.614238977 0.877417028
vt 0.655273020 0.876953006
vt 0.758789003 0.829101980
vt 0.722656012 0.876953006
vt 0.724609017 0.825195014
vt 0.722656012 0.876953006
vt 0.758789003 0.829101980
vt 0.753906012 0.876953006
vt 0.753906012 0.876953006
vt 0.717773020 0.921875000
vt 0.722656012 0.876953006
vt 0.717773020 0.921875000
vt 0.753906012 0.876953006
vt 0.747070014 0.921875000
vt 0.724609017 0.825195014
vt 0.679687977 0.875976980
vt 0.676509023 0.820604026
vt 0.679687977 0.875976980
vt 0.724609017 0.825195014
vt 0.722656012 0.876953006
vt 0.722656012 0.876953006
vt 0.683311999 0.921037018
vt 0.679687977 0.875976980
vt 0.683311999 0.921037018
vt 0.722656012 0.876953006
vt 0.717773020 0.921875000
vt 0.676509023 0.820604026
vt 0.655273020 0.876953006
vt 0.646853983 0.829473019
vt 0.655273020 0.876953006
vt 0.676509023 0.820604026
vt 0.679687977 0.875976980
vt 0.679687977 0.875976980
vt 0.661132991 0.920898020
vt 0.655273020 0.876953006
vt 0.661132991 0.920898020
vt 0.679687977 0.875976980
vt 0.683311999 0.921037018
vt 0.616210997 0.614257991
vt 0.577148020 0.587302029
vt 0.622070014 0.584178984
vt 0.577148020 0.587302029
vt 0.616210997 0.614257991
vt 0.571289003 0.614257991
vt 0.539062977 0.589254975
vt 0.500618994 0.616203010
vt 0.500618994 0.591796994
vt 0.500618994 0.616203010
vt 0.539062977 0.589254975
vt 0.512254000 0.615234017
vt 0.742870986 0.568826020
vt 0.677475989 0.591902971
vt 0.655812979 0.560059011
vt 0.677475989 0.591902971
vt 0.742870986 0.568826020
vt 0.744140983 0.590817988
vt 0.744140983 0.590817988
vt 0.681532979 0.613192976
vt 0.677475989 0.591902971
vt 0.681532979 0.613192976
vt 0.744140983 0.590817988
vt 0.741210997 0.610741973
vt 0.741210997 0.610741973
vt 0.680441976 0.630411983
vt 0.681532979 0.613192976
vt 0.680441976 0.630411983
vt 0.741210997 0.610741973
vt 0.738281012 0.629882991
vt 0.605823994 0.832777023
vt 0.633000016 0.774496973
vt 0.646853983 0.829473019
vt 0.633000016 0.774496973
vt 0.605823994 0.832777023
vt 0.594506025 0.771530986
vt 0.646853983 0.829473019
vt 0.676864982 0.770649016
vt 0.676509023 0.820604026
vt 0.676864982 0.770649016
vt 0.646853983 0.829473019
vt 0.633000016 0.774496973
vt 0.676864982 0.770649016
vt 0.724609017 0.825195014
vt 0.676509023 0.820604026
vt 0.724609017 0.825195014
vt 0.676864982 0.770649016
vt 0.722656012 0.771484017
vt 0.722656012 0.771484017
vt 0.758789003 0.829101980
vt 0.724609017 0.825195014
vt 0.758789003 0.829101980
vt 0.722656012 0.771484017
vt 0.768554986 0.771484017
vt 0.655812979 0.560059011
vt 0.622070014 0.584178984
vt 0.606445014 0.576452017
vt 0.622070014 0.584178984
vt 0.655812979 0.560059011
vt 0.677475989 0.591902971
vt 0.677475989 0.591902971
vt 0.616210997 0.614257991
vt 0.622070014 0.584178984
vt 0.616210997 0.614257991
vt 0.677475989 0.591902971
vt 0.681532979 0.613192976
vt 0.681532979 0.613192976
vt 0.680441976 0.630411983
vt 0.616210997 0.614257991
vt 0.539062977 0.589254975
vt 0.571289003 0.614257991
vt 0.512254000 0.615234017
vt 0.577148020 0.587302029
vt 0.571289003 0.614257991
vt 0.539062977 0.589254975
vt 0.571289003 0.614257991
vt 0.583007991 0.711914003
vt 0.537109017 0.710937977
vt 0.583007991 0.711914003
vt 0.551757991 0.772460997
vt 0.537109017 0.710937977
vt 0.551757991 0.772460997
vt 0.583007991 0.711914003
vt 0.594506025 0.771530986
vt 0.594506025 0.771530986
vt 0.567382991 0.843750000
vt 0.551757991 0.772460997
vt 0.567382991 0.843750000
vt 0.594506025 0.771530986
vt 0.605823994 0.832777023
vt 0.567382991 0.843750000
vt 0.614238977 0.877417028
vt 0.577046990 0.878556013
vt 0.614238977 0.877417028
vt 0.567382991 0.843750000
vt 0.605823994 0.832777023
vt 0.577046990 0.878556013
vt 0.624240994 0.921905994
vt 0.591796994 0.923828006
vt 0.624240994 0.921905994
vt 0.577046990 0.878556013
vt 0.614238977 0.877417028
vt 0.584580004 0.535561979
vt 0.606445014 0.576452017
vt 0.577148020 0.587302029
vt 0.606445014 0.576452017
vt 0.622070014 0.584178984
vt 0.577148020 0.587302029
vt 0.781250000 0.617187977
vt 0.781250000 0.609375000
vt 0.785156012 0.617187977
vt 0.500618994 0.591796994
vt 0.546494007 0.535561979
vt 0.539062977 0.589254975
vt 0.785156012 0.570591986
vt 0.744140983 0.590817988
vt 0.742870986 0.568826020
vt 0.744140983 0.590817988
vt 0.785156012 0.570591986
vt 0.785156012 0.589843988
vt 0.744140983 0.590817988
vt 0.785156012 0.609375000
vt 0.741210997 0.610741973
vt 0.785156012 0.609375000
vt 0.744140983 0.590817988
vt 0.785156012 0.589843988
vt 0.785156012 0.609375000
vt 0.781250000 0.605468988
vt 0.741210997 0.610741973
vt 0.781250000 0.605468988
vt 0.781250000 0.609375000
vt 0.738281012 0.629882991
vt 0.738281012 0.629882991
vt 0.781250000 0.609375000
vt 0.781250000 0.617187977
vt 0.571289003 0.614257991
vt 0.537109017 0.710937977
vt 0.512254000 0.615234017
vt 0.661132991 0.920898020
vt 0.631226003 0.953270972
vt 0.624240994 0.921905994
vt 0.631226003 0.953270972
vt 0.661132991 0.920898020
vt 0.663504004 0.952373981
vt 0.747070014 0.921875000
vt 0.712890983 0.952148020
vt 0.717773020 0.921875000
vt 0.712890983 0.952148020
vt 0.747070014 0.921875000
vt 0.742407978 0.952904999
vt 0.717773020 0.921875000
vt 0.685379028 0.952244997
vt 0.683311999 0.921037018
vt 0.685379028 0.952244997
vt 0.717773020 0.921875000
vt 0.712890983 0.952148020
vt 0.683311999 0.921037018
vt 0.663504004 0.952373981
vt 0.661132991 0.920898020
vt 0.663504004 0.952373981
vt 0.683311999 0.921037018
vt 0.685379028 0.952244997
vt 0.624240994 0.921905994
vt 0.604492009 0.955078006
vt 0.591796994 0.923828006
vt 0.604492009 0.955078006
vt 0.624240994 0.921905994
vt 0.631226003 0.953270972
vt 0.663504004 0.952373981
vt 0.637695014 0.980468988
vt 0.631226003 0.953270972
vt 0.637695014 0.980468988
vt 0.663504004 0.952373981
vt 0.666342020 0.980485976
vt 0.742407978 0.952904999
vt 0.708984017 0.980468988
vt 0.712890983 0.952148020
vt 0.708984017 0.980468988
vt 0.742407978 0.952904999
vt 0.738281012 0.980468988
vt 0.712890983 0.952148020
vt 0.687500000 0.980468988
vt 0.685379028 0.952244997
vt 0.687500000 0.980468988
vt 0.712890983 0.952148020
vt 0.708984017 0.980468988
vt 0.685379028 0.952244997
vt 0.666342020 0.980485976
vt 0.663504004 0.952373981
vt 0.666342020 0.980485976
vt 0.685379028 0.952244997
vt 0.687500000 0.980468988
vt 0.631226003 0.953270972
vt 0.615234017 0.981445014
vt 0.604492009 0.955078006
vt 0.615234017 0.981445014
vt 0.631226003 0.953270972
vt 0.637695014 0.980468988
vt 0.666342020 0.980485976
vt 0.639518976 0.992693007
vt 0.637695014 0.980468988
vt 0.738281012 0.980468988
vt 0.715812027 0.992156029
vt 0.708984017 0.980468988
vt 0.708984017 0.980468988
vt 0.685859978 0.991764009
vt 0.687500000 0.980468988
vt 0.685859978 0.991764009
vt 0.708984017 0.980468988
vt 0.715812027 0.992156029
vt 0.685859978 0.991764009
vt 0.666342020 0.980485976
vt 0.687500000 0.980468988
vt 0.666342020 0.980485976
vt 0.685859978 0.991764009
vt 0.639518976 0.992693007
vt 0.637695014 0.980468988
vt 0.639518976 0.992693007
vt 0.615234017 0.981445014
vt 0.503664017 0.565295994
vt 0.503464997 0.565297008
vt 0.506848991 0.565295994
vt 0.501191974 0.565295994
vt 0.503464997 0.565297008
vt 0.503664017 0.565295994
vt 0.499808013 0.565295994
vt 0.503464997 0.565297008
vt 0.501191974 0.565295994
vt 0.498140007 0.565298021
vt 0.503464997 0.565297008
vt 0.499808013 0.565298021
vt 0.506848991 0.565295994
vt 0.503464997 0.565297008
vt 0.508481979 0.565295994
vt 0.346322000 0.559849977
vt 0.261361003 0.535561979
vt 0.349251986 0.535561979
vt 0.261361003 0.535561979
vt 0.346322000 0.559849977
vt 0.259407997 0.568638980
vt 0.416635007 0.535561979
vt 0.346322000 0.559849977
vt 0.349251986 0.535561979
vt 0.346322000 0.559849977
vt 0.416635007 0.535561979
vt 0.395150006 0.576452017
vt 0.454721004 0.535561979
vt 0.424447000 0.586914003
vt 0.416635007 0.535561979
vt 0.424447000 0.586914003
vt 0.454721004 0.535561979
vt 0.462532997 0.588867009
vt 0.259407997 0.568638980
vt 0.210938007 0.535561979
vt 0.261361003 0.535561979
vt 0.210938007 0.535561979
vt 0.259407997 0.568638980
vt 0.210938007 0.570591986
vt 0.430307001 0.614257991
vt 0.381478995 0.710937977
vt 0.385385007 0.614257991
vt 0.381478995 0.710937977
vt 0.430307001 0.614257991
vt 0.418588012 0.711914003
vt 0.381478995 0.710937977
vt 0.406868994 0.771484017
vt 0.368782997 0.774414003
vt 0.406868994 0.771484017
vt 0.381478995 0.710937977
vt 0.418588012 0.711914003
vt 0.218750000 0.617187977
vt 0.272103995 0.701171994
vt 0.227182001 0.709960997
vt 0.272103995 0.701171994
vt 0.218750000 0.617187977
vt 0.263314009 0.629882991
vt 0.227182001 0.709960997
vt 0.278939009 0.771484017
vt 0.233041003 0.771484017
vt 0.278939009 0.771484017
vt 0.227182001 0.709960997
vt 0.272103995 0.701171994
vt 0.321907997 0.630859017
vt 0.272103995 0.701171994
vt 0.263314009 0.629882991
vt 0.272103995 0.701171994
vt 0.321907997 0.630859017
vt 0.324838012 0.704101980
vt 0.272103995 0.701171994
vt 0.324838012 0.770507991
vt 0.278939009 0.771484017
vt 0.324838012 0.770507991
vt 0.272103995 0.701171994
vt 0.324838012 0.704101980
vt 0.321907997 0.630859017
vt 0.381478995 0.710937977
vt 0.324838012 0.704101980
vt 0.381478995 0.710937977
vt 0.321907997 0.630859017
vt 0.385385007 0.614257991
vt 0.324838012 0.704101980
vt 0.368782997 0.774414003
vt 0.324838012 0.770507991
vt 0.368782997 0.774414003
vt 0.324838012 0.704101980
vt 0.381478995 0.710937977
vt 0.396126986 0.833007991
vt 0.346322000 0.876953006
vt 0.355111003 0.829101980
vt 0.346322000 0.876953006
vt 0.396126986 0.833007991
vt 0.387338012 0.876953006
vt 0.387338012 0.876953006
vt 0.340463012 0.920898020
vt 0.346322000 0.876953006
vt 0.340463012 0.920898020
vt 0.387338012 0.876953006
vt 0.377572000 0.921875000
vt 0.242807001 0.829101980
vt 0.278939009 0.876953006
vt 0.247690007 0.876953006
vt 0.278939009 0.876953006
vt 0.242807001 0.829101980
vt 0.276986003 0.825195014
vt 0.247690007 0.876953006
vt 0.283822000 0.921875000
vt 0.254525006 0.921875000
vt 0.283822000 0.921875000
vt 0.247690007 0.876953006
vt 0.278939009 0.876953006
vt 0.276986003 0.825195014
vt 0.321907997 0.875976980
vt 0.278939009 0.876953006
vt 0.321907997 0.875976980
vt 0.276986003 0.825195014
vt 0.325814009 0.820312977
vt 0.278939009 0.876953006
vt 0.318978995 0.920898020
vt 0.283822000 0.921875000
vt 0.318978995 0.920898020
vt 0.278939009 0.876953006
vt 0.321907997 0.875976980
vt 0.325814009 0.820312977
vt 0.346322000 0.876953006
vt 0.321907997 0.875976980
vt 0.346322000 0.876953006
vt 0.325814009 0.820312977
vt 0.355111003 0.829101980
vt 0.321907997 0.875976980
vt 0.340463012 0.920898020
vt 0.318978995 0.920898020
vt 0.340463012 0.920898020
vt 0.321907997 0.875976980
vt 0.346322000 0.876953006
vt 0.385385007 0.614257991
vt 0.424447000 0.586914003
vt 0.430307001 0.614257991
vt 0.424447000 0.586914003
vt 0.385385007 0.614257991
vt 0.379525006 0.583984017
vt 0.500618994 0.616203010
vt 0.462532997 0.588867009
vt 0.500618994 0.591796994
vt 0.462532997 0.588867009
vt 0.500618994 0.616203010
vt 0.489342004 0.615234017
vt 0.259407997 0.568638980
vt 0.324838012 0.591796994
vt 0.257454991 0.590820014
vt 0.324838012 0.591796994
vt 0.259407997 0.568638980
vt 0.346322000 0.559849977
vt 0.257454991 0.590820014
vt 0.319954991 0.613281012
vt 0.260385007 0.610351980
vt 0.319954991 0.613281012
vt 0.257454991 0.590820014
vt 0.324838012 0.591796994
vt 0.260385007 0.610351980
vt 0.321907997 0.630859017
vt 0.263314009 0.629882991
vt 0.321907997 0.630859017
vt 0.260385007 0.610351980
vt 0.319954991 0.613281012
vt 0.396126986 0.833007991
vt 0.368782997 0.774414003
vt 0.406868994 0.771484017
vt 0.368782997 0.774414003
vt 0.396126986 0.833007991
vt 0.355111003 0.829101980
vt 0.355111003 0.829101980
vt 0.324838012 0.770507991
vt 0.368782997 0.774414003
vt 0.324838012 0.770507991
vt 0.355111003 0.829101980
vt 0.325814009 0.820312977
vt 0.324838012 0.770507991
vt 0.276986003 0.825195014
vt 0.278939009 0.771484017
vt 0.276986003 0.825195014
vt 0.324838012 0.770507991
vt 0.325814009 0.820312977
vt 0.278939009 0.771484017
vt 0.242807001 0.829101980
vt 0.233041003 0.771484017
vt 0.242807001 0.829101980
vt 0.278939009 0.771484017
vt 0.276986003 0.825195014
vt 0.346322000 0.559849977
vt 0.379525006 0.583984017
vt 0.324838012 0.591796994
vt 0.379525006 0.583984017
vt 0.346322000 0.559849977
vt 0.395150006 0.576452017
vt 0.324838012 0.591796994
vt 0.385385007 0.614257991
vt 0.319954991 0.613281012
vt 0.385385007 0.614257991
vt 0.324838012 0.591796994
vt 0.379525006 0.583984017
vt 0.319954991 0.613281012
vt 0.385385007 0.614257991
vt 0.321907997 0.630859017
vt 0.462532997 0.588867009
vt 0.489342004 0.615234017
vt 0.430307001 0.614257991
vt 0.424447000 0.586914003
vt 0.462532997 0.588867009
vt 0.430307001 0.614257991
vt 0.430307001 0.614257991
vt 0.464486003 0.710937977
vt 0.418588012 0.711914003
vt 0.418588012 0.711914003
vt 0.449838012 0.772460997
vt 0.406868994 0.771484017
vt 0.449838012 0.772460997
vt 0.418588012 0.711914003
vt 0.464486003 0.710937977
vt 0.406868994 0.771484017
vt 0.434213012 0.843750000
vt 0.396126986 0.833007991
vt 0.434213012 0.843750000
vt 0.406868994 0.771484017
vt 0.449838012 0.772460997
vt 0.434213012 0.843750000
vt 0.387338012 0.876953006
vt 0.396126986 0.833007991
vt 0.387338012 0.876953006
vt 0.434213012 0.843750000
vt 0.424447000 0.878906012
vt 0.424447000 0.878906012
vt 0.377572000 0.921875000
vt 0.387338012 0.876953006
vt 0.377572000 0.921875000
vt 0.424447000 0.878906012
vt 0.409799010 0.923828006
vt 0.416635007 0.535561979
vt 0.424447000 0.586914003
vt 0.395150006 0.576452017
vt 0.395150006 0.576452017
vt 0.424447000 0.586914003
vt 0.379525006 0.583984017
vt 0.218750000 0.617187977
vt 0.214844003 0.617187977
vt 0.217416003 0.610351980
vt 0.500618994 0.591796994
vt 0.462532997 0.588867009
vt 0.454721004 0.535561979
vt 0.210938007 0.570591986
vt 0.257454991 0.590820014
vt 0.210938007 0.589843988
vt 0.257454991 0.590820014
vt 0.210938007 0.570591986
vt 0.259407997 0.568638980
vt 0.257454991 0.590820014
vt 0.210938007 0.609375000
vt 0.210938007 0.589843988
vt 0.210938007 0.609375000
vt 0.257454991 0.590820014
vt 0.260385007 0.610351980
vt 0.210938007 0.609375000
vt 0.260385007 0.610351980
vt 0.216440007 0.603515983
vt 0.216440007 0.603515983
vt 0.263314009 0.629882991
vt 0.217416003 0.610351980
vt 0.263314009 0.629882991
vt 0.218750000 0.617187977
vt 0.217416003 0.610351980
vt 0.430307001 0.614257991
vt 0.489342004 0.615234017
vt 0.464486003 0.710937977
vt 0.340463012 0.920898020
vt 0.370736003 0.953125000
vt 0.338510007 0.952148020
vt 0.370736003 0.953125000
vt 0.340463012 0.920898020
vt 0.377572000 0.921875000
vt 0.254525006 0.921875000
vt 0.288704991 0.952148020
vt 0.259407997 0.953125000
vt 0.288704991 0.952148020
vt 0.254525006 0.921875000
vt 0.283822000 0.921875000
vt 0.283822000 0.921875000
vt 0.317025006 0.952148020
vt 0.288704991 0.952148020
vt 0.317025006 0.952148020
vt 0.283822000 0.921875000
vt 0.318978995 0.920898020
vt 0.318978995 0.920898020
vt 0.338510007 0.952148020
vt 0.317025006 0.952148020
vt 0.338510007 0.952148020
vt 0.318978995 0.920898020
vt 0.340463012 0.920898020
vt 0.377572000 0.921875000
vt 0.397103995 0.955078006
vt 0.370736003 0.953125000
vt 0.397103995 0.955078006
vt 0.377572000 0.921875000
vt 0.409799010 0.923828006
vt 0.338510007 0.952148020
vt 0.363900006 0.980468988
vt 0.335579991 0.980468988
vt 0.363900006 0.980468988
vt 0.338510007 0.952148020
vt 0.370736003 0.953125000
vt 0.259407997 0.953125000
vt 0.292611003 0.980468988
vt 0.263314009 0.980468988
vt 0.292611003 0.980468988
vt 0.259407997 0.953125000
vt 0.288704991 0.952148020
vt 0.288704991 0.952148020
vt 0.314096004 0.980468988
vt 0.292611003 0.980468988
vt 0.314096004 0.980468988
vt 0.288704991 0.952148020
vt 0.317025006 0.952148020
vt 0.317025006 0.952148020
vt 0.335579991 0.980468988
vt 0.314096004 0.980468988
vt 0.335579991 0.980468988
vt 0.317025006 0.952148020
vt 0.338510007 0.952148020
vt 0.370736003 0.953125000
vt 0.386361003 0.981445014
vt 0.363900006 0.980468988
vt 0.386361003 0.981445014
vt 0.370736003 0.953125000
vt 0.397103995 0.955078006
vt 0.335579991 0.980468988
vt 0.363900006 0.980468988
vt 0.361947000 0.993164003
vt 0.263314009 0.980468988
vt 0.292611003 0.980468988
vt 0.285775006 0.992187977
vt 0.292611003 0.980468988
vt 0.316049010 0.992187977
vt 0.285775006 0.992187977
vt 0.316049010 0.992187977
vt 0.292611003 0.980468988
vt 0.314096004 0.980468988
vt 0.335579991 0.980468988
vt 0.316049010 0.992187977
vt 0.314096004 0.980468988
vt 0.316049010 0.992187977
vt 0.335579991 0.980468988
vt 0.361947000 0.993164003
vt 0.363900006 0.980468988
vt 0.386361003 0.981445014
vt 0.361947000 0.993164003
vt 0.492639005 0.565295994
vt 0.489445001 0.565295994
vt 0.492852002 0.565297008
vt 0.495088011 0.565295994
vt 0.492639005 0.565295994
vt 0.492852002 0.565297008
vt 0.496472001 0.565295994
vt 0.495088011 0.565295994
vt 0.492852002 0.565297008
vt 0.498140007 0.565298021
vt 0.496472001 0.565298021
vt 0.492852002 0.565297008
vt 0.489445001 0.565295994
vt 0.487612009 0.565295994
vt 0.492852002 0.565297008
vt 0.546494007 0.535561979
vt 0.500618994 0.591796994
vt 0.500618994 0.535561979
vt 0.500618994 0.591796994
vt 0.454721004 0.535561979
vt 0.500618994 0.535561979
vt 0.741210997 0.610741973
vt 0.781250000 0.605468988
vt 0.738281012 0.629882991
vt 0.216440007 0.603515983
vt 0.260385007 0.610351980
vt 0.263314009 0.629882991
vn 0.824222193 0.535393545 0.184422149
vn -0.008286257 0.560361855 0.828206453
vn 0.046468521 0.968609839 0.244204130
vn -0.008286257 0.560361855 0.828206453
vn 0.824222193 0.535393545 0.184422149
vn 0.141712933 0.220052310 0.965139589
vn 0.534082971 -0.113232105 0.837814938
vn 0.824222193 0.535393545 0.184422149
vn 0.968051120 0.226930426 -0.106675257
vn 0.824222193 0.535393545 0.184422149
vn 0.534082971 -0.113232105 0.837814938
vn 0.141712933 0.220052310 0.965139589
vn 0.424811582 -0.712912297 0.557934742
vn 0.932758341 -0.203114688 0.297836030
vn 0.445609403 -0.852725308 0.272565239
vn 0.932758341 -0.203114688 0.297836030
vn 0.424811582 -0.712912297 0.557934742
vn 0.534082971 -0.113232105 0.837814938
vn 0.046468521 0.968609839 0.244204130
vn -0.168881811 0.730700318 0.661480143
vn -0.203778326 0.943500261 0.261307579
vn -0.168881811 0.730700318 0.661480143
vn 0.046468521 0.968609839 0.244204130
vn -0.008286257 0.560361855 0.828206453
vn 0.775719907 -0.060582370 0.628162719
vn 0.463982516 0.875818127 0.132901588
vn 0.866730303 -0.111940634 0.486053367
vn 0.463982516 0.875818127 0.132901588
vn 0.775719907 -0.060582370 0.628162719
vn 0.641823883 0.739638869 0.202475792
vn 0.463982516 0.875818127 0.132901588
vn 0.993828631 0.077071841 0.079778339
vn 0.866730303 -0.111940634 0.486053367
vn 0.993828631 0.077071841 0.079778339
vn 0.463982516 0.875818127 0.132901588
vn 0.389278851 0.903499050 -0.179308235
vn -0.234123431 -0.971787370 0.028557428
vn -0.708253301 -0.478696182 -0.518871107
vn -0.696534198 -0.281966169 -0.659799356
vn -0.708253301 -0.478696182 -0.518871107
vn -0.234123431 -0.971787370 0.028557428
vn 0.316725592 -0.925757056 0.206540001
vn 0.316725592 -0.925757056 0.206540001
vn -0.300477680 -0.925789368 -0.229406213
vn -0.708253301 -0.478696182 -0.518871107
vn -0.300477680 -0.925789368 -0.229406213
vn 0.316725592 -0.925757056 0.206540001
vn 0.429347034 -0.893609963 0.130852431
vn -0.708253301 -0.478696182 -0.518871107
vn -0.210282931 0.792157048 -0.572947031
vn -0.696534198 -0.281966169 -0.659799356
vn -0.210282931 0.792157048 -0.572947031
vn -0.708253301 -0.478696182 -0.518871107
vn -0.429261520 0.711682505 -0.556095819
vn -0.708253301 -0.478696182 -0.518871107
vn -0.682270005 0.497713394 -0.535526860
vn -0.429261520 0.711682505 -0.556095819
vn -0.682270005 0.497713394 -0.535526860
vn -0.708253301 -0.478696182 -0.518871107
vn -0.300477680 -0.925789368 -0.229406213
vn -0.210282931 0.792157048 -0.572947031
vn 0.463982516 0.875818127 0.132901588
vn 0.641823883 0.739638869 0.202475792
vn 0.463982516 0.875818127 0.132901588
vn -0.210282931 0.792157048 -0.572947031
vn -0.429261520 0.711682505 -0.556095819
vn -0.429261520 0.711682505 -0.556095819
vn 0.389278851 0.903499050 -0.179308235
vn 0.463982516 0.875818127 0.132901588
vn 0.389278851 0.903499050 -0.179308235
vn -0.429261520 0.711682505 -0.556095819
vn -0.682270005 0.497713394 -0.535526860
vn 0.800250697 0.288772922 -0.525555916
vn 0.328514185 0.907364028 -0.262238346
vn 0.848532043 -0.063012033 -0.525378773
vn 0.328514185 0.907364028 -0.262238346
vn 0.800250697 0.288772922 -0.525555916
vn 0.300147527 0.922903634 -0.241164558
vn 0.848532043 -0.063012033 -0.525378773
vn 0.298453780 0.934068935 -0.196062657
vn 0.726764338 -0.604794113 -0.325634271
vn 0.298453780 0.934068935 -0.196062657
vn 0.848532043 -0.063012033 -0.525378773
vn 0.328514185 0.907364028 -0.262238346
vn 0.256498574 -0.957908432 -0.128918255
vn -0.719692440 -0.618708341 0.315028222
vn -0.753012301 -0.342413964 0.561894254
vn -0.719692440 -0.618708341 0.315028222
vn 0.256498574 -0.957908432 -0.128918255
vn 0.199540540 -0.970097354 -0.138183565
vn 0.199540540 -0.970097354 -0.138183565
vn -0.712016472 -0.554287959 0.431042228
vn -0.719692440 -0.618708341 0.315028222
vn -0.712016472 -0.554287959 0.431042228
vn 0.199540540 -0.970097354 -0.138183565
vn 0.151460984 -0.984155695 0.092179921
vn -0.753012301 -0.342413964 0.561894254
vn -0.733300755 0.615542741 0.288750996
vn -0.449791324 0.849993564 0.274223824
vn -0.733300755 0.615542741 0.288750996
vn -0.753012301 -0.342413964 0.561894254
vn -0.719692440 -0.618708341 0.315028222
vn -0.719692440 -0.618708341 0.315028222
vn -0.715881425 0.592121708 0.370007660
vn -0.733300755 0.615542741 0.288750996
vn -0.715881425 0.592121708 0.370007660
vn -0.719692440 -0.618708341 0.315028222
vn -0.712016472 -0.554287959 0.431042228
vn -0.449791324 0.849993564 0.274223824
vn 0.328514185 0.907364028 -0.262238346
vn 0.300147527 0.922903634 -0.241164558
vn 0.328514185 0.907364028 -0.262238346
vn -0.449791324 0.849993564 0.274223824
vn -0.733300755 0.615542741 0.288750996
vn -0.733300755 0.615542741 0.288750996
vn 0.298453780 0.934068935 -0.196062657
vn 0.328514185 0.907364028 -0.262238346
vn 0.298453780 0.934068935 -0.196062657
vn -0.733300755 0.615542741 0.288750996
vn -0.715881425 0.592121708 0.370007660
vn 0.641823883 0.739638869 0.202475792
vn 0.932758341 -0.203114688 0.297836030
vn 0.990269644 0.122940256 0.065205255
vn 0.932758341 -0.203114688 0.297836030
vn 0.641823883 0.739638869 0.202475792
vn 0.775719907 -0.060582370 0.628162719
vn 0.445609403 -0.852725308 0.272565239
vn 0.098750600 -0.927608594 -0.360264646
vn 0.199882312 -0.976565135 0.079797234
vn 0.098750600 -0.927608594 -0.360264646
vn 0.445609403 -0.852725308 0.272565239
vn -0.234123431 -0.971787370 0.028557428
vn 0.046468521 0.968609839 0.244204130
vn 0.705331164 0.708832499 0.008027213
vn 0.824222193 0.535393545 0.184422149
vn 0.705331164 0.708832499 0.008027213
vn 0.046468521 0.968609839 0.244204130
vn 0.078350433 0.995901790 -0.045175589
vn 0.078350433 0.995901790 -0.045175589
vn 0.513110718 0.721189083 -0.465407024
vn 0.705331164 0.708832499 0.008027213
vn 0.513110718 0.721189083 -0.465407024
vn 0.078350433 0.995901790 -0.045175589
vn 0.145695770 0.765594304 -0.626608414
vn 0.145695770 0.765594304 -0.626608414
vn -0.210282931 0.792157048 -0.572947031
vn 0.513110718 0.721189083 -0.465407024
vn -0.210282931 0.792157048 -0.572947031
vn 0.145695770 0.765594304 -0.626608414
vn -0.696534198 -0.281966169 -0.659799356
vn 0.800250697 0.288772922 -0.525555916
vn 0.389278851 0.903499050 -0.179308235
vn 0.300147527 0.922903634 -0.241164558
vn 0.389278851 0.903499050 -0.179308235
vn 0.800250697 0.288772922 -0.525555916
vn 0.993828631 0.077071841 0.079778339
vn 0.300147527 0.922903634 -0.241164558
vn -0.682270005 0.497713394 -0.535526860
vn -0.449791324 0.849993564 0.274223824
vn -0.682270005 0.497713394 -0.535526860
vn 0.300147527 0.922903634 -0.241164558
vn 0.389278851 0.903499050 -0.179308235
vn -0.682270005 0.497713394 -0.535526860
vn -0.753012301 -0.342413964 0.561894254
vn -0.449791324 0.849993564 0.274223824
vn -0.753012301 -0.342413964 0.561894254
vn -0.682270005 0.497713394 -0.535526860
vn -0.300477680 -0.925789368 -0.229406213
vn -0.300477680 -0.925789368 -0.229406213
vn 0.256498574 -0.957908432 -0.128918255
vn -0.753012301 -0.342413964 0.561894254
vn 0.256498574 -0.957908432 -0.128918255
vn -0.300477680 -0.925789368 -0.229406213
vn 0.429347034 -0.893609963 0.130852431
vn 0.824222193 0.535393545 0.184422149
vn 0.990269644 0.122940256 0.065205255
vn 0.968051120 0.226930426 -0.106675257
vn 0.990269644 0.122940256 0.065205255
vn 0.824222193 0.535393545 0.184422149
vn 0.705331164 0.708832499 0.008027213
vn 0.705331164 0.708832499 0.008027213
vn 0.641823883 0.739638869 0.202475792
vn 0.990269644 0.122940256 0.065205255
vn 0.641823883 0.739638869 0.202475792
vn 0.705331164 0.708832499 0.008027213
vn 0.513110718 0.721189083 -0.465407024
vn 0.513110718 0.721189083 -0.465407024
vn -0.210282931 0.792157048 -0.572947031
vn 0.641823883 0.739638869 0.202475792
vn 0.445609403 -0.852725308 0.272565239
vn 0.775719907 -0.060582370 0.628162719
vn -0.234123431 -0.971787370 0.028557428
vn 0.932758341 -0.203114688 0.297836030
vn 0.775719907 -0.060582370 0.628162719
vn 0.445609403 -0.852725308 0.272565239
vn 0.775719907 -0.060582370 0.628162719
vn 0.866730303 -0.111940634 0.486053367
vn 0.316725592 -0.925757056 0.206540001
vn 0.866730303 -0.111940634 0.486053367
vn 0.429347034 -0.893609963 0.130852431
vn 0.316725592 -0.925757056 0.206540001
vn 0.429347034 -0.893609963 0.130852431
vn 0.866730303 -0.111940634 0.486053367
vn 0.993828631 0.077071841 0.079778339
vn 0.993828631 0.077071841 0.079778339
vn 0.256498574 -0.957908432 -0.128918255
vn 0.429347034 -0.893609963 0.130852431
vn 0.256498574 -0.957908432 -0.128918255
vn 0.993828631 0.077071841 0.079778339
vn 0.800250697 0.288772922 -0.525555916
vn 0.256498574 -0.957908432 -0.128918255
vn 0.848532043 -0.063012033 -0.525378773
vn 0.199540540 -0.970097354 -0.138183565
vn 0.848532043 -0.063012033 -0.525378773
vn 0.256498574 -0.957908432 -0.128918255
vn 0.800250697 0.288772922 -0.525555916
vn 0.199540540 -0.970097354 -0.138183565
vn 0.726764338 -0.604794113 -0.325634271
vn 0.151460984 -0.984155695 0.092179921
vn 0.726764338 -0.604794113 -0.325634271
vn 0.199540540 -0.970097354 -0.138183565
vn 0.848532043 -0.063012033 -0.525378773
vn 0.534082971 -0.113232105 0.837814938
vn 0.968051120 0.226930426 -0.106675257
vn 0.932758341 -0.203114688 0.297836030
vn 0.968051120 0.226930426 -0.106675257
vn 0.990269644 0.122940256 0.065205255
vn 0.932758341 -0.203114688 0.297836030
vn -0.234123431 -0.971787370 0.028557428
vn 0.093518315 -0.295842372 -0.950647998
vn 0.098750600 -0.927608594 -0.360264646
vn 0.199882312 -0.976565135 0.079797234
vn 0.424811582 -0.712912297 0.557934742
vn 0.445609403 -0.852725308 0.272565239
vn -0.203778326 0.943500261 0.261307579
vn 0.078350433 0.995901790 -0.045175589
vn 0.046468521 0.968609839 0.244204130
vn 0.078350433 0.995901790 -0.045175589
vn -0.203778326 0.943500261 0.261307579
vn -0.203620436 0.977208664 0.060016213
vn 0.078350433 0.995901790 -0.045175589
vn -0.188444433 0.953896758 -0.233601520
vn 0.145695770 0.765594304 -0.626608414
vn -0.188444433 0.953896758 -0.233601520
vn 0.078350433 0.995901790 -0.045175589
vn -0.203620436 0.977208664 0.060016213
vn -0.188444433 0.953896758 -0.233601520
vn -0.064869033 0.579512303 -0.812377682
vn 0.145695770 0.765594304 -0.626608414
vn -0.064869033 0.579512303 -0.812377682
vn 0.093518315 -0.295842372 -0.950647998
vn -0.696534198 -0.281966169 -0.659799356
vn -0.696534198 -0.281966169 -0.659799356
vn 0.093518315 -0.295842372 -0.950647998
vn -0.234123431 -0.971787370 0.028557428
vn 0.775719907 -0.060582370 0.628162719
vn 0.316725592 -0.925757056 0.206540001
vn -0.234123431 -0.971787370 0.028557428
vn 0.298453780 0.934068935 -0.196062657
vn 0.982504869 0.028713583 -0.184010090
vn 0.726764338 -0.604794113 -0.325634271
vn 0.982504869 0.028713583 -0.184010090
vn 0.298453780 0.934068935 -0.196062657
vn 0.243441152 0.965035436 0.097175166
vn 0.151460984 -0.984155695 0.092179921
vn -0.744078599 -0.579798129 0.331935487
vn -0.712016472 -0.554287959 0.431042228
vn -0.744078599 -0.579798129 0.331935487
vn 0.151460984 -0.984155695 0.092179921
vn 0.195872870 -0.980628546 -0.001213706
vn -0.712016472 -0.554287959 0.431042228
vn -0.709311466 0.572113474 0.411780788
vn -0.715881425 0.592121708 0.370007660
vn -0.709311466 0.572113474 0.411780788
vn -0.712016472 -0.554287959 0.431042228
vn -0.744078599 -0.579798129 0.331935487
vn -0.715881425 0.592121708 0.370007660
vn 0.243441152 0.965035436 0.097175166
vn 0.298453780 0.934068935 -0.196062657
vn 0.243441152 0.965035436 0.097175166
vn -0.715881425 0.592121708 0.370007660
vn -0.709311466 0.572113474 0.411780788
vn 0.726764338 -0.604794113 -0.325634271
vn 0.195872870 -0.980628546 -0.001213706
vn 0.151460984 -0.984155695 0.092179921
vn 0.195872870 -0.980628546 -0.001213706
vn 0.726764338 -0.604794113 -0.325634271
vn 0.982504869 0.028713583 -0.184010090
vn 0.243441152 0.965035436 0.097175166
vn 0.750398309 0.190889754 -0.632821839
vn 0.982504869 0.028713583 -0.184010090
vn 0.750398309 0.190889754 -0.632821839
vn 0.243441152 0.965035436 0.097175166
vn 0.223180210 0.825922467 -0.517728377
vn 0.195872870 -0.980628546 -0.001213706
vn -0.326385741 -0.449902506 -0.831300236
vn -0.744078599 -0.579798129 0.331935487
vn -0.326385741 -0.449902506 -0.831300236
vn 0.195872870 -0.980628546 -0.001213706
vn 0.444885143 -0.497153548 -0.744926546
vn -0.744078599 -0.579798129 0.331935487
vn -0.745107604 0.472382066 -0.470818269
vn -0.709311466 0.572113474 0.411780788
vn -0.745107604 0.472382066 -0.470818269
vn -0.744078599 -0.579798129 0.331935487
vn -0.326385741 -0.449902506 -0.831300236
vn -0.709311466 0.572113474 0.411780788
vn 0.223180210 0.825922467 -0.517728377
vn 0.243441152 0.965035436 0.097175166
vn 0.223180210 0.825922467 -0.517728377
vn -0.709311466 0.572113474 0.411780788
vn -0.745107604 0.472382066 -0.470818269
vn 0.982504869 0.028713583 -0.184010090
vn 0.444885143 -0.497153548 -0.744926546
vn 0.195872870 -0.980628546 -0.001213706
vn 0.444885143 -0.497153548 -0.744926546
vn 0.982504869 0.028713583 -0.184010090
vn 0.750398309 0.190889754 -0.632821839
vn 0.223180210 0.825922467 -0.517728377
vn 0.173640579 0.028483749 -0.984397087
vn 0.750398309 0.190889754 -0.632821839
vn 0.444885143 -0.497153548 -0.744926546
vn 0.173640579 0.028483749 -0.984397087
vn -0.326385741 -0.449902506 -0.831300236
vn -0.326385741 -0.449902506 -0.831300236
vn -0.064482478 0.155896094 -0.985666484
vn -0.745107604 0.472382066 -0.470818269
vn -0.064482478 0.155896094 -0.985666484
vn -0.326385741 -0.449902506 -0.831300236
vn 0.173640579 0.028483749 -0.984397087
vn -0.064482478 0.155896094 -0.985666484
vn 0.223180210 0.825922467 -0.517728377
vn -0.745107604 0.472382066 -0.470818269
vn 0.223180210 0.825922467 -0.517728377
vn -0.064482478 0.155896094 -0.985666484
vn 0.173640579 0.028483749 -0.984397087
vn 0.750398309 0.190889754 -0.632821839
vn 0.173640579 0.028483749 -0.984397087
vn 0.444885143 -0.497153548 -0.744926546
vn 0.141712933 0.220052310 0.965139589
vn -0.029694191 0.020225523 0.999354383
vn -0.008286257 0.560361855 0.828206453
vn 0.534082971 -0.113232105 0.837814938
vn -0.029694191 0.020225523 0.999354383
vn 0.141712933 0.220052310 0.965139589
vn 0.424811582 -0.712912297 0.557934742
vn -0.029694191 0.020225523 0.999354383
vn 0.534082971 -0.113232105 0.837814938
vn 0.123276782 -0.677799028 0.724838818
vn -0.029694191 0.020225523 0.999354383
vn 0.424811582 -0.712912297 0.557934742
vn -0.008286257 0.560361855 0.828206453
vn -0.029694191 0.020225523 0.999354383
vn -0.168881811 0.730700318 0.661480143
vn -0.923462594 0.247359120 0.293309227
vn -0.262141793 0.513694679 0.816945198
vn -0.274460284 0.137435344 0.951726367
vn -0.262141793 0.513694679 0.816945198
vn -0.923462594 0.247359120 0.293309227
vn -0.440508791 0.867794297 0.229967528
vn -0.498786250 -0.319883989 0.805534922
vn -0.923462594 0.247359120 0.293309227
vn -0.274460284 0.137435344 0.951726367
vn -0.923462594 0.247359120 0.293309227
vn -0.498786250 -0.319883989 0.805534922
vn -0.919739841 -0.313076202 0.236773979
vn -0.070014616 -0.815950933 0.573865863
vn -0.504330334 -0.848149396 0.162152756
vn -0.498786250 -0.319883989 0.805534922
vn -0.504330334 -0.848149396 0.162152756
vn -0.070014616 -0.815950933 0.573865863
vn 0.009787414 -0.999324482 0.035422953
vn -0.440508791 0.867794297 0.229967528
vn -0.168881811 0.730700318 0.661480143
vn -0.262141793 0.513694679 0.816945198
vn -0.168881811 0.730700318 0.661480143
vn -0.440508791 0.867794297 0.229967528
vn -0.203778326 0.943500261 0.261307579
vn -0.091085106 -0.994560030 0.050535639
vn -0.878268934 -0.477292186 0.028911036
vn -0.906861872 -0.414333320 0.077002893
vn -0.878268934 -0.477292186 0.028911036
vn -0.091085106 -0.994560030 0.050535639
vn 0.264496997 -0.963629419 -0.038205769
vn -0.878268934 -0.477292186 0.028911036
vn -0.007127848 -0.992090452 -0.125322499
vn -0.941484610 -0.331633507 -0.060215827
vn -0.007127848 -0.992090452 -0.125322499
vn -0.878268934 -0.477292186 0.028911036
vn 0.264496997 -0.963629419 -0.038205769
vn 0.907002764 -0.349706253 -0.234630608
vn 0.465380281 0.853170500 -0.235629564
vn 0.911406869 -0.357604722 -0.203608405
vn 0.465380281 0.853170500 -0.235629564
vn 0.907002764 -0.349706253 -0.234630608
vn 0.447600747 0.766731486 -0.460191699
vn 0.911406869 -0.357604722 -0.203608405
vn 0.830071010 0.527774394 -0.180100826
vn 0.918792375 -0.360685135 -0.160395779
vn 0.830071010 0.527774394 -0.180100826
vn 0.911406869 -0.357604722 -0.203608405
vn 0.465380281 0.853170500 -0.235629564
vn -0.742552914 0.655319094 -0.138463190
vn 0.465380281 0.853170500 -0.235629564
vn 0.447600747 0.766731486 -0.460191699
vn 0.465380281 0.853170500 -0.235629564
vn -0.742552914 0.655319094 -0.138463190
vn -0.829808727 0.553221102 -0.073238582
vn 0.465380281 0.853170500 -0.235629564
vn -0.559986227 0.828088547 -0.026168378
vn 0.830071010 0.527774394 -0.180100826
vn -0.559986227 0.828088547 -0.026168378
vn 0.465380281 0.853170500 -0.235629564
vn -0.829808727 0.553221102 -0.073238582
vn -0.742552914 0.655319094 -0.138463190
vn -0.878268934 -0.477292186 0.028911036
vn -0.829808727 0.553221102 -0.073238582
vn -0.878268934 -0.477292186 0.028911036
vn -0.742552914 0.655319094 -0.138463190
vn -0.906861872 -0.414333320 0.077002893
vn -0.829808727 0.553221102 -0.073238582
vn -0.941484610 -0.331633507 -0.060215827
vn -0.559986227 0.828088547 -0.026168378
vn -0.941484610 -0.331633507 -0.060215827
vn -0.829808727 0.553221102 -0.073238582
vn -0.878268934 -0.477292186 0.028911036
vn -0.418332842 -0.895089398 -0.154313328
vn -0.916346982 -0.398995959 -0.033323157
vn -0.937972712 -0.346663659 -0.005612400
vn -0.916346982 -0.398995959 -0.033323157
vn -0.418332842 -0.895089398 -0.154313328
vn 0.050060856 -0.989033186 -0.138950592
vn 0.050060856 -0.989033186 -0.138950592
vn -0.924127180 -0.373060042 0.082553988
vn -0.916346982 -0.398995959 -0.033323157
vn -0.924127180 -0.373060042 0.082553988
vn 0.050060856 -0.989033186 -0.138950592
vn 0.409169714 -0.909780341 0.069856114
vn 0.965717363 -0.238630005 -0.102204188
vn 0.627127483 0.777624301 -0.044850504
vn 0.963692895 -0.242087643 -0.112648026
vn 0.627127483 0.777624301 -0.044850504
vn 0.965717363 -0.238630005 -0.102204188
vn 0.330849705 0.941576911 0.063018987
vn 0.963692895 -0.242087643 -0.112648026
vn 0.716613012 0.693792554 0.071537981
vn 0.978364574 -0.196709907 0.064093472
vn 0.716613012 0.693792554 0.071537981
vn 0.963692895 -0.242087643 -0.112648026
vn 0.627127483 0.777624301 -0.044850504
vn 0.330849705 0.941576911 0.063018987
vn -0.622673198 0.782041335 0.026257161
vn 0.627127483 0.777624301 -0.044850504
vn -0.622673198 0.782041335 0.026257161
vn 0.330849705 0.941576911 0.063018987
vn -0.821153904 0.567083841 0.064204225
vn 0.627127483 0.777624301 -0.044850504
vn -0.628176493 0.769638001 0.114243779
vn 0.716613012 0.693792554 0.071537981
vn -0.628176493 0.769638001 0.114243779
vn 0.627127483 0.777624301 -0.044850504
vn -0.622673198 0.782041335 0.026257161
vn -0.821153904 0.567083841 0.064204225
vn -0.916346982 -0.398995959 -0.033323157
vn -0.622673198 0.782041335 0.026257161
vn -0.916346982 -0.398995959 -0.033323157
vn -0.821153904 0.567083841 0.064204225
vn -0.937972712 -0.346663659 -0.005612400
vn -0.622673198 0.782041335 0.026257161
vn -0.924127180 -0.373060042 0.082553988
vn -0.628176493 0.769638001 0.114243779
vn -0.924127180 -0.373060042 0.082553988
vn -0.622673198 0.782041335 0.026257161
vn -0.916346982 -0.398995959 -0.033323157
vn -0.906861872 -0.414333320 0.077002893
vn -0.504330334 -0.848149396 0.162152756
vn -0.091085106 -0.994560030 0.050535639
vn -0.504330334 -0.848149396 0.162152756
vn -0.906861872 -0.414333320 0.077002893
vn -0.957673489 -0.215244310 0.191131825
vn 0.098750600 -0.927608594 -0.360264646
vn 0.009787414 -0.999324482 0.035422953
vn 0.199882312 -0.976565135 0.079797234
vn 0.009787414 -0.999324482 0.035422953
vn 0.098750600 -0.927608594 -0.360264646
vn 0.907002764 -0.349706253 -0.234630608
vn -0.440508791 0.867794297 0.229967528
vn -0.909417666 0.373433704 0.183048567
vn -0.392797729 0.918908860 0.036282925
vn -0.909417666 0.373433704 0.183048567
vn -0.440508791 0.867794297 0.229967528
vn -0.923462594 0.247359120 0.293309227
vn -0.392797729 0.918908860 0.036282925
vn -0.827297007 0.559109215 -0.054557746
vn -0.346827800 0.831685301 -0.433601243
vn -0.827297007 0.559109215 -0.054557746
vn -0.392797729 0.918908860 0.036282925
vn -0.909417666 0.373433704 0.183048567
vn -0.346827800 0.831685301 -0.433601243
vn -0.742552914 0.655319094 -0.138463190
vn 0.447600747 0.766731486 -0.460191699
vn -0.742552914 0.655319094 -0.138463190
vn -0.346827800 0.831685301 -0.433601243
vn -0.827297007 0.559109215 -0.054557746
vn -0.418332842 -0.895089398 -0.154313328
vn -0.941484610 -0.331633507 -0.060215827
vn -0.007127848 -0.992090452 -0.125322499
vn -0.941484610 -0.331633507 -0.060215827
vn -0.418332842 -0.895089398 -0.154313328
vn -0.937972712 -0.346663659 -0.005612400
vn -0.937972712 -0.346663659 -0.005612400
vn -0.559986227 0.828088547 -0.026168378
vn -0.941484610 -0.331633507 -0.060215827
vn -0.559986227 0.828088547 -0.026168378
vn -0.937972712 -0.346663659 -0.005612400
vn -0.821153904 0.567083841 0.064204225
vn -0.559986227 0.828088547 -0.026168378
vn 0.330849705 0.941576911 0.063018987
vn 0.830071010 0.527774394 -0.180100826
vn 0.330849705 0.941576911 0.063018987
vn -0.559986227 0.828088547 -0.026168378
vn -0.821153904 0.567083841 0.064204225
vn 0.830071010 0.527774394 -0.180100826
vn 0.965717363 -0.238630005 -0.102204188
vn 0.918792375 -0.360685135 -0.160395779
vn 0.965717363 -0.238630005 -0.102204188
vn 0.830071010 0.527774394 -0.180100826
vn 0.330849705 0.941576911 0.063018987
vn -0.923462594 0.247359120 0.293309227
vn -0.957673489 -0.215244310 0.191131825
vn -0.909417666 0.373433704 0.183048567
vn -0.957673489 -0.215244310 0.191131825
vn -0.923462594 0.247359120 0.293309227
vn -0.919739841 -0.313076202 0.236773979
vn -0.909417666 0.373433704 0.183048567
vn -0.906861872 -0.414333320 0.077002893
vn -0.827297007 0.559109215 -0.054557746
vn -0.906861872 -0.414333320 0.077002893
vn -0.909417666 0.373433704 0.183048567
vn -0.957673489 -0.215244310 0.191131825
vn -0.827297007 0.559109215 -0.054557746
vn -0.906861872 -0.414333320 0.077002893
vn -0.742552914 0.655319094 -0.138463190
vn 0.009787414 -0.999324482 0.035422953
vn 0.907002764 -0.349706253 -0.234630608
vn -0.091085106 -0.994560030 0.050535639
vn -0.504330334 -0.848149396 0.162152756
vn 0.009787414 -0.999324482 0.035422953
vn -0.091085106 -0.994560030 0.050535639
vn -0.091085106 -0.994560030 0.050535639
vn 0.911406869 -0.357604722 -0.203608405
vn 0.264496997 -0.963629419 -0.038205769
vn 0.264496997 -0.963629419 -0.038205769
vn 0.918792375 -0.360685135 -0.160395779
vn -0.007127848 -0.992090452 -0.125322499
vn 0.918792375 -0.360685135 -0.160395779
vn 0.264496997 -0.963629419 -0.038205769
vn 0.911406869 -0.357604722 -0.203608405
vn -0.007127848 -0.992090452 -0.125322499
vn 0.965717363 -0.238630005 -0.102204188
vn -0.418332842 -0.895089398 -0.154313328
vn 0.965717363 -0.238630005 -0.102204188
vn -0.007127848 -0.992090452 -0.125322499
vn 0.918792375 -0.360685135 -0.160395779
vn 0.965717363 -0.238630005 -0.102204188
vn 0.050060856 -0.989033186 -0.138950592
vn -0.418332842 -0.895089398 -0.154313328
vn 0.050060856 -0.989033186 -0.138950592
vn 0.965717363 -0.238630005 -0.102204188
vn 0.963692895 -0.242087643 -0.112648026
vn 0.963692895 -0.242087643 -0.112648026
vn 0.409169714 -0.909780341 0.069856114
vn 0.050060856 -0.989033186 -0.138950592
vn 0.409169714 -0.909780341 0.069856114
vn 0.963692895 -0.242087643 -0.112648026
vn 0.978364574 -0.196709907 0.064093472
vn -0.498786250 -0.319883989 0.805534922
vn -0.504330334 -0.848149396 0.162152756
vn -0.919739841 -0.313076202 0.236773979
vn -0.919739841 -0.313076202 0.236773979
vn -0.504330334 -0.848149396 0.162152756
vn -0.957673489 -0.215244310 0.191131825
vn 0.907002764 -0.349706253 -0.234630608
vn 0.098750600 -0.927608594 -0.360264646
vn 0.093518315 -0.295842372 -0.950647998
vn 0.199882312 -0.976565135 0.079797234
vn 0.009787414 -0.999324482 0.035422953
vn -0.070014616 -0.815950933 0.573865863
vn -0.203778326 0.943500261 0.261307579
vn -0.392797729 0.918908860 0.036282925
vn -0.203620436 0.977208664 0.060016213
vn -0.392797729 0.918908860 0.036282925
vn -0.203778326 0.943500261 0.261307579
vn -0.440508791 0.867794297 0.229967528
vn -0.392797729 0.918908860 0.036282925
vn -0.188444433 0.953896758 -0.233601520
vn -0.203620436 0.977208664 0.060016213
vn -0.188444433 0.953896758 -0.233601520
vn -0.392797729 0.918908860 0.036282925
vn -0.346827800 0.831685301 -0.433601243
vn -0.188444433 0.953896758 -0.233601520
vn -0.346827800 0.831685301 -0.433601243
vn -0.064869033 0.579512303 -0.812377682
vn -0.064869033 0.579512303 -0.812377682
vn 0.447600747 0.766731486 -0.460191699
vn 0.093518315 -0.295842372 -0.950647998
vn 0.447600747 0.766731486 -0.460191699
vn 0.907002764 -0.349706253 -0.234630608
vn 0.093518315 -0.295842372 -0.950647998
vn -0.091085106 -0.994560030 0.050535639
vn 0.907002764 -0.349706253 -0.234630608
vn 0.911406869 -0.357604722 -0.203608405
vn -0.924127180 -0.373060042 0.082553988
vn -0.019251733 -0.999006571 0.040190078
vn -0.947667917 -0.293424282 0.125808229
vn -0.019251733 -0.999006571 0.040190078
vn -0.924127180 -0.373060042 0.082553988
vn 0.409169714 -0.909780341 0.069856114
vn 0.978364574 -0.196709907 0.064093472
vn 0.647904896 0.696261647 0.308931974
vn 0.959024808 -0.283254628 -0.006183331
vn 0.647904896 0.696261647 0.308931974
vn 0.978364574 -0.196709907 0.064093472
vn 0.716613012 0.693792554 0.071537981
vn 0.716613012 0.693792554 0.071537981
vn -0.697220682 0.653722457 0.294160278
vn 0.647904896 0.696261647 0.308931974
vn -0.697220682 0.653722457 0.294160278
vn 0.716613012 0.693792554 0.071537981
vn -0.628176493 0.769638001 0.114243779
vn -0.628176493 0.769638001 0.114243779
vn -0.947667917 -0.293424282 0.125808229
vn -0.697220682 0.653722457 0.294160278
vn -0.947667917 -0.293424282 0.125808229
vn -0.628176493 0.769638001 0.114243779
vn -0.924127180 -0.373060042 0.082553988
vn 0.409169714 -0.909780341 0.069856114
vn 0.959024808 -0.283254628 -0.006183331
vn -0.019251733 -0.999006571 0.040190078
vn 0.959024808 -0.283254628 -0.006183331
vn 0.409169714 -0.909780341 0.069856114
vn 0.978364574 -0.196709907 0.064093472
vn -0.947667917 -0.293424282 0.125808229
vn -0.190732071 -0.530458743 -0.825975059
vn -0.823697730 -0.066321589 -0.563137191
vn -0.190732071 -0.530458743 -0.825975059
vn -0.947667917 -0.293424282 0.125808229
vn -0.019251733 -0.999006571 0.040190078
vn 0.959024808 -0.283254628 -0.006183331
vn 0.467438736 0.540313968 -0.699686962
vn 0.531605276 -0.211525735 -0.820154067
vn 0.467438736 0.540313968 -0.699686962
vn 0.959024808 -0.283254628 -0.006183331
vn 0.647904896 0.696261647 0.308931974
vn 0.647904896 0.696261647 0.308931974
vn -0.477244253 0.841067885 -0.254642368
vn 0.467438736 0.540313968 -0.699686962
vn -0.477244253 0.841067885 -0.254642368
vn 0.647904896 0.696261647 0.308931974
vn -0.697220682 0.653722457 0.294160278
vn -0.697220682 0.653722457 0.294160278
vn -0.823697730 -0.066321589 -0.563137191
vn -0.477244253 0.841067885 -0.254642368
vn -0.823697730 -0.066321589 -0.563137191
vn -0.697220682 0.653722457 0.294160278
vn -0.947667917 -0.293424282 0.125808229
vn -0.019251733 -0.999006571 0.040190078
vn 0.531605276 -0.211525735 -0.820154067
vn -0.190732071 -0.530458743 -0.825975059
vn 0.531605276 -0.211525735 -0.820154067
vn -0.019251733 -0.999006571 0.040190078
vn 0.959024808 -0.283254628 -0.006183331
vn -0.823697730 -0.066321589 -0.563137191
vn -0.190732071 -0.530458743 -0.825975059
vn -0.013701796 0.108642009 -0.993986506
vn 0.531605276 -0.211525735 -0.820154067
vn 0.467438736 0.540313968 -0.699686962
vn -0.013701796 0.108642009 -0.993986506
vn 0.467438736 0.540313968 -0.699686962
vn -0.144248226 0.331804034 -0.932254543
vn -0.013701796 0.108642009 -0.993986506
vn -0.144248226 0.331804034 -0.932254543
vn 0.467438736 0.540313968 -0.699686962
vn -0.477244253 0.841067885 -0.254642368
vn -0.823697730 -0.066321589 -0.563137191
vn -0.144248226 0.331804034 -0.932254543
vn -0.477244253 0.841067885 -0.254642368
vn -0.144248226 0.331804034 -0.932254543
vn -0.823697730 -0.066321589 -0.563137191
vn -0.013701796 0.108642009 -0.993986506
vn -0.190732071 -0.530458743 -0.825975059
vn 0.531605276 -0.211525735 -0.820154067
vn -0.013701796 0.108642009 -0.993986506
vn -0.274460284 0.137435344 0.951726367
vn -0.262141793 0.513694679 0.816945198
vn -0.029694191 0.020225523 0.999354383
vn -0.498786250 -0.319883989 0.805534922
vn -0.274460284 0.137435344 0.951726367
vn -0.029694191 0.020225523 0.999354383
vn -0.070014616 -0.815950933 0.573865863
vn -0.498786250 -0.319883989 0.805534922
vn -0.029694191 0.020225523 0.999354383
vn 0.123276782 -0.677799028 0.724838818
vn -0.070014616 -0.815950933 0.573865863
vn -0.029694191 0.020225523 0.999354383
vn -0.262141793 0.513694679 0.816945198
vn -0.168881811 0.730700318 0.661480143
vn -0.029694191 0.020225523 0.999354383
vn 0.424811582 -0.712912297 0.557934742
vn 0.199882312 -0.976565135 0.079797234
vn 0.123276782 -0.677799028 0.724838818
vn 0.199882312 -0.976565135 0.079797234
vn -0.070014616 -0.815950933 0.573865863
vn 0.123276782 -0.677799028 0.724838818
vn 0.145695770 0.765594304 -0.626608414
vn -0.064869033 0.579512303 -0.812377682
vn -0.696534198 -0.281966169 -0.659799356
vn -0.064869033 0.579512303 -0.812377682
vn -0.346827800 0.831685301 -0.433601243
vn 0.447600747 0.766731486 -0.460191699
f 3/3/3 2/2/2 1/1/1
f 6/6/6 5/5/5 4/4/4
f 9/9/9 8/8/8 7/7/7
f 12/12/12 11/11/11 10/10/10
f 15/15/15 14/14/14 13/13/13
f 18/18/18 17/17/17 16/16/16
f 21/21/21 20/20/20 19/19/19
f 24/24/24 23/23/23 22/22/22
f 27/27/27 26/26/26 25/25/25
f 30/30/30 29/29/29 28/28/28
f 33/33/33 32/32/32 31/31/31
f 36/36/36 35/35/35 34/34/34
f 39/39/39 38/38/38 37/37/37
f 42/42/42 41/41/41 40/40/40
f 45/45/45 44/44/44 43/43/43
f 48/48/48 47/47/47 46/46/46
f 51/51/51 50/50/50 49/49/49
f 54/54/54 53/53/53 52/52/52
f 57/57/57 56/56/56 55/55/55
f 60/60/60 59/59/59 58/58/58
f 63/63/63 62/62/62 61/61/61
f 66/66/66 65/65/65 64/64/64
f 69/69/69 68/68/68 67/67/67
f 72/72/72 71/71/71 70/70/70
f 75/75/75 74/74/74 73/73/73
f 78/78/78 77/77/77 76/76/76
f 81/81/81 80/80/80 79/79/79
f 84/84/84 83/83/83 82/82/82
f 87/87/87 86/86/86 85/85/85
f 90/90/90 89/89/89 88/88/88
f 93/93/93 92/92/92 91/91/91
f 96/96/96 95/95/95 94/94/94
f 99/99/99 98/98/98 97/97/97
f 102/102/102 101/101/101 100/100/100
f 105/105/105 104/104/104 103/103/103
f 108/108/108 107/107/107 106/106/106
f 111/111/111 110/110/110 109/109/109
f 114/114/114 113/113/113 112/112/112
f 117/117/117 116/116/116 115/115/115
f 120/120/120 119/119/119 118/118/118
f 123/123/123 122/122/122 121/121/121
f 126/126/126 125/125/125 124/124/124
f 129/129/129 128/128/128 127/127/127
f 132/132/132 131/131/131 130/130/130
f 135/135/135 134/134/134 133/133/133
f 138/138/138 137/137/137 136/136/136
f 141/141/141 140/140/140 139/139/139
f 144/144/144 143/143/143 142/142/142
f 147/147/147 146/146/146 145/145/145
f 150/150/150 149/149/149 148/148/148
f 153/153/153 152/152/152 151/151/151
f 156/156/156 155/155/155 154/154/154
f 159/159/159 158/158/158 157/157/157
f 162/162/162 161/161/161 160/160/160
f 165/165/165 164/164/164 163/163/163
f 168/168/168 167/167/167 166/166/166
f 171/171/171 170/170/170 169/169/169
f 174/174/174 173/173/173 172/172/172
f 177/177/177 176/176/176 175/175/175
f 180/180/180 179/179/179 178/178/178
f 183/183/183 182/182/182 181/181/181
f 186/186/186 185/185/185 184/184/184
f 189/189/189 188/188/188 187/187/187
f 192/192/192 191/191/191 190/190/190
f 195/195/195 194/194/194 193/193/193
f 198/198/198 197/197/197 196/196/196
f 201/201/201 200/200/200 199/199/199
f 204/204/204 203/203/203 202/202/202
f 207/207/207 206/206/206 205/205/205
f 210/210/210 209/209/209 208/208/208
f 213/213/213 212/212/212 211/211/211
f 216/216/216 215/215/215 214/214/214
f 219/219/219 218/218/218 217/217/217
f 222/222/222 221/221/221 220/220/220
f 225/225/225 224/224/224 223/223/223
f 228/228/228 227/227/227 226/226/226
f 231/231/231 230/230/230 229/229/229
f 234/234/234 233/233/233 232/232/232
f 237/237/237 236/236/236 235/235/235
f 240/240/240 239/239/239 238/238/238
f 243/243/243 242/242/242 241/241/241
f 246/246/246 245/245/245 244/244/244
f 249/249/249 248/248/248 247/247/247
f 252/252/252 251/251/251 250/250/250
f 255/255/255 254/254/254 253/253/253
f 258/258/258 257/257/257 256/256/256
f 261/261/261 260/260/260 259/259/259
f 264/264/264 263/263/263 262/262/262
f 267/267/267 266/266/266 265/265/265
f 270/270/270 269/269/269 268/268/268
f 273/273/273 272/272/272 271/271/271
f 276/276/276 275/275/275 274/274/274
f 279/279/279 278/278/278 277/277/277
f 282/282/282 281/281/281 280/280/280
f 285/285/285 284/284/284 283/283/283
f 288/288/288 287/287/287 286/286/286
f 291/291/291 290/290/290 289/289/289
f 294/294/294 293/293/293 292/292/292
f 297/297/297 296/296/296 295/295/295
f 300/300/300 299/299/299 298/298/298
f 303/303/303 302/302/302 301/301/301
f 306/306/306 305/305/305 304/304/304
f 309/309/309 308/308/308 307/307/307
f 312/312/312 311/311/311 310/310/310
f 315/315/315 314/314/314 313/313/313
f 318/318/318 317/317/317 316/316/316
f 321/321/321 320/320/320 319/319/319
f 324/324/324 323/323/323 322/322/322
f 327/327/327 326/326/326 325/325/325
f 330/330/330 329/329/329 328/328/328
f 333/333/333 332/332/332 331/331/331
f 336/336/336 335/335/335 334/334/334
f 339/339/339 338/338/338 337/337/337
f 342/342/342 341/341/341 340/340/340
f 345/345/345 344/344/344 343/343/343
f 348/348/348 347/347/347 346/346/346
f 351/351/351 350/350/350 349/349/349
f 354/354/354 353/353/353 352/352/352
f 357/357/357 356/356/356 355/355/355
f 360/360/360 359/359/359 358/358/358
f 363/363/363 362/362/362 361/361/361
f 366/366/366 365/365/365 364/364/364
f 369/369/369 368/368/368 367/367/367
f 372/372/372 371/371/371 370/370/370
f 375/375/375 374/374/374 373/373/373
f 378/378/378 377/377/377 376/376/376
f 381/381/381 380/380/380 379/379/379
f 384/384/384 383/383/383 382/382/382
f 387/387/387 386/386/386 385/385/385
f 390/390/390 389/389/389 388/388/388
f 393/393/393 392/392/392 391/391/391
f 396/396/396 395/395/395 394/394/394
f 399/399/399 398/398/398 397/397/397
f 402/402/402 401/401/401 400/400/400
f 405/405/405 404/404/404 403/403/403
f 408/408/408 407/407/407 406/406/406
f 411/411/411 410/410/410 409/409/409
f 414/414/414 413/413/413 412/412/412
f 417/417/417 416/416/416 415/415/415
f 420/420/420 419/419/419 418/418/418
f 423/423/423 422/422/422 421/421/421
f 426/426/426 425/425/425 424/424/424
f 429/429/429 428/428/428 427/427/427
f 432/432/432 431/431/431 430/430/430
f 435/435/435 434/434/434 433/433/433
f 438/438/438 437/437/437 436/436/436
f 441/441/441 440/440/440 439/439/439
f 444/444/444 443/443/443 442/442/442
f 447/447/447 446/446/446 445/445/445
f 450/450/450 449/449/449 448/448/448
f 453/453/453 452/452/452 451/451/451
f 456/456/456 455/455/455 454/454/454
f 459/459/459 458/458/458 457/457/457
f 462/462/462 461/461/461 460/460/460
f 465/465/465 464/464/464 463/463/463
f 468/468/468 467/467/467 466/466/466
f 471/471/471 470/470/470 469/469/469
f 474/474/474 473/473/473 472/472/472
f 477/477/477 476/476/476 475/475/475
f 480/480/480 479/479/479 478/478/478
f 483/483/483 482/482/482 481/481/481
f 486/486/486 485/485/485 484/484/484
f 489/489/489 488/488/488 487/487/487
f 492/492/492 491/491/491 490/490/490
f 495/495/495 494/494/494 493/493/493
f 498/498/498 497/497/497 496/496/496
f 501/501/501 500/500/500 499/499/499
f 504/504/504 503/503/503 502/502/502
f 507/507/507 506/506/506 505/505/505
f 510/510/510 509/509/509 508/508/508
f 513/513/513 512/512/512 511/511/511
f 516/516/516 515/515/515 514/514/514
f 519/519/519 518/518/518 517/517/517
f 522/522/522 521/521/521 520/520/520
f 525/525/525 524/524/524 523/523/523
f 528/528/528 527/527/527 526/526/526
f 531/531/531 530/530/530 529/529/529
f 534/534/534 533/533/533 532/532/532
f 537/537/537 536/536/536 535/535/535
f 540/540/540 539/539/539 538/538/538
f 543/543/543 542/542/542 541/541/541
f 546/546/546 545/545/545 544/544/544
f 549/549/549 548/548/548 547/547/547
f 552/552/552 551/551/551 550/550/550
f 555/555/555 554/554/554 553/553/553
f 558/558/558 557/557/557 556/556/556
f 561/561/561 560/560/560 559/559/559
f 564/564/564 563/563/563 562/562/562
f 567/567/567 566/566/566 565/565/565
f 570/570/570 569/569/569 568/568/568
f 573/573/573 572/572/572 571/571/571
f 576/576/576 575/575/575 574/574/574
f 579/579/579 578/578/578 577/577/577
f 582/582/582 581/581/581 580/580/580
f 585/585/585 584/584/584 583/583/583
f 588/588/588 587/587/587 586/586/586
f 591/591/591 590/590/590 589/589/589
f 594/594/594 593/593/593 592/592/592
f 597/597/597 596/596/596 595/595/595
f 600/600/600 599/599/599 598/598/598
f 603/603/603 602/602/602 601/601/601
f 606/606/606 605/605/605 604/604/604
f 609/609/609 608/608/608 607/607/607
f 612/612/612 611/611/611 610/610/610
f 615/615/615 614/614/614 613/613/613
f 618/618/618 617/617/617 616/616/616
f 621/621/621 620/620/620 619/619/619
f 624/624/624 623/623/623 622/622/622
f 627/627/627 626/626/626 625/625/625
f 630/630/630 629/629/629 628/628/628
f 633/633/633 632/632/632 631/631/631
f 636/636/636 635/635/635 634/634/634
f 639/639/639 638/638/638 637/637/637
f 642/642/642 641/641/641 640/640/640
f 645/645/645 644/644/644 643/643/643
f 648/648/648 647/647/647 646/646/646
f 651/651/651 650/650/650 649/649/649
f 654/654/654 653/653/653 652/652/652
f 657/657/657 656/656/656 655/655/655
f 660/660/660 659/659/659 658/658/658
f 663/663/663 662/662/662 661/661/661
f 666/666/666 665/665/665 664/664/664
f 669/669/669 668/668/668 667/667/667
f 672/672/672 671/671/671 670/670/670
f 675/675/675 674/674/674 673/673/673
f 678/678/678 677/677/677 676/676/676
f 681/681/681 680/680/680 679/679/679
f 684/684/684 683/683/683 682/682/682
f 687/687/687 686/686/686 685/685/685
f 690/690/690 689/689/689 688/688/688
f 693/693/693 692/692/692 691/691/691
f 696/696/696 695/695/695 694/694/694
f 699/699/699 698/698/698 697/697/697
f 702/702/702 701/701/701 700/700/700
f 705/705/705 704/704/704 703/703/703
f 708/708/708 707/707/707 706/706/706
f 711/711/711 710/710/710 709/709/709
f 714/714/714 713/713/713 712/712/712
f 717/717/717 716/716/716 715/715/715
f 720/720/720 719/719/719 718/718/718
