# Static pose baked from local Project Zomboid assets
o Bob_Hair_Messy
v -0.047867603 0.099628640 0.349539754
v -0.082499046 0.097045256 0.331633044
v -0.070451202 0.073960003 0.325043884
v -0.082499046 0.097045256 0.331633044
v -0.047867603 0.099628640 0.349539754
v -0.072166085 0.110309384 0.345891786
v -0.060051845 0.046859888 0.448611029
v -0.067904811 0.003602640 0.439948864
v -0.085870763 0.031029736 0.445882299
v -0.036302289 0.070260182 0.380670114
v -0.028447358 0.054703450 0.417853299
v -0.024466070 0.076867215 0.399802711
v -0.028447358 0.054703450 0.417853299
v -0.036302289 0.070260182 0.380670114
v -0.032641594 0.054405761 0.396171098
v -0.042629622 0.085588109 0.382928065
v -0.042512175 0.105905609 0.398985348
v -0.050093487 0.099711574 0.379287998
v -0.042629622 0.085588109 0.382928065
v -0.024466070 0.076867215 0.399802711
v -0.042512175 0.105905609 0.398985348
v -0.036302289 0.070260182 0.380670114
v -0.024466070 0.076867215 0.399802711
v -0.042629622 0.085588109 0.382928065
v -0.072166085 0.110309384 0.345891786
v -0.050093487 0.099711574 0.379287998
v -0.084351966 0.117071831 0.378991469
v -0.050093487 0.099711574 0.379287998
v -0.072166085 0.110309384 0.345891786
v -0.047867603 0.099628640 0.349539754
v -0.125161062 0.102637225 0.376290344
v -0.088485353 0.116805323 0.423119423
v -0.130825210 0.105344780 0.420341640
v -0.088485353 0.116805323 0.423119423
v -0.125161062 0.102637225 0.376290344
v -0.084351966 0.117071831 0.378991469
v -0.054786203 0.019407747 0.439173118
v -0.028447358 0.054703450 0.417853299
v -0.047437277 0.015553435 0.421217754
v -0.035706762 0.065917980 0.425963039
v -0.042512175 0.105905609 0.398985348
v -0.024466070 0.076867215 0.399802711
v -0.042512175 0.105905609 0.398985348
v -0.035706762 0.065917980 0.425963039
v -0.051275751 0.090134682 0.424067244
v -0.088485353 0.116805323 0.423119423
v -0.118277685 0.082813567 0.440173206
v -0.130825210 0.105344780 0.420341640
v -0.035706762 0.065917980 0.425963039
v -0.028447358 0.054703450 0.417853299
v -0.054786203 0.019407747 0.439173118
v -0.028447358 0.054703450 0.417853299
v -0.035706762 0.065917980 0.425963039
v -0.024466070 0.076867215 0.399802711
v -0.113143116 0.091173555 0.323438737
v -0.072166085 0.110309384 0.345891786
v -0.123139599 0.105324757 0.334620208
v -0.072166085 0.110309384 0.345891786
v -0.113143116 0.091173555 0.323438737
v -0.082499046 0.097045256 0.331633044
v -0.123139599 0.105324757 0.334620208
v -0.084351966 0.117071831 0.378991469
v -0.125161062 0.102637225 0.376290344
v -0.084351966 0.117071831 0.378991469
v -0.123139599 0.105324757 0.334620208
v -0.072166085 0.110309384 0.345891786
v -0.088485353 0.116805323 0.423119423
v -0.084351966 0.117071831 0.378991469
v -0.042512175 0.105905609 0.398985348
v -0.051275751 0.090134682 0.424067244
v -0.088485353 0.116805323 0.423119423
v -0.042512175 0.105905609 0.398985348
v -0.029684375 0.054914343 0.365813998
v -0.036302289 0.070260182 0.380670114
v -0.034357472 0.069916627 0.368100072
v -0.036302289 0.070260182 0.380670114
v -0.029684375 0.054914343 0.365813998
v -0.032641594 0.054405761 0.396171098
v -0.070451202 0.073960003 0.325043884
v -0.060997282 0.073636016 0.345709193
v -0.047867603 0.099628640 0.349539754
v -0.060997282 0.073636016 0.345709193
v -0.070451202 0.073960003 0.325043884
v -0.067346785 0.056135472 0.311630200
v -0.047867603 0.099628640 0.349539754
v -0.042629622 0.085588109 0.382928065
v -0.050093487 0.099711574 0.379287998
v -0.042629622 0.085588109 0.382928065
v -0.047867603 0.099628640 0.349539754
v -0.060997282 0.073636016 0.345709193
v -0.060051845 0.046859888 0.448611029
v -0.051275751 0.090134682 0.424067244
v -0.035706762 0.065917980 0.425963039
v -0.051275751 0.090134682 0.424067244
v -0.060051845 0.046859888 0.448611029
v -0.079482389 0.072443986 0.451509376
v -0.056205825 -0.012465826 0.423363074
v -0.067904811 0.003602640 0.439948864
v -0.054786203 0.019407747 0.439173118
v -0.047437277 0.015553435 0.421217754
v -0.056205825 -0.012465826 0.423363074
v -0.054786203 0.019407747 0.439173118
v -0.056205825 -0.012465826 0.423363074
v -0.047437277 0.015553435 0.421217754
v -0.056324956 -0.009450144 0.403277198
v -0.118277685 0.082813567 0.440173206
v -0.079482389 0.072443986 0.451509376
v -0.105731074 0.062274771 0.445865214
v -0.079482389 0.072443986 0.451509376
v -0.085870763 0.031029736 0.445882299
v -0.105731074 0.062274771 0.445865214
v -0.085870763 0.031029736 0.445882299
v -0.079482389 0.072443986 0.451509376
v -0.060051845 0.046859888 0.448611029
v -0.067904811 0.003602640 0.439948864
v -0.060051845 0.046859888 0.448611029
v -0.054786203 0.019407747 0.439173118
v -0.079482389 0.072443986 0.451509376
v -0.088485353 0.116805323 0.423119423
v -0.051275751 0.090134682 0.424067244
v -0.118277685 0.082813567 0.440173206
v -0.088485353 0.116805323 0.423119423
v -0.079482389 0.072443986 0.451509376
v -0.082499046 0.097045256 0.331633044
v -0.071659044 0.071301584 0.335326416
v -0.070451202 0.073960003 0.325043884
v -0.071659044 0.071301584 0.335326416
v -0.082499046 0.097045256 0.331633044
v -0.080724354 0.092250854 0.334915796
v -0.032641594 0.054405761 0.396171098
v -0.038881964 0.049485141 0.417208973
v -0.028447358 0.054703450 0.417853299
v -0.038881964 0.049485141 0.417208973
v -0.032641594 0.054405761 0.396171098
v -0.032283721 0.047869358 0.380378489
v -0.042629622 0.085588109 0.382928065
v -0.041292504 0.068694927 0.380984874
v -0.036302289 0.070260182 0.380670114
v -0.041292504 0.068694927 0.380984874
v -0.042629622 0.085588109 0.382928065
v -0.046680871 0.081749834 0.382907815
v -0.028447358 0.054703450 0.417853299
v -0.058714523 0.030758322 0.417545308
v -0.047437277 0.015553435 0.421217754
v -0.058714523 0.030758322 0.417545308
v -0.028447358 0.054703450 0.417853299
v -0.038881964 0.049485141 0.417208973
v -0.113143116 0.091173555 0.323438737
v -0.080724354 0.092250854 0.334915796
v -0.082499046 0.097045256 0.331633044
v -0.080724354 0.092250854 0.334915796
v -0.113143116 0.091173555 0.323438737
v -0.110100688 0.084712914 0.335331005
v -0.029684375 0.054914343 0.365813998
v -0.032283721 0.047869358 0.380378489
v -0.032641594 0.054405761 0.396171098
v -0.032283721 0.047869358 0.380378489
v -0.029684375 0.054914343 0.365813998
v -0.033064765 0.052418704 0.362159165
v -0.034357472 0.069916627 0.368100072
v -0.033064765 0.052418704 0.362159165
v -0.029684375 0.054914343 0.365813998
v -0.033064765 0.052418704 0.362159165
v -0.034357472 0.069916627 0.368100072
v -0.039732068 0.069387709 0.364353555
v -0.036302289 0.070260182 0.380670114
v -0.039732068 0.069387709 0.364353555
v -0.034357472 0.069916627 0.368100072
v -0.039732068 0.069387709 0.364353555
v -0.036302289 0.070260182 0.380670114
v -0.041292504 0.068694927 0.380984874
v -0.070451202 0.073960003 0.325043884
v -0.069014807 0.056121003 0.323902740
v -0.067346785 0.056135472 0.311630200
v -0.069014807 0.056121003 0.323902740
v -0.070451202 0.073960003 0.325043884
v -0.071659044 0.071301584 0.335326416
v -0.054961958 0.074691037 0.341351352
v -0.067346785 0.056135472 0.311630200
v -0.069014807 0.056121003 0.323902740
v -0.067346785 0.056135472 0.311630200
v -0.054961958 0.074691037 0.341351352
v -0.060997282 0.073636016 0.345709193
v -0.046680871 0.081749834 0.382907815
v -0.060997282 0.073636016 0.345709193
v -0.054961958 0.074691037 0.341351352
v -0.060997282 0.073636016 0.345709193
v -0.046680871 0.081749834 0.382907815
v -0.042629622 0.085588109 0.382928065
v -0.047437277 0.015553435 0.421217754
v -0.061339433 -0.001096285 0.399971366
v -0.056324956 -0.009450144 0.403277198
v -0.061339433 -0.001096285 0.399971366
v -0.047437277 0.015553435 0.421217754
v -0.058714523 0.030758322 0.417545308
v -0.054786203 0.019407747 0.439173118
v -0.060051845 0.046859888 0.448611029
v -0.035706762 0.065917980 0.425963039
v -0.042512175 0.105905609 0.398985348
v -0.084351966 0.117071831 0.378991469
v -0.050093487 0.099711574 0.379287998
v -0.151240574 0.033916524 0.340286896
v -0.132226459 0.065434540 0.327181971
v -0.150278147 0.060655119 0.338900019
v -0.132226459 0.065434540 0.327181971
v -0.151240574 0.033916524 0.340286896
v -0.115622596 0.045245458 0.321000618
v -0.111218268 0.014334423 0.444031151
v -0.085870763 0.031029736 0.445882299
v -0.067904811 0.003602640 0.439948864
v -0.133560738 0.008434945 0.371964565
v -0.127538647 -0.008286887 0.408983692
v -0.122775684 -0.002890666 0.388103245
v -0.127538647 -0.008286887 0.408983692
v -0.133560738 0.008434945 0.371964565
v -0.146862563 -0.000937770 0.388847069
v -0.165390016 0.027794640 0.387986620
v -0.145012960 0.020505083 0.373763789
v -0.154159873 0.033558668 0.369973074
v -0.146862563 -0.000937770 0.388847069
v -0.145012960 0.020505083 0.373763789
v -0.165390016 0.027794640 0.387986620
v -0.133560738 0.008434945 0.371964565
v -0.145012960 0.020505083 0.373763789
v -0.146862563 -0.000937770 0.388847069
v -0.150278147 0.060655119 0.338900019
v -0.154159873 0.033558668 0.369973074
v -0.151240574 0.033916524 0.340286896
v -0.154159873 0.033558668 0.369973074
v -0.150278147 0.060655119 0.338900019
v -0.155489464 0.071851156 0.372623991
v -0.125161062 0.102637225 0.376290344
v -0.159122987 0.071902401 0.416796688
v -0.155489464 0.071851156 0.372623991
v -0.159122987 0.071902401 0.416796688
v -0.125161062 0.102637225 0.376290344
v -0.130825210 0.105344780 0.420341640
v -0.087497974 -0.001386468 0.436245106
v -0.084811098 -0.008204350 0.417872444
v -0.127538647 -0.008286887 0.408983692
v -0.135641258 0.002391633 0.417017958
v -0.165390016 0.027794640 0.387986620
v -0.150722165 0.026918599 0.415165851
v -0.165390016 0.027794640 0.387986620
v -0.135641258 0.002391633 0.417017958
v -0.146862563 -0.000937770 0.388847069
v -0.159122987 0.071902401 0.416796688
v -0.130825210 0.105344780 0.420341640
v -0.118277685 0.082813567 0.440173206
v -0.135641258 0.002391633 0.417017958
v -0.127538647 -0.008286887 0.408983692
v -0.146862563 -0.000937770 0.388847069
v -0.127538647 -0.008286887 0.408983692
v -0.135641258 0.002391633 0.417017958
v -0.087497974 -0.001386468 0.436245106
v -0.113143116 0.091173555 0.323438737
v -0.150278147 0.060655119 0.338900019
v -0.132226459 0.065434540 0.327181971
v -0.150278147 0.060655119 0.338900019
v -0.113143116 0.091173555 0.323438737
v -0.123139599 0.105324757 0.334620208
v -0.123139599 0.105324757 0.334620208
v -0.155489464 0.071851156 0.372623991
v -0.150278147 0.060655119 0.338900019
v -0.155489464 0.071851156 0.372623991
v -0.123139599 0.105324757 0.334620208
v -0.125161062 0.102637225 0.376290344
v -0.159122987 0.071902401 0.416796688
v -0.165390016 0.027794640 0.387986620
v -0.155489464 0.071851156 0.372623991
v -0.150722165 0.026918599 0.415165851
v -0.165390016 0.027794640 0.387986620
v -0.159122987 0.071902401 0.416796688
v -0.120616235 -0.002889210 0.357674738
v -0.133560738 0.008434945 0.371964565
v -0.122775684 -0.002890666 0.388103245
v -0.133560738 0.008434945 0.371964565
v -0.120616235 -0.002889210 0.357674738
v -0.132467542 0.007550031 0.359318294
v -0.115622596 0.045245458 0.321000618
v -0.121886688 0.034929847 0.340259016
v -0.099166539 0.035908296 0.308782032
v -0.121886688 0.034929847 0.340259016
v -0.115622596 0.045245458 0.321000618
v -0.151240574 0.033916524 0.340286896
v -0.151240574 0.033916524 0.340286896
v -0.145012960 0.020505083 0.373763789
v -0.121886688 0.034929847 0.340259016
v -0.145012960 0.020505083 0.373763789
v -0.151240574 0.033916524 0.340286896
v -0.154159873 0.033558668 0.369973074
v -0.111218268 0.014334423 0.444031151
v -0.150722165 0.026918599 0.415165851
v -0.126530384 0.042536523 0.447298136
v -0.150722165 0.026918599 0.415165851
v -0.111218268 0.014334423 0.444031151
v -0.135641258 0.002391633 0.417017958
v -0.056205825 -0.012465826 0.423363074
v -0.087497974 -0.001386468 0.436245106
v -0.067904811 0.003602640 0.439948864
v -0.084811098 -0.008204350 0.417872444
v -0.056205825 -0.012465826 0.423363074
v -0.056324956 -0.009450144 0.403277198
v -0.056205825 -0.012465826 0.423363074
v -0.084811098 -0.008204350 0.417872444
v -0.087497974 -0.001386468 0.436245106
v -0.118277685 0.082813567 0.440173206
v -0.105731074 0.062274771 0.445865214
v -0.126530384 0.042536523 0.447298136
v -0.126530384 0.042536523 0.447298136
v -0.085870763 0.031029736 0.445882299
v -0.111218268 0.014334423 0.444031151
v -0.085870763 0.031029736 0.445882299
v -0.126530384 0.042536523 0.447298136
v -0.105731074 0.062274771 0.445865214
v -0.067904811 0.003602640 0.439948864
v -0.087497974 -0.001386468 0.436245106
v -0.111218268 0.014334423 0.444031151
v -0.126530384 0.042536523 0.447298136
v -0.150722165 0.026918599 0.415165851
v -0.159122987 0.071902401 0.416796688
v -0.118277685 0.082813567 0.440173206
v -0.126530384 0.042536523 0.447298136
v -0.159122987 0.071902401 0.416796688
v -0.132226459 0.065434540 0.327181971
v -0.114029843 0.044367321 0.331533830
v -0.129064933 0.061521722 0.330588858
v -0.114029843 0.044367321 0.331533830
v -0.132226459 0.065434540 0.327181971
v -0.115622596 0.045245458 0.321000618
v -0.122775684 -0.002890666 0.388103245
v -0.118414518 -0.001072102 0.410090058
v -0.115037637 -0.004735640 0.372971232
v -0.118414518 -0.001072102 0.410090058
v -0.122775684 -0.002890666 0.388103245
v -0.127538647 -0.008286887 0.408983692
v -0.145012960 0.020505083 0.373763789
v -0.130113819 0.012233005 0.373034527
v -0.139868016 0.022512642 0.374566686
v -0.130113819 0.012233005 0.373034527
v -0.145012960 0.020505083 0.373763789
v -0.133560738 0.008434945 0.371964565
v -0.127538647 -0.008286887 0.408983692
v -0.093339922 0.008747653 0.414446008
v -0.118414518 -0.001072102 0.410090058
v -0.093339922 0.008747653 0.414446008
v -0.127538647 -0.008286887 0.408983692
v -0.084811098 -0.008204350 0.417872444
v -0.113143116 0.091173555 0.323438737
v -0.129064933 0.061521722 0.330588858
v -0.110100688 0.084712914 0.335331005
v -0.129064933 0.061521722 0.330588858
v -0.113143116 0.091173555 0.323438737
v -0.132226459 0.065434540 0.327181971
v -0.120616235 -0.002889210 0.357674738
v -0.115037637 -0.004735640 0.372971232
v -0.116498634 -0.000618527 0.354691045
v -0.115037637 -0.004735640 0.372971232
v -0.120616235 -0.002889210 0.357674738
v -0.122775684 -0.002890666 0.388103245
v -0.132467542 0.007550031 0.359318294
v -0.116498634 -0.000618527 0.354691045
v -0.129278773 0.012464671 0.356338279
v -0.116498634 -0.000618527 0.354691045
v -0.132467542 0.007550031 0.359318294
v -0.120616235 -0.002889210 0.357674738
v -0.133560738 0.008434945 0.371964565
v -0.129278773 0.012464671 0.356338279
v -0.130113819 0.012233005 0.373034527
v -0.129278773 0.012464671 0.356338279
v -0.133560738 0.008434945 0.371964565
v -0.132467542 0.007550031 0.359318294
v -0.115622596 0.045245458 0.321000618
v -0.100014915 0.036414858 0.321127937
v -0.114029843 0.044367321 0.331533830
v -0.100014915 0.036414858 0.321127937
v -0.115622596 0.045245458 0.321000618
v -0.099166539 0.035908296 0.308782032
v -0.124796775 0.030298450 0.335100476
v -0.099166539 0.035908296 0.308782032
v -0.121886688 0.034929847 0.340259016
v -0.099166539 0.035908296 0.308782032
v -0.124796775 0.030298450 0.335100476
v -0.100014915 0.036414858 0.321127937
v -0.139868016 0.022512642 0.374566686
v -0.121886688 0.034929847 0.340259016
v -0.145012960 0.020505083 0.373763789
v -0.121886688 0.034929847 0.340259016
v -0.139868016 0.022512642 0.374566686
v -0.124796775 0.030298450 0.335100476
v -0.084811098 -0.008204350 0.417872444
v -0.061339433 -0.001096285 0.399971366
v -0.093339922 0.008747653 0.414446008
v -0.061339433 -0.001096285 0.399971366
v -0.084811098 -0.008204350 0.417872444
v -0.056324956 -0.009450144 0.403277198
v -0.087497974 -0.001386468 0.436245106
v -0.135641258 0.002391633 0.417017958
v -0.111218268 0.014334423 0.444031151
v -0.165390016 0.027794640 0.387986620
v -0.154159873 0.033558668 0.369973074
v -0.155489464 0.071851156 0.372623991
vt 0.547159016 0.892579973
vt 0.623470008 0.950547993
vt 0.564655006 0.975055993
vt 0.623470008 0.950547993
vt 0.547159016 0.892579973
vt 0.598622978 0.908309996
vt 0.575388014 0.633992016
vt 0.536593974 0.552173972
vt 0.614920020 0.582588017
vt 0.466116011 0.797484994
vt 0.496448994 0.701074004
vt 0.496257007 0.760087013
vt 0.496448994 0.701074004
vt 0.466116011 0.797484994
vt 0.471264988 0.745384991
vt 0.501564980 0.825398982
vt 0.543417990 0.793291986
vt 0.537249982 0.835762024
vt 0.501564980 0.825398982
vt 0.496257007 0.760087013
vt 0.543417990 0.793291986
vt 0.466116011 0.797484994
vt 0.496257007 0.760087013
vt 0.501564980 0.825398982
vt 0.598622978 0.908309996
vt 0.537249982 0.835762024
vt 0.618745983 0.844866991
vt 0.537249982 0.835762024
vt 0.598622978 0.908309996
vt 0.547159016 0.892579973
vt 0.701747000 0.848196030
vt 0.635069013 0.764032006
vt 0.702112973 0.763076007
vt 0.635069013 0.764032006
vt 0.701747000 0.848196030
vt 0.618745983 0.844866991
vt 0.524047971 0.597316980
vt 0.496448994 0.701074004
vt 0.482524008 0.605809987
vt 0.525842011 0.700514972
vt 0.543417990 0.793291986
vt 0.496257007 0.760087013
vt 0.543417990 0.793291986
vt 0.525842011 0.700514972
vt 0.563948989 0.731159985
vt 0.635069013 0.764032006
vt 0.702381015 0.698305011
vt 0.702112973 0.763076007
vt 0.525842011 0.700514972
vt 0.496448994 0.701074004
vt 0.524047971 0.597316980
vt 0.496448994 0.701074004
vt 0.525842011 0.700514972
vt 0.496257007 0.760087013
vt 0.701799989 0.954851985
vt 0.598622978 0.908309996
vt 0.701798975 0.923744023
vt 0.598622978 0.908309996
vt 0.701799989 0.954851985
vt 0.623470008 0.950547993
vt 0.701798975 0.923744023
vt 0.618745983 0.844866991
vt 0.701747000 0.848196030
vt 0.618745983 0.844866991
vt 0.701798975 0.923744023
vt 0.598622978 0.908309996
vt 0.635069013 0.764032006
vt 0.618745983 0.844866991
vt 0.543417990 0.793291986
vt 0.563948989 0.731159985
vt 0.635069013 0.764032006
vt 0.543417990 0.793291986
vt 0.416601986 0.771685004
vt 0.466116011 0.797484994
vt 0.436928988 0.798636973
vt 0.466116011 0.797484994
vt 0.416601986 0.771685004
vt 0.471264988 0.745384991
vt 0.564655006 0.975055993
vt 0.510908008 0.926572025
vt 0.547159016 0.892579973
vt 0.510908008 0.926572025
vt 0.564655006 0.975055993
vt 0.535815001 1.001693010
vt 0.547159016 0.892579973
vt 0.501564980 0.825398982
vt 0.537249982 0.835762024
vt 0.501564980 0.825398982
vt 0.547159016 0.892579973
vt 0.510908008 0.926572025
vt 0.575388014 0.633992016
vt 0.563948989 0.731159985
vt 0.525842011 0.700514972
vt 0.563948989 0.731159985
vt 0.575388014 0.633992016
vt 0.629576027 0.662782013
vt 0.482804000 0.537523985
vt 0.536593974 0.552173972
vt 0.524047971 0.597316980
vt 0.482524008 0.605809987
vt 0.482804000 0.537523985
vt 0.524047971 0.597316980
vt 0.482804000 0.537523985
vt 0.482524008 0.605809987
vt 0.443269014 0.548183978
vt 0.702381015 0.698305011
vt 0.629576027 0.662782013
vt 0.701249003 0.643194973
vt 0.629576027 0.662782013
vt 0.614920020 0.582588017
vt 0.701249003 0.643194973
vt 0.614920020 0.582588017
vt 0.629576027 0.662782013
vt 0.575388014 0.633992016
vt 0.536593974 0.552173972
vt 0.575388014 0.633992016
vt 0.524047971 0.597316980
vt 0.629576027 0.662782013
vt 0.635069013 0.764032006
vt 0.563948989 0.731159985
vt 0.702381015 0.698305011
vt 0.635069013 0.764032006
vt 0.629576027 0.662782013
vt 0.623470008 0.950547993
vt 0.581928015 0.993404984
vt 0.564655006 0.975055993
vt 0.581928015 0.993404984
vt 0.623470008 0.950547993
vt 0.623659015 0.964627981
vt 0.471264988 0.745384991
vt 0.477443010 0.687121987
vt 0.496448994 0.701074004
vt 0.477443010 0.687121987
vt 0.471264988 0.745384991
vt 0.443235993 0.755833983
vt 0.501564980 0.825398982
vt 0.465986997 0.810808003
vt 0.466116011 0.797484994
vt 0.465986997 0.810808003
vt 0.501564980 0.825398982
vt 0.495902985 0.832556009
vt 0.496448994 0.701074004
vt 0.452951014 0.635303020
vt 0.482524008 0.605809987
vt 0.452951014 0.635303020
vt 0.496448994 0.701074004
vt 0.477443010 0.687121987
vt 0.701799989 0.954851985
vt 0.623659015 0.964627981
vt 0.623470008 0.950547993
vt 0.623659015 0.964627981
vt 0.701799989 0.954851985
vt 0.701831996 0.978793979
vt 0.416601986 0.771685004
vt 0.443235993 0.755833983
vt 0.471264988 0.745384991
vt 0.443235993 0.755833983
vt 0.416601986 0.771685004
vt 0.405966997 0.769429982
vt 0.436928988 0.798636973
vt 0.405966997 0.769429982
vt 0.416601986 0.771685004
vt 0.405966997 0.769429982
vt 0.436928988 0.798636973
vt 0.428570986 0.807705998
vt 0.466116011 0.797484994
vt 0.428570986 0.807705998
vt 0.436928988 0.798636973
vt 0.428570986 0.807705998
vt 0.466116011 0.797484994
vt 0.465986997 0.810808003
vt 0.564655006 0.975055993
vt 0.536336005 0.997380018
vt 0.535815001 1.001693010
vt 0.536336005 0.997380018
vt 0.564655006 0.975055993
vt 0.581928015 0.993404984
vt 0.506120980 0.928981006
vt 0.535815001 1.001693010
vt 0.536336005 0.997380018
vt 0.535815001 1.001693010
vt 0.506120980 0.928981006
vt 0.510908008 0.926572025
vt 0.495902985 0.832556009
vt 0.510908008 0.926572025
vt 0.506120980 0.928981006
vt 0.510908008 0.926572025
vt 0.495902985 0.832556009
vt 0.501564980 0.825398982
vt 0.482524008 0.605809987
vt 0.430467993 0.564294994
vt 0.443269014 0.548183978
vt 0.430467993 0.564294994
vt 0.482524008 0.605809987
vt 0.452951014 0.635303020
vt 0.524047971 0.597316980
vt 0.575388014 0.633992016
vt 0.525842011 0.700514972
vt 0.543417990 0.793291986
vt 0.618745983 0.844866991
vt 0.537249982 0.835762024
vt 0.856059015 0.892018974
vt 0.780059993 0.950192988
vt 0.804904997 0.907872021
vt 0.780059993 0.950192988
vt 0.856059015 0.892018974
vt 0.838787019 0.974663019
vt 0.834345996 0.623040974
vt 0.769070983 0.578867018
vt 0.903346002 0.554719985
vt 0.935509026 0.800552011
vt 0.912904978 0.703616977
vt 0.933768988 0.750177979
vt 0.912904978 0.703616977
vt 0.935509026 0.800552011
vt 0.906023026 0.760452986
vt 0.859230995 0.791541994
vt 0.899888992 0.825468004
vt 0.864673972 0.834962010
vt 0.906023026 0.760452986
vt 0.899888992 0.825468004
vt 0.859230995 0.791541994
vt 0.935509026 0.800552011
vt 0.899888992 0.825468004
vt 0.906023026 0.760452986
vt 0.804904997 0.907872021
vt 0.864673972 0.834962010
vt 0.856059015 0.892018974
vt 0.864673972 0.834962010
vt 0.804904997 0.907872021
vt 0.784198999 0.844097972
vt 0.701747000 0.848196030
vt 0.769288003 0.761848986
vt 0.784198999 0.844097972
vt 0.769288003 0.761848986
vt 0.701747000 0.848196030
vt 0.702112973 0.763076007
vt 0.899870992 0.597337008
vt 0.938205004 0.614369988
vt 0.912904978 0.703616977
vt 0.880010009 0.697547972
vt 0.859230995 0.791541994
vt 0.840429008 0.727449000
vt 0.859230995 0.791541994
vt 0.880010009 0.697547972
vt 0.906023026 0.760452986
vt 0.769288003 0.761848986
vt 0.702112973 0.763076007
vt 0.702381015 0.698305011
vt 0.880010009 0.697547972
vt 0.912904978 0.703616977
vt 0.906023026 0.760452986
vt 0.912904978 0.703616977
vt 0.880010009 0.697547972
vt 0.899870992 0.597337008
vt 0.701799989 0.954851985
vt 0.804904997 0.907872021
vt 0.780059993 0.950192988
vt 0.804904997 0.907872021
vt 0.701799989 0.954851985
vt 0.701798975 0.923744023
vt 0.701798975 0.923744023
vt 0.784198999 0.844097972
vt 0.804904997 0.907872021
vt 0.784198999 0.844097972
vt 0.701798975 0.923744023
vt 0.701747000 0.848196030
vt 0.769288003 0.761848986
vt 0.859230995 0.791541994
vt 0.784198999 0.844097972
vt 0.840429008 0.727449000
vt 0.859230995 0.791541994
vt 0.769288003 0.761848986
vt 0.987073004 0.777397990
vt 0.935509026 0.800552011
vt 0.933768988 0.750177979
vt 0.935509026 0.800552011
vt 0.987073004 0.777397990
vt 0.965135992 0.803327024
vt 0.838787019 0.974663019
vt 0.892302990 0.926320016
vt 0.867556989 1.001423001
vt 0.892302990 0.926320016
vt 0.838787019 0.974663019
vt 0.856059015 0.892018974
vt 0.856059015 0.892018974
vt 0.899888992 0.825468004
vt 0.892302990 0.926320016
vt 0.899888992 0.825468004
vt 0.856059015 0.892018974
vt 0.864673972 0.834962010
vt 0.834345996 0.623040974
vt 0.840429008 0.727449000
vt 0.775618017 0.658420026
vt 0.840429008 0.727449000
vt 0.834345996 0.623040974
vt 0.880010009 0.697547972
vt 0.960444987 0.555580974
vt 0.899870992 0.597337008
vt 0.903346002 0.554719985
vt 0.938205004 0.614369988
vt 0.960444987 0.555580974
vt 0.994813025 0.578773022
vt 0.960444987 0.555580974
vt 0.938205004 0.614369988
vt 0.899870992 0.597337008
vt 0.702381015 0.698305011
vt 0.701249003 0.643194973
vt 0.775618017 0.658420026
vt 0.775618017 0.658420026
vt 0.769070983 0.578867018
vt 0.834345996 0.623040974
vt 0.769070983 0.578867018
vt 0.775618017 0.658420026
vt 0.701249003 0.643194973
vt 0.903346002 0.554719985
vt 0.899870992 0.597337008
vt 0.834345996 0.623040974
vt 0.775618017 0.658420026
vt 0.840429008 0.727449000
vt 0.769288003 0.761848986
vt 0.702381015 0.698305011
vt 0.775618017 0.658420026
vt 0.769288003 0.761848986
vt 0.780059993 0.950192988
vt 0.821519971 0.993003011
vt 0.779891014 0.964271009
vt 0.821519971 0.993003011
vt 0.780059993 0.950192988
vt 0.838787019 0.974663019
vt 0.933768988 0.750177979
vt 0.933595002 0.692207992
vt 0.960435987 0.762238026
vt 0.933595002 0.692207992
vt 0.933768988 0.750177979
vt 0.912904978 0.703616977
vt 0.899888992 0.825468004
vt 0.935525000 0.813561022
vt 0.905080974 0.833117008
vt 0.935525000 0.813561022
vt 0.899888992 0.825468004
vt 0.935509026 0.800552011
vt 0.912904978 0.703616977
vt 0.966790974 0.643610001
vt 0.933595002 0.692207992
vt 0.966790974 0.643610001
vt 0.912904978 0.703616977
vt 0.938205004 0.614369988
vt 0.701799989 0.954851985
vt 0.779891014 0.964271009
vt 0.701831996 0.978793979
vt 0.779891014 0.964271009
vt 0.701799989 0.954851985
vt 0.780059993 0.950192988
vt 0.987073004 0.777397990
vt 0.960435987 0.762238026
vt 0.997792006 0.775247991
vt 0.960435987 0.762238026
vt 0.987073004 0.777397990
vt 0.933768988 0.750177979
vt 0.965135992 0.803327024
vt 0.997792006 0.775247991
vt 0.972985029 0.812638998
vt 0.997792006 0.775247991
vt 0.965135992 0.803327024
vt 0.987073004 0.777397990
vt 0.935509026 0.800552011
vt 0.972985029 0.812638998
vt 0.935525000 0.813561022
vt 0.972985029 0.812638998
vt 0.935509026 0.800552011
vt 0.965135992 0.803327024
vt 0.838787019 0.974663019
vt 0.867008984 0.997119009
vt 0.821519971 0.993003011
vt 0.867008984 0.997119009
vt 0.838787019 0.974663019
vt 0.867556989 1.001423001
vt 0.897174001 0.928879976
vt 0.867556989 1.001423001
vt 0.892302990 0.926320016
vt 0.867556989 1.001423001
vt 0.897174001 0.928879976
vt 0.867008984 0.997119009
vt 0.905080974 0.833117008
vt 0.892302990 0.926320016
vt 0.899888992 0.825468004
vt 0.892302990 0.926320016
vt 0.905080974 0.833117008
vt 0.897174001 0.928879976
vt 0.938205004 0.614369988
vt 0.983116984 0.568921030
vt 0.966790974 0.643610001
vt 0.983116984 0.568921030
vt 0.938205004 0.614369988
vt 0.967749000 0.553937972
vt 0.899870992 0.597337008
vt 0.880010009 0.697547972
vt 0.834345996 0.623040974
vt 0.859230995 0.791541994
vt 0.864673972 0.834962010
vt 0.784198999 0.844097972
vn 0.803264170 0.304683386 -0.511795573
vn 0.174059309 0.423885968 -0.888832967
vn 0.422881131 0.166463121 -0.890764603
vn 0.174059309 0.423885968 -0.888832967
vn 0.803264170 0.304683386 -0.511795573
vn 0.205661369 0.912405789 -0.353863077
vn 0.398929948 0.051795596 0.915517402
vn 0.132573109 -0.339668280 0.931155105
vn -0.014307280 -0.117315110 0.992991675
vn 0.949188722 0.132551042 -0.285431236
vn 0.949906174 -0.312399558 -0.009207430
vn 0.957474289 0.285844001 -0.039194300
vn 0.949906174 -0.312399558 -0.009207430
vn 0.949188722 0.132551042 -0.285431236
vn 0.991239050 -0.130866809 0.017861237
vn 0.897908725 0.083530558 -0.432183488
vn 0.588533452 0.791997987 0.162380924
vn 0.556234816 0.820492113 -0.131892081
vn 0.897908725 0.083530558 -0.432183488
vn 0.957474289 0.285844001 -0.039194300
vn 0.588533452 0.791997987 0.162380924
vn 0.949188722 0.132551042 -0.285431236
vn 0.957474289 0.285844001 -0.039194300
vn 0.897908725 0.083530558 -0.432183488
vn 0.205661369 0.912405789 -0.353863077
vn 0.556234816 0.820492113 -0.131892081
vn 0.007973694 0.997173765 -0.074705438
vn 0.556234816 0.820492113 -0.131892081
vn 0.205661369 0.912405789 -0.353863077
vn 0.803264170 0.304683386 -0.511795573
vn -0.532943003 0.844888697 -0.046204387
vn 0.021124799 0.891261910 0.452996634
vn -0.530429981 0.791784765 0.302854620
vn 0.021124799 0.891261910 0.452996634
vn -0.532943003 0.844888697 -0.046204387
vn 0.007973694 0.997173765 -0.074705438
vn 0.716434309 -0.228238321 0.659264097
vn 0.949906174 -0.312399558 -0.009207430
vn 0.940063593 -0.185850384 -0.285902214
vn 0.701583187 0.240451793 0.670793536
vn 0.588533452 0.791997987 0.162380924
vn 0.957474289 0.285844001 -0.039194300
vn 0.588533452 0.791997987 0.162380924
vn 0.701583187 0.240451793 0.670793536
vn 0.493357021 0.498648564 0.712705030
vn 0.021124799 0.891261910 0.452996634
vn -0.324815516 0.389625223 0.861792937
vn -0.530429981 0.791784765 0.302854620
vn 0.701583187 0.240451793 0.670793536
vn 0.949906174 -0.312399558 -0.009207430
vn 0.716434309 -0.228238321 0.659264097
vn 0.949906174 -0.312399558 -0.009207430
vn 0.701583187 0.240451793 0.670793536
vn 0.957474289 0.285844001 -0.039194300
vn -0.060677332 0.232148067 -0.970786040
vn 0.205661369 0.912405789 -0.353863077
vn -0.492311431 0.816812018 -0.300745046
vn 0.205661369 0.912405789 -0.353863077
vn -0.060677332 0.232148067 -0.970786040
vn 0.174059309 0.423885968 -0.888832967
vn -0.492311431 0.816812018 -0.300745046
vn 0.007973694 0.997173765 -0.074705438
vn -0.532943003 0.844888697 -0.046204387
vn 0.007973694 0.997173765 -0.074705438
vn -0.492311431 0.816812018 -0.300745046
vn 0.205661369 0.912405789 -0.353863077
vn 0.021124799 0.891261910 0.452996634
vn 0.007973694 0.997173765 -0.074705438
vn 0.588533452 0.791997987 0.162380924
vn 0.493357021 0.498648564 0.712705030
vn 0.021124799 0.891261910 0.452996634
vn 0.588533452 0.791997987 0.162380924
vn 0.989581994 0.143044464 0.016302111
vn 0.949188722 0.132551042 -0.285431236
vn 0.784761135 0.509130029 -0.353463683
vn 0.949188722 0.132551042 -0.285431236
vn 0.989581994 0.143044464 0.016302111
vn 0.991239050 -0.130866809 0.017861237
vn 0.422881131 0.166463121 -0.890764603
vn 0.893747599 -0.046289610 -0.446175416
vn 0.803264170 0.304683386 -0.511795573
vn 0.893747599 -0.046289610 -0.446175416
vn 0.422881131 0.166463121 -0.890764603
vn 0.625245417 0.479962234 -0.615389651
vn 0.803264170 0.304683386 -0.511795573
vn 0.897908725 0.083530558 -0.432183488
vn 0.556234816 0.820492113 -0.131892081
vn 0.897908725 0.083530558 -0.432183488
vn 0.803264170 0.304683386 -0.511795573
vn 0.893747599 -0.046289610 -0.446175416
vn 0.398929948 0.051795596 0.915517402
vn 0.493357021 0.498648564 0.712705030
vn 0.701583187 0.240451793 0.670793536
vn 0.493357021 0.498648564 0.712705030
vn 0.398929948 0.051795596 0.915517402
vn 0.122882159 0.324328202 0.937929205
vn 0.459967330 -0.782639988 0.419409947
vn 0.132573109 -0.339668280 0.931155105
vn 0.716434309 -0.228238321 0.659264097
vn 0.940063593 -0.185850384 -0.285902214
vn 0.459967330 -0.782639988 0.419409947
vn 0.716434309 -0.228238321 0.659264097
vn 0.459967330 -0.782639988 0.419409947
vn 0.940063593 -0.185850384 -0.285902214
vn 0.504317729 -0.727946343 -0.464497308
vn -0.324815516 0.389625223 0.861792937
vn 0.122882159 0.324328202 0.937929205
vn -0.113351445 0.038518997 0.992808006
vn 0.122882159 0.324328202 0.937929205
vn -0.014307280 -0.117315110 0.992991675
vn -0.113351445 0.038518997 0.992808006
vn -0.014307280 -0.117315110 0.992991675
vn 0.122882159 0.324328202 0.937929205
vn 0.398929948 0.051795596 0.915517402
vn 0.132573109 -0.339668280 0.931155105
vn 0.398929948 0.051795596 0.915517402
vn 0.716434309 -0.228238321 0.659264097
vn 0.122882159 0.324328202 0.937929205
vn 0.021124799 0.891261910 0.452996634
vn 0.493357021 0.498648564 0.712705030
vn -0.324815516 0.389625223 0.861792937
vn 0.021124799 0.891261910 0.452996634
vn 0.122882159 0.324328202 0.937929205
vn 0.174059309 0.423885968 -0.888832967
vn -0.940902168 -0.293191698 -0.169533885
vn 0.422881131 0.166463121 -0.890764603
vn -0.940902168 -0.293191698 -0.169533885
vn 0.174059309 0.423885968 -0.888832967
vn 0.130350340 -0.771136694 -0.623182949
vn 0.991239050 -0.130866809 0.017861237
vn 0.711458601 -0.688280551 -0.141762271
vn 0.949906174 -0.312399558 -0.009207430
vn 0.711458601 -0.688280551 -0.141762271
vn 0.991239050 -0.130866809 0.017861237
vn 0.930190693 -0.356856923 0.086014019
vn 0.897908725 0.083530558 -0.432183488
vn -0.214928432 0.518864940 -0.827396485
vn 0.949188722 0.132551042 -0.285431236
vn -0.214928432 0.518864940 -0.827396485
vn 0.897908725 0.083530558 -0.432183488
vn 0.299534709 0.710214875 -0.637082247
vn 0.949906174 -0.312399558 -0.009207430
vn 0.372327460 0.049004977 -0.926806762
vn 0.940063593 -0.185850384 -0.285902214
vn 0.372327460 0.049004977 -0.926806762
vn 0.949906174 -0.312399558 -0.009207430
vn 0.711458601 -0.688280551 -0.141762271
vn -0.060677332 0.232148067 -0.970786040
vn 0.130350340 -0.771136694 -0.623182949
vn 0.174059309 0.423885968 -0.888832967
vn 0.130350340 -0.771136694 -0.623182949
vn -0.060677332 0.232148067 -0.970786040
vn 0.493691002 -0.704925831 -0.509262966
vn 0.989581994 0.143044464 0.016302111
vn 0.930190693 -0.356856923 0.086014019
vn 0.991239050 -0.130866809 0.017861237
vn 0.930190693 -0.356856923 0.086014019
vn 0.989581994 0.143044464 0.016302111
vn 0.705440503 0.011564687 -0.708674787
vn 0.784761135 0.509130029 -0.353463683
vn 0.705440503 0.011564687 -0.708674787
vn 0.989581994 0.143044464 0.016302111
vn 0.705440503 0.011564687 -0.708674787
vn 0.784761135 0.509130029 -0.353463683
vn 0.142600919 0.886146628 -0.440918509
vn 0.949188722 0.132551042 -0.285431236
vn 0.142600919 0.886146628 -0.440918509
vn 0.784761135 0.509130029 -0.353463683
vn 0.142600919 0.886146628 -0.440918509
vn 0.949188722 0.132551042 -0.285431236
vn -0.214928432 0.518864940 -0.827396485
vn 0.422881131 0.166463121 -0.890764603
vn -0.607165445 -0.790178396 -0.083475889
vn 0.625245417 0.479962234 -0.615389651
vn -0.607165445 -0.790178396 -0.083475889
vn 0.422881131 0.166463121 -0.890764603
vn -0.940902168 -0.293191698 -0.169533885
vn 0.122591104 0.945205292 -0.302586147
vn 0.625245417 0.479962234 -0.615389651
vn -0.607165445 -0.790178396 -0.083475889
vn 0.625245417 0.479962234 -0.615389651
vn 0.122591104 0.945205292 -0.302586147
vn 0.893747599 -0.046289610 -0.446175416
vn 0.299534709 0.710214875 -0.637082247
vn 0.893747599 -0.046289610 -0.446175416
vn 0.122591104 0.945205292 -0.302586147
vn 0.893747599 -0.046289610 -0.446175416
vn 0.299534709 0.710214875 -0.637082247
vn 0.897908725 0.083530558 -0.432183488
vn 0.940063593 -0.185850384 -0.285902214
vn 0.160895092 -0.115080583 -0.980239373
vn 0.504317729 -0.727946343 -0.464497308
vn 0.160895092 -0.115080583 -0.980239373
vn 0.940063593 -0.185850384 -0.285902214
vn 0.372327460 0.049004977 -0.926806762
vn 0.716434309 -0.228238321 0.659264097
vn 0.398929948 0.051795596 0.915517402
vn 0.701583187 0.240451793 0.670793536
vn 0.588533452 0.791997987 0.162380924
vn 0.007973694 0.997173765 -0.074705438
vn 0.556234816 0.820492113 -0.131892081
vn -0.543855912 -0.551653743 -0.632375596
vn -0.341422475 0.096204559 -0.934973463
vn -0.862230151 0.233568620 -0.449449514
vn -0.341422475 0.096204559 -0.934973463
vn -0.543855912 -0.551653743 -0.632375596
vn -0.213003387 -0.237755874 -0.947682279
vn -0.328784122 -0.410797608 0.850380107
vn -0.014307280 -0.117315110 0.992991675
vn 0.132573109 -0.339668280 0.931155105
vn -0.478329640 -0.774893648 -0.413207684
vn -0.113043278 -0.988095127 -0.104351509
vn -0.297122756 -0.949852481 -0.097459390
vn -0.113043278 -0.988095127 -0.104351509
vn -0.478329640 -0.774893648 -0.413207684
vn -0.651010397 -0.736637355 -0.183168967
vn -0.978670851 -0.204242258 0.022101244
vn -0.394241056 -0.737863043 -0.547843152
vn -0.953571710 -0.139261530 -0.267034116
vn -0.651010397 -0.736637355 -0.183168967
vn -0.394241056 -0.737863043 -0.547843152
vn -0.978670851 -0.204242258 0.022101244
vn -0.478329640 -0.774893648 -0.413207684
vn -0.394241056 -0.737863043 -0.547843152
vn -0.651010397 -0.736637355 -0.183168967
vn -0.862230151 0.233568620 -0.449449514
vn -0.953571710 -0.139261530 -0.267034116
vn -0.543855912 -0.551653743 -0.632375596
vn -0.953571710 -0.139261530 -0.267034116
vn -0.862230151 0.233568620 -0.449449514
vn -0.891636472 0.425309685 -0.155229100
vn -0.532943003 0.844888697 -0.046204387
vn -0.868655201 0.325646691 0.373352881
vn -0.891636472 0.425309685 -0.155229100
vn -0.868655201 0.325646691 0.373352881
vn -0.532943003 0.844888697 -0.046204387
vn -0.530429981 0.791784765 0.302854620
vn -0.176360524 -0.795770054 0.579350487
vn -0.187803857 -0.902813008 -0.386857059
vn -0.113043278 -0.988095127 -0.104351509
vn -0.593615985 -0.582880277 0.554860924
vn -0.978670851 -0.204242258 0.022101244
vn -0.744701482 -0.288360313 0.601887060
vn -0.978670851 -0.204242258 0.022101244
vn -0.593615985 -0.582880277 0.554860924
vn -0.651010397 -0.736637355 -0.183168967
vn -0.868655201 0.325646691 0.373352881
vn -0.530429981 0.791784765 0.302854620
vn -0.324815516 0.389625223 0.861792937
vn -0.593615985 -0.582880277 0.554860924
vn -0.113043278 -0.988095127 -0.104351509
vn -0.651010397 -0.736637355 -0.183168967
vn -0.113043278 -0.988095127 -0.104351509
vn -0.593615985 -0.582880277 0.554860924
vn -0.176360524 -0.795770054 0.579350487
vn -0.060677332 0.232148067 -0.970786040
vn -0.862230151 0.233568620 -0.449449514
vn -0.341422475 0.096204559 -0.934973463
vn -0.862230151 0.233568620 -0.449449514
vn -0.060677332 0.232148067 -0.970786040
vn -0.492311431 0.816812018 -0.300745046
vn -0.492311431 0.816812018 -0.300745046
vn -0.891636472 0.425309685 -0.155229100
vn -0.862230151 0.233568620 -0.449449514
vn -0.891636472 0.425309685 -0.155229100
vn -0.492311431 0.816812018 -0.300745046
vn -0.532943003 0.844888697 -0.046204387
vn -0.868655201 0.325646691 0.373352881
vn -0.978670851 -0.204242258 0.022101244
vn -0.891636472 0.425309685 -0.155229100
vn -0.744701482 -0.288360313 0.601887060
vn -0.978670851 -0.204242258 0.022101244
vn -0.868655201 0.325646691 0.373352881
vn -0.542846326 -0.831089387 -0.120864789
vn -0.478329640 -0.774893648 -0.413207684
vn -0.297122756 -0.949852481 -0.097459390
vn -0.478329640 -0.774893648 -0.413207684
vn -0.542846326 -0.831089387 -0.120864789
vn -0.740294933 -0.460317438 -0.489970681
vn -0.213003387 -0.237755874 -0.947682279
vn -0.273853573 -0.788510161 -0.550686796
vn -0.614417512 -0.308066559 -0.726351235
vn -0.273853573 -0.788510161 -0.550686796
vn -0.213003387 -0.237755874 -0.947682279
vn -0.543855912 -0.551653743 -0.632375596
vn -0.543855912 -0.551653743 -0.632375596
vn -0.394241056 -0.737863043 -0.547843152
vn -0.273853573 -0.788510161 -0.550686796
vn -0.394241056 -0.737863043 -0.547843152
vn -0.543855912 -0.551653743 -0.632375596
vn -0.953571710 -0.139261530 -0.267034116
vn -0.328784122 -0.410797608 0.850380107
vn -0.744701482 -0.288360313 0.601887060
vn -0.462068413 -0.047513103 0.885570600
vn -0.744701482 -0.288360313 0.601887060
vn -0.328784122 -0.410797608 0.850380107
vn -0.593615985 -0.582880277 0.554860924
vn 0.459967330 -0.782639988 0.419409947
vn -0.176360524 -0.795770054 0.579350487
vn 0.132573109 -0.339668280 0.931155105
vn -0.187803857 -0.902813008 -0.386857059
vn 0.459967330 -0.782639988 0.419409947
vn 0.504317729 -0.727946343 -0.464497308
vn 0.459967330 -0.782639988 0.419409947
vn -0.187803857 -0.902813008 -0.386857059
vn -0.176360524 -0.795770054 0.579350487
vn -0.324815516 0.389625223 0.861792937
vn -0.113351445 0.038518997 0.992808006
vn -0.462068413 -0.047513103 0.885570600
vn -0.462068413 -0.047513103 0.885570600
vn -0.014307280 -0.117315110 0.992991675
vn -0.328784122 -0.410797608 0.850380107
vn -0.014307280 -0.117315110 0.992991675
vn -0.462068413 -0.047513103 0.885570600
vn -0.113351445 0.038518997 0.992808006
vn 0.132573109 -0.339668280 0.931155105
vn -0.176360524 -0.795770054 0.579350487
vn -0.328784122 -0.410797608 0.850380107
vn -0.462068413 -0.047513103 0.885570600
vn -0.744701482 -0.288360313 0.601887060
vn -0.868655201 0.325646691 0.373352881
vn -0.324815516 0.389625223 0.861792937
vn -0.462068413 -0.047513103 0.885570600
vn -0.868655201 0.325646691 0.373352881
vn -0.341422475 0.096204559 -0.934973463
vn 0.677187804 0.735395551 -0.024699451
vn 0.719014392 -0.396934822 -0.570491938
vn 0.677187804 0.735395551 -0.024699451
vn -0.341422475 0.096204559 -0.934973463
vn -0.213003387 -0.237755874 -0.947682279
vn -0.297122756 -0.949852481 -0.097459390
vn 0.341451807 -0.923486416 -0.174881394
vn -0.076880437 -0.997031772 -0.004128420
vn 0.341451807 -0.923486416 -0.174881394
vn -0.297122756 -0.949852481 -0.097459390
vn -0.113043278 -0.988095127 -0.104351509
vn -0.394241056 -0.737863043 -0.547843152
vn -0.272776655 0.482091987 -0.832574449
vn -0.683368333 0.085403164 -0.725061391
vn -0.272776655 0.482091987 -0.832574449
vn -0.394241056 -0.737863043 -0.547843152
vn -0.478329640 -0.774893648 -0.413207684
vn -0.113043278 -0.988095127 -0.104351509
vn -0.081635834 -0.239570353 -0.967440767
vn 0.341451807 -0.923486416 -0.174881394
vn -0.081635834 -0.239570353 -0.967440767
vn -0.113043278 -0.988095127 -0.104351509
vn -0.187803857 -0.902813008 -0.386857059
vn -0.060677332 0.232148067 -0.970786040
vn 0.719014392 -0.396934822 -0.570491938
vn 0.493691002 -0.704925831 -0.509262966
vn 0.719014392 -0.396934822 -0.570491938
vn -0.060677332 0.232148067 -0.970786040
vn -0.341422475 0.096204559 -0.934973463
vn -0.542846326 -0.831089387 -0.120864789
vn -0.076880437 -0.997031772 -0.004128420
vn -0.214265548 -0.573073929 -0.790997185
vn -0.076880437 -0.997031772 -0.004128420
vn -0.542846326 -0.831089387 -0.120864789
vn -0.297122756 -0.949852481 -0.097459390
vn -0.740294933 -0.460317438 -0.489970681
vn -0.214265548 -0.573073929 -0.790997185
vn -0.801297822 0.286129172 -0.525406411
vn -0.214265548 -0.573073929 -0.790997185
vn -0.740294933 -0.460317438 -0.489970681
vn -0.542846326 -0.831089387 -0.120864789
vn -0.478329640 -0.774893648 -0.413207684
vn -0.801297822 0.286129172 -0.525406411
vn -0.272776655 0.482091987 -0.832574449
vn -0.801297822 0.286129172 -0.525406411
vn -0.478329640 -0.774893648 -0.413207684
vn -0.740294933 -0.460317438 -0.489970681
vn -0.213003387 -0.237755874 -0.947682279
vn 0.974786480 0.215436618 0.058123846
vn 0.677187804 0.735395551 -0.024699451
vn 0.974786480 0.215436618 0.058123846
vn -0.213003387 -0.237755874 -0.947682279
vn -0.614417512 -0.308066559 -0.726351235
vn -0.863676631 0.318254725 -0.390866482
vn -0.614417512 -0.308066559 -0.726351235
vn -0.273853573 -0.788510161 -0.550686796
vn -0.614417512 -0.308066559 -0.726351235
vn -0.863676631 0.318254725 -0.390866482
vn 0.974786480 0.215436618 0.058123846
vn -0.683368333 0.085403164 -0.725061391
vn -0.273853573 -0.788510161 -0.550686796
vn -0.394241056 -0.737863043 -0.547843152
vn -0.273853573 -0.788510161 -0.550686796
vn -0.683368333 0.085403164 -0.725061391
vn -0.863676631 0.318254725 -0.390866482
vn -0.187803857 -0.902813008 -0.386857059
vn 0.160895092 -0.115080583 -0.980239373
vn -0.081635834 -0.239570353 -0.967440767
vn 0.160895092 -0.115080583 -0.980239373
vn -0.187803857 -0.902813008 -0.386857059
vn 0.504317729 -0.727946343 -0.464497308
vn -0.176360524 -0.795770054 0.579350487
vn -0.593615985 -0.582880277 0.554860924
vn -0.328784122 -0.410797608 0.850380107
vn -0.978670851 -0.204242258 0.022101244
vn -0.953571710 -0.139261530 -0.267034116
vn -0.891636472 0.425309685 -0.155229100
f 3/3/3 2/2/2 1/1/1
f 6/6/6 5/5/5 4/4/4
f 9/9/9 8/8/8 7/7/7
f 12/12/12 11/11/11 10/10/10
f 15/15/15 14/14/14 13/13/13
f 18/18/18 17/17/17 16/16/16
f 21/21/21 20/20/20 19/19/19
f 24/24/24 23/23/23 22/22/22
f 27/27/27 26/26/26 25/25/25
f 30/30/30 29/29/29 28/28/28
f 33/33/33 32/32/32 31/31/31
f 36/36/36 35/35/35 34/34/34
f 39/39/39 38/38/38 37/37/37
f 42/42/42 41/41/41 40/40/40
f 45/45/45 44/44/44 43/43/43
f 48/48/48 47/47/47 46/46/46
f 51/51/51 50/50/50 49/49/49
f 54/54/54 53/53/53 52/52/52
f 57/57/57 56/56/56 55/55/55
f 60/60/60 59/59/59 58/58/58
f 63/63/63 62/62/62 61/61/61
f 66/66/66 65/65/65 64/64/64
f 69/69/69 68/68/68 67/67/67
f 72/72/72 71/71/71 70/70/70
f 75/75/75 74/74/74 73/73/73
f 78/78/78 77/77/77 76/76/76
f 81/81/81 80/80/80 79/79/79
f 84/84/84 83/83/83 82/82/82
f 87/87/87 86/86/86 85/85/85
f 90/90/90 89/89/89 88/88/88
f 93/93/93 92/92/92 91/91/91
f 96/96/96 95/95/95 94/94/94
f 99/99/99 98/98/98 97/97/97
f 102/102/102 101/101/101 100/100/100
f 105/105/105 104/104/104 103/103/103
f 108/108/108 107/107/107 106/106/106
f 111/111/111 110/110/110 109/109/109
f 114/114/114 113/113/113 112/112/112
f 117/117/117 116/116/116 115/115/115
f 120/120/120 119/119/119 118/118/118
f 123/123/123 122/122/122 121/121/121
f 126/126/126 125/125/125 124/124/124
f 129/129/129 128/128/128 127/127/127
f 132/132/132 131/131/131 130/130/130
f 135/135/135 134/134/134 133/133/133
f 138/138/138 137/137/137 136/136/136
f 141/141/141 140/140/140 139/139/139
f 144/144/144 143/143/143 142/142/142
f 147/147/147 146/146/146 145/145/145
f 150/150/150 149/149/149 148/148/148
f 153/153/153 152/152/152 151/151/151
f 156/156/156 155/155/155 154/154/154
f 159/159/159 158/158/158 157/157/157
f 162/162/162 161/161/161 160/160/160
f 165/165/165 164/164/164 163/163/163
f 168/168/168 167/167/167 166/166/166
f 171/171/171 170/170/170 169/169/169
f 174/174/174 173/173/173 172/172/172
f 177/177/177 176/176/176 175/175/175
f 180/180/180 179/179/179 178/178/178
f 183/183/183 182/182/182 181/181/181
f 186/186/186 185/185/185 184/184/184
f 189/189/189 188/188/188 187/187/187
f 192/192/192 191/191/191 190/190/190
f 195/195/195 194/194/194 193/193/193
f 198/198/198 197/197/197 196/196/196
f 201/201/201 200/200/200 199/199/199
f 204/204/204 203/203/203 202/202/202
f 207/207/207 206/206/206 205/205/205
f 210/210/210 209/209/209 208/208/208
f 213/213/213 212/212/212 211/211/211
f 216/216/216 215/215/215 214/214/214
f 219/219/219 218/218/218 217/217/217
f 222/222/222 221/221/221 220/220/220
f 225/225/225 224/224/224 223/223/223
f 228/228/228 227/227/227 226/226/226
f 231/231/231 230/230/230 229/229/229
f 234/234/234 233/233/233 232/232/232
f 237/237/237 236/236/236 235/235/235
f 240/240/240 239/239/239 238/238/238
f 243/243/243 242/242/242 241/241/241
f 246/246/246 245/245/245 244/244/244
f 249/249/249 248/248/248 247/247/247
f 252/252/252 251/251/251 250/250/250
f 255/255/255 254/254/254 253/253/253
f 258/258/258 257/257/257 256/256/256
f 261/261/261 260/260/260 259/259/259
f 264/264/264 263/263/263 262/262/262
f 267/267/267 266/266/266 265/265/265
f 270/270/270 269/269/269 268/268/268
f 273/273/273 272/272/272 271/271/271
f 276/276/276 275/275/275 274/274/274
f 279/279/279 278/278/278 277/277/277
f 282/282/282 281/281/281 280/280/280
f 285/285/285 284/284/284 283/283/283
f 288/288/288 287/287/287 286/286/286
f 291/291/291 290/290/290 289/289/289
f 294/294/294 293/293/293 292/292/292
f 297/297/297 296/296/296 295/295/295
f 300/300/300 299/299/299 298/298/298
f 303/303/303 302/302/302 301/301/301
f 306/306/306 305/305/305 304/304/304
f 309/309/309 308/308/308 307/307/307
f 312/312/312 311/311/311 310/310/310
f 315/315/315 314/314/314 313/313/313
f 318/318/318 317/317/317 316/316/316
f 321/321/321 320/320/320 319/319/319
f 324/324/324 323/323/323 322/322/322
f 327/327/327 326/326/326 325/325/325
f 330/330/330 329/329/329 328/328/328
f 333/333/333 332/332/332 331/331/331
f 336/336/336 335/335/335 334/334/334
f 339/339/339 338/338/338 337/337/337
f 342/342/342 341/341/341 340/340/340
f 345/345/345 344/344/344 343/343/343
f 348/348/348 347/347/347 346/346/346
f 351/351/351 350/350/350 349/349/349
f 354/354/354 353/353/353 352/352/352
f 357/357/357 356/356/356 355/355/355
f 360/360/360 359/359/359 358/358/358
f 363/363/363 362/362/362 361/361/361
f 366/366/366 365/365/365 364/364/364
f 369/369/369 368/368/368 367/367/367
f 372/372/372 371/371/371 370/370/370
f 375/375/375 374/374/374 373/373/373
f 378/378/378 377/377/377 376/376/376
f 381/381/381 380/380/380 379/379/379
f 384/384/384 383/383/383 382/382/382
f 387/387/387 386/386/386 385/385/385
f 390/390/390 389/389/389 388/388/388
f 393/393/393 392/392/392 391/391/391
f 396/396/396 395/395/395 394/394/394
f 399/399/399 398/398/398 397/397/397
f 402/402/402 401/401/401 400/400/400
