# Static pose baked from local Project Zomboid assets
o Bob_Hair_MohawkShort
v -0.081499396 0.008705094 0.432908336
v -0.069096373 -0.009163561 0.433309438
v -0.073879955 -0.001959508 0.423521972
v -0.069096373 -0.009163561 0.433309438
v -0.081499396 0.008705094 0.432908336
v -0.077773506 0.003117511 0.443032453
v -0.073879955 -0.001959508 0.423521972
v -0.055073195 -0.000249310 0.434564645
v -0.058326884 0.007927266 0.424914119
v -0.055073195 -0.000249310 0.434564645
v -0.073879955 -0.001959508 0.423521972
v -0.069096373 -0.009163561 0.433309438
v -0.058326884 0.007927266 0.424914119
v -0.063750328 0.012031763 0.444287660
v -0.065946326 0.018591868 0.434300483
v -0.063750328 0.012031763 0.444287660
v -0.058326884 0.007927266 0.424914119
v -0.055073195 -0.000249310 0.434564645
v -0.065946326 0.018591868 0.434300483
v -0.079485193 0.035735550 0.451737641
v -0.079087107 0.037939484 0.443706088
v -0.079485193 0.035735550 0.451737641
v -0.065946326 0.018591868 0.434300483
v -0.063750328 0.012031763 0.444287660
v -0.079087107 0.037939484 0.443706088
v -0.101213417 0.070274714 0.451969248
v -0.098681785 0.068763659 0.443710211
v -0.101213417 0.070274714 0.451969248
v -0.079087107 0.037939484 0.443706088
v -0.079485193 0.035735550 0.451737641
v -0.098681785 0.068763659 0.443710211
v -0.118107630 0.100054492 0.429220910
v -0.112698531 0.093779524 0.422647247
v -0.118107630 0.100054492 0.429220910
v -0.098681785 0.068763659 0.443710211
v -0.101213417 0.070274714 0.451969248
v -0.112698531 0.093779524 0.422647247
v -0.121283413 0.112256028 0.375339426
v -0.115676147 0.105146162 0.375189412
v -0.121283413 0.112256028 0.375339426
v -0.112698531 0.093779524 0.422647247
v -0.118107630 0.100054492 0.429220910
v -0.115676147 0.105146162 0.375189412
v -0.110780562 0.101319580 0.338365218
v -0.104635098 0.093288839 0.336047343
v -0.110780562 0.101319580 0.338365218
v -0.115676147 0.105146162 0.375189412
v -0.121283413 0.112256028 0.375339426
v -0.104635098 0.093288839 0.336047343
v -0.125153814 0.092182794 0.337078677
v -0.120188169 0.083402065 0.334655196
v -0.125153814 0.092182794 0.337078677
v -0.104635098 0.093288839 0.336047343
v -0.110780562 0.101319580 0.338365218
v -0.120188169 0.083402065 0.334655196
v -0.135315007 0.103336426 0.374083466
v -0.131229218 0.095259388 0.373797266
v -0.135315007 0.103336426 0.374083466
v -0.120188169 0.083402065 0.334655196
v -0.125153814 0.092182794 0.337078677
v -0.131229218 0.095259388 0.373797266
v -0.132482566 0.090916635 0.427934217
v -0.128251602 0.083892750 0.421255100
v -0.132482566 0.090916635 0.427934217
v -0.131229218 0.095259388 0.373797266
v -0.135315007 0.103336426 0.374083466
v -0.128251602 0.083892750 0.421255100
v -0.115588352 0.061136857 0.450682556
v -0.114234855 0.058876885 0.442318065
v -0.115588352 0.061136857 0.450682556
v -0.128251602 0.083892750 0.421255100
v -0.132482566 0.090916635 0.427934217
v -0.114234855 0.058876885 0.442318065
v -0.093508371 0.026821298 0.450482434
v -0.094640178 0.028052710 0.442313942
v -0.093508371 0.026821298 0.450482434
v -0.114234855 0.058876885 0.442318065
v -0.115588352 0.061136857 0.450682556
v -0.094640178 0.028052710 0.442313942
v -0.077773506 0.003117511 0.443032453
v -0.081499396 0.008705094 0.432908336
v -0.077773506 0.003117511 0.443032453
v -0.094640178 0.028052710 0.442313942
v -0.093508371 0.026821298 0.450482434
v -0.055073195 -0.000249310 0.434564645
v -0.077773506 0.003117511 0.443032453
v -0.063750328 0.012031763 0.444287660
v -0.077773506 0.003117511 0.443032453
v -0.055073195 -0.000249310 0.434564645
v -0.069096373 -0.009163561 0.433309438
v -0.063750328 0.012031763 0.444287660
v -0.093508371 0.026821298 0.450482434
v -0.079485193 0.035735550 0.451737641
v -0.093508371 0.026821298 0.450482434
v -0.063750328 0.012031763 0.444287660
v -0.077773506 0.003117511 0.443032453
v -0.079485193 0.035735550 0.451737641
v -0.115588352 0.061136857 0.450682556
v -0.101213417 0.070274714 0.451969248
v -0.115588352 0.061136857 0.450682556
v -0.079485193 0.035735550 0.451737641
v -0.093508371 0.026821298 0.450482434
v -0.101213417 0.070274714 0.451969248
v -0.132482566 0.090916635 0.427934217
v -0.118107630 0.100054492 0.429220910
v -0.132482566 0.090916635 0.427934217
v -0.101213417 0.070274714 0.451969248
v -0.115588352 0.061136857 0.450682556
v -0.118107630 0.100054492 0.429220910
v -0.135315007 0.103336426 0.374083466
v -0.121283413 0.112256028 0.375339426
v -0.135315007 0.103336426 0.374083466
v -0.118107630 0.100054492 0.429220910
v -0.132482566 0.090916635 0.427934217
v -0.121283413 0.112256028 0.375339426
v -0.125153814 0.092182794 0.337078677
v -0.110780562 0.101319580 0.338365218
v -0.125153814 0.092182794 0.337078677
v -0.121283413 0.112256028 0.375339426
v -0.135315007 0.103336426 0.374083466
vt 0.640625000 0.328125000
vt 0.734375000 0.218750000
vt 0.734375000 0.328125000
vt 0.734375000 0.218750000
vt 0.640625000 0.328125000
vt 0.640625000 0.218750000
vt 0.781250000 0.218750000
vt 0.734375000 0.132812977
vt 0.781250000 0.132812977
vt 0.734375000 0.132812977
vt 0.781250000 0.218750000
vt 0.734375000 0.218750000
vt 0.734375000 0.023437977
vt 0.640625000 0.132812977
vt 0.640625000 0.023437977
vt 0.640625000 0.132812977
vt 0.734375000 0.023437977
vt 0.734375000 0.132812977
vt 0.640625000 0.023437977
vt 0.570312977 0.132812977
vt 0.570312977 0.023437977
vt 0.570312977 0.132812977
vt 0.640625000 0.023437977
vt 0.640625000 0.132812977
vt 0.570312977 0.023437977
vt 0.453125000 0.132812977
vt 0.453125000 0.023437977
vt 0.453125000 0.132812977
vt 0.570312977 0.023437977
vt 0.570312977 0.132812977
vt 0.453125000 0.023437977
vt 0.296875000 0.132812977
vt 0.296875000 0.023437977
vt 0.296875000 0.132812977
vt 0.453125000 0.023437977
vt 0.453125000 0.132812977
vt 0.296875000 0.023437977
vt 0.140625000 0.132812977
vt 0.140625000 0.023437977
vt 0.140625000 0.132812977
vt 0.296875000 0.023437977
vt 0.296875000 0.132812977
vt 0.140625000 0.023437977
vt 0.046875000 0.132812977
vt 0.046875000 0.023437977
vt 0.046875000 0.132812977
vt 0.140625000 0.023437977
vt 0.140625000 0.132812977
vt 0.000000000 0.132812977
vt 0.046875000 0.218750000
vt 0.000000000 0.218750000
vt 0.046875000 0.218750000
vt 0.000000000 0.132812977
vt 0.046875000 0.132812977
vt 0.046875000 0.328125000
vt 0.140625000 0.218750000
vt 0.140625000 0.328125000
vt 0.140625000 0.218750000
vt 0.046875000 0.328125000
vt 0.046875000 0.218750000
vt 0.140625000 0.328125000
vt 0.296875000 0.218750000
vt 0.296875000 0.328125000
vt 0.296875000 0.218750000
vt 0.140625000 0.328125000
vt 0.140625000 0.218750000
vt 0.296875000 0.328125000
vt 0.453125000 0.218750000
vt 0.453125000 0.328125000
vt 0.453125000 0.218750000
vt 0.296875000 0.328125000
vt 0.296875000 0.218750000
vt 0.453125000 0.328125000
vt 0.570312977 0.218750000
vt 0.570312977 0.328125000
vt 0.570312977 0.218750000
vt 0.453125000 0.328125000
vt 0.453125000 0.218750000
vt 0.570312977 0.328125000
vt 0.640625000 0.218750000
vt 0.640625000 0.328125000
vt 0.640625000 0.218750000
vt 0.570312977 0.328125000
vt 0.570312977 0.218750000
vt 0.734375000 0.132812977
vt 0.640625000 0.218750000
vt 0.640625000 0.132812977
vt 0.640625000 0.218750000
vt 0.734375000 0.132812977
vt 0.734375000 0.218750000
vt 0.640625000 0.132812977
vt 0.570312977 0.218750000
vt 0.570312977 0.132812977
vt 0.570312977 0.218750000
vt 0.640625000 0.132812977
vt 0.640625000 0.218750000
vt 0.570312977 0.132812977
vt 0.453125000 0.218750000
vt 0.453125000 0.132812977
vt 0.453125000 0.218750000
vt 0.570312977 0.132812977
vt 0.570312977 0.218750000
vt 0.453125000 0.132812977
vt 0.296875000 0.218750000
vt 0.296875000 0.132812977
vt 0.296875000 0.218750000
vt 0.453125000 0.132812977
vt 0.453125000 0.218750000
vt 0.296875000 0.132812977
vt 0.140625000 0.218750000
vt 0.140625000 0.132812977
vt 0.140625000 0.218750000
vt 0.296875000 0.132812977
vt 0.296875000 0.218750000
vt 0.140625000 0.132812977
vt 0.046875000 0.218750000
vt 0.046875000 0.132812977
vt 0.046875000 0.218750000
vt 0.140625000 0.132812977
vt 0.140625000 0.218750000
vn -0.824149303 -0.566267263 -0.010923057
vn -0.325789231 -0.928788247 0.176674189
vn 0.061903426 -0.789132739 -0.611095317
vn -0.325789231 -0.928788247 0.176674189
vn -0.824149303 -0.566267263 -0.010923057
vn -0.329338716 -0.619499553 0.712570217
vn 0.061903426 -0.789132739 -0.611095317
vn 0.729729889 -0.611998432 0.304880646
vn 0.968498274 0.136228737 -0.208453412
vn 0.729729889 -0.611998432 0.304880646
vn 0.061903426 -0.789132739 -0.611095317
vn -0.325789231 -0.928788247 0.176674189
vn 0.968498274 0.136228737 -0.208453412
vn 0.521259131 -0.006607839 0.853372870
vn 0.850675355 0.502470717 0.154514136
vn 0.521259131 -0.006607839 0.853372870
vn 0.968498274 0.136228737 -0.208453412
vn 0.729729889 -0.611998432 0.304880646
vn 0.850675355 0.502470717 0.154514136
vn 0.325442175 0.123889584 0.937410669
vn 0.837705123 0.517843631 0.173459222
vn 0.325442175 0.123889584 0.937410669
vn 0.850675355 0.502470717 0.154514136
vn 0.521259131 -0.006607839 0.853372870
vn 0.837705123 0.517843631 0.173459222
vn 0.119732390 0.479003954 0.869608744
vn 0.818571216 0.556221894 0.143381899
vn 0.119732390 0.479003954 0.869608744
vn 0.837705123 0.517843631 0.173459222
vn 0.325442175 0.123889584 0.937410669
vn 0.818571216 0.556221894 0.143381899
vn -0.091220138 0.910088313 0.404250106
vn 0.797775024 0.594104718 0.102930047
vn -0.091220138 0.910088313 0.404250106
vn 0.818571216 0.556221894 0.143381899
vn 0.119732390 0.479003954 0.869608744
vn 0.797775024 0.594104718 0.102930047
vn -0.044615638 0.996127661 -0.075757030
vn 0.788951656 0.611137041 0.063771480
vn -0.044615638 0.996127661 -0.075757030
vn 0.797775024 0.594104718 0.102930047
vn -0.091220138 0.910088313 0.404250106
vn 0.788951656 0.611137041 0.063771480
vn 0.193618208 0.913131373 -0.358752121
vn 0.502225796 0.571605707 -0.648872996
vn 0.193618208 0.913131373 -0.358752121
vn 0.788951656 0.611137041 0.063771480
vn -0.044615638 0.996127661 -0.075757030
vn 0.502225796 0.571605707 -0.648872996
vn -0.581834972 0.608103251 -0.540072682
vn -0.855980506 -0.373103819 -0.357897910
vn -0.581834972 0.608103251 -0.540072682
vn 0.502225796 0.571605707 -0.648872996
vn 0.193618208 0.913131373 -0.358752121
vn -0.855980506 -0.373103819 -0.357897910
vn -0.841874269 0.539327712 0.019321845
vn -0.886457485 -0.456991237 -0.073158302
vn -0.841874269 0.539327712 0.019321845
vn -0.855980506 -0.373103819 -0.357897910
vn -0.581834972 0.608103251 -0.540072682
vn -0.886457485 -0.456991237 -0.073158302
vn -0.827533469 0.273881091 0.490079081
vn -0.871487336 -0.489424288 -0.031204005
vn -0.827533469 0.273881091 0.490079081
vn -0.886457485 -0.456991237 -0.073158302
vn -0.841874269 0.539327712 0.019321845
vn -0.871487336 -0.489424288 -0.031204005
vn -0.529856614 -0.127223699 0.838490369
vn -0.851173297 -0.524726785 0.012877087
vn -0.529856614 -0.127223699 0.838490369
vn -0.871487336 -0.489424288 -0.031204005
vn -0.827533469 0.273881091 0.490079081
vn -0.851173297 -0.524726785 0.012877087
vn -0.364394549 -0.390737696 0.845305072
vn -0.833834353 -0.551651905 0.020011179
vn -0.364394549 -0.390737696 0.845305072
vn -0.851173297 -0.524726785 0.012877087
vn -0.529856614 -0.127223699 0.838490369
vn -0.833834353 -0.551651905 0.020011179
vn -0.329338716 -0.619499553 0.712570217
vn -0.824149303 -0.566267263 -0.010923057
vn -0.329338716 -0.619499553 0.712570217
vn -0.833834353 -0.551651905 0.020011179
vn -0.364394549 -0.390737696 0.845305072
vn 0.729729889 -0.611998432 0.304880646
vn -0.329338716 -0.619499553 0.712570217
vn 0.521259131 -0.006607839 0.853372870
vn -0.329338716 -0.619499553 0.712570217
vn 0.729729889 -0.611998432 0.304880646
vn -0.325789231 -0.928788247 0.176674189
vn 0.521259131 -0.006607839 0.853372870
vn -0.364394549 -0.390737696 0.845305072
vn 0.325442175 0.123889584 0.937410669
vn -0.364394549 -0.390737696 0.845305072
vn 0.521259131 -0.006607839 0.853372870
vn -0.329338716 -0.619499553 0.712570217
vn 0.325442175 0.123889584 0.937410669
vn -0.529856614 -0.127223699 0.838490369
vn 0.119732390 0.479003954 0.869608744
vn -0.529856614 -0.127223699 0.838490369
vn 0.325442175 0.123889584 0.937410669
vn -0.364394549 -0.390737696 0.845305072
vn 0.119732390 0.479003954 0.869608744
vn -0.827533469 0.273881091 0.490079081
vn -0.091220138 0.910088313 0.404250106
vn -0.827533469 0.273881091 0.490079081
vn 0.119732390 0.479003954 0.869608744
vn -0.529856614 -0.127223699 0.838490369
vn -0.091220138 0.910088313 0.404250106
vn -0.841874269 0.539327712 0.019321845
vn -0.044615638 0.996127661 -0.075757030
vn -0.841874269 0.539327712 0.019321845
vn -0.091220138 0.910088313 0.404250106
vn -0.827533469 0.273881091 0.490079081
vn -0.044615638 0.996127661 -0.075757030
vn -0.581834972 0.608103251 -0.540072682
vn 0.193618208 0.913131373 -0.358752121
vn -0.581834972 0.608103251 -0.540072682
vn -0.044615638 0.996127661 -0.075757030
vn -0.841874269 0.539327712 0.019321845
f 3/3/3 2/2/2 1/1/1
f 6/6/6 5/5/5 4/4/4
f 9/9/9 8/8/8 7/7/7
f 12/12/12 11/11/11 10/10/10
f 15/15/15 14/14/14 13/13/13
f 18/18/18 17/17/17 16/16/16
f 21/21/21 20/20/20 19/19/19
f 24/24/24 23/23/23 22/22/22
f 27/27/27 26/26/26 25/25/25
f 30/30/30 29/29/29 28/28/28
f 33/33/33 32/32/32 31/31/31
f 36/36/36 35/35/35 34/34/34
f 39/39/39 38/38/38 37/37/37
f 42/42/42 41/41/41 40/40/40
f 45/45/45 44/44/44 43/43/43
f 48/48/48 47/47/47 46/46/46
f 51/51/51 50/50/50 49/49/49
f 54/54/54 53/53/53 52/52/52
f 57/57/57 56/56/56 55/55/55
f 60/60/60 59/59/59 58/58/58
f 63/63/63 62/62/62 61/61/61
f 66/66/66 65/65/65 64/64/64
f 69/69/69 68/68/68 67/67/67
f 72/72/72 71/71/71 70/70/70
f 75/75/75 74/74/74 73/73/73
f 78/78/78 77/77/77 76/76/76
f 81/81/81 80/80/80 79/79/79
f 84/84/84 83/83/83 82/82/82
f 87/87/87 86/86/86 85/85/85
f 90/90/90 89/89/89 88/88/88
f 93/93/93 92/92/92 91/91/91
f 96/96/96 95/95/95 94/94/94
f 99/99/99 98/98/98 97/97/97
f 102/102/102 101/101/101 100/100/100
f 105/105/105 104/104/104 103/103/103
f 108/108/108 107/107/107 106/106/106
f 111/111/111 110/110/110 109/109/109
f 114/114/114 113/113/113 112/112/112
f 117/117/117 116/116/116 115/115/115
f 120/120/120 119/119/119 118/118/118
