# Static pose baked from local Project Zomboid assets
o Bob_Hair_Short
v -0.052592790 0.094793510 0.336766626
v -0.080302001 0.095635365 0.317100451
v -0.061806231 0.077624017 0.313467453
v -0.080302001 0.095635365 0.317100451
v -0.052592790 0.094793510 0.336766626
v -0.079603334 0.102392479 0.336979768
v -0.061419614 0.048402493 0.452936447
v -0.064703656 -0.002056197 0.444373576
v -0.087438571 0.032124431 0.455623515
v -0.036302289 0.070260182 0.380670114
v -0.035739764 0.045788671 0.414343425
v -0.038664264 0.066195533 0.426418925
v -0.035739764 0.045788671 0.414343425
v -0.036302289 0.070260182 0.380670114
v -0.028965280 0.050863379 0.380256662
v -0.042629622 0.085588109 0.382928065
v -0.060839581 0.092762879 0.428146561
v -0.050093487 0.099711574 0.379287998
v -0.042629622 0.085588109 0.382928065
v -0.038664264 0.066195533 0.426418925
v -0.060839581 0.092762879 0.428146561
v -0.036302289 0.070260182 0.380670114
v -0.038664264 0.066195533 0.426418925
v -0.042629622 0.085588109 0.382928065
v -0.079603334 0.102392479 0.336979768
v -0.050093487 0.099711574 0.379287998
v -0.082464516 0.114127124 0.378817642
v -0.050093487 0.099711574 0.379287998
v -0.079603334 0.102392479 0.336979768
v -0.052592790 0.094793510 0.336766626
v -0.127164390 0.105762719 0.376474843
v -0.088825198 0.109337965 0.430893532
v -0.127769965 0.099408365 0.428367766
v -0.088825198 0.109337965 0.430893532
v -0.127164390 0.105762719 0.376474843
v -0.082464516 0.114127124 0.378817642
v -0.032577957 0.009240836 0.433117947
v -0.035739764 0.045788671 0.414343425
v -0.034441791 0.020424371 0.411291516
v -0.045521936 0.058707742 0.441532531
v -0.060839581 0.092762879 0.428146561
v -0.038664264 0.066195533 0.426418925
v -0.060839581 0.092762879 0.428146561
v -0.045521936 0.058707742 0.441532531
v -0.065219259 0.080454010 0.442180800
v -0.088825198 0.109337965 0.430893532
v -0.122171978 0.088232946 0.445192811
v -0.127769965 0.099408365 0.428367766
v -0.032577957 0.009240836 0.433117947
v -0.038664264 0.066195533 0.426418925
v -0.035739764 0.045788671 0.414343425
v -0.038664264 0.066195533 0.426418925
v -0.032577957 0.009240836 0.433117947
v -0.045521936 0.058707742 0.441532531
v -0.110946612 0.089764498 0.308906252
v -0.079603334 0.102392479 0.336979768
v -0.118906569 0.098556795 0.335393621
v -0.079603334 0.102392479 0.336979768
v -0.110946612 0.089764498 0.308906252
v -0.080302001 0.095635365 0.317100451
v -0.118906569 0.098556795 0.335393621
v -0.082464516 0.114127124 0.378817642
v -0.127164390 0.105762719 0.376474843
v -0.082464516 0.114127124 0.378817642
v -0.118906569 0.098556795 0.335393621
v -0.079603334 0.102392479 0.336979768
v -0.088825198 0.109337965 0.430893532
v -0.050093487 0.099711574 0.379287998
v -0.060839581 0.092762879 0.428146561
v -0.050093487 0.099711574 0.379287998
v -0.088825198 0.109337965 0.430893532
v -0.082464516 0.114127124 0.378817642
v -0.065219259 0.080454010 0.442180800
v -0.088825198 0.109337965 0.430893532
v -0.060839581 0.092762879 0.428146561
v -0.027258245 0.052246163 0.357658192
v -0.036302289 0.070260182 0.380670114
v -0.031930806 0.067247602 0.359944275
v -0.036302289 0.070260182 0.380670114
v -0.027258245 0.052246163 0.357658192
v -0.028965280 0.050863379 0.380256662
v -0.061806231 0.077624017 0.313467453
v -0.052351511 0.077300475 0.334133905
v -0.052592790 0.094793510 0.336766626
v -0.052351511 0.077300475 0.334133905
v -0.061806231 0.077624017 0.313467453
v -0.058701853 0.059799396 0.300054837
v -0.052592790 0.094793510 0.336766626
v -0.042629622 0.085588109 0.382928065
v -0.050093487 0.099711574 0.379287998
v -0.042629622 0.085588109 0.382928065
v -0.052592790 0.094793510 0.336766626
v -0.052351511 0.077300475 0.334133905
v -0.061419614 0.048402493 0.452936447
v -0.065219259 0.080454010 0.442180800
v -0.045521936 0.058707742 0.441532531
v -0.065219259 0.080454010 0.442180800
v -0.061419614 0.048402493 0.452936447
v -0.083200722 0.078259400 0.451750597
v -0.053004670 -0.018124662 0.427787786
v -0.064703656 -0.002056197 0.444373576
v -0.032577957 0.009240836 0.433117947
v -0.034441791 0.020424371 0.411291516
v -0.053004670 -0.018124662 0.427787786
v -0.032577957 0.009240836 0.433117947
v -0.053004670 -0.018124662 0.427787786
v -0.034441791 0.020424371 0.411291516
v -0.056324956 -0.009450144 0.403277198
v -0.122171978 0.088232946 0.445192811
v -0.083200722 0.078259400 0.451750597
v -0.109683632 0.067563677 0.452462354
v -0.083200722 0.078259400 0.451750597
v -0.087438571 0.032124431 0.455623515
v -0.109683632 0.067563677 0.452462354
v -0.087438571 0.032124431 0.455623515
v -0.083200722 0.078259400 0.451750597
v -0.061419614 0.048402493 0.452936447
v -0.045521936 0.058707742 0.441532531
v -0.064703656 -0.002056197 0.444373576
v -0.061419614 0.048402493 0.452936447
v -0.064703656 -0.002056197 0.444373576
v -0.045521936 0.058707742 0.441532531
v -0.032577957 0.009240836 0.433117947
v -0.083200722 0.078259400 0.451750597
v -0.088825198 0.109337965 0.430893532
v -0.065219259 0.080454010 0.442180800
v -0.122171978 0.088232946 0.445192811
v -0.088825198 0.109337965 0.430893532
v -0.083200722 0.078259400 0.451750597
v -0.080302001 0.095635365 0.317100451
v -0.063013232 0.074966133 0.323750060
v -0.061806231 0.077624017 0.313467453
v -0.063013232 0.074966133 0.323750060
v -0.080302001 0.095635365 0.317100451
v -0.078765936 0.090306645 0.326843766
v -0.028965280 0.050863379 0.380256662
v -0.035962874 0.040285062 0.409217022
v -0.035739764 0.045788671 0.414343425
v -0.035962874 0.040285062 0.409217022
v -0.028965280 0.050863379 0.380256662
v -0.032283721 0.047869358 0.380378489
v -0.042629622 0.085588109 0.382928065
v -0.041292504 0.068694927 0.380984874
v -0.036302289 0.070260182 0.380670114
v -0.041292504 0.068694927 0.380984874
v -0.042629622 0.085588109 0.382928065
v -0.046680871 0.081749834 0.382907815
v -0.035739764 0.045788671 0.414343425
v -0.039707397 0.026250327 0.407064476
v -0.034441791 0.020424371 0.411291516
v -0.039707397 0.026250327 0.407064476
v -0.035739764 0.045788671 0.414343425
v -0.035962874 0.040285062 0.409217022
v -0.110946612 0.089764498 0.308906252
v -0.078765936 0.090306645 0.326843766
v -0.080302001 0.095635365 0.317100451
v -0.078765936 0.090306645 0.326843766
v -0.110946612 0.089764498 0.308906252
v -0.108142307 0.082768621 0.327259984
v -0.027258245 0.052246163 0.357658192
v -0.032283721 0.047869358 0.380378489
v -0.028965280 0.050863379 0.380256662
v -0.032283721 0.047869358 0.380378489
v -0.027258245 0.052246163 0.357658192
v -0.030638634 0.049750524 0.354003358
v -0.031930806 0.067247602 0.359944275
v -0.030638634 0.049750524 0.354003358
v -0.027258245 0.052246163 0.357658192
v -0.030638634 0.049750524 0.354003358
v -0.031930806 0.067247602 0.359944275
v -0.037305974 0.066719445 0.356198757
v -0.036302289 0.070260182 0.380670114
v -0.037305974 0.066719445 0.356198757
v -0.031930806 0.067247602 0.359944275
v -0.037305974 0.066719445 0.356198757
v -0.036302289 0.070260182 0.380670114
v -0.041292504 0.068694927 0.380984874
v -0.061806231 0.077624017 0.313467453
v -0.060369835 0.059785014 0.312326308
v -0.058701853 0.059799396 0.300054837
v -0.060369835 0.059785014 0.312326308
v -0.061806231 0.077624017 0.313467453
v -0.063013232 0.074966133 0.323750060
v -0.058701853 0.059799396 0.300054837
v -0.054961958 0.074691037 0.341351352
v -0.052351511 0.077300475 0.334133905
v -0.054961958 0.074691037 0.341351352
v -0.058701853 0.059799396 0.300054837
v -0.060369835 0.059785014 0.312326308
v -0.052351511 0.077300475 0.334133905
v -0.046680871 0.081749834 0.382907815
v -0.042629622 0.085588109 0.382928065
v -0.046680871 0.081749834 0.382907815
v -0.052351511 0.077300475 0.334133905
v -0.054961958 0.074691037 0.341351352
v -0.034441791 0.020424371 0.411291516
v -0.061339433 -0.001096285 0.399971366
v -0.056324956 -0.009450144 0.403277198
v -0.061339433 -0.001096285 0.399971366
v -0.034441791 0.020424371 0.411291516
v -0.039707397 0.026250327 0.407064476
v -0.143300804 0.037132252 0.328647402
v -0.130029415 0.064024650 0.312649377
v -0.138924136 0.064683439 0.331669996
v -0.130029415 0.064024650 0.312649377
v -0.143300804 0.037132252 0.328647402
v -0.121052979 0.039962052 0.308164309
v -0.112586037 0.015877028 0.448356569
v -0.087438571 0.032124431 0.455623515
v -0.064703656 -0.002056197 0.444373576
v -0.133560738 0.008434945 0.371964565
v -0.116031378 -0.005251091 0.407156567
v -0.119099370 -0.006433048 0.372188809
v -0.116031378 -0.005251091 0.407156567
v -0.133560738 0.008434945 0.371964565
v -0.134717647 0.005136331 0.417821240
v -0.149623866 0.036324496 0.420199529
v -0.145012960 0.020505083 0.373763789
v -0.154159873 0.033558668 0.369973074
v -0.134717647 0.005136331 0.417821240
v -0.145012960 0.020505083 0.373763789
v -0.149623866 0.036324496 0.420199529
v -0.133560738 0.008434945 0.371964565
v -0.145012960 0.020505083 0.373763789
v -0.134717647 0.005136331 0.417821240
v -0.138924136 0.064683439 0.331669996
v -0.154159873 0.033558668 0.369973074
v -0.143300804 0.037132252 0.328647402
v -0.154159873 0.033558668 0.369973074
v -0.138924136 0.064683439 0.331669996
v -0.153602014 0.068906449 0.372450164
v -0.127164390 0.105762719 0.376474843
v -0.153243960 0.068388255 0.425127445
v -0.153602014 0.068906449 0.372450164
v -0.153243960 0.068388255 0.425127445
v -0.127164390 0.105762719 0.376474843
v -0.127769965 0.099408365 0.428367766
v -0.086822680 -0.025241443 0.428262532
v -0.093348563 -0.017021478 0.406018803
v -0.116031378 -0.005251091 0.407156567
v -0.127037124 0.006890179 0.434236151
v -0.149623866 0.036324496 0.420199529
v -0.138497598 0.033872446 0.435621697
v -0.149623866 0.036324496 0.420199529
v -0.127037124 0.006890179 0.434236151
v -0.134717647 0.005136331 0.417821240
v -0.153243960 0.068388255 0.425127445
v -0.127769965 0.099408365 0.428367766
v -0.122171978 0.088232946 0.445192811
v -0.086822680 -0.025241443 0.428262532
v -0.134717647 0.005136331 0.417821240
v -0.127037124 0.006890179 0.434236151
v -0.134717647 0.005136331 0.417821240
v -0.086822680 -0.025241443 0.428262532
v -0.116031378 -0.005251091 0.407156567
v -0.110946612 0.089764498 0.308906252
v -0.138924136 0.064683439 0.331669996
v -0.130029415 0.064024650 0.312649377
v -0.138924136 0.064683439 0.331669996
v -0.110946612 0.089764498 0.308906252
v -0.118906569 0.098556795 0.335393621
v -0.118906569 0.098556795 0.335393621
v -0.153602014 0.068906449 0.372450164
v -0.138924136 0.064683439 0.331669996
v -0.153602014 0.068906449 0.372450164
v -0.118906569 0.098556795 0.335393621
v -0.127164390 0.105762719 0.376474843
v -0.153243960 0.068388255 0.425127445
v -0.154159873 0.033558668 0.369973074
v -0.153602014 0.068906449 0.372450164
v -0.154159873 0.033558668 0.369973074
v -0.153243960 0.068388255 0.425127445
v -0.149623866 0.036324496 0.420199529
v -0.138497598 0.033872446 0.435621697
v -0.149623866 0.036324496 0.420199529
v -0.153243960 0.068388255 0.425127445
v -0.118190105 -0.005557389 0.349518931
v -0.133560738 0.008434945 0.371964565
v -0.119099370 -0.006433048 0.372188809
v -0.133560738 0.008434945 0.371964565
v -0.118190105 -0.005557389 0.349518931
v -0.130040875 0.004881006 0.351162497
v -0.121052979 0.039962052 0.308164309
v -0.127317951 0.029645818 0.327423700
v -0.104596961 0.030624800 0.295946792
v -0.127317951 0.029645818 0.327423700
v -0.121052979 0.039962052 0.308164309
v -0.143300804 0.037132252 0.328647402
v -0.143300804 0.037132252 0.328647402
v -0.145012960 0.020505083 0.373763789
v -0.127317951 0.029645818 0.327423700
v -0.145012960 0.020505083 0.373763789
v -0.143300804 0.037132252 0.328647402
v -0.154159873 0.033558668 0.369973074
v -0.112586037 0.015877028 0.448356569
v -0.138497598 0.033872446 0.435621697
v -0.130248718 0.048351937 0.447539357
v -0.138497598 0.033872446 0.435621697
v -0.112586037 0.015877028 0.448356569
v -0.127037124 0.006890179 0.434236151
v -0.053004670 -0.018124662 0.427787786
v -0.086822680 -0.025241443 0.428262532
v -0.064703656 -0.002056197 0.444373576
v -0.093348563 -0.017021478 0.406018803
v -0.053004670 -0.018124662 0.427787786
v -0.056324956 -0.009450144 0.403277198
v -0.053004670 -0.018124662 0.427787786
v -0.093348563 -0.017021478 0.406018803
v -0.086822680 -0.025241443 0.428262532
v -0.122171978 0.088232946 0.445192811
v -0.109683632 0.067563677 0.452462354
v -0.130248718 0.048351937 0.447539357
v -0.130248718 0.048351937 0.447539357
v -0.087438571 0.032124431 0.455623515
v -0.112586037 0.015877028 0.448356569
v -0.087438571 0.032124431 0.455623515
v -0.130248718 0.048351937 0.447539357
v -0.109683632 0.067563677 0.452462354
v -0.127037124 0.006890179 0.434236151
v -0.064703656 -0.002056197 0.444373576
v -0.086822680 -0.025241443 0.428262532
v -0.064703656 -0.002056197 0.444373576
v -0.127037124 0.006890179 0.434236151
v -0.112586037 0.015877028 0.448356569
v -0.130248718 0.048351937 0.447539357
v -0.138497598 0.033872446 0.435621697
v -0.153243960 0.068388255 0.425127445
v -0.122171978 0.088232946 0.445192811
v -0.130248718 0.048351937 0.447539357
v -0.153243960 0.068388255 0.425127445
v -0.130029415 0.064024650 0.312649377
v -0.119461068 0.039083380 0.318697445
v -0.127106514 0.059577513 0.322516828
v -0.119461068 0.039083380 0.318697445
v -0.130029415 0.064024650 0.312649377
v -0.121052979 0.039962052 0.308164309
v -0.119099370 -0.006433048 0.372188809
v -0.110333515 -0.006990857 0.402560147
v -0.115037637 -0.004735640 0.372971232
v -0.110333515 -0.006990857 0.402560147
v -0.119099370 -0.006433048 0.372188809
v -0.116031378 -0.005251091 0.407156567
v -0.145012960 0.020505083 0.373763789
v -0.130113819 0.012233005 0.373034527
v -0.139868016 0.022512642 0.374566686
v -0.130113819 0.012233005 0.373034527
v -0.145012960 0.020505083 0.373763789
v -0.133560738 0.008434945 0.371964565
v -0.116031378 -0.005251091 0.407156567
v -0.095865748 -0.009448406 0.402037773
v -0.110333515 -0.006990857 0.402560147
v -0.095865748 -0.009448406 0.402037773
v -0.116031378 -0.005251091 0.407156567
v -0.093348563 -0.017021478 0.406018803
v -0.110946612 0.089764498 0.308906252
v -0.127106514 0.059577513 0.322516828
v -0.108142307 0.082768621 0.327259984
v -0.127106514 0.059577513 0.322516828
v -0.110946612 0.089764498 0.308906252
v -0.130029415 0.064024650 0.312649377
v -0.118190105 -0.005557389 0.349518931
v -0.115037637 -0.004735640 0.372971232
v -0.114072504 -0.003286707 0.346535239
v -0.115037637 -0.004735640 0.372971232
v -0.118190105 -0.005557389 0.349518931
v -0.119099370 -0.006433048 0.372188809
v -0.130040875 0.004881006 0.351162497
v -0.114072504 -0.003286707 0.346535239
v -0.126852680 0.009796407 0.348183481
v -0.114072504 -0.003286707 0.346535239
v -0.130040875 0.004881006 0.351162497
v -0.118190105 -0.005557389 0.349518931
v -0.133560738 0.008434945 0.371964565
v -0.126852680 0.009796407 0.348183481
v -0.130113819 0.012233005 0.373034527
v -0.126852680 0.009796407 0.348183481
v -0.133560738 0.008434945 0.371964565
v -0.130040875 0.004881006 0.351162497
v -0.121052979 0.039962052 0.308164309
v -0.105445298 0.031131451 0.308291628
v -0.119461068 0.039083380 0.318697445
v -0.105445298 0.031131451 0.308291628
v -0.121052979 0.039962052 0.308164309
v -0.104596961 0.030624800 0.295946792
v -0.104596961 0.030624800 0.295946792
v -0.124796775 0.030298450 0.335100476
v -0.105445298 0.031131451 0.308291628
v -0.124796775 0.030298450 0.335100476
v -0.104596961 0.030624800 0.295946792
v -0.127317951 0.029645818 0.327423700
v -0.127317951 0.029645818 0.327423700
v -0.139868016 0.022512642 0.374566686
v -0.124796775 0.030298450 0.335100476
v -0.139868016 0.022512642 0.374566686
v -0.127317951 0.029645818 0.327423700
v -0.145012960 0.020505083 0.373763789
v -0.093348563 -0.017021478 0.406018803
v -0.061339433 -0.001096285 0.399971366
v -0.095865748 -0.009448406 0.402037773
v -0.061339433 -0.001096285 0.399971366
v -0.093348563 -0.017021478 0.406018803
v -0.056324956 -0.009450144 0.403277198
vt 0.231472000 0.269191027
vt 0.311340988 0.298097968
vt 0.243588999 0.307554007
vt 0.311340988 0.298097968
vt 0.231472000 0.269191027
vt 0.299506992 0.271335006
vt 0.245623007 0.091320992
vt 0.174061000 0.037231982
vt 0.289168000 0.058817029
vt 0.139311999 0.192520976
vt 0.130154997 0.130401969
vt 0.186589003 0.137696981
vt 0.130154997 0.130401969
vt 0.139311999 0.192520976
vt 0.096551999 0.173452973
vt 0.177185997 0.208970010
vt 0.255980998 0.153638005
vt 0.213566005 0.215201974
vt 0.177185997 0.208970010
vt 0.186589003 0.137696981
vt 0.255980998 0.153638005
vt 0.139311999 0.192520976
vt 0.186589003 0.137696981
vt 0.177185997 0.208970010
vt 0.299506992 0.271335006
vt 0.213566005 0.215201974
vt 0.295488000 0.218972981
vt 0.213566005 0.215201974
vt 0.299506992 0.271335006
vt 0.231472000 0.269191027
vt 0.397085011 0.219743013
vt 0.319485009 0.159254014
vt 0.397762001 0.158024013
vt 0.319485009 0.159254014
vt 0.397085011 0.219743013
vt 0.295488000 0.218972981
vt 0.124989003 0.076780021
vt 0.130154997 0.130401969
vt 0.093029000 0.101359010
vt 0.210366994 0.115438998
vt 0.255980998 0.153638005
vt 0.186589003 0.137696981
vt 0.255980998 0.153638005
vt 0.210366994 0.115438998
vt 0.266377002 0.128005981
vt 0.319485009 0.159254014
vt 0.398012012 0.133623004
vt 0.397762001 0.158024013
vt 0.124989003 0.076780021
vt 0.186589003 0.137696981
vt 0.130154997 0.130401969
vt 0.186589003 0.137696981
vt 0.124989003 0.076780021
vt 0.210366994 0.115438998
vt 0.396254987 0.299126029
vt 0.299506992 0.271335006
vt 0.396586001 0.267223001
vt 0.299506992 0.271335006
vt 0.396254987 0.299126029
vt 0.311340988 0.298097968
vt 0.396586001 0.267223001
vt 0.295488000 0.218972981
vt 0.397085011 0.219743013
vt 0.295488000 0.218972981
vt 0.396586001 0.267223001
vt 0.299506992 0.271335006
vt 0.319485009 0.159254014
vt 0.213566005 0.215201974
vt 0.255980998 0.153638005
vt 0.213566005 0.215201974
vt 0.319485009 0.159254014
vt 0.295488000 0.218972981
vt 0.266377002 0.128005981
vt 0.319485009 0.159254014
vt 0.255980998 0.153638005
vt 0.062592000 0.195635021
vt 0.139311999 0.192520976
vt 0.092519999 0.206597984
vt 0.139311999 0.192520976
vt 0.062592000 0.195635021
vt 0.096551999 0.173452973
vt 0.243588999 0.307554007
vt 0.196217000 0.278376997
vt 0.231472000 0.269191027
vt 0.196217000 0.278376997
vt 0.243588999 0.307554007
vt 0.208454996 0.325343966
vt 0.231472000 0.269191027
vt 0.177185997 0.208970010
vt 0.213566005 0.215201974
vt 0.177185997 0.208970010
vt 0.231472000 0.269191027
vt 0.196217000 0.278376997
vt 0.245623007 0.091320992
vt 0.266377002 0.128005981
vt 0.210366994 0.115438998
vt 0.266377002 0.128005981
vt 0.245623007 0.091320992
vt 0.316464990 0.114346027
vt 0.096952997 0.038388014
vt 0.174061000 0.037231982
vt 0.124989003 0.076780021
vt 0.093029000 0.101359010
vt 0.096952997 0.038388014
vt 0.124989003 0.076780021
vt 0.096952997 0.038388014
vt 0.093029000 0.101359010
vt 0.039018001 0.060724974
vt 0.398012012 0.133623004
vt 0.316464990 0.114346027
vt 0.398351997 0.099462986
vt 0.316464990 0.114346027
vt 0.289168000 0.058817029
vt 0.398351997 0.099462986
vt 0.289168000 0.058817029
vt 0.316464990 0.114346027
vt 0.245623007 0.091320992
vt 0.210366994 0.115438998
vt 0.174061000 0.037231982
vt 0.245623007 0.091320992
vt 0.174061000 0.037231982
vt 0.210366994 0.115438998
vt 0.124989003 0.076780021
vt 0.316464990 0.114346027
vt 0.319485009 0.159254014
vt 0.266377002 0.128005981
vt 0.398012012 0.133623004
vt 0.319485009 0.159254014
vt 0.316464990 0.114346027
vt 0.311340988 0.298097968
vt 0.260289997 0.320204020
vt 0.243588999 0.307554007
vt 0.260289997 0.320204020
vt 0.311340988 0.298097968
vt 0.311482012 0.313256025
vt 0.096551999 0.173452973
vt 0.110900000 0.129186988
vt 0.130154997 0.130401969
vt 0.110900000 0.129186988
vt 0.096551999 0.173452973
vt 0.088729002 0.168857992
vt 0.177185997 0.208970010
vt 0.141003996 0.198900998
vt 0.139311999 0.192520976
vt 0.141003996 0.198900998
vt 0.177185997 0.208970010
vt 0.163987994 0.213379979
vt 0.130154997 0.130401969
vt 0.082898997 0.110795975
vt 0.093029000 0.101359010
vt 0.082898997 0.110795975
vt 0.130154997 0.130401969
vt 0.110900000 0.129186988
vt 0.396254987 0.299126029
vt 0.311482012 0.313256025
vt 0.311340988 0.298097968
vt 0.311482012 0.313256025
vt 0.396254987 0.299126029
vt 0.396023005 0.321511030
vt 0.062592000 0.195635021
vt 0.088729002 0.168857992
vt 0.096551999 0.173452973
vt 0.088729002 0.168857992
vt 0.062592000 0.195635021
vt 0.050524998 0.197710037
vt 0.092519999 0.206597984
vt 0.050524998 0.197710037
vt 0.062592000 0.195635021
vt 0.050524998 0.197710037
vt 0.092519999 0.206597984
vt 0.088462003 0.214053035
vt 0.139311999 0.192520976
vt 0.088462003 0.214053035
vt 0.092519999 0.206597984
vt 0.088462003 0.214053035
vt 0.139311999 0.192520976
vt 0.141003996 0.198900998
vt 0.243588999 0.307554007
vt 0.208065003 0.321933031
vt 0.208454996 0.325343966
vt 0.208065003 0.321933031
vt 0.243588999 0.307554007
vt 0.260289997 0.320204020
vt 0.208454996 0.325343966
vt 0.178407997 0.272451997
vt 0.196217000 0.278376997
vt 0.178407997 0.272451997
vt 0.208454996 0.325343966
vt 0.208065003 0.321933031
vt 0.196217000 0.278376997
vt 0.163987994 0.213379979
vt 0.177185997 0.208970010
vt 0.163987994 0.213379979
vt 0.196217000 0.278376997
vt 0.178407997 0.272451997
vt 0.093029000 0.101359010
vt 0.025242999 0.073077977
vt 0.039018001 0.060724974
vt 0.025242999 0.073077977
vt 0.093029000 0.101359010
vt 0.082898997 0.110795975
vt 0.561630011 0.270137012
vt 0.481184006 0.298583031
vt 0.493566990 0.271888971
vt 0.481184006 0.298583031
vt 0.561630011 0.270137012
vt 0.548731983 0.308427989
vt 0.551253021 0.092194974
vt 0.508328974 0.059454978
vt 0.623642981 0.038424015
vt 0.655161977 0.194045007
vt 0.666571021 0.131835997
vt 0.698036015 0.175338030
vt 0.666571021 0.131835997
vt 0.655161977 0.194045007
vt 0.609579027 0.138836980
vt 0.539686978 0.154408991
vt 0.617075026 0.210240006
vt 0.580617011 0.216246009
vt 0.609579027 0.138836980
vt 0.617075026 0.210240006
vt 0.539686978 0.154408991
vt 0.655161977 0.194045007
vt 0.617075026 0.210240006
vt 0.609579027 0.138836980
vt 0.493566990 0.271888971
vt 0.580617011 0.216246009
vt 0.561630011 0.270137012
vt 0.580617011 0.216246009
vt 0.493566990 0.271888971
vt 0.498676002 0.219547987
vt 0.397085011 0.219743013
vt 0.476029992 0.159684002
vt 0.498676002 0.219547987
vt 0.476029992 0.159684002
vt 0.397085011 0.219743013
vt 0.397762001 0.158024013
vt 0.672026992 0.078193009
vt 0.703835011 0.102828979
vt 0.666571021 0.131835997
vt 0.586139977 0.116492033
vt 0.539686978 0.154408991
vt 0.529814005 0.128735006
vt 0.539686978 0.154408991
vt 0.586139977 0.116492033
vt 0.609579027 0.138836980
vt 0.476029992 0.159684002
vt 0.397762001 0.158024013
vt 0.398012012 0.133623004
vt 0.672026992 0.078193009
vt 0.609579027 0.138836980
vt 0.586139977 0.116492033
vt 0.609579027 0.138836980
vt 0.672026992 0.078193009
vt 0.666571021 0.131835997
vt 0.396254987 0.299126029
vt 0.493566990 0.271888971
vt 0.481184006 0.298583031
vt 0.493566990 0.271888971
vt 0.396254987 0.299126029
vt 0.396586001 0.267223001
vt 0.396586001 0.267223001
vt 0.498676002 0.219547987
vt 0.493566990 0.271888971
vt 0.498676002 0.219547987
vt 0.396586001 0.267223001
vt 0.397085011 0.219743013
vt 0.476029992 0.159684002
vt 0.580617011 0.216246009
vt 0.498676002 0.219547987
vt 0.580617011 0.216246009
vt 0.476029992 0.159684002
vt 0.539686978 0.154408991
vt 0.529814005 0.128735006
vt 0.539686978 0.154408991
vt 0.476029992 0.159684002
vt 0.731719971 0.197631001
vt 0.655161977 0.194045007
vt 0.698036015 0.175338030
vt 0.655161977 0.194045007
vt 0.731719971 0.197631001
vt 0.701600015 0.208433986
vt 0.548731983 0.308427989
vt 0.596689999 0.279528022
vt 0.583496988 0.326421022
vt 0.596689999 0.279528022
vt 0.548731983 0.308427989
vt 0.561630011 0.270137012
vt 0.561630011 0.270137012
vt 0.617075026 0.210240006
vt 0.596689999 0.279528022
vt 0.617075026 0.210240006
vt 0.561630011 0.270137012
vt 0.580617011 0.216246009
vt 0.551253021 0.092194974
vt 0.529814005 0.128735006
vt 0.479947001 0.114804983
vt 0.529814005 0.128735006
vt 0.551253021 0.092194974
vt 0.586139977 0.116492033
vt 0.700621009 0.039879024
vt 0.672026992 0.078193009
vt 0.623642981 0.038424015
vt 0.703835011 0.102828979
vt 0.700621009 0.039879024
vt 0.758270979 0.062367976
vt 0.700621009 0.039879024
vt 0.703835011 0.102828979
vt 0.672026992 0.078193009
vt 0.398012012 0.133623004
vt 0.398351997 0.099462986
vt 0.479947001 0.114804983
vt 0.479947001 0.114804983
vt 0.508328974 0.059454978
vt 0.551253021 0.092194974
vt 0.508328974 0.059454978
vt 0.479947001 0.114804983
vt 0.398351997 0.099462986
vt 0.586139977 0.116492033
vt 0.623642981 0.038424015
vt 0.672026992 0.078193009
vt 0.623642981 0.038424015
vt 0.586139977 0.116492033
vt 0.551253021 0.092194974
vt 0.479947001 0.114804983
vt 0.529814005 0.128735006
vt 0.476029992 0.159684002
vt 0.398012012 0.133623004
vt 0.479947001 0.114804983
vt 0.476029992 0.159684002
vt 0.481184006 0.298583031
vt 0.531772017 0.320981026
vt 0.480729014 0.313739002
vt 0.531772017 0.320981026
vt 0.481184006 0.298583031
vt 0.548731983 0.308427989
vt 0.698036015 0.175338030
vt 0.685962975 0.130748987
vt 0.705775976 0.170845985
vt 0.685962975 0.130748987
vt 0.698036015 0.175338030
vt 0.666571021 0.131835997
vt 0.617075026 0.210240006
vt 0.653364003 0.200389028
vt 0.630153000 0.214730024
vt 0.653364003 0.200389028
vt 0.617075026 0.210240006
vt 0.655161977 0.194045007
vt 0.666571021 0.131835997
vt 0.713918984 0.112308025
vt 0.685962975 0.130748987
vt 0.713918984 0.112308025
vt 0.666571021 0.131835997
vt 0.703835011 0.102828979
vt 0.396254987 0.299126029
vt 0.480729014 0.313739002
vt 0.396023005 0.321511030
vt 0.480729014 0.313739002
vt 0.396254987 0.299126029
vt 0.481184006 0.298583031
vt 0.731719971 0.197631001
vt 0.705775976 0.170845985
vt 0.743750989 0.199755013
vt 0.705775976 0.170845985
vt 0.731719971 0.197631001
vt 0.698036015 0.175338030
vt 0.701600015 0.208433986
vt 0.743750989 0.199755013
vt 0.705498993 0.215909004
vt 0.743750989 0.199755013
vt 0.701600015 0.208433986
vt 0.731719971 0.197631001
vt 0.655161977 0.194045007
vt 0.705498993 0.215909004
vt 0.653364003 0.200389028
vt 0.705498993 0.215909004
vt 0.655161977 0.194045007
vt 0.701600015 0.208433986
vt 0.548731983 0.308427989
vt 0.583953977 0.323011041
vt 0.531772017 0.320981026
vt 0.583953977 0.323011041
vt 0.548731983 0.308427989
vt 0.583496988 0.326421022
vt 0.583496988 0.326421022
vt 0.614612997 0.273705959
vt 0.583953977 0.323011041
vt 0.614612997 0.273705959
vt 0.583496988 0.326421022
vt 0.596689999 0.279528022
vt 0.596689999 0.279528022
vt 0.630153000 0.214730024
vt 0.614612997 0.273705959
vt 0.630153000 0.214730024
vt 0.596689999 0.279528022
vt 0.617075026 0.210240006
vt 0.703835011 0.102828979
vt 0.771929026 0.074750006
vt 0.713918984 0.112308025
vt 0.771929026 0.074750006
vt 0.703835011 0.102828979
vt 0.758270979 0.062367976
vn 0.684830623 0.654902911 -0.319545292
vn 0.120504819 0.632976541 -0.764734782
vn 0.423308341 0.404587508 -0.810628767
vn 0.120504819 0.632976541 -0.764734782
vn 0.684830623 0.654902911 -0.319545292
vn 0.119139393 0.957958127 -0.261001978
vn 0.337042244 0.028119965 0.941069494
vn 0.151718423 -0.367852609 0.917423554
vn -0.031425106 -0.090723064 0.995380223
vn 0.932894494 0.350963075 0.080825632
vn 0.990867253 0.126171174 0.047570185
vn 0.906299553 0.351927130 0.234026526
vn 0.990867253 0.126171174 0.047570185
vn 0.932894494 0.350963075 0.080825632
vn 0.978690014 0.133288922 0.156204735
vn 0.915973224 0.399247762 0.039928406
vn 0.658724020 0.661199865 0.359022845
vn 0.518715787 0.854203605 0.035638929
vn 0.915973224 0.399247762 0.039928406
vn 0.906299553 0.351927130 0.234026526
vn 0.658724020 0.661199865 0.359022845
vn 0.932894494 0.350963075 0.080825632
vn 0.906299553 0.351927130 0.234026526
vn 0.915973224 0.399247762 0.039928406
vn 0.119139393 0.957958127 -0.261001978
vn 0.518715787 0.854203605 0.035638929
vn 0.049415834 0.994816057 -0.088876813
vn 0.518715787 0.854203605 0.035638929
vn 0.119139393 0.957958127 -0.261001978
vn 0.684830623 0.654902911 -0.319545292
vn -0.534597216 0.844695950 -0.026354663
vn 0.089653463 0.930994192 0.353853178
vn -0.535634259 0.808109594 0.245060861
vn 0.089653463 0.930994192 0.353853178
vn -0.534597216 0.844695950 -0.026354663
vn 0.049415834 0.994816057 -0.088876813
vn 0.827750154 -0.147868796 0.541261954
vn 0.990867253 0.126171174 0.047570185
vn 0.834038112 -0.326500018 -0.444722572
vn 0.592622181 0.124099606 0.795863203
vn 0.658724020 0.661199865 0.359022845
vn 0.906299553 0.351927130 0.234026526
vn 0.658724020 0.661199865 0.359022845
vn 0.592622181 0.124099606 0.795863203
vn 0.427510918 0.476922653 0.767970831
vn 0.089653463 0.930994192 0.353853178
vn -0.348983218 0.431884497 0.831676917
vn -0.535634259 0.808109594 0.245060861
vn 0.827750154 -0.147868796 0.541261954
vn 0.906299553 0.351927130 0.234026526
vn 0.990867253 0.126171174 0.047570185
vn 0.906299553 0.351927130 0.234026526
vn 0.827750154 -0.147868796 0.541261954
vn 0.592622181 0.124099606 0.795863203
vn -0.237368671 0.491401740 -0.837962078
vn 0.119139393 0.957958127 -0.261001978
vn -0.488681654 0.813243229 -0.315952040
vn 0.119139393 0.957958127 -0.261001978
vn -0.237368671 0.491401740 -0.837962078
vn 0.120504819 0.632976541 -0.764734782
vn -0.488681654 0.813243229 -0.315952040
vn 0.049415834 0.994816057 -0.088876813
vn -0.534597216 0.844695950 -0.026354663
vn 0.049415834 0.994816057 -0.088876813
vn -0.488681654 0.813243229 -0.315952040
vn 0.119139393 0.957958127 -0.261001978
vn 0.089653463 0.930994192 0.353853178
vn 0.518715787 0.854203605 0.035638929
vn 0.658724020 0.661199865 0.359022845
vn 0.518715787 0.854203605 0.035638929
vn 0.089653463 0.930994192 0.353853178
vn 0.049415834 0.994816057 -0.088876813
vn 0.427510918 0.476922653 0.767970831
vn 0.089653463 0.930994192 0.353853178
vn 0.658724020 0.661199865 0.359022845
vn 0.992972069 0.113755456 0.032652210
vn 0.932894494 0.350963075 0.080825632
vn 0.808419586 0.536900390 -0.241237941
vn 0.932894494 0.350963075 0.080825632
vn 0.992972069 0.113755456 0.032652210
vn 0.978690014 0.133288922 0.156204735
vn 0.423308341 0.404587508 -0.810628767
vn 0.969282383 -0.110340264 -0.219810574
vn 0.684830623 0.654902911 -0.319545292
vn 0.969282383 -0.110340264 -0.219810574
vn 0.423308341 0.404587508 -0.810628767
vn 0.959808139 -0.129150701 -0.249175507
vn 0.684830623 0.654902911 -0.319545292
vn 0.915973224 0.399247762 0.039928406
vn 0.518715787 0.854203605 0.035638929
vn 0.915973224 0.399247762 0.039928406
vn 0.684830623 0.654902911 -0.319545292
vn 0.969282383 -0.110340264 -0.219810574
vn 0.337042244 0.028119965 0.941069494
vn 0.427510918 0.476922653 0.767970831
vn 0.592622181 0.124099606 0.795863203
vn 0.427510918 0.476922653 0.767970831
vn 0.337042244 0.028119965 0.941069494
vn 0.093832108 0.324141693 0.941343560
vn 0.535905608 -0.844235448 0.008466893
vn 0.151718423 -0.367852609 0.917423554
vn 0.827750154 -0.147868796 0.541261954
vn 0.834038112 -0.326500018 -0.444722572
vn 0.535905608 -0.844235448 0.008466893
vn 0.827750154 -0.147868796 0.541261954
vn 0.535905608 -0.844235448 0.008466893
vn 0.834038112 -0.326500018 -0.444722572
vn 0.480137290 -0.676722605 -0.558135018
vn -0.348983218 0.431884497 0.831676917
vn 0.093832108 0.324141693 0.941343560
vn -0.146780010 0.092225189 0.984860469
vn 0.093832108 0.324141693 0.941343560
vn -0.031425106 -0.090723064 0.995380223
vn -0.146780010 0.092225189 0.984860469
vn -0.031425106 -0.090723064 0.995380223
vn 0.093832108 0.324141693 0.941343560
vn 0.337042244 0.028119965 0.941069494
vn 0.592622181 0.124099606 0.795863203
vn 0.151718423 -0.367852609 0.917423554
vn 0.337042244 0.028119965 0.941069494
vn 0.151718423 -0.367852609 0.917423554
vn 0.592622181 0.124099606 0.795863203
vn 0.827750154 -0.147868796 0.541261954
vn 0.093832108 0.324141693 0.941343560
vn 0.089653463 0.930994192 0.353853178
vn 0.427510918 0.476922653 0.767970831
vn -0.348983218 0.431884497 0.831676917
vn 0.089653463 0.930994192 0.353853178
vn 0.093832108 0.324141693 0.941343560
vn 0.120504819 0.632976541 -0.764734782
vn -0.814206833 -0.531760323 -0.233019725
vn 0.423308341 0.404587508 -0.810628767
vn -0.814206833 -0.531760323 -0.233019725
vn 0.120504819 0.632976541 -0.764734782
vn 0.064619423 -0.904330616 -0.421912867
vn 0.978690014 0.133288922 0.156204735
vn 0.912303697 -0.397046177 0.100281091
vn 0.990867253 0.126171174 0.047570185
vn 0.912303697 -0.397046177 0.100281091
vn 0.978690014 0.133288922 0.156204735
vn 0.647283195 -0.760886121 -0.045571657
vn 0.915973224 0.399247762 0.039928406
vn -0.237322086 0.603570809 -0.761170484
vn 0.932894494 0.350963075 0.080825632
vn -0.237322086 0.603570809 -0.761170484
vn 0.915973224 0.399247762 0.039928406
vn 0.679174245 -0.716083214 -0.161081269
vn 0.990867253 0.126171174 0.047570185
vn 0.667044036 -0.099952102 -0.738283029
vn 0.834038112 -0.326500018 -0.444722572
vn 0.667044036 -0.099952102 -0.738283029
vn 0.990867253 0.126171174 0.047570185
vn 0.912303697 -0.397046177 0.100281091
vn -0.237368671 0.491401740 -0.837962078
vn 0.064619423 -0.904330616 -0.421912867
vn 0.120504819 0.632976541 -0.764734782
vn 0.064619423 -0.904330616 -0.421912867
vn -0.237368671 0.491401740 -0.837962078
vn 0.521400627 -0.767798197 -0.372326893
vn 0.992972069 0.113755456 0.032652210
vn 0.647283195 -0.760886121 -0.045571657
vn 0.978690014 0.133288922 0.156204735
vn 0.647283195 -0.760886121 -0.045571657
vn 0.992972069 0.113755456 0.032652210
vn 0.749204405 -0.136617090 -0.648096081
vn 0.808419586 0.536900390 -0.241237941
vn 0.749204405 -0.136617090 -0.648096081
vn 0.992972069 0.113755456 0.032652210
vn 0.749204405 -0.136617090 -0.648096081
vn 0.808419586 0.536900390 -0.241237941
vn 0.073870241 0.909205808 -0.409741365
vn 0.932894494 0.350963075 0.080825632
vn 0.073870241 0.909205808 -0.409741365
vn 0.808419586 0.536900390 -0.241237941
vn 0.073870241 0.909205808 -0.409741365
vn 0.932894494 0.350963075 0.080825632
vn -0.237322086 0.603570809 -0.761170484
vn 0.423308341 0.404587508 -0.810628767
vn -0.833747134 -0.540267151 -0.113917173
vn 0.959808139 -0.129150701 -0.249175507
vn -0.833747134 -0.540267151 -0.113917173
vn 0.423308341 0.404587508 -0.810628767
vn -0.814206833 -0.531760323 -0.233019725
vn 0.959808139 -0.129150701 -0.249175507
vn 0.798338059 -0.597821311 0.072567381
vn 0.969282383 -0.110340264 -0.219810574
vn 0.798338059 -0.597821311 0.072567381
vn 0.959808139 -0.129150701 -0.249175507
vn -0.833747134 -0.540267151 -0.113917173
vn 0.969282383 -0.110340264 -0.219810574
vn 0.679174245 -0.716083214 -0.161081269
vn 0.915973224 0.399247762 0.039928406
vn 0.679174245 -0.716083214 -0.161081269
vn 0.969282383 -0.110340264 -0.219810574
vn 0.798338059 -0.597821311 0.072567381
vn 0.834038112 -0.326500018 -0.444722572
vn 0.257386828 -0.274437993 -0.926518110
vn 0.480137290 -0.676722605 -0.558135018
vn 0.257386828 -0.274437993 -0.926518110
vn 0.834038112 -0.326500018 -0.444722572
vn 0.667044036 -0.099952102 -0.738283029
vn -0.834234928 -0.310736511 -0.455516087
vn -0.523109645 0.223843758 -0.822344375
vn -0.878993198 0.323465312 -0.350344332
vn -0.523109645 0.223843758 -0.822344375
vn -0.834234928 -0.310736511 -0.455516087
vn -0.437731477 -0.142758190 -0.887699979
vn -0.284941879 -0.367262837 0.885396033
vn -0.031425106 -0.090723064 0.995380223
vn 0.151718423 -0.367852609 0.917423554
vn -0.714621417 -0.696329649 -0.066642703
vn -0.532153860 -0.841982705 -0.088754682
vn -0.547264589 -0.836729724 0.019617292
vn -0.532153860 -0.841982705 -0.088754682
vn -0.714621417 -0.696329649 -0.066642703
vn -0.723839163 -0.684319265 0.088113616
vn -0.915060767 -0.339223460 0.218154157
vn -0.745864105 -0.657148800 -0.108821832
vn -0.989541709 -0.104565343 -0.099364455
vn -0.723839163 -0.684319265 0.088113616
vn -0.745864105 -0.657148800 -0.108821832
vn -0.915060767 -0.339223460 0.218154157
vn -0.714621417 -0.696329649 -0.066642703
vn -0.745864105 -0.657148800 -0.108821832
vn -0.723839163 -0.684319265 0.088113616
vn -0.878993198 0.323465312 -0.350344332
vn -0.989541709 -0.104565343 -0.099364455
vn -0.834234928 -0.310736511 -0.455516087
vn -0.989541709 -0.104565343 -0.099364455
vn -0.878993198 0.323465312 -0.350344332
vn -0.904970760 0.388131703 -0.174303486
vn -0.534597216 0.844695950 -0.026354663
vn -0.920389052 0.288930510 0.263444783
vn -0.904970760 0.388131703 -0.174303486
vn -0.920389052 0.288930510 0.263444783
vn -0.534597216 0.844695950 -0.026354663
vn -0.535634259 0.808109594 0.245060861
vn -0.280104146 -0.852109504 0.442098473
vn 0.003103473 -0.854708424 -0.519099103
vn -0.532153860 -0.841982705 -0.088754682
vn -0.459352385 -0.544619477 0.701701512
vn -0.915060767 -0.339223460 0.218154157
vn -0.704733588 -0.242822394 0.666624223
vn -0.915060767 -0.339223460 0.218154157
vn -0.459352385 -0.544619477 0.701701512
vn -0.723839163 -0.684319265 0.088113616
vn -0.920389052 0.288930510 0.263444783
vn -0.535634259 0.808109594 0.245060861
vn -0.348983218 0.431884497 0.831676917
vn -0.280104146 -0.852109504 0.442098473
vn -0.723839163 -0.684319265 0.088113616
vn -0.459352385 -0.544619477 0.701701512
vn -0.723839163 -0.684319265 0.088113616
vn -0.280104146 -0.852109504 0.442098473
vn -0.532153860 -0.841982705 -0.088754682
vn -0.237368671 0.491401740 -0.837962078
vn -0.878993198 0.323465312 -0.350344332
vn -0.523109645 0.223843758 -0.822344375
vn -0.878993198 0.323465312 -0.350344332
vn -0.237368671 0.491401740 -0.837962078
vn -0.488681654 0.813243229 -0.315952040
vn -0.488681654 0.813243229 -0.315952040
vn -0.904970760 0.388131703 -0.174303486
vn -0.878993198 0.323465312 -0.350344332
vn -0.904970760 0.388131703 -0.174303486
vn -0.488681654 0.813243229 -0.315952040
vn -0.534597216 0.844695950 -0.026354663
vn -0.920389052 0.288930510 0.263444783
vn -0.989541709 -0.104565343 -0.099364455
vn -0.904970760 0.388131703 -0.174303486
vn -0.989541709 -0.104565343 -0.099364455
vn -0.920389052 0.288930510 0.263444783
vn -0.915060767 -0.339223460 0.218154157
vn -0.704733588 -0.242822394 0.666624223
vn -0.915060767 -0.339223460 0.218154157
vn -0.920389052 0.288930510 0.263444783
vn -0.519960662 -0.847985441 -0.102769650
vn -0.714621417 -0.696329649 -0.066642703
vn -0.547264589 -0.836729724 0.019617292
vn -0.714621417 -0.696329649 -0.066642703
vn -0.519960662 -0.847985441 -0.102769650
vn -0.789374598 -0.478785235 -0.384255700
vn -0.437731477 -0.142758190 -0.887699979
vn -0.276331441 -0.902151892 -0.331304842
vn -0.251728659 -0.899300248 -0.357619555
vn -0.276331441 -0.902151892 -0.331304842
vn -0.437731477 -0.142758190 -0.887699979
vn -0.834234928 -0.310736511 -0.455516087
vn -0.834234928 -0.310736511 -0.455516087
vn -0.745864105 -0.657148800 -0.108821832
vn -0.276331441 -0.902151892 -0.331304842
vn -0.745864105 -0.657148800 -0.108821832
vn -0.834234928 -0.310736511 -0.455516087
vn -0.989541709 -0.104565343 -0.099364455
vn -0.284941879 -0.367262837 0.885396033
vn -0.704733588 -0.242822394 0.666624223
vn -0.450238956 -0.021713329 0.892644058
vn -0.704733588 -0.242822394 0.666624223
vn -0.284941879 -0.367262837 0.885396033
vn -0.459352385 -0.544619477 0.701701512
vn 0.535905608 -0.844235448 0.008466893
vn -0.280104146 -0.852109504 0.442098473
vn 0.151718423 -0.367852609 0.917423554
vn 0.003103473 -0.854708424 -0.519099103
vn 0.535905608 -0.844235448 0.008466893
vn 0.480137290 -0.676722605 -0.558135018
vn 0.535905608 -0.844235448 0.008466893
vn 0.003103473 -0.854708424 -0.519099103
vn -0.280104146 -0.852109504 0.442098473
vn -0.348983218 0.431884497 0.831676917
vn -0.146780010 0.092225189 0.984860469
vn -0.450238956 -0.021713329 0.892644058
vn -0.450238956 -0.021713329 0.892644058
vn -0.031425106 -0.090723064 0.995380223
vn -0.284941879 -0.367262837 0.885396033
vn -0.031425106 -0.090723064 0.995380223
vn -0.450238956 -0.021713329 0.892644058
vn -0.146780010 0.092225189 0.984860469
vn -0.459352385 -0.544619477 0.701701512
vn 0.151718423 -0.367852609 0.917423554
vn -0.280104146 -0.852109504 0.442098473
vn 0.151718423 -0.367852609 0.917423554
vn -0.459352385 -0.544619477 0.701701512
vn -0.284941879 -0.367262837 0.885396033
vn -0.450238956 -0.021713329 0.892644058
vn -0.704733588 -0.242822394 0.666624223
vn -0.920389052 0.288930510 0.263444783
vn -0.348983218 0.431884497 0.831676917
vn -0.450238956 -0.021713329 0.892644058
vn -0.920389052 0.288930510 0.263444783
vn -0.523109645 0.223843758 -0.822344375
vn 0.847280219 0.524413575 -0.084300843
vn 0.840782888 -0.410939140 -0.352438872
vn 0.847280219 0.524413575 -0.084300843
vn -0.523109645 0.223843758 -0.822344375
vn -0.437731477 -0.142758190 -0.887699979
vn -0.547264589 -0.836729724 0.019617292
vn -0.035058585 -0.999265314 0.015483161
vn 0.421344493 -0.904510804 -0.065795318
vn -0.035058585 -0.999265314 0.015483161
vn -0.547264589 -0.836729724 0.019617292
vn -0.532153860 -0.841982705 -0.088754682
vn -0.745864105 -0.657148800 -0.108821832
vn -0.348112722 0.533143427 -0.771087297
vn 0.382373529 -0.904753450 -0.187647753
vn -0.348112722 0.533143427 -0.771087297
vn -0.745864105 -0.657148800 -0.108821832
vn -0.714621417 -0.696329649 -0.066642703
vn -0.532153860 -0.841982705 -0.088754682
vn -0.094124248 -0.583811449 -0.806414793
vn -0.035058585 -0.999265314 0.015483161
vn -0.094124248 -0.583811449 -0.806414793
vn -0.532153860 -0.841982705 -0.088754682
vn 0.003103473 -0.854708424 -0.519099103
vn -0.237368671 0.491401740 -0.837962078
vn 0.840782888 -0.410939140 -0.352438872
vn 0.521400627 -0.767798197 -0.372326893
vn 0.840782888 -0.410939140 -0.352438872
vn -0.237368671 0.491401740 -0.837962078
vn -0.523109645 0.223843758 -0.822344375
vn -0.519960662 -0.847985441 -0.102769650
vn 0.421344493 -0.904510804 -0.065795318
vn -0.106752800 -0.680731842 -0.724712356
vn 0.421344493 -0.904510804 -0.065795318
vn -0.519960662 -0.847985441 -0.102769650
vn -0.547264589 -0.836729724 0.019617292
vn -0.789374598 -0.478785235 -0.384255700
vn -0.106752800 -0.680731842 -0.724712356
vn -0.797396619 0.355358980 -0.487728026
vn -0.106752800 -0.680731842 -0.724712356
vn -0.789374598 -0.478785235 -0.384255700
vn -0.519960662 -0.847985441 -0.102769650
vn -0.714621417 -0.696329649 -0.066642703
vn -0.797396619 0.355358980 -0.487728026
vn -0.348112722 0.533143427 -0.771087297
vn -0.797396619 0.355358980 -0.487728026
vn -0.714621417 -0.696329649 -0.066642703
vn -0.789374598 -0.478785235 -0.384255700
vn -0.437731477 -0.142758190 -0.887699979
vn 0.847975172 0.528769892 0.036612960
vn 0.847280219 0.524413575 -0.084300843
vn 0.847975172 0.528769892 0.036612960
vn -0.437731477 -0.142758190 -0.887699979
vn -0.251728659 -0.899300248 -0.357619555
vn -0.251728659 -0.899300248 -0.357619555
vn 0.196666363 -0.980291896 0.018712045
vn 0.847975172 0.528769892 0.036612960
vn 0.196666363 -0.980291896 0.018712045
vn -0.251728659 -0.899300248 -0.357619555
vn -0.276331441 -0.902151892 -0.331304842
vn -0.276331441 -0.902151892 -0.331304842
vn 0.382373529 -0.904753450 -0.187647753
vn 0.196666363 -0.980291896 0.018712045
vn 0.382373529 -0.904753450 -0.187647753
vn -0.276331441 -0.902151892 -0.331304842
vn -0.745864105 -0.657148800 -0.108821832
vn 0.003103473 -0.854708424 -0.519099103
vn 0.257386828 -0.274437993 -0.926518110
vn -0.094124248 -0.583811449 -0.806414793
vn 0.257386828 -0.274437993 -0.926518110
vn 0.003103473 -0.854708424 -0.519099103
vn 0.480137290 -0.676722605 -0.558135018
f 3/3/3 2/2/2 1/1/1
f 6/6/6 5/5/5 4/4/4
f 9/9/9 8/8/8 7/7/7
f 12/12/12 11/11/11 10/10/10
f 15/15/15 14/14/14 13/13/13
f 18/18/18 17/17/17 16/16/16
f 21/21/21 20/20/20 19/19/19
f 24/24/24 23/23/23 22/22/22
f 27/27/27 26/26/26 25/25/25
f 30/30/30 29/29/29 28/28/28
f 33/33/33 32/32/32 31/31/31
f 36/36/36 35/35/35 34/34/34
f 39/39/39 38/38/38 37/37/37
f 42/42/42 41/41/41 40/40/40
f 45/45/45 44/44/44 43/43/43
f 48/48/48 47/47/47 46/46/46
f 51/51/51 50/50/50 49/49/49
f 54/54/54 53/53/53 52/52/52
f 57/57/57 56/56/56 55/55/55
f 60/60/60 59/59/59 58/58/58
f 63/63/63 62/62/62 61/61/61
f 66/66/66 65/65/65 64/64/64
f 69/69/69 68/68/68 67/67/67
f 72/72/72 71/71/71 70/70/70
f 75/75/75 74/74/74 73/73/73
f 78/78/78 77/77/77 76/76/76
f 81/81/81 80/80/80 79/79/79
f 84/84/84 83/83/83 82/82/82
f 87/87/87 86/86/86 85/85/85
f 90/90/90 89/89/89 88/88/88
f 93/93/93 92/92/92 91/91/91
f 96/96/96 95/95/95 94/94/94
f 99/99/99 98/98/98 97/97/97
f 102/102/102 101/101/101 100/100/100
f 105/105/105 104/104/104 103/103/103
f 108/108/108 107/107/107 106/106/106
f 111/111/111 110/110/110 109/109/109
f 114/114/114 113/113/113 112/112/112
f 117/117/117 116/116/116 115/115/115
f 120/120/120 119/119/119 118/118/118
f 123/123/123 122/122/122 121/121/121
f 126/126/126 125/125/125 124/124/124
f 129/129/129 128/128/128 127/127/127
f 132/132/132 131/131/131 130/130/130
f 135/135/135 134/134/134 133/133/133
f 138/138/138 137/137/137 136/136/136
f 141/141/141 140/140/140 139/139/139
f 144/144/144 143/143/143 142/142/142
f 147/147/147 146/146/146 145/145/145
f 150/150/150 149/149/149 148/148/148
f 153/153/153 152/152/152 151/151/151
f 156/156/156 155/155/155 154/154/154
f 159/159/159 158/158/158 157/157/157
f 162/162/162 161/161/161 160/160/160
f 165/165/165 164/164/164 163/163/163
f 168/168/168 167/167/167 166/166/166
f 171/171/171 170/170/170 169/169/169
f 174/174/174 173/173/173 172/172/172
f 177/177/177 176/176/176 175/175/175
f 180/180/180 179/179/179 178/178/178
f 183/183/183 182/182/182 181/181/181
f 186/186/186 185/185/185 184/184/184
f 189/189/189 188/188/188 187/187/187
f 192/192/192 191/191/191 190/190/190
f 195/195/195 194/194/194 193/193/193
f 198/198/198 197/197/197 196/196/196
f 201/201/201 200/200/200 199/199/199
f 204/204/204 203/203/203 202/202/202
f 207/207/207 206/206/206 205/205/205
f 210/210/210 209/209/209 208/208/208
f 213/213/213 212/212/212 211/211/211
f 216/216/216 215/215/215 214/214/214
f 219/219/219 218/218/218 217/217/217
f 222/222/222 221/221/221 220/220/220
f 225/225/225 224/224/224 223/223/223
f 228/228/228 227/227/227 226/226/226
f 231/231/231 230/230/230 229/229/229
f 234/234/234 233/233/233 232/232/232
f 237/237/237 236/236/236 235/235/235
f 240/240/240 239/239/239 238/238/238
f 243/243/243 242/242/242 241/241/241
f 246/246/246 245/245/245 244/244/244
f 249/249/249 248/248/248 247/247/247
f 252/252/252 251/251/251 250/250/250
f 255/255/255 254/254/254 253/253/253
f 258/258/258 257/257/257 256/256/256
f 261/261/261 260/260/260 259/259/259
f 264/264/264 263/263/263 262/262/262
f 267/267/267 266/266/266 265/265/265
f 270/270/270 269/269/269 268/268/268
f 273/273/273 272/272/272 271/271/271
f 276/276/276 275/275/275 274/274/274
f 279/279/279 278/278/278 277/277/277
f 282/282/282 281/281/281 280/280/280
f 285/285/285 284/284/284 283/283/283
f 288/288/288 287/287/287 286/286/286
f 291/291/291 290/290/290 289/289/289
f 294/294/294 293/293/293 292/292/292
f 297/297/297 296/296/296 295/295/295
f 300/300/300 299/299/299 298/298/298
f 303/303/303 302/302/302 301/301/301
f 306/306/306 305/305/305 304/304/304
f 309/309/309 308/308/308 307/307/307
f 312/312/312 311/311/311 310/310/310
f 315/315/315 314/314/314 313/313/313
f 318/318/318 317/317/317 316/316/316
f 321/321/321 320/320/320 319/319/319
f 324/324/324 323/323/323 322/322/322
f 327/327/327 326/326/326 325/325/325
f 330/330/330 329/329/329 328/328/328
f 333/333/333 332/332/332 331/331/331
f 336/336/336 335/335/335 334/334/334
f 339/339/339 338/338/338 337/337/337
f 342/342/342 341/341/341 340/340/340
f 345/345/345 344/344/344 343/343/343
f 348/348/348 347/347/347 346/346/346
f 351/351/351 350/350/350 349/349/349
f 354/354/354 353/353/353 352/352/352
f 357/357/357 356/356/356 355/355/355
f 360/360/360 359/359/359 358/358/358
f 363/363/363 362/362/362 361/361/361
f 366/366/366 365/365/365 364/364/364
f 369/369/369 368/368/368 367/367/367
f 372/372/372 371/371/371 370/370/370
f 375/375/375 374/374/374 373/373/373
f 378/378/378 377/377/377 376/376/376
f 381/381/381 380/380/380 379/379/379
f 384/384/384 383/383/383 382/382/382
f 387/387/387 386/386/386 385/385/385
f 390/390/390 389/389/389 388/388/388
f 393/393/393 392/392/392 391/391/391
f 396/396/396 395/395/395 394/394/394
f 399/399/399 398/398/398 397/397/397
f 402/402/402 401/401/401 400/400/400
