# Static pose baked from local Project Zomboid assets
o Bob_Hair_Short
v 0.033396282 0.092530813 0.348924673
v 0.005627711 0.091564103 0.329348170
v 0.024623387 0.073923328 0.326579018
v 0.005627711 0.091564103 0.329348170
v 0.033396282 0.092530813 0.348924673
v 0.006179639 0.099357807 0.348849132
v 0.026178437 0.051979420 0.467368557
v 0.024321502 0.001072230 0.461435870
v 0.000643130 0.035127319 0.470992980
v 0.050487378 0.070775953 0.393973550
v 0.051830943 0.048105323 0.428863383
v 0.048351490 0.069017954 0.439879992
v 0.051830943 0.048105323 0.428863383
v 0.050487378 0.070775953 0.393973550
v 0.058376258 0.051600712 0.394534170
v 0.043728745 0.086013623 0.395461206
v 0.025428062 0.094996354 0.440318624
v 0.035854565 0.099711404 0.391125348
v 0.043728745 0.086013623 0.395461206
v 0.048351490 0.069017954 0.439879992
v 0.025428062 0.094996354 0.440318624
v 0.050487378 0.070775953 0.393973550
v 0.048351490 0.069017954 0.439879992
v 0.043728745 0.086013623 0.395461206
v 0.006179639 0.099357807 0.348849132
v 0.035854565 0.099711404 0.391125348
v 0.003082677 0.113154955 0.390035824
v 0.035854565 0.099711404 0.391125348
v 0.006179639 0.099357807 0.348849132
v 0.033396282 0.092530813 0.348924673
v -0.041364559 0.103410108 0.388300387
v -0.003014478 0.110887096 0.442313679
v -0.041664566 0.099734328 0.440454186
v -0.003014478 0.110887096 0.442313679
v -0.041364559 0.103410108 0.388300387
v 0.003082677 0.113154955 0.390035824
v 0.056083431 0.012682722 0.449488114
v 0.051830943 0.048105323 0.428863383
v 0.053848040 0.022664403 0.427120559
v 0.041747129 0.062129729 0.455386458
v 0.025428062 0.094996354 0.440318624
v 0.048351490 0.069017954 0.439879992
v 0.025428062 0.094996354 0.440318624
v 0.041747129 0.062129729 0.455386458
v 0.021436273 0.083310242 0.454986619
v -0.003014478 0.110887096 0.442313679
v -0.035708673 0.089608411 0.457812260
v -0.041664566 0.099734328 0.440454186
v 0.056083431 0.012682722 0.449488114
v 0.048351490 0.069017954 0.439879992
v 0.051830943 0.048105323 0.428863383
v 0.048351490 0.069017954 0.439879992
v 0.056083431 0.012682722 0.449488114
v 0.041747129 0.062129729 0.455386458
v -0.024855429 0.084406252 0.321586250
v 0.006179639 0.099357807 0.348849132
v -0.033001181 0.094326711 0.347614645
v 0.006179639 0.099357807 0.348849132
v -0.024855429 0.084406252 0.321586250
v 0.005627711 0.091564103 0.329348170
v -0.033001181 0.094326711 0.347614645
v 0.003082677 0.113154955 0.390035824
v -0.041364559 0.103410108 0.388300387
v 0.003082677 0.113154955 0.390035824
v -0.033001181 0.094326711 0.347614645
v 0.006179639 0.099357807 0.348849132
v -0.003014478 0.110887096 0.442313679
v 0.035854565 0.099711404 0.391125348
v 0.025428062 0.094996354 0.440318624
v 0.035854565 0.099711404 0.391125348
v -0.003014478 0.110887096 0.442313679
v 0.003082677 0.113154955 0.390035824
v 0.021436273 0.083310242 0.454986619
v -0.003014478 0.110887096 0.442313679
v 0.025428062 0.094996354 0.440318624
v 0.059989303 0.051860573 0.371888034
v 0.050487378 0.070775953 0.393973550
v 0.054894181 0.066820936 0.373414273
v 0.050487378 0.070775953 0.393973550
v 0.059989303 0.051860573 0.371888034
v 0.058376258 0.051600712 0.394534170
v 0.024623387 0.073923328 0.326579018
v 0.034132538 0.074938989 0.347198018
v 0.033396282 0.092530813 0.348924673
v 0.034132538 0.074938989 0.347198018
v 0.024623387 0.073923328 0.326579018
v 0.028205465 0.055524379 0.314093031
v 0.033396282 0.092530813 0.348924673
v 0.043728745 0.086013623 0.395461206
v 0.035854565 0.099711404 0.391125348
v 0.043728745 0.086013623 0.395461206
v 0.033396282 0.092530813 0.348924673
v 0.034132538 0.074938989 0.347198018
v 0.026178437 0.051979420 0.467368557
v 0.021436273 0.083310242 0.454986619
v 0.041747129 0.062129729 0.455386458
v 0.021436273 0.083310242 0.454986619
v 0.026178437 0.051979420 0.467368557
v 0.003547863 0.081102139 0.464726198
v 0.036436770 -0.015492871 0.445657152
v 0.024321502 0.001072230 0.461435870
v 0.056083431 0.012682722 0.449488114
v 0.053848040 0.022664403 0.427120559
v 0.036436770 -0.015492871 0.445657152
v 0.056083431 0.012682722 0.449488114
v 0.036436770 -0.015492871 0.445657152
v 0.053848040 0.022664403 0.427120559
v 0.032811061 -0.008196201 0.420744239
v -0.035708673 0.089608411 0.457812260
v 0.003547863 0.081102139 0.464726198
v -0.022615879 0.069707215 0.466091437
v 0.003547863 0.081102139 0.464726198
v 0.000643130 0.035127319 0.470992980
v -0.022615879 0.069707215 0.466091437
v 0.000643130 0.035127319 0.470992980
v 0.003547863 0.081102139 0.464726198
v 0.026178437 0.051979420 0.467368557
v 0.041747129 0.062129729 0.455386458
v 0.024321502 0.001072230 0.461435870
v 0.026178437 0.051979420 0.467368557
v 0.024321502 0.001072230 0.461435870
v 0.041747129 0.062129729 0.455386458
v 0.056083431 0.012682722 0.449488114
v 0.003547863 0.081102139 0.464726198
v -0.003014478 0.110887096 0.442313679
v 0.021436273 0.083310242 0.454986619
v -0.035708673 0.089608411 0.457812260
v -0.003014478 0.110887096 0.442313679
v 0.003547863 0.081102139 0.464726198
v 0.005627711 0.091564103 0.329348170
v 0.023517471 0.071767670 0.336989748
v 0.024623387 0.073923328 0.326579018
v 0.023517471 0.071767670 0.336989748
v 0.005627711 0.091564103 0.329348170
v 0.007338989 0.086792541 0.339347704
v 0.058376258 0.051600712 0.394534170
v 0.051753480 0.042339745 0.424028964
v 0.051830943 0.048105323 0.428863383
v 0.051753480 0.042339745 0.424028964
v 0.058376258 0.051600712 0.394534170
v 0.055145284 0.048523654 0.394823251
v 0.043728745 0.086013623 0.395461206
v 0.045544833 0.069087506 0.394387954
v 0.050487378 0.070775953 0.393973550
v 0.045544833 0.069087506 0.394387954
v 0.043728745 0.086013623 0.395461206
v 0.039789124 0.082065551 0.395654829
v 0.051830943 0.048105323 0.428863383
v 0.048407611 0.028111440 0.422618586
v 0.053848040 0.022664403 0.427120559
v 0.048407611 0.028111440 0.422618586
v 0.051830943 0.048105323 0.428863383
v 0.051753480 0.042339745 0.424028964
v -0.024855429 0.084406252 0.321586250
v 0.007338989 0.086792541 0.339347704
v 0.005627711 0.091564103 0.329348170
v 0.007338989 0.086792541 0.339347704
v -0.024855429 0.084406252 0.321586250
v -0.021808214 0.078452056 0.340265863
v 0.059989303 0.051860573 0.371888034
v 0.055145284 0.048523654 0.394823251
v 0.058376258 0.051600712 0.394534170
v 0.055145284 0.048523654 0.394823251
v 0.059989303 0.051860573 0.371888034
v 0.056673155 0.049083871 0.368380022
v 0.054894181 0.066820936 0.373414273
v 0.056673155 0.049083871 0.368380022
v 0.059989303 0.051860573 0.371888034
v 0.056673155 0.049083871 0.368380022
v 0.054894181 0.066820936 0.373414273
v 0.049527479 0.065946743 0.369721769
v 0.050487378 0.070775953 0.393973550
v 0.049527479 0.065946743 0.369721769
v 0.054894181 0.066820936 0.373414273
v 0.049527479 0.065946743 0.369721769
v 0.050487378 0.070775953 0.393973550
v 0.045544833 0.069087506 0.394387954
v 0.024623387 0.073923328 0.326579018
v 0.026567721 0.056097367 0.326355202
v 0.028205465 0.055524379 0.314093031
v 0.026567721 0.056097367 0.326355202
v 0.024623387 0.073923328 0.326579018
v 0.023517471 0.071767670 0.336989748
v 0.028205465 0.055524379 0.314093031
v 0.031615089 0.072633118 0.354550606
v 0.034132538 0.074938989 0.347198018
v 0.031615089 0.072633118 0.354550606
v 0.028205465 0.055524379 0.314093031
v 0.026567721 0.056097367 0.326355202
v 0.034132538 0.074938989 0.347198018
v 0.039789124 0.082065551 0.395654829
v 0.043728745 0.086013623 0.395461206
v 0.039789124 0.082065551 0.395654829
v 0.034132538 0.074938989 0.347198018
v 0.031615089 0.072633118 0.354550606
v 0.053848040 0.022664403 0.427120559
v 0.027551399 -0.000170858 0.417030711
v 0.032811061 -0.008196201 0.420744239
v 0.027551399 -0.000170858 0.417030711
v 0.053848040 0.022664403 0.427120559
v 0.048407611 0.028111440 0.422618586
v -0.055640998 0.031965211 0.344143862
v -0.043183782 0.058361184 0.326727262
v -0.052048544 0.059749398 0.345722600
v -0.043183782 0.058361184 0.326727262
v -0.055640998 0.031965211 0.344143862
v -0.033532106 0.034364364 0.323456389
v -0.024045561 0.017815677 0.464671805
v 0.000643130 0.035127319 0.470992980
v 0.024321502 0.001072230 0.461435870
v -0.044979685 0.005836636 0.388847495
v -0.026981795 -0.005505265 0.424631573
v -0.030097669 -0.008581683 0.389783608
v -0.026981795 -0.005505265 0.424631573
v -0.044979685 0.005836636 0.388847495
v -0.045932704 0.004883257 0.434817451
v -0.061720922 0.035715222 0.435639204
v -0.056768813 0.017652425 0.390065041
v -0.066295041 0.030226437 0.385640477
v -0.045932704 0.004883257 0.434817451
v -0.056768813 0.017652425 0.390065041
v -0.061720922 0.035715222 0.435639204
v -0.044979685 0.005836636 0.388847495
v -0.056768813 0.017652425 0.390065041
v -0.045932704 0.004883257 0.434817451
v -0.052048544 0.059749398 0.345722600
v -0.066295041 0.030226437 0.385640477
v -0.055640998 0.031965211 0.344143862
v -0.066295041 0.030226437 0.385640477
v -0.052048544 0.059749398 0.345722600
v -0.066744552 0.065656556 0.386286487
v -0.041364559 0.103410108 0.388300387
v -0.066246723 0.067874787 0.438918456
v -0.066744552 0.065656556 0.386286487
v -0.066246723 0.067874787 0.438918456
v -0.041364559 0.103410108 0.388300387
v -0.041664566 0.099734328 0.440454186
v 0.002837832 -0.023536397 0.446629119
v -0.003973739 -0.016667559 0.424015848
v -0.026981795 -0.005505265 0.424631573
v -0.038266646 0.007702162 0.451090159
v -0.061720922 0.035715222 0.435639204
v -0.050492366 0.034382407 0.451124447
v -0.061720922 0.035715222 0.435639204
v -0.038266646 0.007702162 0.451090159
v -0.045932704 0.004883257 0.434817451
v -0.066246723 0.067874787 0.438918456
v -0.041664566 0.099734328 0.440454186
v -0.035708673 0.089608411 0.457812260
v 0.002837832 -0.023536397 0.446629119
v -0.045932704 0.004883257 0.434817451
v -0.038266646 0.007702162 0.451090159
v -0.045932704 0.004883257 0.434817451
v 0.002837832 -0.023536397 0.446629119
v -0.026981795 -0.005505265 0.424631573
v -0.024855429 0.084406252 0.321586250
v -0.052048544 0.059749398 0.345722600
v -0.043183782 0.058361184 0.326727262
v -0.052048544 0.059749398 0.345722600
v -0.024855429 0.084406252 0.321586250
v -0.033001181 0.094326711 0.347614645
v -0.033001181 0.094326711 0.347614645
v -0.066744552 0.065656556 0.386286487
v -0.052048544 0.059749398 0.345722600
v -0.066744552 0.065656556 0.386286487
v -0.033001181 0.094326711 0.347614645
v -0.041364559 0.103410108 0.388300387
v -0.066246723 0.067874787 0.438918456
v -0.066295041 0.030226437 0.385640477
v -0.066744552 0.065656556 0.386286487
v -0.066295041 0.030226437 0.385640477
v -0.066246723 0.067874787 0.438918456
v -0.061720922 0.035715222 0.435639204
v -0.050492366 0.034382407 0.451124447
v -0.061720922 0.035715222 0.435639204
v -0.066246723 0.067874787 0.438918456
v -0.029267700 -0.008854492 0.367095425
v -0.044979685 0.005836636 0.388847495
v -0.030097669 -0.008581683 0.389783608
v -0.044979685 0.005836636 0.388847495
v -0.029267700 -0.008854492 0.367095425
v -0.041408818 0.001312992 0.368243333
v -0.033532106 0.034364364 0.323456389
v -0.039453110 0.024884011 0.343246874
v -0.016844309 0.024880285 0.311674106
v -0.039453110 0.024884011 0.343246874
v -0.033532106 0.034364364 0.323456389
v -0.055640998 0.031965211 0.344143862
v -0.055640998 0.031965211 0.344143862
v -0.056768813 0.017652425 0.390065041
v -0.039453110 0.024884011 0.343246874
v -0.056768813 0.017652425 0.390065041
v -0.055640998 0.031965211 0.344143862
v -0.066295041 0.030226437 0.385640477
v -0.024045561 0.017815677 0.464671805
v -0.050492366 0.034382407 0.451124447
v -0.042633564 0.049688264 0.462246510
v -0.050492366 0.034382407 0.451124447
v -0.024045561 0.017815677 0.464671805
v -0.038266646 0.007702162 0.451090159
v 0.036436770 -0.015492871 0.445657152
v 0.002837832 -0.023536397 0.446629119
v 0.024321502 0.001072230 0.461435870
v -0.003973739 -0.016667559 0.424015848
v 0.036436770 -0.015492871 0.445657152
v 0.032811061 -0.008196201 0.420744239
v 0.036436770 -0.015492871 0.445657152
v -0.003973739 -0.016667559 0.424015848
v 0.002837832 -0.023536397 0.446629119
v -0.035708673 0.089608411 0.457812260
v -0.022615879 0.069707215 0.466091437
v -0.042633564 0.049688264 0.462246510
v -0.042633564 0.049688264 0.462246510
v 0.000643130 0.035127319 0.470992980
v -0.024045561 0.017815677 0.464671805
v 0.000643130 0.035127319 0.470992980
v -0.042633564 0.049688264 0.462246510
v -0.022615879 0.069707215 0.466091437
v -0.038266646 0.007702162 0.451090159
v 0.024321502 0.001072230 0.461435870
v 0.002837832 -0.023536397 0.446629119
v 0.024321502 0.001072230 0.461435870
v -0.038266646 0.007702162 0.451090159
v -0.024045561 0.017815677 0.464671805
v -0.042633564 0.049688264 0.462246510
v -0.050492366 0.034382407 0.451124447
v -0.066246723 0.067874787 0.438918456
v -0.035708673 0.089608411 0.457812260
v -0.042633564 0.049688264 0.462246510
v -0.066246723 0.067874787 0.438918456
v -0.043183782 0.058361184 0.326727262
v -0.031890663 0.034077535 0.334014637
v -0.040111214 0.054515610 0.336799890
v -0.031890663 0.034077535 0.334014637
v -0.043183782 0.058361184 0.326727262
v -0.033532106 0.034364364 0.323456389
v -0.030097669 -0.008581683 0.389783608
v -0.021247343 -0.007317419 0.420109222
v -0.026084404 -0.006731010 0.390461665
v -0.021247343 -0.007317419 0.420109222
v -0.030097669 -0.008581683 0.389783608
v -0.026981795 -0.005505265 0.424631573
v -0.056768813 0.017652425 0.390065041
v -0.041640498 0.009781650 0.389706582
v -0.051681624 0.019844636 0.390743354
v -0.041640498 0.009781650 0.389706582
v -0.056768813 0.017652425 0.390065041
v -0.044979685 0.005836636 0.388847495
v -0.026981795 -0.005505265 0.424631573
v -0.006716370 -0.009385406 0.419658732
v -0.021247343 -0.007317419 0.420109222
v -0.006716370 -0.009385406 0.419658732
v -0.026981795 -0.005505265 0.424631573
v -0.003973739 -0.016667559 0.424015848
v -0.024855429 0.084406252 0.321586250
v -0.040111214 0.054515610 0.336799890
v -0.021808214 0.078452056 0.340265863
v -0.040111214 0.054515610 0.336799890
v -0.024855429 0.084406252 0.321586250
v -0.043183782 0.058361184 0.326727262
v -0.029267700 -0.008854492 0.367095425
v -0.026084404 -0.006731010 0.390461665
v -0.025223961 -0.006624797 0.363982598
v -0.026084404 -0.006731010 0.390461665
v -0.029267700 -0.008854492 0.367095425
v -0.030097669 -0.008581683 0.389783608
v -0.041408818 0.001312992 0.368243333
v -0.025223961 -0.006624797 0.363982598
v -0.038369883 0.006156544 0.365002165
v -0.025223961 -0.006624797 0.363982598
v -0.041408818 0.001312992 0.368243333
v -0.029267700 -0.008854492 0.367095425
v -0.044979685 0.005836636 0.388847495
v -0.038369883 0.006156544 0.365002165
v -0.041640498 0.009781650 0.389706582
v -0.038369883 0.006156544 0.365002165
v -0.044979685 0.005836636 0.388847495
v -0.041408818 0.001312992 0.368243333
v -0.033532106 0.034364364 0.323456389
v -0.017677505 0.026000549 0.323979477
v -0.031890663 0.034077535 0.334014637
v -0.017677505 0.026000549 0.323979477
v -0.033532106 0.034364364 0.323456389
v -0.016844309 0.024880285 0.311674106
v -0.016844309 0.024880285 0.311674106
v -0.036933453 0.026004517 0.350869928
v -0.017677505 0.026000549 0.323979477
v -0.036933453 0.026004517 0.350869928
v -0.016844309 0.024880285 0.311674106
v -0.039453110 0.024884011 0.343246874
v -0.039453110 0.024884011 0.343246874
v -0.051681624 0.019844636 0.390743354
v -0.036933453 0.026004517 0.350869928
v -0.051681624 0.019844636 0.390743354
v -0.039453110 0.024884011 0.343246874
v -0.056768813 0.017652425 0.390065041
v -0.003973739 -0.016667559 0.424015848
v 0.027551399 -0.000170858 0.417030711
v -0.006716370 -0.009385406 0.419658732
v 0.027551399 -0.000170858 0.417030711
v -0.003973739 -0.016667559 0.424015848
v 0.032811061 -0.008196201 0.420744239
vt 0.231472000 0.269191027
vt 0.311340988 0.298097968
vt 0.243588999 0.307554007
vt 0.311340988 0.298097968
vt 0.231472000 0.269191027
vt 0.299506992 0.271335006
vt 0.245623007 0.091320992
vt 0.174061000 0.037231982
vt 0.289168000 0.058817029
vt 0.139311999 0.192520976
vt 0.130154997 0.130401969
vt 0.186589003 0.137696981
vt 0.130154997 0.130401969
vt 0.139311999 0.192520976
vt 0.096551999 0.173452973
vt 0.177185997 0.208970010
vt 0.255980998 0.153638005
vt 0.213566005 0.215201974
vt 0.177185997 0.208970010
vt 0.186589003 0.137696981
vt 0.255980998 0.153638005
vt 0.139311999 0.192520976
vt 0.186589003 0.137696981
vt 0.177185997 0.208970010
vt 0.299506992 0.271335006
vt 0.213566005 0.215201974
vt 0.295488000 0.218972981
vt 0.213566005 0.215201974
vt 0.299506992 0.271335006
vt 0.231472000 0.269191027
vt 0.397085011 0.219743013
vt 0.319485009 0.159254014
vt 0.397762001 0.158024013
vt 0.319485009 0.159254014
vt 0.397085011 0.219743013
vt 0.295488000 0.218972981
vt 0.124989003 0.076780021
vt 0.130154997 0.130401969
vt 0.093029000 0.101359010
vt 0.210366994 0.115438998
vt 0.255980998 0.153638005
vt 0.186589003 0.137696981
vt 0.255980998 0.153638005
vt 0.210366994 0.115438998
vt 0.266377002 0.128005981
vt 0.319485009 0.159254014
vt 0.398012012 0.133623004
vt 0.397762001 0.158024013
vt 0.124989003 0.076780021
vt 0.186589003 0.137696981
vt 0.130154997 0.130401969
vt 0.186589003 0.137696981
vt 0.124989003 0.076780021
vt 0.210366994 0.115438998
vt 0.396254987 0.299126029
vt 0.299506992 0.271335006
vt 0.396586001 0.267223001
vt 0.299506992 0.271335006
vt 0.396254987 0.299126029
vt 0.311340988 0.298097968
vt 0.396586001 0.267223001
vt 0.295488000 0.218972981
vt 0.397085011 0.219743013
vt 0.295488000 0.218972981
vt 0.396586001 0.267223001
vt 0.299506992 0.271335006
vt 0.319485009 0.159254014
vt 0.213566005 0.215201974
vt 0.255980998 0.153638005
vt 0.213566005 0.215201974
vt 0.319485009 0.159254014
vt 0.295488000 0.218972981
vt 0.266377002 0.128005981
vt 0.319485009 0.159254014
vt 0.255980998 0.153638005
vt 0.062592000 0.195635021
vt 0.139311999 0.192520976
vt 0.092519999 0.206597984
vt 0.139311999 0.192520976
vt 0.062592000 0.195635021
vt 0.096551999 0.173452973
vt 0.243588999 0.307554007
vt 0.196217000 0.278376997
vt 0.231472000 0.269191027
vt 0.196217000 0.278376997
vt 0.243588999 0.307554007
vt 0.208454996 0.325343966
vt 0.231472000 0.269191027
vt 0.177185997 0.208970010
vt 0.213566005 0.215201974
vt 0.177185997 0.208970010
vt 0.231472000 0.269191027
vt 0.196217000 0.278376997
vt 0.245623007 0.091320992
vt 0.266377002 0.128005981
vt 0.210366994 0.115438998
vt 0.266377002 0.128005981
vt 0.245623007 0.091320992
vt 0.316464990 0.114346027
vt 0.096952997 0.038388014
vt 0.174061000 0.037231982
vt 0.124989003 0.076780021
vt 0.093029000 0.101359010
vt 0.096952997 0.038388014
vt 0.124989003 0.076780021
vt 0.096952997 0.038388014
vt 0.093029000 0.101359010
vt 0.039018001 0.060724974
vt 0.398012012 0.133623004
vt 0.316464990 0.114346027
vt 0.398351997 0.099462986
vt 0.316464990 0.114346027
vt 0.289168000 0.058817029
vt 0.398351997 0.099462986
vt 0.289168000 0.058817029
vt 0.316464990 0.114346027
vt 0.245623007 0.091320992
vt 0.210366994 0.115438998
vt 0.174061000 0.037231982
vt 0.245623007 0.091320992
vt 0.174061000 0.037231982
vt 0.210366994 0.115438998
vt 0.124989003 0.076780021
vt 0.316464990 0.114346027
vt 0.319485009 0.159254014
vt 0.266377002 0.128005981
vt 0.398012012 0.133623004
vt 0.319485009 0.159254014
vt 0.316464990 0.114346027
vt 0.311340988 0.298097968
vt 0.260289997 0.320204020
vt 0.243588999 0.307554007
vt 0.260289997 0.320204020
vt 0.311340988 0.298097968
vt 0.311482012 0.313256025
vt 0.096551999 0.173452973
vt 0.110900000 0.129186988
vt 0.130154997 0.130401969
vt 0.110900000 0.129186988
vt 0.096551999 0.173452973
vt 0.088729002 0.168857992
vt 0.177185997 0.208970010
vt 0.141003996 0.198900998
vt 0.139311999 0.192520976
vt 0.141003996 0.198900998
vt 0.177185997 0.208970010
vt 0.163987994 0.213379979
vt 0.130154997 0.130401969
vt 0.082898997 0.110795975
vt 0.093029000 0.101359010
vt 0.082898997 0.110795975
vt 0.130154997 0.130401969
vt 0.110900000 0.129186988
vt 0.396254987 0.299126029
vt 0.311482012 0.313256025
vt 0.311340988 0.298097968
vt 0.311482012 0.313256025
vt 0.396254987 0.299126029
vt 0.396023005 0.321511030
vt 0.062592000 0.195635021
vt 0.088729002 0.168857992
vt 0.096551999 0.173452973
vt 0.088729002 0.168857992
vt 0.062592000 0.195635021
vt 0.050524998 0.197710037
vt 0.092519999 0.206597984
vt 0.050524998 0.197710037
vt 0.062592000 0.195635021
vt 0.050524998 0.197710037
vt 0.092519999 0.206597984
vt 0.088462003 0.214053035
vt 0.139311999 0.192520976
vt 0.088462003 0.214053035
vt 0.092519999 0.206597984
vt 0.088462003 0.214053035
vt 0.139311999 0.192520976
vt 0.141003996 0.198900998
vt 0.243588999 0.307554007
vt 0.208065003 0.321933031
vt 0.208454996 0.325343966
vt 0.208065003 0.321933031
vt 0.243588999 0.307554007
vt 0.260289997 0.320204020
vt 0.208454996 0.325343966
vt 0.178407997 0.272451997
vt 0.196217000 0.278376997
vt 0.178407997 0.272451997
vt 0.208454996 0.325343966
vt 0.208065003 0.321933031
vt 0.196217000 0.278376997
vt 0.163987994 0.213379979
vt 0.177185997 0.208970010
vt 0.163987994 0.213379979
vt 0.196217000 0.278376997
vt 0.178407997 0.272451997
vt 0.093029000 0.101359010
vt 0.025242999 0.073077977
vt 0.039018001 0.060724974
vt 0.025242999 0.073077977
vt 0.093029000 0.101359010
vt 0.082898997 0.110795975
vt 0.561630011 0.270137012
vt 0.481184006 0.298583031
vt 0.493566990 0.271888971
vt 0.481184006 0.298583031
vt 0.561630011 0.270137012
vt 0.548731983 0.308427989
vt 0.551253021 0.092194974
vt 0.508328974 0.059454978
vt 0.623642981 0.038424015
vt 0.655161977 0.194045007
vt 0.666571021 0.131835997
vt 0.698036015 0.175338030
vt 0.666571021 0.131835997
vt 0.655161977 0.194045007
vt 0.609579027 0.138836980
vt 0.539686978 0.154408991
vt 0.617075026 0.210240006
vt 0.580617011 0.216246009
vt 0.609579027 0.138836980
vt 0.617075026 0.210240006
vt 0.539686978 0.154408991
vt 0.655161977 0.194045007
vt 0.617075026 0.210240006
vt 0.609579027 0.138836980
vt 0.493566990 0.271888971
vt 0.580617011 0.216246009
vt 0.561630011 0.270137012
vt 0.580617011 0.216246009
vt 0.493566990 0.271888971
vt 0.498676002 0.219547987
vt 0.397085011 0.219743013
vt 0.476029992 0.159684002
vt 0.498676002 0.219547987
vt 0.476029992 0.159684002
vt 0.397085011 0.219743013
vt 0.397762001 0.158024013
vt 0.672026992 0.078193009
vt 0.703835011 0.102828979
vt 0.666571021 0.131835997
vt 0.586139977 0.116492033
vt 0.539686978 0.154408991
vt 0.529814005 0.128735006
vt 0.539686978 0.154408991
vt 0.586139977 0.116492033
vt 0.609579027 0.138836980
vt 0.476029992 0.159684002
vt 0.397762001 0.158024013
vt 0.398012012 0.133623004
vt 0.672026992 0.078193009
vt 0.609579027 0.138836980
vt 0.586139977 0.116492033
vt 0.609579027 0.138836980
vt 0.672026992 0.078193009
vt 0.666571021 0.131835997
vt 0.396254987 0.299126029
vt 0.493566990 0.271888971
vt 0.481184006 0.298583031
vt 0.493566990 0.271888971
vt 0.396254987 0.299126029
vt 0.396586001 0.267223001
vt 0.396586001 0.267223001
vt 0.498676002 0.219547987
vt 0.493566990 0.271888971
vt 0.498676002 0.219547987
vt 0.396586001 0.267223001
vt 0.397085011 0.219743013
vt 0.476029992 0.159684002
vt 0.580617011 0.216246009
vt 0.498676002 0.219547987
vt 0.580617011 0.216246009
vt 0.476029992 0.159684002
vt 0.539686978 0.154408991
vt 0.529814005 0.128735006
vt 0.539686978 0.154408991
vt 0.476029992 0.159684002
vt 0.731719971 0.197631001
vt 0.655161977 0.194045007
vt 0.698036015 0.175338030
vt 0.655161977 0.194045007
vt 0.731719971 0.197631001
vt 0.701600015 0.208433986
vt 0.548731983 0.308427989
vt 0.596689999 0.279528022
vt 0.583496988 0.326421022
vt 0.596689999 0.279528022
vt 0.548731983 0.308427989
vt 0.561630011 0.270137012
vt 0.561630011 0.270137012
vt 0.617075026 0.210240006
vt 0.596689999 0.279528022
vt 0.617075026 0.210240006
vt 0.561630011 0.270137012
vt 0.580617011 0.216246009
vt 0.551253021 0.092194974
vt 0.529814005 0.128735006
vt 0.479947001 0.114804983
vt 0.529814005 0.128735006
vt 0.551253021 0.092194974
vt 0.586139977 0.116492033
vt 0.700621009 0.039879024
vt 0.672026992 0.078193009
vt 0.623642981 0.038424015
vt 0.703835011 0.102828979
vt 0.700621009 0.039879024
vt 0.758270979 0.062367976
vt 0.700621009 0.039879024
vt 0.703835011 0.102828979
vt 0.672026992 0.078193009
vt 0.398012012 0.133623004
vt 0.398351997 0.099462986
vt 0.479947001 0.114804983
vt 0.479947001 0.114804983
vt 0.508328974 0.059454978
vt 0.551253021 0.092194974
vt 0.508328974 0.059454978
vt 0.479947001 0.114804983
vt 0.398351997 0.099462986
vt 0.586139977 0.116492033
vt 0.623642981 0.038424015
vt 0.672026992 0.078193009
vt 0.623642981 0.038424015
vt 0.586139977 0.116492033
vt 0.551253021 0.092194974
vt 0.479947001 0.114804983
vt 0.529814005 0.128735006
vt 0.476029992 0.159684002
vt 0.398012012 0.133623004
vt 0.479947001 0.114804983
vt 0.476029992 0.159684002
vt 0.481184006 0.298583031
vt 0.531772017 0.320981026
vt 0.480729014 0.313739002
vt 0.531772017 0.320981026
vt 0.481184006 0.298583031
vt 0.548731983 0.308427989
vt 0.698036015 0.175338030
vt 0.685962975 0.130748987
vt 0.705775976 0.170845985
vt 0.685962975 0.130748987
vt 0.698036015 0.175338030
vt 0.666571021 0.131835997
vt 0.617075026 0.210240006
vt 0.653364003 0.200389028
vt 0.630153000 0.214730024
vt 0.653364003 0.200389028
vt 0.617075026 0.210240006
vt 0.655161977 0.194045007
vt 0.666571021 0.131835997
vt 0.713918984 0.112308025
vt 0.685962975 0.130748987
vt 0.713918984 0.112308025
vt 0.666571021 0.131835997
vt 0.703835011 0.102828979
vt 0.396254987 0.299126029
vt 0.480729014 0.313739002
vt 0.396023005 0.321511030
vt 0.480729014 0.313739002
vt 0.396254987 0.299126029
vt 0.481184006 0.298583031
vt 0.731719971 0.197631001
vt 0.705775976 0.170845985
vt 0.743750989 0.199755013
vt 0.705775976 0.170845985
vt 0.731719971 0.197631001
vt 0.698036015 0.175338030
vt 0.701600015 0.208433986
vt 0.743750989 0.199755013
vt 0.705498993 0.215909004
vt 0.743750989 0.199755013
vt 0.701600015 0.208433986
vt 0.731719971 0.197631001
vt 0.655161977 0.194045007
vt 0.705498993 0.215909004
vt 0.653364003 0.200389028
vt 0.705498993 0.215909004
vt 0.655161977 0.194045007
vt 0.701600015 0.208433986
vt 0.548731983 0.308427989
vt 0.583953977 0.323011041
vt 0.531772017 0.320981026
vt 0.583953977 0.323011041
vt 0.548731983 0.308427989
vt 0.583496988 0.326421022
vt 0.583496988 0.326421022
vt 0.614612997 0.273705959
vt 0.583953977 0.323011041
vt 0.614612997 0.273705959
vt 0.583496988 0.326421022
vt 0.596689999 0.279528022
vt 0.596689999 0.279528022
vt 0.630153000 0.214730024
vt 0.614612997 0.273705959
vt 0.630153000 0.214730024
vt 0.596689999 0.279528022
vt 0.617075026 0.210240006
vt 0.703835011 0.102828979
vt 0.771929026 0.074750006
vt 0.713918984 0.112308025
vt 0.771929026 0.074750006
vt 0.703835011 0.102828979
vt 0.758270979 0.062367976
vn 0.665020052 0.656743526 -0.355578783
vn 0.100498990 0.595741169 -0.796864112
vn 0.409613652 0.374005671 -0.832067554
vn 0.100498990 0.595741169 -0.796864112
vn 0.665020052 0.656743526 -0.355578783
vn 0.091016606 0.946177605 -0.310586410
vn 0.338331384 0.086362997 0.937055659
vn 0.164376107 -0.315422891 0.934606278
vn -0.026448759 -0.039963155 0.998851045
vn 0.922642453 0.381117171 0.058996652
vn 0.986954514 0.156649310 0.037172307
vn 0.896394632 0.389247664 0.212044616
vn 0.986954514 0.156649310 0.037172307
vn 0.922642453 0.381117171 0.058996652
vn 0.974836260 0.169027934 0.145340369
vn 0.904247303 0.426719482 0.015725747
vn 0.640354923 0.697391962 0.321854041
vn 0.494105540 0.869338225 -0.010524513
vn 0.904247303 0.426719482 0.015725747
vn 0.896394632 0.389247664 0.212044616
vn 0.640354923 0.697391962 0.321854041
vn 0.922642453 0.381117171 0.058996652
vn 0.896394632 0.389247664 0.212044616
vn 0.904247303 0.426719482 0.015725747
vn 0.091016606 0.946177605 -0.310586410
vn 0.494105540 0.869338225 -0.010524513
vn 0.020674262 0.989889311 -0.140327216
vn 0.494105540 0.869338225 -0.010524513
vn 0.091016606 0.946177605 -0.310586410
vn 0.665020052 0.656743526 -0.355578783
vn -0.558646569 0.826622983 -0.067885599
vn 0.063775483 0.950230665 0.304949785
vn -0.557990243 0.804112925 0.205059240
vn 0.063775483 0.950230665 0.304949785
vn -0.558646569 0.826622983 -0.067885599
vn 0.020674262 0.989889311 -0.140327216
vn 0.832930685 -0.096018989 0.544983328
vn 0.986954514 0.156649310 0.037172307
vn 0.841994339 -0.325170111 -0.430476402
vn 0.590710210 0.181946078 0.786102457
vn 0.640354923 0.697391962 0.321854041
vn 0.896394632 0.389247664 0.212044616
vn 0.640354923 0.697391962 0.321854041
vn 0.590710210 0.181946078 0.786102457
vn 0.415489561 0.528004831 0.740661409
vn 0.063775483 0.950230665 0.304949785
vn -0.359241477 0.464213001 0.809599809
vn -0.557990243 0.804112925 0.205059240
vn 0.832930685 -0.096018989 0.544983328
vn 0.896394632 0.389247664 0.212044616
vn 0.986954514 0.156649310 0.037172307
vn 0.896394632 0.389247664 0.212044616
vn 0.832930685 -0.096018989 0.544983328
vn 0.590710210 0.181946078 0.786102457
vn -0.253343022 0.440426518 -0.861302383
vn 0.091016606 0.946177605 -0.310586410
vn -0.512536199 0.781551029 -0.355646783
vn 0.091016606 0.946177605 -0.310586410
vn -0.253343022 0.440426518 -0.861302383
vn 0.100498990 0.595741169 -0.796864112
vn -0.512536199 0.781551029 -0.355646783
vn 0.020674262 0.989889311 -0.140327216
vn -0.558646569 0.826622983 -0.067885599
vn 0.020674262 0.989889311 -0.140327216
vn -0.512536199 0.781551029 -0.355646783
vn 0.091016606 0.946177605 -0.310586410
vn 0.063775483 0.950230665 0.304949785
vn 0.494105540 0.869338225 -0.010524513
vn 0.640354923 0.697391962 0.321854041
vn 0.494105540 0.869338225 -0.010524513
vn 0.063775483 0.950230665 0.304949785
vn 0.020674262 0.989889311 -0.140327216
vn 0.415489561 0.528004831 0.740661409
vn 0.063775483 0.950230665 0.304949785
vn 0.640354923 0.697391962 0.321854041
vn 0.989378858 0.143543453 0.022907479
vn 0.922642453 0.381117171 0.058996652
vn 0.792125625 0.546520324 -0.271758217
vn 0.922642453 0.381117171 0.058996652
vn 0.989378858 0.143543453 0.022907479
vn 0.974836260 0.169027934 0.145340369
vn 0.409613652 0.374005671 -0.832067554
vn 0.971521831 -0.093897549 -0.217551334
vn 0.665020052 0.656743526 -0.355578783
vn 0.971521831 -0.093897549 -0.217551334
vn 0.409613652 0.374005671 -0.832067554
vn 0.962520866 -0.114464365 -0.245868851
vn 0.665020052 0.656743526 -0.355578783
vn 0.904247303 0.426719482 0.015725747
vn 0.494105540 0.869338225 -0.010524513
vn 0.904247303 0.426719482 0.015725747
vn 0.665020052 0.656743526 -0.355578783
vn 0.971521831 -0.093897549 -0.217551334
vn 0.338331384 0.086362997 0.937055659
vn 0.415489561 0.528004831 0.740661409
vn 0.590710210 0.181946078 0.786102457
vn 0.415489561 0.528004831 0.740661409
vn 0.338331384 0.086362997 0.937055659
vn 0.086738881 0.374951192 0.922977773
vn 0.559898752 -0.827051441 0.049993011
vn 0.164376107 -0.315422891 0.934606278
vn 0.832930685 -0.096018989 0.544983328
vn 0.841994339 -0.325170111 -0.430476402
vn 0.559898752 -0.827051441 0.049993011
vn 0.832930685 -0.096018989 0.544983328
vn 0.559898752 -0.827051441 0.049993011
vn 0.841994339 -0.325170111 -0.430476402
vn 0.498007517 -0.690734088 -0.524285163
vn -0.359241477 0.464213001 0.809599809
vn 0.086738881 0.374951192 0.922977773
vn -0.147023994 0.138834110 0.979341123
vn 0.086738881 0.374951192 0.922977773
vn -0.026448759 -0.039963155 0.998851045
vn -0.147023994 0.138834110 0.979341123
vn -0.026448759 -0.039963155 0.998851045
vn 0.086738881 0.374951192 0.922977773
vn 0.338331384 0.086362997 0.937055659
vn 0.590710210 0.181946078 0.786102457
vn 0.164376107 -0.315422891 0.934606278
vn 0.338331384 0.086362997 0.937055659
vn 0.164376107 -0.315422891 0.934606278
vn 0.590710210 0.181946078 0.786102457
vn 0.832930685 -0.096018989 0.544983328
vn 0.086738881 0.374951192 0.922977773
vn 0.063775483 0.950230665 0.304949785
vn 0.415489561 0.528004831 0.740661409
vn -0.359241477 0.464213001 0.809599809
vn 0.063775483 0.950230665 0.304949785
vn 0.086738881 0.374951192 0.922977773
vn 0.100498990 0.595741169 -0.796864112
vn -0.799183827 -0.566090382 -0.202106138
vn 0.409613652 0.374005671 -0.832067554
vn -0.799183827 -0.566090382 -0.202106138
vn 0.100498990 0.595741169 -0.796864112
vn 0.089507865 -0.922738378 -0.374889621
vn 0.974836260 0.169027934 0.145340369
vn 0.923543317 -0.365166374 0.117137785
vn 0.986954514 0.156649310 0.037172307
vn 0.923543317 -0.365166374 0.117137785
vn 0.974836260 0.169027934 0.145340369
vn 0.668713291 -0.743469384 -0.008706882
vn 0.904247303 0.426719482 0.015725747
vn -0.256328744 0.556373973 -0.790407222
vn 0.922642453 0.381117171 0.058996652
vn -0.256328744 0.556373973 -0.790407222
vn 0.904247303 0.426719482 0.015725747
vn 0.699032904 -0.703811895 -0.126498281
vn 0.986954514 0.156649310 0.037172307
vn 0.667879764 -0.118964315 -0.734700016
vn 0.841994339 -0.325170111 -0.430476402
vn 0.667879764 -0.118964315 -0.734700016
vn 0.986954514 0.156649310 0.037172307
vn 0.923543317 -0.365166374 0.117137785
vn -0.253343022 0.440426518 -0.861302383
vn 0.089507865 -0.922738378 -0.374889621
vn 0.100498990 0.595741169 -0.796864112
vn 0.089507865 -0.922738378 -0.374889621
vn -0.253343022 0.440426518 -0.861302383
vn 0.542305059 -0.770861779 -0.334181597
vn 0.989378858 0.143543453 0.022907479
vn 0.668713291 -0.743469384 -0.008706882
vn 0.974836260 0.169027934 0.145340369
vn 0.668713291 -0.743469384 -0.008706882
vn 0.989378858 0.143543453 0.022907479
vn 0.751271055 -0.148557999 -0.643057014
vn 0.792125625 0.546520324 -0.271758217
vn 0.751271055 -0.148557999 -0.643057014
vn 0.989378858 0.143543453 0.022907479
vn 0.751271055 -0.148557999 -0.643057014
vn 0.792125625 0.546520324 -0.271758217
vn 0.046810198 0.888525151 -0.456433852
vn 0.922642453 0.381117171 0.058996652
vn 0.046810198 0.888525151 -0.456433852
vn 0.792125625 0.546520324 -0.271758217
vn 0.046810198 0.888525151 -0.456433852
vn 0.922642453 0.381117171 0.058996652
vn -0.256328744 0.556373973 -0.790407222
vn 0.409613652 0.374005671 -0.832067554
vn -0.818189463 -0.568977311 -0.082648790
vn 0.962520866 -0.114464365 -0.245868851
vn -0.818189463 -0.568977311 -0.082648790
vn 0.409613652 0.374005671 -0.832067554
vn -0.799183827 -0.566090382 -0.202106138
vn 0.962520866 -0.114464365 -0.245868851
vn 0.815312959 -0.570272519 0.100269800
vn 0.971521831 -0.093897549 -0.217551334
vn 0.815312959 -0.570272519 0.100269800
vn 0.962520866 -0.114464365 -0.245868851
vn -0.818189463 -0.568977311 -0.082648790
vn 0.971521831 -0.093897549 -0.217551334
vn 0.699032904 -0.703811895 -0.126498281
vn 0.904247303 0.426719482 0.015725747
vn 0.699032904 -0.703811895 -0.126498281
vn 0.971521831 -0.093897549 -0.217551334
vn 0.815312959 -0.570272519 0.100269800
vn 0.841994339 -0.325170111 -0.430476402
vn 0.262945574 -0.314558364 -0.912092463
vn 0.498007517 -0.690734088 -0.524285163
vn 0.262945574 -0.314558364 -0.912092463
vn 0.841994339 -0.325170111 -0.430476402
vn 0.667879764 -0.118964315 -0.734700016
vn -0.826066170 -0.357534293 -0.435641955
vn -0.531260891 0.166000730 -0.830786148
vn -0.888731595 0.279725955 -0.363193532
vn -0.531260891 0.166000730 -0.830786148
vn -0.826066170 -0.357534293 -0.435641955
vn -0.435566881 -0.200909351 -0.877449101
vn -0.272196566 -0.328934891 0.904273668
vn -0.026448759 -0.039963155 0.998851045
vn 0.164376107 -0.315422891 0.934606278
vn -0.694528223 -0.718926751 -0.027836576
vn -0.508014404 -0.860269616 -0.043099354
vn -0.523012117 -0.849849684 0.064914097
vn -0.508014404 -0.860269616 -0.043099354
vn -0.694528223 -0.718926751 -0.027836576
vn -0.703718917 -0.699193534 0.126127264
vn -0.904442671 -0.353421797 0.238906860
vn -0.726981009 -0.682886830 -0.071862299
vn -0.986371690 -0.137723058 -0.090018050
vn -0.703718917 -0.699193534 0.126127264
vn -0.726981009 -0.682886830 -0.071862299
vn -0.904442671 -0.353421797 0.238906860
vn -0.694528223 -0.718926751 -0.027836576
vn -0.726981009 -0.682886830 -0.071862299
vn -0.703718917 -0.699193534 0.126127264
vn -0.888731595 0.279725955 -0.363193532
vn -0.986371690 -0.137723058 -0.090018050
vn -0.826066170 -0.357534293 -0.435641955
vn -0.986371690 -0.137723058 -0.090018050
vn -0.888731595 0.279725955 -0.363193532
vn -0.916133688 0.352646807 -0.190628684
vn -0.558646569 0.826622983 -0.067885599
vn -0.927663280 0.275826800 0.251714949
vn -0.916133688 0.352646807 -0.190628684
vn -0.927663280 0.275826800 0.251714949
vn -0.558646569 0.826622983 -0.067885599
vn -0.557990243 0.804112925 0.205059240
vn -0.254518293 -0.835731672 0.486593271
vn 0.026364498 -0.879983914 -0.474271256
vn -0.508014404 -0.860269616 -0.043099354
vn -0.441888284 -0.520455795 0.730657587
vn -0.904442671 -0.353421797 0.238906860
vn -0.695900402 -0.227993146 0.680985871
vn -0.904442671 -0.353421797 0.238906860
vn -0.441888284 -0.520455795 0.730657587
vn -0.703718917 -0.699193534 0.126127264
vn -0.927663280 0.275826800 0.251714949
vn -0.557990243 0.804112925 0.205059240
vn -0.359241477 0.464213001 0.809599809
vn -0.254518293 -0.835731672 0.486593271
vn -0.703718917 -0.699193534 0.126127264
vn -0.441888284 -0.520455795 0.730657587
vn -0.703718917 -0.699193534 0.126127264
vn -0.254518293 -0.835731672 0.486593271
vn -0.508014404 -0.860269616 -0.043099354
vn -0.253343022 0.440426518 -0.861302383
vn -0.888731595 0.279725955 -0.363193532
vn -0.531260891 0.166000730 -0.830786148
vn -0.888731595 0.279725955 -0.363193532
vn -0.253343022 0.440426518 -0.861302383
vn -0.512536199 0.781551029 -0.355646783
vn -0.512536199 0.781551029 -0.355646783
vn -0.916133688 0.352646807 -0.190628684
vn -0.888731595 0.279725955 -0.363193532
vn -0.916133688 0.352646807 -0.190628684
vn -0.512536199 0.781551029 -0.355646783
vn -0.558646569 0.826622983 -0.067885599
vn -0.927663280 0.275826800 0.251714949
vn -0.986371690 -0.137723058 -0.090018050
vn -0.916133688 0.352646807 -0.190628684
vn -0.986371690 -0.137723058 -0.090018050
vn -0.927663280 0.275826800 0.251714949
vn -0.904442671 -0.353421797 0.238906860
vn -0.695900402 -0.227993146 0.680985871
vn -0.904442671 -0.353421797 0.238906860
vn -0.927663280 0.275826800 0.251714949
vn -0.495687494 -0.866639474 -0.056832468
vn -0.694528223 -0.718926751 -0.027836576
vn -0.523012117 -0.849849684 0.064914097
vn -0.694528223 -0.718926751 -0.027836576
vn -0.495687494 -0.866639474 -0.056832468
vn -0.776239143 -0.520324479 -0.355970827
vn -0.435566881 -0.200909351 -0.877449101
vn -0.251149305 -0.925592029 -0.283202086
vn -0.226700902 -0.923405665 -0.309723554
vn -0.251149305 -0.925592029 -0.283202086
vn -0.435566881 -0.200909351 -0.877449101
vn -0.826066170 -0.357534293 -0.435641955
vn -0.826066170 -0.357534293 -0.435641955
vn -0.726981009 -0.682886830 -0.071862299
vn -0.251149305 -0.925592029 -0.283202086
vn -0.726981009 -0.682886830 -0.071862299
vn -0.826066170 -0.357534293 -0.435641955
vn -0.986371690 -0.137723058 -0.090018050
vn -0.272196566 -0.328934891 0.904273668
vn -0.695900402 -0.227993146 0.680985871
vn -0.447311072 0.011675750 0.894302232
vn -0.695900402 -0.227993146 0.680985871
vn -0.272196566 -0.328934891 0.904273668
vn -0.441888284 -0.520455795 0.730657587
vn 0.559898752 -0.827051441 0.049993011
vn -0.254518293 -0.835731672 0.486593271
vn 0.164376107 -0.315422891 0.934606278
vn 0.026364498 -0.879983914 -0.474271256
vn 0.559898752 -0.827051441 0.049993011
vn 0.498007517 -0.690734088 -0.524285163
vn 0.559898752 -0.827051441 0.049993011
vn 0.026364498 -0.879983914 -0.474271256
vn -0.254518293 -0.835731672 0.486593271
vn -0.359241477 0.464213001 0.809599809
vn -0.147023994 0.138834110 0.979341123
vn -0.447311072 0.011675750 0.894302232
vn -0.447311072 0.011675750 0.894302232
vn -0.026448759 -0.039963155 0.998851045
vn -0.272196566 -0.328934891 0.904273668
vn -0.026448759 -0.039963155 0.998851045
vn -0.447311072 0.011675750 0.894302232
vn -0.147023994 0.138834110 0.979341123
vn -0.441888284 -0.520455795 0.730657587
vn 0.164376107 -0.315422891 0.934606278
vn -0.254518293 -0.835731672 0.486593271
vn 0.164376107 -0.315422891 0.934606278
vn -0.441888284 -0.520455795 0.730657587
vn -0.272196566 -0.328934891 0.904273668
vn -0.447311072 0.011675750 0.894302232
vn -0.695900402 -0.227993146 0.680985871
vn -0.927663280 0.275826800 0.251714949
vn -0.359241477 0.464213001 0.809599809
vn -0.447311072 0.011675750 0.894302232
vn -0.927663280 0.275826800 0.251714949
vn -0.531260891 0.166000730 -0.830786148
vn 0.831700661 0.543282052 -0.114536555
vn 0.851375347 -0.404495206 -0.333981508
vn 0.831700661 0.543282052 -0.114536555
vn -0.531260891 0.166000730 -0.830786148
vn -0.435566881 -0.200909351 -0.877449101
vn -0.523012117 -0.849849684 0.064914097
vn -0.006369701 -0.997718752 0.067206538
vn 0.446936106 -0.894328315 -0.020615105
vn -0.006369701 -0.997718752 0.067206538
vn -0.523012117 -0.849849684 0.064914097
vn -0.508014404 -0.860269616 -0.043099354
vn -0.726981009 -0.682886830 -0.071862299
vn -0.365078753 0.482399228 -0.796246501
vn 0.407698898 -0.901985284 -0.142141324
vn -0.365078753 0.482399228 -0.796246501
vn -0.726981009 -0.682886830 -0.071862299
vn -0.694528223 -0.718926751 -0.027836576
vn -0.508014404 -0.860269616 -0.043099354
vn -0.079268744 -0.627195239 -0.774817784
vn -0.006369701 -0.997718752 0.067206538
vn -0.079268744 -0.627195239 -0.774817784
vn -0.508014404 -0.860269616 -0.043099354
vn 0.026364498 -0.879983914 -0.474271256
vn -0.253343022 0.440426518 -0.861302383
vn 0.851375347 -0.404495206 -0.333981508
vn 0.542305059 -0.770861779 -0.334181597
vn 0.851375347 -0.404495206 -0.333981508
vn -0.253343022 0.440426518 -0.861302383
vn -0.531260891 0.166000730 -0.830786148
vn -0.495687494 -0.866639474 -0.056832468
vn 0.446936106 -0.894328315 -0.020615105
vn -0.088920476 -0.720079340 -0.688170686
vn 0.446936106 -0.894328315 -0.020615105
vn -0.495687494 -0.866639474 -0.056832468
vn -0.523012117 -0.849849684 0.064914097
vn -0.776239143 -0.520324479 -0.355970827
vn -0.088920476 -0.720079340 -0.688170686
vn -0.808408988 0.306781554 -0.502354443
vn -0.088920476 -0.720079340 -0.688170686
vn -0.776239143 -0.520324479 -0.355970827
vn -0.495687494 -0.866639474 -0.056832468
vn -0.694528223 -0.718926751 -0.027836576
vn -0.808408988 0.306781554 -0.502354443
vn -0.365078753 0.482399228 -0.796246501
vn -0.808408988 0.306781554 -0.502354443
vn -0.694528223 -0.718926751 -0.027836576
vn -0.776239143 -0.520324479 -0.355970827
vn -0.435566881 -0.200909351 -0.877449101
vn 0.832557569 0.553906172 0.005987305
vn 0.831700661 0.543282052 -0.114536555
vn 0.832557569 0.553906172 0.005987305
vn -0.435566881 -0.200909351 -0.877449101
vn -0.226700902 -0.923405665 -0.309723554
vn -0.226700902 -0.923405665 -0.309723554
vn 0.224723328 -0.972007807 0.068558364
vn 0.832557569 0.553906172 0.005987305
vn 0.224723328 -0.972007807 0.068558364
vn -0.226700902 -0.923405665 -0.309723554
vn -0.251149305 -0.925592029 -0.283202086
vn -0.251149305 -0.925592029 -0.283202086
vn 0.407698898 -0.901985284 -0.142141324
vn 0.224723328 -0.972007807 0.068558364
vn 0.407698898 -0.901985284 -0.142141324
vn -0.251149305 -0.925592029 -0.283202086
vn -0.726981009 -0.682886830 -0.071862299
vn 0.026364498 -0.879983914 -0.474271256
vn 0.262945574 -0.314558364 -0.912092463
vn -0.079268744 -0.627195239 -0.774817784
vn 0.262945574 -0.314558364 -0.912092463
vn 0.026364498 -0.879983914 -0.474271256
vn 0.498007517 -0.690734088 -0.524285163
f 3/3/3 2/2/2 1/1/1
f 6/6/6 5/5/5 4/4/4
f 9/9/9 8/8/8 7/7/7
f 12/12/12 11/11/11 10/10/10
f 15/15/15 14/14/14 13/13/13
f 18/18/18 17/17/17 16/16/16
f 21/21/21 20/20/20 19/19/19
f 24/24/24 23/23/23 22/22/22
f 27/27/27 26/26/26 25/25/25
f 30/30/30 29/29/29 28/28/28
f 33/33/33 32/32/32 31/31/31
f 36/36/36 35/35/35 34/34/34
f 39/39/39 38/38/38 37/37/37
f 42/42/42 41/41/41 40/40/40
f 45/45/45 44/44/44 43/43/43
f 48/48/48 47/47/47 46/46/46
f 51/51/51 50/50/50 49/49/49
f 54/54/54 53/53/53 52/52/52
f 57/57/57 56/56/56 55/55/55
f 60/60/60 59/59/59 58/58/58
f 63/63/63 62/62/62 61/61/61
f 66/66/66 65/65/65 64/64/64
f 69/69/69 68/68/68 67/67/67
f 72/72/72 71/71/71 70/70/70
f 75/75/75 74/74/74 73/73/73
f 78/78/78 77/77/77 76/76/76
f 81/81/81 80/80/80 79/79/79
f 84/84/84 83/83/83 82/82/82
f 87/87/87 86/86/86 85/85/85
f 90/90/90 89/89/89 88/88/88
f 93/93/93 92/92/92 91/91/91
f 96/96/96 95/95/95 94/94/94
f 99/99/99 98/98/98 97/97/97
f 102/102/102 101/101/101 100/100/100
f 105/105/105 104/104/104 103/103/103
f 108/108/108 107/107/107 106/106/106
f 111/111/111 110/110/110 109/109/109
f 114/114/114 113/113/113 112/112/112
f 117/117/117 116/116/116 115/115/115
f 120/120/120 119/119/119 118/118/118
f 123/123/123 122/122/122 121/121/121
f 126/126/126 125/125/125 124/124/124
f 129/129/129 128/128/128 127/127/127
f 132/132/132 131/131/131 130/130/130
f 135/135/135 134/134/134 133/133/133
f 138/138/138 137/137/137 136/136/136
f 141/141/141 140/140/140 139/139/139
f 144/144/144 143/143/143 142/142/142
f 147/147/147 146/146/146 145/145/145
f 150/150/150 149/149/149 148/148/148
f 153/153/153 152/152/152 151/151/151
f 156/156/156 155/155/155 154/154/154
f 159/159/159 158/158/158 157/157/157
f 162/162/162 161/161/161 160/160/160
f 165/165/165 164/164/164 163/163/163
f 168/168/168 167/167/167 166/166/166
f 171/171/171 170/170/170 169/169/169
f 174/174/174 173/173/173 172/172/172
f 177/177/177 176/176/176 175/175/175
f 180/180/180 179/179/179 178/178/178
f 183/183/183 182/182/182 181/181/181
f 186/186/186 185/185/185 184/184/184
f 189/189/189 188/188/188 187/187/187
f 192/192/192 191/191/191 190/190/190
f 195/195/195 194/194/194 193/193/193
f 198/198/198 197/197/197 196/196/196
f 201/201/201 200/200/200 199/199/199
f 204/204/204 203/203/203 202/202/202
f 207/207/207 206/206/206 205/205/205
f 210/210/210 209/209/209 208/208/208
f 213/213/213 212/212/212 211/211/211
f 216/216/216 215/215/215 214/214/214
f 219/219/219 218/218/218 217/217/217
f 222/222/222 221/221/221 220/220/220
f 225/225/225 224/224/224 223/223/223
f 228/228/228 227/227/227 226/226/226
f 231/231/231 230/230/230 229/229/229
f 234/234/234 233/233/233 232/232/232
f 237/237/237 236/236/236 235/235/235
f 240/240/240 239/239/239 238/238/238
f 243/243/243 242/242/242 241/241/241
f 246/246/246 245/245/245 244/244/244
f 249/249/249 248/248/248 247/247/247
f 252/252/252 251/251/251 250/250/250
f 255/255/255 254/254/254 253/253/253
f 258/258/258 257/257/257 256/256/256
f 261/261/261 260/260/260 259/259/259
f 264/264/264 263/263/263 262/262/262
f 267/267/267 266/266/266 265/265/265
f 270/270/270 269/269/269 268/268/268
f 273/273/273 272/272/272 271/271/271
f 276/276/276 275/275/275 274/274/274
f 279/279/279 278/278/278 277/277/277
f 282/282/282 281/281/281 280/280/280
f 285/285/285 284/284/284 283/283/283
f 288/288/288 287/287/287 286/286/286
f 291/291/291 290/290/290 289/289/289
f 294/294/294 293/293/293 292/292/292
f 297/297/297 296/296/296 295/295/295
f 300/300/300 299/299/299 298/298/298
f 303/303/303 302/302/302 301/301/301
f 306/306/306 305/305/305 304/304/304
f 309/309/309 308/308/308 307/307/307
f 312/312/312 311/311/311 310/310/310
f 315/315/315 314/314/314 313/313/313
f 318/318/318 317/317/317 316/316/316
f 321/321/321 320/320/320 319/319/319
f 324/324/324 323/323/323 322/322/322
f 327/327/327 326/326/326 325/325/325
f 330/330/330 329/329/329 328/328/328
f 333/333/333 332/332/332 331/331/331
f 336/336/336 335/335/335 334/334/334
f 339/339/339 338/338/338 337/337/337
f 342/342/342 341/341/341 340/340/340
f 345/345/345 344/344/344 343/343/343
f 348/348/348 347/347/347 346/346/346
f 351/351/351 350/350/350 349/349/349
f 354/354/354 353/353/353 352/352/352
f 357/357/357 356/356/356 355/355/355
f 360/360/360 359/359/359 358/358/358
f 363/363/363 362/362/362 361/361/361
f 366/366/366 365/365/365 364/364/364
f 369/369/369 368/368/368 367/367/367
f 372/372/372 371/371/371 370/370/370
f 375/375/375 374/374/374 373/373/373
f 378/378/378 377/377/377 376/376/376
f 381/381/381 380/380/380 379/379/379
f 384/384/384 383/383/383 382/382/382
f 387/387/387 386/386/386 385/385/385
f 390/390/390 389/389/389 388/388/388
f 393/393/393 392/392/392 391/391/391
f 396/396/396 395/395/395 394/394/394
f 399/399/399 398/398/398 397/397/397
f 402/402/402 401/401/401 400/400/400
