# Static pose baked from local Project Zomboid assets
o Bob_Hair_Messy
v 0.038011274 0.098152990 0.361412733
v 0.003425675 0.093660781 0.343796909
v 0.016114484 0.070618270 0.338362457
v 0.003425675 0.093660781 0.343796909
v 0.038011274 0.098152990 0.361412733
v 0.013408085 0.107933907 0.357311651
v 0.027579580 0.050254706 0.463123345
v 0.020948990 0.006401045 0.456737169
v 0.002218532 0.033575242 0.461315333
v 0.050487378 0.070775953 0.393973550
v 0.058873180 0.057393941 0.431880028
v 0.062174780 0.078698601 0.412693633
v 0.058873180 0.057393941 0.431880028
v 0.050487378 0.070775953 0.393973550
v 0.054637731 0.055855494 0.410258460
v 0.043728745 0.086013623 0.395461206
v 0.043301997 0.107129739 0.410447149
v 0.035854565 0.099711404 0.391125348
v 0.043728745 0.086013623 0.395461206
v 0.062174780 0.078698601 0.412693633
v 0.043301997 0.107129739 0.410447149
v 0.050487378 0.070775953 0.393973550
v 0.062174780 0.078698601 0.412693633
v 0.043728745 0.086013623 0.395461206
v 0.013408085 0.107933907 0.357311651
v 0.035854565 0.099711404 0.391125348
v 0.001112029 0.116049726 0.390064604
v 0.035854565 0.099711404 0.391125348
v 0.013408085 0.107933907 0.357311651
v 0.038011274 0.098152990 0.361412733
v -0.039272925 0.100337616 0.388269840
v -0.002907237 0.117948900 0.434163027
v -0.044907733 0.105158071 0.432144004
v -0.002907237 0.117948900 0.434163027
v -0.039272925 0.100337616 0.388269840
v 0.001112029 0.116049726 0.390064604
v 0.033607378 0.022512272 0.455095633
v 0.058873180 0.057393941 0.431880028
v 0.041021092 0.017945176 0.437335115
v 0.051314641 0.068801583 0.439427658
v 0.043301997 0.107129739 0.410447149
v 0.062174780 0.078698601 0.412693633
v 0.043301997 0.107129739 0.410447149
v 0.051314641 0.068801583 0.439427658
v 0.035053571 0.092434244 0.436343672
v -0.002907237 0.117948900 0.434163027
v -0.031672597 0.084049777 0.453064282
v -0.044907733 0.105158071 0.432144004
v 0.051314641 0.068801583 0.439427658
v 0.058873180 0.057393941 0.431880028
v 0.033607378 0.022512272 0.455095633
v 0.058873180 0.057393941 0.431880028
v 0.051314641 0.068801583 0.439427658
v 0.062174780 0.078698601 0.412693633
v -0.027056902 0.086502107 0.336034921
v 0.013408085 0.107933907 0.357311651
v -0.037428257 0.100922213 0.346509035
v 0.013408085 0.107933907 0.357311651
v -0.027056902 0.086502107 0.336034921
v 0.003425675 0.093660781 0.343796909
v -0.037428257 0.100922213 0.346509035
v 0.001112029 0.116049726 0.390064604
v -0.039272925 0.100337616 0.388269840
v 0.001112029 0.116049726 0.390064604
v -0.037428257 0.100922213 0.346509035
v 0.013408085 0.107933907 0.357311651
v -0.002907237 0.117948900 0.434163027
v 0.001112029 0.116049726 0.390064604
v 0.043301997 0.107129739 0.410447149
v 0.035053571 0.092434244 0.436343672
v -0.002907237 0.117948900 0.434163027
v 0.043301997 0.107129739 0.410447149
v 0.057507074 0.054876904 0.379904439
v 0.050487378 0.070775953 0.393973550
v 0.052411392 0.069838096 0.381430627
v 0.050487378 0.070775953 0.393973550
v 0.057507074 0.054876904 0.379904439
v 0.054637731 0.055855494 0.410258460
v 0.016114484 0.070618270 0.338362457
v 0.025622844 0.071633405 0.358980341
v 0.038011274 0.098152990 0.361412733
v 0.025622844 0.071633405 0.358980341
v 0.016114484 0.070618270 0.338362457
v 0.019696595 0.052219356 0.325875398
v 0.038011274 0.098152990 0.361412733
v 0.043728745 0.086013623 0.395461206
v 0.035854565 0.099711404 0.391125348
v 0.043728745 0.086013623 0.395461206
v 0.038011274 0.098152990 0.361412733
v 0.025622844 0.071633405 0.358980341
v 0.027579580 0.050254706 0.463123345
v 0.035053571 0.092434244 0.436343672
v 0.051314641 0.068801583 0.439427658
v 0.035053571 0.092434244 0.436343672
v 0.027579580 0.050254706 0.463123345
v 0.007430748 0.075390362 0.464771323
v 0.033064259 -0.010164058 0.440958451
v 0.020948990 0.006401045 0.456737169
v 0.033607378 0.022512272 0.455095633
v 0.041021092 0.017945176 0.437335115
v 0.033064259 -0.010164058 0.440958451
v 0.033607378 0.022512272 0.455095633
v 0.033064259 -0.010164058 0.440958451
v 0.041021092 0.017945176 0.437335115
v 0.032811061 -0.008196201 0.420744239
v -0.031672597 0.084049777 0.453064282
v 0.007430748 0.075390362 0.464771323
v -0.018529046 0.064198870 0.459761078
v 0.007430748 0.075390362 0.464771323
v 0.002218532 0.033575242 0.461315333
v -0.018529046 0.064198870 0.459761078
v 0.002218532 0.033575242 0.461315333
v 0.007430748 0.075390362 0.464771323
v 0.027579580 0.050254706 0.463123345
v 0.020948990 0.006401045 0.456737169
v 0.027579580 0.050254706 0.463123345
v 0.033607378 0.022512272 0.455095633
v 0.007430748 0.075390362 0.464771323
v -0.002907237 0.117948900 0.434163027
v 0.035053571 0.092434244 0.436343672
v -0.031672597 0.084049777 0.453064282
v -0.002907237 0.117948900 0.434163027
v 0.007430748 0.075390362 0.464771323
v 0.003425675 0.093660781 0.343796909
v 0.015007742 0.068462050 0.348773143
v 0.016114484 0.070618270 0.338362457
v 0.015007742 0.068462050 0.348773143
v 0.003425675 0.093660781 0.343796909
v 0.005344828 0.089095161 0.347316034
v 0.054637731 0.055855494 0.410258460
v 0.048590910 0.051854047 0.431546280
v 0.058873180 0.057393941 0.431880028
v 0.048590910 0.051854047 0.431546280
v 0.054637731 0.055855494 0.410258460
v 0.055145284 0.048523654 0.394823251
v 0.043728745 0.086013623 0.395461206
v 0.045544833 0.069087506 0.394387954
v 0.050487378 0.070775953 0.393973550
v 0.045544833 0.069087506 0.394387954
v 0.043728745 0.086013623 0.395461206
v 0.039789124 0.082065551 0.395654829
v 0.058873180 0.057393941 0.431880028
v 0.029304039 0.032612144 0.432925760
v 0.041021092 0.017945176 0.437335115
v 0.029304039 0.032612144 0.432925760
v 0.058873180 0.057393941 0.431880028
v 0.048590910 0.051854047 0.431546280
v -0.027056902 0.086502107 0.336034921
v 0.005344828 0.089095161 0.347316034
v 0.003425675 0.093660781 0.343796909
v 0.005344828 0.089095161 0.347316034
v -0.027056902 0.086502107 0.336034921
v -0.023802343 0.080754707 0.348233181
v 0.057507074 0.054876904 0.379904439
v 0.055145284 0.048523654 0.394823251
v 0.054637731 0.055855494 0.410258460
v 0.055145284 0.048523654 0.394823251
v 0.057507074 0.054876904 0.379904439
v 0.054190926 0.052100203 0.376396427
v 0.052411392 0.069838096 0.381430627
v 0.054190926 0.052100203 0.376396427
v 0.057507074 0.054876904 0.379904439
v 0.054190926 0.052100203 0.376396427
v 0.052411392 0.069838096 0.381430627
v 0.047045282 0.068963108 0.377737162
v 0.050487378 0.070775953 0.393973550
v 0.047045282 0.068963108 0.377737162
v 0.052411392 0.069838096 0.381430627
v 0.047045282 0.068963108 0.377737162
v 0.050487378 0.070775953 0.393973550
v 0.045544833 0.069087506 0.394387954
v 0.016114484 0.070618270 0.338362457
v 0.018058817 0.052792311 0.338138641
v 0.019696595 0.052219356 0.325875398
v 0.018058817 0.052792311 0.338138641
v 0.016114484 0.070618270 0.338362457
v 0.015007742 0.068462050 0.348773143
v 0.031615089 0.072633118 0.354550606
v 0.019696595 0.052219356 0.325875398
v 0.018058817 0.052792311 0.338138641
v 0.019696595 0.052219356 0.325875398
v 0.031615089 0.072633118 0.354550606
v 0.025622844 0.071633405 0.358980341
v 0.039789124 0.082065551 0.395654829
v 0.025622844 0.071633405 0.358980341
v 0.031615089 0.072633118 0.354550606
v 0.025622844 0.071633405 0.358980341
v 0.039789124 0.082065551 0.395654829
v 0.043728745 0.086013623 0.395461206
v 0.041021092 0.017945176 0.437335115
v 0.027551399 -0.000170858 0.417030711
v 0.032811061 -0.008196201 0.420744239
v 0.027551399 -0.000170858 0.417030711
v 0.041021092 0.017945176 0.437335115
v 0.029304039 0.032612144 0.432925760
v 0.033607378 0.022512272 0.455095633
v 0.027579580 0.050254706 0.463123345
v 0.051314641 0.068801583 0.439427658
v 0.043301997 0.107129739 0.410447149
v 0.001112029 0.116049726 0.390064604
v 0.035854565 0.099711404 0.391125348
v -0.063457690 0.029131015 0.355964409
v -0.045385819 0.060457862 0.341176001
v -0.063265247 0.055778601 0.353194716
v -0.045385819 0.060457862 0.341176001
v -0.063457690 0.029131015 0.355964409
v -0.028224907 0.040457399 0.335981676
v -0.022644419 0.016090964 0.460426593
v 0.002218532 0.033575242 0.461315333
v 0.020948990 0.006401045 0.456737169
v -0.044979685 0.005836636 0.388847495
v -0.038392965 -0.008769161 0.426657372
v -0.033836197 -0.004326901 0.405507897
v -0.038392965 -0.008769161 0.426657372
v -0.044979685 0.005836636 0.388847495
v -0.057967314 -0.003025351 0.406242665
v -0.077312581 0.025084391 0.403970812
v -0.056768813 0.017652425 0.390065041
v -0.066295041 0.030226437 0.385640477
v -0.057967314 -0.003025351 0.406242665
v -0.056768813 0.017652425 0.390065041
v -0.077312581 0.025084391 0.403970812
v -0.044979685 0.005836636 0.388847495
v -0.056768813 0.017652425 0.390065041
v -0.057967314 -0.003025351 0.406242665
v -0.063265247 0.055778601 0.353194716
v -0.066295041 0.030226437 0.385640477
v -0.063457690 0.029131015 0.355964409
v -0.066295041 0.030226437 0.385640477
v -0.063265247 0.055778601 0.353194716
v -0.068715200 0.068551327 0.386315266
v -0.039272925 0.100337616 0.388269840
v -0.072243809 0.070784259 0.430440035
v -0.068715200 0.068551327 0.386315266
v -0.072243809 0.070784259 0.430440035
v -0.039272925 0.100337616 0.388269840
v -0.044907733 0.105158071 0.432144004
v 0.001498118 0.000670671 0.453371543
v 0.004335652 -0.007009267 0.435365309
v -0.038392965 -0.008769161 0.426657372
v -0.046779181 0.002075472 0.434160560
v -0.077312581 0.025084391 0.403970812
v -0.062561158 0.026034025 0.431102299
v -0.077312581 0.025084391 0.403970812
v -0.046779181 0.002075472 0.434160560
v -0.057967314 -0.003025351 0.406242665
v -0.072243809 0.070784259 0.430440035
v -0.044907733 0.105158071 0.432144004
v -0.031672597 0.084049777 0.453064282
v -0.046779181 0.002075472 0.434160560
v -0.038392965 -0.008769161 0.426657372
v -0.057967314 -0.003025351 0.406242665
v -0.038392965 -0.008769161 0.426657372
v -0.046779181 0.002075472 0.434160560
v 0.001498118 0.000670671 0.453371543
v -0.027056902 0.086502107 0.336034921
v -0.063265247 0.055778601 0.353194716
v -0.045385819 0.060457862 0.341176001
v -0.063265247 0.055778601 0.353194716
v -0.027056902 0.086502107 0.336034921
v -0.037428257 0.100922213 0.346509035
v -0.037428257 0.100922213 0.346509035
v -0.068715200 0.068551327 0.386315266
v -0.063265247 0.055778601 0.353194716
v -0.068715200 0.068551327 0.386315266
v -0.037428257 0.100922213 0.346509035
v -0.039272925 0.100337616 0.388269840
v -0.072243809 0.070784259 0.430440035
v -0.077312581 0.025084391 0.403970812
v -0.068715200 0.068551327 0.386315266
v -0.062561158 0.026034025 0.431102299
v -0.077312581 0.025084391 0.403970812
v -0.072243809 0.070784259 0.430440035
v -0.031749929 -0.005838160 0.375111830
v -0.044979685 0.005836636 0.388847495
v -0.033836197 -0.004326901 0.405507897
v -0.044979685 0.005836636 0.388847495
v -0.031749929 -0.005838160 0.375111830
v -0.043891607 0.004330152 0.376259687
v -0.028224907 0.040457399 0.335981676
v -0.034145051 0.030977641 0.355771134
v -0.011537076 0.030973355 0.324198322
v -0.034145051 0.030977641 0.355771134
v -0.028224907 0.040457399 0.335981676
v -0.063457690 0.029131015 0.355964409
v -0.063457690 0.029131015 0.355964409
v -0.056768813 0.017652425 0.390065041
v -0.034145051 0.030977641 0.355771134
v -0.056768813 0.017652425 0.390065041
v -0.063457690 0.029131015 0.355964409
v -0.066295041 0.030226437 0.385640477
v -0.022644419 0.016090964 0.460426593
v -0.062561158 0.026034025 0.431102299
v -0.038750680 0.043976487 0.462291635
v -0.062561158 0.026034025 0.431102299
v -0.022644419 0.016090964 0.460426593
v -0.046779181 0.002075472 0.434160560
v 0.033064259 -0.010164058 0.440958451
v 0.001498118 0.000670671 0.453371543
v 0.020948990 0.006401045 0.456737169
v 0.004335652 -0.007009267 0.435365309
v 0.033064259 -0.010164058 0.440958451
v 0.032811061 -0.008196201 0.420744239
v 0.033064259 -0.010164058 0.440958451
v 0.004335652 -0.007009267 0.435365309
v 0.001498118 0.000670671 0.453371543
v -0.031672597 0.084049777 0.453064282
v -0.018529046 0.064198870 0.459761078
v -0.038750680 0.043976487 0.462291635
v -0.038750680 0.043976487 0.462291635
v 0.002218532 0.033575242 0.461315333
v -0.022644419 0.016090964 0.460426593
v 0.002218532 0.033575242 0.461315333
v -0.038750680 0.043976487 0.462291635
v -0.018529046 0.064198870 0.459761078
v 0.020948990 0.006401045 0.456737169
v 0.001498118 0.000670671 0.453371543
v -0.022644419 0.016090964 0.460426593
v -0.038750680 0.043976487 0.462291635
v -0.062561158 0.026034025 0.431102299
v -0.072243809 0.070784259 0.430440035
v -0.031672597 0.084049777 0.453064282
v -0.038750680 0.043976487 0.462291635
v -0.072243809 0.070784259 0.430440035
v -0.045385819 0.060457862 0.341176001
v -0.026582637 0.040171132 0.346539969
v -0.042105375 0.056818230 0.344768220
v -0.026582637 0.040171132 0.346539969
v -0.045385819 0.060457862 0.341176001
v -0.028224907 0.040457399 0.335981676
v -0.033836197 -0.004326901 0.405507897
v -0.029476748 -0.001249719 0.427354477
v -0.026084404 -0.006731010 0.390461665
v -0.029476748 -0.001249719 0.427354477
v -0.033836197 -0.004326901 0.405507897
v -0.038392965 -0.008769161 0.426657372
v -0.056768813 0.017652425 0.390065041
v -0.041640498 0.009781650 0.389706582
v -0.051681624 0.019844636 0.390743354
v -0.041640498 0.009781650 0.389706582
v -0.056768813 0.017652425 0.390065041
v -0.044979685 0.005836636 0.388847495
v -0.038392965 -0.008769161 0.426657372
v -0.004683602 0.009492817 0.431100811
v -0.029476748 -0.001249719 0.427354477
v -0.004683602 0.009492817 0.431100811
v -0.038392965 -0.008769161 0.426657372
v 0.004335652 -0.007009267 0.435365309
v -0.027056902 0.086502107 0.336034921
v -0.042105375 0.056818230 0.344768220
v -0.023802343 0.080754707 0.348233181
v -0.042105375 0.056818230 0.344768220
v -0.027056902 0.086502107 0.336034921
v -0.045385819 0.060457862 0.341176001
v -0.031749929 -0.005838160 0.375111830
v -0.026084404 -0.006731010 0.390461665
v -0.027706190 -0.003608465 0.371999003
v -0.026084404 -0.006731010 0.390461665
v -0.031749929 -0.005838160 0.375111830
v -0.033836197 -0.004326901 0.405507897
v -0.043891607 0.004330152 0.376259687
v -0.027706190 -0.003608465 0.371999003
v -0.040852080 0.009172909 0.373017558
v -0.027706190 -0.003608465 0.371999003
v -0.043891607 0.004330152 0.376259687
v -0.031749929 -0.005838160 0.375111830
v -0.044979685 0.005836636 0.388847495
v -0.040852080 0.009172909 0.373017558
v -0.041640498 0.009781650 0.389706582
v -0.040852080 0.009172909 0.373017558
v -0.044979685 0.005836636 0.388847495
v -0.043891607 0.004330152 0.376259687
v -0.028224907 0.040457399 0.335981676
v -0.012370306 0.032093585 0.336504765
v -0.026582637 0.040171132 0.346539969
v -0.012370306 0.032093585 0.336504765
v -0.028224907 0.040457399 0.335981676
v -0.011537076 0.030973355 0.324198322
v -0.036933453 0.026004517 0.350869928
v -0.011537076 0.030973355 0.324198322
v -0.034145051 0.030977641 0.355771134
v -0.011537076 0.030973355 0.324198322
v -0.036933453 0.026004517 0.350869928
v -0.012370306 0.032093585 0.336504765
v -0.051681624 0.019844636 0.390743354
v -0.034145051 0.030977641 0.355771134
v -0.056768813 0.017652425 0.390065041
v -0.034145051 0.030977641 0.355771134
v -0.051681624 0.019844636 0.390743354
v -0.036933453 0.026004517 0.350869928
v 0.004335652 -0.007009267 0.435365309
v 0.027551399 -0.000170858 0.417030711
v -0.004683602 0.009492817 0.431100811
v 0.027551399 -0.000170858 0.417030711
v 0.004335652 -0.007009267 0.435365309
v 0.032811061 -0.008196201 0.420744239
v 0.001498118 0.000670671 0.453371543
v -0.046779181 0.002075472 0.434160560
v -0.022644419 0.016090964 0.460426593
v -0.077312581 0.025084391 0.403970812
v -0.066295041 0.030226437 0.385640477
v -0.068715200 0.068551327 0.386315266
vt 0.547159016 0.892579973
vt 0.623470008 0.950547993
vt 0.564655006 0.975055993
vt 0.623470008 0.950547993
vt 0.547159016 0.892579973
vt 0.598622978 0.908309996
vt 0.575388014 0.633992016
vt 0.536593974 0.552173972
vt 0.614920020 0.582588017
vt 0.466116011 0.797484994
vt 0.496448994 0.701074004
vt 0.496257007 0.760087013
vt 0.496448994 0.701074004
vt 0.466116011 0.797484994
vt 0.471264988 0.745384991
vt 0.501564980 0.825398982
vt 0.543417990 0.793291986
vt 0.537249982 0.835762024
vt 0.501564980 0.825398982
vt 0.496257007 0.760087013
vt 0.543417990 0.793291986
vt 0.466116011 0.797484994
vt 0.496257007 0.760087013
vt 0.501564980 0.825398982
vt 0.598622978 0.908309996
vt 0.537249982 0.835762024
vt 0.618745983 0.844866991
vt 0.537249982 0.835762024
vt 0.598622978 0.908309996
vt 0.547159016 0.892579973
vt 0.701747000 0.848196030
vt 0.635069013 0.764032006
vt 0.702112973 0.763076007
vt 0.635069013 0.764032006
vt 0.701747000 0.848196030
vt 0.618745983 0.844866991
vt 0.524047971 0.597316980
vt 0.496448994 0.701074004
vt 0.482524008 0.605809987
vt 0.525842011 0.700514972
vt 0.543417990 0.793291986
vt 0.496257007 0.760087013
vt 0.543417990 0.793291986
vt 0.525842011 0.700514972
vt 0.563948989 0.731159985
vt 0.635069013 0.764032006
vt 0.702381015 0.698305011
vt 0.702112973 0.763076007
vt 0.525842011 0.700514972
vt 0.496448994 0.701074004
vt 0.524047971 0.597316980
vt 0.496448994 0.701074004
vt 0.525842011 0.700514972
vt 0.496257007 0.760087013
vt 0.701799989 0.954851985
vt 0.598622978 0.908309996
vt 0.701798975 0.923744023
vt 0.598622978 0.908309996
vt 0.701799989 0.954851985
vt 0.623470008 0.950547993
vt 0.701798975 0.923744023
vt 0.618745983 0.844866991
vt 0.701747000 0.848196030
vt 0.618745983 0.844866991
vt 0.701798975 0.923744023
vt 0.598622978 0.908309996
vt 0.635069013 0.764032006
vt 0.618745983 0.844866991
vt 0.543417990 0.793291986
vt 0.563948989 0.731159985
vt 0.635069013 0.764032006
vt 0.543417990 0.793291986
vt 0.416601986 0.771685004
vt 0.466116011 0.797484994
vt 0.436928988 0.798636973
vt 0.466116011 0.797484994
vt 0.416601986 0.771685004
vt 0.471264988 0.745384991
vt 0.564655006 0.975055993
vt 0.510908008 0.926572025
vt 0.547159016 0.892579973
vt 0.510908008 0.926572025
vt 0.564655006 0.975055993
vt 0.535815001 1.001693010
vt 0.547159016 0.892579973
vt 0.501564980 0.825398982
vt 0.537249982 0.835762024
vt 0.501564980 0.825398982
vt 0.547159016 0.892579973
vt 0.510908008 0.926572025
vt 0.575388014 0.633992016
vt 0.563948989 0.731159985
vt 0.525842011 0.700514972
vt 0.563948989 0.731159985
vt 0.575388014 0.633992016
vt 0.629576027 0.662782013
vt 0.482804000 0.537523985
vt 0.536593974 0.552173972
vt 0.524047971 0.597316980
vt 0.482524008 0.605809987
vt 0.482804000 0.537523985
vt 0.524047971 0.597316980
vt 0.482804000 0.537523985
vt 0.482524008 0.605809987
vt 0.443269014 0.548183978
vt 0.702381015 0.698305011
vt 0.629576027 0.662782013
vt 0.701249003 0.643194973
vt 0.629576027 0.662782013
vt 0.614920020 0.582588017
vt 0.701249003 0.643194973
vt 0.614920020 0.582588017
vt 0.629576027 0.662782013
vt 0.575388014 0.633992016
vt 0.536593974 0.552173972
vt 0.575388014 0.633992016
vt 0.524047971 0.597316980
vt 0.629576027 0.662782013
vt 0.635069013 0.764032006
vt 0.563948989 0.731159985
vt 0.702381015 0.698305011
vt 0.635069013 0.764032006
vt 0.629576027 0.662782013
vt 0.623470008 0.950547993
vt 0.581928015 0.993404984
vt 0.564655006 0.975055993
vt 0.581928015 0.993404984
vt 0.623470008 0.950547993
vt 0.623659015 0.964627981
vt 0.471264988 0.745384991
vt 0.477443010 0.687121987
vt 0.496448994 0.701074004
vt 0.477443010 0.687121987
vt 0.471264988 0.745384991
vt 0.443235993 0.755833983
vt 0.501564980 0.825398982
vt 0.465986997 0.810808003
vt 0.466116011 0.797484994
vt 0.465986997 0.810808003
vt 0.501564980 0.825398982
vt 0.495902985 0.832556009
vt 0.496448994 0.701074004
vt 0.452951014 0.635303020
vt 0.482524008 0.605809987
vt 0.452951014 0.635303020
vt 0.496448994 0.701074004
vt 0.477443010 0.687121987
vt 0.701799989 0.954851985
vt 0.623659015 0.964627981
vt 0.623470008 0.950547993
vt 0.623659015 0.964627981
vt 0.701799989 0.954851985
vt 0.701831996 0.978793979
vt 0.416601986 0.771685004
vt 0.443235993 0.755833983
vt 0.471264988 0.745384991
vt 0.443235993 0.755833983
vt 0.416601986 0.771685004
vt 0.405966997 0.769429982
vt 0.436928988 0.798636973
vt 0.405966997 0.769429982
vt 0.416601986 0.771685004
vt 0.405966997 0.769429982
vt 0.436928988 0.798636973
vt 0.428570986 0.807705998
vt 0.466116011 0.797484994
vt 0.428570986 0.807705998
vt 0.436928988 0.798636973
vt 0.428570986 0.807705998
vt 0.466116011 0.797484994
vt 0.465986997 0.810808003
vt 0.564655006 0.975055993
vt 0.536336005 0.997380018
vt 0.535815001 1.001693010
vt 0.536336005 0.997380018
vt 0.564655006 0.975055993
vt 0.581928015 0.993404984
vt 0.506120980 0.928981006
vt 0.535815001 1.001693010
vt 0.536336005 0.997380018
vt 0.535815001 1.001693010
vt 0.506120980 0.928981006
vt 0.510908008 0.926572025
vt 0.495902985 0.832556009
vt 0.510908008 0.926572025
vt 0.506120980 0.928981006
vt 0.510908008 0.926572025
vt 0.495902985 0.832556009
vt 0.501564980 0.825398982
vt 0.482524008 0.605809987
vt 0.430467993 0.564294994
vt 0.443269014 0.548183978
vt 0.430467993 0.564294994
vt 0.482524008 0.605809987
vt 0.452951014 0.635303020
vt 0.524047971 0.597316980
vt 0.575388014 0.633992016
vt 0.525842011 0.700514972
vt 0.543417990 0.793291986
vt 0.618745983 0.844866991
vt 0.537249982 0.835762024
vt 0.856059015 0.892018974
vt 0.780059993 0.950192988
vt 0.804904997 0.907872021
vt 0.780059993 0.950192988
vt 0.856059015 0.892018974
vt 0.838787019 0.974663019
vt 0.834345996 0.623040974
vt 0.769070983 0.578867018
vt 0.903346002 0.554719985
vt 0.935509026 0.800552011
vt 0.912904978 0.703616977
vt 0.933768988 0.750177979
vt 0.912904978 0.703616977
vt 0.935509026 0.800552011
vt 0.906023026 0.760452986
vt 0.859230995 0.791541994
vt 0.899888992 0.825468004
vt 0.864673972 0.834962010
vt 0.906023026 0.760452986
vt 0.899888992 0.825468004
vt 0.859230995 0.791541994
vt 0.935509026 0.800552011
vt 0.899888992 0.825468004
vt 0.906023026 0.760452986
vt 0.804904997 0.907872021
vt 0.864673972 0.834962010
vt 0.856059015 0.892018974
vt 0.864673972 0.834962010
vt 0.804904997 0.907872021
vt 0.784198999 0.844097972
vt 0.701747000 0.848196030
vt 0.769288003 0.761848986
vt 0.784198999 0.844097972
vt 0.769288003 0.761848986
vt 0.701747000 0.848196030
vt 0.702112973 0.763076007
vt 0.899870992 0.597337008
vt 0.938205004 0.614369988
vt 0.912904978 0.703616977
vt 0.880010009 0.697547972
vt 0.859230995 0.791541994
vt 0.840429008 0.727449000
vt 0.859230995 0.791541994
vt 0.880010009 0.697547972
vt 0.906023026 0.760452986
vt 0.769288003 0.761848986
vt 0.702112973 0.763076007
vt 0.702381015 0.698305011
vt 0.880010009 0.697547972
vt 0.912904978 0.703616977
vt 0.906023026 0.760452986
vt 0.912904978 0.703616977
vt 0.880010009 0.697547972
vt 0.899870992 0.597337008
vt 0.701799989 0.954851985
vt 0.804904997 0.907872021
vt 0.780059993 0.950192988
vt 0.804904997 0.907872021
vt 0.701799989 0.954851985
vt 0.701798975 0.923744023
vt 0.701798975 0.923744023
vt 0.784198999 0.844097972
vt 0.804904997 0.907872021
vt 0.784198999 0.844097972
vt 0.701798975 0.923744023
vt 0.701747000 0.848196030
vt 0.769288003 0.761848986
vt 0.859230995 0.791541994
vt 0.784198999 0.844097972
vt 0.840429008 0.727449000
vt 0.859230995 0.791541994
vt 0.769288003 0.761848986
vt 0.987073004 0.777397990
vt 0.935509026 0.800552011
vt 0.933768988 0.750177979
vt 0.935509026 0.800552011
vt 0.987073004 0.777397990
vt 0.965135992 0.803327024
vt 0.838787019 0.974663019
vt 0.892302990 0.926320016
vt 0.867556989 1.001423001
vt 0.892302990 0.926320016
vt 0.838787019 0.974663019
vt 0.856059015 0.892018974
vt 0.856059015 0.892018974
vt 0.899888992 0.825468004
vt 0.892302990 0.926320016
vt 0.899888992 0.825468004
vt 0.856059015 0.892018974
vt 0.864673972 0.834962010
vt 0.834345996 0.623040974
vt 0.840429008 0.727449000
vt 0.775618017 0.658420026
vt 0.840429008 0.727449000
vt 0.834345996 0.623040974
vt 0.880010009 0.697547972
vt 0.960444987 0.555580974
vt 0.899870992 0.597337008
vt 0.903346002 0.554719985
vt 0.938205004 0.614369988
vt 0.960444987 0.555580974
vt 0.994813025 0.578773022
vt 0.960444987 0.555580974
vt 0.938205004 0.614369988
vt 0.899870992 0.597337008
vt 0.702381015 0.698305011
vt 0.701249003 0.643194973
vt 0.775618017 0.658420026
vt 0.775618017 0.658420026
vt 0.769070983 0.578867018
vt 0.834345996 0.623040974
vt 0.769070983 0.578867018
vt 0.775618017 0.658420026
vt 0.701249003 0.643194973
vt 0.903346002 0.554719985
vt 0.899870992 0.597337008
vt 0.834345996 0.623040974
vt 0.775618017 0.658420026
vt 0.840429008 0.727449000
vt 0.769288003 0.761848986
vt 0.702381015 0.698305011
vt 0.775618017 0.658420026
vt 0.769288003 0.761848986
vt 0.780059993 0.950192988
vt 0.821519971 0.993003011
vt 0.779891014 0.964271009
vt 0.821519971 0.993003011
vt 0.780059993 0.950192988
vt 0.838787019 0.974663019
vt 0.933768988 0.750177979
vt 0.933595002 0.692207992
vt 0.960435987 0.762238026
vt 0.933595002 0.692207992
vt 0.933768988 0.750177979
vt 0.912904978 0.703616977
vt 0.899888992 0.825468004
vt 0.935525000 0.813561022
vt 0.905080974 0.833117008
vt 0.935525000 0.813561022
vt 0.899888992 0.825468004
vt 0.935509026 0.800552011
vt 0.912904978 0.703616977
vt 0.966790974 0.643610001
vt 0.933595002 0.692207992
vt 0.966790974 0.643610001
vt 0.912904978 0.703616977
vt 0.938205004 0.614369988
vt 0.701799989 0.954851985
vt 0.779891014 0.964271009
vt 0.701831996 0.978793979
vt 0.779891014 0.964271009
vt 0.701799989 0.954851985
vt 0.780059993 0.950192988
vt 0.987073004 0.777397990
vt 0.960435987 0.762238026
vt 0.997792006 0.775247991
vt 0.960435987 0.762238026
vt 0.987073004 0.777397990
vt 0.933768988 0.750177979
vt 0.965135992 0.803327024
vt 0.997792006 0.775247991
vt 0.972985029 0.812638998
vt 0.997792006 0.775247991
vt 0.965135992 0.803327024
vt 0.987073004 0.777397990
vt 0.935509026 0.800552011
vt 0.972985029 0.812638998
vt 0.935525000 0.813561022
vt 0.972985029 0.812638998
vt 0.935509026 0.800552011
vt 0.965135992 0.803327024
vt 0.838787019 0.974663019
vt 0.867008984 0.997119009
vt 0.821519971 0.993003011
vt 0.867008984 0.997119009
vt 0.838787019 0.974663019
vt 0.867556989 1.001423001
vt 0.897174001 0.928879976
vt 0.867556989 1.001423001
vt 0.892302990 0.926320016
vt 0.867556989 1.001423001
vt 0.897174001 0.928879976
vt 0.867008984 0.997119009
vt 0.905080974 0.833117008
vt 0.892302990 0.926320016
vt 0.899888992 0.825468004
vt 0.892302990 0.926320016
vt 0.905080974 0.833117008
vt 0.897174001 0.928879976
vt 0.938205004 0.614369988
vt 0.983116984 0.568921030
vt 0.966790974 0.643610001
vt 0.983116984 0.568921030
vt 0.938205004 0.614369988
vt 0.967749000 0.553937972
vt 0.899870992 0.597337008
vt 0.880010009 0.697547972
vt 0.834345996 0.623040974
vt 0.859230995 0.791541994
vt 0.864673972 0.834962010
vt 0.784198999 0.844097972
vn 0.792984989 0.300564243 -0.529939565
vn 0.159728946 0.382121467 -0.910203191
vn 0.415820685 0.132138932 -0.899795788
vn 0.159728946 0.382121467 -0.910203191
vn 0.792984989 0.300564243 -0.529939565
vn 0.178587788 0.898366197 -0.401303598
vn 0.399454313 0.110438979 0.910076636
vn 0.144463588 -0.287122947 0.946937530
vn -0.008581590 -0.066144533 0.997773149
vn 0.944319734 0.144602119 -0.295551124
vn 0.958444423 -0.285260465 0.003279582
vn 0.948793343 0.310602893 -0.057593702
vn 0.958444423 -0.285260465 0.003279582
vn 0.944319734 0.144602119 -0.295551124
vn 0.994621987 -0.101466340 0.020777046
vn 0.894117374 0.086613480 -0.439377090
vn 0.565977989 0.815787980 0.118991125
vn 0.532177407 0.828087395 -0.176234143
vn 0.894117374 0.086613480 -0.439377090
vn 0.948793343 0.310602893 -0.057593702
vn 0.565977989 0.815787980 0.118991125
vn 0.944319734 0.144602119 -0.295551124
vn 0.948793343 0.310602893 -0.057593702
vn 0.894117374 0.086613480 -0.439377090
vn 0.178587788 0.898366197 -0.401303598
vn 0.532177407 0.828087395 -0.176234143
vn -0.020784661 0.991795072 -0.126136958
vn 0.532177407 0.828087395 -0.176234143
vn 0.178587788 0.898366197 -0.401303598
vn 0.792984989 0.300564243 -0.529939565
vn -0.557045694 0.825835587 -0.087725012
vn -0.003350768 0.913744145 0.406276272
vn -0.552183050 0.790954931 0.263598514
vn -0.003350768 0.913744145 0.406276272
vn -0.557045694 0.825835587 -0.087725012
vn -0.020784661 0.991795072 -0.126136958
vn 0.724244338 -0.173315464 0.667406839
vn 0.958444423 -0.285260465 0.003279582
vn 0.944322224 -0.173527824 -0.279541825
vn 0.695994697 0.294729640 0.654771579
vn 0.565977989 0.815787980 0.118991125
vn 0.948793343 0.310602893 -0.057593702
vn 0.565977989 0.815787980 0.118991125
vn 0.695994697 0.294729640 0.654771579
vn 0.480554578 0.548710029 0.684094000
vn -0.003350768 0.913744145 0.406276272
vn -0.333801170 0.424274312 0.841764865
vn -0.552183050 0.790954931 0.263598514
vn 0.695994697 0.294729640 0.654771579
vn 0.958444423 -0.285260465 0.003279582
vn 0.724244338 -0.173315464 0.667406839
vn 0.958444423 -0.285260465 0.003279582
vn 0.695994697 0.294729640 0.654771579
vn 0.948793343 0.310602893 -0.057593702
vn -0.069610252 0.179788959 -0.981239188
vn 0.178587788 0.898366197 -0.401303598
vn -0.516230645 0.785796897 -0.340630530
vn 0.178587788 0.898366197 -0.401303598
vn -0.069610252 0.179788959 -0.981239188
vn 0.159728946 0.382121467 -0.910203191
vn -0.516230645 0.785796897 -0.340630530
vn -0.020784661 0.991795072 -0.126136958
vn -0.557045694 0.825835587 -0.087725012
vn -0.020784661 0.991795072 -0.126136958
vn -0.516230645 0.785796897 -0.340630530
vn 0.178587788 0.898366197 -0.401303598
vn -0.003350768 0.913744145 0.406276272
vn -0.020784661 0.991795072 -0.126136958
vn 0.565977989 0.815787980 0.118991125
vn 0.480554578 0.548710029 0.684094000
vn -0.003350768 0.913744145 0.406276272
vn 0.565977989 0.815787980 0.118991125
vn 0.985111980 0.171838828 0.005079695
vn 0.944319734 0.144602119 -0.295551124
vn 0.769006362 0.512318121 -0.382307936
vn 0.944319734 0.144602119 -0.295551124
vn 0.985111980 0.171838828 0.005079695
vn 0.994621987 -0.101466340 0.020777046
vn 0.415820685 0.132138932 -0.899795788
vn 0.893645222 -0.043822507 -0.446629382
vn 0.792984989 0.300564243 -0.529939565
vn 0.893645222 -0.043822507 -0.446629382
vn 0.415820685 0.132138932 -0.899795788
vn 0.609770633 0.465104421 -0.641761367
vn 0.792984989 0.300564243 -0.529939565
vn 0.894117374 0.086613480 -0.439377090
vn 0.532177407 0.828087395 -0.176234143
vn 0.894117374 0.086613480 -0.439377090
vn 0.792984989 0.300564243 -0.529939565
vn 0.893645222 -0.043822507 -0.446629382
vn 0.399454313 0.110438979 0.910076636
vn 0.480554578 0.548710029 0.684094000
vn 0.695994697 0.294729640 0.654771579
vn 0.480554578 0.548710029 0.684094000
vn 0.399454313 0.110438979 0.910076636
vn 0.115763468 0.375788586 0.919446441
vn 0.483202345 -0.746467003 0.457495909
vn 0.144463588 -0.287122947 0.946937530
vn 0.724244338 -0.173315464 0.667406839
vn 0.944322224 -0.173527824 -0.279541825
vn 0.483202345 -0.746467003 0.457495909
vn 0.724244338 -0.173315464 0.667406839
vn 0.483202345 -0.746467003 0.457495909
vn 0.944322224 -0.173527824 -0.279541825
vn 0.523868285 -0.736334862 -0.428220728
vn -0.333801170 0.424274312 0.841764865
vn 0.115763468 0.375788586 0.919446441
vn -0.112051233 0.086585489 0.989922964
vn 0.115763468 0.375788586 0.919446441
vn -0.008581590 -0.066144533 0.997773149
vn -0.112051233 0.086585489 0.989922964
vn -0.008581590 -0.066144533 0.997773149
vn 0.115763468 0.375788586 0.919446441
vn 0.399454313 0.110438979 0.910076636
vn 0.144463588 -0.287122947 0.946937530
vn 0.399454313 0.110438979 0.910076636
vn 0.724244338 -0.173315464 0.667406839
vn 0.115763468 0.375788586 0.919446441
vn -0.003350768 0.913744145 0.406276272
vn 0.480554578 0.548710029 0.684094000
vn -0.333801170 0.424274312 0.841764865
vn -0.003350768 0.913744145 0.406276272
vn 0.115763468 0.375788586 0.919446441
vn 0.159728946 0.382121467 -0.910203191
vn -0.932513089 -0.328264273 -0.150538720
vn 0.415820685 0.132138932 -0.899795788
vn -0.932513089 -0.328264273 -0.150538720
vn 0.159728946 0.382121467 -0.910203191
vn 0.150916560 -0.798316754 -0.583021914
vn 0.994621987 -0.101466340 0.020777046
vn 0.730552991 -0.674138256 -0.108765522
vn 0.958444423 -0.285260465 0.003279582
vn 0.730552991 -0.674138256 -0.108765522
vn 0.994621987 -0.101466340 0.020777046
vn 0.940237270 -0.325275673 0.100745289
vn 0.894117374 0.086613480 -0.439377090
vn -0.231674035 0.469027885 -0.852255821
vn 0.944319734 0.144602119 -0.295551124
vn -0.231674035 0.469027885 -0.852255821
vn 0.894117374 0.086613480 -0.439377090
vn 0.277544381 0.684550809 -0.674061797
vn 0.958444423 -0.285260465 0.003279582
vn 0.368568540 0.011580517 -0.929528441
vn 0.944322224 -0.173527824 -0.279541825
vn 0.368568540 0.011580517 -0.929528441
vn 0.958444423 -0.285260465 0.003279582
vn 0.730552991 -0.674138256 -0.108765522
vn -0.069610252 0.179788959 -0.981239188
vn 0.150916560 -0.798316754 -0.583021914
vn 0.159728946 0.382121467 -0.910203191
vn 0.150916560 -0.798316754 -0.583021914
vn -0.069610252 0.179788959 -0.981239188
vn 0.512479928 -0.715973377 -0.474074306
vn 0.985111980 0.171838828 0.005079695
vn 0.940237270 -0.325275673 0.100745289
vn 0.994621987 -0.101466340 0.020777046
vn 0.940237270 -0.325275673 0.100745289
vn 0.985111980 0.171838828 0.005079695
vn 0.703134726 -0.005016199 -0.711038955
vn 0.769006362 0.512318121 -0.382307936
vn 0.703134726 -0.005016199 -0.711038955
vn 0.985111980 0.171838828 0.005079695
vn 0.703134726 -0.005016199 -0.711038955
vn 0.769006362 0.512318121 -0.382307936
vn 0.116099273 0.865851907 -0.486643026
vn 0.944319734 0.144602119 -0.295551124
vn 0.116099273 0.865851907 -0.486643026
vn 0.769006362 0.512318121 -0.382307936
vn 0.116099273 0.865851907 -0.486643026
vn 0.944319734 0.144602119 -0.295551124
vn -0.231674035 0.469027885 -0.852255821
vn 0.415820685 0.132138932 -0.899795788
vn -0.584467077 -0.810420296 -0.040214175
vn 0.609770633 0.465104421 -0.641761367
vn -0.584467077 -0.810420296 -0.040214175
vn 0.415820685 0.132138932 -0.899795788
vn -0.932513089 -0.328264273 -0.150538720
vn 0.094733635 0.931394000 -0.351469424
vn 0.609770633 0.465104421 -0.641761367
vn -0.584467077 -0.810420296 -0.040214175
vn 0.609770633 0.465104421 -0.641761367
vn 0.094733635 0.931394000 -0.351469424
vn 0.893645222 -0.043822507 -0.446629382
vn 0.277544381 0.684550809 -0.674061797
vn 0.893645222 -0.043822507 -0.446629382
vn 0.094733635 0.931394000 -0.351469424
vn 0.893645222 -0.043822507 -0.446629382
vn 0.277544381 0.684550809 -0.674061797
vn 0.894117374 0.086613480 -0.439377090
vn 0.944322224 -0.173527824 -0.279541825
vn 0.161799216 -0.161008279 -0.973600199
vn 0.523868285 -0.736334862 -0.428220728
vn 0.161799216 -0.161008279 -0.973600199
vn 0.944322224 -0.173527824 -0.279541825
vn 0.368568540 0.011580517 -0.929528441
vn 0.724244338 -0.173315464 0.667406839
vn 0.399454313 0.110438979 0.910076636
vn 0.695994697 0.294729640 0.654771579
vn 0.565977989 0.815787980 0.118991125
vn -0.020784661 0.991795072 -0.126136958
vn 0.532177407 0.828087395 -0.176234143
vn -0.529322798 -0.598905833 -0.600940245
vn -0.346258305 0.037935032 -0.937371922
vn -0.869634472 0.185336608 -0.457587399
vn -0.346258305 0.037935032 -0.937371922
vn -0.529322798 -0.598905833 -0.600940245
vn -0.208351634 -0.292440224 -0.933310405
vn -0.314856168 -0.375454639 0.871722093
vn -0.008581590 -0.066144533 0.997773149
vn 0.144463588 -0.287122947 0.946937530
vn -0.456905485 -0.808549757 -0.370789251
vn -0.084926790 -0.994990220 -0.052743750
vn -0.270009761 -0.961703591 -0.047126768
vn -0.084926790 -0.994990220 -0.052743750
vn -0.456905485 -0.808549757 -0.370789251
vn -0.630065016 -0.763379935 -0.142369766
vn -0.972360321 -0.230631997 0.036390766
vn -0.374232593 -0.776152996 -0.507480535
vn -0.949820323 -0.180008180 -0.255809320
vn -0.630065016 -0.763379935 -0.142369766
vn -0.374232593 -0.776152996 -0.507480535
vn -0.972360321 -0.230631997 0.036390766
vn -0.456905485 -0.808549757 -0.370789251
vn -0.374232593 -0.776152996 -0.507480535
vn -0.630065016 -0.763379935 -0.142369766
vn -0.869634472 0.185336608 -0.457587399
vn -0.949820323 -0.180008180 -0.255809320
vn -0.529322798 -0.598905833 -0.600940245
vn -0.949820323 -0.180008180 -0.255809320
vn -0.869634472 0.185336608 -0.457587399
vn -0.903825098 0.391126709 -0.173551404
vn -0.557045694 0.825835587 -0.087725012
vn -0.876742108 0.319639383 0.359379940
vn -0.903825098 0.391126709 -0.173551404
vn -0.876742108 0.319639383 0.359379940
vn -0.557045694 0.825835587 -0.087725012
vn -0.552183050 0.790954931 0.263598514
vn -0.152106309 -0.769433265 0.620351612
vn -0.162771285 -0.926603224 -0.338986689
vn -0.084926790 -0.994990220 -0.052743750
vn -0.575348499 -0.570072936 0.586507419
vn -0.972360321 -0.230631997 0.036390766
vn -0.734700415 -0.277939795 0.618841475
vn -0.972360321 -0.230631997 0.036390766
vn -0.575348499 -0.570072936 0.586507419
vn -0.630065016 -0.763379935 -0.142369766
vn -0.876742108 0.319639383 0.359379940
vn -0.552183050 0.790954931 0.263598514
vn -0.333801170 0.424274312 0.841764865
vn -0.575348499 -0.570072936 0.586507419
vn -0.084926790 -0.994990220 -0.052743750
vn -0.630065016 -0.763379935 -0.142369766
vn -0.084926790 -0.994990220 -0.052743750
vn -0.575348499 -0.570072936 0.586507419
vn -0.152106309 -0.769433265 0.620351612
vn -0.069610252 0.179788959 -0.981239188
vn -0.869634472 0.185336608 -0.457587399
vn -0.346258305 0.037935032 -0.937371922
vn -0.869634472 0.185336608 -0.457587399
vn -0.069610252 0.179788959 -0.981239188
vn -0.516230645 0.785796897 -0.340630530
vn -0.516230645 0.785796897 -0.340630530
vn -0.903825098 0.391126709 -0.173551404
vn -0.869634472 0.185336608 -0.457587399
vn -0.903825098 0.391126709 -0.173551404
vn -0.516230645 0.785796897 -0.340630530
vn -0.557045694 0.825835587 -0.087725012
vn -0.876742108 0.319639383 0.359379940
vn -0.972360321 -0.230631997 0.036390766
vn -0.903825098 0.391126709 -0.173551404
vn -0.734700415 -0.277939795 0.618841475
vn -0.972360321 -0.230631997 0.036390766
vn -0.876742108 0.319639383 0.359379940
vn -0.519090876 -0.851361276 -0.075687778
vn -0.456905485 -0.808549757 -0.370789251
vn -0.270009761 -0.961703591 -0.047126768
vn -0.456905485 -0.808549757 -0.370789251
vn -0.519090876 -0.851361276 -0.075687778
vn -0.727960041 -0.505959553 -0.462686838
vn -0.208351634 -0.292440224 -0.933310405
vn -0.252450168 -0.823428057 -0.508168425
vn -0.607059234 -0.362616686 -0.707098455
vn -0.252450168 -0.823428057 -0.508168425
vn -0.208351634 -0.292440224 -0.933310405
vn -0.529322798 -0.598905833 -0.600940245
vn -0.529322798 -0.598905833 -0.600940245
vn -0.374232593 -0.776152996 -0.507480535
vn -0.252450168 -0.823428057 -0.508168425
vn -0.374232593 -0.776152996 -0.507480535
vn -0.529322798 -0.598905833 -0.600940245
vn -0.949820323 -0.180008180 -0.255809320
vn -0.314856168 -0.375454639 0.871722093
vn -0.734700415 -0.277939795 0.618841475
vn -0.458413044 -0.014782045 0.888616324
vn -0.734700415 -0.277939795 0.618841475
vn -0.314856168 -0.375454639 0.871722093
vn -0.575348499 -0.570072936 0.586507419
vn 0.483202345 -0.746467003 0.457495909
vn -0.152106309 -0.769433265 0.620351612
vn 0.144463588 -0.287122947 0.946937530
vn -0.162771285 -0.926603224 -0.338986689
vn 0.483202345 -0.746467003 0.457495909
vn 0.523868285 -0.736334862 -0.428220728
vn 0.483202345 -0.746467003 0.457495909
vn -0.162771285 -0.926603224 -0.338986689
vn -0.152106309 -0.769433265 0.620351612
vn -0.333801170 0.424274312 0.841764865
vn -0.112051233 0.086585489 0.989922964
vn -0.458413044 -0.014782045 0.888616324
vn -0.458413044 -0.014782045 0.888616324
vn -0.008581590 -0.066144533 0.997773149
vn -0.314856168 -0.375454639 0.871722093
vn -0.008581590 -0.066144533 0.997773149
vn -0.458413044 -0.014782045 0.888616324
vn -0.112051233 0.086585489 0.989922964
vn 0.144463588 -0.287122947 0.946937530
vn -0.152106309 -0.769433265 0.620351612
vn -0.314856168 -0.375454639 0.871722093
vn -0.458413044 -0.014782045 0.888616324
vn -0.734700415 -0.277939795 0.618841475
vn -0.876742108 0.319639383 0.359379940
vn -0.333801170 0.424274312 0.841764865
vn -0.458413044 -0.014782045 0.888616324
vn -0.876742108 0.319639383 0.359379940
vn -0.346258305 0.037935032 -0.937371922
vn 0.655773638 0.752131995 -0.065256403
vn 0.728738143 -0.405266657 -0.551996065
vn 0.655773638 0.752131995 -0.065256403
vn -0.346258305 0.037935032 -0.937371922
vn -0.208351634 -0.292440224 -0.933310405
vn -0.270009761 -0.961703591 -0.047126768
vn 0.367361273 -0.921191234 -0.128266931
vn -0.048284831 -0.997695558 0.047667054
vn 0.367361273 -0.921191234 -0.128266931
vn -0.270009761 -0.961703591 -0.047126768
vn -0.084926790 -0.994990220 -0.052743750
vn -0.374232593 -0.776152996 -0.507480535
vn -0.288456765 0.430402711 -0.855304741
vn -0.687254797 0.028267889 -0.725866221
vn -0.288456765 0.430402711 -0.855304741
vn -0.374232593 -0.776152996 -0.507480535
vn -0.456905485 -0.808549757 -0.370789251
vn -0.084926790 -0.994990220 -0.052743750
vn -0.077033317 -0.291530103 -0.953454806
vn 0.367361273 -0.921191234 -0.128266931
vn -0.077033317 -0.291530103 -0.953454806
vn -0.084926790 -0.994990220 -0.052743750
vn -0.162771285 -0.926603224 -0.338986689
vn -0.069610252 0.179788959 -0.981239188
vn 0.728738143 -0.405266657 -0.551996065
vn 0.512479928 -0.715973377 -0.474074306
vn 0.728738143 -0.405266657 -0.551996065
vn -0.069610252 0.179788959 -0.981239188
vn -0.346258305 0.037935032 -0.937371922
vn -0.519090876 -0.851361276 -0.075687778
vn -0.048284831 -0.997695558 0.047667054
vn -0.199631478 -0.619102556 -0.759512540
vn -0.048284831 -0.997695558 0.047667054
vn -0.519090876 -0.851361276 -0.075687778
vn -0.270009761 -0.961703591 -0.047126768
vn -0.727960041 -0.505959553 -0.462686838
vn -0.199631478 -0.619102556 -0.759512540
vn -0.810414005 0.235612108 -0.536391718
vn -0.199631478 -0.619102556 -0.759512540
vn -0.727960041 -0.505959553 -0.462686838
vn -0.519090876 -0.851361276 -0.075687778
vn -0.456905485 -0.808549757 -0.370789251
vn -0.810414005 0.235612108 -0.536391718
vn -0.288456765 0.430402711 -0.855304741
vn -0.810414005 0.235612108 -0.536391718
vn -0.456905485 -0.808549757 -0.370789251
vn -0.727960041 -0.505959553 -0.462686838
vn -0.208351634 -0.292440224 -0.933310405
vn 0.968347221 0.245846648 0.043163467
vn 0.655773638 0.752131995 -0.065256403
vn 0.968347221 0.245846648 0.043163467
vn -0.208351634 -0.292440224 -0.933310405
vn -0.607059234 -0.362616686 -0.707098455
vn -0.873368248 0.272864494 -0.403451201
vn -0.607059234 -0.362616686 -0.707098455
vn -0.252450168 -0.823428057 -0.508168425
vn -0.607059234 -0.362616686 -0.707098455
vn -0.873368248 0.272864494 -0.403451201
vn 0.968347221 0.245846648 0.043163467
vn -0.687254797 0.028267889 -0.725866221
vn -0.252450168 -0.823428057 -0.508168425
vn -0.374232593 -0.776152996 -0.507480535
vn -0.252450168 -0.823428057 -0.508168425
vn -0.687254797 0.028267889 -0.725866221
vn -0.873368248 0.272864494 -0.403451201
vn -0.162771285 -0.926603224 -0.338986689
vn 0.161799216 -0.161008279 -0.973600199
vn -0.077033317 -0.291530103 -0.953454806
vn 0.161799216 -0.161008279 -0.973600199
vn -0.162771285 -0.926603224 -0.338986689
vn 0.523868285 -0.736334862 -0.428220728
vn -0.152106309 -0.769433265 0.620351612
vn -0.575348499 -0.570072936 0.586507419
vn -0.314856168 -0.375454639 0.871722093
vn -0.972360321 -0.230631997 0.036390766
vn -0.949820323 -0.180008180 -0.255809320
vn -0.903825098 0.391126709 -0.173551404
f 3/3/3 2/2/2 1/1/1
f 6/6/6 5/5/5 4/4/4
f 9/9/9 8/8/8 7/7/7
f 12/12/12 11/11/11 10/10/10
f 15/15/15 14/14/14 13/13/13
f 18/18/18 17/17/17 16/16/16
f 21/21/21 20/20/20 19/19/19
f 24/24/24 23/23/23 22/22/22
f 27/27/27 26/26/26 25/25/25
f 30/30/30 29/29/29 28/28/28
f 33/33/33 32/32/32 31/31/31
f 36/36/36 35/35/35 34/34/34
f 39/39/39 38/38/38 37/37/37
f 42/42/42 41/41/41 40/40/40
f 45/45/45 44/44/44 43/43/43
f 48/48/48 47/47/47 46/46/46
f 51/51/51 50/50/50 49/49/49
f 54/54/54 53/53/53 52/52/52
f 57/57/57 56/56/56 55/55/55
f 60/60/60 59/59/59 58/58/58
f 63/63/63 62/62/62 61/61/61
f 66/66/66 65/65/65 64/64/64
f 69/69/69 68/68/68 67/67/67
f 72/72/72 71/71/71 70/70/70
f 75/75/75 74/74/74 73/73/73
f 78/78/78 77/77/77 76/76/76
f 81/81/81 80/80/80 79/79/79
f 84/84/84 83/83/83 82/82/82
f 87/87/87 86/86/86 85/85/85
f 90/90/90 89/89/89 88/88/88
f 93/93/93 92/92/92 91/91/91
f 96/96/96 95/95/95 94/94/94
f 99/99/99 98/98/98 97/97/97
f 102/102/102 101/101/101 100/100/100
f 105/105/105 104/104/104 103/103/103
f 108/108/108 107/107/107 106/106/106
f 111/111/111 110/110/110 109/109/109
f 114/114/114 113/113/113 112/112/112
f 117/117/117 116/116/116 115/115/115
f 120/120/120 119/119/119 118/118/118
f 123/123/123 122/122/122 121/121/121
f 126/126/126 125/125/125 124/124/124
f 129/129/129 128/128/128 127/127/127
f 132/132/132 131/131/131 130/130/130
f 135/135/135 134/134/134 133/133/133
f 138/138/138 137/137/137 136/136/136
f 141/141/141 140/140/140 139/139/139
f 144/144/144 143/143/143 142/142/142
f 147/147/147 146/146/146 145/145/145
f 150/150/150 149/149/149 148/148/148
f 153/153/153 152/152/152 151/151/151
f 156/156/156 155/155/155 154/154/154
f 159/159/159 158/158/158 157/157/157
f 162/162/162 161/161/161 160/160/160
f 165/165/165 164/164/164 163/163/163
f 168/168/168 167/167/167 166/166/166
f 171/171/171 170/170/170 169/169/169
f 174/174/174 173/173/173 172/172/172
f 177/177/177 176/176/176 175/175/175
f 180/180/180 179/179/179 178/178/178
f 183/183/183 182/182/182 181/181/181
f 186/186/186 185/185/185 184/184/184
f 189/189/189 188/188/188 187/187/187
f 192/192/192 191/191/191 190/190/190
f 195/195/195 194/194/194 193/193/193
f 198/198/198 197/197/197 196/196/196
f 201/201/201 200/200/200 199/199/199
f 204/204/204 203/203/203 202/202/202
f 207/207/207 206/206/206 205/205/205
f 210/210/210 209/209/209 208/208/208
f 213/213/213 212/212/212 211/211/211
f 216/216/216 215/215/215 214/214/214
f 219/219/219 218/218/218 217/217/217
f 222/222/222 221/221/221 220/220/220
f 225/225/225 224/224/224 223/223/223
f 228/228/228 227/227/227 226/226/226
f 231/231/231 230/230/230 229/229/229
f 234/234/234 233/233/233 232/232/232
f 237/237/237 236/236/236 235/235/235
f 240/240/240 239/239/239 238/238/238
f 243/243/243 242/242/242 241/241/241
f 246/246/246 245/245/245 244/244/244
f 249/249/249 248/248/248 247/247/247
f 252/252/252 251/251/251 250/250/250
f 255/255/255 254/254/254 253/253/253
f 258/258/258 257/257/257 256/256/256
f 261/261/261 260/260/260 259/259/259
f 264/264/264 263/263/263 262/262/262
f 267/267/267 266/266/266 265/265/265
f 270/270/270 269/269/269 268/268/268
f 273/273/273 272/272/272 271/271/271
f 276/276/276 275/275/275 274/274/274
f 279/279/279 278/278/278 277/277/277
f 282/282/282 281/281/281 280/280/280
f 285/285/285 284/284/284 283/283/283
f 288/288/288 287/287/287 286/286/286
f 291/291/291 290/290/290 289/289/289
f 294/294/294 293/293/293 292/292/292
f 297/297/297 296/296/296 295/295/295
f 300/300/300 299/299/299 298/298/298
f 303/303/303 302/302/302 301/301/301
f 306/306/306 305/305/305 304/304/304
f 309/309/309 308/308/308 307/307/307
f 312/312/312 311/311/311 310/310/310
f 315/315/315 314/314/314 313/313/313
f 318/318/318 317/317/317 316/316/316
f 321/321/321 320/320/320 319/319/319
f 324/324/324 323/323/323 322/322/322
f 327/327/327 326/326/326 325/325/325
f 330/330/330 329/329/329 328/328/328
f 333/333/333 332/332/332 331/331/331
f 336/336/336 335/335/335 334/334/334
f 339/339/339 338/338/338 337/337/337
f 342/342/342 341/341/341 340/340/340
f 345/345/345 344/344/344 343/343/343
f 348/348/348 347/347/347 346/346/346
f 351/351/351 350/350/350 349/349/349
f 354/354/354 353/353/353 352/352/352
f 357/357/357 356/356/356 355/355/355
f 360/360/360 359/359/359 358/358/358
f 363/363/363 362/362/362 361/361/361
f 366/366/366 365/365/365 364/364/364
f 369/369/369 368/368/368 367/367/367
f 372/372/372 371/371/371 370/370/370
f 375/375/375 374/374/374 373/373/373
f 378/378/378 377/377/377 376/376/376
f 381/381/381 380/380/380 379/379/379
f 384/384/384 383/383/383 382/382/382
f 387/387/387 386/386/386 385/385/385
f 390/390/390 389/389/389 388/388/388
f 393/393/393 392/392/392 391/391/391
f 396/396/396 395/395/395 394/394/394
f 399/399/399 398/398/398 397/397/397
f 402/402/402 401/401/401 400/400/400
