# Static pose baked from local Project Zomboid assets
o Bob_Hair_MohawkShort
v 0.007197082 0.010742928 0.449494940
v 0.020108020 -0.006720322 0.450770580
v 0.015096719 -0.000171532 0.440642611
v 0.020108020 -0.006720322 0.450770580
v 0.007197082 0.010742928 0.449494940
v 0.011105602 0.005795061 0.459879697
v 0.015096719 -0.000171532 0.440642611
v 0.033872907 0.002642932 0.451509678
v 0.030363320 0.010213229 0.441462344
v 0.033872907 0.002642932 0.451509678
v 0.015096719 -0.000171532 0.440642611
v 0.020108020 -0.006720322 0.450770580
v 0.030363320 0.010213229 0.441462344
v 0.024870490 0.015158316 0.460618796
v 0.022463683 0.021127690 0.450314673
v 0.024870490 0.015158316 0.460618796
v 0.030363320 0.010213229 0.441462344
v 0.033872907 0.002642932 0.451509678
v 0.022463683 0.021127690 0.450314673
v 0.008480502 0.038757746 0.466895173
v 0.008796192 0.040553655 0.458759039
v 0.008480502 0.038757746 0.466895173
v 0.022463683 0.021127690 0.450314673
v 0.024870490 0.015158316 0.460618796
v 0.008796192 0.040553655 0.458759039
v -0.014228032 0.072629387 0.465426341
v -0.011673752 0.070765826 0.457246676
v -0.014228032 0.072629387 0.465426341
v 0.008796192 0.040553655 0.458759039
v 0.008480502 0.038757746 0.466895173
v -0.011673752 0.070765826 0.457246676
v -0.032022719 0.100698818 0.441235586
v -0.026451633 0.094248856 0.434973988
v -0.032022719 0.100698818 0.441235586
v -0.011673752 0.070765826 0.457246676
v -0.014228032 0.072629387 0.465426341
v -0.026451633 0.094248856 0.434973988
v -0.035674799 0.110000932 0.386808476
v -0.029866449 0.103055512 0.387004263
v -0.035674799 0.110000932 0.386808476
v -0.026451633 0.094248856 0.434973988
v -0.032022719 0.100698818 0.441235586
v -0.029866449 0.103055512 0.387004263
v -0.024950657 0.097469984 0.350408257
v -0.018583087 0.089508477 0.348484578
v -0.024950657 0.097469984 0.350408257
v -0.029866449 0.103055512 0.387004263
v -0.035674799 0.110000932 0.386808476
v -0.018583087 0.089508477 0.348484578
v -0.039059170 0.087872985 0.349650708
v -0.033849689 0.079123715 0.347664846
v -0.039059170 0.087872985 0.349650708
v -0.018583087 0.089508477 0.348484578
v -0.024950657 0.097469984 0.350408257
v -0.033849689 0.079123715 0.347664846
v -0.049447948 0.100632058 0.386068934
v -0.045133051 0.092670750 0.386184530
v -0.049447948 0.100632058 0.386068934
v -0.033849689 0.079123715 0.347664846
v -0.039059170 0.087872985 0.349650708
v -0.045133051 0.092670750 0.386184530
v -0.046132885 0.091100696 0.440477948
v -0.041718234 0.083864095 0.434154256
v -0.046132885 0.091100696 0.440477948
v -0.045133051 0.092670750 0.386184530
v -0.049447948 0.100632058 0.386068934
v -0.041718234 0.083864095 0.434154256
v -0.028338198 0.063031265 0.464668703
v -0.026940353 0.060381064 0.456426943
v -0.028338198 0.063031265 0.464668703
v -0.041718234 0.083864095 0.434154256
v -0.046132885 0.091100696 0.440477948
v -0.026940353 0.060381064 0.456426943
v -0.005284386 0.029394491 0.466156075
v -0.006470410 0.030168893 0.457939307
v -0.005284386 0.029394491 0.466156075
v -0.026940353 0.060381064 0.456426943
v -0.028338198 0.063031265 0.464668703
v -0.006470410 0.030168893 0.457939307
v 0.011105602 0.005795061 0.459879697
v 0.007197082 0.010742928 0.449494940
v 0.011105602 0.005795061 0.459879697
v -0.006470410 0.030168893 0.457939307
v -0.005284386 0.029394491 0.466156075
v 0.033872907 0.002642932 0.451509678
v 0.011105602 0.005795061 0.459879697
v 0.024870490 0.015158316 0.460618796
v 0.011105602 0.005795061 0.459879697
v 0.033872907 0.002642932 0.451509678
v 0.020108020 -0.006720322 0.450770580
v 0.024870490 0.015158316 0.460618796
v -0.005284386 0.029394491 0.466156075
v 0.008480502 0.038757746 0.466895173
v -0.005284386 0.029394491 0.466156075
v 0.024870490 0.015158316 0.460618796
v 0.011105602 0.005795061 0.459879697
v 0.008480502 0.038757746 0.466895173
v -0.028338198 0.063031265 0.464668703
v -0.014228032 0.072629387 0.465426341
v -0.028338198 0.063031265 0.464668703
v 0.008480502 0.038757746 0.466895173
v -0.005284386 0.029394491 0.466156075
v -0.014228032 0.072629387 0.465426341
v -0.046132885 0.091100696 0.440477948
v -0.032022719 0.100698818 0.441235586
v -0.046132885 0.091100696 0.440477948
v -0.014228032 0.072629387 0.465426341
v -0.028338198 0.063031265 0.464668703
v -0.032022719 0.100698818 0.441235586
v -0.049447948 0.100632058 0.386068934
v -0.035674799 0.110000932 0.386808476
v -0.049447948 0.100632058 0.386068934
v -0.032022719 0.100698818 0.441235586
v -0.046132885 0.091100696 0.440477948
v -0.035674799 0.110000932 0.386808476
v -0.039059170 0.087872985 0.349650708
v -0.024950657 0.097469984 0.350408257
v -0.039059170 0.087872985 0.349650708
v -0.035674799 0.110000932 0.386808476
v -0.049447948 0.100632058 0.386068934
vt 0.640625000 0.328125000
vt 0.734375000 0.218750000
vt 0.734375000 0.328125000
vt 0.734375000 0.218750000
vt 0.640625000 0.328125000
vt 0.640625000 0.218750000
vt 0.781250000 0.218750000
vt 0.734375000 0.132812977
vt 0.781250000 0.132812977
vt 0.734375000 0.132812977
vt 0.781250000 0.218750000
vt 0.734375000 0.218750000
vt 0.734375000 0.023437977
vt 0.640625000 0.132812977
vt 0.640625000 0.023437977
vt 0.640625000 0.132812977
vt 0.734375000 0.023437977
vt 0.734375000 0.132812977
vt 0.640625000 0.023437977
vt 0.570312977 0.132812977
vt 0.570312977 0.023437977
vt 0.570312977 0.132812977
vt 0.640625000 0.023437977
vt 0.640625000 0.132812977
vt 0.570312977 0.023437977
vt 0.453125000 0.132812977
vt 0.453125000 0.023437977
vt 0.453125000 0.132812977
vt 0.570312977 0.023437977
vt 0.570312977 0.132812977
vt 0.453125000 0.023437977
vt 0.296875000 0.132812977
vt 0.296875000 0.023437977
vt 0.296875000 0.132812977
vt 0.453125000 0.023437977
vt 0.453125000 0.132812977
vt 0.296875000 0.023437977
vt 0.140625000 0.132812977
vt 0.140625000 0.023437977
vt 0.140625000 0.132812977
vt 0.296875000 0.023437977
vt 0.296875000 0.132812977
vt 0.140625000 0.023437977
vt 0.046875000 0.132812977
vt 0.046875000 0.023437977
vt 0.046875000 0.132812977
vt 0.140625000 0.023437977
vt 0.140625000 0.132812977
vt 0.000000000 0.132812977
vt 0.046875000 0.218750000
vt 0.000000000 0.218750000
vt 0.046875000 0.218750000
vt 0.000000000 0.132812977
vt 0.046875000 0.132812977
vt 0.046875000 0.328125000
vt 0.140625000 0.218750000
vt 0.140625000 0.328125000
vt 0.140625000 0.218750000
vt 0.046875000 0.328125000
vt 0.046875000 0.218750000
vt 0.140625000 0.328125000
vt 0.296875000 0.218750000
vt 0.296875000 0.328125000
vt 0.296875000 0.218750000
vt 0.140625000 0.328125000
vt 0.140625000 0.218750000
vt 0.296875000 0.328125000
vt 0.453125000 0.218750000
vt 0.453125000 0.328125000
vt 0.453125000 0.218750000
vt 0.296875000 0.328125000
vt 0.296875000 0.218750000
vt 0.453125000 0.328125000
vt 0.570312977 0.218750000
vt 0.570312977 0.328125000
vt 0.570312977 0.218750000
vt 0.453125000 0.328125000
vt 0.453125000 0.218750000
vt 0.570312977 0.328125000
vt 0.640625000 0.218750000
vt 0.640625000 0.328125000
vt 0.640625000 0.218750000
vt 0.570312977 0.328125000
vt 0.570312977 0.218750000
vt 0.734375000 0.132812977
vt 0.640625000 0.218750000
vt 0.640625000 0.132812977
vt 0.640625000 0.218750000
vt 0.734375000 0.132812977
vt 0.734375000 0.218750000
vt 0.640625000 0.132812977
vt 0.570312977 0.218750000
vt 0.570312977 0.132812977
vt 0.570312977 0.218750000
vt 0.640625000 0.132812977
vt 0.640625000 0.218750000
vt 0.570312977 0.132812977
vt 0.453125000 0.218750000
vt 0.453125000 0.132812977
vt 0.453125000 0.218750000
vt 0.570312977 0.132812977
vt 0.570312977 0.218750000
vt 0.453125000 0.132812977
vt 0.296875000 0.218750000
vt 0.296875000 0.132812977
vt 0.296875000 0.218750000
vt 0.453125000 0.132812977
vt 0.453125000 0.218750000
vt 0.296875000 0.132812977
vt 0.140625000 0.218750000
vt 0.140625000 0.132812977
vt 0.140625000 0.218750000
vt 0.296875000 0.132812977
vt 0.296875000 0.218750000
vt 0.140625000 0.132812977
vt 0.046875000 0.218750000
vt 0.046875000 0.132812977
vt 0.046875000 0.218750000
vt 0.140625000 0.132812977
vt 0.140625000 0.218750000
vn -0.807605932 -0.589330003 0.021512950
vn -0.298617174 -0.927310462 0.225661449
vn 0.083042394 -0.817606585 -0.569757346
vn -0.298617174 -0.927310462 0.225661449
vn -0.807605932 -0.589330003 0.021512950
vn -0.309756613 -0.590937760 0.744878114
vn 0.083042394 -0.817606585 -0.569757346
vn 0.747691048 -0.574361081 0.333267828
vn 0.963698671 0.152806198 -0.218940947
vn 0.747691048 -0.574361081 0.333267828
vn 0.083042394 -0.817606585 -0.569757346
vn -0.298617174 -0.927310462 0.225661449
vn 0.963698671 0.152806198 -0.218940947
vn 0.523259121 0.052408481 0.850560547
vn 0.836290270 0.533829606 0.125078120
vn 0.523259121 0.052408481 0.850560547
vn 0.963698671 0.152806198 -0.218940947
vn 0.747691048 -0.574361081 0.333267828
vn 0.836290270 0.533829606 0.125078120
vn 0.323982794 0.181445549 0.928500222
vn 0.822929816 0.549786204 0.143253788
vn 0.323982794 0.181445549 0.928500222
vn 0.836290270 0.533829606 0.125078120
vn 0.523259121 0.052408481 0.850560547
vn 0.822929816 0.549786204 0.143253788
vn 0.108019984 0.526569902 0.843241259
vn 0.802632539 0.585996111 0.111308428
vn 0.108019984 0.526569902 0.843241259
vn 0.822929816 0.549786204 0.143253788
vn 0.323982794 0.181445549 0.928500222
vn 0.802632539 0.585996111 0.111308428
vn -0.116304525 0.926814164 0.357055685
vn 0.780663230 0.621127334 0.069034455
vn -0.116304525 0.926814164 0.357055685
vn 0.802632539 0.585996111 0.111308428
vn 0.108019984 0.526569902 0.843241259
vn 0.780663230 0.621127334 0.069034455
vn -0.073324761 0.989197720 -0.126930491
vn 0.771262412 0.635852565 0.029082768
vn -0.073324761 0.989197720 -0.126930491
vn 0.780663230 0.621127334 0.069034455
vn -0.116304525 0.926814164 0.357055685
vn 0.771262412 0.635852565 0.029082768
vn 0.166517206 0.898494374 -0.406177154
vn 0.484096007 0.551349838 -0.679458912
vn 0.166517206 0.898494374 -0.406177154
vn 0.771262412 0.635852565 0.029082768
vn -0.073324761 0.989197720 -0.126930491
vn 0.484096007 0.551349838 -0.679458912
vn -0.600304088 0.562519442 -0.568512866
vn -0.845783611 -0.415362030 -0.334849917
vn -0.600304088 0.562519442 -0.568512866
vn 0.484096007 0.551349838 -0.679458912
vn 0.166517206 0.898494374 -0.406177154
vn -0.845783611 -0.415362030 -0.334849917
vn -0.856936642 0.515394354 -0.005315137
vn -0.873167817 -0.485240200 -0.046042488
vn -0.856936642 0.515394354 -0.005315137
vn -0.845783611 -0.415362030 -0.334849917
vn -0.600304088 0.562519442 -0.568512866
vn -0.873167817 -0.485240200 -0.046042488
vn -0.833876707 0.275174986 0.478464591
vn -0.857174758 -0.515019463 -0.002527103
vn -0.833876707 0.275174986 0.478464591
vn -0.873167817 -0.485240200 -0.046042488
vn -0.856936642 0.515394354 -0.005315137
vn -0.857174758 -0.515019463 -0.002527103
vn -0.524000594 -0.098721023 0.845977267
vn -0.835752735 -0.547400843 0.043239831
vn -0.524000594 -0.098721023 0.845977267
vn -0.857174758 -0.515019463 -0.002527103
vn -0.833876707 0.275174986 0.478464591
vn -0.835752735 -0.547400843 0.043239831
vn -0.351038809 -0.356707124 0.865755036
vn -0.817632386 -0.573415746 0.051688146
vn -0.351038809 -0.356707124 0.865755036
vn -0.835752735 -0.547400843 0.043239831
vn -0.524000594 -0.098721023 0.845977267
vn -0.817632386 -0.573415746 0.051688146
vn -0.309756613 -0.590937760 0.744878114
vn -0.807605932 -0.589330003 0.021512950
vn -0.309756613 -0.590937760 0.744878114
vn -0.817632386 -0.573415746 0.051688146
vn -0.351038809 -0.356707124 0.865755036
vn 0.747691048 -0.574361081 0.333267828
vn -0.309756613 -0.590937760 0.744878114
vn 0.523259121 0.052408481 0.850560547
vn -0.309756613 -0.590937760 0.744878114
vn 0.747691048 -0.574361081 0.333267828
vn -0.298617174 -0.927310462 0.225661449
vn 0.523259121 0.052408481 0.850560547
vn -0.351038809 -0.356707124 0.865755036
vn 0.323982794 0.181445549 0.928500222
vn -0.351038809 -0.356707124 0.865755036
vn 0.523259121 0.052408481 0.850560547
vn -0.309756613 -0.590937760 0.744878114
vn 0.323982794 0.181445549 0.928500222
vn -0.524000594 -0.098721023 0.845977267
vn 0.108019984 0.526569902 0.843241259
vn -0.524000594 -0.098721023 0.845977267
vn 0.323982794 0.181445549 0.928500222
vn -0.351038809 -0.356707124 0.865755036
vn 0.108019984 0.526569902 0.843241259
vn -0.833876707 0.275174986 0.478464591
vn -0.116304525 0.926814164 0.357055685
vn -0.833876707 0.275174986 0.478464591
vn 0.108019984 0.526569902 0.843241259
vn -0.524000594 -0.098721023 0.845977267
vn -0.116304525 0.926814164 0.357055685
vn -0.856936642 0.515394354 -0.005315137
vn -0.073324761 0.989197720 -0.126930491
vn -0.856936642 0.515394354 -0.005315137
vn -0.116304525 0.926814164 0.357055685
vn -0.833876707 0.275174986 0.478464591
vn -0.073324761 0.989197720 -0.126930491
vn -0.600304088 0.562519442 -0.568512866
vn 0.166517206 0.898494374 -0.406177154
vn -0.600304088 0.562519442 -0.568512866
vn -0.073324761 0.989197720 -0.126930491
vn -0.856936642 0.515394354 -0.005315137
f 3/3/3 2/2/2 1/1/1
f 6/6/6 5/5/5 4/4/4
f 9/9/9 8/8/8 7/7/7
f 12/12/12 11/11/11 10/10/10
f 15/15/15 14/14/14 13/13/13
f 18/18/18 17/17/17 16/16/16
f 21/21/21 20/20/20 19/19/19
f 24/24/24 23/23/23 22/22/22
f 27/27/27 26/26/26 25/25/25
f 30/30/30 29/29/29 28/28/28
f 33/33/33 32/32/32 31/31/31
f 36/36/36 35/35/35 34/34/34
f 39/39/39 38/38/38 37/37/37
f 42/42/42 41/41/41 40/40/40
f 45/45/45 44/44/44 43/43/43
f 48/48/48 47/47/47 46/46/46
f 51/51/51 50/50/50 49/49/49
f 54/54/54 53/53/53 52/52/52
f 57/57/57 56/56/56 55/55/55
f 60/60/60 59/59/59 58/58/58
f 63/63/63 62/62/62 61/61/61
f 66/66/66 65/65/65 64/64/64
f 69/69/69 68/68/68 67/67/67
f 72/72/72 71/71/71 70/70/70
f 75/75/75 74/74/74 73/73/73
f 78/78/78 77/77/77 76/76/76
f 81/81/81 80/80/80 79/79/79
f 84/84/84 83/83/83 82/82/82
f 87/87/87 86/86/86 85/85/85
f 90/90/90 89/89/89 88/88/88
f 93/93/93 92/92/92 91/91/91
f 96/96/96 95/95/95 94/94/94
f 99/99/99 98/98/98 97/97/97
f 102/102/102 101/101/101 100/100/100
f 105/105/105 104/104/104 103/103/103
f 108/108/108 107/107/107 106/106/106
f 111/111/111 110/110/110 109/109/109
f 114/114/114 113/113/113 112/112/112
f 117/117/117 116/116/116 115/115/115
f 120/120/120 119/119/119 118/118/118
