# Static pose baked from local Project Zomboid assets
o Bob_Jacket
v 0.005740381 0.099230850 -0.292046333
v -0.018475775 0.109251563 -0.271990119
v -0.027696902 0.087988131 -0.300451174
v -0.018475775 0.109251563 -0.271990119
v 0.005740381 0.099230850 -0.292046333
v 0.026796898 0.104607221 -0.276791056
v 0.055629276 0.099792669 -0.250487383
v 0.032157643 0.127723937 -0.216442861
v 0.000926687 0.121776860 -0.245421583
v 0.032157643 0.127723937 -0.216442861
v 0.055629276 0.099792669 -0.250487383
v 0.068536956 0.087948775 -0.225737675
v -0.041392616 0.032286474 -0.316153096
v 0.011742075 0.006751314 -0.304800972
v -0.003972466 0.046568645 -0.320215667
v 0.011742075 0.006751314 -0.304800972
v -0.041392616 0.032286474 -0.316153096
v -0.019660818 -0.000234436 -0.293147440
v 0.077832601 0.004673562 -0.050696593
v 0.024556151 -0.018141378 -0.049028579
v 0.017525737 -0.018270824 -0.033388290
v 0.024556151 -0.018141378 -0.049028579
v 0.077832601 0.004673562 -0.050696593
v 0.074882142 0.007389184 -0.060246846
v 0.085777381 0.071494203 -0.069112443
v 0.077832601 0.004673562 -0.050696593
v 0.092076429 0.051277392 -0.036471751
v 0.077832601 0.004673562 -0.050696593
v 0.085777381 0.071494203 -0.069112443
v 0.074882142 0.007389184 -0.060246846
v 0.059796315 0.116848929 -0.067332139
v 0.083561564 0.102416569 -0.015015684
v 0.055717997 0.128187360 -0.012553170
v 0.083561564 0.102416569 -0.015015684
v 0.059796315 0.116848929 -0.067332139
v 0.085777381 0.071494203 -0.069112443
v 0.000926687 0.121776860 -0.245421583
v -0.021303075 0.141592700 -0.198710938
v -0.039276739 0.127271890 -0.232557347
v -0.021303075 0.141592700 -0.198710938
v 0.000926687 0.121776860 -0.245421583
v 0.032157643 0.127723937 -0.216442861
v 0.017525737 -0.018270824 -0.033388290
v -0.021289740 -0.009943058 -0.043121072
v -0.024415057 -0.011200503 -0.026901157
v -0.021289740 -0.009943058 -0.043121072
v 0.017525737 -0.018270824 -0.033388290
v 0.024556151 -0.018141378 -0.049028579
v 0.029071765 -0.013018352 -0.157210330
v -0.031901217 -0.016150959 -0.180993277
v -0.023713010 -0.010433182 -0.144379330
v -0.031901217 -0.016150959 -0.180993277
v 0.029071765 -0.013018352 -0.157210330
v 0.023857362 -0.017197557 -0.201003042
v 0.017525737 -0.018270824 -0.033388290
v 0.082835085 -0.015419371 0.012400575
v 0.077832601 0.004673562 -0.050696593
v 0.082835085 -0.015419371 0.012400575
v 0.017525737 -0.018270824 -0.033388290
v 0.021594475 -0.026877585 0.019104452
v 0.077832601 0.004673562 -0.050696593
v 0.099687526 0.048205489 -0.006352315
v 0.092076429 0.051277392 -0.036471751
v 0.099687526 0.048205489 -0.006352315
v 0.077832601 0.004673562 -0.050696593
v 0.082835085 -0.015419371 0.012400575
v 0.033210469 -0.017146550 -0.104579487
v 0.065688734 0.003404667 -0.165950094
v 0.029071765 -0.013018352 -0.157210330
v 0.080314926 0.023767434 -0.176986403
v 0.079355653 0.078704298 -0.125817032
v 0.079383516 0.083734471 -0.185902563
v 0.079355653 0.078704298 -0.125817032
v 0.080314926 0.023767434 -0.176986403
v 0.077546558 0.013591229 -0.109937137
v 0.079355653 0.078704298 -0.125817032
v 0.044735150 0.122664876 -0.179961301
v 0.079383516 0.083734471 -0.185902563
v 0.044735150 0.122664876 -0.179961301
v 0.079355653 0.078704298 -0.125817032
v 0.058676281 0.121612381 -0.123271989
v -0.007904616 0.138140864 -0.166048386
v 0.058676281 0.121612381 -0.123271989
v 0.008099036 0.134945518 -0.111240498
v 0.058676281 0.121612381 -0.123271989
v -0.007904616 0.138140864 -0.166048386
v 0.044735150 0.122664876 -0.179961301
v 0.083161765 0.094282001 -0.273602689
v 0.131569234 0.076728271 -0.275337716
v 0.046914993 0.050081657 -0.242830033
v 0.131569234 0.076728271 -0.275337716
v 0.142147731 -0.006348717 -0.259123086
v 0.101948193 0.025603921 -0.233093046
v 0.142147731 -0.006348717 -0.259123086
v 0.131569234 0.076728271 -0.275337716
v 0.169553843 0.038132749 -0.290953012
v 0.044230216 0.003861367 -0.295629328
v 0.101948193 0.025603921 -0.233093046
v 0.090791152 -0.020194807 -0.296365306
v 0.101948193 0.025603921 -0.233093046
v 0.158067061 -0.028392891 -0.264688213
v 0.090791152 -0.020194807 -0.296365306
v 0.158067061 -0.028392891 -0.264688213
v 0.101948193 0.025603921 -0.233093046
v 0.142147731 -0.006348717 -0.259123086
v 0.053613691 0.005727318 -0.311999479
v 0.119996420 0.031000111 -0.338643146
v 0.071809156 0.047606936 -0.338092347
v 0.053613691 0.005727318 -0.311999479
v 0.090791152 -0.020194807 -0.296365306
v 0.119996420 0.031000111 -0.338643146
v 0.053613691 0.005727318 -0.311999479
v 0.044230216 0.003861367 -0.295629328
v 0.090791152 -0.020194807 -0.296365306
v 0.090791152 -0.020194807 -0.296365306
v 0.185589089 0.015897482 -0.295858053
v 0.119996420 0.031000111 -0.338643146
v 0.185589089 0.015897482 -0.295858053
v 0.090791152 -0.020194807 -0.296365306
v 0.158067061 -0.028392891 -0.264688213
v 0.082910146 0.081220896 -0.309378832
v 0.119996420 0.031000111 -0.338643146
v 0.131569234 0.076728271 -0.275337716
v 0.119996420 0.031000111 -0.338643146
v 0.169553843 0.038132749 -0.290953012
v 0.131569234 0.076728271 -0.275337716
v 0.169553843 0.038132749 -0.290953012
v 0.119996420 0.031000111 -0.338643146
v 0.185589089 0.015897482 -0.295858053
v 0.142879323 0.046049104 -0.311597917
v 0.075278468 0.044064338 -0.253632035
v 0.106262766 -0.003893545 -0.278037282
v 0.075278468 0.044064338 -0.253632035
v 0.142879323 0.046049104 -0.311597917
v 0.101692014 0.077576359 -0.278498236
v 0.101692014 0.077576359 -0.278498236
v 0.047487097 0.068470230 -0.239606906
v 0.075278468 0.044064338 -0.253632035
v 0.047487097 0.068470230 -0.239606906
v 0.101692014 0.077576359 -0.278498236
v 0.072388855 0.108274606 -0.257353664
v 0.106262766 -0.003893545 -0.278037282
v 0.126354153 0.051950627 -0.205903309
v 0.156767751 -0.005887863 -0.224362389
v 0.126354153 0.051950627 -0.205903309
v 0.106262766 -0.003893545 -0.278037282
v 0.075278468 0.044064338 -0.253632035
v 0.075278468 0.044064338 -0.253632035
v 0.094093548 0.074562916 -0.188715561
v 0.126354153 0.051950627 -0.205903309
v 0.094093548 0.074562916 -0.188715561
v 0.075278468 0.044064338 -0.253632035
v 0.047487097 0.068470230 -0.239606906
v 0.156767751 -0.005887863 -0.224362389
v 0.147117774 0.078021673 -0.226558067
v 0.193098929 0.043685267 -0.257980570
v 0.147117774 0.078021673 -0.226558067
v 0.156767751 -0.005887863 -0.224362389
v 0.126354153 0.051950627 -0.205903309
v 0.126354153 0.051950627 -0.205903309
v 0.111228906 0.106732713 -0.205398960
v 0.147117774 0.078021673 -0.226558067
v 0.111228906 0.106732713 -0.205398960
v 0.126354153 0.051950627 -0.205903309
v 0.094093548 0.074562916 -0.188715561
v 0.193098929 0.043685267 -0.257980570
v 0.101692014 0.077576359 -0.278498236
v 0.142879323 0.046049104 -0.311597917
v 0.101692014 0.077576359 -0.278498236
v 0.193098929 0.043685267 -0.257980570
v 0.147117774 0.078021673 -0.226558067
v 0.147117774 0.078021673 -0.226558067
v 0.072388855 0.108274606 -0.257353664
v 0.101692014 0.077576359 -0.278498236
v 0.072388855 0.108274606 -0.257353664
v 0.147117774 0.078021673 -0.226558067
v 0.111228906 0.106732713 -0.205398960
v 0.185589089 0.015897482 -0.295858053
v 0.142879323 0.046049104 -0.311597917
v 0.169553843 0.038132749 -0.290953012
v 0.142879323 0.046049104 -0.311597917
v 0.185589089 0.015897482 -0.295858053
v 0.193098929 0.043685267 -0.257980570
v 0.169553843 0.038132749 -0.290953012
v 0.106262766 -0.003893545 -0.278037282
v 0.142147731 -0.006348717 -0.259123086
v 0.106262766 -0.003893545 -0.278037282
v 0.169553843 0.038132749 -0.290953012
v 0.142879323 0.046049104 -0.311597917
v 0.158067061 -0.028392891 -0.264688213
v 0.106262766 -0.003893545 -0.278037282
v 0.156767751 -0.005887863 -0.224362389
v 0.106262766 -0.003893545 -0.278037282
v 0.158067061 -0.028392891 -0.264688213
v 0.142147731 -0.006348717 -0.259123086
v 0.156767751 -0.005887863 -0.224362389
v 0.185589089 0.015897482 -0.295858053
v 0.158067061 -0.028392891 -0.264688213
v 0.185589089 0.015897482 -0.295858053
v 0.156767751 -0.005887863 -0.224362389
v 0.193098929 0.043685267 -0.257980570
v 0.023558798 0.040579997 -0.328476218
v 0.082910146 0.081220896 -0.309378832
v 0.026164014 0.074648216 -0.334530677
v 0.082910146 0.081220896 -0.309378832
v 0.023558798 0.040579997 -0.328476218
v 0.071809156 0.047606936 -0.338092347
v 0.026164014 0.074648216 -0.334530677
v -0.003972466 0.046568645 -0.320215667
v 0.023558798 0.040579997 -0.328476218
v -0.003972466 0.046568645 -0.320215667
v 0.026164014 0.074648216 -0.334530677
v -0.004089552 0.071889203 -0.313293608
v 0.065688734 0.003404667 -0.165950094
v 0.023857362 -0.017197557 -0.201003042
v 0.029071765 -0.013018352 -0.157210330
v 0.023857362 -0.017197557 -0.201003042
v 0.065688734 0.003404667 -0.165950094
v 0.062702615 -0.001785469 -0.218209566
v -0.003972466 0.046568645 -0.320215667
v -0.026295047 0.066227995 -0.316276320
v -0.041392616 0.032286474 -0.316153096
v 0.029185082 0.102820299 -0.311860727
v 0.026796898 0.104607221 -0.276791056
v 0.005740381 0.099230850 -0.292046333
v 0.026796898 0.104607221 -0.276791056
v 0.029185082 0.102820299 -0.311860727
v 0.047786929 0.097961383 -0.275692039
v 0.083161765 0.094282001 -0.273602689
v 0.047786929 0.097961383 -0.275692039
v 0.029185082 0.102820299 -0.311860727
v 0.048263982 0.001917784 -0.273347795
v -0.019660818 -0.000234436 -0.293147440
v 0.011073611 -0.014707943 -0.242636104
v 0.048263982 0.001917784 -0.273347795
v 0.011742075 0.006751314 -0.304800972
v -0.019660818 -0.000234436 -0.293147440
v 0.048263982 0.001917784 -0.273347795
v 0.048096241 0.004322673 -0.276842177
v 0.011742075 0.006751314 -0.304800972
v -0.043234368 -0.014051994 -0.217317014
v -0.019660818 -0.000234436 -0.293147440
v -0.062600601 0.004163353 -0.272975524
v -0.019660818 -0.000234436 -0.293147440
v -0.043234368 -0.014051994 -0.217317014
v 0.011073611 -0.014707943 -0.242636104
v 0.023558798 0.040579997 -0.328476218
v -0.003972466 0.046568645 -0.320215667
v 0.011742075 0.006751314 -0.304800972
v 0.071809156 0.047606936 -0.338092347
v 0.048096241 0.004322673 -0.276842177
v 0.053613691 0.005727318 -0.311999479
v 0.071809156 0.047606936 -0.338092347
v 0.011742075 0.006751314 -0.304800972
v 0.048096241 0.004322673 -0.276842177
v 0.071809156 0.047606936 -0.338092347
v 0.023558798 0.040579997 -0.328476218
v 0.011742075 0.006751314 -0.304800972
v 0.065175696 0.064135004 -0.245239319
v 0.044230216 0.003861367 -0.295629328
v 0.055454622 0.018884911 -0.264343706
v 0.044230216 0.003861367 -0.295629328
v 0.065175696 0.064135004 -0.245239319
v 0.046914993 0.050081657 -0.242830033
v 0.079383516 0.083734471 -0.185902563
v 0.073890262 0.037976340 -0.224137415
v 0.080314926 0.023767434 -0.176986403
v 0.073890262 0.037976340 -0.224137415
v 0.079383516 0.083734471 -0.185902563
v 0.071934925 0.071071423 -0.222281255
v 0.055629276 0.099792669 -0.250487383
v 0.046914993 0.050081657 -0.242830033
v 0.065175696 0.064135004 -0.245239319
v 0.068536956 0.087948775 -0.225737675
v 0.071934925 0.071071423 -0.222281255
v 0.079383516 0.083734471 -0.185902563
v 0.073890262 0.037976340 -0.224137415
v 0.073724478 0.018876701 -0.223611114
v 0.080314926 0.023767434 -0.176986403
v 0.085777381 0.071494203 -0.069112443
v 0.092076429 0.051277392 -0.036471751
v 0.083561564 0.102416569 -0.015015684
v 0.092076429 0.051277392 -0.036471751
v 0.099687526 0.048205489 -0.006352315
v 0.083561564 0.102416569 -0.015015684
v -0.026295047 0.066227995 -0.316276320
v -0.003972466 0.046568645 -0.320215667
v -0.004089552 0.071889203 -0.313293608
v -0.018475775 0.109251563 -0.271990119
v -0.039276739 0.127271890 -0.232557347
v -0.027696902 0.087988131 -0.300451174
v 0.055717997 0.128187360 -0.012553170
v 0.015297919 0.135393982 -0.063111241
v 0.059796315 0.116848929 -0.067332139
v 0.015297919 0.135393982 -0.063111241
v 0.055717997 0.128187360 -0.012553170
v 0.019380869 0.149026800 -0.006056117
v -0.024415057 -0.011200503 -0.026901157
v 0.021594475 -0.026877585 0.019104452
v 0.017525737 -0.018270824 -0.033388290
v 0.021594475 -0.026877585 0.019104452
v -0.024415057 -0.011200503 -0.026901157
v -0.025427011 -0.013564574 0.022010459
v 0.101948193 0.025603921 -0.233093046
v 0.044230216 0.003861367 -0.295629328
v 0.046914993 0.050081657 -0.242830033
v 0.046914993 0.050081657 -0.242830033
v 0.131569234 0.076728271 -0.275337716
v 0.101948193 0.025603921 -0.233093046
v 0.058676281 0.121612381 -0.123271989
v 0.085777381 0.071494203 -0.069112443
v 0.059796315 0.116848929 -0.067332139
v 0.085777381 0.071494203 -0.069112443
v 0.058676281 0.121612381 -0.123271989
v 0.079355653 0.078704298 -0.125817032
v 0.079355653 0.078704298 -0.125817032
v 0.074882142 0.007389184 -0.060246846
v 0.085777381 0.071494203 -0.069112443
v 0.074882142 0.007389184 -0.060246846
v 0.079355653 0.078704298 -0.125817032
v 0.077546558 0.013591229 -0.109937137
v 0.074882142 0.007389184 -0.060246846
v 0.033210469 -0.017146550 -0.104579487
v 0.024556151 -0.018141378 -0.049028579
v 0.033210469 -0.017146550 -0.104579487
v 0.074882142 0.007389184 -0.060246846
v 0.077546558 0.013591229 -0.109937137
v 0.024556151 -0.018141378 -0.049028579
v -0.018366562 -0.010007018 -0.095125186
v -0.021289740 -0.009943058 -0.043121072
v -0.018366562 -0.010007018 -0.095125186
v 0.024556151 -0.018141378 -0.049028579
v 0.033210469 -0.017146550 -0.104579487
v -0.026295047 0.066227995 -0.316276320
v -0.004089552 0.071889203 -0.313293608
v -0.027696902 0.087988131 -0.300451174
v -0.027696902 0.087988131 -0.300451174
v -0.004089552 0.071889203 -0.313293608
v 0.005740381 0.099230850 -0.292046333
v 0.005740381 0.099230850 -0.292046333
v 0.026164014 0.074648216 -0.334530677
v 0.029185082 0.102820299 -0.311860727
v 0.026164014 0.074648216 -0.334530677
v 0.005740381 0.099230850 -0.292046333
v -0.004089552 0.071889203 -0.313293608
v 0.029185082 0.102820299 -0.311860727
v 0.082910146 0.081220896 -0.309378832
v 0.083161765 0.094282001 -0.273602689
v 0.082910146 0.081220896 -0.309378832
v 0.029185082 0.102820299 -0.311860727
v 0.026164014 0.074648216 -0.334530677
v 0.082910146 0.081220896 -0.309378832
v 0.131569234 0.076728271 -0.275337716
v 0.083161765 0.094282001 -0.273602689
v 0.119996420 0.031000111 -0.338643146
v 0.082910146 0.081220896 -0.309378832
v 0.071809156 0.047606936 -0.338092347
v 0.077546558 0.013591229 -0.109937137
v 0.080314926 0.023767434 -0.176986403
v 0.065688734 0.003404667 -0.165950094
v 0.048263982 0.001917784 -0.273347795
v 0.055454622 0.018884911 -0.264343706
v 0.048096241 0.004322673 -0.276842177
v 0.080314926 0.023767434 -0.176986403
v 0.062702615 -0.001785469 -0.218209566
v 0.065688734 0.003404667 -0.165950094
v 0.062702615 -0.001785469 -0.218209566
v 0.080314926 0.023767434 -0.176986403
v 0.073724478 0.018876701 -0.223611114
v 0.065688734 0.003404667 -0.165950094
v 0.033210469 -0.017146550 -0.104579487
v 0.077546558 0.013591229 -0.109937137
v -0.072901915 0.023784366 -0.304431373
v -0.019660818 -0.000234436 -0.293147440
v -0.041392616 0.032286474 -0.316153096
v 0.023857362 -0.017197557 -0.201003042
v -0.043234368 -0.014051994 -0.217317014
v -0.031901217 -0.016150959 -0.180993277
v -0.043234368 -0.014051994 -0.217317014
v 0.023857362 -0.017197557 -0.201003042
v 0.011073611 -0.014707943 -0.242636104
v 0.011073611 -0.014707943 -0.242636104
v 0.062702615 -0.001785469 -0.218209566
v 0.048263982 0.001917784 -0.273347795
v 0.062702615 -0.001785469 -0.218209566
v 0.011073611 -0.014707943 -0.242636104
v 0.023857362 -0.017197557 -0.201003042
v 0.062702615 -0.001785469 -0.218209566
v 0.055454622 0.018884911 -0.264343706
v 0.048263982 0.001917784 -0.273347795
v 0.055454622 0.018884911 -0.264343706
v 0.062702615 -0.001785469 -0.218209566
v 0.073724478 0.018876701 -0.223611114
v 0.055454622 0.018884911 -0.264343706
v 0.073890262 0.037976340 -0.224137415
v 0.062073951 0.047585824 -0.249003806
v 0.073890262 0.037976340 -0.224137415
v 0.055454622 0.018884911 -0.264343706
v 0.073724478 0.018876701 -0.223611114
v 0.062073951 0.047585824 -0.249003806
v 0.071934925 0.071071423 -0.222281255
v 0.065175696 0.064135004 -0.245239319
v 0.071934925 0.071071423 -0.222281255
v 0.062073951 0.047585824 -0.249003806
v 0.073890262 0.037976340 -0.224137415
v 0.068536956 0.087948775 -0.225737675
v 0.065175696 0.064135004 -0.245239319
v 0.071934925 0.071071423 -0.222281255
v 0.065175696 0.064135004 -0.245239319
v 0.068536956 0.087948775 -0.225737675
v 0.055629276 0.099792669 -0.250487383
v 0.032157643 0.127723937 -0.216442861
v -0.007904616 0.138140864 -0.166048386
v -0.021303075 0.141592700 -0.198710938
v -0.007904616 0.138140864 -0.166048386
v 0.032157643 0.127723937 -0.216442861
v 0.044735150 0.122664876 -0.179961301
v 0.044735150 0.122664876 -0.179961301
v 0.068536956 0.087948775 -0.225737675
v 0.079383516 0.083734471 -0.185902563
v 0.068536956 0.087948775 -0.225737675
v 0.044735150 0.122664876 -0.179961301
v 0.032157643 0.127723937 -0.216442861
v 0.000926687 0.121776860 -0.245421583
v 0.026796898 0.104607221 -0.276791056
v 0.055629276 0.099792669 -0.250487383
v 0.026796898 0.104607221 -0.276791056
v 0.000926687 0.121776860 -0.245421583
v -0.018475775 0.109251563 -0.271990119
v 0.055629276 0.099792669 -0.250487383
v 0.047786929 0.097961383 -0.275692039
v 0.046914993 0.050081657 -0.242830033
v 0.047786929 0.097961383 -0.275692039
v 0.055629276 0.099792669 -0.250487383
v 0.026796898 0.104607221 -0.276791056
v 0.047786929 0.097961383 -0.275692039
v 0.083161765 0.094282001 -0.273602689
v 0.046914993 0.050081657 -0.242830033
v 0.053613691 0.005727318 -0.311999479
v 0.055454622 0.018884911 -0.264343706
v 0.044230216 0.003861367 -0.295629328
v 0.055454622 0.018884911 -0.264343706
v 0.053613691 0.005727318 -0.311999479
v 0.048096241 0.004322673 -0.276842177
v 0.000926687 0.121776860 -0.245421583
v -0.039276739 0.127271890 -0.232557347
v -0.018475775 0.109251563 -0.271990119
v -0.023713010 -0.010433182 -0.144379330
v 0.033210469 -0.017146550 -0.104579487
v 0.029071765 -0.013018352 -0.157210330
v 0.033210469 -0.017146550 -0.104579487
v -0.023713010 -0.010433182 -0.144379330
v -0.018366562 -0.010007018 -0.095125186
v -0.072901915 0.023784366 -0.304431373
v -0.062600601 0.004163353 -0.272975524
v -0.019660818 -0.000234436 -0.293147440
v 0.059796315 0.116848929 -0.067332139
v 0.008099036 0.134945518 -0.111240498
v 0.058676281 0.121612381 -0.123271989
v 0.008099036 0.134945518 -0.111240498
v 0.059796315 0.116848929 -0.067332139
v 0.015297919 0.135393982 -0.063111241
v 0.065175696 0.064135004 -0.245239319
v 0.055454622 0.018884911 -0.264343706
v 0.062073951 0.047585824 -0.249003806
v -0.122589676 0.092720261 -0.242718188
v -0.082632453 0.113609311 -0.248240750
v -0.126758103 0.099804846 -0.218110724
v -0.082632453 0.113609311 -0.248240750
v -0.122589676 0.092720261 -0.242718188
v -0.096686628 0.092674157 -0.274912719
v -0.126598584 0.111894749 -0.182693964
v -0.076729494 0.138571521 -0.181660762
v -0.118476504 0.106579479 -0.165999484
v -0.076729494 0.138571521 -0.181660762
v -0.126598584 0.111894749 -0.182693964
v -0.078500314 0.127171822 -0.216019482
v -0.103200162 0.036484661 -0.293273323
v -0.134897785 0.011906693 -0.248758211
v -0.108489976 0.005799154 -0.260264870
v -0.134897785 0.011906693 -0.248758211
v -0.103200162 0.036484661 -0.293273323
v -0.122157768 0.037182781 -0.267903173
v -0.101431769 0.050082447 -0.042145165
v -0.065278386 0.004293788 -0.044084707
v -0.098117586 0.050858180 -0.051312396
v -0.065278386 0.004293788 -0.044084707
v -0.101431769 0.050082447 -0.042145165
v -0.063729045 0.003630993 -0.031990780
v -0.077577906 0.111997567 -0.060471032
v -0.101431769 0.050082447 -0.042145165
v -0.098117586 0.050858180 -0.051312396
v -0.101431769 0.050082447 -0.042145165
v -0.077577906 0.111997567 -0.060471032
v -0.093363087 0.102489017 -0.035851085
v -0.034271778 0.142037126 -0.064695094
v -0.071517986 0.138326719 -0.013074742
v -0.077577906 0.111997567 -0.060471032
v -0.071517986 0.138326719 -0.013074742
v -0.034271778 0.142037126 -0.064695094
v -0.033915813 0.153882885 -0.009911502
v -0.078500314 0.127171822 -0.216019482
v -0.021303075 0.141592700 -0.198710938
v -0.076729494 0.138571521 -0.181660762
v -0.021303075 0.141592700 -0.198710938
v -0.078500314 0.127171822 -0.216019482
v -0.039276739 0.127271890 -0.232557347
v -0.063729045 0.003630993 -0.031990780
v -0.021289740 -0.009943058 -0.043121072
v -0.065278386 0.004293788 -0.044084707
v -0.021289740 -0.009943058 -0.043121072
v -0.063729045 0.003630993 -0.031990780
v -0.024415057 -0.011200503 -0.026901157
v -0.074901894 0.001461125 -0.130595500
v -0.031901217 -0.016150959 -0.180993277
v -0.088095287 -0.006044581 -0.165241719
v -0.031901217 -0.016150959 -0.180993277
v -0.074901894 0.001461125 -0.130595500
v -0.023713010 -0.010433182 -0.144379330
v -0.063729045 0.003630993 -0.031990780
v -0.119355314 0.040418236 0.013077306
v -0.066148500 -0.001492889 0.018280291
v -0.119355314 0.040418236 0.013077306
v -0.063729045 0.003630993 -0.031990780
v -0.101431769 0.050082447 -0.042145165
v -0.101431769 0.050082447 -0.042145165
v -0.101285444 0.103706886 -0.005679659
v -0.119355314 0.040418236 0.013077306
v -0.101285444 0.103706886 -0.005679659
v -0.101431769 0.050082447 -0.042145165
v -0.093363087 0.102489017 -0.035851085
v -0.069201787 0.002235863 -0.087393421
v -0.074901894 0.001461125 -0.130595500
v -0.105478404 0.027241577 -0.122135301
v -0.117619104 0.051331928 -0.126319910
v -0.080324599 0.108844502 -0.098854296
v -0.100467072 0.051185873 -0.087503236
v -0.080324599 0.108844502 -0.098854296
v -0.117619104 0.051331928 -0.126319910
v -0.105111818 0.109427479 -0.138676063
v -0.080324599 0.108844502 -0.098854296
v -0.062565837 0.137417897 -0.152266835
v -0.047782636 0.139686836 -0.101503486
v -0.062565837 0.137417897 -0.152266835
v -0.080324599 0.108844502 -0.098854296
v -0.105111818 0.109427479 -0.138676063
v -0.007904616 0.138140864 -0.166048386
v -0.047782636 0.139686836 -0.101503486
v -0.062565837 0.137417897 -0.152266835
v -0.047782636 0.139686836 -0.101503486
v -0.007904616 0.138140864 -0.166048386
v 0.008099036 0.134945518 -0.111240498
v -0.176807592 0.085371845 -0.217334075
v -0.144055200 0.058451632 -0.168170765
v -0.227139790 0.079729213 -0.207886498
v -0.227139790 0.079729213 -0.207886498
v -0.255834650 0.048000728 -0.131371604
v -0.277567369 0.069193938 -0.184785350
v -0.255834650 0.048000728 -0.131371604
v -0.227139790 0.079729213 -0.207886498
v -0.200439815 0.054624657 -0.145176205
v -0.155402847 -0.008327736 -0.186691926
v -0.204792019 -0.019130080 -0.172865130
v -0.200439815 0.054624657 -0.145176205
v -0.200439815 0.054624657 -0.145176205
v -0.252448787 -0.014050271 -0.156925062
v -0.255834650 0.048000728 -0.131371604
v -0.252448787 -0.014050271 -0.156925062
v -0.200439815 0.054624657 -0.145176205
v -0.204792019 -0.019130080 -0.172865130
v -0.166446517 -0.013721062 -0.201130150
v -0.204792019 -0.019130080 -0.172865130
v -0.155402847 -0.008327736 -0.186691926
v -0.166446517 -0.013721062 -0.201130150
v -0.231078253 0.005931397 -0.235652311
v -0.204792019 -0.019130080 -0.172865130
v -0.166446517 -0.013721062 -0.201130150
v -0.181261498 0.010205818 -0.245557966
v -0.231078253 0.005931397 -0.235652311
v -0.204792019 -0.019130080 -0.172865130
v -0.274242579 0.006950539 -0.209895964
v -0.252448787 -0.014050271 -0.156925062
v -0.274242579 0.006950539 -0.209895964
v -0.204792019 -0.019130080 -0.172865130
v -0.231078253 0.005931397 -0.235652311
v -0.183235030 0.055394815 -0.239931717
v -0.227139790 0.079729213 -0.207886498
v -0.231078253 0.005931397 -0.235652311
v -0.231078253 0.005931397 -0.235652311
v -0.277567369 0.069193938 -0.184785350
v -0.274242579 0.006950539 -0.209895964
v -0.277567369 0.069193938 -0.184785350
v -0.231078253 0.005931397 -0.235652311
v -0.227139790 0.079729213 -0.207886498
v -0.303995008 0.073311400 -0.176931584
v -0.343653885 0.044042221 -0.102740296
v -0.356474086 0.062958579 -0.146522401
v -0.343653885 0.044042221 -0.102740296
v -0.303995008 0.073311400 -0.176931584
v -0.282864117 0.047344827 -0.114959174
v -0.356474086 0.062958579 -0.146522401
v -0.376110405 0.035318852 -0.083087006
v -0.395924873 0.059370778 -0.123126340
v -0.376110405 0.035318852 -0.083087006
v -0.356474086 0.062958579 -0.146522401
v -0.343653885 0.044042221 -0.102740296
v -0.282864117 0.047344827 -0.114959174
v -0.346758774 -0.016826792 -0.137872427
v -0.343653885 0.044042221 -0.102740296
v -0.346758774 -0.016826792 -0.137872427
v -0.282864117 0.047344827 -0.114959174
v -0.281864051 -0.022007927 -0.143420185
v -0.343653885 0.044042221 -0.102740296
v -0.390181199 -0.015226572 -0.126325271
v -0.376110405 0.035318852 -0.083087006
v -0.390181199 -0.015226572 -0.126325271
v -0.343653885 0.044042221 -0.102740296
v -0.346758774 -0.016826792 -0.137872427
v -0.281864051 -0.022007927 -0.143420185
v -0.356263581 -0.000985038 -0.172457741
v -0.346758774 -0.016826792 -0.137872427
v -0.356263581 -0.000985038 -0.172457741
v -0.281864051 -0.022007927 -0.143420185
v -0.302618963 0.003560439 -0.205318736
v -0.346758774 -0.016826792 -0.137872427
v -0.403885376 0.004284582 -0.151776324
v -0.390181199 -0.015226572 -0.126325271
v -0.403885376 0.004284582 -0.151776324
v -0.346758774 -0.016826792 -0.137872427
v -0.356263581 -0.000985038 -0.172457741
v -0.302618963 0.003560439 -0.205318736
v -0.356474086 0.062958579 -0.146522401
v -0.356263581 -0.000985038 -0.172457741
v -0.356474086 0.062958579 -0.146522401
v -0.302618963 0.003560439 -0.205318736
v -0.303995008 0.073311400 -0.176931584
v -0.356263581 -0.000985038 -0.172457741
v -0.395924873 0.059370778 -0.123126340
v -0.403885376 0.004284582 -0.151776324
v -0.395924873 0.059370778 -0.123126340
v -0.356263581 -0.000985038 -0.172457741
v -0.356474086 0.062958579 -0.146522401
v -0.274242579 0.006950539 -0.209895964
v -0.303995008 0.073311400 -0.176931584
v -0.302618963 0.003560439 -0.205318736
v -0.303995008 0.073311400 -0.176931584
v -0.274242579 0.006950539 -0.209895964
v -0.277567369 0.069193938 -0.184785350
v -0.277567369 0.069193938 -0.184785350
v -0.282864117 0.047344827 -0.114959174
v -0.303995008 0.073311400 -0.176931584
v -0.282864117 0.047344827 -0.114959174
v -0.277567369 0.069193938 -0.184785350
v -0.255834650 0.048000728 -0.131371604
v -0.252448787 -0.014050271 -0.156925062
v -0.282864117 0.047344827 -0.114959174
v -0.255834650 0.048000728 -0.131371604
v -0.282864117 0.047344827 -0.114959174
v -0.252448787 -0.014050271 -0.156925062
v -0.281864051 -0.022007927 -0.143420185
v -0.281864051 -0.022007927 -0.143420185
v -0.274242579 0.006950539 -0.209895964
v -0.302618963 0.003560439 -0.205318736
v -0.274242579 0.006950539 -0.209895964
v -0.281864051 -0.022007927 -0.143420185
v -0.252448787 -0.014050271 -0.156925062
v -0.146741674 0.019910475 -0.261268531
v -0.183235030 0.055394815 -0.239931717
v -0.181261498 0.010205818 -0.245557966
v -0.183235030 0.055394815 -0.239931717
v -0.146741674 0.019910475 -0.261268531
v -0.161779574 0.051171952 -0.260559921
v -0.161779574 0.051171952 -0.260559921
v -0.122157768 0.037182781 -0.267903173
v -0.125961941 0.064031587 -0.266171531
v -0.122157768 0.037182781 -0.267903173
v -0.161779574 0.051171952 -0.260559921
v -0.146741674 0.019910475 -0.261268531
v -0.105478404 0.027241577 -0.122135301
v -0.088095287 -0.006044581 -0.165241719
v -0.126136952 0.017027157 -0.157888057
v -0.088095287 -0.006044581 -0.165241719
v -0.105478404 0.027241577 -0.122135301
v -0.074901894 0.001461125 -0.130595500
v -0.122157768 0.037182781 -0.267903173
v -0.103200162 0.036484661 -0.293273323
v -0.110592528 0.071953778 -0.285071276
v -0.155557329 0.079871295 -0.240778157
v -0.126758103 0.099804846 -0.218110724
v -0.147780570 0.079328146 -0.204571596
v -0.126758103 0.099804846 -0.218110724
v -0.155557329 0.079871295 -0.240778157
v -0.122589676 0.092720261 -0.242718188
v -0.176807592 0.085371845 -0.217334075
v -0.155557329 0.079871295 -0.240778157
v -0.147780570 0.079328146 -0.204571596
v -0.144707621 0.011020255 -0.197364101
v -0.134897785 0.011906693 -0.248758211
v -0.146286048 0.012782733 -0.199907678
v -0.144707621 0.011020255 -0.197364101
v -0.108489976 0.005799154 -0.260264870
v -0.134897785 0.011906693 -0.248758211
v -0.144707621 0.011020255 -0.197364101
v -0.100563692 -0.007125143 -0.201310469
v -0.108489976 0.005799154 -0.260264870
v -0.043234368 -0.014051994 -0.217317014
v -0.108489976 0.005799154 -0.260264870
v -0.100563692 -0.007125143 -0.201310469
v -0.108489976 0.005799154 -0.260264870
v -0.043234368 -0.014051994 -0.217317014
v -0.062600601 0.004163353 -0.272975524
v -0.146741674 0.019910475 -0.261268531
v -0.134897785 0.011906693 -0.248758211
v -0.122157768 0.037182781 -0.267903173
v -0.181261498 0.010205818 -0.245557966
v -0.134897785 0.011906693 -0.248758211
v -0.146741674 0.019910475 -0.261268531
v -0.181261498 0.010205818 -0.245557966
v -0.146286048 0.012782733 -0.199907678
v -0.134897785 0.011906693 -0.248758211
v -0.181261498 0.010205818 -0.245557966
v -0.166446517 -0.013721062 -0.201130150
v -0.146286048 0.012782733 -0.199907678
v -0.133289139 0.070372077 -0.169933382
v -0.155402847 -0.008327736 -0.186691926
v -0.144055200 0.058451632 -0.168170765
v -0.155402847 -0.008327736 -0.186691926
v -0.133289139 0.070372077 -0.169933382
v -0.140678837 0.023570385 -0.179063391
v -0.105111818 0.109427479 -0.138676063
v -0.130970170 0.058385000 -0.158698320
v -0.122485773 0.090440053 -0.160176952
v -0.130970170 0.058385000 -0.158698320
v -0.105111818 0.109427479 -0.138676063
v -0.117619104 0.051331928 -0.126319910
v -0.126598584 0.111894749 -0.182693964
v -0.133289139 0.070372077 -0.169933382
v -0.144055200 0.058451632 -0.168170765
v -0.118476504 0.106579479 -0.165999484
v -0.105111818 0.109427479 -0.138676063
v -0.122485773 0.090440053 -0.160176952
v -0.130970170 0.058385000 -0.158698320
v -0.117619104 0.051331928 -0.126319910
v -0.134206175 0.039591224 -0.157191291
v -0.077577906 0.111997567 -0.060471032
v -0.071517986 0.138326719 -0.013074742
v -0.093363087 0.102489017 -0.035851085
v -0.093363087 0.102489017 -0.035851085
v -0.071517986 0.138326719 -0.013074742
v -0.101285444 0.103706886 -0.005679659
v -0.110592528 0.071953778 -0.285071276
v -0.125961941 0.064031587 -0.266171531
v -0.122157768 0.037182781 -0.267903173
v -0.082632453 0.113609311 -0.248240750
v -0.096686628 0.092674157 -0.274912719
v -0.039276739 0.127271890 -0.232557347
v -0.033915813 0.153882885 -0.009911502
v 0.015297919 0.135393982 -0.063111241
v 0.019380869 0.149026800 -0.006056117
v 0.015297919 0.135393982 -0.063111241
v -0.033915813 0.153882885 -0.009911502
v -0.034271778 0.142037126 -0.064695094
v -0.024415057 -0.011200503 -0.026901157
v -0.066148500 -0.001492889 0.018280291
v -0.025427011 -0.013564574 0.022010459
v -0.066148500 -0.001492889 0.018280291
v -0.024415057 -0.011200503 -0.026901157
v -0.063729045 0.003630993 -0.031990780
v -0.200439815 0.054624657 -0.145176205
v -0.144055200 0.058451632 -0.168170765
v -0.155402847 -0.008327736 -0.186691926
v -0.144055200 0.058451632 -0.168170765
v -0.200439815 0.054624657 -0.145176205
v -0.227139790 0.079729213 -0.207886498
v -0.047782636 0.139686836 -0.101503486
v -0.077577906 0.111997567 -0.060471032
v -0.080324599 0.108844502 -0.098854296
v -0.077577906 0.111997567 -0.060471032
v -0.047782636 0.139686836 -0.101503486
v -0.034271778 0.142037126 -0.064695094
v -0.080324599 0.108844502 -0.098854296
v -0.098117586 0.050858180 -0.051312396
v -0.100467072 0.051185873 -0.087503236
v -0.098117586 0.050858180 -0.051312396
v -0.080324599 0.108844502 -0.098854296
v -0.077577906 0.111997567 -0.060471032
v -0.098117586 0.050858180 -0.051312396
v -0.069201787 0.002235863 -0.087393421
v -0.100467072 0.051185873 -0.087503236
v -0.069201787 0.002235863 -0.087393421
v -0.098117586 0.050858180 -0.051312396
v -0.065278386 0.004293788 -0.044084707
v -0.065278386 0.004293788 -0.044084707
v -0.018366562 -0.010007018 -0.095125186
v -0.069201787 0.002235863 -0.087393421
v -0.018366562 -0.010007018 -0.095125186
v -0.065278386 0.004293788 -0.044084707
v -0.021289740 -0.009943058 -0.043121072
v -0.110592528 0.071953778 -0.285071276
v -0.096686628 0.092674157 -0.274912719
v -0.125961941 0.064031587 -0.266171531
v -0.096686628 0.092674157 -0.274912719
v -0.122589676 0.092720261 -0.242718188
v -0.125961941 0.064031587 -0.266171531
v -0.122589676 0.092720261 -0.242718188
v -0.161779574 0.051171952 -0.260559921
v -0.125961941 0.064031587 -0.266171531
v -0.161779574 0.051171952 -0.260559921
v -0.122589676 0.092720261 -0.242718188
v -0.155557329 0.079871295 -0.240778157
v -0.155557329 0.079871295 -0.240778157
v -0.183235030 0.055394815 -0.239931717
v -0.161779574 0.051171952 -0.260559921
v -0.183235030 0.055394815 -0.239931717
v -0.155557329 0.079871295 -0.240778157
v -0.176807592 0.085371845 -0.217334075
v -0.183235030 0.055394815 -0.239931717
v -0.176807592 0.085371845 -0.217334075
v -0.227139790 0.079729213 -0.207886498
v -0.231078253 0.005931397 -0.235652311
v -0.181261498 0.010205818 -0.245557966
v -0.183235030 0.055394815 -0.239931717
v -0.100467072 0.051185873 -0.087503236
v -0.105478404 0.027241577 -0.122135301
v -0.117619104 0.051331928 -0.126319910
v -0.144707621 0.011020255 -0.197364101
v -0.146286048 0.012782733 -0.199907678
v -0.140678837 0.023570385 -0.179063391
v -0.117619104 0.051331928 -0.126319910
v -0.126136952 0.017027157 -0.157888057
v -0.134206175 0.039591224 -0.157191291
v -0.126136952 0.017027157 -0.157888057
v -0.117619104 0.051331928 -0.126319910
v -0.105478404 0.027241577 -0.122135301
v -0.105478404 0.027241577 -0.122135301
v -0.100467072 0.051185873 -0.087503236
v -0.069201787 0.002235863 -0.087393421
v -0.072901915 0.023784366 -0.304431373
v -0.103200162 0.036484661 -0.293273323
v -0.108489976 0.005799154 -0.260264870
v -0.088095287 -0.006044581 -0.165241719
v -0.043234368 -0.014051994 -0.217317014
v -0.100563692 -0.007125143 -0.201310469
v -0.043234368 -0.014051994 -0.217317014
v -0.088095287 -0.006044581 -0.165241719
v -0.031901217 -0.016150959 -0.180993277
v -0.100563692 -0.007125143 -0.201310469
v -0.126136952 0.017027157 -0.157888057
v -0.088095287 -0.006044581 -0.165241719
v -0.126136952 0.017027157 -0.157888057
v -0.100563692 -0.007125143 -0.201310469
v -0.144707621 0.011020255 -0.197364101
v -0.126136952 0.017027157 -0.157888057
v -0.140678837 0.023570385 -0.179063391
v -0.134206175 0.039591224 -0.157191291
v -0.140678837 0.023570385 -0.179063391
v -0.126136952 0.017027157 -0.157888057
v -0.144707621 0.011020255 -0.197364101
v -0.140678837 0.023570385 -0.179063391
v -0.130970170 0.058385000 -0.158698320
v -0.134206175 0.039591224 -0.157191291
v -0.130970170 0.058385000 -0.158698320
v -0.140678837 0.023570385 -0.179063391
v -0.136243898 0.055173759 -0.171080661
v -0.136243898 0.055173759 -0.171080661
v -0.122485773 0.090440053 -0.160176952
v -0.130970170 0.058385000 -0.158698320
v -0.122485773 0.090440053 -0.160176952
v -0.136243898 0.055173759 -0.171080661
v -0.133289139 0.070372077 -0.169933382
v -0.118476504 0.106579479 -0.165999484
v -0.133289139 0.070372077 -0.169933382
v -0.126598584 0.111894749 -0.182693964
v -0.133289139 0.070372077 -0.169933382
v -0.118476504 0.106579479 -0.165999484
v -0.122485773 0.090440053 -0.160176952
v -0.076729494 0.138571521 -0.181660762
v -0.007904616 0.138140864 -0.166048386
v -0.062565837 0.137417897 -0.152266835
v -0.007904616 0.138140864 -0.166048386
v -0.076729494 0.138571521 -0.181660762
v -0.021303075 0.141592700 -0.198710938
v -0.062565837 0.137417897 -0.152266835
v -0.118476504 0.106579479 -0.165999484
v -0.076729494 0.138571521 -0.181660762
v -0.118476504 0.106579479 -0.165999484
v -0.062565837 0.137417897 -0.152266835
v -0.105111818 0.109427479 -0.138676063
v -0.078500314 0.127171822 -0.216019482
v -0.126758103 0.099804846 -0.218110724
v -0.082632453 0.113609311 -0.248240750
v -0.126758103 0.099804846 -0.218110724
v -0.078500314 0.127171822 -0.216019482
v -0.126598584 0.111894749 -0.182693964
v -0.126598584 0.111894749 -0.182693964
v -0.147780570 0.079328146 -0.204571596
v -0.126758103 0.099804846 -0.218110724
v -0.147780570 0.079328146 -0.204571596
v -0.126598584 0.111894749 -0.182693964
v -0.144055200 0.058451632 -0.168170765
v -0.147780570 0.079328146 -0.204571596
v -0.144055200 0.058451632 -0.168170765
v -0.176807592 0.085371845 -0.217334075
v -0.166446517 -0.013721062 -0.201130150
v -0.140678837 0.023570385 -0.179063391
v -0.146286048 0.012782733 -0.199907678
v -0.140678837 0.023570385 -0.179063391
v -0.166446517 -0.013721062 -0.201130150
v -0.155402847 -0.008327736 -0.186691926
v -0.039276739 0.127271890 -0.232557347
v -0.078500314 0.127171822 -0.216019482
v -0.082632453 0.113609311 -0.248240750
v -0.023713010 -0.010433182 -0.144379330
v -0.069201787 0.002235863 -0.087393421
v -0.018366562 -0.010007018 -0.095125186
v -0.069201787 0.002235863 -0.087393421
v -0.023713010 -0.010433182 -0.144379330
v -0.074901894 0.001461125 -0.130595500
v -0.072901915 0.023784366 -0.304431373
v -0.108489976 0.005799154 -0.260264870
v -0.062600601 0.004163353 -0.272975524
v 0.008099036 0.134945518 -0.111240498
v -0.034271778 0.142037126 -0.064695094
v -0.047782636 0.139686836 -0.101503486
v -0.034271778 0.142037126 -0.064695094
v 0.008099036 0.134945518 -0.111240498
v 0.015297919 0.135393982 -0.063111241
v -0.133289139 0.070372077 -0.169933382
v -0.136243898 0.055173759 -0.171080661
v -0.140678837 0.023570385 -0.179063391
v -0.390181199 -0.015226572 -0.126325271
v -0.395924873 0.059370778 -0.123126340
v -0.376110405 0.035318852 -0.083087006
v -0.395924873 0.059370778 -0.123126340
v -0.390181199 -0.015226572 -0.126325271
v -0.403885376 0.004284582 -0.151776324
v 0.072388855 0.108274606 -0.257353664
v 0.094093548 0.074562916 -0.188715561
v 0.047487097 0.068470230 -0.239606906
v 0.094093548 0.074562916 -0.188715561
v 0.072388855 0.108274606 -0.257353664
v 0.111228906 0.106732713 -0.205398960
v -0.119355314 0.040418236 0.013077306
v -0.025427011 -0.013564574 0.022010459
v -0.066148500 -0.001492889 0.018280291
v -0.101285444 0.103706886 -0.005679659
v -0.025427011 -0.013564574 0.022010459
v -0.119355314 0.040418236 0.013077306
v -0.071517986 0.138326719 -0.013074742
v -0.025427011 -0.013564574 0.022010459
v -0.101285444 0.103706886 -0.005679659
v -0.033915813 0.153882885 -0.009911502
v -0.025427011 -0.013564574 0.022010459
v -0.071517986 0.138326719 -0.013074742
v 0.019380869 0.149026800 -0.006056117
v -0.025427011 -0.013564574 0.022010459
v -0.033915813 0.153882885 -0.009911502
v -0.025427011 -0.013564574 0.022010459
v 0.082835085 -0.015419371 0.012400575
v 0.021594475 -0.026877585 0.019104452
v -0.025427011 -0.013564574 0.022010459
v 0.099687526 0.048205489 -0.006352315
v 0.082835085 -0.015419371 0.012400575
v -0.025427011 -0.013564574 0.022010459
v 0.083561564 0.102416569 -0.015015684
v 0.099687526 0.048205489 -0.006352315
v -0.025427011 -0.013564574 0.022010459
v 0.055717997 0.128187360 -0.012553170
v 0.083561564 0.102416569 -0.015015684
v 0.019380869 0.149026800 -0.006056117
v 0.055717997 0.128187360 -0.012553170
v -0.025427011 -0.013564574 0.022010459
v -0.072901915 0.023784366 -0.304431373
v -0.048019499 0.064313290 -0.244622838
v -0.103200162 0.036484661 -0.293273323
v -0.103200162 0.036484661 -0.293273323
v -0.048019499 0.064313290 -0.244622838
v -0.110592528 0.071953778 -0.285071276
v -0.110592528 0.071953778 -0.285071276
v -0.048019499 0.064313290 -0.244622838
v -0.096686628 0.092674157 -0.274912719
v -0.096686628 0.092674157 -0.274912719
v -0.048019499 0.064313290 -0.244622838
v -0.039276739 0.127271890 -0.232557347
v -0.041392616 0.032286474 -0.316153096
v -0.048019499 0.064313290 -0.244622838
v -0.072901915 0.023784366 -0.304431373
v -0.026295047 0.066227995 -0.316276320
v -0.048019499 0.064313290 -0.244622838
v -0.041392616 0.032286474 -0.316153096
v -0.027696902 0.087988131 -0.300451174
v -0.048019499 0.064313290 -0.244622838
v -0.026295047 0.066227995 -0.316276320
v -0.039276739 0.127271890 -0.232557347
v -0.048019499 0.064313290 -0.244622838
v -0.027696902 0.087988131 -0.300451174
vt 0.603976011 0.300641000
vt 0.535688996 0.312111974
vt 0.534528017 0.296684980
vt 0.535688996 0.312111974
vt 0.603976011 0.300641000
vt 0.607192993 0.314764977
vt 0.610871017 0.355998993
vt 0.557678998 0.388221025
vt 0.542762995 0.342918038
vt 0.557678998 0.388221025
vt 0.610871017 0.355998993
vt 0.608641028 0.390578985
vt 0.752331018 0.240095973
vt 0.690639973 0.291936994
vt 0.695101976 0.256255984
vt 0.690639973 0.291936994
vt 0.752331018 0.240095973
vt 0.741757989 0.289667010
vt 0.654361010 0.548597991
vt 0.741535008 0.533851981
vt 0.743856013 0.546953976
vt 0.741535008 0.533851981
vt 0.654361010 0.548597991
vt 0.651573002 0.534998000
vt 0.579219997 0.533981025
vt 0.654361010 0.548597991
vt 0.617273986 0.557916999
vt 0.654361010 0.548597991
vt 0.579219997 0.533981025
vt 0.651573002 0.534998000
vt 0.542595029 0.531789005
vt 0.576694012 0.571959019
vt 0.538973987 0.574681997
vt 0.576694012 0.571959019
vt 0.542595029 0.531789005
vt 0.579219997 0.533981025
vt 0.542762995 0.342918038
vt 0.500000000 0.388388038
vt 0.500000000 0.345978975
vt 0.500000000 0.388388038
vt 0.542762995 0.342918038
vt 0.557678998 0.388221025
vt 0.743856013 0.546953976
vt 0.792635977 0.531741023
vt 0.792668998 0.545962989
vt 0.792635977 0.531741023
vt 0.743856013 0.546953976
vt 0.741535008 0.533851981
vt 0.737048984 0.443035960
vt 0.792944014 0.388496041
vt 0.792720973 0.437319040
vt 0.792944014 0.388496041
vt 0.737048984 0.443035960
vt 0.733702004 0.387537003
vt 0.743856013 0.546953976
vt 0.678378999 0.585349977
vt 0.654361010 0.548597991
vt 0.678378999 0.585349977
vt 0.743856013 0.546953976
vt 0.743906021 0.578772008
vt 0.654361010 0.548597991
vt 0.621698022 0.580618978
vt 0.617273986 0.557916999
vt 0.621698022 0.580618978
vt 0.654361010 0.548597991
vt 0.678378999 0.585349977
vt 0.741281986 0.490468025
vt 0.670074999 0.445484996
vt 0.737048984 0.443035960
vt 0.648630023 0.437633991
vt 0.585056007 0.484302044
vt 0.602129996 0.430189013
vt 0.585056007 0.484302044
vt 0.648630023 0.437633991
vt 0.652464986 0.490355968
vt 0.585056007 0.484302044
vt 0.557969987 0.421974003
vt 0.602129996 0.430189013
vt 0.557969987 0.421974003
vt 0.585056007 0.484302044
vt 0.551734984 0.483642995
vt 0.500000000 0.421841025
vt 0.551734984 0.483642995
vt 0.499976993 0.485785961
vt 0.551734984 0.483642995
vt 0.500000000 0.421841025
vt 0.557969987 0.421974003
vt 0.860759974 0.111948013
vt 0.866550028 0.170342982
vt 0.843231022 0.111030996
vt 0.866550028 0.170342982
vt 0.842415988 0.253648996
vt 0.841543972 0.177954018
vt 0.842415988 0.253648996
vt 0.866550028 0.170342982
vt 0.864912987 0.245065987
vt 0.925984979 0.112119019
vt 0.954276025 0.147803009
vt 0.927102983 0.159317017
vt 0.954276025 0.147803009
vt 0.926385999 0.225605965
vt 0.927102983 0.159317017
vt 0.926385999 0.225605965
vt 0.954276025 0.147803009
vt 0.948863029 0.233502984
vt 0.912585020 0.119895995
vt 0.891726971 0.161409974
vt 0.899125993 0.115993977
vt 0.912585020 0.119895995
vt 0.927102983 0.159317017
vt 0.891726971 0.161409974
vt 0.912585020 0.119895995
vt 0.925984979 0.112119019
vt 0.927102983 0.159317017
vt 0.927102983 0.159317017
vt 0.893097997 0.233857036
vt 0.891726971 0.161409974
vt 0.893097997 0.233857036
vt 0.927102983 0.159317017
vt 0.926385999 0.225605965
vt 0.885675013 0.117033005
vt 0.891726971 0.161409974
vt 0.866550028 0.170342982
vt 0.891726971 0.161409974
vt 0.864912987 0.245065987
vt 0.866550028 0.170342982
vt 0.864912987 0.245065987
vt 0.891726971 0.161409974
vt 0.893097997 0.233857036
vt 0.864821017 0.288259029
vt 0.847931027 0.394559979
vt 0.844277024 0.292554021
vt 0.847931027 0.394559979
vt 0.864821017 0.288259029
vt 0.866639018 0.393311024
vt 0.866639018 0.393311024
vt 0.848022997 0.457370996
vt 0.847931027 0.394559979
vt 0.848022997 0.457370996
vt 0.866639018 0.393311024
vt 0.863941014 0.456586957
vt 0.949962974 0.277244985
vt 0.913601995 0.368503988
vt 0.923420012 0.273869991
vt 0.913601995 0.368503988
vt 0.949962974 0.277244985
vt 0.953837991 0.381232977
vt 0.953837991 0.381232977
vt 0.906608999 0.451595008
vt 0.913601995 0.368503988
vt 0.906608999 0.451595008
vt 0.953837991 0.381232977
vt 0.949084997 0.455731988
vt 0.923420012 0.273869991
vt 0.890681982 0.381986022
vt 0.893499970 0.278527021
vt 0.890681982 0.381986022
vt 0.923420012 0.273869991
vt 0.913601995 0.368503988
vt 0.913601995 0.368503988
vt 0.885541022 0.453016043
vt 0.890681982 0.381986022
vt 0.885541022 0.453016043
vt 0.913601995 0.368503988
vt 0.906608999 0.451595008
vt 0.893499970 0.278527021
vt 0.866639018 0.393311024
vt 0.864821017 0.288259029
vt 0.866639018 0.393311024
vt 0.893499970 0.278527021
vt 0.890681982 0.381986022
vt 0.890681982 0.381986022
vt 0.863941014 0.456586957
vt 0.866639018 0.393311024
vt 0.863941014 0.456586957
vt 0.890681982 0.381986022
vt 0.885541022 0.453016043
vt 0.893097997 0.233857036
vt 0.864821017 0.288259029
vt 0.864912987 0.245065987
vt 0.864821017 0.288259029
vt 0.893097997 0.233857036
vt 0.893499970 0.278527021
vt 0.864912987 0.245065987
vt 0.844277024 0.292554021
vt 0.842415988 0.253648996
vt 0.844277024 0.292554021
vt 0.864912987 0.245065987
vt 0.864821017 0.288259029
vt 0.926385999 0.225605965
vt 0.949962974 0.277244985
vt 0.923420012 0.273869991
vt 0.949962974 0.277244985
vt 0.926385999 0.225605965
vt 0.948863029 0.233502984
vt 0.923420012 0.273869991
vt 0.893097997 0.233857036
vt 0.926385999 0.225605965
vt 0.893097997 0.233857036
vt 0.923420012 0.273869991
vt 0.893499970 0.278527021
vt 0.897534013 0.059441984
vt 0.885675013 0.117033005
vt 0.886667013 0.065150976
vt 0.885675013 0.117033005
vt 0.897534013 0.059441984
vt 0.899125993 0.115993977
vt 0.886667013 0.065150976
vt 0.899981022 0.024266005
vt 0.897534013 0.059441984
vt 0.899981022 0.024266005
vt 0.886667013 0.065150976
vt 0.884509981 0.024361014
vt 0.670074999 0.445484996
vt 0.733702004 0.387537003
vt 0.737048984 0.443035960
vt 0.733702004 0.387537003
vt 0.670074999 0.445484996
vt 0.696238995 0.383486986
vt 0.695101976 0.256255984
vt 0.725718975 0.226604998
vt 0.752331018 0.240095973
vt 0.865660012 0.066430986
vt 0.856742978 0.024578989
vt 0.867962003 0.024353027
vt 0.856742978 0.024578989
vt 0.865660012 0.066430986
vt 0.854628980 0.084885001
vt 0.860759974 0.111948013
vt 0.854628980 0.084885001
vt 0.865660012 0.066430986
vt 0.701421022 0.329308033
vt 0.741757989 0.289667010
vt 0.732649028 0.332749009
vt 0.701421022 0.329308033
vt 0.690639973 0.291936994
vt 0.741757989 0.289667010
vt 0.701421022 0.329308033
vt 0.692811012 0.310135007
vt 0.690639973 0.291936994
vt 0.792513013 0.341719031
vt 0.741757989 0.289667010
vt 0.791697025 0.285986006
vt 0.741757989 0.289667010
vt 0.792513013 0.341719031
vt 0.732649028 0.332749009
vt 0.897534013 0.059441984
vt 0.899981022 0.024266005
vt 0.911262989 0.059193969
vt 0.899125993 0.115993977
vt 0.910251021 0.082895994
vt 0.912585020 0.119895995
vt 0.899125993 0.115993977
vt 0.911262989 0.059193969
vt 0.910251021 0.082895994
vt 0.899125993 0.115993977
vt 0.897534013 0.059441984
vt 0.911262989 0.059193969
vt 0.935548007 0.047254980
vt 0.925984979 0.112119019
vt 0.924805999 0.080877006
vt 0.925984979 0.112119019
vt 0.935548007 0.047254980
vt 0.953871012 0.104737997
vt 0.602129996 0.430189013
vt 0.647809029 0.384287000
vt 0.648630023 0.437633991
vt 0.647809029 0.384287000
vt 0.602129996 0.430189013
vt 0.621985018 0.395148993
vt 0.964044988 0.046155989
vt 0.953871012 0.104737997
vt 0.935548007 0.047254980
vt 0.608641028 0.390578985
vt 0.621985018 0.395148993
vt 0.602129996 0.430189013
vt 0.647809029 0.384287000
vt 0.660687029 0.378998041
vt 0.648630023 0.437633991
vt 0.579219997 0.533981025
vt 0.617273986 0.557916999
vt 0.576694012 0.571959019
vt 0.617273986 0.557916999
vt 0.621698022 0.580618978
vt 0.576694012 0.571959019
vt 0.725718975 0.226604998
vt 0.695101976 0.256255984
vt 0.681759000 0.232972026
vt 0.535688996 0.312111974
vt 0.500000000 0.345978975
vt 0.534528017 0.296684980
vt 0.538973987 0.574681997
vt 0.500000000 0.531428993
vt 0.542595029 0.531789005
vt 0.500000000 0.531428993
vt 0.538973987 0.574681997
vt 0.500000000 0.577818990
vt 0.792668998 0.545962989
vt 0.743906021 0.578772008
vt 0.743856013 0.546953976
vt 0.743906021 0.578772008
vt 0.792668998 0.545962989
vt 0.792667985 0.574760020
vt 0.954276025 0.147803009
vt 0.925984979 0.112119019
vt 0.953871012 0.104737997
vt 0.843231022 0.111030996
vt 0.866550028 0.170342982
vt 0.841543972 0.177954018
vt 0.551734984 0.483642995
vt 0.579219997 0.533981025
vt 0.542595029 0.531789005
vt 0.579219997 0.533981025
vt 0.551734984 0.483642995
vt 0.585056007 0.484302044
vt 0.585056007 0.484302044
vt 0.651573002 0.534998000
vt 0.579219997 0.533981025
vt 0.651573002 0.534998000
vt 0.585056007 0.484302044
vt 0.652464986 0.490355968
vt 0.651573002 0.534998000
vt 0.741281986 0.490468025
vt 0.741535008 0.533851981
vt 0.741281986 0.490468025
vt 0.651573002 0.534998000
vt 0.652464986 0.490355968
vt 0.741535008 0.533851981
vt 0.793290019 0.492604971
vt 0.792635977 0.531741023
vt 0.793290019 0.492604971
vt 0.741535008 0.533851981
vt 0.741281986 0.490468025
vt 0.581167996 0.257534027
vt 0.585162997 0.277191043
vt 0.534528017 0.296684980
vt 0.534528017 0.296684980
vt 0.585162997 0.277191043
vt 0.603976011 0.300641000
vt 0.867962003 0.024353027
vt 0.886667013 0.065150976
vt 0.865660012 0.066430986
vt 0.886667013 0.065150976
vt 0.867962003 0.024353027
vt 0.884509981 0.024361014
vt 0.865660012 0.066430986
vt 0.885675013 0.117033005
vt 0.860759974 0.111948013
vt 0.885675013 0.117033005
vt 0.865660012 0.066430986
vt 0.886667013 0.065150976
vt 0.885675013 0.117033005
vt 0.866550028 0.170342982
vt 0.860759974 0.111948013
vt 0.891726971 0.161409974
vt 0.885675013 0.117033005
vt 0.899125993 0.115993977
vt 0.652464986 0.490355968
vt 0.648630023 0.437633991
vt 0.670074999 0.445484996
vt 0.701421022 0.329308033
vt 0.674300015 0.332125008
vt 0.692811012 0.310135007
vt 0.648630023 0.437633991
vt 0.696238995 0.383486986
vt 0.670074999 0.445484996
vt 0.696238995 0.383486986
vt 0.648630023 0.437633991
vt 0.660687029 0.378998041
vt 0.670074999 0.445484996
vt 0.741281986 0.490468025
vt 0.652464986 0.490355968
vt 0.791822016 0.254308999
vt 0.741757989 0.289667010
vt 0.752331018 0.240095973
vt 0.733702004 0.387537003
vt 0.792513013 0.341719031
vt 0.792944014 0.388496041
vt 0.792513013 0.341719031
vt 0.733702004 0.387537003
vt 0.732649028 0.332749009
vt 0.732649028 0.332749009
vt 0.696238995 0.383486986
vt 0.701421022 0.329308033
vt 0.696238995 0.383486986
vt 0.732649028 0.332749009
vt 0.733702004 0.387537003
vt 0.696238995 0.383486986
vt 0.674300015 0.332125008
vt 0.701421022 0.329308033
vt 0.674300015 0.332125008
vt 0.696238995 0.383486986
vt 0.660687029 0.378998041
vt 0.674300015 0.332125008
vt 0.647809029 0.384287000
vt 0.642271996 0.359522998
vt 0.647809029 0.384287000
vt 0.674300015 0.332125008
vt 0.660687029 0.378998041
vt 0.642271996 0.359522998
vt 0.621985018 0.395148993
vt 0.630401015 0.361163020
vt 0.621985018 0.395148993
vt 0.642271996 0.359522998
vt 0.647809029 0.384287000
vt 0.608641028 0.390578985
vt 0.630401015 0.361163020
vt 0.621985018 0.395148993
vt 0.630401015 0.361163020
vt 0.608641028 0.390578985
vt 0.610871017 0.355998993
vt 0.557678998 0.388221025
vt 0.500000000 0.421841025
vt 0.500000000 0.388388038
vt 0.500000000 0.421841025
vt 0.557678998 0.388221025
vt 0.557969987 0.421974003
vt 0.557969987 0.421974003
vt 0.608641028 0.390578985
vt 0.602129996 0.430189013
vt 0.608641028 0.390578985
vt 0.557969987 0.421974003
vt 0.557678998 0.388221025
vt 0.542762995 0.342918038
vt 0.607192993 0.314764977
vt 0.610871017 0.355998993
vt 0.607192993 0.314764977
vt 0.542762995 0.342918038
vt 0.535688996 0.312111974
vt 0.841925025 0.054974973
vt 0.854628980 0.084885001
vt 0.843231022 0.111030996
vt 0.854628980 0.084885001
vt 0.841925025 0.054974973
vt 0.856742978 0.024578989
vt 0.854628980 0.084885001
vt 0.860759974 0.111948013
vt 0.843231022 0.111030996
vt 0.912585020 0.119895995
vt 0.924805999 0.080877006
vt 0.925984979 0.112119019
vt 0.924805999 0.080877006
vt 0.912585020 0.119895995
vt 0.910251021 0.082895994
vt 0.542762995 0.342918038
vt 0.500000000 0.345978975
vt 0.535688996 0.312111974
vt 0.792720973 0.437319040
vt 0.741281986 0.490468025
vt 0.737048984 0.443035960
vt 0.741281986 0.490468025
vt 0.792720973 0.437319040
vt 0.793290019 0.492604971
vt 0.791822016 0.254308999
vt 0.791697025 0.285986006
vt 0.741757989 0.289667010
vt 0.542595029 0.531789005
vt 0.499976993 0.485785961
vt 0.551734984 0.483642995
vt 0.499976993 0.485785961
vt 0.542595029 0.531789005
vt 0.500000000 0.531428993
vt 0.935548007 0.047254980
vt 0.924805999 0.080877006
vt 0.912096977 0.056493998
vt 0.396023989 0.300641000
vt 0.464455009 0.312301040
vt 0.392807007 0.314764977
vt 0.464455009 0.312301040
vt 0.396023989 0.300641000
vt 0.467204005 0.296949029
vt 0.389115006 0.356135011
vt 0.442321002 0.388221025
vt 0.391359001 0.390578985
vt 0.442321002 0.388221025
vt 0.389115006 0.356135011
vt 0.457237005 0.342918038
vt 0.247668996 0.240095973
vt 0.309359998 0.291936994
vt 0.258242011 0.289667010
vt 0.309359998 0.291936994
vt 0.247668996 0.240095973
vt 0.304897994 0.256255984
vt 0.345638990 0.548597991
vt 0.258446991 0.533842981
vt 0.348426998 0.534998000
vt 0.258446991 0.533842981
vt 0.345638990 0.548597991
vt 0.256424993 0.546688974
vt 0.420780003 0.533981025
vt 0.345638990 0.548597991
vt 0.348426998 0.534998000
vt 0.345638990 0.548597991
vt 0.420780003 0.533981025
vt 0.382726014 0.557916999
vt 0.457405001 0.531789005
vt 0.423305988 0.571959019
vt 0.420780003 0.533981025
vt 0.423305988 0.571959019
vt 0.457405001 0.531789005
vt 0.461026013 0.574681997
vt 0.457237005 0.342918038
vt 0.500000000 0.388388038
vt 0.442321002 0.388221025
vt 0.500000000 0.388388038
vt 0.457237005 0.342918038
vt 0.500000000 0.345978975
vt 0.256424993 0.546688974
vt 0.207439005 0.531753004
vt 0.258446991 0.533842981
vt 0.207439005 0.531753004
vt 0.256424993 0.546688974
vt 0.207432002 0.545928001
vt 0.262950987 0.443035960
vt 0.207056001 0.388496041
vt 0.266297996 0.387537003
vt 0.207056001 0.388496041
vt 0.262950987 0.443035960
vt 0.207278997 0.437319040
vt 0.256424993 0.546688974
vt 0.321621001 0.585349977
vt 0.256094009 0.578772008
vt 0.321621001 0.585349977
vt 0.256424993 0.546688974
vt 0.345638990 0.548597991
vt 0.345638990 0.548597991
vt 0.378302008 0.580618978
vt 0.321621001 0.585349977
vt 0.378302008 0.580618978
vt 0.345638990 0.548597991
vt 0.382726014 0.557916999
vt 0.258354008 0.490774035
vt 0.262950987 0.443035960
vt 0.329925001 0.445484996
vt 0.351370007 0.437633991
vt 0.414943993 0.484302044
vt 0.347535014 0.490355968
vt 0.414943993 0.484302044
vt 0.351370007 0.437633991
vt 0.397870004 0.430189013
vt 0.414943993 0.484302044
vt 0.442030013 0.421974003
vt 0.448264986 0.483642995
vt 0.442030013 0.421974003
vt 0.414943993 0.484302044
vt 0.397870004 0.430189013
vt 0.500000000 0.421841025
vt 0.448264986 0.483642995
vt 0.442030013 0.421974003
vt 0.448264986 0.483642995
vt 0.500000000 0.421841025
vt 0.499976993 0.485785961
vt 0.139239997 0.111948013
vt 0.156769007 0.111030996
vt 0.133450001 0.170342982
vt 0.133450001 0.170342982
vt 0.157583997 0.253648996
vt 0.135086998 0.245065987
vt 0.157583997 0.253648996
vt 0.133450001 0.170342982
vt 0.158455998 0.177954018
vt 0.074014999 0.112119019
vt 0.072897002 0.159317017
vt 0.045724001 0.147803009
vt 0.045724001 0.147803009
vt 0.073614001 0.225605965
vt 0.051135998 0.233502984
vt 0.073614001 0.225605965
vt 0.045724001 0.147803009
vt 0.072897002 0.159317017
vt 0.087415002 0.119895995
vt 0.072897002 0.159317017
vt 0.074014999 0.112119019
vt 0.087415002 0.119895995
vt 0.108273000 0.161409974
vt 0.072897002 0.159317017
vt 0.087415002 0.119895995
vt 0.100873999 0.115993977
vt 0.108273000 0.161409974
vt 0.072897002 0.159317017
vt 0.106902003 0.233857036
vt 0.073614001 0.225605965
vt 0.106902003 0.233857036
vt 0.072897002 0.159317017
vt 0.108273000 0.161409974
vt 0.114325002 0.117033005
vt 0.133450001 0.170342982
vt 0.108273000 0.161409974
vt 0.108273000 0.161409974
vt 0.135086998 0.245065987
vt 0.106902003 0.233857036
vt 0.135086998 0.245065987
vt 0.108273000 0.161409974
vt 0.133450001 0.170342982
vt 0.135178998 0.288259029
vt 0.152069002 0.394559979
vt 0.133360997 0.393311024
vt 0.152069002 0.394559979
vt 0.135178998 0.288259029
vt 0.155723006 0.292554021
vt 0.133360997 0.393311024
vt 0.151977003 0.457370996
vt 0.136059001 0.456586957
vt 0.151977003 0.457370996
vt 0.133360997 0.393311024
vt 0.152069002 0.394559979
vt 0.050037000 0.277244985
vt 0.086397998 0.368503988
vt 0.046162002 0.381232977
vt 0.086397998 0.368503988
vt 0.050037000 0.277244985
vt 0.076580003 0.273869991
vt 0.046162002 0.381232977
vt 0.093391001 0.451595008
vt 0.050914999 0.455731988
vt 0.093391001 0.451595008
vt 0.046162002 0.381232977
vt 0.086397998 0.368503988
vt 0.076580003 0.273869991
vt 0.109318003 0.381986022
vt 0.086397998 0.368503988
vt 0.109318003 0.381986022
vt 0.076580003 0.273869991
vt 0.106500000 0.278527021
vt 0.086397998 0.368503988
vt 0.114459001 0.453016043
vt 0.093391001 0.451595008
vt 0.114459001 0.453016043
vt 0.086397998 0.368503988
vt 0.109318003 0.381986022
vt 0.106500000 0.278527021
vt 0.133360997 0.393311024
vt 0.109318003 0.381986022
vt 0.133360997 0.393311024
vt 0.106500000 0.278527021
vt 0.135178998 0.288259029
vt 0.109318003 0.381986022
vt 0.136059001 0.456586957
vt 0.114459001 0.453016043
vt 0.136059001 0.456586957
vt 0.109318003 0.381986022
vt 0.133360997 0.393311024
vt 0.106902003 0.233857036
vt 0.135178998 0.288259029
vt 0.106500000 0.278527021
vt 0.135178998 0.288259029
vt 0.106902003 0.233857036
vt 0.135086998 0.245065987
vt 0.135086998 0.245065987
vt 0.155723006 0.292554021
vt 0.135178998 0.288259029
vt 0.155723006 0.292554021
vt 0.135086998 0.245065987
vt 0.157583997 0.253648996
vt 0.073614001 0.225605965
vt 0.050037000 0.277244985
vt 0.051135998 0.233502984
vt 0.050037000 0.277244985
vt 0.073614001 0.225605965
vt 0.076580003 0.273869991
vt 0.076580003 0.273869991
vt 0.106902003 0.233857036
vt 0.106500000 0.278527021
vt 0.106902003 0.233857036
vt 0.076580003 0.273869991
vt 0.073614001 0.225605965
vt 0.102466002 0.059441984
vt 0.114325002 0.117033005
vt 0.100873999 0.115993977
vt 0.114325002 0.117033005
vt 0.102466002 0.059441984
vt 0.113333002 0.065150976
vt 0.113333002 0.065150976
vt 0.100019000 0.024266005
vt 0.115489997 0.024361014
vt 0.100019000 0.024266005
vt 0.113333002 0.065150976
vt 0.102466002 0.059441984
vt 0.329925001 0.445484996
vt 0.266297996 0.387537003
vt 0.303761005 0.383486986
vt 0.266297996 0.387537003
vt 0.329925001 0.445484996
vt 0.262950987 0.443035960
vt 0.304897994 0.256255984
vt 0.247668996 0.240095973
vt 0.274280995 0.226604998
vt 0.134340003 0.066430986
vt 0.143257007 0.024578989
vt 0.145371005 0.084885001
vt 0.143257007 0.024578989
vt 0.134340003 0.066430986
vt 0.132037997 0.024353027
vt 0.139239997 0.111948013
vt 0.134340003 0.066430986
vt 0.145371005 0.084885001
vt 0.298579007 0.329308033
vt 0.309359998 0.291936994
vt 0.307188988 0.310135007
vt 0.298579007 0.329308033
vt 0.258242011 0.289667010
vt 0.309359998 0.291936994
vt 0.298579007 0.329308033
vt 0.267351002 0.332749009
vt 0.258242011 0.289667010
vt 0.207487002 0.341719031
vt 0.258242011 0.289667010
vt 0.267351002 0.332749009
vt 0.258242011 0.289667010
vt 0.207487002 0.341719031
vt 0.208268002 0.286002040
vt 0.102466002 0.059441984
vt 0.088737004 0.059193969
vt 0.100019000 0.024266005
vt 0.100873999 0.115993977
vt 0.088737004 0.059193969
vt 0.102466002 0.059441984
vt 0.100873999 0.115993977
vt 0.089749001 0.082895994
vt 0.088737004 0.059193969
vt 0.100873999 0.115993977
vt 0.087415002 0.119895995
vt 0.089749001 0.082895994
vt 0.068429001 0.051310003
vt 0.074014999 0.112119019
vt 0.046128999 0.104737997
vt 0.074014999 0.112119019
vt 0.068429001 0.051310003
vt 0.076572001 0.084110022
vt 0.397870004 0.430189013
vt 0.352191001 0.384287000
vt 0.378015012 0.395148993
vt 0.352191001 0.384287000
vt 0.397870004 0.430189013
vt 0.351370007 0.437633991
vt 0.046535999 0.049862027
vt 0.068429001 0.051310003
vt 0.046128999 0.104737997
vt 0.391359001 0.390578985
vt 0.397870004 0.430189013
vt 0.378015012 0.395148993
vt 0.352191001 0.384287000
vt 0.351370007 0.437633991
vt 0.339313000 0.378998041
vt 0.420780003 0.533981025
vt 0.423305988 0.571959019
vt 0.382726014 0.557916999
vt 0.382726014 0.557916999
vt 0.423305988 0.571959019
vt 0.378302008 0.580618978
vt 0.274280995 0.226604998
vt 0.318241000 0.232972026
vt 0.304897994 0.256255984
vt 0.464455009 0.312301040
vt 0.467204005 0.296949029
vt 0.500000000 0.345978975
vt 0.461026013 0.574681997
vt 0.500000000 0.531428993
vt 0.500000000 0.577818990
vt 0.500000000 0.531428993
vt 0.461026013 0.574681997
vt 0.457405001 0.531789005
vt 0.207432002 0.545928001
vt 0.256094009 0.578772008
vt 0.207332000 0.574760020
vt 0.256094009 0.578772008
vt 0.207432002 0.545928001
vt 0.256424993 0.546688974
vt 0.045724001 0.147803009
vt 0.046128999 0.104737997
vt 0.074014999 0.112119019
vt 0.156769007 0.111030996
vt 0.158455998 0.177954018
vt 0.133450001 0.170342982
vt 0.448264986 0.483642995
vt 0.420780003 0.533981025
vt 0.414943993 0.484302044
vt 0.420780003 0.533981025
vt 0.448264986 0.483642995
vt 0.457405001 0.531789005
vt 0.414943993 0.484302044
vt 0.348426998 0.534998000
vt 0.347535014 0.490355968
vt 0.348426998 0.534998000
vt 0.414943993 0.484302044
vt 0.420780003 0.533981025
vt 0.348426998 0.534998000
vt 0.258354008 0.490774035
vt 0.347535014 0.490355968
vt 0.258354008 0.490774035
vt 0.348426998 0.534998000
vt 0.258446991 0.533842981
vt 0.258446991 0.533842981
vt 0.206678003 0.492614985
vt 0.258354008 0.490774035
vt 0.206678003 0.492614985
vt 0.258446991 0.533842981
vt 0.207439005 0.531753004
vt 0.418832004 0.257534027
vt 0.467204005 0.296949029
vt 0.414837003 0.277191043
vt 0.467204005 0.296949029
vt 0.396023989 0.300641000
vt 0.414837003 0.277191043
vt 0.132037997 0.024353027
vt 0.113333002 0.065150976
vt 0.115489997 0.024361014
vt 0.113333002 0.065150976
vt 0.132037997 0.024353027
vt 0.134340003 0.066430986
vt 0.134340003 0.066430986
vt 0.114325002 0.117033005
vt 0.113333002 0.065150976
vt 0.114325002 0.117033005
vt 0.134340003 0.066430986
vt 0.139239997 0.111948013
vt 0.114325002 0.117033005
vt 0.139239997 0.111948013
vt 0.133450001 0.170342982
vt 0.108273000 0.161409974
vt 0.100873999 0.115993977
vt 0.114325002 0.117033005
vt 0.347535014 0.490355968
vt 0.329925001 0.445484996
vt 0.351370007 0.437633991
vt 0.298579007 0.329308033
vt 0.307188988 0.310135007
vt 0.321146011 0.348260999
vt 0.351370007 0.437633991
vt 0.303761005 0.383486986
vt 0.339313000 0.378998041
vt 0.303761005 0.383486986
vt 0.351370007 0.437633991
vt 0.329925001 0.445484996
vt 0.329925001 0.445484996
vt 0.347535014 0.490355968
vt 0.258354008 0.490774035
vt 0.207821995 0.254350007
vt 0.247668996 0.240095973
vt 0.258242011 0.289667010
vt 0.266297996 0.387537003
vt 0.207487002 0.341719031
vt 0.267351002 0.332749009
vt 0.207487002 0.341719031
vt 0.266297996 0.387537003
vt 0.207056001 0.388496041
vt 0.267351002 0.332749009
vt 0.303761005 0.383486986
vt 0.266297996 0.387537003
vt 0.303761005 0.383486986
vt 0.267351002 0.332749009
vt 0.298579007 0.329308033
vt 0.303761005 0.383486986
vt 0.321146011 0.348260999
vt 0.339313000 0.378998041
vt 0.321146011 0.348260999
vt 0.303761005 0.383486986
vt 0.298579007 0.329308033
vt 0.321146011 0.348260999
vt 0.352191001 0.384287000
vt 0.339313000 0.378998041
vt 0.352191001 0.384287000
vt 0.321146011 0.348260999
vt 0.356211007 0.361407995
vt 0.356211007 0.361407995
vt 0.378015012 0.395148993
vt 0.352191001 0.384287000
vt 0.378015012 0.395148993
vt 0.356211007 0.361407995
vt 0.373277992 0.363389015
vt 0.391359001 0.390578985
vt 0.373277992 0.363389015
vt 0.389115006 0.356135011
vt 0.373277992 0.363389015
vt 0.391359001 0.390578985
vt 0.378015012 0.395148993
vt 0.442321002 0.388221025
vt 0.500000000 0.421841025
vt 0.442030013 0.421974003
vt 0.500000000 0.421841025
vt 0.442321002 0.388221025
vt 0.500000000 0.388388038
vt 0.442030013 0.421974003
vt 0.391359001 0.390578985
vt 0.442321002 0.388221025
vt 0.391359001 0.390578985
vt 0.442030013 0.421974003
vt 0.397870004 0.430189013
vt 0.457237005 0.342918038
vt 0.392807007 0.314764977
vt 0.464455009 0.312301040
vt 0.392807007 0.314764977
vt 0.457237005 0.342918038
vt 0.389115006 0.356135011
vt 0.157878995 0.035984993
vt 0.145371005 0.084885001
vt 0.143257007 0.024578989
vt 0.145371005 0.084885001
vt 0.157878995 0.035984993
vt 0.156769007 0.111030996
vt 0.145371005 0.084885001
vt 0.156769007 0.111030996
vt 0.139239997 0.111948013
vt 0.087415002 0.119895995
vt 0.076572001 0.084110022
vt 0.089749001 0.082895994
vt 0.076572001 0.084110022
vt 0.087415002 0.119895995
vt 0.074014999 0.112119019
vt 0.500000000 0.345978975
vt 0.457237005 0.342918038
vt 0.464455009 0.312301040
vt 0.207278997 0.437319040
vt 0.258354008 0.490774035
vt 0.206678003 0.492614985
vt 0.258354008 0.490774035
vt 0.207278997 0.437319040
vt 0.262950987 0.443035960
vt 0.207821995 0.254350007
vt 0.258242011 0.289667010
vt 0.208268002 0.286002040
vt 0.499976993 0.485785961
vt 0.457405001 0.531789005
vt 0.448264986 0.483642995
vt 0.457405001 0.531789005
vt 0.499976993 0.485785961
vt 0.500000000 0.531428993
vt 0.068429001 0.051310003
vt 0.070969000 0.061758995
vt 0.076572001 0.084110022
vt 0.091627002 0.350187004
vt 0.134295002 0.355179012
vt 0.150214002 0.355962992
vt 0.134295002 0.355179012
vt 0.091627002 0.350187004
vt 0.112695001 0.351606965
vt 0.862178028 0.355179012
vt 0.904846013 0.350187004
vt 0.846258998 0.355962992
vt 0.904846013 0.350187004
vt 0.862178028 0.355179012
vt 0.883777976 0.351606965
vt 0.319858015 0.483940959
vt 0.205568001 0.473351955
vt 0.254330993 0.477364004
vt 0.376538992 0.479210973
vt 0.205568001 0.473351955
vt 0.319858015 0.483940959
vt 0.421541989 0.470551014
vt 0.205568001 0.473351955
vt 0.376538992 0.479210973
vt 0.459262997 0.473273993
vt 0.205568001 0.473351955
vt 0.421541989 0.470551014
vt 0.498236001 0.476410031
vt 0.205568001 0.473351955
vt 0.459262997 0.473273993
vt 0.790903986 0.473351955
vt 0.676615000 0.483940959
vt 0.742142022 0.477364004
vt 0.790903986 0.473351955
vt 0.619934022 0.479210973
vt 0.676615000 0.483940959
vt 0.790903986 0.473351955
vt 0.574931026 0.470551014
vt 0.619934022 0.479210973
vt 0.790903986 0.473351955
vt 0.537209988 0.473273993
vt 0.574931026 0.470551014
vt 0.498236001 0.476410031
vt 0.537209988 0.473273993
vt 0.790903986 0.473351955
vt 0.207821995 0.254350007
vt 0.229282007 0.259953976
vt 0.247668996 0.240095973
vt 0.247668996 0.240095973
vt 0.263552010 0.246096969
vt 0.274280995 0.226604998
vt 0.418832004 0.257534027
vt 0.430368990 0.284291983
vt 0.467204005 0.296949029
vt 0.467204005 0.296949029
vt 0.470382005 0.329998016
vt 0.500000000 0.345978975
vt 0.752331018 0.240095973
vt 0.764449000 0.263674974
vt 0.791822016 0.254308999
vt 0.725718975 0.226604998
vt 0.728157997 0.255044997
vt 0.752331018 0.240095973
vt 0.534528017 0.296684980
vt 0.565195978 0.285703003
vt 0.581167996 0.257534027
vt 0.500000000 0.345978975
vt 0.526955009 0.326691985
vt 0.534528017 0.296684980
f 3/3 2/2 1/1
f 6/6 5/5 4/4
f 9/9 8/8 7/7
f 12/12 11/11 10/10
f 15/15 14/14 13/13
f 18/18 17/17 16/16
f 21/21 20/20 19/19
f 24/24 23/23 22/22
f 27/27 26/26 25/25
f 30/30 29/29 28/28
f 33/33 32/32 31/31
f 36/36 35/35 34/34
f 39/39 38/38 37/37
f 42/42 41/41 40/40
f 45/45 44/44 43/43
f 48/48 47/47 46/46
f 51/51 50/50 49/49
f 54/54 53/53 52/52
f 57/57 56/56 55/55
f 60/60 59/59 58/58
f 63/63 62/62 61/61
f 66/66 65/65 64/64
f 69/69 68/68 67/67
f 72/72 71/71 70/70
f 75/75 74/74 73/73
f 78/78 77/77 76/76
f 81/81 80/80 79/79
f 84/84 83/83 82/82
f 87/87 86/86 85/85
f 90/90 89/89 88/88
f 93/93 92/92 91/91
f 96/96 95/95 94/94
f 99/99 98/98 97/97
f 102/102 101/101 100/100
f 105/105 104/104 103/103
f 108/108 107/107 106/106
f 111/111 110/110 109/109
f 114/114 113/113 112/112
f 117/117 116/116 115/115
f 120/120 119/119 118/118
f 123/123 122/122 121/121
f 126/126 125/125 124/124
f 129/129 128/128 127/127
f 132/132 131/131 130/130
f 135/135 134/134 133/133
f 138/138 137/137 136/136
f 141/141 140/140 139/139
f 144/144 143/143 142/142
f 147/147 146/146 145/145
f 150/150 149/149 148/148
f 153/153 152/152 151/151
f 156/156 155/155 154/154
f 159/159 158/158 157/157
f 162/162 161/161 160/160
f 165/165 164/164 163/163
f 168/168 167/167 166/166
f 171/171 170/170 169/169
f 174/174 173/173 172/172
f 177/177 176/176 175/175
f 180/180 179/179 178/178
f 183/183 182/182 181/181
f 186/186 185/185 184/184
f 189/189 188/188 187/187
f 192/192 191/191 190/190
f 195/195 194/194 193/193
f 198/198 197/197 196/196
f 201/201 200/200 199/199
f 204/204 203/203 202/202
f 207/207 206/206 205/205
f 210/210 209/209 208/208
f 213/213 212/212 211/211
f 216/216 215/215 214/214
f 219/219 218/218 217/217
f 222/222 221/221 220/220
f 225/225 224/224 223/223
f 228/228 227/227 226/226
f 231/231 230/230 229/229
f 234/234 233/233 232/232
f 237/237 236/236 235/235
f 240/240 239/239 238/238
f 243/243 242/242 241/241
f 246/246 245/245 244/244
f 249/249 248/248 247/247
f 252/252 251/251 250/250
f 255/255 254/254 253/253
f 258/258 257/257 256/256
f 261/261 260/260 259/259
f 264/264 263/263 262/262
f 267/267 266/266 265/265
f 270/270 269/269 268/268
f 273/273 272/272 271/271
f 276/276 275/275 274/274
f 279/279 278/278 277/277
f 282/282 281/281 280/280
f 285/285 284/284 283/283
f 288/288 287/287 286/286
f 291/291 290/290 289/289
f 294/294 293/293 292/292
f 297/297 296/296 295/295
f 300/300 299/299 298/298
f 303/303 302/302 301/301
f 306/306 305/305 304/304
f 309/309 308/308 307/307
f 312/312 311/311 310/310
f 315/315 314/314 313/313
f 318/318 317/317 316/316
f 321/321 320/320 319/319
f 324/324 323/323 322/322
f 327/327 326/326 325/325
f 330/330 329/329 328/328
f 333/333 332/332 331/331
f 336/336 335/335 334/334
f 339/339 338/338 337/337
f 342/342 341/341 340/340
f 345/345 344/344 343/343
f 348/348 347/347 346/346
f 351/351 350/350 349/349
f 354/354 353/353 352/352
f 357/357 356/356 355/355
f 360/360 359/359 358/358
f 363/363 362/362 361/361
f 366/366 365/365 364/364
f 369/369 368/368 367/367
f 372/372 371/371 370/370
f 375/375 374/374 373/373
f 378/378 377/377 376/376
f 381/381 380/380 379/379
f 384/384 383/383 382/382
f 387/387 386/386 385/385
f 390/390 389/389 388/388
f 393/393 392/392 391/391
f 396/396 395/395 394/394
f 399/399 398/398 397/397
f 402/402 401/401 400/400
f 405/405 404/404 403/403
f 408/408 407/407 406/406
f 411/411 410/410 409/409
f 414/414 413/413 412/412
f 417/417 416/416 415/415
f 420/420 419/419 418/418
f 423/423 422/422 421/421
f 426/426 425/425 424/424
f 429/429 428/428 427/427
f 432/432 431/431 430/430
f 435/435 434/434 433/433
f 438/438 437/437 436/436
f 441/441 440/440 439/439
f 444/444 443/443 442/442
f 447/447 446/446 445/445
f 450/450 449/449 448/448
f 453/453 452/452 451/451
f 456/456 455/455 454/454
f 459/459 458/458 457/457
f 462/462 461/461 460/460
f 465/465 464/464 463/463
f 468/468 467/467 466/466
f 471/471 470/470 469/469
f 474/474 473/473 472/472
f 477/477 476/476 475/475
f 480/480 479/479 478/478
f 483/483 482/482 481/481
f 486/486 485/485 484/484
f 489/489 488/488 487/487
f 492/492 491/491 490/490
f 495/495 494/494 493/493
f 498/498 497/497 496/496
f 501/501 500/500 499/499
f 504/504 503/503 502/502
f 507/507 506/506 505/505
f 510/510 509/509 508/508
f 513/513 512/512 511/511
f 516/516 515/515 514/514
f 519/519 518/518 517/517
f 522/522 521/521 520/520
f 525/525 524/524 523/523
f 528/528 527/527 526/526
f 531/531 530/530 529/529
f 534/534 533/533 532/532
f 537/537 536/536 535/535
f 540/540 539/539 538/538
f 543/543 542/542 541/541
f 546/546 545/545 544/544
f 549/549 548/548 547/547
f 552/552 551/551 550/550
f 555/555 554/554 553/553
f 558/558 557/557 556/556
f 561/561 560/560 559/559
f 564/564 563/563 562/562
f 567/567 566/566 565/565
f 570/570 569/569 568/568
f 573/573 572/572 571/571
f 576/576 575/575 574/574
f 579/579 578/578 577/577
f 582/582 581/581 580/580
f 585/585 584/584 583/583
f 588/588 587/587 586/586
f 591/591 590/590 589/589
f 594/594 593/593 592/592
f 597/597 596/596 595/595
f 600/600 599/599 598/598
f 603/603 602/602 601/601
f 606/606 605/605 604/604
f 609/609 608/608 607/607
f 612/612 611/611 610/610
f 615/615 614/614 613/613
f 618/618 617/617 616/616
f 621/621 620/620 619/619
f 624/624 623/623 622/622
f 627/627 626/626 625/625
f 630/630 629/629 628/628
f 633/633 632/632 631/631
f 636/636 635/635 634/634
f 639/639 638/638 637/637
f 642/642 641/641 640/640
f 645/645 644/644 643/643
f 648/648 647/647 646/646
f 651/651 650/650 649/649
f 654/654 653/653 652/652
f 657/657 656/656 655/655
f 660/660 659/659 658/658
f 663/663 662/662 661/661
f 666/666 665/665 664/664
f 669/669 668/668 667/667
f 672/672 671/671 670/670
f 675/675 674/674 673/673
f 678/678 677/677 676/676
f 681/681 680/680 679/679
f 684/684 683/683 682/682
f 687/687 686/686 685/685
f 690/690 689/689 688/688
f 693/693 692/692 691/691
f 696/696 695/695 694/694
f 699/699 698/698 697/697
f 702/702 701/701 700/700
f 705/705 704/704 703/703
f 708/708 707/707 706/706
f 711/711 710/710 709/709
f 714/714 713/713 712/712
f 717/717 716/716 715/715
f 720/720 719/719 718/718
f 723/723 722/722 721/721
f 726/726 725/725 724/724
f 729/729 728/728 727/727
f 732/732 731/731 730/730
f 735/735 734/734 733/733
f 738/738 737/737 736/736
f 741/741 740/740 739/739
f 744/744 743/743 742/742
f 747/747 746/746 745/745
f 750/750 749/749 748/748
f 753/753 752/752 751/751
f 756/756 755/755 754/754
f 759/759 758/758 757/757
f 762/762 761/761 760/760
f 765/765 764/764 763/763
f 768/768 767/767 766/766
f 771/771 770/770 769/769
f 774/774 773/773 772/772
f 777/777 776/776 775/775
f 780/780 779/779 778/778
f 783/783 782/782 781/781
f 786/786 785/785 784/784
f 789/789 788/788 787/787
f 792/792 791/791 790/790
f 795/795 794/794 793/793
f 798/798 797/797 796/796
f 801/801 800/800 799/799
f 804/804 803/803 802/802
f 807/807 806/806 805/805
f 810/810 809/809 808/808
f 813/813 812/812 811/811
f 816/816 815/815 814/814
f 819/819 818/818 817/817
f 822/822 821/821 820/820
f 825/825 824/824 823/823
f 828/828 827/827 826/826
f 831/831 830/830 829/829
f 834/834 833/833 832/832
f 837/837 836/836 835/835
f 840/840 839/839 838/838
f 843/843 842/842 841/841
f 846/846 845/845 844/844
f 849/849 848/848 847/847
f 852/852 851/851 850/850
f 855/855 854/854 853/853
f 858/858 857/857 856/856
f 861/861 860/860 859/859
f 864/864 863/863 862/862
f 867/867 866/866 865/865
f 870/870 869/869 868/868
f 873/873 872/872 871/871
f 876/876 875/875 874/874
f 879/879 878/878 877/877
f 882/882 881/881 880/880
f 885/885 884/884 883/883
f 888/888 887/887 886/886
f 891/891 890/890 889/889
f 894/894 893/893 892/892
f 897/897 896/896 895/895
f 900/900 899/899 898/898
f 903/903 902/902 901/901
f 906/906 905/905 904/904
f 909/909 908/908 907/907
f 912/912 911/911 910/910
f 915/915 914/914 913/913
f 918/918 917/917 916/916
f 921/921 920/920 919/919
f 924/924 923/923 922/922
f 927/927 926/926 925/925
f 930/930 929/929 928/928
f 933/933 932/932 931/931
f 936/936 935/935 934/934
f 939/939 938/938 937/937
f 942/942 941/941 940/940
f 945/945 944/944 943/943
f 948/948 947/947 946/946
f 951/951 950/950 949/949
f 954/954 953/953 952/952
f 957/957 956/956 955/955
f 960/960 959/959 958/958
f 963/963 962/962 961/961
f 966/966 965/965 964/964
f 969/969 968/968 967/967
f 972/972 971/971 970/970
f 975/975 974/974 973/973
f 978/978 977/977 976/976
f 981/981 980/980 979/979
f 984/984 983/983 982/982
f 987/987 986/986 985/985
f 990/990 989/989 988/988
f 993/993 992/992 991/991
f 996/996 995/995 994/994
