# Static pose baked from local Project Zomboid assets
o Kate_Hair_Bob
v -0.096436669 0.036548598 -0.452810288
v -0.100110296 0.066370006 -0.463628681
v -0.115064786 0.060216504 -0.461830204
v -0.096436669 0.036548598 -0.452810288
v -0.084441212 0.059797773 -0.456257999
v -0.100110296 0.066370006 -0.463628681
v -0.096436669 0.036548598 -0.452810288
v -0.071584064 0.052362910 -0.464420289
v -0.084441212 0.059797773 -0.456257999
v -0.096436669 0.036548598 -0.452810288
v -0.064344313 0.035181237 -0.460865520
v -0.071584064 0.052362910 -0.464420289
v -0.096436669 0.036548598 -0.452810288
v -0.068378351 0.021734707 -0.456501646
v -0.064344313 0.035181237 -0.460865520
v -0.096436669 0.036548598 -0.452810288
v -0.075801232 0.011059881 -0.441426621
v -0.068378351 0.021734707 -0.456501646
v -0.103292727 0.101063411 -0.448446311
v -0.115064786 0.060216504 -0.461830204
v -0.100110296 0.066370006 -0.463628681
v -0.115064786 0.060216504 -0.461830204
v -0.103292727 0.101063411 -0.448446311
v -0.130160701 0.093616989 -0.442012333
v -0.079144424 0.081422988 -0.446971359
v -0.100110296 0.066370006 -0.463628681
v -0.084441212 0.059797773 -0.456257999
v -0.100110296 0.066370006 -0.463628681
v -0.079144424 0.081422988 -0.446971359
v -0.103292727 0.101063411 -0.448446311
v -0.054555375 0.075468510 -0.449340266
v -0.084441212 0.059797773 -0.456257999
v -0.071584064 0.052362910 -0.464420289
v -0.084441212 0.059797773 -0.456257999
v -0.054555375 0.075468510 -0.449340266
v -0.079144424 0.081422988 -0.446971359
v -0.034589879 0.041895632 -0.446308537
v -0.071584064 0.052362910 -0.464420289
v -0.064344313 0.035181237 -0.460865520
v -0.071584064 0.052362910 -0.464420289
v -0.034589879 0.041895632 -0.446308537
v -0.054555375 0.075468510 -0.449340266
v -0.039714090 0.018328676 -0.438977587
v -0.064344313 0.035181237 -0.460865520
v -0.068378351 0.021734707 -0.456501646
v -0.064344313 0.035181237 -0.460865520
v -0.039714090 0.018328676 -0.438977587
v -0.034589879 0.041895632 -0.446308537
v -0.060179430 -0.004821192 -0.426294451
v -0.068378351 0.021734707 -0.456501646
v -0.075801232 0.011059881 -0.441426621
v -0.068378351 0.021734707 -0.456501646
v -0.060179430 -0.004821192 -0.426294451
v -0.039714090 0.018328676 -0.438977587
v -0.100457705 0.117628524 -0.423880210
v -0.130160701 0.093616989 -0.442012333
v -0.103292727 0.101063411 -0.448446311
v -0.130160701 0.093616989 -0.442012333
v -0.100457705 0.117628524 -0.423880210
v -0.131335607 0.109276218 -0.415556691
v -0.075364758 0.108635099 -0.427168543
v -0.103292727 0.101063411 -0.448446311
v -0.079144424 0.081422988 -0.446971359
v -0.103292727 0.101063411 -0.448446311
v -0.075364758 0.108635099 -0.427168543
v -0.100457705 0.117628524 -0.423880210
v -0.033430116 0.100305890 -0.415996985
v -0.079144424 0.081422988 -0.446971359
v -0.054555375 0.075468510 -0.449340266
v -0.079144424 0.081422988 -0.446971359
v -0.033430116 0.100305890 -0.415996985
v -0.075364758 0.108635099 -0.427168543
v -0.009430431 0.060742556 -0.419548096
v -0.054555375 0.075468510 -0.449340266
v -0.034589879 0.041895632 -0.446308537
v -0.054555375 0.075468510 -0.449340266
v -0.009430431 0.060742556 -0.419548096
v -0.033430116 0.100305890 -0.415996985
v -0.018746562 0.027420313 -0.408844868
v -0.034589879 0.041895632 -0.446308537
v -0.039714090 0.018328676 -0.438977587
v -0.034589879 0.041895632 -0.446308537
v -0.018746562 0.027420313 -0.408844868
v -0.009430431 0.060742556 -0.419548096
v -0.049586018 -0.004564795 -0.395000110
v -0.039714090 0.018328676 -0.438977587
v -0.060179430 -0.004821192 -0.426294451
v -0.039714090 0.018328676 -0.438977587
v -0.049586018 -0.004564795 -0.395000110
v -0.018746562 0.027420313 -0.408844868
v -0.102021966 0.115662209 -0.416901694
v -0.131335607 0.109276218 -0.415556691
v -0.100457705 0.117628524 -0.423880210
v -0.131335607 0.109276218 -0.415556691
v -0.102021966 0.115662209 -0.416901694
v -0.128744258 0.108461991 -0.409574407
v -0.079980798 0.105836527 -0.419462960
v -0.100457705 0.117628524 -0.423880210
v -0.075364758 0.108635099 -0.427168543
v -0.100457705 0.117628524 -0.423880210
v -0.079980798 0.105836527 -0.419462960
v -0.102021966 0.115662209 -0.416901694
v -0.066909574 0.125402888 -0.381939016
v -0.075364758 0.108635099 -0.427168543
v -0.033430116 0.100305890 -0.415996985
v -0.075364758 0.108635099 -0.427168543
v -0.066909574 0.125402888 -0.381939016
v -0.079980798 0.105836527 -0.419462960
v -0.013037766 0.077820668 -0.376119386
v -0.033430116 0.100305890 -0.415996985
v -0.009430431 0.060742556 -0.419548096
v -0.033430116 0.100305890 -0.415996985
v -0.013037766 0.077820668 -0.376119386
v -0.066909574 0.125402888 -0.381939016
v -0.016645069 0.042068881 -0.365677556
v -0.009430431 0.060742556 -0.419548096
v -0.018746562 0.027420313 -0.408844868
v -0.009430431 0.060742556 -0.419548096
v -0.016645069 0.042068881 -0.365677556
v -0.013037766 0.077820668 -0.376119386
v -0.045549586 0.011535614 -0.352548492
v -0.018746562 0.027420313 -0.408844868
v -0.049586018 -0.004564795 -0.395000110
v -0.018746562 0.027420313 -0.408844868
v -0.045549586 0.011535614 -0.352548492
v -0.016645069 0.042068881 -0.365677556
v -0.013037766 0.077820668 -0.376119386
v -0.058489677 0.122579325 -0.353460839
v -0.066909574 0.125402888 -0.381939016
v -0.058489677 0.122579325 -0.353460839
v -0.013037766 0.077820668 -0.376119386
v -0.007087122 0.104087995 -0.354262883
v -0.016645069 0.042068881 -0.365677556
v -0.007087122 0.104087995 -0.354262883
v -0.013037766 0.077820668 -0.376119386
v -0.007087122 0.104087995 -0.354262883
v -0.016645069 0.042068881 -0.365677556
v -0.004238256 0.048316182 -0.338916235
v -0.045549586 0.011535614 -0.352548492
v -0.004238256 0.048316182 -0.338916235
v -0.016645069 0.042068881 -0.365677556
v -0.004238256 0.048316182 -0.338916235
v -0.045549586 0.011535614 -0.352548492
v -0.035363400 0.011180296 -0.323605281
v -0.007087122 0.104087995 -0.354262883
v -0.071847343 0.124519975 -0.331683057
v -0.058489677 0.122579325 -0.353460839
v -0.071847343 0.124519975 -0.331683057
v -0.007087122 0.104087995 -0.354262883
v -0.031115379 0.112203806 -0.324217803
v -0.004238256 0.048316182 -0.338916235
v -0.031115379 0.112203806 -0.324217803
v -0.007087122 0.104087995 -0.354262883
v -0.031115379 0.112203806 -0.324217803
v -0.004238256 0.048316182 -0.338916235
v -0.014556705 0.059861519 -0.314911383
v -0.035363400 0.011180296 -0.323605281
v -0.014556705 0.059861519 -0.314911383
v -0.004238256 0.048316182 -0.338916235
v -0.014556705 0.059861519 -0.314911383
v -0.035363400 0.011180296 -0.323605281
v -0.041748906 0.031844083 -0.302754955
v -0.081930230 0.102452063 -0.414808049
v -0.066909574 0.125402888 -0.381939016
v -0.063806308 0.109198177 -0.377978923
v -0.066909574 0.125402888 -0.381939016
v -0.081930230 0.102452063 -0.414808049
v -0.079980798 0.105836527 -0.419462960
v -0.058489677 0.122579325 -0.353460839
v -0.063806308 0.109198177 -0.377978923
v -0.066909574 0.125402888 -0.381939016
v -0.063806308 0.109198177 -0.377978923
v -0.058489677 0.122579325 -0.353460839
v -0.063063455 0.109636761 -0.349147841
v -0.071847343 0.124519975 -0.331683057
v -0.063063455 0.109636761 -0.349147841
v -0.058489677 0.122579325 -0.353460839
v -0.063063455 0.109636761 -0.349147841
v -0.071847343 0.124519975 -0.331683057
v -0.077587329 0.120754504 -0.329709170
v -0.031115379 0.112203806 -0.324217803
v -0.077587329 0.120754504 -0.329709170
v -0.071847343 0.124519975 -0.331683057
v -0.077587329 0.120754504 -0.329709170
v -0.031115379 0.112203806 -0.324217803
v -0.052202173 0.098370719 -0.316966401
v -0.014556705 0.059861519 -0.314911383
v -0.052202173 0.098370719 -0.316966401
v -0.031115379 0.112203806 -0.324217803
v -0.052202173 0.098370719 -0.316966401
v -0.014556705 0.059861519 -0.314911383
v -0.035658988 0.064107053 -0.312640102
v -0.041748906 0.031844083 -0.302754955
v -0.035658988 0.064107053 -0.312640102
v -0.014556705 0.059861519 -0.314911383
v -0.035658988 0.064107053 -0.312640102
v -0.041748906 0.031844083 -0.302754955
v -0.053573046 0.048476345 -0.305410672
v -0.096436669 0.036548598 -0.452810288
v -0.115064786 0.060216504 -0.461830204
v -0.125435986 0.049756173 -0.454919592
v -0.096436669 0.036548598 -0.452810288
v -0.125435986 0.049756173 -0.454919592
v -0.121161695 0.035708875 -0.443630427
v -0.096436669 0.036548598 -0.452810288
v -0.121161695 0.035708875 -0.443630427
v -0.122235444 0.019135245 -0.447002111
v -0.096436669 0.036548598 -0.452810288
v -0.122235444 0.019135245 -0.447002111
v -0.108210246 0.006404873 -0.445780746
v -0.096436669 0.036548598 -0.452810288
v -0.108210246 0.006404873 -0.445780746
v -0.093704041 0.005120875 -0.447792557
v -0.096436669 0.036548598 -0.452810288
v -0.093704041 0.005120875 -0.447792557
v -0.075801232 0.011059881 -0.441426621
v -0.147158661 0.072287047 -0.433361537
v -0.115064786 0.060216504 -0.461830204
v -0.130160701 0.093616989 -0.442012333
v -0.115064786 0.060216504 -0.461830204
v -0.147158661 0.072287047 -0.433361537
v -0.125435986 0.049756173 -0.454919592
v -0.136902680 0.043533163 -0.427109243
v -0.125435986 0.049756173 -0.454919592
v -0.147158661 0.072287047 -0.433361537
v -0.125435986 0.049756173 -0.454919592
v -0.136902680 0.043533163 -0.427109243
v -0.121161695 0.035708875 -0.443630427
v -0.140077391 0.019365461 -0.419930649
v -0.121161695 0.035708875 -0.443630427
v -0.136902680 0.043533163 -0.427109243
v -0.121161695 0.035708875 -0.443630427
v -0.140077391 0.019365461 -0.419930649
v -0.122235444 0.019135245 -0.447002111
v -0.116106844 -0.011580075 -0.418276192
v -0.122235444 0.019135245 -0.447002111
v -0.140077391 0.019365461 -0.419930649
v -0.122235444 0.019135245 -0.447002111
v -0.116106844 -0.011580075 -0.418276192
v -0.108210246 0.006404873 -0.445780746
v -0.091390842 -0.015571639 -0.421206800
v -0.108210246 0.006404873 -0.445780746
v -0.116106844 -0.011580075 -0.418276192
v -0.108210246 0.006404873 -0.445780746
v -0.091390842 -0.015571639 -0.421206800
v -0.093704041 0.005120875 -0.447792557
v -0.060179430 -0.004821192 -0.426294451
v -0.093704041 0.005120875 -0.447792557
v -0.091390842 -0.015571639 -0.421206800
v -0.093704041 0.005120875 -0.447792557
v -0.060179430 -0.004821192 -0.426294451
v -0.075801232 0.011059881 -0.441426621
v -0.151109085 0.084400859 -0.406462032
v -0.130160701 0.093616989 -0.442012333
v -0.131335607 0.109276218 -0.415556691
v -0.130160701 0.093616989 -0.442012333
v -0.151109085 0.084400859 -0.406462032
v -0.147158661 0.072287047 -0.433361537
v -0.152264340 0.058188427 -0.400724040
v -0.147158661 0.072287047 -0.433361537
v -0.151109085 0.084400859 -0.406462032
v -0.147158661 0.072287047 -0.433361537
v -0.152264340 0.058188427 -0.400724040
v -0.136902680 0.043533163 -0.427109243
v -0.152469540 0.022215184 -0.375061282
v -0.136902680 0.043533163 -0.427109243
v -0.152264340 0.058188427 -0.400724040
v -0.136902680 0.043533163 -0.427109243
v -0.152469540 0.022215184 -0.375061282
v -0.140077391 0.019365461 -0.419930649
v -0.127523226 -0.016727156 -0.378937924
v -0.140077391 0.019365461 -0.419930649
v -0.152469540 0.022215184 -0.375061282
v -0.140077391 0.019365461 -0.419930649
v -0.127523226 -0.016727156 -0.378937924
v -0.116106844 -0.011580075 -0.418276192
v -0.091822701 -0.020518152 -0.383715184
v -0.116106844 -0.011580075 -0.418276192
v -0.127523226 -0.016727156 -0.378937924
v -0.116106844 -0.011580075 -0.418276192
v -0.091822701 -0.020518152 -0.383715184
v -0.091390842 -0.015571639 -0.421206800
v -0.049586018 -0.004564795 -0.395000110
v -0.091390842 -0.015571639 -0.421206800
v -0.091822701 -0.020518152 -0.383715184
v -0.091390842 -0.015571639 -0.421206800
v -0.049586018 -0.004564795 -0.395000110
v -0.060179430 -0.004821192 -0.426294451
v -0.145887900 0.086885845 -0.401816919
v -0.131335607 0.109276218 -0.415556691
v -0.128744258 0.108461991 -0.409574407
v -0.131335607 0.109276218 -0.415556691
v -0.145887900 0.086885845 -0.401816919
v -0.151109085 0.084400859 -0.406462032
v -0.145125583 0.063101086 -0.397060739
v -0.151109085 0.084400859 -0.406462032
v -0.145887900 0.086885845 -0.401816919
v -0.151109085 0.084400859 -0.406462032
v -0.145125583 0.063101086 -0.397060739
v -0.152264340 0.058188427 -0.400724040
v -0.148847615 0.071650952 -0.353761870
v -0.152264340 0.058188427 -0.400724040
v -0.145125583 0.063101086 -0.397060739
v -0.152264340 0.058188427 -0.400724040
v -0.148847615 0.071650952 -0.353761870
v -0.152469540 0.022215184 -0.375061282
v -0.121653114 0.006568229 -0.338768351
v -0.152469540 0.022215184 -0.375061282
v -0.148847615 0.071650952 -0.353761870
v -0.152469540 0.022215184 -0.375061282
v -0.121653114 0.006568229 -0.338768351
v -0.127523226 -0.016727156 -0.378937924
v -0.085674366 -0.003214827 -0.341939514
v -0.127523226 -0.016727156 -0.378937924
v -0.121653114 0.006568229 -0.338768351
v -0.127523226 -0.016727156 -0.378937924
v -0.085674366 -0.003214827 -0.341939514
v -0.091822701 -0.020518152 -0.383715184
v -0.045549586 0.011535614 -0.352548492
v -0.091822701 -0.020518152 -0.383715184
v -0.085674366 -0.003214827 -0.341939514
v -0.091822701 -0.020518152 -0.383715184
v -0.045549586 0.011535614 -0.352548492
v -0.049586018 -0.004564795 -0.395000110
v -0.121653114 0.006568229 -0.338768351
v -0.136261947 0.071560164 -0.326716232
v -0.135935058 0.019562835 -0.309954194
v -0.136261947 0.071560164 -0.326716232
v -0.121653114 0.006568229 -0.338768351
v -0.148847615 0.071650952 -0.353761870
v -0.085674366 -0.003214827 -0.341939514
v -0.135935058 0.019562835 -0.309954194
v -0.082698396 -0.003154227 -0.311935081
v -0.135935058 0.019562835 -0.309954194
v -0.085674366 -0.003214827 -0.341939514
v -0.121653114 0.006568229 -0.338768351
v -0.045549586 0.011535614 -0.352548492
v -0.082698396 -0.003154227 -0.311935081
v -0.035363400 0.011180296 -0.323605281
v -0.082698396 -0.003154227 -0.311935081
v -0.045549586 0.011535614 -0.352548492
v -0.085674366 -0.003214827 -0.341939514
v -0.135935058 0.019562835 -0.309954194
v -0.124340533 0.090084070 -0.313631511
v -0.122463362 0.052278881 -0.292804733
v -0.124340533 0.090084070 -0.313631511
v -0.135935058 0.019562835 -0.309954194
v -0.136261947 0.071560164 -0.326716232
v -0.082698396 -0.003154227 -0.311935081
v -0.122463362 0.052278881 -0.292804733
v -0.078811122 0.017710165 -0.292815345
v -0.122463362 0.052278881 -0.292804733
v -0.082698396 -0.003154227 -0.311935081
v -0.135935058 0.019562835 -0.309954194
v -0.035363400 0.011180296 -0.323605281
v -0.078811122 0.017710165 -0.292815345
v -0.041748906 0.031844083 -0.302754955
v -0.078811122 0.017710165 -0.292815345
v -0.035363400 0.011180296 -0.323605281
v -0.082698396 -0.003154227 -0.311935081
v -0.139622597 0.064605461 -0.394968591
v -0.148847615 0.071650952 -0.353761870
v -0.145125583 0.063101086 -0.397060739
v -0.148847615 0.071650952 -0.353761870
v -0.139622597 0.064605461 -0.394968591
v -0.134264374 0.062977186 -0.353749551
v -0.136261947 0.071560164 -0.326716232
v -0.134264374 0.062977186 -0.353749551
v -0.122047982 0.070942493 -0.328864031
v -0.134264374 0.062977186 -0.353749551
v -0.136261947 0.071560164 -0.326716232
v -0.148847615 0.071650952 -0.353761870
v -0.124340533 0.090084070 -0.313631511
v -0.122047982 0.070942493 -0.328864031
v -0.118600547 0.093849542 -0.315605398
v -0.122047982 0.070942493 -0.328864031
v -0.124340533 0.090084070 -0.313631511
v -0.136261947 0.071560164 -0.326716232
v -0.122463362 0.052278881 -0.292804733
v -0.118600547 0.093849542 -0.315605398
v -0.101376568 0.066111967 -0.300056135
v -0.118600547 0.093849542 -0.315605398
v -0.122463362 0.052278881 -0.292804733
v -0.124340533 0.090084070 -0.313631511
v -0.078811122 0.017710165 -0.292815345
v -0.101376568 0.066111967 -0.300056135
v -0.075248258 0.038136211 -0.299026002
v -0.101376568 0.066111967 -0.300056135
v -0.078811122 0.017710165 -0.292815345
v -0.122463362 0.052278881 -0.292804733
v -0.041748906 0.031844083 -0.302754955
v -0.075248258 0.038136211 -0.299026002
v -0.053573046 0.048476345 -0.305410672
v -0.075248258 0.038136211 -0.299026002
v -0.041748906 0.031844083 -0.302754955
v -0.078811122 0.017710165 -0.292815345
vt 0.201452002 0.376536965
vt 0.241410002 0.458920956
vt 0.200026006 0.462502956
vt 0.201452002 0.376536965
vt 0.278138995 0.426470041
vt 0.241410002 0.458920956
vt 0.306840986 0.024426997
vt 0.252721995 0.061303020
vt 0.229321003 0.043986022
vt 0.306840986 0.024426997
vt 0.294961005 0.070536017
vt 0.252721995 0.061303020
vt 0.306840986 0.024426997
vt 0.334239006 0.068275988
vt 0.294961005 0.070536017
vt 0.306840986 0.024426997
vt 0.393480986 0.068028986
vt 0.334239006 0.068275988
vt 0.268258005 0.559836984
vt 0.200026006 0.462502956
vt 0.241410002 0.458920956
vt 0.200026006 0.462502956
vt 0.268258005 0.559836984
vt 0.198148996 0.575707972
vt 0.324712992 0.497231007
vt 0.241410002 0.458920956
vt 0.278138995 0.426470041
vt 0.241410002 0.458920956
vt 0.324712992 0.497231007
vt 0.268258005 0.559836984
vt 0.195352003 0.095734000
vt 0.229321003 0.043986022
vt 0.252721995 0.061303020
vt 0.229321003 0.043986022
vt 0.195352003 0.095734000
vt 0.158020005 0.069949985
vt 0.275628000 0.114161015
vt 0.252721995 0.061303020
vt 0.294961005 0.070536017
vt 0.252721995 0.061303020
vt 0.275628000 0.114161015
vt 0.195352003 0.095734000
vt 0.326647013 0.114273012
vt 0.294961005 0.070536017
vt 0.334239006 0.068275988
vt 0.294961005 0.070536017
vt 0.326647013 0.114273012
vt 0.275628000 0.114161015
vt 0.392738998 0.113941014
vt 0.334239006 0.068275988
vt 0.393480986 0.068028986
vt 0.334239006 0.068275988
vt 0.392738998 0.113941014
vt 0.326647013 0.114273012
vt 0.289133012 0.637656987
vt 0.198148996 0.575707972
vt 0.268258005 0.559836984
vt 0.198148996 0.575707972
vt 0.289133012 0.637656987
vt 0.196775004 0.658820987
vt 0.353841990 0.597265005
vt 0.268258005 0.559836984
vt 0.324712992 0.497231007
vt 0.268258005 0.559836984
vt 0.353841990 0.597265005
vt 0.289133012 0.637656987
vt 0.152842999 0.161903977
vt 0.158020005 0.069949985
vt 0.195352003 0.095734000
vt 0.158020005 0.069949985
vt 0.152842999 0.161903977
vt 0.083094999 0.122246027
vt 0.241043001 0.163609028
vt 0.195352003 0.095734000
vt 0.275628000 0.114161015
vt 0.195352003 0.095734000
vt 0.241043001 0.163609028
vt 0.152842999 0.161903977
vt 0.304280013 0.165601969
vt 0.275628000 0.114161015
vt 0.326647013 0.114273012
vt 0.275628000 0.114161015
vt 0.304280013 0.165601969
vt 0.241043001 0.163609028
vt 0.391914994 0.164876997
vt 0.326647013 0.114273012
vt 0.392738998 0.113941014
vt 0.326647013 0.114273012
vt 0.391914994 0.164876997
vt 0.304280013 0.165601969
vt 0.286778986 0.657455027
vt 0.196775004 0.658820987
vt 0.289133012 0.637656987
vt 0.196775004 0.658820987
vt 0.286778986 0.657455027
vt 0.196502998 0.675261974
vt 0.353377014 0.625795007
vt 0.289133012 0.637656987
vt 0.353841990 0.597265005
vt 0.289133012 0.637656987
vt 0.353377014 0.625795007
vt 0.286778986 0.657455027
vt 0.054724999 0.211055994
vt 0.083094999 0.122246027
vt 0.152842999 0.161903977
vt 0.083094999 0.122246027
vt 0.054724999 0.211055994
vt 0.057367999 0.142791986
vt 0.213997006 0.222612977
vt 0.152842999 0.161903977
vt 0.241043001 0.163609028
vt 0.152842999 0.161903977
vt 0.213997006 0.222612977
vt 0.054724999 0.211055994
vt 0.297816008 0.229247987
vt 0.241043001 0.163609028
vt 0.304280013 0.165601969
vt 0.241043001 0.163609028
vt 0.297816008 0.229247987
vt 0.213997006 0.222612977
vt 0.390839010 0.231364965
vt 0.304280013 0.165601969
vt 0.391914994 0.164876997
vt 0.304280013 0.165601969
vt 0.390839010 0.231364965
vt 0.297816008 0.229247987
vt 0.213997006 0.222612977
vt 0.070221998 0.261026025
vt 0.054724999 0.211055994
vt 0.070221998 0.261026025
vt 0.213997006 0.222612977
vt 0.183258995 0.257542968
vt 0.297816008 0.229247987
vt 0.183258995 0.257542968
vt 0.213997006 0.222612977
vt 0.183258995 0.257542968
vt 0.297816008 0.229247987
vt 0.293633997 0.270334959
vt 0.390839010 0.231364965
vt 0.293633997 0.270334959
vt 0.297816008 0.229247987
vt 0.293633997 0.270334959
vt 0.390839010 0.231364965
vt 0.390127987 0.275061965
vt 0.183258995 0.257542968
vt 0.064595997 0.304639995
vt 0.070221998 0.261026025
vt 0.064595997 0.304639995
vt 0.183258995 0.257542968
vt 0.161569998 0.304264009
vt 0.293633997 0.270334959
vt 0.161569998 0.304264009
vt 0.183258995 0.257542968
vt 0.161569998 0.304264009
vt 0.293633997 0.270334959
vt 0.290253013 0.309579015
vt 0.390127987 0.275061965
vt 0.290253013 0.309579015
vt 0.293633997 0.270334959
vt 0.290253013 0.309579015
vt 0.390127987 0.275061965
vt 0.389432013 0.318019986
vt 0.043471001 0.149921000
vt 0.054724999 0.211055994
vt 0.023313999 0.216723979
vt 0.054724999 0.211055994
vt 0.043471001 0.149921000
vt 0.057367999 0.142791986
vt 0.070221998 0.261026025
vt 0.023313999 0.216723979
vt 0.054724999 0.211055994
vt 0.023313999 0.216723979
vt 0.070221998 0.261026025
vt 0.038550999 0.267773032
vt 0.064595997 0.304639995
vt 0.038550999 0.267773032
vt 0.070221998 0.261026025
vt 0.038550999 0.267773032
vt 0.064595997 0.304639995
vt 0.059560999 0.312649012
vt 0.161569998 0.304264009
vt 0.059560999 0.312649012
vt 0.064595997 0.304639995
vt 0.059560999 0.312649012
vt 0.161569998 0.304264009
vt 0.159804001 0.338217974
vt 0.290253013 0.309579015
vt 0.159804001 0.338217974
vt 0.161569998 0.304264009
vt 0.159804001 0.338217974
vt 0.290253013 0.309579015
vt 0.289321989 0.337581992
vt 0.389432013 0.318019986
vt 0.289321989 0.337581992
vt 0.290253013 0.309579015
vt 0.289321989 0.337581992
vt 0.389432013 0.318019986
vt 0.388965011 0.346894026
vt 0.201452002 0.376536965
vt 0.200026006 0.462502956
vt 0.158782005 0.457549989
vt 0.201452002 0.376536965
vt 0.158782005 0.457549989
vt 0.123147003 0.423898995
vt 0.481510997 0.025641024
vt 0.558393002 0.046283007
vt 0.534435987 0.063266993
vt 0.481510997 0.025641024
vt 0.534435987 0.063266993
vt 0.491903991 0.071905017
vt 0.481510997 0.025641024
vt 0.491903991 0.071905017
vt 0.452702999 0.069097996
vt 0.481510997 0.025641024
vt 0.452702999 0.069097996
vt 0.393480986 0.068028986
vt 0.128601998 0.557519019
vt 0.200026006 0.462502956
vt 0.198148996 0.575707972
vt 0.200026006 0.462502956
vt 0.128601998 0.557519019
vt 0.158782005 0.457549989
vt 0.074244000 0.493083000
vt 0.158782005 0.457549989
vt 0.128601998 0.557519019
vt 0.158782005 0.457549989
vt 0.074244000 0.493083000
vt 0.123147003 0.423898995
vt 0.590687990 0.098500013
vt 0.558393002 0.046283007
vt 0.628849983 0.073251009
vt 0.558393002 0.046283007
vt 0.590687990 0.098500013
vt 0.534435987 0.063266993
vt 0.509827018 0.115790009
vt 0.534435987 0.063266993
vt 0.590687990 0.098500013
vt 0.534435987 0.063266993
vt 0.509827018 0.115790009
vt 0.491903991 0.071905017
vt 0.458808988 0.115188003
vt 0.491903991 0.071905017
vt 0.509827018 0.115790009
vt 0.491903991 0.071905017
vt 0.458808988 0.115188003
vt 0.452702999 0.069097996
vt 0.392738998 0.113941014
vt 0.452702999 0.069097996
vt 0.458808988 0.115188003
vt 0.452702999 0.069097996
vt 0.392738998 0.113941014
vt 0.393480986 0.068028986
vt 0.105169997 0.634597003
vt 0.198148996 0.575707972
vt 0.196775004 0.658820987
vt 0.198148996 0.575707972
vt 0.105169997 0.634597003
vt 0.128601998 0.557519019
vt 0.041809998 0.592123985
vt 0.128601998 0.557519019
vt 0.105169997 0.634597003
vt 0.128601998 0.557519019
vt 0.041809998 0.592123985
vt 0.074244000 0.493083000
vt 0.631047010 0.165261984
vt 0.628849983 0.073251009
vt 0.702073991 0.126608968
vt 0.628849983 0.073251009
vt 0.631047010 0.165261984
vt 0.590687990 0.098500013
vt 0.542809010 0.165705979
vt 0.590687990 0.098500013
vt 0.631047010 0.165261984
vt 0.590687990 0.098500013
vt 0.542809010 0.165705979
vt 0.509827018 0.115790009
vt 0.479510009 0.166813970
vt 0.509827018 0.115790009
vt 0.542809010 0.165705979
vt 0.509827018 0.115790009
vt 0.479510009 0.166813970
vt 0.458808988 0.115188003
vt 0.391914994 0.164876997
vt 0.458808988 0.115188003
vt 0.479510009 0.166813970
vt 0.458808988 0.115188003
vt 0.391914994 0.164876997
vt 0.392738998 0.113941014
vt 0.106880002 0.654456973
vt 0.196775004 0.658820987
vt 0.196502998 0.675261974
vt 0.196775004 0.658820987
vt 0.106880002 0.654456973
vt 0.105169997 0.634597003
vt 0.041342001 0.620671988
vt 0.105169997 0.634597003
vt 0.106880002 0.654456973
vt 0.105169997 0.634597003
vt 0.041342001 0.620671988
vt 0.041809998 0.592123985
vt 0.727549016 0.215829968
vt 0.702073991 0.126608968
vt 0.727135003 0.147533000
vt 0.702073991 0.126608968
vt 0.727549016 0.215829968
vt 0.631047010 0.165261984
vt 0.567942977 0.225058019
vt 0.631047010 0.165261984
vt 0.727549016 0.215829968
vt 0.631047010 0.165261984
vt 0.567942977 0.225058019
vt 0.542809010 0.165705979
vt 0.483915001 0.230525970
vt 0.542809010 0.165705979
vt 0.567942977 0.225058019
vt 0.542809010 0.165705979
vt 0.483915001 0.230525970
vt 0.479510009 0.166813970
vt 0.390839010 0.231364965
vt 0.479510009 0.166813970
vt 0.483915001 0.230525970
vt 0.479510009 0.166813970
vt 0.390839010 0.231364965
vt 0.391914994 0.164876997
vt 0.567942977 0.225058019
vt 0.710393012 0.265568972
vt 0.597498000 0.260421038
vt 0.710393012 0.265568972
vt 0.567942977 0.225058019
vt 0.727549016 0.215829968
vt 0.483915001 0.230525970
vt 0.597498000 0.260421038
vt 0.486746997 0.271661043
vt 0.597498000 0.260421038
vt 0.483915001 0.230525970
vt 0.567942977 0.225058019
vt 0.390839010 0.231364965
vt 0.486746997 0.271661043
vt 0.390127987 0.275061965
vt 0.486746997 0.271661043
vt 0.390839010 0.231364965
vt 0.483915001 0.230525970
vt 0.597498000 0.260421038
vt 0.714591980 0.309240997
vt 0.617663980 0.307456970
vt 0.714591980 0.309240997
vt 0.597498000 0.260421038
vt 0.710393012 0.265568972
vt 0.486746997 0.271661043
vt 0.617663980 0.307456970
vt 0.488851994 0.310953975
vt 0.617663980 0.307456970
vt 0.486746997 0.271661043
vt 0.597498000 0.260421038
vt 0.390127987 0.275061965
vt 0.488851994 0.310953975
vt 0.389432013 0.318019986
vt 0.488851994 0.310953975
vt 0.390127987 0.275061965
vt 0.486746997 0.271661043
vt 0.740795016 0.154863000
vt 0.727549016 0.215829968
vt 0.727135003 0.147533000
vt 0.727549016 0.215829968
vt 0.740795016 0.154863000
vt 0.758762002 0.221939981
vt 0.710393012 0.265568972
vt 0.758762002 0.221939981
vt 0.741840005 0.272758961
vt 0.758762002 0.221939981
vt 0.710393012 0.265568972
vt 0.727549016 0.215829968
vt 0.714591980 0.309240997
vt 0.741840005 0.272758961
vt 0.719367981 0.317321002
vt 0.741840005 0.272758961
vt 0.714591980 0.309240997
vt 0.710393012 0.265568972
vt 0.617663980 0.307456970
vt 0.719367981 0.317321002
vt 0.618317008 0.341436028
vt 0.719367981 0.317321002
vt 0.617663980 0.307456970
vt 0.714591980 0.309240997
vt 0.488851994 0.310953975
vt 0.618317008 0.341436028
vt 0.488873988 0.338968992
vt 0.618317008 0.341436028
vt 0.488851994 0.310953975
vt 0.617663980 0.307456970
vt 0.389432013 0.318019986
vt 0.488873988 0.338968992
vt 0.388965011 0.346894026
vt 0.488873988 0.338968992
vt 0.389432013 0.318019986
vt 0.488851994 0.310953975
vn -0.139933895 -0.283938927 -0.948576402
vn 0.213964944 0.144334672 -0.966119302
vn -0.397715824 0.130167902 -0.908228187
vn -0.139933895 -0.283938927 -0.948576402
vn 0.035798082 0.260332115 -0.964855268
vn 0.213964944 0.144334672 -0.966119302
vn -0.139933895 -0.283938927 -0.948576402
vn 0.137881302 0.153810472 -0.978432974
vn 0.035798082 0.260332115 -0.964855268
vn -0.139933895 -0.283938927 -0.948576402
vn 0.225828576 -0.275814421 -0.934306085
vn 0.137881302 0.153810472 -0.978432974
vn -0.139933895 -0.283938927 -0.948576402
vn 0.044641278 -0.615131118 -0.787159999
vn 0.225828576 -0.275814421 -0.934306085
vn -0.139933895 -0.283938927 -0.948576402
vn 0.041690470 -0.512995608 -0.857378219
vn 0.044641278 -0.615131118 -0.787159999
vn 0.028431236 0.581643260 -0.812946975
vn -0.397715824 0.130167902 -0.908228187
vn 0.213964944 0.144334672 -0.966119302
vn -0.397715824 0.130167902 -0.908228187
vn 0.028431236 0.581643260 -0.812946975
vn -0.569498998 0.546051818 -0.614408906
vn 0.295900493 0.523185036 -0.799199797
vn 0.213964944 0.144334672 -0.966119302
vn 0.035798082 0.260332115 -0.964855268
vn 0.213964944 0.144334672 -0.966119302
vn 0.295900493 0.523185036 -0.799199797
vn 0.028431236 0.581643260 -0.812946975
vn 0.415348373 0.444149244 -0.793862191
vn 0.035798082 0.260332115 -0.964855268
vn 0.137881302 0.153810472 -0.978432974
vn 0.035798082 0.260332115 -0.964855268
vn 0.415348373 0.444149244 -0.793862191
vn 0.295900493 0.523185036 -0.799199797
vn 0.661733066 -0.067069583 -0.746733567
vn 0.137881302 0.153810472 -0.978432974
vn 0.225828576 -0.275814421 -0.934306085
vn 0.137881302 0.153810472 -0.978432974
vn 0.661733066 -0.067069583 -0.746733567
vn 0.415348373 0.444149244 -0.793862191
vn 0.618018185 -0.608231644 -0.498104196
vn 0.225828576 -0.275814421 -0.934306085
vn 0.044641278 -0.615131118 -0.787159999
vn 0.225828576 -0.275814421 -0.934306085
vn 0.618018185 -0.608231644 -0.498104196
vn 0.661733066 -0.067069583 -0.746733567
vn 0.352146826 -0.795393282 -0.493297212
vn 0.044641278 -0.615131118 -0.787159999
vn 0.041690470 -0.512995608 -0.857378219
vn 0.044641278 -0.615131118 -0.787159999
vn 0.352146826 -0.795393282 -0.493297212
vn 0.618018185 -0.608231644 -0.498104196
vn -0.125566129 0.910837399 -0.393202720
vn -0.569498998 0.546051818 -0.614408906
vn 0.028431236 0.581643260 -0.812946975
vn -0.569498998 0.546051818 -0.614408906
vn -0.125566129 0.910837399 -0.393202720
vn -0.588270916 0.774051348 -0.234055206
vn 0.271266247 0.774020378 -0.572107575
vn 0.028431236 0.581643260 -0.812946975
vn 0.295900493 0.523185036 -0.799199797
vn 0.028431236 0.581643260 -0.812946975
vn 0.271266247 0.774020378 -0.572107575
vn -0.125566129 0.910837399 -0.393202720
vn 0.566608754 0.718945443 -0.402581631
vn 0.295900493 0.523185036 -0.799199797
vn 0.415348373 0.444149244 -0.793862191
vn 0.295900493 0.523185036 -0.799199797
vn 0.566608754 0.718945443 -0.402581631
vn 0.271266247 0.774020378 -0.572107575
vn 0.917958481 0.144462515 -0.369435797
vn 0.415348373 0.444149244 -0.793862191
vn 0.661733066 -0.067069583 -0.746733567
vn 0.415348373 0.444149244 -0.793862191
vn 0.917958481 0.144462515 -0.369435797
vn 0.566608754 0.718945443 -0.402581631
vn 0.828906120 -0.554104666 -0.076698525
vn 0.661733066 -0.067069583 -0.746733567
vn 0.618018185 -0.608231644 -0.498104196
vn 0.661733066 -0.067069583 -0.746733567
vn 0.828906120 -0.554104666 -0.076698525
vn 0.917958481 0.144462515 -0.369435797
vn 0.549662219 -0.835373199 0.004802424
vn 0.618018185 -0.608231644 -0.498104196
vn 0.352146826 -0.795393282 -0.493297212
vn 0.618018185 -0.608231644 -0.498104196
vn 0.549662219 -0.835373199 0.004802424
vn 0.828906120 -0.554104666 -0.076698525
vn -0.009840757 0.963824249 0.266356858
vn -0.588270916 0.774051348 -0.234055206
vn -0.125566129 0.910837399 -0.393202720
vn -0.588270916 0.774051348 -0.234055206
vn -0.009840757 0.963824249 0.266356858
vn -0.445747603 0.840683339 0.307507071
vn -0.395999513 0.905726309 0.151143104
vn -0.125566129 0.910837399 -0.393202720
vn 0.271266247 0.774020378 -0.572107575
vn -0.125566129 0.910837399 -0.393202720
vn -0.395999513 0.905726309 0.151143104
vn -0.009840757 0.963824249 0.266356858
vn 0.352048844 0.933782564 -0.064122807
vn 0.271266247 0.774020378 -0.572107575
vn 0.566608754 0.718945443 -0.402581631
vn 0.271266247 0.774020378 -0.572107575
vn 0.352048844 0.933782564 -0.064122807
vn -0.395999513 0.905726309 0.151143104
vn 0.813929964 0.555360374 -0.170566318
vn 0.566608754 0.718945443 -0.402581631
vn 0.917958481 0.144462515 -0.369435797
vn 0.566608754 0.718945443 -0.402581631
vn 0.813929964 0.555360374 -0.170566318
vn 0.352048844 0.933782564 -0.064122807
vn 0.940114615 -0.337744875 -0.045966403
vn 0.917958481 0.144462515 -0.369435797
vn 0.828906120 -0.554104666 -0.076698525
vn 0.917958481 0.144462515 -0.369435797
vn 0.940114615 -0.337744875 -0.045966403
vn 0.813929964 0.555360374 -0.170566318
vn 0.567069837 -0.819123330 0.086422047
vn 0.828906120 -0.554104666 -0.076698525
vn 0.549662219 -0.835373199 0.004802424
vn 0.828906120 -0.554104666 -0.076698525
vn 0.567069837 -0.819123330 0.086422047
vn 0.940114615 -0.337744875 -0.045966403
vn 0.813929964 0.555360374 -0.170566318
vn 0.234965372 0.896715505 -0.375090093
vn 0.352048844 0.933782564 -0.064122807
vn 0.234965372 0.896715505 -0.375090093
vn 0.813929964 0.555360374 -0.170566318
vn 0.821086986 0.557050175 -0.124544225
vn 0.940114615 -0.337744875 -0.045966403
vn 0.821086986 0.557050175 -0.124544225
vn 0.813929964 0.555360374 -0.170566318
vn 0.821086986 0.557050175 -0.124544225
vn 0.940114615 -0.337744875 -0.045966403
vn 0.966398465 -0.216957963 0.137852273
vn 0.567069837 -0.819123330 0.086422047
vn 0.966398465 -0.216957963 0.137852273
vn 0.940114615 -0.337744875 -0.045966403
vn 0.966398465 -0.216957963 0.137852273
vn 0.567069837 -0.819123330 0.086422047
vn 0.595183080 -0.714528547 0.367703762
vn 0.821086986 0.557050175 -0.124544225
vn 0.158323147 0.987301419 0.013026439
vn 0.234965372 0.896715505 -0.375090093
vn 0.158323147 0.987301419 0.013026439
vn 0.821086986 0.557050175 -0.124544225
vn 0.595903776 0.504920474 0.624462973
vn 0.966398465 -0.216957963 0.137852273
vn 0.595903776 0.504920474 0.624462973
vn 0.821086986 0.557050175 -0.124544225
vn 0.595903776 0.504920474 0.624462973
vn 0.966398465 -0.216957963 0.137852273
vn 0.636052526 0.009372308 0.771588844
vn 0.595183080 -0.714528547 0.367703762
vn 0.636052526 0.009372308 0.771588844
vn 0.966398465 -0.216957963 0.137852273
vn 0.636052526 0.009372308 0.771588844
vn 0.595183080 -0.714528547 0.367703762
vn 0.394631559 -0.124333941 0.910388381
vn -0.929662298 0.101049702 0.354283741
vn 0.352048844 0.933782564 -0.064122807
vn -0.954721790 0.024724357 0.296470927
vn 0.352048844 0.933782564 -0.064122807
vn -0.929662298 0.101049702 0.354283741
vn -0.395999513 0.905726309 0.151143104
vn 0.234965372 0.896715505 -0.375090093
vn -0.954721790 0.024724357 0.296470927
vn 0.352048844 0.933782564 -0.064122807
vn -0.954721790 0.024724357 0.296470927
vn 0.234965372 0.896715505 -0.375090093
vn -0.889105691 0.303974457 -0.342185037
vn 0.158323147 0.987301419 0.013026439
vn -0.889105691 0.303974457 -0.342185037
vn 0.234965372 0.896715505 -0.375090093
vn -0.889105691 0.303974457 -0.342185037
vn 0.158323147 0.987301419 0.013026439
vn -0.098659553 0.575835674 0.811590764
vn 0.595903776 0.504920474 0.624462973
vn -0.098659553 0.575835674 0.811590764
vn 0.158323147 0.987301419 0.013026439
vn -0.098659553 0.575835674 0.811590764
vn 0.595903776 0.504920474 0.624462973
vn 0.112230699 0.302595386 0.946488406
vn 0.636052526 0.009372308 0.771588844
vn 0.112230699 0.302595386 0.946488406
vn 0.595903776 0.504920474 0.624462973
vn 0.112230699 0.302595386 0.946488406
vn 0.636052526 0.009372308 0.771588844
vn 0.151123095 0.237852108 0.959472868
vn 0.394631559 -0.124333941 0.910388381
vn 0.151123095 0.237852108 0.959472868
vn 0.636052526 0.009372308 0.771588844
vn 0.151123095 0.237852108 0.959472868
vn 0.394631559 -0.124333941 0.910388381
vn 0.155311778 0.262478890 0.952356595
vn -0.139933895 -0.283938927 -0.948576402
vn -0.397715824 0.130167902 -0.908228187
vn -0.613726592 -0.398636887 -0.681489767
vn -0.139933895 -0.283938927 -0.948576402
vn -0.613726592 -0.398636887 -0.681489767
vn -0.659507671 -0.195793421 -0.725751037
vn -0.139933895 -0.283938927 -0.948576402
vn -0.659507671 -0.195793421 -0.725751037
vn -0.605046026 -0.333555159 -0.722952462
vn -0.139933895 -0.283938927 -0.948576402
vn -0.605046026 -0.333555159 -0.722952462
vn -0.247094811 -0.586055539 -0.771675488
vn -0.139933895 -0.283938927 -0.948576402
vn -0.247094811 -0.586055539 -0.771675488
vn 0.158547557 -0.540407786 -0.826330501
vn -0.139933895 -0.283938927 -0.948576402
vn 0.158547557 -0.540407786 -0.826330501
vn 0.041690470 -0.512995608 -0.857378219
vn -0.862117529 -0.002563076 -0.506701882
vn -0.397715824 0.130167902 -0.908228187
vn -0.569498998 0.546051818 -0.614408906
vn -0.397715824 0.130167902 -0.908228187
vn -0.862117529 -0.002563076 -0.506701882
vn -0.613726592 -0.398636887 -0.681489767
vn -0.884448912 -0.251132595 -0.393297014
vn -0.613726592 -0.398636887 -0.681489767
vn -0.862117529 -0.002563076 -0.506701882
vn -0.613726592 -0.398636887 -0.681489767
vn -0.884448912 -0.251132595 -0.393297014
vn -0.659507671 -0.195793421 -0.725751037
vn -0.849934865 -0.385885593 -0.358752051
vn -0.659507671 -0.195793421 -0.725751037
vn -0.884448912 -0.251132595 -0.393297014
vn -0.659507671 -0.195793421 -0.725751037
vn -0.849934865 -0.385885593 -0.358752051
vn -0.605046026 -0.333555159 -0.722952462
vn -0.467704669 -0.807988798 -0.358338451
vn -0.605046026 -0.333555159 -0.722952462
vn -0.849934865 -0.385885593 -0.358752051
vn -0.605046026 -0.333555159 -0.722952462
vn -0.467704669 -0.807988798 -0.358338451
vn -0.247094811 -0.586055539 -0.771675488
vn 0.113945541 -0.938906884 -0.324761878
vn -0.247094811 -0.586055539 -0.771675488
vn -0.467704669 -0.807988798 -0.358338451
vn -0.247094811 -0.586055539 -0.771675488
vn 0.113945541 -0.938906884 -0.324761878
vn 0.158547557 -0.540407786 -0.826330501
vn 0.352146826 -0.795393282 -0.493297212
vn 0.158547557 -0.540407786 -0.826330501
vn 0.113945541 -0.938906884 -0.324761878
vn 0.158547557 -0.540407786 -0.826330501
vn 0.352146826 -0.795393282 -0.493297212
vn 0.041690470 -0.512995608 -0.857378219
vn -0.909713295 0.396431287 -0.123547385
vn -0.569498998 0.546051818 -0.614408906
vn -0.588270916 0.774051348 -0.234055206
vn -0.569498998 0.546051818 -0.614408906
vn -0.909713295 0.396431287 -0.123547385
vn -0.862117529 -0.002563076 -0.506701882
vn -0.988925842 -0.052674613 -0.138748201
vn -0.862117529 -0.002563076 -0.506701882
vn -0.909713295 0.396431287 -0.123547385
vn -0.862117529 -0.002563076 -0.506701882
vn -0.988925842 -0.052674613 -0.138748201
vn -0.884448912 -0.251132595 -0.393297014
vn -0.953063639 -0.277970492 0.120008774
vn -0.884448912 -0.251132595 -0.393297014
vn -0.988925842 -0.052674613 -0.138748201
vn -0.884448912 -0.251132595 -0.393297014
vn -0.953063639 -0.277970492 0.120008774
vn -0.849934865 -0.385885593 -0.358752051
vn -0.554040593 -0.821179381 0.136760541
vn -0.849934865 -0.385885593 -0.358752051
vn -0.953063639 -0.277970492 0.120008774
vn -0.849934865 -0.385885593 -0.358752051
vn -0.554040593 -0.821179381 0.136760541
vn -0.467704669 -0.807988798 -0.358338451
vn 0.193771812 -0.970757282 0.141713741
vn -0.467704669 -0.807988798 -0.358338451
vn -0.554040593 -0.821179381 0.136760541
vn -0.467704669 -0.807988798 -0.358338451
vn 0.193771812 -0.970757282 0.141713741
vn 0.113945541 -0.938906884 -0.324761878
vn 0.549662219 -0.835373199 0.004802424
vn 0.113945541 -0.938906884 -0.324761878
vn 0.193771812 -0.970757282 0.141713741
vn 0.113945541 -0.938906884 -0.324761878
vn 0.549662219 -0.835373199 0.004802424
vn 0.352146826 -0.795393282 -0.493297212
vn -0.695413038 0.514083955 0.502113925
vn -0.588270916 0.774051348 -0.234055206
vn -0.445747603 0.840683339 0.307507071
vn -0.588270916 0.774051348 -0.234055206
vn -0.695413038 0.514083955 0.502113925
vn -0.909713295 0.396431287 -0.123547385
vn -0.584799234 0.781872352 0.216068232
vn -0.909713295 0.396431287 -0.123547385
vn -0.695413038 0.514083955 0.502113925
vn -0.909713295 0.396431287 -0.123547385
vn -0.584799234 0.781872352 0.216068232
vn -0.988925842 -0.052674613 -0.138748201
vn -0.922220596 0.097852730 0.374077553
vn -0.988925842 -0.052674613 -0.138748201
vn -0.584799234 0.781872352 0.216068232
vn -0.988925842 -0.052674613 -0.138748201
vn -0.922220596 0.097852730 0.374077553
vn -0.953063639 -0.277970492 0.120008774
vn -0.783518386 -0.492577152 0.378769967
vn -0.953063639 -0.277970492 0.120008774
vn -0.922220596 0.097852730 0.374077553
vn -0.953063639 -0.277970492 0.120008774
vn -0.783518386 -0.492577152 0.378769967
vn -0.554040593 -0.821179381 0.136760541
vn -0.008300825 -0.959912146 0.280178101
vn -0.554040593 -0.821179381 0.136760541
vn -0.783518386 -0.492577152 0.378769967
vn -0.554040593 -0.821179381 0.136760541
vn -0.008300825 -0.959912146 0.280178101
vn 0.193771812 -0.970757282 0.141713741
vn 0.567069837 -0.819123330 0.086422047
vn 0.193771812 -0.970757282 0.141713741
vn -0.008300825 -0.959912146 0.280178101
vn 0.193771812 -0.970757282 0.141713741
vn 0.567069837 -0.819123330 0.086422047
vn 0.549662219 -0.835373199 0.004802424
vn -0.783518386 -0.492577152 0.378769967
vn -0.994795286 0.089983756 0.047804415
vn -0.766596812 -0.484481735 0.421434189
vn -0.994795286 0.089983756 0.047804415
vn -0.783518386 -0.492577152 0.378769967
vn -0.922220596 0.097852730 0.374077553
vn -0.008300825 -0.959912146 0.280178101
vn -0.766596812 -0.484481735 0.421434189
vn -0.036658151 -0.874970238 0.482786974
vn -0.766596812 -0.484481735 0.421434189
vn -0.008300825 -0.959912146 0.280178101
vn -0.783518386 -0.492577152 0.378769967
vn 0.567069837 -0.819123330 0.086422047
vn -0.036658151 -0.874970238 0.482786974
vn 0.595183080 -0.714528547 0.367703762
vn -0.036658151 -0.874970238 0.482786974
vn 0.567069837 -0.819123330 0.086422047
vn -0.008300825 -0.959912146 0.280178101
vn -0.766596812 -0.484481735 0.421434189
vn -0.876830760 0.308233088 0.368998890
vn -0.324142779 -0.098636637 0.940851887
vn -0.876830760 0.308233088 0.368998890
vn -0.766596812 -0.484481735 0.421434189
vn -0.994795286 0.089983756 0.047804415
vn -0.036658151 -0.874970238 0.482786974
vn -0.324142779 -0.098636637 0.940851887
vn 0.149337053 -0.309916514 0.938962299
vn -0.324142779 -0.098636637 0.940851887
vn -0.036658151 -0.874970238 0.482786974
vn -0.766596812 -0.484481735 0.421434189
vn 0.595183080 -0.714528547 0.367703762
vn 0.149337053 -0.309916514 0.938962299
vn 0.394631559 -0.124333941 0.910388381
vn 0.149337053 -0.309916514 0.938962299
vn 0.595183080 -0.714528547 0.367703762
vn -0.036658151 -0.874970238 0.482786974
vn 0.342718598 0.935740637 -0.083267180
vn -0.922220596 0.097852730 0.374077553
vn -0.584799234 0.781872352 0.216068232
vn -0.922220596 0.097852730 0.374077553
vn 0.342718598 0.935740637 -0.083267180
vn 0.389011989 0.906223293 -0.165617077
vn -0.994795286 0.089983756 0.047804415
vn 0.389011989 0.906223293 -0.165617077
vn -0.150342919 0.788608088 -0.596233420
vn 0.389011989 0.906223293 -0.165617077
vn -0.994795286 0.089983756 0.047804415
vn -0.922220596 0.097852730 0.374077553
vn -0.876830760 0.308233088 0.368998890
vn -0.150342919 0.788608088 -0.596233420
vn -0.098659553 0.575835674 0.811590764
vn -0.150342919 0.788608088 -0.596233420
vn -0.876830760 0.308233088 0.368998890
vn -0.994795286 0.089983756 0.047804415
vn -0.324142779 -0.098636637 0.940851887
vn -0.098659553 0.575835674 0.811590764
vn 0.131275497 0.315088910 0.939939212
vn -0.098659553 0.575835674 0.811590764
vn -0.324142779 -0.098636637 0.940851887
vn -0.876830760 0.308233088 0.368998890
vn 0.149337053 -0.309916514 0.938962299
vn 0.131275497 0.315088910 0.939939212
vn 0.180557652 0.257161387 0.949350807
vn 0.131275497 0.315088910 0.939939212
vn 0.149337053 -0.309916514 0.938962299
vn -0.324142779 -0.098636637 0.940851887
vn 0.394631559 -0.124333941 0.910388381
vn 0.180557652 0.257161387 0.949350807
vn 0.155311778 0.262478890 0.952356595
vn 0.180557652 0.257161387 0.949350807
vn 0.394631559 -0.124333941 0.910388381
vn 0.149337053 -0.309916514 0.938962299
f 3/3/3 2/2/2 1/1/1
f 6/6/6 5/5/5 4/4/4
f 9/9/9 8/8/8 7/7/7
f 12/12/12 11/11/11 10/10/10
f 15/15/15 14/14/14 13/13/13
f 18/18/18 17/17/17 16/16/16
f 21/21/21 20/20/20 19/19/19
f 24/24/24 23/23/23 22/22/22
f 27/27/27 26/26/26 25/25/25
f 30/30/30 29/29/29 28/28/28
f 33/33/33 32/32/32 31/31/31
f 36/36/36 35/35/35 34/34/34
f 39/39/39 38/38/38 37/37/37
f 42/42/42 41/41/41 40/40/40
f 45/45/45 44/44/44 43/43/43
f 48/48/48 47/47/47 46/46/46
f 51/51/51 50/50/50 49/49/49
f 54/54/54 53/53/53 52/52/52
f 57/57/57 56/56/56 55/55/55
f 60/60/60 59/59/59 58/58/58
f 63/63/63 62/62/62 61/61/61
f 66/66/66 65/65/65 64/64/64
f 69/69/69 68/68/68 67/67/67
f 72/72/72 71/71/71 70/70/70
f 75/75/75 74/74/74 73/73/73
f 78/78/78 77/77/77 76/76/76
f 81/81/81 80/80/80 79/79/79
f 84/84/84 83/83/83 82/82/82
f 87/87/87 86/86/86 85/85/85
f 90/90/90 89/89/89 88/88/88
f 93/93/93 92/92/92 91/91/91
f 96/96/96 95/95/95 94/94/94
f 99/99/99 98/98/98 97/97/97
f 102/102/102 101/101/101 100/100/100
f 105/105/105 104/104/104 103/103/103
f 108/108/108 107/107/107 106/106/106
f 111/111/111 110/110/110 109/109/109
f 114/114/114 113/113/113 112/112/112
f 117/117/117 116/116/116 115/115/115
f 120/120/120 119/119/119 118/118/118
f 123/123/123 122/122/122 121/121/121
f 126/126/126 125/125/125 124/124/124
f 129/129/129 128/128/128 127/127/127
f 132/132/132 131/131/131 130/130/130
f 135/135/135 134/134/134 133/133/133
f 138/138/138 137/137/137 136/136/136
f 141/141/141 140/140/140 139/139/139
f 144/144/144 143/143/143 142/142/142
f 147/147/147 146/146/146 145/145/145
f 150/150/150 149/149/149 148/148/148
f 153/153/153 152/152/152 151/151/151
f 156/156/156 155/155/155 154/154/154
f 159/159/159 158/158/158 157/157/157
f 162/162/162 161/161/161 160/160/160
f 165/165/165 164/164/164 163/163/163
f 168/168/168 167/167/167 166/166/166
f 171/171/171 170/170/170 169/169/169
f 174/174/174 173/173/173 172/172/172
f 177/177/177 176/176/176 175/175/175
f 180/180/180 179/179/179 178/178/178
f 183/183/183 182/182/182 181/181/181
f 186/186/186 185/185/185 184/184/184
f 189/189/189 188/188/188 187/187/187
f 192/192/192 191/191/191 190/190/190
f 195/195/195 194/194/194 193/193/193
f 198/198/198 197/197/197 196/196/196
f 201/201/201 200/200/200 199/199/199
f 204/204/204 203/203/203 202/202/202
f 207/207/207 206/206/206 205/205/205
f 210/210/210 209/209/209 208/208/208
f 213/213/213 212/212/212 211/211/211
f 216/216/216 215/215/215 214/214/214
f 219/219/219 218/218/218 217/217/217
f 222/222/222 221/221/221 220/220/220
f 225/225/225 224/224/224 223/223/223
f 228/228/228 227/227/227 226/226/226
f 231/231/231 230/230/230 229/229/229
f 234/234/234 233/233/233 232/232/232
f 237/237/237 236/236/236 235/235/235
f 240/240/240 239/239/239 238/238/238
f 243/243/243 242/242/242 241/241/241
f 246/246/246 245/245/245 244/244/244
f 249/249/249 248/248/248 247/247/247
f 252/252/252 251/251/251 250/250/250
f 255/255/255 254/254/254 253/253/253
f 258/258/258 257/257/257 256/256/256
f 261/261/261 260/260/260 259/259/259
f 264/264/264 263/263/263 262/262/262
f 267/267/267 266/266/266 265/265/265
f 270/270/270 269/269/269 268/268/268
f 273/273/273 272/272/272 271/271/271
f 276/276/276 275/275/275 274/274/274
f 279/279/279 278/278/278 277/277/277
f 282/282/282 281/281/281 280/280/280
f 285/285/285 284/284/284 283/283/283
f 288/288/288 287/287/287 286/286/286
f 291/291/291 290/290/290 289/289/289
f 294/294/294 293/293/293 292/292/292
f 297/297/297 296/296/296 295/295/295
f 300/300/300 299/299/299 298/298/298
f 303/303/303 302/302/302 301/301/301
f 306/306/306 305/305/305 304/304/304
f 309/309/309 308/308/308 307/307/307
f 312/312/312 311/311/311 310/310/310
f 315/315/315 314/314/314 313/313/313
f 318/318/318 317/317/317 316/316/316
f 321/321/321 320/320/320 319/319/319
f 324/324/324 323/323/323 322/322/322
f 327/327/327 326/326/326 325/325/325
f 330/330/330 329/329/329 328/328/328
f 333/333/333 332/332/332 331/331/331
f 336/336/336 335/335/335 334/334/334
f 339/339/339 338/338/338 337/337/337
f 342/342/342 341/341/341 340/340/340
f 345/345/345 344/344/344 343/343/343
f 348/348/348 347/347/347 346/346/346
f 351/351/351 350/350/350 349/349/349
f 354/354/354 353/353/353 352/352/352
f 357/357/357 356/356/356 355/355/355
f 360/360/360 359/359/359 358/358/358
f 363/363/363 362/362/362 361/361/361
f 366/366/366 365/365/365 364/364/364
f 369/369/369 368/368/368 367/367/367
f 372/372/372 371/371/371 370/370/370
f 375/375/375 374/374/374 373/373/373
f 378/378/378 377/377/377 376/376/376
f 381/381/381 380/380/380 379/379/379
f 384/384/384 383/383/383 382/382/382
f 387/387/387 386/386/386 385/385/385
f 390/390/390 389/389/389 388/388/388
f 393/393/393 392/392/392 391/391/391
f 396/396/396 395/395/395 394/394/394
