# Static pose baked from local Project Zomboid assets
o Kate_Hair_PonyTail
v -0.092333546 0.081131956 -0.445368113
v -0.111691353 0.061834267 -0.448934278
v -0.066393827 0.055898171 -0.449657913
v -0.111691353 0.061834267 -0.448934278
v -0.092333546 0.081131956 -0.445368113
v -0.111694495 0.061839633 -0.448933179
v -0.037138703 0.048015710 -0.430990205
v -0.044703546 0.082746180 -0.405501969
v -0.068745467 0.086402892 -0.441222629
v -0.044703546 0.082746180 -0.405501969
v -0.037138703 0.048015710 -0.430990205
v -0.032507487 0.056563302 -0.413893540
v -0.050276629 0.001173326 -0.386062089
v -0.037787228 0.025538151 -0.418662265
v -0.057403334 0.000269004 -0.408511394
v -0.037787228 0.025538151 -0.418662265
v -0.050276629 0.001173326 -0.386062089
v -0.030587893 0.029090205 -0.397652761
v -0.066393827 0.055898171 -0.449657913
v -0.037138703 0.048015710 -0.430990205
v -0.068745467 0.086402892 -0.441222629
v -0.037138703 0.048015710 -0.430990205
v -0.066393827 0.055898171 -0.449657913
v -0.049868639 0.034802286 -0.440203817
v -0.037787228 0.025538151 -0.418662265
v -0.072458908 0.009692861 -0.434315058
v -0.057403334 0.000269004 -0.408511394
v -0.072458908 0.009692861 -0.434315058
v -0.037787228 0.025538151 -0.418662265
v -0.049868639 0.034802286 -0.440203817
v -0.068745467 0.086402892 -0.441222629
v -0.092333546 0.081131956 -0.445368113
v -0.066393827 0.055898171 -0.449657913
v -0.026670309 0.052168412 -0.388197307
v -0.030587893 0.029090205 -0.397652761
v -0.030205698 0.031551302 -0.369388507
v -0.030587893 0.029090205 -0.397652761
v -0.026670309 0.052168412 -0.388197307
v -0.032507487 0.056563302 -0.413893540
v -0.049868639 0.034802286 -0.440203817
v -0.037787228 0.025538151 -0.418662265
v -0.037138703 0.048015710 -0.430990205
v -0.095641199 0.094022814 -0.439152856
v -0.118509358 0.075730129 -0.442252425
v -0.092333546 0.081131956 -0.445368113
v -0.118509358 0.075730129 -0.442252425
v -0.095641199 0.094022814 -0.439152856
v -0.121649727 0.086261758 -0.431293904
v -0.066393827 0.055898171 -0.449657913
v -0.111691353 0.061834267 -0.448934278
v -0.094216473 0.035019939 -0.449270177
v -0.047740347 0.011210217 -0.359539877
v -0.037707423 0.034390709 -0.350293973
v -0.030205698 0.031551302 -0.369388507
v -0.037707423 0.034390709 -0.350293973
v -0.047740347 0.011210217 -0.359539877
v -0.049801895 0.022654093 -0.343703949
v -0.030205698 0.031551302 -0.369388507
v -0.031163912 0.053066914 -0.360866091
v -0.026670309 0.052168412 -0.388197307
v -0.031163912 0.053066914 -0.360866091
v -0.030205698 0.031551302 -0.369388507
v -0.037707423 0.034390709 -0.350293973
v -0.034836140 0.071129486 -0.402095041
v -0.041524455 0.072307880 -0.373258732
v -0.046199174 0.078495246 -0.399313053
v -0.041524455 0.072307880 -0.373258732
v -0.034836140 0.071129486 -0.402095041
v -0.028292812 0.063323392 -0.370057998
v -0.026670309 0.052168412 -0.388197307
v -0.028292812 0.063323392 -0.370057998
v -0.034836140 0.071129486 -0.402095041
v -0.028292812 0.063323392 -0.370057998
v -0.026670309 0.052168412 -0.388197307
v -0.031163912 0.053066914 -0.360866091
v -0.049801895 0.022654093 -0.343703949
v -0.049146690 0.033141962 -0.332827579
v -0.037707423 0.034390709 -0.350293973
v -0.049146690 0.033141962 -0.332827579
v -0.049801895 0.022654093 -0.343703949
v -0.051470631 0.026094078 -0.330753355
v -0.037707423 0.034390709 -0.350293973
v -0.049146690 0.033141962 -0.332827579
v -0.031163912 0.053066914 -0.360866091
v -0.028292812 0.063323392 -0.370057998
v -0.052583163 0.038368657 -0.332736584
v -0.041524455 0.072307880 -0.373258732
v -0.052583163 0.038368657 -0.332736584
v -0.028292812 0.063323392 -0.370057998
v -0.049146690 0.033141962 -0.332827579
v -0.031163912 0.053066914 -0.360866091
v -0.049146690 0.033141962 -0.332827579
v -0.028292812 0.063323392 -0.370057998
v -0.044703546 0.082746180 -0.405501969
v -0.068515497 0.093001336 -0.430336687
v -0.068745467 0.086402892 -0.441222629
v -0.068515497 0.093001336 -0.430336687
v -0.044703546 0.082746180 -0.405501969
v -0.053025925 0.092120272 -0.387864585
v -0.095641199 0.094022814 -0.439152856
v -0.068745467 0.086402892 -0.441222629
v -0.068515497 0.093001336 -0.430336687
v -0.068745467 0.086402892 -0.441222629
v -0.095641199 0.094022814 -0.439152856
v -0.092333546 0.081131956 -0.445368113
v -0.030205698 0.031551302 -0.369388507
v -0.050276629 0.001173326 -0.386062089
v -0.047740347 0.011210217 -0.359539877
v -0.050276629 0.001173326 -0.386062089
v -0.030205698 0.031551302 -0.369388507
v -0.030587893 0.029090205 -0.397652761
v -0.037787228 0.025538151 -0.418662265
v -0.032507487 0.056563302 -0.413893540
v -0.037138703 0.048015710 -0.430990205
v -0.032507487 0.056563302 -0.413893540
v -0.037787228 0.025538151 -0.418662265
v -0.030587893 0.029090205 -0.397652761
v -0.034836140 0.071129486 -0.402095041
v -0.032507487 0.056563302 -0.413893540
v -0.026670309 0.052168412 -0.388197307
v -0.032507487 0.056563302 -0.413893540
v -0.034836140 0.071129486 -0.402095041
v -0.044703546 0.082746180 -0.405501969
v -0.046199174 0.078495246 -0.399313053
v -0.044703546 0.082746180 -0.405501969
v -0.034836140 0.071129486 -0.402095041
v -0.044703546 0.082746180 -0.405501969
v -0.046199174 0.078495246 -0.399313053
v -0.053025925 0.092120272 -0.387864585
v -0.068515497 0.093001336 -0.430336687
v -0.086974461 0.086536672 -0.425267450
v -0.095641199 0.094022814 -0.439152856
v -0.086974461 0.086536672 -0.425267450
v -0.068515497 0.093001336 -0.430336687
v -0.066217874 0.083576705 -0.412810785
v -0.095641199 0.094022814 -0.439152856
v -0.113211747 0.079505540 -0.419645042
v -0.121649727 0.086261758 -0.431293904
v -0.113211747 0.079505540 -0.419645042
v -0.095641199 0.094022814 -0.439152856
v -0.086974461 0.086536672 -0.425267450
v -0.041524455 0.072307880 -0.373258732
v -0.046921270 0.075811600 -0.391518131
v -0.046199174 0.078495246 -0.399313053
v -0.046921270 0.075811600 -0.391518131
v -0.041524455 0.072307880 -0.373258732
v -0.044220623 0.069082677 -0.369078262
v -0.052583163 0.038368657 -0.332736584
v -0.044220623 0.069082677 -0.369078262
v -0.041524455 0.072307880 -0.373258732
v -0.053025925 0.092120272 -0.387864585
v -0.066217874 0.083576705 -0.412810785
v -0.068515497 0.093001336 -0.430336687
v -0.066217874 0.083576705 -0.412810785
v -0.053025925 0.092120272 -0.387864585
v -0.055167494 0.082971573 -0.391836943
v -0.046199174 0.078495246 -0.399313053
v -0.055167494 0.082971573 -0.391836943
v -0.053025925 0.092120272 -0.387864585
v -0.055167494 0.082971573 -0.391836943
v -0.046199174 0.078495246 -0.399313053
v -0.046921270 0.075811600 -0.391518131
v -0.066217874 0.083576705 -0.412810785
v -0.072517108 0.077749197 -0.390273065
v -0.086974461 0.086536672 -0.425267450
v -0.072517108 0.077749197 -0.390273065
v -0.066217874 0.083576705 -0.412810785
v -0.066640623 0.072238042 -0.386690494
v -0.086974461 0.086536672 -0.425267450
v -0.094967179 0.069928745 -0.384859661
v -0.113211747 0.079505540 -0.419645042
v -0.094967179 0.069928745 -0.384859661
v -0.086974461 0.086536672 -0.425267450
v -0.072517108 0.077749197 -0.390273065
v -0.044220623 0.069082677 -0.369078262
v -0.057939207 0.065308072 -0.374017172
v -0.046921270 0.075811600 -0.391518131
v -0.057939207 0.065308072 -0.374017172
v -0.044220623 0.069082677 -0.369078262
v -0.054562161 0.060602740 -0.358947656
v -0.052583163 0.038368657 -0.332736584
v -0.054562161 0.060602740 -0.358947656
v -0.044220623 0.069082677 -0.369078262
v -0.054562161 0.060602740 -0.358947656
v -0.052583163 0.038368657 -0.332736584
v -0.057875743 0.037053748 -0.331185379
v -0.055167494 0.082971573 -0.391836943
v -0.066640623 0.072238042 -0.386690494
v -0.066217874 0.083576705 -0.412810785
v -0.066640623 0.072238042 -0.386690494
v -0.055167494 0.082971573 -0.391836943
v -0.061268470 0.069135824 -0.379863317
v -0.046921270 0.075811600 -0.391518131
v -0.061268470 0.069135824 -0.379863317
v -0.055167494 0.082971573 -0.391836943
v -0.061268470 0.069135824 -0.379863317
v -0.046921270 0.075811600 -0.391518131
v -0.057939207 0.065308072 -0.374017172
v -0.094216473 0.035019939 -0.449270177
v -0.049868639 0.034802286 -0.440203817
v -0.066393827 0.055898171 -0.449657913
v -0.049868639 0.034802286 -0.440203817
v -0.094216473 0.035019939 -0.449270177
v -0.072458908 0.009692861 -0.434315058
v -0.118509358 0.075730129 -0.442252425
v -0.111694495 0.061839633 -0.448933179
v -0.092333546 0.081131956 -0.445368113
v -0.132098800 0.055045668 -0.431693496
v -0.111691353 0.061834267 -0.448934278
v -0.111694495 0.061839633 -0.448933179
v -0.111691353 0.061834267 -0.448934278
v -0.132098800 0.055045668 -0.431693496
v -0.120187211 0.020609330 -0.431159252
v -0.113744975 -0.002238548 -0.404646566
v -0.129644571 0.027024265 -0.376292146
v -0.114744461 0.002615264 -0.385613595
v -0.129644571 0.027024265 -0.376292146
v -0.113744975 -0.002238548 -0.404646566
v -0.141499139 0.038692823 -0.416098267
v -0.050276629 0.001173326 -0.386062089
v -0.089053592 -0.008060948 -0.401041424
v -0.085568973 -0.006977773 -0.378745671
v -0.089053592 -0.008060948 -0.401041424
v -0.050276629 0.001173326 -0.386062089
v -0.057403334 0.000269004 -0.408511394
v -0.120187211 0.020609330 -0.431159252
v -0.113744975 -0.002238548 -0.404646566
v -0.102932368 -0.000007897 -0.421956072
v -0.113744975 -0.002238548 -0.404646566
v -0.120187211 0.020609330 -0.431159252
v -0.141499139 0.038692823 -0.416098267
v -0.089053592 -0.008060948 -0.401041424
v -0.072458908 0.009692861 -0.434315058
v -0.102932368 -0.000007897 -0.421956072
v -0.072458908 0.009692861 -0.434315058
v -0.089053592 -0.008060948 -0.401041424
v -0.057403334 0.000269004 -0.408511394
v -0.141499139 0.038692823 -0.416098267
v -0.120187211 0.020609330 -0.431159252
v -0.132098800 0.055045668 -0.431693496
v -0.101310215 0.003204104 -0.362529869
v -0.085568973 -0.006977773 -0.378745671
v -0.114744461 0.002615264 -0.385613595
v -0.085568973 -0.006977773 -0.378745671
v -0.101310215 0.003204104 -0.362529869
v -0.074458155 0.002521376 -0.354170813
v -0.102932368 -0.000007897 -0.421956072
v -0.113744975 -0.002238548 -0.404646566
v -0.089053592 -0.008060948 -0.401041424
v -0.139296594 0.065384565 -0.424140482
v -0.118509358 0.075730129 -0.442252425
v -0.121649727 0.086261758 -0.431293904
v -0.118509358 0.075730129 -0.442252425
v -0.139296594 0.065384565 -0.424140482
v -0.132098800 0.055045668 -0.431693496
v -0.120187211 0.020609330 -0.431159252
v -0.094216473 0.035019939 -0.449270177
v -0.111691353 0.061834267 -0.448934278
v -0.047740347 0.011210217 -0.359539877
v -0.067890314 0.018081944 -0.340876843
v -0.049801895 0.022654093 -0.343703949
v -0.067890314 0.018081944 -0.340876843
v -0.047740347 0.011210217 -0.359539877
v -0.074458155 0.002521376 -0.354170813
v -0.074458155 0.002521376 -0.354170813
v -0.088622433 0.015373717 -0.341107049
v -0.067890314 0.018081944 -0.340876843
v -0.088622433 0.015373717 -0.341107049
v -0.074458155 0.002521376 -0.354170813
v -0.101310215 0.003204104 -0.362529869
v -0.121165757 0.014496644 -0.372407704
v -0.107407732 0.029087983 -0.350602556
v -0.102231194 0.014819289 -0.344631803
v -0.107407732 0.029087983 -0.350602556
v -0.121165757 0.014496644 -0.372407704
v -0.122858483 0.028206195 -0.372951176
v -0.101310215 0.003204104 -0.362529869
v -0.102231194 0.014819289 -0.344631803
v -0.088622433 0.015373717 -0.341107049
v -0.102231194 0.014819289 -0.344631803
v -0.101310215 0.003204104 -0.362529869
v -0.121165757 0.014496644 -0.372407704
v -0.049801895 0.022654093 -0.343703949
v -0.058895806 0.027543317 -0.329446548
v -0.051470631 0.026094078 -0.330753355
v -0.058895806 0.027543317 -0.329446548
v -0.049801895 0.022654093 -0.343703949
v -0.067890314 0.018081944 -0.340876843
v -0.067890314 0.018081944 -0.340876843
v -0.088622433 0.015373717 -0.341107049
v -0.058895806 0.027543317 -0.329446548
v -0.102231194 0.014819289 -0.344631803
v -0.061555188 0.033216452 -0.329625435
v -0.058895806 0.027543317 -0.329446548
v -0.061555188 0.033216452 -0.329625435
v -0.102231194 0.014819289 -0.344631803
v -0.107407732 0.029087983 -0.350602556
v -0.088622433 0.015373717 -0.341107049
v -0.102231194 0.014819289 -0.344631803
v -0.058895806 0.027543317 -0.329446548
v -0.142421734 0.044518320 -0.404921546
v -0.129644571 0.027024265 -0.376292146
v -0.141499139 0.038692823 -0.416098267
v -0.129644571 0.027024265 -0.376292146
v -0.142421734 0.044518320 -0.404921546
v -0.127327527 0.043377894 -0.362313485
v -0.139296594 0.065384565 -0.424140482
v -0.142421734 0.044518320 -0.404921546
v -0.141499139 0.038692823 -0.416098267
v -0.141499139 0.038692823 -0.416098267
v -0.132098800 0.055045668 -0.431693496
v -0.139296594 0.065384565 -0.424140482
v -0.074458155 0.002521376 -0.354170813
v -0.050276629 0.001173326 -0.386062089
v -0.085568973 -0.006977773 -0.378745671
v -0.050276629 0.001173326 -0.386062089
v -0.074458155 0.002521376 -0.354170813
v -0.047740347 0.011210217 -0.359539877
v -0.089053592 -0.008060948 -0.401041424
v -0.114744461 0.002615264 -0.385613595
v -0.085568973 -0.006977773 -0.378745671
v -0.114744461 0.002615264 -0.385613595
v -0.089053592 -0.008060948 -0.401041424
v -0.113744975 -0.002238548 -0.404646566
v -0.121165757 0.014496644 -0.372407704
v -0.114744461 0.002615264 -0.385613595
v -0.129644571 0.027024265 -0.376292146
v -0.114744461 0.002615264 -0.385613595
v -0.121165757 0.014496644 -0.372407704
v -0.101310215 0.003204104 -0.362529869
v -0.122858483 0.028206195 -0.372951176
v -0.129644571 0.027024265 -0.376292146
v -0.127327527 0.043377894 -0.362313485
v -0.129644571 0.027024265 -0.376292146
v -0.122858483 0.028206195 -0.372951176
v -0.121165757 0.014496644 -0.372407704
v -0.142421734 0.044518320 -0.404921546
v -0.129312784 0.058762432 -0.410707996
v -0.127323049 0.043491276 -0.391797718
v -0.129312784 0.058762432 -0.410707996
v -0.142421734 0.044518320 -0.404921546
v -0.139296594 0.065384565 -0.424140482
v -0.139296594 0.065384565 -0.424140482
v -0.113211747 0.079505540 -0.419645042
v -0.129312784 0.058762432 -0.410707996
v -0.113211747 0.079505540 -0.419645042
v -0.139296594 0.065384565 -0.424140482
v -0.121649727 0.086261758 -0.431293904
v -0.107407732 0.029087983 -0.350602556
v -0.116912458 0.029896884 -0.367449311
v -0.102033523 0.031157004 -0.349197355
v -0.116912458 0.029896884 -0.367449311
v -0.107407732 0.029087983 -0.350602556
v -0.122858483 0.028206195 -0.372951176
v -0.061555188 0.033216452 -0.329625435
v -0.107407732 0.029087983 -0.350602556
v -0.102033523 0.031157004 -0.349197355
v -0.127327527 0.043377894 -0.362313485
v -0.127323049 0.043491276 -0.391797718
v -0.120716481 0.039970973 -0.369295723
v -0.127323049 0.043491276 -0.391797718
v -0.127327527 0.043377894 -0.362313485
v -0.142421734 0.044518320 -0.404921546
v -0.122858483 0.028206195 -0.372951176
v -0.120716481 0.039970973 -0.369295723
v -0.116912458 0.029896884 -0.367449311
v -0.120716481 0.039970973 -0.369295723
v -0.122858483 0.028206195 -0.372951176
v -0.127327527 0.043377894 -0.362313485
v -0.127323049 0.043491276 -0.391797718
v -0.110540197 0.052805782 -0.377197549
v -0.105992835 0.046422712 -0.373157915
v -0.110540197 0.052805782 -0.377197549
v -0.127323049 0.043491276 -0.391797718
v -0.129312784 0.058762432 -0.410707996
v -0.129312784 0.058762432 -0.410707996
v -0.094967179 0.069928745 -0.384859661
v -0.110540197 0.052805782 -0.377197549
v -0.094967179 0.069928745 -0.384859661
v -0.129312784 0.058762432 -0.410707996
v -0.113211747 0.079505540 -0.419645042
v -0.102033523 0.031157004 -0.349197355
v -0.097029451 0.039664594 -0.360574679
v -0.087334646 0.039103757 -0.347677736
v -0.097029451 0.039664594 -0.360574679
v -0.102033523 0.031157004 -0.349197355
v -0.116912458 0.029896884 -0.367449311
v -0.061555188 0.033216452 -0.329625435
v -0.087334646 0.039103757 -0.347677736
v -0.057875743 0.037053748 -0.331185379
v -0.087334646 0.039103757 -0.347677736
v -0.061555188 0.033216452 -0.329625435
v -0.102033523 0.031157004 -0.349197355
v -0.120716481 0.039970973 -0.369295723
v -0.105992835 0.046422712 -0.373157915
v -0.101898379 0.042482315 -0.365891359
v -0.105992835 0.046422712 -0.373157915
v -0.120716481 0.039970973 -0.369295723
v -0.127323049 0.043491276 -0.391797718
v -0.116912458 0.029896884 -0.367449311
v -0.101898379 0.042482315 -0.365891359
v -0.097029451 0.039664594 -0.360574679
v -0.101898379 0.042482315 -0.365891359
v -0.116912458 0.029896884 -0.367449311
v -0.120716481 0.039970973 -0.369295723
v -0.094216473 0.035019939 -0.449270177
v -0.102932368 -0.000007897 -0.421956072
v -0.072458908 0.009692861 -0.434315058
v -0.102932368 -0.000007897 -0.421956072
v -0.094216473 0.035019939 -0.449270177
v -0.120187211 0.020609330 -0.431159252
v -0.118509358 0.075730129 -0.442252425
v -0.132098800 0.055045668 -0.431693496
v -0.111694495 0.061839633 -0.448933179
v -0.051470631 0.026094078 -0.330753355
v -0.045451021 0.034371586 -0.326619641
v -0.049146690 0.033141962 -0.332827579
v -0.045451021 0.034371586 -0.326619641
v -0.051470631 0.026094078 -0.330753355
v -0.047613769 0.027194073 -0.324652340
v -0.049146690 0.033141962 -0.332827579
v -0.049041502 0.039522813 -0.326422027
v -0.052583163 0.038368657 -0.332736584
v -0.049041502 0.039522813 -0.326422027
v -0.049146690 0.033141962 -0.332827579
v -0.045451021 0.034371586 -0.326619641
v -0.052583163 0.038368657 -0.332736584
v -0.054333701 0.038029050 -0.324864814
v -0.057875743 0.037053748 -0.331185379
v -0.054333701 0.038029050 -0.324864814
v -0.052583163 0.038368657 -0.332736584
v -0.049041502 0.039522813 -0.326422027
v -0.057875743 0.037053748 -0.331185379
v -0.057940564 0.034046154 -0.323349564
v -0.061555188 0.033216452 -0.329625435
v -0.057940564 0.034046154 -0.323349564
v -0.057875743 0.037053748 -0.331185379
v -0.054333701 0.038029050 -0.324864814
v -0.061555188 0.033216452 -0.329625435
v -0.055121392 0.028421193 -0.323280766
v -0.058895806 0.027543317 -0.329446548
v -0.055121392 0.028421193 -0.323280766
v -0.061555188 0.033216452 -0.329625435
v -0.057940564 0.034046154 -0.323349564
v -0.058895806 0.027543317 -0.329446548
v -0.047613769 0.027194073 -0.324652340
v -0.051470631 0.026094078 -0.330753355
v -0.047613769 0.027194073 -0.324652340
v -0.058895806 0.027543317 -0.329446548
v -0.055121392 0.028421193 -0.323280766
v -0.047613769 0.027194073 -0.324652340
v -0.042275792 0.032378057 -0.320514426
v -0.045451021 0.034371586 -0.326619641
v -0.042275792 0.032378057 -0.320514426
v -0.047613769 0.027194073 -0.324652340
v -0.047449584 0.025218771 -0.317972562
v -0.045451021 0.034371586 -0.326619641
v -0.042275792 0.032378057 -0.320514426
v -0.043053237 0.038084944 -0.319886326
v -0.045451021 0.034371586 -0.326619641
v -0.046970070 0.042795838 -0.318721936
v -0.049041502 0.039522813 -0.326422027
v -0.046970070 0.042795838 -0.318721936
v -0.045451021 0.034371586 -0.326619641
v -0.043053237 0.038084944 -0.319886326
v -0.049041502 0.039522813 -0.326422027
v -0.055560607 0.041986187 -0.315351819
v -0.054333701 0.038029050 -0.324864814
v -0.055560607 0.041986187 -0.315351819
v -0.049041502 0.039522813 -0.326422027
v -0.046970070 0.042795838 -0.318721936
v -0.054333701 0.038029050 -0.324864814
v -0.061248237 0.035181670 -0.313756950
v -0.057940564 0.034046154 -0.323349564
v -0.061248237 0.035181670 -0.313756950
v -0.054333701 0.038029050 -0.324864814
v -0.055560607 0.041986187 -0.315351819
v -0.057940564 0.034046154 -0.323349564
v -0.060050273 0.029021452 -0.313975973
v -0.055121392 0.028421193 -0.323280766
v -0.060050273 0.029021452 -0.313975973
v -0.057940564 0.034046154 -0.323349564
v -0.061248237 0.035181670 -0.313756950
v -0.055121392 0.028421193 -0.323280766
v -0.060050273 0.029021452 -0.313975973
v -0.056308239 0.024895842 -0.315635360
v -0.055121392 0.028421193 -0.323280766
v -0.047449584 0.025218771 -0.317972562
v -0.047613769 0.027194073 -0.324652340
v -0.047449584 0.025218771 -0.317972562
v -0.055121392 0.028421193 -0.323280766
v -0.056308239 0.024895842 -0.315635360
v -0.047449584 0.025218771 -0.317972562
v -0.038027091 0.028111611 -0.302771259
v -0.042275792 0.032378057 -0.320514426
v -0.038027091 0.028111611 -0.302771259
v -0.047449584 0.025218771 -0.317972562
v -0.045108352 0.019513405 -0.299911764
v -0.042275792 0.032378057 -0.320514426
v -0.038156141 0.034901089 -0.301900210
v -0.043053237 0.038084944 -0.319886326
v -0.038156141 0.034901089 -0.301900210
v -0.042275792 0.032378057 -0.320514426
v -0.038027091 0.028111611 -0.302771259
v -0.043053237 0.038084944 -0.319886326
v -0.042461117 0.041613211 -0.300007254
v -0.046970070 0.042795838 -0.318721936
v -0.042461117 0.041613211 -0.300007254
v -0.043053237 0.038084944 -0.319886326
v -0.038156141 0.034901089 -0.301900210
v -0.046970070 0.042795838 -0.318721936
v -0.052926206 0.041418919 -0.295651645
v -0.055560607 0.041986187 -0.315351819
v -0.052926206 0.041418919 -0.295651645
v -0.046970070 0.042795838 -0.318721936
v -0.042461117 0.041613211 -0.300007254
v -0.055560607 0.041986187 -0.315351819
v -0.060769014 0.034035240 -0.293554737
v -0.061248237 0.035181670 -0.313756950
v -0.060769014 0.034035240 -0.293554737
v -0.055560607 0.041986187 -0.315351819
v -0.052926206 0.041418919 -0.295651645
v -0.061248237 0.035181670 -0.313756950
v -0.059950635 0.025879266 -0.294219778
v -0.060050273 0.029021452 -0.313975973
v -0.059950635 0.025879266 -0.294219778
v -0.061248237 0.035181670 -0.313756950
v -0.060769014 0.034035240 -0.293554737
v -0.060050273 0.029021452 -0.313975973
v -0.056019441 0.020663507 -0.296430861
v -0.056308239 0.024895842 -0.315635360
v -0.056019441 0.020663507 -0.296430861
v -0.060050273 0.029021452 -0.313975973
v -0.059950635 0.025879266 -0.294219778
v -0.056308239 0.024895842 -0.315635360
v -0.045108352 0.019513405 -0.299911764
v -0.047449584 0.025218771 -0.317972562
v -0.045108352 0.019513405 -0.299911764
v -0.056308239 0.024895842 -0.315635360
v -0.056019441 0.020663507 -0.296430861
v -0.045108352 0.019513405 -0.299911764
v -0.038640688 0.022191352 -0.283608986
v -0.038027091 0.028111611 -0.302771259
v -0.038640688 0.022191352 -0.283608986
v -0.045108352 0.019513405 -0.299911764
v -0.044862306 0.015329888 -0.281259036
v -0.038027091 0.028111611 -0.302771259
v -0.038302334 0.028431481 -0.282547652
v -0.038156141 0.034901089 -0.301900210
v -0.038302334 0.028431481 -0.282547652
v -0.038027091 0.028111611 -0.302771259
v -0.038640688 0.022191352 -0.283608986
v -0.038156141 0.034901089 -0.301900210
v -0.041335933 0.034980839 -0.280729636
v -0.042461117 0.041613211 -0.300007254
v -0.041335933 0.034980839 -0.280729636
v -0.038156141 0.034901089 -0.301900210
v -0.038302334 0.028431481 -0.282547652
v -0.042461117 0.041613211 -0.300007254
v -0.049761112 0.036147151 -0.276843385
v -0.052926206 0.041418919 -0.295651645
v -0.049761112 0.036147151 -0.276843385
v -0.042461117 0.041613211 -0.300007254
v -0.041335933 0.034980839 -0.280729636
v -0.052926206 0.041418919 -0.295651645
v -0.056559148 0.030364806 -0.275314969
v -0.060769014 0.034035240 -0.293554737
v -0.056559148 0.030364806 -0.275314969
v -0.052926206 0.041418919 -0.295651645
v -0.049761112 0.036147151 -0.276843385
v -0.060769014 0.034035240 -0.293554737
v -0.056424879 0.022937580 -0.276102854
v -0.059950635 0.025879266 -0.294219778
v -0.056424879 0.022937580 -0.276102854
v -0.060769014 0.034035240 -0.293554737
v -0.056559148 0.030364806 -0.275314969
v -0.059950635 0.025879266 -0.294219778
v -0.053601763 0.017655655 -0.278287881
v -0.056019441 0.020663507 -0.296430861
v -0.053601763 0.017655655 -0.278287881
v -0.059950635 0.025879266 -0.294219778
v -0.056424879 0.022937580 -0.276102854
v -0.056019441 0.020663507 -0.296430861
v -0.044862306 0.015329888 -0.281259036
v -0.045108352 0.019513405 -0.299911764
v -0.044862306 0.015329888 -0.281259036
v -0.056019441 0.020663507 -0.296430861
v -0.053601763 0.017655655 -0.278287881
v -0.044862306 0.015329888 -0.281259036
v -0.042335216 0.018788914 -0.262726612
v -0.038640688 0.022191352 -0.283608986
v -0.042335216 0.018788914 -0.262726612
v -0.044862306 0.015329888 -0.281259036
v -0.045561392 0.015929818 -0.261456668
v -0.038640688 0.022191352 -0.283608986
v -0.042335216 0.018788914 -0.262726612
v -0.038302334 0.028431481 -0.282547652
v -0.038302334 0.028431481 -0.282547652
v -0.042898408 0.023321506 -0.262201740
v -0.041335933 0.034980839 -0.280729636
v -0.042898408 0.023321506 -0.262201740
v -0.038302334 0.028431481 -0.282547652
v -0.042335216 0.018788914 -0.262726612
v -0.041335933 0.034980839 -0.280729636
v -0.046755861 0.023477682 -0.260751981
v -0.049761112 0.036147151 -0.276843385
v -0.046755861 0.023477682 -0.260751981
v -0.041335933 0.034980839 -0.280729636
v -0.042898408 0.023321506 -0.262201740
v -0.049761112 0.036147151 -0.276843385
v -0.050251368 0.021879527 -0.259554179
v -0.056559148 0.030364806 -0.275314969
v -0.050251368 0.021879527 -0.259554179
v -0.049761112 0.036147151 -0.276843385
v -0.046755861 0.023477682 -0.260751981
v -0.056559148 0.030364806 -0.275314969
v -0.049561295 0.017371794 -0.260125854
v -0.056424879 0.022937580 -0.276102854
v -0.049561295 0.017371794 -0.260125854
v -0.056559148 0.030364806 -0.275314969
v -0.050251368 0.021879527 -0.259554179
v -0.056424879 0.022937580 -0.276102854
v -0.049561295 0.017371794 -0.260125854
v -0.053601763 0.017655655 -0.278287881
v -0.053601763 0.017655655 -0.278287881
v -0.045561392 0.015929818 -0.261456668
v -0.044862306 0.015329888 -0.281259036
v -0.045561392 0.015929818 -0.261456668
v -0.053601763 0.017655655 -0.278287881
v -0.049561295 0.017371794 -0.260125854
v -0.045561392 0.015929818 -0.261456668
v -0.042672839 0.018031687 -0.249907787
v -0.042335216 0.018788914 -0.262726612
v -0.042335216 0.018788914 -0.262726612
v -0.042672839 0.018031687 -0.249907787
v -0.042898408 0.023321506 -0.262201740
v -0.042898408 0.023321506 -0.262201740
v -0.042672839 0.018031687 -0.249907787
v -0.046755861 0.023477682 -0.260751981
v -0.046755861 0.023477682 -0.260751981
v -0.042672839 0.018031687 -0.249907787
v -0.050251368 0.021879527 -0.259554179
v -0.050251368 0.021879527 -0.259554179
v -0.042672839 0.018031687 -0.249907787
v -0.049561295 0.017371794 -0.260125854
v -0.049561295 0.017371794 -0.260125854
v -0.042672839 0.018031687 -0.249907787
v -0.045561392 0.015929818 -0.261456668
vt 0.163342997 0.059368014
vt 0.222782001 0.014806986
vt 0.220088005 0.112595975
vt 0.222782001 0.014806986
vt 0.163342997 0.059368014
vt 0.202781007 0.011348009
vt 0.212077007 0.185289025
vt 0.132737994 0.208414018
vt 0.153439999 0.110207975
vt 0.132737994 0.208414018
vt 0.212077007 0.185289025
vt 0.190157995 0.211098015
vt 0.298171014 0.270264030
vt 0.241968006 0.216840029
vt 0.298016995 0.225439012
vt 0.241968006 0.216840029
vt 0.298171014 0.270264030
vt 0.237657994 0.261389971
vt 0.220088005 0.112595975
vt 0.212077007 0.185289025
vt 0.153439999 0.110207975
vt 0.212077007 0.185289025
vt 0.220088005 0.112595975
vt 0.238821000 0.163273990
vt 0.241968006 0.216840029
vt 0.297951013 0.159473002
vt 0.298016995 0.225439012
vt 0.297951013 0.159473002
vt 0.241968006 0.216840029
vt 0.238821000 0.163273990
vt 0.153439999 0.110207975
vt 0.163342997 0.059368014
vt 0.220088005 0.112595975
vt 0.199494004 0.264167011
vt 0.237657994 0.261389971
vt 0.238591999 0.312813997
vt 0.237657994 0.261389971
vt 0.199494004 0.264167011
vt 0.190157995 0.211098015
vt 0.238821000 0.163273990
vt 0.241968006 0.216840029
vt 0.212077007 0.185289025
vt 0.130790994 0.065918982
vt 0.149899006 0.003461003
vt 0.163342997 0.059368014
vt 0.149899006 0.003461003
vt 0.130790994 0.065918982
vt 0.101453997 0.016242981
vt 0.220088005 0.112595975
vt 0.222782001 0.014806986
vt 0.297771007 0.074699998
vt 0.298626006 0.324665010
vt 0.251242995 0.348680019
vt 0.238591999 0.312813997
vt 0.251242995 0.348680019
vt 0.298626006 0.324665010
vt 0.299187005 0.360895991
vt 0.238591999 0.312813997
vt 0.203952998 0.321265996
vt 0.199494004 0.264167011
vt 0.203952998 0.321265996
vt 0.238591999 0.312813997
vt 0.251242995 0.348680019
vt 0.159139007 0.230387986
vt 0.146193996 0.296365023
vt 0.131629005 0.231251001
vt 0.146193996 0.296365023
vt 0.159139007 0.230387986
vt 0.179668993 0.299072027
vt 0.199494004 0.264167011
vt 0.179668993 0.299072027
vt 0.159139007 0.230387986
vt 0.179668993 0.299072027
vt 0.199494004 0.264167011
vt 0.203952998 0.321265996
vt 0.299187005 0.360895991
vt 0.263218999 0.380483985
vt 0.251242995 0.348680019
vt 0.263218999 0.380483985
vt 0.299187005 0.360895991
vt 0.299071014 0.385213017
vt 0.251242995 0.348680019
vt 0.263218999 0.380483985
vt 0.203952998 0.321265996
vt 0.179668993 0.299072027
vt 0.235625997 0.375804007
vt 0.146193996 0.296365023
vt 0.235625997 0.375804007
vt 0.179668993 0.299072027
vt 0.263218999 0.380483985
vt 0.203952998 0.321265996
vt 0.263218999 0.380483985
vt 0.179668993 0.299072027
vt 0.132737994 0.208414018
vt 0.139124006 0.128910005
vt 0.153439999 0.110207975
vt 0.139124006 0.128910005
vt 0.132737994 0.208414018
vt 0.097488999 0.218639970
vt 0.130790994 0.065918982
vt 0.153439999 0.110207975
vt 0.139124006 0.128910005
vt 0.153439999 0.110207975
vt 0.130790994 0.065918982
vt 0.163342997 0.059368014
vt 0.238591999 0.312813997
vt 0.298171014 0.270264030
vt 0.298626006 0.324665010
vt 0.298171014 0.270264030
vt 0.238591999 0.312813997
vt 0.237657994 0.261389971
vt 0.241968006 0.216840029
vt 0.190157995 0.211098015
vt 0.212077007 0.185289025
vt 0.190157995 0.211098015
vt 0.241968006 0.216840029
vt 0.237657994 0.261389971
vt 0.159139007 0.230387986
vt 0.190157995 0.211098015
vt 0.199494004 0.264167011
vt 0.190157995 0.211098015
vt 0.159139007 0.230387986
vt 0.132737994 0.208414018
vt 0.131629005 0.231251001
vt 0.132737994 0.208414018
vt 0.159139007 0.230387986
vt 0.132737994 0.208414018
vt 0.131629005 0.231251001
vt 0.097488999 0.218639970
vt 0.139124006 0.128910005
vt 0.110794000 0.102204978
vt 0.130790994 0.065918982
vt 0.110794000 0.102204978
vt 0.139124006 0.128910005
vt 0.110816002 0.160995007
vt 0.130790994 0.065918982
vt 0.070404001 0.054355979
vt 0.101453997 0.016242981
vt 0.070404001 0.054355979
vt 0.130790994 0.065918982
vt 0.110794000 0.102204978
vt 0.146193996 0.296365023
vt 0.127875000 0.244826019
vt 0.131629005 0.231251001
vt 0.127875000 0.244826019
vt 0.146193996 0.296365023
vt 0.143608004 0.302091956
vt 0.235625997 0.375804007
vt 0.143608004 0.302091956
vt 0.146193996 0.296365023
vt 0.097488999 0.218639970
vt 0.110816002 0.160995007
vt 0.139124006 0.128910005
vt 0.110816002 0.160995007
vt 0.097488999 0.218639970
vt 0.103749000 0.220232964
vt 0.131629005 0.231251001
vt 0.103749000 0.220232964
vt 0.097488999 0.218639970
vt 0.103749000 0.220232964
vt 0.131629005 0.231251001
vt 0.127875000 0.244826019
vt 0.110816002 0.160995007
vt 0.062576003 0.175248981
vt 0.110794000 0.102204978
vt 0.062576003 0.175248981
vt 0.110816002 0.160995007
vt 0.066363998 0.204941988
vt 0.110794000 0.102204978
vt 0.020341000 0.135594010
vt 0.070404001 0.054355979
vt 0.020341000 0.135594010
vt 0.110794000 0.102204978
vt 0.062576003 0.175248981
vt 0.143608004 0.302091956
vt 0.096699998 0.281803966
vt 0.127875000 0.244826019
vt 0.096699998 0.281803966
vt 0.143608004 0.302091956
vt 0.136298999 0.332224965
vt 0.235625997 0.375804007
vt 0.136298999 0.332224965
vt 0.143608004 0.302091956
vt 0.136298999 0.332224965
vt 0.235625997 0.375804007
vt 0.222844005 0.382516980
vt 0.103749000 0.220232964
vt 0.066363998 0.204941988
vt 0.110816002 0.160995007
vt 0.066363998 0.204941988
vt 0.103749000 0.220232964
vt 0.074534997 0.243723989
vt 0.127875000 0.244826019
vt 0.074534997 0.243723989
vt 0.103749000 0.220232964
vt 0.074534997 0.243723989
vt 0.127875000 0.244826019
vt 0.096699998 0.281803966
vt 0.297771007 0.074699998
vt 0.238821000 0.163273990
vt 0.220088005 0.112595975
vt 0.238821000 0.163273990
vt 0.297771007 0.074699998
vt 0.297951013 0.159473002
vt 0.149899006 0.003461003
vt 0.202781007 0.011348009
vt 0.163342997 0.059368014
vt 0.432211995 0.058580995
vt 0.372478992 0.014337003
vt 0.392509013 0.010766983
vt 0.372478992 0.014337003
vt 0.432211995 0.058580995
vt 0.375708014 0.112082005
vt 0.384065986 0.184598982
vt 0.463613987 0.207252026
vt 0.406327993 0.210209012
vt 0.463613987 0.207252026
vt 0.384065986 0.184598982
vt 0.442465007 0.109296978
vt 0.298171014 0.270264030
vt 0.354142994 0.216152012
vt 0.360338986 0.260125995
vt 0.354142994 0.216152012
vt 0.298171014 0.270264030
vt 0.298016995 0.225439012
vt 0.375708014 0.112082005
vt 0.384065986 0.184598982
vt 0.357156008 0.162775993
vt 0.384065986 0.184598982
vt 0.375708014 0.112082005
vt 0.442465007 0.109296978
vt 0.354142994 0.216152012
vt 0.297951013 0.159473002
vt 0.357156008 0.162775993
vt 0.297951013 0.159473002
vt 0.354142994 0.216152012
vt 0.298016995 0.225439012
vt 0.442465007 0.109296978
vt 0.375708014 0.112082005
vt 0.432211995 0.058580995
vt 0.397056013 0.263381958
vt 0.360338986 0.260125995
vt 0.406327993 0.210209012
vt 0.360338986 0.260125995
vt 0.397056013 0.263381958
vt 0.358190000 0.311708987
vt 0.357156008 0.162775993
vt 0.384065986 0.184598982
vt 0.354142994 0.216152012
vt 0.464798003 0.064925015
vt 0.445365012 0.002596021
vt 0.493891001 0.015111983
vt 0.445365012 0.002596021
vt 0.464798003 0.064925015
vt 0.432211995 0.058580995
vt 0.375708014 0.112082005
vt 0.297771007 0.074699998
vt 0.372478992 0.014337003
vt 0.298626006 0.324665010
vt 0.349505991 0.349341989
vt 0.299187005 0.360895991
vt 0.349505991 0.349341989
vt 0.298626006 0.324665010
vt 0.358190000 0.311708987
vt 0.358190000 0.311708987
vt 0.391932994 0.320119023
vt 0.349505991 0.349341989
vt 0.391932994 0.320119023
vt 0.358190000 0.311708987
vt 0.397056013 0.263381958
vt 0.437283009 0.229294002
vt 0.450309008 0.295001984
vt 0.416417003 0.297721982
vt 0.450309008 0.295001984
vt 0.437283009 0.229294002
vt 0.464796990 0.230054975
vt 0.397056013 0.263381958
vt 0.416417003 0.297721982
vt 0.391932994 0.320119023
vt 0.416417003 0.297721982
vt 0.397056013 0.263381958
vt 0.437283009 0.229294002
vt 0.299187005 0.360895991
vt 0.335083991 0.380952001
vt 0.299071014 0.385213017
vt 0.335083991 0.380952001
vt 0.299187005 0.360895991
vt 0.349505991 0.349341989
vt 0.349505991 0.349341989
vt 0.391932994 0.320119023
vt 0.335083991 0.380952001
vt 0.416417003 0.297721982
vt 0.362291992 0.376278996
vt 0.335083991 0.380952001
vt 0.362291992 0.376278996
vt 0.416417003 0.297721982
vt 0.450309008 0.295001984
vt 0.391932994 0.320119023
vt 0.416417003 0.297721982
vt 0.335083991 0.380952001
vt 0.456730008 0.127893984
vt 0.463613987 0.207252026
vt 0.442465007 0.109296978
vt 0.463613987 0.207252026
vt 0.456730008 0.127893984
vt 0.498899996 0.217360020
vt 0.464798003 0.064925015
vt 0.456730008 0.127893984
vt 0.442465007 0.109296978
vt 0.442465007 0.109296978
vt 0.432211995 0.058580995
vt 0.464798003 0.064925015
vt 0.358190000 0.311708987
vt 0.298171014 0.270264030
vt 0.360338986 0.260125995
vt 0.298171014 0.270264030
vt 0.358190000 0.311708987
vt 0.298626006 0.324665010
vt 0.354142994 0.216152012
vt 0.406327993 0.210209012
vt 0.360338986 0.260125995
vt 0.406327993 0.210209012
vt 0.354142994 0.216152012
vt 0.384065986 0.184598982
vt 0.437283009 0.229294002
vt 0.406327993 0.210209012
vt 0.463613987 0.207252026
vt 0.406327993 0.210209012
vt 0.437283009 0.229294002
vt 0.397056013 0.263381958
vt 0.464796990 0.230054975
vt 0.463613987 0.207252026
vt 0.498899996 0.217360020
vt 0.463613987 0.207252026
vt 0.464796990 0.230054975
vt 0.437283009 0.229294002
vt 0.456730008 0.127893984
vt 0.484988004 0.101098001
vt 0.485228002 0.159850001
vt 0.484988004 0.101098001
vt 0.456730008 0.127893984
vt 0.464798003 0.064925015
vt 0.464798003 0.064925015
vt 0.525147974 0.053066969
vt 0.484988004 0.101098001
vt 0.525147974 0.053066969
vt 0.464798003 0.064925015
vt 0.493891001 0.015111983
vt 0.450309008 0.295001984
vt 0.468618006 0.243659973
vt 0.453106999 0.300978005
vt 0.468618006 0.243659973
vt 0.450309008 0.295001984
vt 0.464796990 0.230054975
vt 0.362291992 0.376278996
vt 0.450309008 0.295001984
vt 0.453106999 0.300978005
vt 0.498899996 0.217360020
vt 0.485228002 0.159850001
vt 0.492624015 0.219004035
vt 0.485228002 0.159850001
vt 0.498899996 0.217360020
vt 0.456730008 0.127893984
vt 0.464796990 0.230054975
vt 0.492624015 0.219004035
vt 0.468618006 0.243659973
vt 0.492624015 0.219004035
vt 0.464796990 0.230054975
vt 0.498899996 0.217360020
vt 0.485228002 0.159850001
vt 0.533538997 0.173916996
vt 0.529895008 0.203599989
vt 0.533538997 0.173916996
vt 0.485228002 0.159850001
vt 0.484988004 0.101098001
vt 0.484988004 0.101098001
vt 0.575591981 0.134073973
vt 0.533538997 0.173916996
vt 0.575591981 0.134073973
vt 0.484988004 0.101098001
vt 0.525147974 0.053066969
vt 0.453106999 0.300978005
vt 0.499971002 0.280539989
vt 0.460763007 0.331212997
vt 0.499971002 0.280539989
vt 0.453106999 0.300978005
vt 0.468618006 0.243659973
vt 0.362291992 0.376278996
vt 0.460763007 0.331212997
vt 0.374909997 0.382735014
vt 0.460763007 0.331212997
vt 0.362291992 0.376278996
vt 0.453106999 0.300978005
vt 0.492624015 0.219004035
vt 0.529895008 0.203599989
vt 0.521929979 0.242380977
vt 0.529895008 0.203599989
vt 0.492624015 0.219004035
vt 0.485228002 0.159850001
vt 0.468618006 0.243659973
vt 0.521929979 0.242380977
vt 0.499971002 0.280539989
vt 0.521929979 0.242380977
vt 0.468618006 0.243659973
vt 0.492624015 0.219004035
vt 0.297771007 0.074699998
vt 0.357156008 0.162775993
vt 0.297951013 0.159473002
vt 0.357156008 0.162775993
vt 0.297771007 0.074699998
vt 0.375708014 0.112082005
vt 0.445365012 0.002596021
vt 0.432211995 0.058580995
vt 0.392509013 0.010766983
vt 0.299071014 0.385213017
vt 0.269391000 0.395680010
vt 0.263218999 0.380483985
vt 0.269391000 0.395680010
vt 0.299071014 0.385213017
vt 0.298970997 0.398939967
vt 0.263218999 0.380483985
vt 0.247292995 0.393938005
vt 0.235625997 0.375804007
vt 0.247292995 0.393938005
vt 0.263218999 0.380483985
vt 0.269391000 0.395680010
vt 0.235625997 0.375804007
vt 0.232977003 0.395280957
vt 0.222844005 0.382516980
vt 0.232977003 0.395280957
vt 0.235625997 0.375804007
vt 0.247292995 0.393938005
vt 0.374909997 0.382735014
vt 0.350629002 0.394439995
vt 0.362291992 0.376278996
vt 0.350629002 0.394439995
vt 0.374909997 0.382735014
vt 0.364639014 0.395828009
vt 0.362291992 0.376278996
vt 0.328543007 0.396049976
vt 0.335083991 0.380952001
vt 0.328543007 0.396049976
vt 0.362291992 0.376278996
vt 0.350629002 0.394439995
vt 0.335083991 0.380952001
vt 0.298970997 0.398939967
vt 0.299071014 0.385213017
vt 0.298970997 0.398939967
vt 0.335083991 0.380952001
vt 0.328543007 0.396049976
vt 0.298970997 0.398939967
vt 0.276257008 0.417158961
vt 0.269391000 0.395680010
vt 0.276257008 0.417158961
vt 0.298970997 0.398939967
vt 0.298808992 0.418444991
vt 0.269391000 0.395680010
vt 0.276257008 0.417158961
vt 0.262432009 0.418080986
vt 0.269391000 0.395680010
vt 0.248041004 0.418350995
vt 0.247292995 0.393938005
vt 0.248041004 0.418350995
vt 0.269391000 0.395680010
vt 0.262432009 0.418080986
vt 0.247292995 0.393938005
vt 0.226924002 0.417912006
vt 0.232977003 0.395280957
vt 0.226924002 0.417912006
vt 0.247292995 0.393938005
vt 0.248041004 0.418350995
vt 0.364639014 0.395828009
vt 0.349640012 0.418869972
vt 0.350629002 0.394439995
vt 0.349640012 0.418869972
vt 0.364639014 0.395828009
vt 0.370317012 0.418796003
vt 0.350629002 0.394439995
vt 0.335134000 0.418537021
vt 0.328543007 0.396049976
vt 0.335134000 0.418537021
vt 0.350629002 0.394439995
vt 0.349640012 0.418869972
vt 0.328543007 0.396049976
vt 0.335134000 0.418537021
vt 0.321341991 0.417441010
vt 0.328543007 0.396049976
vt 0.298808992 0.418444991
vt 0.298970997 0.398939967
vt 0.298808992 0.418444991
vt 0.328543007 0.396049976
vt 0.321341991 0.417441010
vt 0.298808992 0.418444991
vt 0.274832010 0.488086998
vt 0.276257008 0.417158961
vt 0.274832010 0.488086998
vt 0.298808992 0.418444991
vt 0.298361003 0.489840031
vt 0.276257008 0.417158961
vt 0.261691988 0.489627004
vt 0.262432009 0.418080986
vt 0.261691988 0.489627004
vt 0.276257008 0.417158961
vt 0.274832010 0.488086998
vt 0.262432009 0.418080986
vt 0.245046005 0.490584970
vt 0.248041004 0.418350995
vt 0.245046005 0.490584970
vt 0.262432009 0.418080986
vt 0.261691988 0.489627004
vt 0.248041004 0.418350995
vt 0.220255002 0.493229032
vt 0.226924002 0.417912006
vt 0.220255002 0.493229032
vt 0.248041004 0.418350995
vt 0.245046005 0.490584970
vt 0.370317012 0.418796003
vt 0.351848006 0.491286039
vt 0.349640012 0.418869972
vt 0.351848006 0.491286039
vt 0.370317012 0.418796003
vt 0.375995010 0.494289994
vt 0.349640012 0.418869972
vt 0.335085005 0.490090966
vt 0.335134000 0.418537021
vt 0.335085005 0.490090966
vt 0.349640012 0.418869972
vt 0.351848006 0.491286039
vt 0.335134000 0.418537021
vt 0.321951002 0.488389969
vt 0.321341991 0.417441010
vt 0.321951002 0.488389969
vt 0.335134000 0.418537021
vt 0.335085005 0.490090966
vt 0.321341991 0.417441010
vt 0.298361003 0.489840031
vt 0.298808992 0.418444991
vt 0.298361003 0.489840031
vt 0.321341991 0.417441010
vt 0.321951002 0.488389969
vt 0.298361003 0.489840031
vt 0.279110998 0.557170987
vt 0.274832010 0.488086998
vt 0.279110998 0.557170987
vt 0.298361003 0.489840031
vt 0.297987014 0.557582974
vt 0.274832010 0.488086998
vt 0.267251015 0.559674025
vt 0.261691988 0.489627004
vt 0.267251015 0.559674025
vt 0.274832010 0.488086998
vt 0.279110998 0.557170987
vt 0.261691988 0.489627004
vt 0.252090007 0.561896980
vt 0.245046005 0.490584970
vt 0.252090007 0.561896980
vt 0.261691988 0.489627004
vt 0.267251015 0.559674025
vt 0.245046005 0.490584970
vt 0.233245999 0.569836020
vt 0.220255002 0.493229032
vt 0.233245999 0.569836020
vt 0.245046005 0.490584970
vt 0.252090007 0.561896980
vt 0.375995010 0.494289994
vt 0.343858004 0.562592983
vt 0.351848006 0.491286039
vt 0.343858004 0.562592983
vt 0.375995010 0.494289994
vt 0.362188011 0.570650995
vt 0.351848006 0.491286039
vt 0.328637987 0.560030997
vt 0.335085005 0.490090966
vt 0.328637987 0.560030997
vt 0.351848006 0.491286039
vt 0.343858004 0.562592983
vt 0.335085005 0.490090966
vt 0.316830009 0.557385027
vt 0.321951002 0.488389969
vt 0.316830009 0.557385027
vt 0.335085005 0.490090966
vt 0.328637987 0.560030997
vt 0.321951002 0.488389969
vt 0.297987014 0.557582974
vt 0.298361003 0.489840031
vt 0.297987014 0.557582974
vt 0.321951002 0.488389969
vt 0.316830009 0.557385027
vt 0.297987014 0.557582974
vt 0.286861986 0.636878014
vt 0.279110998 0.557170987
vt 0.286861986 0.636878014
vt 0.297987014 0.557582974
vt 0.297567993 0.637149990
vt 0.279110998 0.557170987
vt 0.286861986 0.636878014
vt 0.267251015 0.559674025
vt 0.267251015 0.559674025
vt 0.276118010 0.637996972
vt 0.252090007 0.561896980
vt 0.276118010 0.637996972
vt 0.267251015 0.559674025
vt 0.286861986 0.636878014
vt 0.252090007 0.561896980
vt 0.268886000 0.643573999
vt 0.233245999 0.569836020
vt 0.268886000 0.643573999
vt 0.252090007 0.561896980
vt 0.276118010 0.637996972
vt 0.362188011 0.570650995
vt 0.318978012 0.638338029
vt 0.343858004 0.562592983
vt 0.318978012 0.638338029
vt 0.362188011 0.570650995
vt 0.325987995 0.643836975
vt 0.343858004 0.562592983
vt 0.308272988 0.637000024
vt 0.328637987 0.560030997
vt 0.308272988 0.637000024
vt 0.343858004 0.562592983
vt 0.318978012 0.638338029
vt 0.328637987 0.560030997
vt 0.308272988 0.637000024
vt 0.316830009 0.557385027
vt 0.316830009 0.557385027
vt 0.297567993 0.637149990
vt 0.297987014 0.557582974
vt 0.297567993 0.637149990
vt 0.316830009 0.557385027
vt 0.308272988 0.637000024
vt 0.297567993 0.637149990
vt 0.297367990 0.678640008
vt 0.286861986 0.636878014
vt 0.286861986 0.636878014
vt 0.297367990 0.678640008
vt 0.276118010 0.637996972
vt 0.276118010 0.637996972
vt 0.297367990 0.678640008
vt 0.268886000 0.643573999
vt 0.325987995 0.643836975
vt 0.297367990 0.678640008
vt 0.318978012 0.638338029
vt 0.318978012 0.638338029
vt 0.297367990 0.678640008
vt 0.308272988 0.637000024
vt 0.308272988 0.637000024
vt 0.297367990 0.678640008
vt 0.297567993 0.637149990
vn -0.014778289 0.290806465 -0.956667760
vn -0.272763751 -0.086493559 -0.958185160
vn 0.230114653 0.083244458 -0.969596621
vn -0.272763751 -0.086493559 -0.958185160
vn -0.014778289 0.290806465 -0.956667760
vn -0.436699715 0.206734065 -0.875530916
vn 0.758597613 0.262982912 -0.596128886
vn 0.730202087 0.585584730 -0.351987836
vn 0.545237120 0.471313076 -0.693239113
vn 0.730202087 0.585584730 -0.351987836
vn 0.758597613 0.262982912 -0.596128886
vn 0.947682062 0.106977306 -0.300756654
vn 0.560289031 -0.826616016 0.052746214
vn 0.760060325 -0.514830120 -0.396558005
vn 0.428853050 -0.835071647 -0.344587298
vn 0.760060325 -0.514830120 -0.396558005
vn 0.560289031 -0.826616016 0.052746214
vn 0.925997341 -0.356467843 -0.124336645
vn 0.230114653 0.083244458 -0.969596621
vn 0.758597613 0.262982912 -0.596128886
vn 0.545237120 0.471313076 -0.693239113
vn 0.758597613 0.262982912 -0.596128886
vn 0.230114653 0.083244458 -0.969596621
vn 0.402446073 -0.360205111 -0.841599332
vn 0.760060325 -0.514830120 -0.396558005
vn 0.228461444 -0.702020196 -0.674516874
vn 0.428853050 -0.835071647 -0.344587298
vn 0.228461444 -0.702020196 -0.674516874
vn 0.760060325 -0.514830120 -0.396558005
vn 0.402446073 -0.360205111 -0.841599332
vn 0.545237120 0.471313076 -0.693239113
vn -0.014778289 0.290806465 -0.956667760
vn 0.230114653 0.083244458 -0.969596621
vn 0.998420849 0.031842484 -0.046280282
vn 0.925997341 -0.356467843 -0.124336645
vn 0.907878486 -0.386557161 0.162265883
vn 0.925997341 -0.356467843 -0.124336645
vn 0.998420849 0.031842484 -0.046280282
vn 0.947682062 0.106977306 -0.300756654
vn 0.402446073 -0.360205111 -0.841599332
vn 0.760060325 -0.514830120 -0.396558005
vn 0.758597613 0.262982912 -0.596128886
vn -0.146327486 0.962610676 -0.227966999
vn -0.492374479 0.327922296 -0.806247071
vn -0.014778289 0.290806465 -0.956667760
vn -0.492374479 0.327922296 -0.806247071
vn -0.146327486 0.962610676 -0.227966999
vn -0.550948159 0.834476490 -0.010252488
vn 0.230114653 0.083244458 -0.969596621
vn -0.272763751 -0.086493559 -0.958185160
vn -0.079069013 -0.365618965 -0.927400056
vn 0.581130303 -0.708726280 0.399993289
vn 0.832620554 -0.324642576 0.448720639
vn 0.907878486 -0.386557161 0.162265883
vn 0.832620554 -0.324642576 0.448720639
vn 0.581130303 -0.708726280 0.399993289
vn 0.530215659 -0.691830614 0.490144628
vn 0.907878486 -0.386557161 0.162265883
vn 0.934758780 -0.001938117 0.355277732
vn 0.998420849 0.031842484 -0.046280282
vn 0.934758780 -0.001938117 0.355277732
vn 0.907878486 -0.386557161 0.162265883
vn 0.832620554 -0.324642576 0.448720639
vn 0.805562820 0.589949879 -0.055024385
vn 0.378713786 0.829670576 0.410149490
vn 0.662849701 0.642380345 0.384678784
vn 0.378713786 0.829670576 0.410149490
vn 0.805562820 0.589949879 -0.055024385
vn 0.706856121 0.579901191 0.405054357
vn 0.998420849 0.031842484 -0.046280282
vn 0.706856121 0.579901191 0.405054357
vn 0.805562820 0.589949879 -0.055024385
vn 0.706856121 0.579901191 0.405054357
vn 0.998420849 0.031842484 -0.046280282
vn 0.934758780 -0.001938117 0.355277732
vn 0.530215659 -0.691830614 0.490144628
vn 0.854674333 0.065247720 0.515048075
vn 0.832620554 -0.324642576 0.448720639
vn 0.854674333 0.065247720 0.515048075
vn 0.530215659 -0.691830614 0.490144628
vn 0.619764290 -0.784219457 0.029867503
vn 0.832620554 -0.324642576 0.448720639
vn 0.854674333 0.065247720 0.515048075
vn 0.934758780 -0.001938117 0.355277732
vn 0.706856121 0.579901191 0.405054357
vn 0.265669337 0.717664725 0.643721326
vn 0.378713786 0.829670576 0.410149490
vn 0.265669337 0.717664725 0.643721326
vn 0.706856121 0.579901191 0.405054357
vn 0.854674333 0.065247720 0.515048075
vn 0.934758780 -0.001938117 0.355277732
vn 0.854674333 0.065247720 0.515048075
vn 0.706856121 0.579901191 0.405054357
vn 0.730202087 0.585584730 -0.351987836
vn 0.128157796 0.991433214 0.025214301
vn 0.545237120 0.471313076 -0.693239113
vn 0.128157796 0.991433214 0.025214301
vn 0.730202087 0.585584730 -0.351987836
vn 0.022289472 0.951652519 0.306366877
vn -0.146327486 0.962610676 -0.227966999
vn 0.545237120 0.471313076 -0.693239113
vn 0.128157796 0.991433214 0.025214301
vn 0.545237120 0.471313076 -0.693239113
vn -0.146327486 0.962610676 -0.227966999
vn -0.014778289 0.290806465 -0.956667760
vn 0.907878486 -0.386557161 0.162265883
vn 0.560289031 -0.826616016 0.052746214
vn 0.581130303 -0.708726280 0.399993289
vn 0.560289031 -0.826616016 0.052746214
vn 0.907878486 -0.386557161 0.162265883
vn 0.925997341 -0.356467843 -0.124336645
vn 0.760060325 -0.514830120 -0.396558005
vn 0.947682062 0.106977306 -0.300756654
vn 0.758597613 0.262982912 -0.596128886
vn 0.947682062 0.106977306 -0.300756654
vn 0.760060325 -0.514830120 -0.396558005
vn 0.925997341 -0.356467843 -0.124336645
vn 0.805562820 0.589949879 -0.055024385
vn 0.947682062 0.106977306 -0.300756654
vn 0.998420849 0.031842484 -0.046280282
vn 0.947682062 0.106977306 -0.300756654
vn 0.805562820 0.589949879 -0.055024385
vn 0.730202087 0.585584730 -0.351987836
vn 0.662849701 0.642380345 0.384678784
vn 0.730202087 0.585584730 -0.351987836
vn 0.805562820 0.589949879 -0.055024385
vn 0.730202087 0.585584730 -0.351987836
vn 0.662849701 0.642380345 0.384678784
vn 0.022289472 0.951652519 0.306366877
vn 0.128157796 0.991433214 0.025214301
vn -0.155965643 0.909680419 0.384910708
vn -0.146327486 0.962610676 -0.227966999
vn -0.155965643 0.909680419 0.384910708
vn 0.128157796 0.991433214 0.025214301
vn -0.413522746 0.811148417 0.413566420
vn -0.146327486 0.962610676 -0.227966999
vn -0.339676816 0.787429658 0.514367763
vn -0.550948159 0.834476490 -0.010252488
vn -0.339676816 0.787429658 0.514367763
vn -0.146327486 0.962610676 -0.227966999
vn -0.155965643 0.909680419 0.384910708
vn 0.378713786 0.829670576 0.410149490
vn -0.051246225 0.865411798 0.498433791
vn 0.662849701 0.642380345 0.384678784
vn -0.051246225 0.865411798 0.498433791
vn 0.378713786 0.829670576 0.410149490
vn -0.213635530 0.852626590 0.476851925
vn 0.265669337 0.717664725 0.643721326
vn -0.213635530 0.852626590 0.476851925
vn 0.378713786 0.829670576 0.410149490
vn 0.022289472 0.951652519 0.306366877
vn -0.413522746 0.811148417 0.413566420
vn 0.128157796 0.991433214 0.025214301
vn -0.413522746 0.811148417 0.413566420
vn 0.022289472 0.951652519 0.306366877
vn -0.340732692 0.615651455 0.710545226
vn 0.662849701 0.642380345 0.384678784
vn -0.340732692 0.615651455 0.710545226
vn 0.022289472 0.951652519 0.306366877
vn -0.340732692 0.615651455 0.710545226
vn 0.662849701 0.642380345 0.384678784
vn -0.051246225 0.865411798 0.498433791
vn -0.413522746 0.811148417 0.413566420
vn -0.077783440 0.946318593 0.313736922
vn -0.155965643 0.909680419 0.384910708
vn -0.077783440 0.946318593 0.313736922
vn -0.413522746 0.811148417 0.413566420
vn -0.269738178 0.855986270 0.441054215
vn -0.155965643 0.909680419 0.384910708
vn -0.397006486 0.820642371 0.411013320
vn -0.339676816 0.787429658 0.514367763
vn -0.397006486 0.820642371 0.411013320
vn -0.155965643 0.909680419 0.384910708
vn -0.077783440 0.946318593 0.313736922
vn -0.213635530 0.852626590 0.476851925
vn -0.280212096 0.884051717 0.374077189
vn -0.051246225 0.865411798 0.498433791
vn -0.280212096 0.884051717 0.374077189
vn -0.213635530 0.852626590 0.476851925
vn -0.100280760 0.810048844 0.577723671
vn 0.265669337 0.717664725 0.643721326
vn -0.100280760 0.810048844 0.577723671
vn -0.213635530 0.852626590 0.476851925
vn -0.100280760 0.810048844 0.577723671
vn 0.265669337 0.717664725 0.643721326
vn -0.271321449 0.766169290 0.582554109
vn -0.340732692 0.615651455 0.710545226
vn -0.269738178 0.855986270 0.441054215
vn -0.413522746 0.811148417 0.413566420
vn -0.269738178 0.855986270 0.441054215
vn -0.340732692 0.615651455 0.710545226
vn 0.063514867 0.706927047 0.704428855
vn -0.051246225 0.865411798 0.498433791
vn 0.063514867 0.706927047 0.704428855
vn -0.340732692 0.615651455 0.710545226
vn 0.063514867 0.706927047 0.704428855
vn -0.051246225 0.865411798 0.498433791
vn -0.280212096 0.884051717 0.374077189
vn -0.079069013 -0.365618965 -0.927400056
vn 0.402446073 -0.360205111 -0.841599332
vn 0.230114653 0.083244458 -0.969596621
vn 0.402446073 -0.360205111 -0.841599332
vn -0.079069013 -0.365618965 -0.927400056
vn 0.228461444 -0.702020196 -0.674516874
vn -0.492374479 0.327922296 -0.806247071
vn -0.436699715 0.206734065 -0.875530916
vn -0.014778289 0.290806465 -0.956667760
vn -0.668392614 -0.137841410 -0.730924797
vn -0.272763751 -0.086493559 -0.958185160
vn -0.436699715 0.206734065 -0.875530916
vn -0.272763751 -0.086493559 -0.958185160
vn -0.668392614 -0.137841410 -0.730924797
vn -0.569645591 -0.440375309 -0.693954961
vn -0.709747164 -0.698442488 -0.091853438
vn -0.865601423 -0.461166232 0.195089423
vn -0.510333527 -0.838052309 0.192945635
vn -0.865601423 -0.461166232 0.195089423
vn -0.709747164 -0.698442488 -0.091853438
vn -0.866123058 -0.454548624 -0.207885539
vn 0.560289031 -0.826616016 0.052746214
vn 0.038219710 -0.987258900 -0.154463969
vn -0.023129927 -0.979178479 0.201679231
vn 0.038219710 -0.987258900 -0.154463969
vn 0.560289031 -0.826616016 0.052746214
vn 0.428853050 -0.835071647 -0.344587298
vn -0.569645591 -0.440375309 -0.693954961
vn -0.709747164 -0.698442488 -0.091853438
vn -0.185815846 -0.746253459 -0.639201257
vn -0.709747164 -0.698442488 -0.091853438
vn -0.569645591 -0.440375309 -0.693954961
vn -0.866123058 -0.454548624 -0.207885539
vn 0.038219710 -0.987258900 -0.154463969
vn 0.228461444 -0.702020196 -0.674516874
vn -0.185815846 -0.746253459 -0.639201257
vn 0.228461444 -0.702020196 -0.674516874
vn 0.038219710 -0.987258900 -0.154463969
vn 0.428853050 -0.835071647 -0.344587298
vn -0.866123058 -0.454548624 -0.207885539
vn -0.569645591 -0.440375309 -0.693954961
vn -0.668392614 -0.137841410 -0.730924797
vn -0.345331875 -0.838193334 0.422111159
vn -0.023129927 -0.979178479 0.201679231
vn -0.510333527 -0.838052309 0.192945635
vn -0.023129927 -0.979178479 0.201679231
vn -0.345331875 -0.838193334 0.422111159
vn 0.149134527 -0.877382187 0.456025647
vn -0.185815846 -0.746253459 -0.639201257
vn -0.709747164 -0.698442488 -0.091853438
vn 0.038219710 -0.987258900 -0.154463969
vn -0.874517664 0.484482346 0.022264593
vn -0.492374479 0.327922296 -0.806247071
vn -0.550948159 0.834476490 -0.010252488
vn -0.492374479 0.327922296 -0.806247071
vn -0.874517664 0.484482346 0.022264593
vn -0.668392614 -0.137841410 -0.730924797
vn -0.569645591 -0.440375309 -0.693954961
vn -0.079069013 -0.365618965 -0.927400056
vn -0.272763751 -0.086493559 -0.958185160
vn 0.581130303 -0.708726280 0.399993289
vn 0.234406475 -0.745556005 0.623858837
vn 0.530215659 -0.691830614 0.490144628
vn 0.234406475 -0.745556005 0.623858837
vn 0.581130303 -0.708726280 0.399993289
vn 0.149134527 -0.877382187 0.456025647
vn 0.149134527 -0.877382187 0.456025647
vn -0.071937740 -0.750419576 0.657035327
vn 0.234406475 -0.745556005 0.623858837
vn -0.071937740 -0.750419576 0.657035327
vn 0.149134527 -0.877382187 0.456025647
vn -0.345331875 -0.838193334 0.422111159
vn -0.759078685 -0.436431031 0.483039859
vn -0.655502962 0.160690745 0.737898605
vn -0.543962888 -0.256459384 0.798957421
vn -0.655502962 0.160690745 0.737898605
vn -0.759078685 -0.436431031 0.483039859
vn -0.566609569 -0.164153661 0.807469611
vn -0.345331875 -0.838193334 0.422111159
vn -0.543962888 -0.256459384 0.798957421
vn -0.071937740 -0.750419576 0.657035327
vn -0.543962888 -0.256459384 0.798957421
vn -0.345331875 -0.838193334 0.422111159
vn -0.759078685 -0.436431031 0.483039859
vn 0.530215659 -0.691830614 0.490144628
vn -0.072181250 -0.688265596 0.721858945
vn 0.619764290 -0.784219457 0.029867503
vn -0.072181250 -0.688265596 0.721858945
vn 0.530215659 -0.691830614 0.490144628
vn 0.234406475 -0.745556005 0.623858837
vn 0.234406475 -0.745556005 0.623858837
vn -0.071937740 -0.750419576 0.657035327
vn -0.072181250 -0.688265596 0.721858945
vn -0.543962888 -0.256459384 0.798957421
vn -0.432388091 0.290347040 0.853662190
vn -0.072181250 -0.688265596 0.721858945
vn -0.432388091 0.290347040 0.853662190
vn -0.543962888 -0.256459384 0.798957421
vn -0.655502962 0.160690745 0.737898605
vn -0.071937740 -0.750419576 0.657035327
vn -0.543962888 -0.256459384 0.798957421
vn -0.072181250 -0.688265596 0.721858945
vn -0.866628869 0.338628656 0.366449228
vn -0.865601423 -0.461166232 0.195089423
vn -0.866123058 -0.454548624 -0.207885539
vn -0.865601423 -0.461166232 0.195089423
vn -0.866628869 0.338628656 0.366449228
vn -0.676697141 0.493112274 0.546736925
vn -0.874517664 0.484482346 0.022264593
vn -0.866628869 0.338628656 0.366449228
vn -0.866123058 -0.454548624 -0.207885539
vn -0.866123058 -0.454548624 -0.207885539
vn -0.668392614 -0.137841410 -0.730924797
vn -0.874517664 0.484482346 0.022264593
vn 0.149134527 -0.877382187 0.456025647
vn 0.560289031 -0.826616016 0.052746214
vn -0.023129927 -0.979178479 0.201679231
vn 0.560289031 -0.826616016 0.052746214
vn 0.149134527 -0.877382187 0.456025647
vn 0.581130303 -0.708726280 0.399993289
vn 0.038219710 -0.987258900 -0.154463969
vn -0.510333527 -0.838052309 0.192945635
vn -0.023129927 -0.979178479 0.201679231
vn -0.510333527 -0.838052309 0.192945635
vn 0.038219710 -0.987258900 -0.154463969
vn -0.709747164 -0.698442488 -0.091853438
vn -0.759078685 -0.436431031 0.483039859
vn -0.510333527 -0.838052309 0.192945635
vn -0.865601423 -0.461166232 0.195089423
vn -0.510333527 -0.838052309 0.192945635
vn -0.759078685 -0.436431031 0.483039859
vn -0.345331875 -0.838193334 0.422111159
vn -0.566609569 -0.164153661 0.807469611
vn -0.865601423 -0.461166232 0.195089423
vn -0.676697141 0.493112274 0.546736925
vn -0.865601423 -0.461166232 0.195089423
vn -0.566609569 -0.164153661 0.807469611
vn -0.759078685 -0.436431031 0.483039859
vn -0.866628869 0.338628656 0.366449228
vn -0.554297300 0.648368440 0.521893542
vn -0.383014792 0.831161855 0.403075228
vn -0.554297300 0.648368440 0.521893542
vn -0.866628869 0.338628656 0.366449228
vn -0.874517664 0.484482346 0.022264593
vn -0.874517664 0.484482346 0.022264593
vn -0.339676816 0.787429658 0.514367763
vn -0.554297300 0.648368440 0.521893542
vn -0.339676816 0.787429658 0.514367763
vn -0.874517664 0.484482346 0.022264593
vn -0.550948159 0.834476490 -0.010252488
vn -0.655502962 0.160690745 0.737898605
vn -0.496896808 0.573060403 0.651686532
vn -0.451559880 0.712346157 0.537267742
vn -0.496896808 0.573060403 0.651686532
vn -0.655502962 0.160690745 0.737898605
vn -0.566609569 -0.164153661 0.807469611
vn -0.432388091 0.290347040 0.853662190
vn -0.655502962 0.160690745 0.737898605
vn -0.451559880 0.712346157 0.537267742
vn -0.676697141 0.493112274 0.546736925
vn -0.383014792 0.831161855 0.403075228
vn -0.106707614 0.769173643 0.630067768
vn -0.383014792 0.831161855 0.403075228
vn -0.676697141 0.493112274 0.546736925
vn -0.866628869 0.338628656 0.366449228
vn -0.566609569 -0.164153661 0.807469611
vn -0.106707614 0.769173643 0.630067768
vn -0.496896808 0.573060403 0.651686532
vn -0.106707614 0.769173643 0.630067768
vn -0.566609569 -0.164153661 0.807469611
vn -0.676697141 0.493112274 0.546736925
vn -0.383014792 0.831161855 0.403075228
vn -0.639739137 0.577667747 0.506985020
vn -0.450706116 0.737270006 0.503286137
vn -0.639739137 0.577667747 0.506985020
vn -0.383014792 0.831161855 0.403075228
vn -0.554297300 0.648368440 0.521893542
vn -0.554297300 0.648368440 0.521893542
vn -0.397006486 0.820642371 0.411013320
vn -0.639739137 0.577667747 0.506985020
vn -0.397006486 0.820642371 0.411013320
vn -0.554297300 0.648368440 0.521893542
vn -0.339676816 0.787429658 0.514367763
vn -0.451559880 0.712346157 0.537267742
vn -0.501175253 0.739102243 0.450056929
vn -0.406138679 0.652800286 0.639455362
vn -0.501175253 0.739102243 0.450056929
vn -0.451559880 0.712346157 0.537267742
vn -0.496896808 0.573060403 0.651686532
vn -0.432388091 0.290347040 0.853662190
vn -0.406138679 0.652800286 0.639455362
vn -0.271321449 0.766169290 0.582554109
vn -0.406138679 0.652800286 0.639455362
vn -0.432388091 0.290347040 0.853662190
vn -0.451559880 0.712346157 0.537267742
vn -0.106707614 0.769173643 0.630067768
vn -0.450706116 0.737270006 0.503286137
vn -0.304588307 0.465448772 0.831013480
vn -0.450706116 0.737270006 0.503286137
vn -0.106707614 0.769173643 0.630067768
vn -0.383014792 0.831161855 0.403075228
vn -0.496896808 0.573060403 0.651686532
vn -0.304588307 0.465448772 0.831013480
vn -0.501175253 0.739102243 0.450056929
vn -0.304588307 0.465448772 0.831013480
vn -0.496896808 0.573060403 0.651686532
vn -0.106707614 0.769173643 0.630067768
vn -0.079069013 -0.365618965 -0.927400056
vn -0.185815846 -0.746253459 -0.639201257
vn 0.228461444 -0.702020196 -0.674516874
vn -0.185815846 -0.746253459 -0.639201257
vn -0.079069013 -0.365618965 -0.927400056
vn -0.569645591 -0.440375309 -0.693954961
vn -0.492374479 0.327922296 -0.806247071
vn -0.668392614 -0.137841410 -0.730924797
vn -0.436699715 0.206734065 -0.875530916
vn 0.619764290 -0.784219457 0.029867503
vn 0.849107088 0.078588669 -0.522341817
vn 0.854674333 0.065247720 0.515048075
vn 0.849107088 0.078588669 -0.522341817
vn 0.619764290 -0.784219457 0.029867503
vn 0.406671955 -0.889336722 -0.209040946
vn 0.854674333 0.065247720 0.515048075
vn 0.204769909 0.873089185 -0.442475491
vn 0.265669337 0.717664725 0.643721326
vn 0.204769909 0.873089185 -0.442475491
vn 0.854674333 0.065247720 0.515048075
vn 0.849107088 0.078588669 -0.522341817
vn 0.265669337 0.717664725 0.643721326
vn -0.591414552 0.780246776 -0.203577494
vn -0.271321449 0.766169290 0.582554109
vn -0.591414552 0.780246776 -0.203577494
vn 0.265669337 0.717664725 0.643721326
vn 0.204769909 0.873089185 -0.442475491
vn -0.271321449 0.766169290 0.582554109
vn -0.988449717 0.131357543 -0.075580103
vn -0.432388091 0.290347040 0.853662190
vn -0.988449717 0.131357543 -0.075580103
vn -0.271321449 0.766169290 0.582554109
vn -0.591414552 0.780246776 -0.203577494
vn -0.432388091 0.290347040 0.853662190
vn -0.583414399 -0.805781551 -0.101704134
vn -0.072181250 -0.688265596 0.721858945
vn -0.583414399 -0.805781551 -0.101704134
vn -0.432388091 0.290347040 0.853662190
vn -0.988449717 0.131357543 -0.075580103
vn -0.072181250 -0.688265596 0.721858945
vn 0.406671955 -0.889336722 -0.209040946
vn 0.619764290 -0.784219457 0.029867503
vn 0.406671955 -0.889336722 -0.209040946
vn -0.072181250 -0.688265596 0.721858945
vn -0.583414399 -0.805781551 -0.101704134
vn 0.406671955 -0.889336722 -0.209040946
vn 0.914302192 -0.250821948 -0.318024923
vn 0.849107088 0.078588669 -0.522341817
vn 0.914302192 -0.250821948 -0.318024923
vn 0.406671955 -0.889336722 -0.209040946
vn 0.417686011 -0.843602047 -0.337452193
vn 0.849107088 0.078588669 -0.522341817
vn 0.914302192 -0.250821948 -0.318024923
vn 0.846690599 0.480618939 -0.228299068
vn 0.849107088 0.078588669 -0.522341817
vn 0.203604359 0.972315474 -0.114664226
vn 0.204769909 0.873089185 -0.442475491
vn 0.203604359 0.972315474 -0.114664226
vn 0.849107088 0.078588669 -0.522341817
vn 0.846690599 0.480618939 -0.228299068
vn 0.204769909 0.873089185 -0.442475491
vn -0.539264849 0.840482718 -0.052746794
vn -0.591414552 0.780246776 -0.203577494
vn -0.539264849 0.840482718 -0.052746794
vn 0.204769909 0.873089185 -0.442475491
vn 0.203604359 0.972315474 -0.114664226
vn -0.591414552 0.780246776 -0.203577494
vn -0.966725690 0.238020162 -0.093743493
vn -0.988449717 0.131357543 -0.075580103
vn -0.966725690 0.238020162 -0.093743493
vn -0.591414552 0.780246776 -0.203577494
vn -0.539264849 0.840482718 -0.052746794
vn -0.988449717 0.131357543 -0.075580103
vn -0.877517545 -0.446778352 -0.174218436
vn -0.583414399 -0.805781551 -0.101704134
vn -0.877517545 -0.446778352 -0.174218436
vn -0.988449717 0.131357543 -0.075580103
vn -0.966725690 0.238020162 -0.093743493
vn -0.583414399 -0.805781551 -0.101704134
vn -0.877517545 -0.446778352 -0.174218436
vn -0.294697083 -0.915875550 -0.272627228
vn -0.583414399 -0.805781551 -0.101704134
vn 0.417686011 -0.843602047 -0.337452193
vn 0.406671955 -0.889336722 -0.209040946
vn 0.417686011 -0.843602047 -0.337452193
vn -0.583414399 -0.805781551 -0.101704134
vn -0.294697083 -0.915875550 -0.272627228
vn 0.417686011 -0.843602047 -0.337452193
vn 0.888097907 -0.415798887 -0.195942324
vn 0.914302192 -0.250821948 -0.318024923
vn 0.888097907 -0.415798887 -0.195942324
vn 0.417686011 -0.843602047 -0.337452193
vn 0.308236639 -0.916800371 -0.253904026
vn 0.914302192 -0.250821948 -0.318024923
vn 0.948796939 0.313802008 -0.036230761
vn 0.846690599 0.480618939 -0.228299068
vn 0.948796939 0.313802008 -0.036230761
vn 0.914302192 -0.250821948 -0.318024923
vn 0.888097907 -0.415798887 -0.195942324
vn 0.846690599 0.480618939 -0.228299068
vn 0.449054269 0.886155043 0.114365656
vn 0.203604359 0.972315474 -0.114664226
vn 0.449054269 0.886155043 0.114365656
vn 0.846690599 0.480618939 -0.228299068
vn 0.948796939 0.313802008 -0.036230761
vn 0.203604359 0.972315474 -0.114664226
vn -0.322870005 0.927344949 0.189172684
vn -0.539264849 0.840482718 -0.052746794
vn -0.322870005 0.927344949 0.189172684
vn 0.203604359 0.972315474 -0.114664226
vn 0.449054269 0.886155043 0.114365656
vn -0.539264849 0.840482718 -0.052746794
vn -0.899853955 0.405520598 0.160673283
vn -0.966725690 0.238020162 -0.093743493
vn -0.899853955 0.405520598 0.160673283
vn -0.539264849 0.840482718 -0.052746794
vn -0.322870005 0.927344949 0.189172684
vn -0.966725690 0.238020162 -0.093743493
vn -0.940112208 -0.339374431 0.031843876
vn -0.877517545 -0.446778352 -0.174218436
vn -0.940112208 -0.339374431 0.031843876
vn -0.966725690 0.238020162 -0.093743493
vn -0.899853955 0.405520598 0.160673283
vn -0.877517545 -0.446778352 -0.174218436
vn -0.457510459 -0.876576562 -0.149324183
vn -0.294697083 -0.915875550 -0.272627228
vn -0.457510459 -0.876576562 -0.149324183
vn -0.877517545 -0.446778352 -0.174218436
vn -0.940112208 -0.339374431 0.031843876
vn -0.294697083 -0.915875550 -0.272627228
vn 0.308236639 -0.916800371 -0.253904026
vn 0.417686011 -0.843602047 -0.337452193
vn 0.308236639 -0.916800371 -0.253904026
vn -0.294697083 -0.915875550 -0.272627228
vn -0.457510459 -0.876576562 -0.149324183
vn 0.308236639 -0.916800371 -0.253904026
vn 0.860351978 -0.507487502 -0.047443753
vn 0.888097907 -0.415798887 -0.195942324
vn 0.860351978 -0.507487502 -0.047443753
vn 0.308236639 -0.916800371 -0.253904026
vn 0.207453297 -0.973637097 -0.094836351
vn 0.888097907 -0.415798887 -0.195942324
vn 0.980194399 0.133315427 0.146444312
vn 0.948796939 0.313802008 -0.036230761
vn 0.980194399 0.133315427 0.146444312
vn 0.888097907 -0.415798887 -0.195942324
vn 0.860351978 -0.507487502 -0.047443753
vn 0.948796939 0.313802008 -0.036230761
vn 0.652823757 0.677480187 0.338883074
vn 0.449054269 0.886155043 0.114365656
vn 0.652823757 0.677480187 0.338883074
vn 0.948796939 0.313802008 -0.036230761
vn 0.980194399 0.133315427 0.146444312
vn 0.449054269 0.886155043 0.114365656
vn -0.057805023 0.895501792 0.441288024
vn -0.322870005 0.927344949 0.189172684
vn -0.057805023 0.895501792 0.441288024
vn 0.449054269 0.886155043 0.114365656
vn 0.652823757 0.677480187 0.338883074
vn -0.322870005 0.927344949 0.189172684
vn -0.797500186 0.463206440 0.386565967
vn -0.899853955 0.405520598 0.160673283
vn -0.797500186 0.463206440 0.386565967
vn -0.322870005 0.927344949 0.189172684
vn -0.057805023 0.895501792 0.441288024
vn -0.899853955 0.405520598 0.160673283
vn -0.948547902 -0.232458023 0.214988709
vn -0.940112208 -0.339374431 0.031843876
vn -0.948547902 -0.232458023 0.214988709
vn -0.899853955 0.405520598 0.160673283
vn -0.797500186 0.463206440 0.386565967
vn -0.940112208 -0.339374431 0.031843876
vn -0.568433139 -0.822319001 0.025985138
vn -0.457510459 -0.876576562 -0.149324183
vn -0.568433139 -0.822319001 0.025985138
vn -0.940112208 -0.339374431 0.031843876
vn -0.948547902 -0.232458023 0.214988709
vn -0.457510459 -0.876576562 -0.149324183
vn 0.207453297 -0.973637097 -0.094836351
vn 0.308236639 -0.916800371 -0.253904026
vn 0.207453297 -0.973637097 -0.094836351
vn -0.457510459 -0.876576562 -0.149324183
vn -0.568433139 -0.822319001 0.025985138
vn 0.207453297 -0.973637097 -0.094836351
vn 0.915482634 -0.390679362 0.096235035
vn 0.860351978 -0.507487502 -0.047443753
vn 0.915482634 -0.390679362 0.096235035
vn 0.207453297 -0.973637097 -0.094836351
vn 0.020734330 -0.998112662 0.057803119
vn 0.860351978 -0.507487502 -0.047443753
vn 0.915482634 -0.390679362 0.096235035
vn 0.980194399 0.133315427 0.146444312
vn 0.980194399 0.133315427 0.146444312
vn 0.815062525 0.467019766 0.342878432
vn 0.652823757 0.677480187 0.338883074
vn 0.815062525 0.467019766 0.342878432
vn 0.980194399 0.133315427 0.146444312
vn 0.915482634 -0.390679362 0.096235035
vn 0.652823757 0.677480187 0.338883074
vn 0.170185819 0.821036590 0.544918071
vn -0.057805023 0.895501792 0.441288024
vn 0.170185819 0.821036590 0.544918071
vn 0.652823757 0.677480187 0.338883074
vn 0.815062525 0.467019766 0.342878432
vn -0.057805023 0.895501792 0.441288024
vn -0.599121460 0.525584768 0.603998451
vn -0.797500186 0.463206440 0.386565967
vn -0.599121460 0.525584768 0.603998451
vn -0.057805023 0.895501792 0.441288024
vn 0.170185819 0.821036590 0.544918071
vn -0.797500186 0.463206440 0.386565967
vn -0.823479008 -0.477312406 0.306684188
vn -0.948547902 -0.232458023 0.214988709
vn -0.823479008 -0.477312406 0.306684188
vn -0.797500186 0.463206440 0.386565967
vn -0.599121460 0.525584768 0.603998451
vn -0.948547902 -0.232458023 0.214988709
vn -0.823479008 -0.477312406 0.306684188
vn -0.568433139 -0.822319001 0.025985138
vn -0.568433139 -0.822319001 0.025985138
vn 0.020734330 -0.998112662 0.057803119
vn 0.207453297 -0.973637097 -0.094836351
vn 0.020734330 -0.998112662 0.057803119
vn -0.568433139 -0.822319001 0.025985138
vn -0.823479008 -0.477312406 0.306684188
vn 0.020734330 -0.998112662 0.057803119
vn 0.346195343 -0.045207023 0.937072628
vn 0.915482634 -0.390679362 0.096235035
vn 0.915482634 -0.390679362 0.096235035
vn 0.346195343 -0.045207023 0.937072628
vn 0.815062525 0.467019766 0.342878432
vn 0.815062525 0.467019766 0.342878432
vn 0.346195343 -0.045207023 0.937072628
vn 0.170185819 0.821036590 0.544918071
vn 0.170185819 0.821036590 0.544918071
vn 0.346195343 -0.045207023 0.937072628
vn -0.599121460 0.525584768 0.603998451
vn -0.599121460 0.525584768 0.603998451
vn 0.346195343 -0.045207023 0.937072628
vn -0.823479008 -0.477312406 0.306684188
vn -0.823479008 -0.477312406 0.306684188
vn 0.346195343 -0.045207023 0.937072628
vn 0.020734330 -0.998112662 0.057803119
f 3/3/3 2/2/2 1/1/1
f 6/6/6 5/5/5 4/4/4
f 9/9/9 8/8/8 7/7/7
f 12/12/12 11/11/11 10/10/10
f 15/15/15 14/14/14 13/13/13
f 18/18/18 17/17/17 16/16/16
f 21/21/21 20/20/20 19/19/19
f 24/24/24 23/23/23 22/22/22
f 27/27/27 26/26/26 25/25/25
f 30/30/30 29/29/29 28/28/28
f 33/33/33 32/32/32 31/31/31
f 36/36/36 35/35/35 34/34/34
f 39/39/39 38/38/38 37/37/37
f 42/42/42 41/41/41 40/40/40
f 45/45/45 44/44/44 43/43/43
f 48/48/48 47/47/47 46/46/46
f 51/51/51 50/50/50 49/49/49
f 54/54/54 53/53/53 52/52/52
f 57/57/57 56/56/56 55/55/55
f 60/60/60 59/59/59 58/58/58
f 63/63/63 62/62/62 61/61/61
f 66/66/66 65/65/65 64/64/64
f 69/69/69 68/68/68 67/67/67
f 72/72/72 71/71/71 70/70/70
f 75/75/75 74/74/74 73/73/73
f 78/78/78 77/77/77 76/76/76
f 81/81/81 80/80/80 79/79/79
f 84/84/84 83/83/83 82/82/82
f 87/87/87 86/86/86 85/85/85
f 90/90/90 89/89/89 88/88/88
f 93/93/93 92/92/92 91/91/91
f 96/96/96 95/95/95 94/94/94
f 99/99/99 98/98/98 97/97/97
f 102/102/102 101/101/101 100/100/100
f 105/105/105 104/104/104 103/103/103
f 108/108/108 107/107/107 106/106/106
f 111/111/111 110/110/110 109/109/109
f 114/114/114 113/113/113 112/112/112
f 117/117/117 116/116/116 115/115/115
f 120/120/120 119/119/119 118/118/118
f 123/123/123 122/122/122 121/121/121
f 126/126/126 125/125/125 124/124/124
f 129/129/129 128/128/128 127/127/127
f 132/132/132 131/131/131 130/130/130
f 135/135/135 134/134/134 133/133/133
f 138/138/138 137/137/137 136/136/136
f 141/141/141 140/140/140 139/139/139
f 144/144/144 143/143/143 142/142/142
f 147/147/147 146/146/146 145/145/145
f 150/150/150 149/149/149 148/148/148
f 153/153/153 152/152/152 151/151/151
f 156/156/156 155/155/155 154/154/154
f 159/159/159 158/158/158 157/157/157
f 162/162/162 161/161/161 160/160/160
f 165/165/165 164/164/164 163/163/163
f 168/168/168 167/167/167 166/166/166
f 171/171/171 170/170/170 169/169/169
f 174/174/174 173/173/173 172/172/172
f 177/177/177 176/176/176 175/175/175
f 180/180/180 179/179/179 178/178/178
f 183/183/183 182/182/182 181/181/181
f 186/186/186 185/185/185 184/184/184
f 189/189/189 188/188/188 187/187/187
f 192/192/192 191/191/191 190/190/190
f 195/195/195 194/194/194 193/193/193
f 198/198/198 197/197/197 196/196/196
f 201/201/201 200/200/200 199/199/199
f 204/204/204 203/203/203 202/202/202
f 207/207/207 206/206/206 205/205/205
f 210/210/210 209/209/209 208/208/208
f 213/213/213 212/212/212 211/211/211
f 216/216/216 215/215/215 214/214/214
f 219/219/219 218/218/218 217/217/217
f 222/222/222 221/221/221 220/220/220
f 225/225/225 224/224/224 223/223/223
f 228/228/228 227/227/227 226/226/226
f 231/231/231 230/230/230 229/229/229
f 234/234/234 233/233/233 232/232/232
f 237/237/237 236/236/236 235/235/235
f 240/240/240 239/239/239 238/238/238
f 243/243/243 242/242/242 241/241/241
f 246/246/246 245/245/245 244/244/244
f 249/249/249 248/248/248 247/247/247
f 252/252/252 251/251/251 250/250/250
f 255/255/255 254/254/254 253/253/253
f 258/258/258 257/257/257 256/256/256
f 261/261/261 260/260/260 259/259/259
f 264/264/264 263/263/263 262/262/262
f 267/267/267 266/266/266 265/265/265
f 270/270/270 269/269/269 268/268/268
f 273/273/273 272/272/272 271/271/271
f 276/276/276 275/275/275 274/274/274
f 279/279/279 278/278/278 277/277/277
f 282/282/282 281/281/281 280/280/280
f 285/285/285 284/284/284 283/283/283
f 288/288/288 287/287/287 286/286/286
f 291/291/291 290/290/290 289/289/289
f 294/294/294 293/293/293 292/292/292
f 297/297/297 296/296/296 295/295/295
f 300/300/300 299/299/299 298/298/298
f 303/303/303 302/302/302 301/301/301
f 306/306/306 305/305/305 304/304/304
f 309/309/309 308/308/308 307/307/307
f 312/312/312 311/311/311 310/310/310
f 315/315/315 314/314/314 313/313/313
f 318/318/318 317/317/317 316/316/316
f 321/321/321 320/320/320 319/319/319
f 324/324/324 323/323/323 322/322/322
f 327/327/327 326/326/326 325/325/325
f 330/330/330 329/329/329 328/328/328
f 333/333/333 332/332/332 331/331/331
f 336/336/336 335/335/335 334/334/334
f 339/339/339 338/338/338 337/337/337
f 342/342/342 341/341/341 340/340/340
f 345/345/345 344/344/344 343/343/343
f 348/348/348 347/347/347 346/346/346
f 351/351/351 350/350/350 349/349/349
f 354/354/354 353/353/353 352/352/352
f 357/357/357 356/356/356 355/355/355
f 360/360/360 359/359/359 358/358/358
f 363/363/363 362/362/362 361/361/361
f 366/366/366 365/365/365 364/364/364
f 369/369/369 368/368/368 367/367/367
f 372/372/372 371/371/371 370/370/370
f 375/375/375 374/374/374 373/373/373
f 378/378/378 377/377/377 376/376/376
f 381/381/381 380/380/380 379/379/379
f 384/384/384 383/383/383 382/382/382
f 387/387/387 386/386/386 385/385/385
f 390/390/390 389/389/389 388/388/388
f 393/393/393 392/392/392 391/391/391
f 396/396/396 395/395/395 394/394/394
f 399/399/399 398/398/398 397/397/397
f 402/402/402 401/401/401 400/400/400
f 405/405/405 404/404/404 403/403/403
f 408/408/408 407/407/407 406/406/406
f 411/411/411 410/410/410 409/409/409
f 414/414/414 413/413/413 412/412/412
f 417/417/417 416/416/416 415/415/415
f 420/420/420 419/419/419 418/418/418
f 423/423/423 422/422/422 421/421/421
f 426/426/426 425/425/425 424/424/424
f 429/429/429 428/428/428 427/427/427
f 432/432/432 431/431/431 430/430/430
f 435/435/435 434/434/434 433/433/433
f 438/438/438 437/437/437 436/436/436
f 441/441/441 440/440/440 439/439/439
f 444/444/444 443/443/443 442/442/442
f 447/447/447 446/446/446 445/445/445
f 450/450/450 449/449/449 448/448/448
f 453/453/453 452/452/452 451/451/451
f 456/456/456 455/455/455 454/454/454
f 459/459/459 458/458/458 457/457/457
f 462/462/462 461/461/461 460/460/460
f 465/465/465 464/464/464 463/463/463
f 468/468/468 467/467/467 466/466/466
f 471/471/471 470/470/470 469/469/469
f 474/474/474 473/473/473 472/472/472
f 477/477/477 476/476/476 475/475/475
f 480/480/480 479/479/479 478/478/478
f 483/483/483 482/482/482 481/481/481
f 486/486/486 485/485/485 484/484/484
f 489/489/489 488/488/488 487/487/487
f 492/492/492 491/491/491 490/490/490
f 495/495/495 494/494/494 493/493/493
f 498/498/498 497/497/497 496/496/496
f 501/501/501 500/500/500 499/499/499
f 504/504/504 503/503/503 502/502/502
f 507/507/507 506/506/506 505/505/505
f 510/510/510 509/509/509 508/508/508
f 513/513/513 512/512/512 511/511/511
f 516/516/516 515/515/515 514/514/514
f 519/519/519 518/518/518 517/517/517
f 522/522/522 521/521/521 520/520/520
f 525/525/525 524/524/524 523/523/523
f 528/528/528 527/527/527 526/526/526
f 531/531/531 530/530/530 529/529/529
f 534/534/534 533/533/533 532/532/532
f 537/537/537 536/536/536 535/535/535
f 540/540/540 539/539/539 538/538/538
f 543/543/543 542/542/542 541/541/541
f 546/546/546 545/545/545 544/544/544
f 549/549/549 548/548/548 547/547/547
f 552/552/552 551/551/551 550/550/550
f 555/555/555 554/554/554 553/553/553
f 558/558/558 557/557/557 556/556/556
f 561/561/561 560/560/560 559/559/559
f 564/564/564 563/563/563 562/562/562
f 567/567/567 566/566/566 565/565/565
f 570/570/570 569/569/569 568/568/568
f 573/573/573 572/572/572 571/571/571
f 576/576/576 575/575/575 574/574/574
f 579/579/579 578/578/578 577/577/577
f 582/582/582 581/581/581 580/580/580
f 585/585/585 584/584/584 583/583/583
f 588/588/588 587/587/587 586/586/586
f 591/591/591 590/590/590 589/589/589
f 594/594/594 593/593/593 592/592/592
f 597/597/597 596/596/596 595/595/595
f 600/600/600 599/599/599 598/598/598
f 603/603/603 602/602/602 601/601/601
f 606/606/606 605/605/605 604/604/604
f 609/609/609 608/608/608 607/607/607
f 612/612/612 611/611/611 610/610/610
f 615/615/615 614/614/614 613/613/613
f 618/618/618 617/617/617 616/616/616
f 621/621/621 620/620/620 619/619/619
f 624/624/624 623/623/623 622/622/622
f 627/627/627 626/626/626 625/625/625
f 630/630/630 629/629/629 628/628/628
f 633/633/633 632/632/632 631/631/631
f 636/636/636 635/635/635 634/634/634
f 639/639/639 638/638/638 637/637/637
f 642/642/642 641/641/641 640/640/640
f 645/645/645 644/644/644 643/643/643
f 648/648/648 647/647/647 646/646/646
