# Static pose baked from local Project Zomboid assets
o Kate_Hair_Bun
v -0.071504906 0.009070402 -0.432728287
v -0.080165281 -0.014551476 -0.400853361
v -0.049482052 -0.007589968 -0.400468731
v -0.071504906 0.009070402 -0.432728287
v -0.105120155 -0.006219325 -0.415223221
v -0.080165281 -0.014551476 -0.400853361
v -0.071504906 0.009070402 -0.432728287
v -0.115481639 0.019787945 -0.438044589
v -0.105120155 -0.006219325 -0.415223221
v -0.071504906 0.009070402 -0.432728287
v -0.100810702 0.042579094 -0.454025772
v -0.115481639 0.019787945 -0.438044589
v -0.071504906 0.009070402 -0.432728287
v -0.070127473 0.049540600 -0.453641142
v -0.100810702 0.042579094 -0.454025772
v -0.071504906 0.009070402 -0.432728287
v -0.040978241 0.035858225 -0.437280572
v -0.070127473 0.049540600 -0.453641142
v -0.071504906 0.009070402 -0.432728287
v -0.034810311 0.015201707 -0.416450190
v -0.040978241 0.035858225 -0.437280572
v -0.071504906 0.009070402 -0.432728287
v -0.049482052 -0.007589968 -0.400468731
v -0.034810311 0.015201707 -0.416450190
v -0.089266669 -0.011298012 -0.364527027
v -0.049482052 -0.007589968 -0.400468731
v -0.080165281 -0.014551476 -0.400853361
v -0.049482052 -0.007589968 -0.400468731
v -0.089266669 -0.011298012 -0.364527027
v -0.041566048 -0.000561966 -0.364042385
v -0.126595370 0.001969891 -0.382028835
v -0.080165281 -0.014551476 -0.400853361
v -0.105120155 -0.006219325 -0.415223221
v -0.080165281 -0.014551476 -0.400853361
v -0.126595370 0.001969891 -0.382028835
v -0.089266669 -0.011298012 -0.364527027
v -0.145704680 0.045206778 -0.420855583
v -0.105120155 -0.006219325 -0.415223221
v -0.115481639 0.019787945 -0.438044589
v -0.105120155 -0.006219325 -0.415223221
v -0.145704680 0.045206778 -0.420855583
v -0.126595370 0.001969891 -0.382028835
v -0.122919752 0.080709914 -0.445578028
v -0.115481639 0.019787945 -0.438044589
v -0.100810702 0.042579094 -0.454025772
v -0.115481639 0.019787945 -0.438044589
v -0.122919752 0.080709914 -0.445578028
v -0.145704680 0.045206778 -0.420855583
v -0.075219290 0.091445694 -0.445094351
v -0.100810702 0.042579094 -0.454025772
v -0.070127473 0.049540600 -0.453641142
v -0.100810702 0.042579094 -0.454025772
v -0.075219290 0.091445694 -0.445094351
v -0.122919752 0.080709914 -0.445578028
v -0.026914242 0.067361418 -0.416307538
v -0.070127473 0.049540600 -0.453641142
v -0.040978241 0.035858225 -0.437280572
v -0.070127473 0.049540600 -0.453641142
v -0.026914242 0.067361418 -0.416307538
v -0.075219290 0.091445694 -0.445094351
v -0.018781278 0.034940905 -0.388765796
v -0.040978241 0.035858225 -0.437280572
v -0.034810311 0.015201707 -0.416450190
v -0.040978241 0.035858225 -0.437280572
v -0.018781278 0.034940905 -0.388765796
v -0.026914242 0.067361418 -0.416307538
v -0.041566048 -0.000561966 -0.364042385
v -0.034810311 0.015201707 -0.416450190
v -0.049482052 -0.007589968 -0.400468731
v -0.034810311 0.015201707 -0.416450190
v -0.041566048 -0.000561966 -0.364042385
v -0.018781278 0.034940905 -0.388765796
v -0.089003402 0.025003913 -0.324267312
v -0.041566048 -0.000561966 -0.364042385
v -0.089266669 -0.011298012 -0.364527027
v -0.041566048 -0.000561966 -0.364042385
v -0.089003402 0.025003913 -0.324267312
v -0.053067725 0.040008843 -0.320094188
v -0.124267835 0.015972570 -0.368252424
v -0.089266669 -0.011298012 -0.364527027
v -0.126595370 0.001969891 -0.382028835
v -0.089266669 -0.011298012 -0.364527027
v -0.124267835 0.015972570 -0.368252424
v -0.089003402 0.025003913 -0.324267312
v -0.147399554 0.058228952 -0.409196910
v -0.126595370 0.001969891 -0.382028835
v -0.145704680 0.045206778 -0.420855583
v -0.126595370 0.001969891 -0.382028835
v -0.147399554 0.058228952 -0.409196910
v -0.124267835 0.015972570 -0.368252424
v -0.124808976 0.091998423 -0.429537370
v -0.145704680 0.045206778 -0.420855583
v -0.122919752 0.080709914 -0.445578028
v -0.145704680 0.045206778 -0.420855583
v -0.124808976 0.091998423 -0.429537370
v -0.147399554 0.058228952 -0.409196910
v -0.080580103 0.102062986 -0.432175022
v -0.122919752 0.080709914 -0.445578028
v -0.075219290 0.091445694 -0.445094351
v -0.122919752 0.080709914 -0.445578028
v -0.080580103 0.102062986 -0.432175022
v -0.124808976 0.091998423 -0.429537370
v -0.033337714 0.075623374 -0.399521799
v -0.075219290 0.091445694 -0.445094351
v -0.026914242 0.067361418 -0.416307538
v -0.075219290 0.091445694 -0.445094351
v -0.033337714 0.075623374 -0.399521799
v -0.080580103 0.102062986 -0.432175022
v -0.031733722 0.062573230 -0.343961414
v -0.026914242 0.067361418 -0.416307538
v -0.018781278 0.034940905 -0.388765796
v -0.026914242 0.067361418 -0.416307538
v -0.031733722 0.062573230 -0.343961414
v -0.033337714 0.075623374 -0.399521799
v -0.053067725 0.040008843 -0.320094188
v -0.018781278 0.034940905 -0.388765796
v -0.041566048 -0.000561966 -0.364042385
v -0.018781278 0.034940905 -0.388765796
v -0.053067725 0.040008843 -0.320094188
v -0.031733722 0.062573230 -0.343961414
v -0.069735423 0.060006322 -0.330415148
v -0.053067725 0.040008843 -0.320094188
v -0.089003402 0.025003913 -0.324267312
v -0.069735423 0.060006322 -0.330415148
v -0.089003402 0.025003913 -0.324267312
v -0.124267835 0.015972570 -0.368252424
v -0.069735423 0.060006322 -0.330415148
v -0.124267835 0.015972570 -0.368252424
v -0.147399554 0.058228952 -0.409196910
v -0.069735423 0.060006322 -0.330415148
v -0.147399554 0.058228952 -0.409196910
v -0.124808976 0.091998423 -0.429537370
v -0.069735423 0.060006322 -0.330415148
v -0.124808976 0.091998423 -0.429537370
v -0.080580103 0.102062986 -0.432175022
v -0.069735423 0.060006322 -0.330415148
v -0.080580103 0.102062986 -0.432175022
v -0.033337714 0.075623374 -0.399521799
v -0.069735423 0.060006322 -0.330415148
v -0.033337714 0.075623374 -0.399521799
v -0.031733722 0.062573230 -0.343961414
v -0.069735423 0.060006322 -0.330415148
v -0.031733722 0.062573230 -0.343961414
v -0.053067725 0.040008843 -0.320094188
v -0.055091139 -0.019976695 -0.440409189
v -0.061266696 -0.033382378 -0.418955248
v -0.042819505 -0.027266019 -0.418629188
v -0.055091139 -0.019976695 -0.440409189
v -0.076940899 -0.029214534 -0.429668208
v -0.061266696 -0.033382378 -0.418955248
v -0.055091139 -0.019976695 -0.440409189
v -0.080660452 -0.017205547 -0.444491909
v -0.076940899 -0.029214534 -0.429668208
v -0.055091139 -0.019976695 -0.440409189
v -0.070246183 -0.004388574 -0.454742891
v -0.080660452 -0.017205547 -0.444491909
v -0.055091139 -0.019976695 -0.440409189
v -0.051799001 0.001727770 -0.454416887
v -0.070246183 -0.004388574 -0.454742891
v -0.055091139 -0.019976695 -0.440409189
v -0.036125362 -0.002439252 -0.443704000
v -0.051799001 0.001727770 -0.454416887
v -0.055091139 -0.019976695 -0.440409189
v -0.032405245 -0.014449062 -0.428880227
v -0.036125362 -0.002439252 -0.443704000
v -0.055091139 -0.019976695 -0.440409189
v -0.042819505 -0.027266019 -0.418629188
v -0.032405245 -0.014449062 -0.428880227
v -0.066708009 -0.030634979 -0.402621068
v -0.042819505 -0.027266019 -0.418629188
v -0.061266696 -0.033382378 -0.418955248
v -0.042819505 -0.027266019 -0.418629188
v -0.066708009 -0.030634979 -0.402621068
v -0.040620268 -0.021985310 -0.402160185
v -0.088874096 -0.024742074 -0.417772015
v -0.061266696 -0.033382378 -0.418955248
v -0.076940899 -0.029214534 -0.429668208
v -0.061266696 -0.033382378 -0.418955248
v -0.088874096 -0.024742074 -0.417772015
v -0.066708009 -0.030634979 -0.402621068
v -0.094134844 -0.007757801 -0.438735737
v -0.076940899 -0.029214534 -0.429668208
v -0.080660452 -0.017205547 -0.444491909
v -0.076940899 -0.029214534 -0.429668208
v -0.094134844 -0.007757801 -0.438735737
v -0.088874096 -0.024742074 -0.417772015
v -0.079407048 0.010367812 -0.453232412
v -0.080660452 -0.017205547 -0.444491909
v -0.070246183 -0.004388574 -0.454742891
v -0.080660452 -0.017205547 -0.444491909
v -0.079407048 0.010367812 -0.453232412
v -0.094134844 -0.007757801 -0.438735737
v -0.053319307 0.019017481 -0.452771529
v -0.070246183 -0.004388574 -0.454742891
v -0.051799001 0.001727770 -0.454416887
v -0.070246183 -0.004388574 -0.454742891
v -0.053319307 0.019017481 -0.452771529
v -0.079407048 0.010367812 -0.453232412
v -0.031152804 0.013123503 -0.437621419
v -0.051799001 0.001727770 -0.454416887
v -0.036125362 -0.002439252 -0.443704000
v -0.051799001 0.001727770 -0.454416887
v -0.031152804 0.013123503 -0.437621419
v -0.053319307 0.019017481 -0.452771529
v -0.025892472 -0.003859698 -0.416656861
v -0.036125362 -0.002439252 -0.443704000
v -0.032405245 -0.014449062 -0.428880227
v -0.036125362 -0.002439252 -0.443704000
v -0.025892472 -0.003859698 -0.416656861
v -0.031152804 0.013123503 -0.437621419
v -0.040620268 -0.021985310 -0.402160185
v -0.032405245 -0.014449062 -0.428880227
v -0.042819505 -0.027266019 -0.418629188
v -0.032405245 -0.014449062 -0.428880227
v -0.040620268 -0.021985310 -0.402160185
v -0.025892472 -0.003859698 -0.416656861
v -0.068228311 -0.013345274 -0.400975709
v -0.040620268 -0.021985310 -0.402160185
v -0.066708009 -0.030634979 -0.402621068
v -0.040620268 -0.021985310 -0.402160185
v -0.068228311 -0.013345274 -0.400975709
v -0.049781124 -0.007228909 -0.400649650
v -0.083901954 -0.009178246 -0.411688597
v -0.066708009 -0.030634979 -0.402621068
v -0.088874096 -0.024742074 -0.417772015
v -0.066708009 -0.030634979 -0.402621068
v -0.083901954 -0.009178246 -0.411688597
v -0.068228311 -0.013345274 -0.400975709
v -0.087621497 0.002830756 -0.426512242
v -0.088874096 -0.024742074 -0.417772015
v -0.094134844 -0.007757801 -0.438735737
v -0.088874096 -0.024742074 -0.417772015
v -0.087621497 0.002830756 -0.426512242
v -0.083901954 -0.009178246 -0.411688597
v -0.077207233 0.015647707 -0.436763280
v -0.094134844 -0.007757801 -0.438735737
v -0.079407048 0.010367812 -0.453232412
v -0.094134844 -0.007757801 -0.438735737
v -0.077207233 0.015647707 -0.436763280
v -0.087621497 0.002830756 -0.426512242
v -0.058760046 0.021764073 -0.436437221
v -0.079407048 0.010367812 -0.453232412
v -0.053319307 0.019017481 -0.452771529
v -0.079407048 0.010367812 -0.453232412
v -0.058760046 0.021764073 -0.436437221
v -0.077207233 0.015647707 -0.436763280
v -0.043086417 0.017597035 -0.425724390
v -0.053319307 0.019017481 -0.452771529
v -0.031152804 0.013123503 -0.437621419
v -0.053319307 0.019017481 -0.452771529
v -0.043086417 0.017597035 -0.425724390
v -0.058760046 0.021764073 -0.436437221
v -0.039366860 0.005588042 -0.410900688
v -0.031152804 0.013123503 -0.437621419
v -0.025892472 -0.003859698 -0.416656861
v -0.031152804 0.013123503 -0.437621419
v -0.039366860 0.005588042 -0.410900688
v -0.043086417 0.017597035 -0.425724390
v -0.049781124 -0.007228909 -0.400649650
v -0.025892472 -0.003859698 -0.416656861
v -0.040620268 -0.021985310 -0.402160185
v -0.025892472 -0.003859698 -0.416656861
v -0.049781124 -0.007228909 -0.400649650
v -0.039366860 0.005588042 -0.410900688
v -0.064936168 0.008359212 -0.414983352
v -0.049781124 -0.007228909 -0.400649650
v -0.068228311 -0.013345274 -0.400975709
v -0.064936168 0.008359212 -0.414983352
v -0.068228311 -0.013345274 -0.400975709
v -0.083901954 -0.009178246 -0.411688597
v -0.064936168 0.008359212 -0.414983352
v -0.083901954 -0.009178246 -0.411688597
v -0.087621497 0.002830756 -0.426512242
v -0.064936168 0.008359212 -0.414983352
v -0.087621497 0.002830756 -0.426512242
v -0.077207233 0.015647707 -0.436763280
v -0.064936168 0.008359212 -0.414983352
v -0.077207233 0.015647707 -0.436763280
v -0.058760046 0.021764073 -0.436437221
v -0.064936168 0.008359212 -0.414983352
v -0.058760046 0.021764073 -0.436437221
v -0.043086417 0.017597035 -0.425724390
v -0.064936168 0.008359212 -0.414983352
v -0.043086417 0.017597035 -0.425724390
v -0.039366860 0.005588042 -0.410900688
v -0.064936168 0.008359212 -0.414983352
v -0.039366860 0.005588042 -0.410900688
v -0.049781124 -0.007228909 -0.400649650
vt 0.154459998 0.009316981
vt 0.201528996 0.070632994
vt 0.106816001 0.070632994
vt 0.248598993 0.009316981
vt 0.298539013 0.070632994
vt 0.201528996 0.070632994
vt 0.348479003 0.009316981
vt 0.397843987 0.070632994
vt 0.298539013 0.070632994
vt 0.447210014 0.009316981
vt 0.493781000 0.070632994
vt 0.397843987 0.070632994
vt 0.540351987 0.009316981
vt 0.587336004 0.070632994
vt 0.493781000 0.070632994
vt 0.634320021 0.009316981
vt 0.682923973 0.070632994
vt 0.587336004 0.070632994
vt 0.731527984 0.009316981
vt 0.775116980 0.070632994
vt 0.682923973 0.070632994
vt 0.059172001 0.009316981
vt 0.106816001 0.070632994
vt 0.015582000 0.070632994
vt 0.201528996 0.221266031
vt 0.106816001 0.070632994
vt 0.201528996 0.070632994
vt 0.106816001 0.070632994
vt 0.201528996 0.221266031
vt 0.106816001 0.221266031
vt 0.298539013 0.221266031
vt 0.201528996 0.070632994
vt 0.298539013 0.070632994
vt 0.201528996 0.070632994
vt 0.298539013 0.221266031
vt 0.201528996 0.221266031
vt 0.397843987 0.221266031
vt 0.298539013 0.070632994
vt 0.397843987 0.070632994
vt 0.298539013 0.070632994
vt 0.397843987 0.221266031
vt 0.298539013 0.221266031
vt 0.493781000 0.221266031
vt 0.397843987 0.070632994
vt 0.493781000 0.070632994
vt 0.397843987 0.070632994
vt 0.493781000 0.221266031
vt 0.397843987 0.221266031
vt 0.587336004 0.221266031
vt 0.493781000 0.070632994
vt 0.587336004 0.070632994
vt 0.493781000 0.070632994
vt 0.587336004 0.221266031
vt 0.493781000 0.221266031
vt 0.682923973 0.221266031
vt 0.587336004 0.070632994
vt 0.682923973 0.070632994
vt 0.587336004 0.070632994
vt 0.682923973 0.221266031
vt 0.587336004 0.221266031
vt 0.775116980 0.221266031
vt 0.682923973 0.070632994
vt 0.775116980 0.070632994
vt 0.682923973 0.070632994
vt 0.775116980 0.221266031
vt 0.682923973 0.221266031
vt 0.106816001 0.221266031
vt 0.015582000 0.070632994
vt 0.106816001 0.070632994
vt 0.015582000 0.070632994
vt 0.106816001 0.221266031
vt 0.015582000 0.221266031
vt 0.201528996 0.329205990
vt 0.106816001 0.221266031
vt 0.201528996 0.221266031
vt 0.106816001 0.221266031
vt 0.201528996 0.329205990
vt 0.106816001 0.329205990
vt 0.298539013 0.329205990
vt 0.201528996 0.221266031
vt 0.298539013 0.221266031
vt 0.201528996 0.221266031
vt 0.298539013 0.329205990
vt 0.201528996 0.329205990
vt 0.397843987 0.329205990
vt 0.298539013 0.221266031
vt 0.397843987 0.221266031
vt 0.298539013 0.221266031
vt 0.397843987 0.329205990
vt 0.298539013 0.329205990
vt 0.493781000 0.329205990
vt 0.397843987 0.221266031
vt 0.493781000 0.221266031
vt 0.397843987 0.221266031
vt 0.493781000 0.329205990
vt 0.397843987 0.329205990
vt 0.587336004 0.329205990
vt 0.493781000 0.221266031
vt 0.587336004 0.221266031
vt 0.493781000 0.221266031
vt 0.587336004 0.329205990
vt 0.493781000 0.329205990
vt 0.682923973 0.329205990
vt 0.587336004 0.221266031
vt 0.682923973 0.221266031
vt 0.587336004 0.221266031
vt 0.682923973 0.329205990
vt 0.587336004 0.329205990
vt 0.775116980 0.329205990
vt 0.682923973 0.221266031
vt 0.775116980 0.221266031
vt 0.682923973 0.221266031
vt 0.775116980 0.329205990
vt 0.682923973 0.329205990
vt 0.106816001 0.329205990
vt 0.015582000 0.221266031
vt 0.106816001 0.221266031
vt 0.015582000 0.221266031
vt 0.106816001 0.329205990
vt 0.015582000 0.329205990
vt 0.154459998 0.351482034
vt 0.106816001 0.329205990
vt 0.201528996 0.329205990
vt 0.248598993 0.351482034
vt 0.201528996 0.329205990
vt 0.298539013 0.329205990
vt 0.348479003 0.351482034
vt 0.298539013 0.329205990
vt 0.397843987 0.329205990
vt 0.447210014 0.351482034
vt 0.397843987 0.329205990
vt 0.493781000 0.329205990
vt 0.540351987 0.351482034
vt 0.493781000 0.329205990
vt 0.587336004 0.329205990
vt 0.634320021 0.351482034
vt 0.587336004 0.329205990
vt 0.682923973 0.329205990
vt 0.731527984 0.351482034
vt 0.682923973 0.329205990
vt 0.775116980 0.329205990
vt 0.059172001 0.351482034
vt 0.015582000 0.329205990
vt 0.106816001 0.329205990
vt 0.335110009 0.379826009
vt 0.377016991 0.437445045
vt 0.304392993 0.437445045
vt 0.408868015 0.379826009
vt 0.448556006 0.437445045
vt 0.377016991 0.437445045
vt 0.478188008 0.379826009
vt 0.519293010 0.437445045
vt 0.448556006 0.437445045
vt 0.550342023 0.379826009
vt 0.587228000 0.437445045
vt 0.519293010 0.437445045
vt 0.049461000 0.379826009
vt 0.090458997 0.437445045
vt 0.022630000 0.437445045
vt 0.121402003 0.379826009
vt 0.162515000 0.437445045
vt 0.090458997 0.437445045
vt 0.193572998 0.379826009
vt 0.233623996 0.437445045
vt 0.162515000 0.437445045
vt 0.263619989 0.379826009
vt 0.304392993 0.437445045
vt 0.233623996 0.437445045
vt 0.377016991 0.506259024
vt 0.304392993 0.437445045
vt 0.377016991 0.437445045
vt 0.304392993 0.437445045
vt 0.377016991 0.506259024
vt 0.304392993 0.506259024
vt 0.448556006 0.506259024
vt 0.377016991 0.437445045
vt 0.448556006 0.437445045
vt 0.377016991 0.437445045
vt 0.448556006 0.506259024
vt 0.377016991 0.506259024
vt 0.519293010 0.506259024
vt 0.448556006 0.437445045
vt 0.519293010 0.437445045
vt 0.448556006 0.437445045
vt 0.519293010 0.506259024
vt 0.448556006 0.506259024
vt 0.587228000 0.506259024
vt 0.519293010 0.437445045
vt 0.587228000 0.437445045
vt 0.519293010 0.437445045
vt 0.587228000 0.506259024
vt 0.519293010 0.506259024
vt 0.090458997 0.506259024
vt 0.022630000 0.437445045
vt 0.090458997 0.437445045
vt 0.022630000 0.437445045
vt 0.090458997 0.506259024
vt 0.022630000 0.506259024
vt 0.162515000 0.506259024
vt 0.090458997 0.437445045
vt 0.162515000 0.437445045
vt 0.090458997 0.437445045
vt 0.162515000 0.506259024
vt 0.090458997 0.506259024
vt 0.233623996 0.506259024
vt 0.162515000 0.437445045
vt 0.233623996 0.437445045
vt 0.162515000 0.437445045
vt 0.233623996 0.506259024
vt 0.162515000 0.506259024
vt 0.304392993 0.506259024
vt 0.233623996 0.437445045
vt 0.304392993 0.437445045
vt 0.233623996 0.437445045
vt 0.304392993 0.506259024
vt 0.233623996 0.506259024
vt 0.377016991 0.575073004
vt 0.304392993 0.506259024
vt 0.377016991 0.506259024
vt 0.304392993 0.506259024
vt 0.377016991 0.575073004
vt 0.304392993 0.575073004
vt 0.448556006 0.575073004
vt 0.377016991 0.506259024
vt 0.448556006 0.506259024
vt 0.377016991 0.506259024
vt 0.448556006 0.575073004
vt 0.377016991 0.575073004
vt 0.519293010 0.575073004
vt 0.448556006 0.506259024
vt 0.519293010 0.506259024
vt 0.448556006 0.506259024
vt 0.519293010 0.575073004
vt 0.448556006 0.575073004
vt 0.587228000 0.575073004
vt 0.519293010 0.506259024
vt 0.587228000 0.506259024
vt 0.519293010 0.506259024
vt 0.587228000 0.575073004
vt 0.519293010 0.575073004
vt 0.090458997 0.575073004
vt 0.022630000 0.506259024
vt 0.090458997 0.506259024
vt 0.022630000 0.506259024
vt 0.090458997 0.575073004
vt 0.022630000 0.575073004
vt 0.162515000 0.575073004
vt 0.090458997 0.506259024
vt 0.162515000 0.506259024
vt 0.090458997 0.506259024
vt 0.162515000 0.575073004
vt 0.090458997 0.575073004
vt 0.233623996 0.575073004
vt 0.162515000 0.506259024
vt 0.233623996 0.506259024
vt 0.162515000 0.506259024
vt 0.233623996 0.575073004
vt 0.162515000 0.575073004
vt 0.304392993 0.575073004
vt 0.233623996 0.506259024
vt 0.304392993 0.506259024
vt 0.233623996 0.506259024
vt 0.304392993 0.575073004
vt 0.233623996 0.575073004
vt 0.339987993 0.625446975
vt 0.304392993 0.575073004
vt 0.377016991 0.575073004
vt 0.413745999 0.625446975
vt 0.377016991 0.575073004
vt 0.448556006 0.575073004
vt 0.483065993 0.625446975
vt 0.448556006 0.575073004
vt 0.519293010 0.575073004
vt 0.555220008 0.625446975
vt 0.519293010 0.575073004
vt 0.587228000 0.575073004
vt 0.054338999 0.625446975
vt 0.022630000 0.575073004
vt 0.090458997 0.575073004
vt 0.126279995 0.625446975
vt 0.090458997 0.575073004
vt 0.162515000 0.575073004
vt 0.198451996 0.625446975
vt 0.162515000 0.575073004
vt 0.233623996 0.575073004
vt 0.268498003 0.625446975
vt 0.233623996 0.575073004
vt 0.304392993 0.575073004
vn 0.162155268 -0.640622845 -0.750538500
vn -0.064985463 -0.978424222 -0.196119688
vn 0.387596710 -0.903571014 -0.182560163
vn 0.162155268 -0.640622845 -0.750538500
vn -0.464849242 -0.774207095 -0.429556231
vn -0.064985463 -0.978424222 -0.196119688
vn 0.162155268 -0.640622845 -0.750538500
vn -0.455923664 -0.449973615 -0.767891501
vn -0.464849242 -0.774207095 -0.429556231
vn 0.162155268 -0.640622845 -0.750538500
vn -0.116067885 -0.140250131 -0.983289452
vn -0.455923664 -0.449973615 -0.767891501
vn 0.162155268 -0.640622845 -0.750538500
vn 0.371679276 -0.009530962 -0.928312273
vn -0.116067885 -0.140250131 -0.983289452
vn 0.162155268 -0.640622845 -0.750538500
vn 0.683051080 -0.211930435 -0.698946860
vn 0.371679276 -0.009530962 -0.928312273
vn 0.162155268 -0.640622845 -0.750538500
vn 0.734905856 -0.567018155 -0.372026604
vn 0.683051080 -0.211930435 -0.698946860
vn 0.162155268 -0.640622845 -0.750538500
vn 0.387596710 -0.903571014 -0.182560163
vn 0.734905856 -0.567018155 -0.372026604
vn -0.125153680 -0.892158522 0.434038855
vn 0.387596710 -0.903571014 -0.182560163
vn -0.064985463 -0.978424222 -0.196119688
vn 0.387596710 -0.903571014 -0.182560163
vn -0.125153680 -0.892158522 0.434038855
vn 0.570153862 -0.699034146 0.431596845
vn -0.717726280 -0.694139814 0.055126273
vn -0.064985463 -0.978424222 -0.196119688
vn -0.464849242 -0.774207095 -0.429556231
vn -0.064985463 -0.978424222 -0.196119688
vn -0.717726280 -0.694139814 0.055126273
vn -0.125153680 -0.892158522 0.434038855
vn -0.840171461 -0.312683577 -0.443103709
vn -0.464849242 -0.774207095 -0.429556231
vn -0.455923664 -0.449973615 -0.767891501
vn -0.464849242 -0.774207095 -0.429556231
vn -0.840171461 -0.312683577 -0.443103709
vn -0.717726280 -0.694139814 0.055126273
vn -0.459557968 0.205688664 -0.864001532
vn -0.455923664 -0.449973615 -0.767891501
vn -0.116067885 -0.140250131 -0.983289452
vn -0.455923664 -0.449973615 -0.767891501
vn -0.459557968 0.205688664 -0.864001532
vn -0.840171461 -0.312683577 -0.443103709
vn 0.319203207 0.465651859 -0.825395456
vn -0.116067885 -0.140250131 -0.983289452
vn 0.371679276 -0.009530962 -0.928312273
vn -0.116067885 -0.140250131 -0.983289452
vn 0.319203207 0.465651859 -0.825395456
vn -0.459557968 0.205688664 -0.864001532
vn 0.842900901 0.326324957 -0.427820165
vn 0.371679276 -0.009530962 -0.928312273
vn 0.683051080 -0.211930435 -0.698946860
vn 0.371679276 -0.009530962 -0.928312273
vn 0.842900901 0.326324957 -0.427820165
vn 0.319203207 0.465651859 -0.825395456
vn 0.975865772 -0.191415700 0.105100074
vn 0.683051080 -0.211930435 -0.698946860
vn 0.734905856 -0.567018155 -0.372026604
vn 0.683051080 -0.211930435 -0.698946860
vn 0.975865772 -0.191415700 0.105100074
vn 0.842900901 0.326324957 -0.427820165
vn 0.570153862 -0.699034146 0.431596845
vn 0.734905856 -0.567018155 -0.372026604
vn 0.387596710 -0.903571014 -0.182560163
vn 0.734905856 -0.567018155 -0.372026604
vn 0.570153862 -0.699034146 0.431596845
vn 0.975865772 -0.191415700 0.105100074
vn -0.274549279 -0.455944859 0.846603200
vn 0.570153862 -0.699034146 0.431596845
vn -0.125153680 -0.892158522 0.434038855
vn 0.570153862 -0.699034146 0.431596845
vn -0.274549279 -0.455944859 0.846603200
vn 0.619963686 -0.271533879 0.736148341
vn -0.761792466 0.030889087 0.647084309
vn -0.125153680 -0.892158522 0.434038855
vn -0.717726280 -0.694139814 0.055126273
vn -0.125153680 -0.892158522 0.434038855
vn -0.761792466 0.030889087 0.647084309
vn -0.274549279 -0.455944859 0.846603200
vn -0.761964332 0.378666048 0.525378321
vn -0.717726280 -0.694139814 0.055126273
vn -0.840171461 -0.312683577 -0.443103709
vn -0.717726280 -0.694139814 0.055126273
vn -0.761964332 0.378666048 0.525378321
vn -0.761792466 0.030889087 0.647084309
vn -0.478606493 0.824182417 0.302752653
vn -0.840171461 -0.312683577 -0.443103709
vn -0.459557968 0.205688664 -0.864001532
vn -0.840171461 -0.312683577 -0.443103709
vn -0.478606493 0.824182417 0.302752653
vn -0.761964332 0.378666048 0.525378321
vn 0.067684641 0.978179223 0.196428605
vn -0.459557968 0.205688664 -0.864001532
vn 0.319203207 0.465651859 -0.825395456
vn -0.459557968 0.205688664 -0.864001532
vn 0.067684641 0.978179223 0.196428605
vn -0.478606493 0.824182417 0.302752653
vn 0.352883147 0.919150091 0.175033124
vn 0.319203207 0.465651859 -0.825395456
vn 0.842900901 0.326324957 -0.427820165
vn 0.319203207 0.465651859 -0.825395456
vn 0.352883147 0.919150091 0.175033124
vn 0.067684641 0.978179223 0.196428605
vn 0.767922371 0.509118136 0.388708059
vn 0.842900901 0.326324957 -0.427820165
vn 0.975865772 -0.191415700 0.105100074
vn 0.842900901 0.326324957 -0.427820165
vn 0.767922371 0.509118136 0.388708059
vn 0.352883147 0.919150091 0.175033124
vn 0.619963686 -0.271533879 0.736148341
vn 0.975865772 -0.191415700 0.105100074
vn 0.570153862 -0.699034146 0.431596845
vn 0.975865772 -0.191415700 0.105100074
vn 0.619963686 -0.271533879 0.736148341
vn 0.767922371 0.509118136 0.388708059
vn -0.312958567 0.769150526 0.557193327
vn 0.619963686 -0.271533879 0.736148341
vn -0.274549279 -0.455944859 0.846603200
vn -0.312958567 0.769150526 0.557193327
vn -0.274549279 -0.455944859 0.846603200
vn -0.761792466 0.030889087 0.647084309
vn -0.312958567 0.769150526 0.557193327
vn -0.761792466 0.030889087 0.647084309
vn -0.761964332 0.378666048 0.525378321
vn -0.312958567 0.769150526 0.557193327
vn -0.761964332 0.378666048 0.525378321
vn -0.478606493 0.824182417 0.302752653
vn -0.312958567 0.769150526 0.557193327
vn -0.478606493 0.824182417 0.302752653
vn 0.067684641 0.978179223 0.196428605
vn -0.312958567 0.769150526 0.557193327
vn 0.067684641 0.978179223 0.196428605
vn 0.352883147 0.919150091 0.175033124
vn -0.312958567 0.769150526 0.557193327
vn 0.352883147 0.919150091 0.175033124
vn 0.767922371 0.509118136 0.388708059
vn -0.312958567 0.769150526 0.557193327
vn 0.767922371 0.509118136 0.388708059
vn 0.619963686 -0.271533879 0.736148341
vn 0.250349661 -0.720578696 -0.646599868
vn 0.028282933 -0.985838147 -0.165297380
vn 0.446969474 -0.887398714 -0.112879635
vn 0.250349661 -0.720578696 -0.646599868
vn -0.286063713 -0.854743685 -0.433105975
vn 0.028282933 -0.985838147 -0.165297380
vn 0.250349661 -0.720578696 -0.646599868
vn -0.311949392 -0.570907720 -0.759441869
vn -0.286063713 -0.854743685 -0.433105975
vn 0.250349661 -0.720578696 -0.646599868
vn -0.034224183 -0.300603721 -0.953134885
vn -0.311949392 -0.570907720 -0.759441869
vn 0.250349661 -0.720578696 -0.646599868
vn 0.384457222 -0.202175534 -0.900731757
vn -0.034224183 -0.300603721 -0.953134885
vn 0.250349661 -0.720578696 -0.646599868
vn 0.698817365 -0.333260594 -0.632923113
vn 0.384457222 -0.202175534 -0.900731757
vn 0.250349661 -0.720578696 -0.646599868
vn 0.724714363 -0.617082878 -0.306590627
vn 0.698817365 -0.333260594 -0.632923113
vn 0.250349661 -0.720578696 -0.646599868
vn 0.446969474 -0.887398714 -0.112879635
vn 0.724714363 -0.617082878 -0.306590627
vn -0.186393222 -0.691242262 0.698170253
vn 0.446969474 -0.887398714 -0.112879635
vn 0.028282933 -0.985838147 -0.165297380
vn 0.446969474 -0.887398714 -0.112879635
vn -0.186393222 -0.691242262 0.698170253
vn 0.539981161 -0.450402919 0.711025707
vn -0.803581982 -0.527155519 0.276338662
vn 0.028282933 -0.985838147 -0.165297380
vn -0.286063713 -0.854743685 -0.433105975
vn 0.028282933 -0.985838147 -0.165297380
vn -0.803581982 -0.527155519 0.276338662
vn -0.186393222 -0.691242262 0.698170253
vn -0.950046949 -0.054250070 -0.307356022
vn -0.286063713 -0.854743685 -0.433105975
vn -0.311949392 -0.570907720 -0.759441869
vn -0.286063713 -0.854743685 -0.433105975
vn -0.950046949 -0.054250070 -0.307356022
vn -0.803581982 -0.527155519 0.276338662
vn -0.539984929 0.450424062 -0.711009452
vn -0.311949392 -0.570907720 -0.759441869
vn -0.034224183 -0.300603721 -0.953134885
vn -0.311949392 -0.570907720 -0.759441869
vn -0.539984929 0.450424062 -0.711009452
vn -0.950046949 -0.054250070 -0.307356022
vn 0.186389166 0.691247639 -0.698166012
vn -0.034224183 -0.300603721 -0.953134885
vn 0.384457222 -0.202175534 -0.900731757
vn -0.034224183 -0.300603721 -0.953134885
vn 0.186389166 0.691247639 -0.698166012
vn -0.539984929 0.450424062 -0.711009452
vn 0.803581982 0.527155519 -0.276338662
vn 0.384457222 -0.202175534 -0.900731757
vn 0.698817365 -0.333260594 -0.632923113
vn 0.384457222 -0.202175534 -0.900731757
vn 0.803581982 0.527155519 -0.276338662
vn 0.186389166 0.691247639 -0.698166012
vn 0.950040962 0.054266771 0.307371579
vn 0.698817365 -0.333260594 -0.632923113
vn 0.724714363 -0.617082878 -0.306590627
vn 0.698817365 -0.333260594 -0.632923113
vn 0.950040962 0.054266771 0.307371579
vn 0.803581982 0.527155519 -0.276338662
vn 0.539981161 -0.450402919 0.711025707
vn 0.724714363 -0.617082878 -0.306590627
vn 0.446969474 -0.887398714 -0.112879635
vn 0.724714363 -0.617082878 -0.306590627
vn 0.539981161 -0.450402919 0.711025707
vn 0.950040962 0.054266771 0.307371579
vn -0.237333441 0.210573128 0.948331058
vn 0.539981161 -0.450402919 0.711025707
vn -0.186393222 -0.691242262 0.698170253
vn 0.539981161 -0.450402919 0.711025707
vn -0.237333441 0.210573128 0.948331058
vn 0.158653345 0.382228840 0.910346214
vn -0.615218488 0.263497106 0.743017824
vn -0.186393222 -0.691242262 0.698170253
vn -0.803581982 -0.527155519 0.276338662
vn -0.186393222 -0.691242262 0.698170253
vn -0.615218488 0.263497106 0.743017824
vn -0.237333441 0.210573128 0.948331058
vn -0.753578829 0.510040892 0.414701382
vn -0.803581982 -0.527155519 0.276338662
vn -0.950046949 -0.054250070 -0.307356022
vn -0.803581982 -0.527155519 0.276338662
vn -0.753578829 0.510040892 0.414701382
vn -0.615218488 0.263497106 0.743017824
vn -0.571401279 0.805768813 0.155683004
vn -0.950046949 -0.054250070 -0.307356022
vn -0.539984929 0.450424062 -0.711009452
vn -0.950046949 -0.054250070 -0.307356022
vn -0.571401279 0.805768813 0.155683004
vn -0.753578829 0.510040892 0.414701382
vn -0.175416517 0.977433707 0.117696191
vn -0.539984929 0.450424062 -0.711009452
vn 0.186389166 0.691247639 -0.698166012
vn -0.539984929 0.450424062 -0.711009452
vn -0.175416517 0.977433707 0.117696191
vn -0.571401279 0.805768813 0.155683004
vn 0.202459509 0.924496716 0.322979829
vn 0.186389166 0.691247639 -0.698166012
vn 0.803581982 0.527155519 -0.276338662
vn 0.186389166 0.691247639 -0.698166012
vn 0.202459509 0.924496716 0.322979829
vn -0.175416517 0.977433707 0.117696191
vn 0.340823713 0.677960933 0.651312652
vn 0.803581982 0.527155519 -0.276338662
vn 0.950040962 0.054266771 0.307371579
vn 0.803581982 0.527155519 -0.276338662
vn 0.340823713 0.677960933 0.651312652
vn 0.202459509 0.924496716 0.322979829
vn 0.158653345 0.382228840 0.910346214
vn 0.950040962 0.054266771 0.307371579
vn 0.539981161 -0.450402919 0.711025707
vn 0.950040962 0.054266771 0.307371579
vn 0.158653345 0.382228840 0.910346214
vn 0.340823713 0.677960933 0.651312652
vn -0.250358129 0.720585759 0.646588718
vn 0.158653345 0.382228840 0.910346214
vn -0.237333441 0.210573128 0.948331058
vn -0.250358129 0.720585759 0.646588718
vn -0.237333441 0.210573128 0.948331058
vn -0.615218488 0.263497106 0.743017824
vn -0.250358129 0.720585759 0.646588718
vn -0.615218488 0.263497106 0.743017824
vn -0.753578829 0.510040892 0.414701382
vn -0.250358129 0.720585759 0.646588718
vn -0.753578829 0.510040892 0.414701382
vn -0.571401279 0.805768813 0.155683004
vn -0.250358129 0.720585759 0.646588718
vn -0.571401279 0.805768813 0.155683004
vn -0.175416517 0.977433707 0.117696191
vn -0.250358129 0.720585759 0.646588718
vn -0.175416517 0.977433707 0.117696191
vn 0.202459509 0.924496716 0.322979829
vn -0.250358129 0.720585759 0.646588718
vn 0.202459509 0.924496716 0.322979829
vn 0.340823713 0.677960933 0.651312652
vn -0.250358129 0.720585759 0.646588718
vn 0.340823713 0.677960933 0.651312652
vn 0.158653345 0.382228840 0.910346214
f 3/3/3 2/2/2 1/1/1
f 6/6/6 5/5/5 4/4/4
f 9/9/9 8/8/8 7/7/7
f 12/12/12 11/11/11 10/10/10
f 15/15/15 14/14/14 13/13/13
f 18/18/18 17/17/17 16/16/16
f 21/21/21 20/20/20 19/19/19
f 24/24/24 23/23/23 22/22/22
f 27/27/27 26/26/26 25/25/25
f 30/30/30 29/29/29 28/28/28
f 33/33/33 32/32/32 31/31/31
f 36/36/36 35/35/35 34/34/34
f 39/39/39 38/38/38 37/37/37
f 42/42/42 41/41/41 40/40/40
f 45/45/45 44/44/44 43/43/43
f 48/48/48 47/47/47 46/46/46
f 51/51/51 50/50/50 49/49/49
f 54/54/54 53/53/53 52/52/52
f 57/57/57 56/56/56 55/55/55
f 60/60/60 59/59/59 58/58/58
f 63/63/63 62/62/62 61/61/61
f 66/66/66 65/65/65 64/64/64
f 69/69/69 68/68/68 67/67/67
f 72/72/72 71/71/71 70/70/70
f 75/75/75 74/74/74 73/73/73
f 78/78/78 77/77/77 76/76/76
f 81/81/81 80/80/80 79/79/79
f 84/84/84 83/83/83 82/82/82
f 87/87/87 86/86/86 85/85/85
f 90/90/90 89/89/89 88/88/88
f 93/93/93 92/92/92 91/91/91
f 96/96/96 95/95/95 94/94/94
f 99/99/99 98/98/98 97/97/97
f 102/102/102 101/101/101 100/100/100
f 105/105/105 104/104/104 103/103/103
f 108/108/108 107/107/107 106/106/106
f 111/111/111 110/110/110 109/109/109
f 114/114/114 113/113/113 112/112/112
f 117/117/117 116/116/116 115/115/115
f 120/120/120 119/119/119 118/118/118
f 123/123/123 122/122/122 121/121/121
f 126/126/126 125/125/125 124/124/124
f 129/129/129 128/128/128 127/127/127
f 132/132/132 131/131/131 130/130/130
f 135/135/135 134/134/134 133/133/133
f 138/138/138 137/137/137 136/136/136
f 141/141/141 140/140/140 139/139/139
f 144/144/144 143/143/143 142/142/142
f 147/147/147 146/146/146 145/145/145
f 150/150/150 149/149/149 148/148/148
f 153/153/153 152/152/152 151/151/151
f 156/156/156 155/155/155 154/154/154
f 159/159/159 158/158/158 157/157/157
f 162/162/162 161/161/161 160/160/160
f 165/165/165 164/164/164 163/163/163
f 168/168/168 167/167/167 166/166/166
f 171/171/171 170/170/170 169/169/169
f 174/174/174 173/173/173 172/172/172
f 177/177/177 176/176/176 175/175/175
f 180/180/180 179/179/179 178/178/178
f 183/183/183 182/182/182 181/181/181
f 186/186/186 185/185/185 184/184/184
f 189/189/189 188/188/188 187/187/187
f 192/192/192 191/191/191 190/190/190
f 195/195/195 194/194/194 193/193/193
f 198/198/198 197/197/197 196/196/196
f 201/201/201 200/200/200 199/199/199
f 204/204/204 203/203/203 202/202/202
f 207/207/207 206/206/206 205/205/205
f 210/210/210 209/209/209 208/208/208
f 213/213/213 212/212/212 211/211/211
f 216/216/216 215/215/215 214/214/214
f 219/219/219 218/218/218 217/217/217
f 222/222/222 221/221/221 220/220/220
f 225/225/225 224/224/224 223/223/223
f 228/228/228 227/227/227 226/226/226
f 231/231/231 230/230/230 229/229/229
f 234/234/234 233/233/233 232/232/232
f 237/237/237 236/236/236 235/235/235
f 240/240/240 239/239/239 238/238/238
f 243/243/243 242/242/242 241/241/241
f 246/246/246 245/245/245 244/244/244
f 249/249/249 248/248/248 247/247/247
f 252/252/252 251/251/251 250/250/250
f 255/255/255 254/254/254 253/253/253
f 258/258/258 257/257/257 256/256/256
f 261/261/261 260/260/260 259/259/259
f 264/264/264 263/263/263 262/262/262
f 267/267/267 266/266/266 265/265/265
f 270/270/270 269/269/269 268/268/268
f 273/273/273 272/272/272 271/271/271
f 276/276/276 275/275/275 274/274/274
f 279/279/279 278/278/278 277/277/277
f 282/282/282 281/281/281 280/280/280
f 285/285/285 284/284/284 283/283/283
f 288/288/288 287/287/287 286/286/286
