# Static pose baked from local Project Zomboid assets
o Kate_Trousers
v 0.058604062 0.000558089 -0.041460236
v 0.021263531 -0.005694809 -0.062335284
v 0.018891657 -0.014844070 -0.031012283
v 0.021263531 -0.005694809 -0.062335284
v 0.058604062 0.000558089 -0.041460236
v 0.055330158 0.016369062 -0.071820922
v 0.073176611 0.061006844 -0.077518111
v 0.058604062 0.000558089 -0.041460236
v 0.083223079 0.042743375 -0.033722762
v 0.058604062 0.000558089 -0.041460236
v 0.073176611 0.061006844 -0.077518111
v 0.055330158 0.016369062 -0.071820922
v 0.050575355 0.093744087 -0.072770797
v 0.075729253 0.080994981 -0.014910108
v 0.048106281 0.098325985 -0.006601633
v 0.075729253 0.080994981 -0.014910108
v 0.050575355 0.093744087 -0.072770797
v 0.073176611 0.061006844 -0.077518111
v 0.018891657 -0.014844070 -0.031012283
v -0.016476666 0.014224590 -0.058879397
v -0.022524627 -0.002454123 -0.026633563
v -0.016476666 0.014224590 -0.058879397
v 0.018891657 -0.014844070 -0.031012283
v 0.021263531 -0.005694809 -0.062335284
v 0.053423660 0.105113078 0.036001896
v 0.099176009 0.087095707 0.140073394
v 0.055053026 0.123933262 0.133121754
v 0.099176009 0.087095707 0.140073394
v 0.053423660 0.105113078 0.036001896
v 0.101092663 0.068569788 0.041804292
v 0.099176009 0.087095707 0.140073394
v 0.059247578 0.133230140 0.240030157
v 0.055053026 0.123933262 0.133121754
v 0.059247578 0.133230140 0.240030157
v 0.099176009 0.087095707 0.140073394
v 0.091333866 0.089770633 0.232592935
v 0.004253952 0.094410424 0.047017266
v 0.026206371 0.010327214 0.150207192
v -0.007000536 0.008242961 0.074035838
v 0.026206371 0.010327214 0.150207192
v 0.004253952 0.094410424 0.047017266
v 0.009710851 0.087155310 0.140256906
v 0.009710851 0.087155310 0.140256906
v 0.043245344 0.042851623 0.232254586
v 0.026206371 0.010327214 0.150207192
v 0.043245344 0.042851623 0.232254586
v 0.009710851 0.087155310 0.140256906
v 0.034738886 0.087045666 0.235430386
v 0.026206371 0.010327214 0.150207192
v 0.094731522 0.005562551 0.058758909
v -0.007000536 0.008242961 0.074035838
v 0.094731522 0.005562551 0.058758909
v 0.026206371 0.010327214 0.150207192
v 0.103778459 0.033234837 0.144995040
v 0.026206371 0.010327214 0.150207192
v 0.095623148 0.048400847 0.228420457
v 0.103778459 0.033234837 0.144995040
v 0.095623148 0.048400847 0.228420457
v 0.026206371 0.010327214 0.150207192
v 0.043245344 0.042851623 0.232254586
v 0.094731522 0.005562551 0.058758909
v 0.099176009 0.087095707 0.140073394
v 0.101092663 0.068569788 0.041804292
v 0.099176009 0.087095707 0.140073394
v 0.094731522 0.005562551 0.058758909
v 0.103778459 0.033234837 0.144995040
v 0.103778459 0.033234837 0.144995040
v 0.091333866 0.089770633 0.232592935
v 0.099176009 0.087095707 0.140073394
v 0.091333866 0.089770633 0.232592935
v 0.103778459 0.033234837 0.144995040
v 0.095623148 0.048400847 0.228420457
v 0.063775936 0.117544001 0.288666196
v 0.094855382 0.072870432 0.357075620
v 0.065885751 0.104372362 0.360550824
v 0.094855382 0.072870432 0.357075620
v 0.063775936 0.117544001 0.288666196
v 0.093704436 0.083350227 0.282808245
v 0.065885751 0.104372362 0.360550824
v 0.094409986 0.068508351 0.409367197
v 0.071059242 0.101707024 0.409028075
v 0.094409986 0.068508351 0.409367197
v 0.065885751 0.104372362 0.360550824
v 0.094855382 0.072870432 0.357075620
v 0.036475690 0.080294679 0.304149489
v 0.046424542 0.031049982 0.347599657
v 0.040716456 0.030342056 0.280466643
v 0.046424542 0.031049982 0.347599657
v 0.036475690 0.080294679 0.304149489
v 0.040040123 0.069652946 0.361281781
v 0.040040123 0.069652946 0.361281781
v 0.053681932 0.034095958 0.396228689
v 0.046424542 0.031049982 0.347599657
v 0.053681932 0.034095958 0.396228689
v 0.040040123 0.069652946 0.361281781
v 0.041973474 0.062404506 0.423592696
v 0.040716456 0.030342056 0.280466643
v 0.098380278 0.037070955 0.346076396
v 0.098111369 0.038447686 0.269387640
v 0.098380278 0.037070955 0.346076396
v 0.040716456 0.030342056 0.280466643
v 0.046424542 0.031049982 0.347599657
v 0.046424542 0.031049982 0.347599657
v 0.093280773 0.029686643 0.391766189
v 0.098380278 0.037070955 0.346076396
v 0.093280773 0.029686643 0.391766189
v 0.046424542 0.031049982 0.347599657
v 0.053681932 0.034095958 0.396228689
v 0.098111369 0.038447686 0.269387640
v 0.094855382 0.072870432 0.357075620
v 0.093704436 0.083350227 0.282808245
v 0.094855382 0.072870432 0.357075620
v 0.098111369 0.038447686 0.269387640
v 0.098380278 0.037070955 0.346076396
v 0.098380278 0.037070955 0.346076396
v 0.094409986 0.068508351 0.409367197
v 0.094855382 0.072870432 0.357075620
v 0.094409986 0.068508351 0.409367197
v 0.098380278 0.037070955 0.346076396
v 0.093280773 0.029686643 0.391766189
v 0.101092663 0.068569788 0.041804292
v 0.075729253 0.080994981 -0.014910108
v 0.095184467 0.051505351 -0.001648542
v 0.075729253 0.080994981 -0.014910108
v 0.101092663 0.068569788 0.041804292
v 0.053423660 0.105113078 0.036001896
v 0.048106281 0.098325985 -0.006601633
v 0.009596247 0.113016648 0.042698079
v 0.011765569 0.121401125 -0.000972613
v 0.009596247 0.113016648 0.042698079
v 0.048106281 0.098325985 -0.006601633
v 0.004253952 0.094410424 0.047017266
v 0.018891657 -0.014844070 -0.031012283
v 0.067925792 -0.011349815 0.009433408
v 0.058604062 0.000558089 -0.041460236
v 0.067925792 -0.011349815 0.009433408
v 0.018891657 -0.014844070 -0.031012283
v 0.015860689 -0.022120823 0.015627000
v 0.015860689 -0.022120823 0.015627000
v 0.089838785 -0.001630439 0.049255986
v 0.067925792 -0.011349815 0.009433408
v 0.089838785 -0.001630439 0.049255986
v 0.015860689 -0.022120823 0.015627000
v 0.018247938 -0.013984274 0.053185541
v 0.018247938 -0.013984274 0.053185541
v 0.094731522 0.005562551 0.058758909
v 0.089838785 -0.001630439 0.049255986
v 0.094731522 0.005562551 0.058758909
v 0.018247938 -0.013984274 0.053185541
v -0.007000536 0.008242961 0.074035838
v 0.063775936 0.117544001 0.288666196
v 0.091333866 0.089770633 0.232592935
v 0.093704436 0.083350227 0.282808245
v 0.091333866 0.089770633 0.232592935
v 0.063775936 0.117544001 0.288666196
v 0.059247578 0.133230140 0.240030157
v 0.093704436 0.083350227 0.282808245
v 0.095623148 0.048400847 0.228420457
v 0.098111369 0.038447686 0.269387640
v 0.095623148 0.048400847 0.228420457
v 0.093704436 0.083350227 0.282808245
v 0.091333866 0.089770633 0.232592935
v 0.095623148 0.048400847 0.228420457
v 0.040716456 0.030342056 0.280466643
v 0.098111369 0.038447686 0.269387640
v 0.040716456 0.030342056 0.280466643
v 0.095623148 0.048400847 0.228420457
v 0.043245344 0.042851623 0.232254586
v 0.043245344 0.042851623 0.232254586
v 0.036475690 0.080294679 0.304149489
v 0.040716456 0.030342056 0.280466643
v 0.036475690 0.080294679 0.304149489
v 0.043245344 0.042851623 0.232254586
v 0.034738886 0.087045666 0.235430386
v 0.058604062 0.000558089 -0.041460236
v 0.095184467 0.051505351 -0.001648542
v 0.083223079 0.042743375 -0.033722762
v 0.095184467 0.051505351 -0.001648542
v 0.058604062 0.000558089 -0.041460236
v 0.067925792 -0.011349815 0.009433408
v 0.067925792 -0.011349815 0.009433408
v 0.101092663 0.068569788 0.041804292
v 0.095184467 0.051505351 -0.001648542
v 0.101092663 0.068569788 0.041804292
v 0.067925792 -0.011349815 0.009433408
v 0.089838785 -0.001630439 0.049255986
v 0.089838785 -0.001630439 0.049255986
v 0.094731522 0.005562551 0.058758909
v 0.101092663 0.068569788 0.041804292
v 0.048106281 0.098325985 -0.006601633
v 0.053423660 0.105113078 0.036001896
v 0.004253952 0.094410424 0.047017266
v 0.075729253 0.080994981 -0.014910108
v 0.053423660 0.105113078 0.036001896
v 0.048106281 0.098325985 -0.006601633
v 0.053423660 0.105113078 0.036001896
v 0.055053026 0.123933262 0.133121754
v 0.009710851 0.087155310 0.140256906
v 0.055053026 0.123933262 0.133121754
v 0.034738886 0.087045666 0.235430386
v 0.009710851 0.087155310 0.140256906
v 0.034738886 0.087045666 0.235430386
v 0.055053026 0.123933262 0.133121754
v 0.059247578 0.133230140 0.240030157
v 0.059247578 0.133230140 0.240030157
v 0.036475690 0.080294679 0.304149489
v 0.034738886 0.087045666 0.235430386
v 0.036475690 0.080294679 0.304149489
v 0.059247578 0.133230140 0.240030157
v 0.063775936 0.117544001 0.288666196
v 0.036475690 0.080294679 0.304149489
v 0.065885751 0.104372362 0.360550824
v 0.040040123 0.069652946 0.361281781
v 0.065885751 0.104372362 0.360550824
v 0.036475690 0.080294679 0.304149489
v 0.063775936 0.117544001 0.288666196
v 0.040040123 0.069652946 0.361281781
v 0.071059242 0.101707024 0.409028075
v 0.041973474 0.062404506 0.423592696
v 0.071059242 0.101707024 0.409028075
v 0.040040123 0.069652946 0.361281781
v 0.065885751 0.104372362 0.360550824
v 0.073176611 0.061006844 -0.077518111
v 0.083223079 0.042743375 -0.033722762
v 0.075729253 0.080994981 -0.014910108
v 0.083223079 0.042743375 -0.033722762
v 0.095184467 0.051505351 -0.001648542
v 0.075729253 0.080994981 -0.014910108
v 0.004253952 0.094410424 0.047017266
v -0.002248294 0.069835695 0.066739696
v 0.009596247 0.113016648 0.042698079
v 0.011765569 0.121401125 -0.000972613
v 0.050575355 0.093744087 -0.072770797
v 0.048106281 0.098325985 -0.006601633
v -0.022524627 -0.002454123 -0.026633563
v 0.015860689 -0.022120823 0.015627000
v 0.018891657 -0.014844070 -0.031012283
v 0.015860689 -0.022120823 0.015627000
v -0.022524627 -0.002454123 -0.026633563
v -0.024547344 -0.010323896 0.018370800
v 0.015860689 -0.022120823 0.015627000
v -0.022575005 -0.003575906 0.050874799
v 0.018247938 -0.013984274 0.053185541
v -0.022575005 -0.003575906 0.050874799
v 0.015860689 -0.022120823 0.015627000
v -0.024547344 -0.010323896 0.018370800
v -0.022575005 -0.003575906 0.050874799
v -0.019716904 0.006533841 0.070640710
v 0.018247938 -0.013984274 0.053185541
v -0.019716904 0.006533841 0.070640710
v -0.002248294 0.069835695 0.066739696
v -0.007000536 0.008242961 0.074035838
v -0.007000536 0.008242961 0.074035838
v -0.002248294 0.069835695 0.066739696
v 0.004253952 0.094410424 0.047017266
v 0.053423660 0.105113078 0.036001896
v 0.009710851 0.087155310 0.140256906
v 0.004253952 0.094410424 0.047017266
v 0.094409986 0.068508351 0.409367197
v 0.060644744 0.105626149 0.431914725
v 0.071059242 0.101707024 0.409028075
v 0.060644744 0.105626149 0.431914725
v 0.094409986 0.068508351 0.409367197
v 0.095733125 0.081689291 0.434422703
v 0.041973474 0.062404506 0.423592696
v 0.055672929 0.011363935 0.434789215
v 0.053681932 0.034095958 0.396228689
v 0.055672929 0.011363935 0.434789215
v 0.041973474 0.062404506 0.423592696
v 0.038572447 0.062692701 0.449606976
v 0.053681932 0.034095958 0.396228689
v 0.106563484 0.028002122 0.422750612
v 0.093280773 0.029686643 0.391766189
v 0.106563484 0.028002122 0.422750612
v 0.053681932 0.034095958 0.396228689
v 0.055672929 0.011363935 0.434789215
v 0.093280773 0.029686643 0.391766189
v 0.095733125 0.081689291 0.434422703
v 0.094409986 0.068508351 0.409367197
v 0.095733125 0.081689291 0.434422703
v 0.093280773 0.029686643 0.391766189
v 0.106563484 0.028002122 0.422750612
v 0.071059242 0.101707024 0.409028075
v 0.038572447 0.062692701 0.449606976
v 0.041973474 0.062404506 0.423592696
v 0.038572447 0.062692701 0.449606976
v 0.071059242 0.101707024 0.409028075
v 0.060644744 0.105626149 0.431914725
v 0.095733125 0.081689291 0.434422703
v 0.068027544 0.100464885 0.456008354
v 0.060644744 0.105626149 0.431914725
v 0.068027544 0.100464885 0.456008354
v 0.095733125 0.081689291 0.434422703
v 0.102949291 0.077552226 0.458725457
v 0.038572447 0.062692701 0.449606976
v 0.062435512 0.007616990 0.456950547
v 0.055672929 0.011363935 0.434789215
v 0.062435512 0.007616990 0.456950547
v 0.038572447 0.062692701 0.449606976
v 0.045366985 0.060184213 0.467001397
v 0.055672929 0.011363935 0.434789215
v 0.113633498 0.023781587 0.447095479
v 0.106563484 0.028002122 0.422750612
v 0.113633498 0.023781587 0.447095479
v 0.055672929 0.011363935 0.434789215
v 0.062435512 0.007616990 0.456950547
v 0.106563484 0.028002122 0.422750612
v 0.102949291 0.077552226 0.458725457
v 0.095733125 0.081689291 0.434422703
v 0.102949291 0.077552226 0.458725457
v 0.106563484 0.028002122 0.422750612
v 0.113633498 0.023781587 0.447095479
v 0.060644744 0.105626149 0.431914725
v 0.045366985 0.060184213 0.467001397
v 0.038572447 0.062692701 0.449606976
v 0.045366985 0.060184213 0.467001397
v 0.060644744 0.105626149 0.431914725
v 0.068027544 0.100464885 0.456008354
v 0.102949291 0.077552226 0.458725457
v 0.078895979 0.052404199 0.464629611
v 0.068027544 0.100464885 0.456008354
v 0.045366985 0.060184213 0.467001397
v 0.078895979 0.052404199 0.464629611
v 0.062435512 0.007616990 0.456950547
v 0.062435512 0.007616990 0.456950547
v 0.094574679 0.039568944 0.457162742
v 0.113633498 0.023781587 0.447095479
v 0.094574679 0.039568944 0.457162742
v 0.062435512 0.007616990 0.456950547
v 0.078895979 0.052404199 0.464629611
v 0.094574679 0.039568944 0.457162742
v 0.102949291 0.077552226 0.458725457
v 0.113633498 0.023781587 0.447095479
v 0.102949291 0.077552226 0.458725457
v 0.094574679 0.039568944 0.457162742
v 0.078895979 0.052404199 0.464629611
v 0.068027544 0.100464885 0.456008354
v 0.078895979 0.052404199 0.464629611
v 0.045366985 0.060184213 0.467001397
v 0.055330158 0.016369062 -0.071820922
v -0.006496360 0.055209884 -0.066521008
v 0.021263531 -0.005694809 -0.062335284
v 0.073176611 0.061006844 -0.077518111
v -0.006496360 0.055209884 -0.066521008
v 0.055330158 0.016369062 -0.071820922
v 0.050575355 0.093744087 -0.072770797
v -0.006496360 0.055209884 -0.066521008
v 0.073176611 0.061006844 -0.077518111
v 0.007060425 0.109006186 -0.069335956
v -0.006496360 0.055209884 -0.066521008
v 0.050575355 0.093744087 -0.072770797
v 0.021263531 -0.005694809 -0.062335284
v -0.006496360 0.055209884 -0.066521008
v -0.016476666 0.014224590 -0.058879397
v -0.090700277 0.041790497 -0.040960514
v -0.059392275 0.014377822 -0.057457629
v -0.079728606 0.049980837 -0.063653251
v -0.059392275 0.014377822 -0.057457629
v -0.090700277 0.041790497 -0.040960514
v -0.064455978 0.008173504 -0.030733319
v -0.074643412 0.097794485 -0.068578703
v -0.090700277 0.041790497 -0.040960514
v -0.079728606 0.049980837 -0.063653251
v -0.090700277 0.041790497 -0.040960514
v -0.074643412 0.097794485 -0.068578703
v -0.090132826 0.090617948 -0.033142540
v -0.038670392 0.115954478 -0.067373666
v -0.071362241 0.114912720 -0.013833358
v -0.074643412 0.097794485 -0.068578703
v -0.071362241 0.114912720 -0.013833358
v -0.038670392 0.115954478 -0.067373666
v -0.031300871 0.120255341 -0.006335858
v -0.064455978 0.008173504 -0.030733319
v -0.016476666 0.014224590 -0.058879397
v -0.059392275 0.014377822 -0.057457629
v -0.016476666 0.014224590 -0.058879397
v -0.064455978 0.008173504 -0.030733319
v -0.022524627 -0.002454123 -0.026633563
v -0.070321074 0.124217522 0.041937014
v -0.110849086 0.076035594 0.136571154
v -0.100570571 0.075383795 0.037918573
v -0.110849086 0.076035594 0.136571154
v -0.070321074 0.124217522 0.041937014
v -0.084136208 0.121527136 0.140223245
v -0.110849086 0.076035594 0.136571154
v -0.094885867 0.109545478 0.243297513
v -0.105720045 0.057647516 0.228944108
v -0.094885867 0.109545478 0.243297513
v -0.110849086 0.076035594 0.136571154
v -0.084136208 0.121527136 0.140223245
v -0.009454240 0.122580461 0.052952987
v -0.010567078 0.028744666 0.142380688
v -0.027797489 0.105955716 0.146267415
v -0.010567078 0.028744666 0.142380688
v -0.009454240 0.122580461 0.052952987
v -0.016611427 0.019260505 0.072581493
v -0.027797489 0.105955716 0.146267415
v -0.042133857 0.033993509 0.232909061
v -0.052765669 0.078053033 0.237413241
v -0.042133857 0.033993509 0.232909061
v -0.027797489 0.105955716 0.146267415
v -0.010567078 0.028744666 0.142380688
v -0.079791440 0.020085758 0.047454121
v -0.010567078 0.028744666 0.142380688
v -0.016611427 0.019260505 0.072581493
v -0.010567078 0.028744666 0.142380688
v -0.079791440 0.020085758 0.047454121
v -0.090257699 0.018360551 0.132696164
v -0.010567078 0.028744666 0.142380688
v -0.092375429 0.017791392 0.224784571
v -0.042133857 0.033993509 0.232909061
v -0.092375429 0.017791392 0.224784571
v -0.010567078 0.028744666 0.142380688
v -0.090257699 0.018360551 0.132696164
v -0.079791440 0.020085758 0.047454121
v -0.110849086 0.076035594 0.136571154
v -0.090257699 0.018360551 0.132696164
v -0.110849086 0.076035594 0.136571154
v -0.079791440 0.020085758 0.047454121
v -0.100570571 0.075383795 0.037918573
v -0.090257699 0.018360551 0.132696164
v -0.105720045 0.057647516 0.228944108
v -0.092375429 0.017791392 0.224784571
v -0.105720045 0.057647516 0.228944108
v -0.090257699 0.018360551 0.132696164
v -0.110849086 0.076035594 0.136571154
v -0.097814320 0.097854948 0.286299043
v -0.115228228 0.049955484 0.356766572
v -0.111501702 0.054082843 0.282052943
v -0.115228228 0.049955484 0.356766572
v -0.097814320 0.097854948 0.286299043
v -0.101939151 0.090445348 0.358860188
v -0.101939151 0.090445348 0.358860188
v -0.120028955 0.049493756 0.409086399
v -0.115228228 0.049955484 0.356766572
v -0.120028955 0.049493756 0.409086399
v -0.101939151 0.090445348 0.358860188
v -0.110661177 0.088672434 0.406860516
v -0.059559850 0.075970136 0.307873454
v -0.054681340 0.030002680 0.355674117
v -0.065501189 0.068854583 0.365397031
v -0.054681340 0.030002680 0.355674117
v -0.059559850 0.075970136 0.307873454
v -0.041252355 0.026852175 0.289670254
v -0.065501189 0.068854583 0.365397031
v -0.066150862 0.032176600 0.403106637
v -0.081076010 0.079708655 0.425060910
v -0.066150862 0.032176600 0.403106637
v -0.065501189 0.068854583 0.365397031
v -0.054681340 0.030002680 0.355674117
v -0.041252355 0.026852175 0.289670254
v -0.103240456 0.014991103 0.349603095
v -0.054681340 0.030002680 0.355674117
v -0.103240456 0.014991103 0.349603095
v -0.041252355 0.026852175 0.289670254
v -0.096458718 0.010273080 0.273441902
v -0.054681340 0.030002680 0.355674117
v -0.101018281 0.011232251 0.396196633
v -0.066150862 0.032176600 0.403106637
v -0.101018281 0.011232251 0.396196633
v -0.054681340 0.030002680 0.355674117
v -0.103240456 0.014991103 0.349603095
v -0.096458718 0.010273080 0.273441902
v -0.115228228 0.049955484 0.356766572
v -0.103240456 0.014991103 0.349603095
v -0.115228228 0.049955484 0.356766572
v -0.096458718 0.010273080 0.273441902
v -0.111501702 0.054082843 0.282052943
v -0.103240456 0.014991103 0.349603095
v -0.120028955 0.049493756 0.409086399
v -0.101018281 0.011232251 0.396196633
v -0.120028955 0.049493756 0.409086399
v -0.103240456 0.014991103 0.349603095
v -0.115228228 0.049955484 0.356766572
v -0.100570571 0.075383795 0.037918573
v -0.071362241 0.114912720 -0.013833358
v -0.070321074 0.124217522 0.041937014
v -0.071362241 0.114912720 -0.013833358
v -0.100570571 0.075383795 0.037918573
v -0.091144923 0.073603066 -0.005689027
v 0.009596247 0.113016648 0.042698079
v -0.031300871 0.120255341 -0.006335858
v 0.011765569 0.121401125 -0.000972613
v -0.031300871 0.120255341 -0.006335858
v 0.009596247 0.113016648 0.042698079
v -0.009454240 0.122580461 0.052952987
v -0.064455978 0.008173504 -0.030733319
v -0.104495112 0.036266545 0.010010500
v -0.065298858 0.000292481 0.015898641
v -0.104495112 0.036266545 0.010010500
v -0.064455978 0.008173504 -0.030733319
v -0.090700277 0.041790497 -0.040960514
v -0.065298858 0.000292481 0.015898641
v -0.092283434 0.027491330 0.042110066
v -0.062938597 0.008436483 0.053457272
v -0.092283434 0.027491330 0.042110066
v -0.065298858 0.000292481 0.015898641
v -0.104495112 0.036266545 0.010010500
v -0.062938597 0.008436483 0.053457272
v -0.079791440 0.020085758 0.047454121
v -0.016611427 0.019260505 0.072581493
v -0.079791440 0.020085758 0.047454121
v -0.062938597 0.008436483 0.053457272
v -0.092283434 0.027491330 0.042110066
v -0.097814320 0.097854948 0.286299043
v -0.105720045 0.057647516 0.228944108
v -0.094885867 0.109545478 0.243297513
v -0.105720045 0.057647516 0.228944108
v -0.097814320 0.097854948 0.286299043
v -0.111501702 0.054082843 0.282052943
v -0.111501702 0.054082843 0.282052943
v -0.092375429 0.017791392 0.224784571
v -0.105720045 0.057647516 0.228944108
v -0.092375429 0.017791392 0.224784571
v -0.111501702 0.054082843 0.282052943
v -0.096458718 0.010273080 0.273441902
v -0.092375429 0.017791392 0.224784571
v -0.041252355 0.026852175 0.289670254
v -0.042133857 0.033993509 0.232909061
v -0.041252355 0.026852175 0.289670254
v -0.092375429 0.017791392 0.224784571
v -0.096458718 0.010273080 0.273441902
v -0.042133857 0.033993509 0.232909061
v -0.059559850 0.075970136 0.307873454
v -0.052765669 0.078053033 0.237413241
v -0.059559850 0.075970136 0.307873454
v -0.042133857 0.033993509 0.232909061
v -0.041252355 0.026852175 0.289670254
v -0.090700277 0.041790497 -0.040960514
v -0.091144923 0.073603066 -0.005689027
v -0.104495112 0.036266545 0.010010500
v -0.091144923 0.073603066 -0.005689027
v -0.090700277 0.041790497 -0.040960514
v -0.090132826 0.090617948 -0.033142540
v -0.104495112 0.036266545 0.010010500
v -0.100570571 0.075383795 0.037918573
v -0.092283434 0.027491330 0.042110066
v -0.100570571 0.075383795 0.037918573
v -0.104495112 0.036266545 0.010010500
v -0.091144923 0.073603066 -0.005689027
v -0.092283434 0.027491330 0.042110066
v -0.100570571 0.075383795 0.037918573
v -0.079791440 0.020085758 0.047454121
v -0.031300871 0.120255341 -0.006335858
v -0.009454240 0.122580461 0.052952987
v -0.070321074 0.124217522 0.041937014
v -0.071362241 0.114912720 -0.013833358
v -0.031300871 0.120255341 -0.006335858
v -0.070321074 0.124217522 0.041937014
v -0.070321074 0.124217522 0.041937014
v -0.027797489 0.105955716 0.146267415
v -0.084136208 0.121527136 0.140223245
v -0.084136208 0.121527136 0.140223245
v -0.052765669 0.078053033 0.237413241
v -0.094885867 0.109545478 0.243297513
v -0.052765669 0.078053033 0.237413241
v -0.084136208 0.121527136 0.140223245
v -0.027797489 0.105955716 0.146267415
v -0.094885867 0.109545478 0.243297513
v -0.059559850 0.075970136 0.307873454
v -0.097814320 0.097854948 0.286299043
v -0.059559850 0.075970136 0.307873454
v -0.094885867 0.109545478 0.243297513
v -0.052765669 0.078053033 0.237413241
v -0.059559850 0.075970136 0.307873454
v -0.101939151 0.090445348 0.358860188
v -0.097814320 0.097854948 0.286299043
v -0.101939151 0.090445348 0.358860188
v -0.059559850 0.075970136 0.307873454
v -0.065501189 0.068854583 0.365397031
v -0.065501189 0.068854583 0.365397031
v -0.110661177 0.088672434 0.406860516
v -0.101939151 0.090445348 0.358860188
v -0.110661177 0.088672434 0.406860516
v -0.065501189 0.068854583 0.365397031
v -0.081076010 0.079708655 0.425060910
v -0.074643412 0.097794485 -0.068578703
v -0.071362241 0.114912720 -0.013833358
v -0.090132826 0.090617948 -0.033142540
v -0.090132826 0.090617948 -0.033142540
v -0.071362241 0.114912720 -0.013833358
v -0.091144923 0.073603066 -0.005689027
v -0.009454240 0.122580461 0.052952987
v 0.009596247 0.113016648 0.042698079
v -0.002248294 0.069835695 0.066739696
v 0.011765569 0.121401125 -0.000972613
v -0.031300871 0.120255341 -0.006335858
v -0.038670392 0.115954478 -0.067373666
v -0.022524627 -0.002454123 -0.026633563
v -0.065298858 0.000292481 0.015898641
v -0.024547344 -0.010323896 0.018370800
v -0.065298858 0.000292481 0.015898641
v -0.022524627 -0.002454123 -0.026633563
v -0.064455978 0.008173504 -0.030733319
v -0.065298858 0.000292481 0.015898641
v -0.022575005 -0.003575906 0.050874799
v -0.024547344 -0.010323896 0.018370800
v -0.022575005 -0.003575906 0.050874799
v -0.065298858 0.000292481 0.015898641
v -0.062938597 0.008436483 0.053457272
v -0.022575005 -0.003575906 0.050874799
v -0.062938597 0.008436483 0.053457272
v -0.019716904 0.006533841 0.070640710
v -0.019716904 0.006533841 0.070640710
v -0.016611427 0.019260505 0.072581493
v -0.002248294 0.069835695 0.066739696
v -0.016611427 0.019260505 0.072581493
v -0.009454240 0.122580461 0.052952987
v -0.002248294 0.069835695 0.066739696
v -0.070321074 0.124217522 0.041937014
v -0.009454240 0.122580461 0.052952987
v -0.027797489 0.105955716 0.146267415
v -0.120028955 0.049493756 0.409086399
v -0.129057816 0.093202159 0.427701099
v -0.130403571 0.050089728 0.433817763
v -0.129057816 0.093202159 0.427701099
v -0.120028955 0.049493756 0.409086399
v -0.110661177 0.088672434 0.406860516
v -0.081076010 0.079708655 0.425060910
v -0.051733727 0.038172435 0.443070365
v -0.082907226 0.084263145 0.450501756
v -0.051733727 0.038172435 0.443070365
v -0.081076010 0.079708655 0.425060910
v -0.066150862 0.032176600 0.403106637
v -0.066150862 0.032176600 0.403106637
v -0.093947284 0.007642129 0.429727794
v -0.051733727 0.038172435 0.443070365
v -0.093947284 0.007642129 0.429727794
v -0.066150862 0.032176600 0.403106637
v -0.101018281 0.011232251 0.396196633
v -0.101018281 0.011232251 0.396196633
v -0.130403571 0.050089728 0.433817763
v -0.093947284 0.007642129 0.429727794
v -0.130403571 0.050089728 0.433817763
v -0.101018281 0.011232251 0.396196633
v -0.120028955 0.049493756 0.409086399
v -0.110661177 0.088672434 0.406860516
v -0.082907226 0.084263145 0.450501756
v -0.129057816 0.093202159 0.427701099
v -0.082907226 0.084263145 0.450501756
v -0.110661177 0.088672434 0.406860516
v -0.081076010 0.079708655 0.425060910
v -0.130403571 0.050089728 0.433817763
v -0.132782585 0.087186018 0.452430535
v -0.134006075 0.044118048 0.458565859
v -0.132782585 0.087186018 0.452430535
v -0.130403571 0.050089728 0.433817763
v -0.129057816 0.093202159 0.427701099
v -0.082907226 0.084263145 0.450501756
v -0.055152527 0.032669300 0.465627284
v -0.086820415 0.079050529 0.468171900
v -0.055152527 0.032669300 0.465627284
v -0.082907226 0.084263145 0.450501756
v -0.051733727 0.038172435 0.443070365
v -0.051733727 0.038172435 0.443070365
v -0.097402849 0.001814653 0.454516322
v -0.055152527 0.032669300 0.465627284
v -0.097402849 0.001814653 0.454516322
v -0.051733727 0.038172435 0.443070365
v -0.093947284 0.007642129 0.429727794
v -0.093947284 0.007642129 0.429727794
v -0.134006075 0.044118048 0.458565859
v -0.097402849 0.001814653 0.454516322
v -0.134006075 0.044118048 0.458565859
v -0.093947284 0.007642129 0.429727794
v -0.130403571 0.050089728 0.433817763
v -0.129057816 0.093202159 0.427701099
v -0.086820415 0.079050529 0.468171900
v -0.132782585 0.087186018 0.452430535
v -0.086820415 0.079050529 0.468171900
v -0.129057816 0.093202159 0.427701099
v -0.082907226 0.084263145 0.450501756
v -0.134006075 0.044118048 0.458565859
v -0.132782585 0.087186018 0.452430535
v -0.100631191 0.047984879 0.467426847
v -0.086820415 0.079050529 0.468171900
v -0.055152527 0.032669300 0.465627284
v -0.100631191 0.047984879 0.467426847
v -0.055152527 0.032669300 0.465627284
v -0.099286488 0.027238005 0.462030784
v -0.100631191 0.047984879 0.467426847
v -0.099286488 0.027238005 0.462030784
v -0.055152527 0.032669300 0.465627284
v -0.097402849 0.001814653 0.454516322
v -0.134006075 0.044118048 0.458565859
v -0.099286488 0.027238005 0.462030784
v -0.097402849 0.001814653 0.454516322
v -0.099286488 0.027238005 0.462030784
v -0.134006075 0.044118048 0.458565859
v -0.100631191 0.047984879 0.467426847
v -0.132782585 0.087186018 0.452430535
v -0.086820415 0.079050529 0.468171900
v -0.100631191 0.047984879 0.467426847
v -0.079728606 0.049980837 -0.063653251
v -0.059392275 0.014377822 -0.057457629
v -0.006496360 0.055209884 -0.066521008
v -0.074643412 0.097794485 -0.068578703
v -0.079728606 0.049980837 -0.063653251
v -0.006496360 0.055209884 -0.066521008
v -0.038670392 0.115954478 -0.067373666
v -0.074643412 0.097794485 -0.068578703
v -0.006496360 0.055209884 -0.066521008
v 0.007060425 0.109006186 -0.069335956
v -0.038670392 0.115954478 -0.067373666
v -0.006496360 0.055209884 -0.066521008
v -0.059392275 0.014377822 -0.057457629
v -0.016476666 0.014224590 -0.058879397
v -0.006496360 0.055209884 -0.066521008
v 0.050575355 0.093744087 -0.072770797
v 0.011765569 0.121401125 -0.000972613
v 0.007060425 0.109006186 -0.069335956
v 0.011765569 0.121401125 -0.000972613
v -0.038670392 0.115954478 -0.067373666
v 0.007060425 0.109006186 -0.069335956
v 0.018247938 -0.013984274 0.053185541
v -0.019716904 0.006533841 0.070640710
v -0.007000536 0.008242961 0.074035838
v -0.019716904 0.006533841 0.070640710
v -0.062938597 0.008436483 0.053457272
v -0.016611427 0.019260505 0.072581493
vt 0.655812979 0.560059011
vt 0.740234017 0.535561979
vt 0.742870986 0.568826020
vt 0.740234017 0.535561979
vt 0.655812979 0.560059011
vt 0.652606010 0.535561979
vt 0.584580004 0.535561979
vt 0.655812979 0.560059011
vt 0.606445014 0.576452017
vt 0.655812979 0.560059011
vt 0.584580004 0.535561979
vt 0.652606010 0.535561979
vt 0.546494007 0.535561979
vt 0.577148020 0.587302029
vt 0.539062977 0.589254975
vt 0.577148020 0.587302029
vt 0.546494007 0.535561979
vt 0.584580004 0.535561979
vt 0.742870986 0.568826020
vt 0.785156012 0.535561979
vt 0.785156012 0.570591986
vt 0.785156012 0.535561979
vt 0.742870986 0.568826020
vt 0.740234017 0.535561979
vt 0.571289003 0.614257991
vt 0.620117009 0.710937977
vt 0.583007991 0.711914003
vt 0.620117009 0.710937977
vt 0.571289003 0.614257991
vt 0.616210997 0.614257991
vt 0.620117009 0.710937977
vt 0.594506025 0.771530986
vt 0.583007991 0.711914003
vt 0.594506025 0.771530986
vt 0.620117009 0.710937977
vt 0.633000016 0.774496973
vt 0.781250000 0.617187977
vt 0.729492009 0.701171994
vt 0.738281012 0.629882991
vt 0.729492009 0.701171994
vt 0.781250000 0.617187977
vt 0.774414003 0.709960997
vt 0.774414003 0.709960997
vt 0.722656012 0.771484017
vt 0.729492009 0.701171994
vt 0.722656012 0.771484017
vt 0.774414003 0.709960997
vt 0.768554986 0.771484017
vt 0.729492009 0.701171994
vt 0.680441976 0.630411983
vt 0.738281012 0.629882991
vt 0.680441976 0.630411983
vt 0.729492009 0.701171994
vt 0.676757991 0.704101980
vt 0.729492009 0.701171994
vt 0.676864982 0.770649016
vt 0.676757991 0.704101980
vt 0.676864982 0.770649016
vt 0.729492009 0.701171994
vt 0.722656012 0.771484017
vt 0.680441976 0.630411983
vt 0.620117009 0.710937977
vt 0.616210997 0.614257991
vt 0.620117009 0.710937977
vt 0.680441976 0.630411983
vt 0.676757991 0.704101980
vt 0.676757991 0.704101980
vt 0.633000016 0.774496973
vt 0.620117009 0.710937977
vt 0.633000016 0.774496973
vt 0.676757991 0.704101980
vt 0.676864982 0.770649016
vt 0.605823994 0.832777023
vt 0.655273020 0.876953006
vt 0.614238977 0.877417028
vt 0.655273020 0.876953006
vt 0.605823994 0.832777023
vt 0.646853983 0.829473019
vt 0.614238977 0.877417028
vt 0.661132991 0.920898020
vt 0.624240994 0.921905994
vt 0.661132991 0.920898020
vt 0.614238977 0.877417028
vt 0.655273020 0.876953006
vt 0.758789003 0.829101980
vt 0.722656012 0.876953006
vt 0.724609017 0.825195014
vt 0.722656012 0.876953006
vt 0.758789003 0.829101980
vt 0.753906012 0.876953006
vt 0.753906012 0.876953006
vt 0.717773020 0.921875000
vt 0.722656012 0.876953006
vt 0.717773020 0.921875000
vt 0.753906012 0.876953006
vt 0.747070014 0.921875000
vt 0.724609017 0.825195014
vt 0.679687977 0.875976980
vt 0.676509023 0.820604026
vt 0.679687977 0.875976980
vt 0.724609017 0.825195014
vt 0.722656012 0.876953006
vt 0.722656012 0.876953006
vt 0.683311999 0.921037018
vt 0.679687977 0.875976980
vt 0.683311999 0.921037018
vt 0.722656012 0.876953006
vt 0.717773020 0.921875000
vt 0.676509023 0.820604026
vt 0.655273020 0.876953006
vt 0.646853983 0.829473019
vt 0.655273020 0.876953006
vt 0.676509023 0.820604026
vt 0.679687977 0.875976980
vt 0.679687977 0.875976980
vt 0.661132991 0.920898020
vt 0.655273020 0.876953006
vt 0.661132991 0.920898020
vt 0.679687977 0.875976980
vt 0.683311999 0.921037018
vt 0.616210997 0.614257991
vt 0.577148020 0.587302029
vt 0.622070014 0.584178984
vt 0.577148020 0.587302029
vt 0.616210997 0.614257991
vt 0.571289003 0.614257991
vt 0.539062977 0.589254975
vt 0.500618994 0.616203010
vt 0.500618994 0.591796994
vt 0.500618994 0.616203010
vt 0.539062977 0.589254975
vt 0.512254000 0.615234017
vt 0.742870986 0.568826020
vt 0.677475989 0.591902971
vt 0.655812979 0.560059011
vt 0.677475989 0.591902971
vt 0.742870986 0.568826020
vt 0.744140983 0.590817988
vt 0.744140983 0.590817988
vt 0.681532979 0.613192976
vt 0.677475989 0.591902971
vt 0.681532979 0.613192976
vt 0.744140983 0.590817988
vt 0.741210997 0.610741973
vt 0.741210997 0.610741973
vt 0.680441976 0.630411983
vt 0.681532979 0.613192976
vt 0.680441976 0.630411983
vt 0.741210997 0.610741973
vt 0.738281012 0.629882991
vt 0.605823994 0.832777023
vt 0.633000016 0.774496973
vt 0.646853983 0.829473019
vt 0.633000016 0.774496973
vt 0.605823994 0.832777023
vt 0.594506025 0.771530986
vt 0.646853983 0.829473019
vt 0.676864982 0.770649016
vt 0.676509023 0.820604026
vt 0.676864982 0.770649016
vt 0.646853983 0.829473019
vt 0.633000016 0.774496973
vt 0.676864982 0.770649016
vt 0.724609017 0.825195014
vt 0.676509023 0.820604026
vt 0.724609017 0.825195014
vt 0.676864982 0.770649016
vt 0.722656012 0.771484017
vt 0.722656012 0.771484017
vt 0.758789003 0.829101980
vt 0.724609017 0.825195014
vt 0.758789003 0.829101980
vt 0.722656012 0.771484017
vt 0.768554986 0.771484017
vt 0.655812979 0.560059011
vt 0.622070014 0.584178984
vt 0.606445014 0.576452017
vt 0.622070014 0.584178984
vt 0.655812979 0.560059011
vt 0.677475989 0.591902971
vt 0.677475989 0.591902971
vt 0.616210997 0.614257991
vt 0.622070014 0.584178984
vt 0.616210997 0.614257991
vt 0.677475989 0.591902971
vt 0.681532979 0.613192976
vt 0.681532979 0.613192976
vt 0.680441976 0.630411983
vt 0.616210997 0.614257991
vt 0.539062977 0.589254975
vt 0.571289003 0.614257991
vt 0.512254000 0.615234017
vt 0.577148020 0.587302029
vt 0.571289003 0.614257991
vt 0.539062977 0.589254975
vt 0.571289003 0.614257991
vt 0.583007991 0.711914003
vt 0.537109017 0.710937977
vt 0.583007991 0.711914003
vt 0.551757991 0.772460997
vt 0.537109017 0.710937977
vt 0.551757991 0.772460997
vt 0.583007991 0.711914003
vt 0.594506025 0.771530986
vt 0.594506025 0.771530986
vt 0.567382991 0.843750000
vt 0.551757991 0.772460997
vt 0.567382991 0.843750000
vt 0.594506025 0.771530986
vt 0.605823994 0.832777023
vt 0.567382991 0.843750000
vt 0.614238977 0.877417028
vt 0.577046990 0.878556013
vt 0.614238977 0.877417028
vt 0.567382991 0.843750000
vt 0.605823994 0.832777023
vt 0.577046990 0.878556013
vt 0.624240994 0.921905994
vt 0.591796994 0.923828006
vt 0.624240994 0.921905994
vt 0.577046990 0.878556013
vt 0.614238977 0.877417028
vt 0.584580004 0.535561979
vt 0.606445014 0.576452017
vt 0.577148020 0.587302029
vt 0.606445014 0.576452017
vt 0.622070014 0.584178984
vt 0.577148020 0.587302029
vt 0.781250000 0.617187977
vt 0.781250000 0.609375000
vt 0.785156012 0.617187977
vt 0.500618994 0.591796994
vt 0.546494007 0.535561979
vt 0.539062977 0.589254975
vt 0.785156012 0.570591986
vt 0.744140983 0.590817988
vt 0.742870986 0.568826020
vt 0.744140983 0.590817988
vt 0.785156012 0.570591986
vt 0.785156012 0.589843988
vt 0.744140983 0.590817988
vt 0.785156012 0.609375000
vt 0.741210997 0.610741973
vt 0.785156012 0.609375000
vt 0.744140983 0.590817988
vt 0.785156012 0.589843988
vt 0.785156012 0.609375000
vt 0.781250000 0.605468988
vt 0.741210997 0.610741973
vt 0.781250000 0.605468988
vt 0.781250000 0.609375000
vt 0.738281012 0.629882991
vt 0.738281012 0.629882991
vt 0.781250000 0.609375000
vt 0.781250000 0.617187977
vt 0.571289003 0.614257991
vt 0.537109017 0.710937977
vt 0.512254000 0.615234017
vt 0.661132991 0.920898020
vt 0.631226003 0.953270972
vt 0.624240994 0.921905994
vt 0.631226003 0.953270972
vt 0.661132991 0.920898020
vt 0.663504004 0.952373981
vt 0.747070014 0.921875000
vt 0.712890983 0.952148020
vt 0.717773020 0.921875000
vt 0.712890983 0.952148020
vt 0.747070014 0.921875000
vt 0.742407978 0.952904999
vt 0.717773020 0.921875000
vt 0.685379028 0.952244997
vt 0.683311999 0.921037018
vt 0.685379028 0.952244997
vt 0.717773020 0.921875000
vt 0.712890983 0.952148020
vt 0.683311999 0.921037018
vt 0.663504004 0.952373981
vt 0.661132991 0.920898020
vt 0.663504004 0.952373981
vt 0.683311999 0.921037018
vt 0.685379028 0.952244997
vt 0.624240994 0.921905994
vt 0.604492009 0.955078006
vt 0.591796994 0.923828006
vt 0.604492009 0.955078006
vt 0.624240994 0.921905994
vt 0.631226003 0.953270972
vt 0.663504004 0.952373981
vt 0.637695014 0.980468988
vt 0.631226003 0.953270972
vt 0.637695014 0.980468988
vt 0.663504004 0.952373981
vt 0.666342020 0.980485976
vt 0.742407978 0.952904999
vt 0.708984017 0.980468988
vt 0.712890983 0.952148020
vt 0.708984017 0.980468988
vt 0.742407978 0.952904999
vt 0.738281012 0.980468988
vt 0.712890983 0.952148020
vt 0.687500000 0.980468988
vt 0.685379028 0.952244997
vt 0.687500000 0.980468988
vt 0.712890983 0.952148020
vt 0.708984017 0.980468988
vt 0.685379028 0.952244997
vt 0.666342020 0.980485976
vt 0.663504004 0.952373981
vt 0.666342020 0.980485976
vt 0.685379028 0.952244997
vt 0.687500000 0.980468988
vt 0.631226003 0.953270972
vt 0.615234017 0.981445014
vt 0.604492009 0.955078006
vt 0.615234017 0.981445014
vt 0.631226003 0.953270972
vt 0.637695014 0.980468988
vt 0.666342020 0.980485976
vt 0.639518976 0.992693007
vt 0.637695014 0.980468988
vt 0.738281012 0.980468988
vt 0.715812027 0.992156029
vt 0.708984017 0.980468988
vt 0.708984017 0.980468988
vt 0.685859978 0.991764009
vt 0.687500000 0.980468988
vt 0.685859978 0.991764009
vt 0.708984017 0.980468988
vt 0.715812027 0.992156029
vt 0.685859978 0.991764009
vt 0.666342020 0.980485976
vt 0.687500000 0.980468988
vt 0.666342020 0.980485976
vt 0.685859978 0.991764009
vt 0.639518976 0.992693007
vt 0.637695014 0.980468988
vt 0.639518976 0.992693007
vt 0.615234017 0.981445014
vt 0.503664017 0.565295994
vt 0.503464997 0.565297008
vt 0.506848991 0.565295994
vt 0.501191974 0.565295994
vt 0.503464997 0.565297008
vt 0.503664017 0.565295994
vt 0.499808013 0.565295994
vt 0.503464997 0.565297008
vt 0.501191974 0.565295994
vt 0.498140007 0.565298021
vt 0.503464997 0.565297008
vt 0.499808013 0.565298021
vt 0.506848991 0.565295994
vt 0.503464997 0.565297008
vt 0.508481979 0.565295994
vt 0.346322000 0.559849977
vt 0.261361003 0.535561979
vt 0.349251986 0.535561979
vt 0.261361003 0.535561979
vt 0.346322000 0.559849977
vt 0.259407997 0.568638980
vt 0.416635007 0.535561979
vt 0.346322000 0.559849977
vt 0.349251986 0.535561979
vt 0.346322000 0.559849977
vt 0.416635007 0.535561979
vt 0.395150006 0.576452017
vt 0.454721004 0.535561979
vt 0.424447000 0.586914003
vt 0.416635007 0.535561979
vt 0.424447000 0.586914003
vt 0.454721004 0.535561979
vt 0.462532997 0.588867009
vt 0.259407997 0.568638980
vt 0.210938007 0.535561979
vt 0.261361003 0.535561979
vt 0.210938007 0.535561979
vt 0.259407997 0.568638980
vt 0.210938007 0.570591986
vt 0.430307001 0.614257991
vt 0.381478995 0.710937977
vt 0.385385007 0.614257991
vt 0.381478995 0.710937977
vt 0.430307001 0.614257991
vt 0.418588012 0.711914003
vt 0.381478995 0.710937977
vt 0.406868994 0.771484017
vt 0.368782997 0.774414003
vt 0.406868994 0.771484017
vt 0.381478995 0.710937977
vt 0.418588012 0.711914003
vt 0.218750000 0.617187977
vt 0.272103995 0.701171994
vt 0.227182001 0.709960997
vt 0.272103995 0.701171994
vt 0.218750000 0.617187977
vt 0.263314009 0.629882991
vt 0.227182001 0.709960997
vt 0.278939009 0.771484017
vt 0.233041003 0.771484017
vt 0.278939009 0.771484017
vt 0.227182001 0.709960997
vt 0.272103995 0.701171994
vt 0.321907997 0.630859017
vt 0.272103995 0.701171994
vt 0.263314009 0.629882991
vt 0.272103995 0.701171994
vt 0.321907997 0.630859017
vt 0.324838012 0.704101980
vt 0.272103995 0.701171994
vt 0.324838012 0.770507991
vt 0.278939009 0.771484017
vt 0.324838012 0.770507991
vt 0.272103995 0.701171994
vt 0.324838012 0.704101980
vt 0.321907997 0.630859017
vt 0.381478995 0.710937977
vt 0.324838012 0.704101980
vt 0.381478995 0.710937977
vt 0.321907997 0.630859017
vt 0.385385007 0.614257991
vt 0.324838012 0.704101980
vt 0.368782997 0.774414003
vt 0.324838012 0.770507991
vt 0.368782997 0.774414003
vt 0.324838012 0.704101980
vt 0.381478995 0.710937977
vt 0.396126986 0.833007991
vt 0.346322000 0.876953006
vt 0.355111003 0.829101980
vt 0.346322000 0.876953006
vt 0.396126986 0.833007991
vt 0.387338012 0.876953006
vt 0.387338012 0.876953006
vt 0.340463012 0.920898020
vt 0.346322000 0.876953006
vt 0.340463012 0.920898020
vt 0.387338012 0.876953006
vt 0.377572000 0.921875000
vt 0.242807001 0.829101980
vt 0.278939009 0.876953006
vt 0.247690007 0.876953006
vt 0.278939009 0.876953006
vt 0.242807001 0.829101980
vt 0.276986003 0.825195014
vt 0.247690007 0.876953006
vt 0.283822000 0.921875000
vt 0.254525006 0.921875000
vt 0.283822000 0.921875000
vt 0.247690007 0.876953006
vt 0.278939009 0.876953006
vt 0.276986003 0.825195014
vt 0.321907997 0.875976980
vt 0.278939009 0.876953006
vt 0.321907997 0.875976980
vt 0.276986003 0.825195014
vt 0.325814009 0.820312977
vt 0.278939009 0.876953006
vt 0.318978995 0.920898020
vt 0.283822000 0.921875000
vt 0.318978995 0.920898020
vt 0.278939009 0.876953006
vt 0.321907997 0.875976980
vt 0.325814009 0.820312977
vt 0.346322000 0.876953006
vt 0.321907997 0.875976980
vt 0.346322000 0.876953006
vt 0.325814009 0.820312977
vt 0.355111003 0.829101980
vt 0.321907997 0.875976980
vt 0.340463012 0.920898020
vt 0.318978995 0.920898020
vt 0.340463012 0.920898020
vt 0.321907997 0.875976980
vt 0.346322000 0.876953006
vt 0.385385007 0.614257991
vt 0.424447000 0.586914003
vt 0.430307001 0.614257991
vt 0.424447000 0.586914003
vt 0.385385007 0.614257991
vt 0.379525006 0.583984017
vt 0.500618994 0.616203010
vt 0.462532997 0.588867009
vt 0.500618994 0.591796994
vt 0.462532997 0.588867009
vt 0.500618994 0.616203010
vt 0.489342004 0.615234017
vt 0.259407997 0.568638980
vt 0.324838012 0.591796994
vt 0.257454991 0.590820014
vt 0.324838012 0.591796994
vt 0.259407997 0.568638980
vt 0.346322000 0.559849977
vt 0.257454991 0.590820014
vt 0.319954991 0.613281012
vt 0.260385007 0.610351980
vt 0.319954991 0.613281012
vt 0.257454991 0.590820014
vt 0.324838012 0.591796994
vt 0.260385007 0.610351980
vt 0.321907997 0.630859017
vt 0.263314009 0.629882991
vt 0.321907997 0.630859017
vt 0.260385007 0.610351980
vt 0.319954991 0.613281012
vt 0.396126986 0.833007991
vt 0.368782997 0.774414003
vt 0.406868994 0.771484017
vt 0.368782997 0.774414003
vt 0.396126986 0.833007991
vt 0.355111003 0.829101980
vt 0.355111003 0.829101980
vt 0.324838012 0.770507991
vt 0.368782997 0.774414003
vt 0.324838012 0.770507991
vt 0.355111003 0.829101980
vt 0.325814009 0.820312977
vt 0.324838012 0.770507991
vt 0.276986003 0.825195014
vt 0.278939009 0.771484017
vt 0.276986003 0.825195014
vt 0.324838012 0.770507991
vt 0.325814009 0.820312977
vt 0.278939009 0.771484017
vt 0.242807001 0.829101980
vt 0.233041003 0.771484017
vt 0.242807001 0.829101980
vt 0.278939009 0.771484017
vt 0.276986003 0.825195014
vt 0.346322000 0.559849977
vt 0.379525006 0.583984017
vt 0.324838012 0.591796994
vt 0.379525006 0.583984017
vt 0.346322000 0.559849977
vt 0.395150006 0.576452017
vt 0.324838012 0.591796994
vt 0.385385007 0.614257991
vt 0.319954991 0.613281012
vt 0.385385007 0.614257991
vt 0.324838012 0.591796994
vt 0.379525006 0.583984017
vt 0.319954991 0.613281012
vt 0.385385007 0.614257991
vt 0.321907997 0.630859017
vt 0.462532997 0.588867009
vt 0.489342004 0.615234017
vt 0.430307001 0.614257991
vt 0.424447000 0.586914003
vt 0.462532997 0.588867009
vt 0.430307001 0.614257991
vt 0.430307001 0.614257991
vt 0.464486003 0.710937977
vt 0.418588012 0.711914003
vt 0.418588012 0.711914003
vt 0.449838012 0.772460997
vt 0.406868994 0.771484017
vt 0.449838012 0.772460997
vt 0.418588012 0.711914003
vt 0.464486003 0.710937977
vt 0.406868994 0.771484017
vt 0.434213012 0.843750000
vt 0.396126986 0.833007991
vt 0.434213012 0.843750000
vt 0.406868994 0.771484017
vt 0.449838012 0.772460997
vt 0.434213012 0.843750000
vt 0.387338012 0.876953006
vt 0.396126986 0.833007991
vt 0.387338012 0.876953006
vt 0.434213012 0.843750000
vt 0.424447000 0.878906012
vt 0.424447000 0.878906012
vt 0.377572000 0.921875000
vt 0.387338012 0.876953006
vt 0.377572000 0.921875000
vt 0.424447000 0.878906012
vt 0.409799010 0.923828006
vt 0.416635007 0.535561979
vt 0.424447000 0.586914003
vt 0.395150006 0.576452017
vt 0.395150006 0.576452017
vt 0.424447000 0.586914003
vt 0.379525006 0.583984017
vt 0.218750000 0.617187977
vt 0.214844003 0.617187977
vt 0.217416003 0.610351980
vt 0.500618994 0.591796994
vt 0.462532997 0.588867009
vt 0.454721004 0.535561979
vt 0.210938007 0.570591986
vt 0.257454991 0.590820014
vt 0.210938007 0.589843988
vt 0.257454991 0.590820014
vt 0.210938007 0.570591986
vt 0.259407997 0.568638980
vt 0.257454991 0.590820014
vt 0.210938007 0.609375000
vt 0.210938007 0.589843988
vt 0.210938007 0.609375000
vt 0.257454991 0.590820014
vt 0.260385007 0.610351980
vt 0.210938007 0.609375000
vt 0.260385007 0.610351980
vt 0.216440007 0.603515983
vt 0.216440007 0.603515983
vt 0.263314009 0.629882991
vt 0.217416003 0.610351980
vt 0.263314009 0.629882991
vt 0.218750000 0.617187977
vt 0.217416003 0.610351980
vt 0.430307001 0.614257991
vt 0.489342004 0.615234017
vt 0.464486003 0.710937977
vt 0.340463012 0.920898020
vt 0.370736003 0.953125000
vt 0.338510007 0.952148020
vt 0.370736003 0.953125000
vt 0.340463012 0.920898020
vt 0.377572000 0.921875000
vt 0.254525006 0.921875000
vt 0.288704991 0.952148020
vt 0.259407997 0.953125000
vt 0.288704991 0.952148020
vt 0.254525006 0.921875000
vt 0.283822000 0.921875000
vt 0.283822000 0.921875000
vt 0.317025006 0.952148020
vt 0.288704991 0.952148020
vt 0.317025006 0.952148020
vt 0.283822000 0.921875000
vt 0.318978995 0.920898020
vt 0.318978995 0.920898020
vt 0.338510007 0.952148020
vt 0.317025006 0.952148020
vt 0.338510007 0.952148020
vt 0.318978995 0.920898020
vt 0.340463012 0.920898020
vt 0.377572000 0.921875000
vt 0.397103995 0.955078006
vt 0.370736003 0.953125000
vt 0.397103995 0.955078006
vt 0.377572000 0.921875000
vt 0.409799010 0.923828006
vt 0.338510007 0.952148020
vt 0.363900006 0.980468988
vt 0.335579991 0.980468988
vt 0.363900006 0.980468988
vt 0.338510007 0.952148020
vt 0.370736003 0.953125000
vt 0.259407997 0.953125000
vt 0.292611003 0.980468988
vt 0.263314009 0.980468988
vt 0.292611003 0.980468988
vt 0.259407997 0.953125000
vt 0.288704991 0.952148020
vt 0.288704991 0.952148020
vt 0.314096004 0.980468988
vt 0.292611003 0.980468988
vt 0.314096004 0.980468988
vt 0.288704991 0.952148020
vt 0.317025006 0.952148020
vt 0.317025006 0.952148020
vt 0.335579991 0.980468988
vt 0.314096004 0.980468988
vt 0.335579991 0.980468988
vt 0.317025006 0.952148020
vt 0.338510007 0.952148020
vt 0.370736003 0.953125000
vt 0.386361003 0.981445014
vt 0.363900006 0.980468988
vt 0.386361003 0.981445014
vt 0.370736003 0.953125000
vt 0.397103995 0.955078006
vt 0.335579991 0.980468988
vt 0.363900006 0.980468988
vt 0.361947000 0.993164003
vt 0.263314009 0.980468988
vt 0.292611003 0.980468988
vt 0.285775006 0.992187977
vt 0.292611003 0.980468988
vt 0.316049010 0.992187977
vt 0.285775006 0.992187977
vt 0.316049010 0.992187977
vt 0.292611003 0.980468988
vt 0.314096004 0.980468988
vt 0.335579991 0.980468988
vt 0.316049010 0.992187977
vt 0.314096004 0.980468988
vt 0.316049010 0.992187977
vt 0.335579991 0.980468988
vt 0.361947000 0.993164003
vt 0.363900006 0.980468988
vt 0.386361003 0.981445014
vt 0.361947000 0.993164003
vt 0.492639005 0.565295994
vt 0.489445001 0.565295994
vt 0.492852002 0.565297008
vt 0.495088011 0.565295994
vt 0.492639005 0.565295994
vt 0.492852002 0.565297008
vt 0.496472001 0.565295994
vt 0.495088011 0.565295994
vt 0.492852002 0.565297008
vt 0.498140007 0.565298021
vt 0.496472001 0.565298021
vt 0.492852002 0.565297008
vt 0.489445001 0.565295994
vt 0.487612009 0.565295994
vt 0.492852002 0.565297008
vt 0.546494007 0.535561979
vt 0.500618994 0.591796994
vt 0.500618994 0.535561979
vt 0.500618994 0.591796994
vt 0.454721004 0.535561979
vt 0.500618994 0.535561979
vt 0.741210997 0.610741973
vt 0.781250000 0.605468988
vt 0.738281012 0.629882991
vt 0.216440007 0.603515983
vt 0.260385007 0.610351980
vt 0.263314009 0.629882991
vn 0.709725541 -0.630738314 -0.313781509
vn -0.074339349 -0.579790315 -0.811367273
vn -0.022251832 -0.964067561 -0.264723617
vn -0.074339349 -0.579790315 -0.811367273
vn 0.709725541 -0.630738314 -0.313781509
vn 0.111022100 -0.301930393 -0.946843245
vn 0.610453782 0.024430797 -0.791675006
vn 0.709725541 -0.630738314 -0.313781509
vn 0.951228323 -0.107018339 -0.289329834
vn 0.709725541 -0.630738314 -0.313781509
vn 0.610453782 0.024430797 -0.791675006
vn 0.111022100 -0.301930393 -0.946843245
vn 0.413095584 0.723531513 -0.553040855
vn 0.750008241 0.635846874 -0.182171325
vn 0.467941802 0.882897306 0.039023277
vn 0.750008241 0.635846874 -0.182171325
vn 0.413095584 0.723531513 -0.553040855
vn 0.610453782 0.024430797 -0.791675006
vn -0.022251832 -0.964067561 -0.264723617
vn -0.216796160 -0.682416384 -0.698073996
vn -0.257632482 -0.929708675 -0.263186784
vn -0.216796160 -0.682416384 -0.698073996
vn -0.022251832 -0.964067561 -0.264723617
vn -0.074339349 -0.579790315 -0.811367273
vn 0.200243673 0.972290949 -0.120634910
vn 0.882299539 0.467452532 -0.055096768
vn -0.209190264 0.975732923 -0.064689225
vn 0.882299539 0.467452532 -0.055096768
vn 0.200243673 0.972290949 -0.120634910
vn 0.956038732 0.256319077 -0.142444633
vn 0.882299539 0.467452532 -0.055096768
vn 0.037976599 0.997816232 0.054042067
vn -0.209190264 0.975732923 -0.064689225
vn 0.037976599 0.997816232 0.054042067
vn 0.882299539 0.467452532 -0.055096768
vn 0.932574196 0.355107509 0.064838455
vn -0.846277754 0.449861992 0.285373703
vn -0.484326486 -0.817315836 0.312126062
vn -0.467142777 -0.694517184 0.547196040
vn -0.484326486 -0.817315836 0.312126062
vn -0.846277754 0.449861992 0.285373703
vn -0.925074135 0.355035568 0.134861373
vn -0.925074135 0.355035568 0.134861373
vn -0.835494975 -0.512281890 0.198784838
vn -0.484326486 -0.817315836 0.312126062
vn -0.835494975 -0.512281890 0.198784838
vn -0.925074135 0.355035568 0.134861373
vn -0.926961187 0.358320541 0.111127614
vn -0.484326486 -0.817315836 0.312126062
vn 0.617725910 -0.764920976 0.182511922
vn -0.467142777 -0.694517184 0.547196040
vn 0.617725910 -0.764920976 0.182511922
vn -0.484326486 -0.817315836 0.312126062
vn 0.810412483 -0.564120581 0.158112550
vn -0.484326486 -0.817315836 0.312126062
vn 0.571577915 -0.814156230 0.102217029
vn 0.810412483 -0.564120581 0.158112550
vn 0.571577915 -0.814156230 0.102217029
vn -0.484326486 -0.817315836 0.312126062
vn -0.835494975 -0.512281890 0.198784838
vn 0.617725910 -0.764920976 0.182511922
vn 0.882299539 0.467452532 -0.055096768
vn 0.956038732 0.256319077 -0.142444633
vn 0.882299539 0.467452532 -0.055096768
vn 0.617725910 -0.764920976 0.182511922
vn 0.810412483 -0.564120581 0.158112550
vn 0.810412483 -0.564120581 0.158112550
vn 0.932574196 0.355107509 0.064838455
vn 0.882299539 0.467452532 -0.055096768
vn 0.932574196 0.355107509 0.064838455
vn 0.810412483 -0.564120581 0.158112550
vn 0.571577915 -0.814156230 0.102217029
vn 0.403254418 0.899222185 0.169662418
vn 0.910944682 0.409906661 0.046436146
vn -0.057311075 0.987129339 0.149302075
vn 0.910944682 0.409906661 0.046436146
vn 0.403254418 0.899222185 0.169662418
vn 0.934537041 0.355360873 0.018951771
vn -0.057311075 0.987129339 0.149302075
vn 0.914231051 0.405185953 -0.002435020
vn -0.541698659 0.840572521 0.000631407
vn 0.914231051 0.405185953 -0.002435020
vn -0.057311075 0.987129339 0.149302075
vn 0.910944682 0.409906661 0.046436146
vn -0.968421108 0.233296908 0.087938107
vn -0.613737464 -0.788497721 0.039970860
vn -0.323640719 -0.942369629 -0.084830221
vn -0.613737464 -0.788497721 0.039970860
vn -0.968421108 0.233296908 0.087938107
vn -0.966388411 0.236297259 0.101277068
vn -0.966388411 0.236297259 0.101277068
vn -0.617100292 -0.779038871 -0.110840729
vn -0.613737464 -0.788497721 0.039970860
vn -0.617100292 -0.779038871 -0.110840729
vn -0.966388411 0.236297259 0.101277068
vn -0.994222798 0.102631423 -0.031429593
vn -0.323640719 -0.942369629 -0.084830221
vn 0.619547779 -0.784775026 -0.016991399
vn 0.833080098 -0.548805882 -0.069207328
vn 0.619547779 -0.784775026 -0.016991399
vn -0.323640719 -0.942369629 -0.084830221
vn -0.613737464 -0.788497721 0.039970860
vn -0.613737464 -0.788497721 0.039970860
vn 0.623891775 -0.773699466 -0.110218828
vn 0.619547779 -0.784775026 -0.016991399
vn 0.623891775 -0.773699466 -0.110218828
vn -0.613737464 -0.788497721 0.039970860
vn -0.617100292 -0.779038871 -0.110840729
vn 0.833080098 -0.548805882 -0.069207328
vn 0.910944682 0.409906661 0.046436146
vn 0.934537041 0.355360873 0.018951771
vn 0.910944682 0.409906661 0.046436146
vn 0.833080098 -0.548805882 -0.069207328
vn 0.619547779 -0.784775026 -0.016991399
vn 0.619547779 -0.784775026 -0.016991399
vn 0.914231051 0.405185953 -0.002435020
vn 0.910944682 0.409906661 0.046436146
vn 0.914231051 0.405185953 -0.002435020
vn 0.619547779 -0.784775026 -0.016991399
vn 0.623891775 -0.773699466 -0.110218828
vn 0.956038732 0.256319077 -0.142444633
vn 0.750008241 0.635846874 -0.182171325
vn 0.954654333 -0.213893247 -0.207086416
vn 0.750008241 0.635846874 -0.182171325
vn 0.956038732 0.256319077 -0.142444633
vn 0.200243673 0.972290949 -0.120634910
vn 0.467941802 0.882897306 0.039023277
vn 0.531997440 0.775712504 0.339483189
vn 0.256034013 0.965273267 -0.051904760
vn 0.531997440 0.775712504 0.339483189
vn 0.467941802 0.882897306 0.039023277
vn -0.846277754 0.449861992 0.285373703
vn -0.022251832 -0.964067561 -0.264723617
vn 0.705517211 -0.680423759 -0.198164008
vn 0.709725541 -0.630738314 -0.313781509
vn 0.705517211 -0.680423759 -0.198164008
vn -0.022251832 -0.964067561 -0.264723617
vn -0.035548633 -0.998846668 0.032274259
vn -0.035548633 -0.998846668 0.032274259
vn 0.594991222 -0.802036467 -0.052181913
vn 0.705517211 -0.680423759 -0.198164008
vn 0.594991222 -0.802036467 -0.052181913
vn -0.035548633 -0.998846668 0.032274259
vn 0.027610707 -0.874475335 0.484283531
vn 0.027610707 -0.874475335 0.484283531
vn 0.617725910 -0.764920976 0.182511922
vn 0.594991222 -0.802036467 -0.052181913
vn 0.617725910 -0.764920976 0.182511922
vn 0.027610707 -0.874475335 0.484283531
vn -0.467142777 -0.694517184 0.547196040
vn 0.403254418 0.899222185 0.169662418
vn 0.932574196 0.355107509 0.064838455
vn 0.934537041 0.355360873 0.018951771
vn 0.932574196 0.355107509 0.064838455
vn 0.403254418 0.899222185 0.169662418
vn 0.037976599 0.997816232 0.054042067
vn 0.934537041 0.355360873 0.018951771
vn 0.571577915 -0.814156230 0.102217029
vn 0.833080098 -0.548805882 -0.069207328
vn 0.571577915 -0.814156230 0.102217029
vn 0.934537041 0.355360873 0.018951771
vn 0.932574196 0.355107509 0.064838455
vn 0.571577915 -0.814156230 0.102217029
vn -0.323640719 -0.942369629 -0.084830221
vn 0.833080098 -0.548805882 -0.069207328
vn -0.323640719 -0.942369629 -0.084830221
vn 0.571577915 -0.814156230 0.102217029
vn -0.835494975 -0.512281890 0.198784838
vn -0.835494975 -0.512281890 0.198784838
vn -0.968421108 0.233296908 0.087938107
vn -0.323640719 -0.942369629 -0.084830221
vn -0.968421108 0.233296908 0.087938107
vn -0.835494975 -0.512281890 0.198784838
vn -0.926961187 0.358320541 0.111127614
vn 0.709725541 -0.630738314 -0.313781509
vn 0.954654333 -0.213893247 -0.207086416
vn 0.951228323 -0.107018339 -0.289329834
vn 0.954654333 -0.213893247 -0.207086416
vn 0.709725541 -0.630738314 -0.313781509
vn 0.705517211 -0.680423759 -0.198164008
vn 0.705517211 -0.680423759 -0.198164008
vn 0.956038732 0.256319077 -0.142444633
vn 0.954654333 -0.213893247 -0.207086416
vn 0.956038732 0.256319077 -0.142444633
vn 0.705517211 -0.680423759 -0.198164008
vn 0.594991222 -0.802036467 -0.052181913
vn 0.594991222 -0.802036467 -0.052181913
vn 0.617725910 -0.764920976 0.182511922
vn 0.956038732 0.256319077 -0.142444633
vn 0.467941802 0.882897306 0.039023277
vn 0.200243673 0.972290949 -0.120634910
vn -0.846277754 0.449861992 0.285373703
vn 0.750008241 0.635846874 -0.182171325
vn 0.200243673 0.972290949 -0.120634910
vn 0.467941802 0.882897306 0.039023277
vn 0.200243673 0.972290949 -0.120634910
vn -0.209190264 0.975732923 -0.064689225
vn -0.925074135 0.355035568 0.134861373
vn -0.209190264 0.975732923 -0.064689225
vn -0.926961187 0.358320541 0.111127614
vn -0.925074135 0.355035568 0.134861373
vn -0.926961187 0.358320541 0.111127614
vn -0.209190264 0.975732923 -0.064689225
vn 0.037976599 0.997816232 0.054042067
vn 0.037976599 0.997816232 0.054042067
vn -0.968421108 0.233296908 0.087938107
vn -0.926961187 0.358320541 0.111127614
vn -0.968421108 0.233296908 0.087938107
vn 0.037976599 0.997816232 0.054042067
vn 0.403254418 0.899222185 0.169662418
vn -0.968421108 0.233296908 0.087938107
vn -0.057311075 0.987129339 0.149302075
vn -0.966388411 0.236297259 0.101277068
vn -0.057311075 0.987129339 0.149302075
vn -0.968421108 0.233296908 0.087938107
vn 0.403254418 0.899222185 0.169662418
vn -0.966388411 0.236297259 0.101277068
vn -0.541698659 0.840572521 0.000631407
vn -0.994222798 0.102631423 -0.031429593
vn -0.541698659 0.840572521 0.000631407
vn -0.966388411 0.236297259 0.101277068
vn -0.057311075 0.987129339 0.149302075
vn 0.610453782 0.024430797 -0.791675006
vn 0.951228323 -0.107018339 -0.289329834
vn 0.750008241 0.635846874 -0.182171325
vn 0.951228323 -0.107018339 -0.289329834
vn 0.954654333 -0.213893247 -0.207086416
vn 0.750008241 0.635846874 -0.182171325
vn -0.846277754 0.449861992 0.285373703
vn 0.434365524 0.146412942 0.888757471
vn 0.531997440 0.775712504 0.339483189
vn 0.256034013 0.965273267 -0.051904760
vn 0.413095584 0.723531513 -0.553040855
vn 0.467941802 0.882897306 0.039023277
vn -0.257632482 -0.929708675 -0.263186784
vn -0.035548633 -0.998846668 0.032274259
vn -0.022251832 -0.964067561 -0.264723617
vn -0.035548633 -0.998846668 0.032274259
vn -0.257632482 -0.929708675 -0.263186784
vn -0.266216361 -0.963809841 -0.014122310
vn -0.035548633 -0.998846668 0.032274259
vn -0.254827499 -0.926112744 0.278169247
vn 0.027610707 -0.874475335 0.484283531
vn -0.254827499 -0.926112744 0.278169247
vn -0.035548633 -0.998846668 0.032274259
vn -0.266216361 -0.963809841 -0.014122310
vn -0.254827499 -0.926112744 0.278169247
vn -0.228118763 -0.583864382 0.779143256
vn 0.027610707 -0.874475335 0.484283531
vn -0.228118763 -0.583864382 0.779143256
vn 0.434365524 0.146412942 0.888757471
vn -0.467142777 -0.694517184 0.547196040
vn -0.467142777 -0.694517184 0.547196040
vn 0.434365524 0.146412942 0.888757471
vn -0.846277754 0.449861992 0.285373703
vn 0.200243673 0.972290949 -0.120634910
vn -0.925074135 0.355035568 0.134861373
vn -0.846277754 0.449861992 0.285373703
vn 0.914231051 0.405185953 -0.002435020
vn -0.188908797 0.981992463 -0.002065979
vn -0.541698659 0.840572521 0.000631407
vn -0.188908797 0.981992463 -0.002065979
vn 0.914231051 0.405185953 -0.002435020
vn 0.829269839 0.505589586 -0.238098100
vn -0.994222798 0.102631423 -0.031429593
vn -0.458209983 -0.845097789 -0.275414848
vn -0.617100292 -0.779038871 -0.110840729
vn -0.458209983 -0.845097789 -0.275414848
vn -0.994222798 0.102631423 -0.031429593
vn -0.998772930 0.046916575 0.015857767
vn -0.617100292 -0.779038871 -0.110840729
vn 0.742696560 -0.510268802 -0.433621458
vn 0.623891775 -0.773699466 -0.110218828
vn 0.742696560 -0.510268802 -0.433621458
vn -0.617100292 -0.779038871 -0.110840729
vn -0.458209983 -0.845097789 -0.275414848
vn 0.623891775 -0.773699466 -0.110218828
vn 0.829269839 0.505589586 -0.238098100
vn 0.914231051 0.405185953 -0.002435020
vn 0.829269839 0.505589586 -0.238098100
vn 0.623891775 -0.773699466 -0.110218828
vn 0.742696560 -0.510268802 -0.433621458
vn -0.541698659 0.840572521 0.000631407
vn -0.998772930 0.046916575 0.015857767
vn -0.994222798 0.102631423 -0.031429593
vn -0.998772930 0.046916575 0.015857767
vn -0.541698659 0.840572521 0.000631407
vn -0.188908797 0.981992463 -0.002065979
vn 0.829269839 0.505589586 -0.238098100
vn 0.099999513 0.646824911 0.756053987
vn -0.188908797 0.981992463 -0.002065979
vn 0.099999513 0.646824911 0.756053987
vn 0.829269839 0.505589586 -0.238098100
vn 0.816703783 0.329015024 0.474071772
vn -0.998772930 0.046916575 0.015857767
vn -0.239278315 -0.575740397 0.781836865
vn -0.458209983 -0.845097789 -0.275414848
vn -0.239278315 -0.575740397 0.781836865
vn -0.998772930 0.046916575 0.015857767
vn -0.475754439 0.160289331 0.864849723
vn -0.458209983 -0.845097789 -0.275414848
vn 0.694133609 -0.672347310 0.257152926
vn 0.742696560 -0.510268802 -0.433621458
vn 0.694133609 -0.672347310 0.257152926
vn -0.458209983 -0.845097789 -0.275414848
vn -0.239278315 -0.575740397 0.781836865
vn 0.742696560 -0.510268802 -0.433621458
vn 0.816703783 0.329015024 0.474071772
vn 0.829269839 0.505589586 -0.238098100
vn 0.816703783 0.329015024 0.474071772
vn 0.742696560 -0.510268802 -0.433621458
vn 0.694133609 -0.672347310 0.257152926
vn -0.188908797 0.981992463 -0.002065979
vn -0.475754439 0.160289331 0.864849723
vn -0.998772930 0.046916575 0.015857767
vn -0.475754439 0.160289331 0.864849723
vn -0.188908797 0.981992463 -0.002065979
vn 0.099999513 0.646824911 0.756053987
vn 0.816703783 0.329015024 0.474071772
vn 0.126961366 -0.006472393 0.991886546
vn 0.099999513 0.646824911 0.756053987
vn -0.475754439 0.160289331 0.864849723
vn 0.126961366 -0.006472393 0.991886546
vn -0.239278315 -0.575740397 0.781836865
vn -0.239278315 -0.575740397 0.781836865
vn 0.304941462 -0.200283902 0.931073071
vn 0.694133609 -0.672347310 0.257152926
vn 0.304941462 -0.200283902 0.931073071
vn -0.239278315 -0.575740397 0.781836865
vn 0.126961366 -0.006472393 0.991886546
vn 0.304941462 -0.200283902 0.931073071
vn 0.816703783 0.329015024 0.474071772
vn 0.694133609 -0.672347310 0.257152926
vn 0.816703783 0.329015024 0.474071772
vn 0.304941462 -0.200283902 0.931073071
vn 0.126961366 -0.006472393 0.991886546
vn 0.099999513 0.646824911 0.756053987
vn 0.126961366 -0.006472393 0.991886546
vn -0.475754439 0.160289331 0.864849723
vn 0.111022100 -0.301930393 -0.946843245
vn -0.079999018 -0.080012028 -0.993578498
vn -0.074339349 -0.579790315 -0.811367273
vn 0.610453782 0.024430797 -0.791675006
vn -0.079999018 -0.080012028 -0.993578498
vn 0.111022100 -0.301930393 -0.946843245
vn 0.413095584 0.723531513 -0.553040855
vn -0.079999018 -0.080012028 -0.993578498
vn 0.610453782 0.024430797 -0.791675006
vn 0.125653068 0.680353025 -0.722032595
vn -0.079999018 -0.080012028 -0.993578498
vn 0.413095584 0.723531513 -0.553040855
vn -0.074339349 -0.579790315 -0.811367273
vn -0.079999018 -0.080012028 -0.993578498
vn -0.216796160 -0.682416384 -0.698073996
vn -0.925840464 -0.204676346 -0.317690147
vn -0.257746317 -0.482753738 -0.836968138
vn -0.260496133 -0.174230188 -0.949623929
vn -0.257746317 -0.482753738 -0.836968138
vn -0.925840464 -0.204676346 -0.317690147
vn -0.478554632 -0.838581500 -0.260320057
vn -0.483596355 0.279951644 -0.829313959
vn -0.925840464 -0.204676346 -0.317690147
vn -0.260496133 -0.174230188 -0.949623929
vn -0.925840464 -0.204676346 -0.317690147
vn -0.483596355 0.279951644 -0.829313959
vn -0.944904575 0.299176159 -0.132849424
vn -0.074327642 0.824689206 -0.560680938
vn -0.599192458 0.790892966 -0.124325036
vn -0.483596355 0.279951644 -0.829313959
vn -0.599192458 0.790892966 -0.124325036
vn -0.074327642 0.824689206 -0.560680938
vn 0.000139338 0.998535177 -0.054106200
vn -0.478554632 -0.838581500 -0.260320057
vn -0.216796160 -0.682416384 -0.698073996
vn -0.257746317 -0.482753738 -0.836968138
vn -0.216796160 -0.682416384 -0.698073996
vn -0.478554632 -0.838581500 -0.260320057
vn -0.257632482 -0.929708675 -0.263186784
vn -0.397398826 0.917494607 -0.016667923
vn -0.992895209 0.103552229 -0.058617735
vn -0.979580919 0.192774170 -0.057090650
vn -0.992895209 0.103552229 -0.058617735
vn -0.397398826 0.917494607 -0.016667923
vn -0.148931852 0.981989843 0.116255114
vn -0.992895209 0.103552229 -0.058617735
vn -0.409012751 0.902871068 0.132409984
vn -0.996911061 -0.077860119 -0.010302370
vn -0.409012751 0.902871068 0.132409984
vn -0.992895209 0.103552229 -0.058617735
vn -0.148931852 0.981989843 0.116255114
vn 0.775582415 0.602018257 0.189857671
vn 0.753215244 -0.641042421 0.147415777
vn 0.685528343 0.669425163 0.286218172
vn 0.753215244 -0.641042421 0.147415777
vn 0.775582415 0.602018257 0.189857671
vn 0.765327789 -0.571056796 0.296930143
vn 0.685528343 0.669425163 0.286218172
vn 0.958752618 -0.175709989 0.223426539
vn 0.686847580 0.687501239 0.235759303
vn 0.958752618 -0.175709989 0.223426539
vn 0.685528343 0.669425163 0.286218172
vn 0.753215244 -0.641042421 0.147415777
vn -0.564335826 -0.824751688 0.036190172
vn 0.753215244 -0.641042421 0.147415777
vn 0.765327789 -0.571056796 0.296930143
vn 0.753215244 -0.641042421 0.147415777
vn -0.564335826 -0.824751688 0.036190172
vn -0.535536246 -0.843646150 -0.038237449
vn 0.753215244 -0.641042421 0.147415777
vn -0.179086981 -0.983361756 -0.030455037
vn 0.958752618 -0.175709989 0.223426539
vn -0.179086981 -0.983361756 -0.030455037
vn 0.753215244 -0.641042421 0.147415777
vn -0.535536246 -0.843646150 -0.038237449
vn -0.564335826 -0.824751688 0.036190172
vn -0.992895209 0.103552229 -0.058617735
vn -0.535536246 -0.843646150 -0.038237449
vn -0.992895209 0.103552229 -0.058617735
vn -0.564335826 -0.824751688 0.036190172
vn -0.979580919 0.192774170 -0.057090650
vn -0.535536246 -0.843646150 -0.038237449
vn -0.996911061 -0.077860119 -0.010302370
vn -0.179086981 -0.983361756 -0.030455037
vn -0.996911061 -0.077860119 -0.010302370
vn -0.535536246 -0.843646150 -0.038237449
vn -0.992895209 0.103552229 -0.058617735
vn -0.748266419 0.662158386 0.040541820
vn -0.998243022 0.010373943 -0.058337376
vn -0.995229549 -0.051272401 -0.083001725
vn -0.998243022 0.010373943 -0.058337376
vn -0.748266419 0.662158386 0.040541820
vn -0.346920310 0.936793709 0.045429568
vn -0.346920310 0.936793709 0.045429568
vn -0.975954631 -0.054306077 -0.211100471
vn -0.998243022 0.010373943 -0.058337376
vn -0.975954631 -0.054306077 -0.211100471
vn -0.346920310 0.936793709 0.045429568
vn -0.051426630 0.983122420 -0.175572231
vn 0.789682765 0.598730170 0.133877983
vn 0.871045093 -0.465811513 0.155884832
vn 0.782094624 0.606568629 0.142837312
vn 0.871045093 -0.465811513 0.155884832
vn 0.789682765 0.598730170 0.133877983
vn 0.672100234 -0.739027604 0.046037760
vn 0.782094624 0.606568629 0.142837312
vn 0.964148537 -0.265221144 0.008680094
vn 0.788582045 0.611300582 -0.066708001
vn 0.964148537 -0.265221144 0.008680094
vn 0.782094624 0.606568629 0.142837312
vn 0.871045093 -0.465811513 0.155884832
vn 0.672100234 -0.739027604 0.046037760
vn -0.268928415 -0.963065682 0.013490712
vn 0.871045093 -0.465811513 0.155884832
vn -0.268928415 -0.963065682 0.013490712
vn 0.672100234 -0.739027604 0.046037760
vn -0.525586630 -0.848712110 -0.058706462
vn 0.871045093 -0.465811513 0.155884832
vn -0.227642781 -0.972557100 -0.048077566
vn 0.964148537 -0.265221144 0.008680094
vn -0.227642781 -0.972557100 -0.048077566
vn 0.871045093 -0.465811513 0.155884832
vn -0.268928415 -0.963065682 0.013490712
vn -0.525586630 -0.848712110 -0.058706462
vn -0.998243022 0.010373943 -0.058337376
vn -0.268928415 -0.963065682 0.013490712
vn -0.998243022 0.010373943 -0.058337376
vn -0.525586630 -0.848712110 -0.058706462
vn -0.995229549 -0.051272401 -0.083001725
vn -0.268928415 -0.963065682 0.013490712
vn -0.975954631 -0.054306077 -0.211100471
vn -0.227642781 -0.972557100 -0.048077566
vn -0.975954631 -0.054306077 -0.211100471
vn -0.268928415 -0.963065682 0.013490712
vn -0.998243022 0.010373943 -0.058337376
vn -0.979580919 0.192774170 -0.057090650
vn -0.599192458 0.790892966 -0.124325036
vn -0.397398826 0.917494607 -0.016667923
vn -0.599192458 0.790892966 -0.124325036
vn -0.979580919 0.192774170 -0.057090650
vn -0.953579844 0.275641243 -0.121274015
vn 0.531997440 0.775712504 0.339483189
vn 0.000139338 0.998535177 -0.054106200
vn 0.256034013 0.965273267 -0.051904760
vn 0.000139338 0.998535177 -0.054106200
vn 0.531997440 0.775712504 0.339483189
vn 0.775582415 0.602018257 0.189857671
vn -0.478554632 -0.838581500 -0.260320057
vn -0.920100850 -0.374806757 -0.113729156
vn -0.439754456 -0.898117529 0.000960798
vn -0.920100850 -0.374806757 -0.113729156
vn -0.478554632 -0.838581500 -0.260320057
vn -0.925840464 -0.204676346 -0.317690147
vn -0.439754456 -0.898117529 0.000960798
vn -0.785901793 -0.534085268 0.311626856
vn -0.423700523 -0.748298731 0.510418333
vn -0.785901793 -0.534085268 0.311626856
vn -0.439754456 -0.898117529 0.000960798
vn -0.920100850 -0.374806757 -0.113729156
vn -0.423700523 -0.748298731 0.510418333
vn -0.564335826 -0.824751688 0.036190172
vn 0.765327789 -0.571056796 0.296930143
vn -0.564335826 -0.824751688 0.036190172
vn -0.423700523 -0.748298731 0.510418333
vn -0.785901793 -0.534085268 0.311626856
vn -0.748266419 0.662158386 0.040541820
vn -0.996911061 -0.077860119 -0.010302370
vn -0.409012751 0.902871068 0.132409984
vn -0.996911061 -0.077860119 -0.010302370
vn -0.748266419 0.662158386 0.040541820
vn -0.995229549 -0.051272401 -0.083001725
vn -0.995229549 -0.051272401 -0.083001725
vn -0.179086981 -0.983361756 -0.030455037
vn -0.996911061 -0.077860119 -0.010302370
vn -0.179086981 -0.983361756 -0.030455037
vn -0.995229549 -0.051272401 -0.083001725
vn -0.525586630 -0.848712110 -0.058706462
vn -0.179086981 -0.983361756 -0.030455037
vn 0.672100234 -0.739027604 0.046037760
vn 0.958752618 -0.175709989 0.223426539
vn 0.672100234 -0.739027604 0.046037760
vn -0.179086981 -0.983361756 -0.030455037
vn -0.525586630 -0.848712110 -0.058706462
vn 0.958752618 -0.175709989 0.223426539
vn 0.789682765 0.598730170 0.133877983
vn 0.686847580 0.687501239 0.235759303
vn 0.789682765 0.598730170 0.133877983
vn 0.958752618 -0.175709989 0.223426539
vn 0.672100234 -0.739027604 0.046037760
vn -0.925840464 -0.204676346 -0.317690147
vn -0.953579844 0.275641243 -0.121274015
vn -0.920100850 -0.374806757 -0.113729156
vn -0.953579844 0.275641243 -0.121274015
vn -0.925840464 -0.204676346 -0.317690147
vn -0.944904575 0.299176159 -0.132849424
vn -0.920100850 -0.374806757 -0.113729156
vn -0.979580919 0.192774170 -0.057090650
vn -0.785901793 -0.534085268 0.311626856
vn -0.979580919 0.192774170 -0.057090650
vn -0.920100850 -0.374806757 -0.113729156
vn -0.953579844 0.275641243 -0.121274015
vn -0.785901793 -0.534085268 0.311626856
vn -0.979580919 0.192774170 -0.057090650
vn -0.564335826 -0.824751688 0.036190172
vn 0.000139338 0.998535177 -0.054106200
vn 0.775582415 0.602018257 0.189857671
vn -0.397398826 0.917494607 -0.016667923
vn -0.599192458 0.790892966 -0.124325036
vn 0.000139338 0.998535177 -0.054106200
vn -0.397398826 0.917494607 -0.016667923
vn -0.397398826 0.917494607 -0.016667923
vn 0.685528343 0.669425163 0.286218172
vn -0.148931852 0.981989843 0.116255114
vn -0.148931852 0.981989843 0.116255114
vn 0.686847580 0.687501239 0.235759303
vn -0.409012751 0.902871068 0.132409984
vn 0.686847580 0.687501239 0.235759303
vn -0.148931852 0.981989843 0.116255114
vn 0.685528343 0.669425163 0.286218172
vn -0.409012751 0.902871068 0.132409984
vn 0.789682765 0.598730170 0.133877983
vn -0.748266419 0.662158386 0.040541820
vn 0.789682765 0.598730170 0.133877983
vn -0.409012751 0.902871068 0.132409984
vn 0.686847580 0.687501239 0.235759303
vn 0.789682765 0.598730170 0.133877983
vn -0.346920310 0.936793709 0.045429568
vn -0.748266419 0.662158386 0.040541820
vn -0.346920310 0.936793709 0.045429568
vn 0.789682765 0.598730170 0.133877983
vn 0.782094624 0.606568629 0.142837312
vn 0.782094624 0.606568629 0.142837312
vn -0.051426630 0.983122420 -0.175572231
vn -0.346920310 0.936793709 0.045429568
vn -0.051426630 0.983122420 -0.175572231
vn 0.782094624 0.606568629 0.142837312
vn 0.788582045 0.611300582 -0.066708001
vn -0.483596355 0.279951644 -0.829313959
vn -0.599192458 0.790892966 -0.124325036
vn -0.944904575 0.299176159 -0.132849424
vn -0.944904575 0.299176159 -0.132849424
vn -0.599192458 0.790892966 -0.124325036
vn -0.953579844 0.275641243 -0.121274015
vn 0.775582415 0.602018257 0.189857671
vn 0.531997440 0.775712504 0.339483189
vn 0.434365524 0.146412942 0.888757471
vn 0.256034013 0.965273267 -0.051904760
vn 0.000139338 0.998535177 -0.054106200
vn -0.074327642 0.824689206 -0.560680938
vn -0.257632482 -0.929708675 -0.263186784
vn -0.439754456 -0.898117529 0.000960798
vn -0.266216361 -0.963809841 -0.014122310
vn -0.439754456 -0.898117529 0.000960798
vn -0.257632482 -0.929708675 -0.263186784
vn -0.478554632 -0.838581500 -0.260320057
vn -0.439754456 -0.898117529 0.000960798
vn -0.254827499 -0.926112744 0.278169247
vn -0.266216361 -0.963809841 -0.014122310
vn -0.254827499 -0.926112744 0.278169247
vn -0.439754456 -0.898117529 0.000960798
vn -0.423700523 -0.748298731 0.510418333
vn -0.254827499 -0.926112744 0.278169247
vn -0.423700523 -0.748298731 0.510418333
vn -0.228118763 -0.583864382 0.779143256
vn -0.228118763 -0.583864382 0.779143256
vn 0.765327789 -0.571056796 0.296930143
vn 0.434365524 0.146412942 0.888757471
vn 0.765327789 -0.571056796 0.296930143
vn 0.775582415 0.602018257 0.189857671
vn 0.434365524 0.146412942 0.888757471
vn -0.397398826 0.917494607 -0.016667923
vn 0.775582415 0.602018257 0.189857671
vn 0.685528343 0.669425163 0.286218172
vn -0.975954631 -0.054306077 -0.211100471
vn -0.557486901 0.809337040 -0.184883507
vn -0.919010233 -0.347323392 -0.186511801
vn -0.557486901 0.809337040 -0.184883507
vn -0.975954631 -0.054306077 -0.211100471
vn -0.051426630 0.983122420 -0.175572231
vn 0.788582045 0.611300582 -0.066708001
vn 0.974674483 -0.175229950 -0.138939255
vn 0.584026444 0.803461030 0.115600543
vn 0.974674483 -0.175229950 -0.138939255
vn 0.788582045 0.611300582 -0.066708001
vn 0.964148537 -0.265221144 0.008680094
vn 0.964148537 -0.265221144 0.008680094
vn -0.128106883 -0.977348328 -0.168460301
vn 0.974674483 -0.175229950 -0.138939255
vn -0.128106883 -0.977348328 -0.168460301
vn 0.964148537 -0.265221144 0.008680094
vn -0.227642781 -0.972557100 -0.048077566
vn -0.227642781 -0.972557100 -0.048077566
vn -0.919010233 -0.347323392 -0.186511801
vn -0.128106883 -0.977348328 -0.168460301
vn -0.919010233 -0.347323392 -0.186511801
vn -0.227642781 -0.972557100 -0.048077566
vn -0.975954631 -0.054306077 -0.211100471
vn -0.051426630 0.983122420 -0.175572231
vn 0.584026444 0.803461030 0.115600543
vn -0.557486901 0.809337040 -0.184883507
vn 0.584026444 0.803461030 0.115600543
vn -0.051426630 0.983122420 -0.175572231
vn 0.788582045 0.611300582 -0.066708001
vn -0.919010233 -0.347323392 -0.186511801
vn -0.644084225 0.364138896 0.672724591
vn -0.805434775 -0.410177213 0.427819443
vn -0.644084225 0.364138896 0.672724591
vn -0.919010233 -0.347323392 -0.186511801
vn -0.557486901 0.809337040 -0.184883507
vn 0.584026444 0.803461030 0.115600543
vn 0.524861494 -0.080915877 0.847332894
vn 0.106140162 0.557817403 0.823148839
vn 0.524861494 -0.080915877 0.847332894
vn 0.584026444 0.803461030 0.115600543
vn 0.974674483 -0.175229950 -0.138939255
vn 0.974674483 -0.175229950 -0.138939255
vn 0.066131254 -0.933194076 0.353235720
vn 0.524861494 -0.080915877 0.847332894
vn 0.066131254 -0.933194076 0.353235720
vn 0.974674483 -0.175229950 -0.138939255
vn -0.128106883 -0.977348328 -0.168460301
vn -0.128106883 -0.977348328 -0.168460301
vn -0.805434775 -0.410177213 0.427819443
vn 0.066131254 -0.933194076 0.353235720
vn -0.805434775 -0.410177213 0.427819443
vn -0.128106883 -0.977348328 -0.168460301
vn -0.919010233 -0.347323392 -0.186511801
vn -0.557486901 0.809337040 -0.184883507
vn 0.106140162 0.557817403 0.823148839
vn -0.644084225 0.364138896 0.672724591
vn 0.106140162 0.557817403 0.823148839
vn -0.557486901 0.809337040 -0.184883507
vn 0.584026444 0.803461030 0.115600543
vn -0.805434775 -0.410177213 0.427819443
vn -0.644084225 0.364138896 0.672724591
vn -0.168684296 -0.015053059 0.985555180
vn 0.106140162 0.557817403 0.823148839
vn 0.524861494 -0.080915877 0.847332894
vn -0.168684296 -0.015053059 0.985555180
vn 0.524861494 -0.080915877 0.847332894
vn -0.125326047 -0.275293113 0.953156380
vn -0.168684296 -0.015053059 0.985555180
vn -0.125326047 -0.275293113 0.953156380
vn 0.524861494 -0.080915877 0.847332894
vn 0.066131254 -0.933194076 0.353235720
vn -0.805434775 -0.410177213 0.427819443
vn -0.125326047 -0.275293113 0.953156380
vn 0.066131254 -0.933194076 0.353235720
vn -0.125326047 -0.275293113 0.953156380
vn -0.805434775 -0.410177213 0.427819443
vn -0.168684296 -0.015053059 0.985555180
vn -0.644084225 0.364138896 0.672724591
vn 0.106140162 0.557817403 0.823148839
vn -0.168684296 -0.015053059 0.985555180
vn -0.260496133 -0.174230188 -0.949623929
vn -0.257746317 -0.482753738 -0.836968138
vn -0.079999018 -0.080012028 -0.993578498
vn -0.483596355 0.279951644 -0.829313959
vn -0.260496133 -0.174230188 -0.949623929
vn -0.079999018 -0.080012028 -0.993578498
vn -0.074327642 0.824689206 -0.560680938
vn -0.483596355 0.279951644 -0.829313959
vn -0.079999018 -0.080012028 -0.993578498
vn 0.125653068 0.680353025 -0.722032595
vn -0.074327642 0.824689206 -0.560680938
vn -0.079999018 -0.080012028 -0.993578498
vn -0.257746317 -0.482753738 -0.836968138
vn -0.216796160 -0.682416384 -0.698073996
vn -0.079999018 -0.080012028 -0.993578498
vn 0.413095584 0.723531513 -0.553040855
vn 0.256034013 0.965273267 -0.051904760
vn 0.125653068 0.680353025 -0.722032595
vn 0.256034013 0.965273267 -0.051904760
vn -0.074327642 0.824689206 -0.560680938
vn 0.125653068 0.680353025 -0.722032595
vn 0.027610707 -0.874475335 0.484283531
vn -0.228118763 -0.583864382 0.779143256
vn -0.467142777 -0.694517184 0.547196040
vn -0.228118763 -0.583864382 0.779143256
vn -0.423700523 -0.748298731 0.510418333
vn 0.765327789 -0.571056796 0.296930143
f 3/3/3 2/2/2 1/1/1
f 6/6/6 5/5/5 4/4/4
f 9/9/9 8/8/8 7/7/7
f 12/12/12 11/11/11 10/10/10
f 15/15/15 14/14/14 13/13/13
f 18/18/18 17/17/17 16/16/16
f 21/21/21 20/20/20 19/19/19
f 24/24/24 23/23/23 22/22/22
f 27/27/27 26/26/26 25/25/25
f 30/30/30 29/29/29 28/28/28
f 33/33/33 32/32/32 31/31/31
f 36/36/36 35/35/35 34/34/34
f 39/39/39 38/38/38 37/37/37
f 42/42/42 41/41/41 40/40/40
f 45/45/45 44/44/44 43/43/43
f 48/48/48 47/47/47 46/46/46
f 51/51/51 50/50/50 49/49/49
f 54/54/54 53/53/53 52/52/52
f 57/57/57 56/56/56 55/55/55
f 60/60/60 59/59/59 58/58/58
f 63/63/63 62/62/62 61/61/61
f 66/66/66 65/65/65 64/64/64
f 69/69/69 68/68/68 67/67/67
f 72/72/72 71/71/71 70/70/70
f 75/75/75 74/74/74 73/73/73
f 78/78/78 77/77/77 76/76/76
f 81/81/81 80/80/80 79/79/79
f 84/84/84 83/83/83 82/82/82
f 87/87/87 86/86/86 85/85/85
f 90/90/90 89/89/89 88/88/88
f 93/93/93 92/92/92 91/91/91
f 96/96/96 95/95/95 94/94/94
f 99/99/99 98/98/98 97/97/97
f 102/102/102 101/101/101 100/100/100
f 105/105/105 104/104/104 103/103/103
f 108/108/108 107/107/107 106/106/106
f 111/111/111 110/110/110 109/109/109
f 114/114/114 113/113/113 112/112/112
f 117/117/117 116/116/116 115/115/115
f 120/120/120 119/119/119 118/118/118
f 123/123/123 122/122/122 121/121/121
f 126/126/126 125/125/125 124/124/124
f 129/129/129 128/128/128 127/127/127
f 132/132/132 131/131/131 130/130/130
f 135/135/135 134/134/134 133/133/133
f 138/138/138 137/137/137 136/136/136
f 141/141/141 140/140/140 139/139/139
f 144/144/144 143/143/143 142/142/142
f 147/147/147 146/146/146 145/145/145
f 150/150/150 149/149/149 148/148/148
f 153/153/153 152/152/152 151/151/151
f 156/156/156 155/155/155 154/154/154
f 159/159/159 158/158/158 157/157/157
f 162/162/162 161/161/161 160/160/160
f 165/165/165 164/164/164 163/163/163
f 168/168/168 167/167/167 166/166/166
f 171/171/171 170/170/170 169/169/169
f 174/174/174 173/173/173 172/172/172
f 177/177/177 176/176/176 175/175/175
f 180/180/180 179/179/179 178/178/178
f 183/183/183 182/182/182 181/181/181
f 186/186/186 185/185/185 184/184/184
f 189/189/189 188/188/188 187/187/187
f 192/192/192 191/191/191 190/190/190
f 195/195/195 194/194/194 193/193/193
f 198/198/198 197/197/197 196/196/196
f 201/201/201 200/200/200 199/199/199
f 204/204/204 203/203/203 202/202/202
f 207/207/207 206/206/206 205/205/205
f 210/210/210 209/209/209 208/208/208
f 213/213/213 212/212/212 211/211/211
f 216/216/216 215/215/215 214/214/214
f 219/219/219 218/218/218 217/217/217
f 222/222/222 221/221/221 220/220/220
f 225/225/225 224/224/224 223/223/223
f 228/228/228 227/227/227 226/226/226
f 231/231/231 230/230/230 229/229/229
f 234/234/234 233/233/233 232/232/232
f 237/237/237 236/236/236 235/235/235
f 240/240/240 239/239/239 238/238/238
f 243/243/243 242/242/242 241/241/241
f 246/246/246 245/245/245 244/244/244
f 249/249/249 248/248/248 247/247/247
f 252/252/252 251/251/251 250/250/250
f 255/255/255 254/254/254 253/253/253
f 258/258/258 257/257/257 256/256/256
f 261/261/261 260/260/260 259/259/259
f 264/264/264 263/263/263 262/262/262
f 267/267/267 266/266/266 265/265/265
f 270/270/270 269/269/269 268/268/268
f 273/273/273 272/272/272 271/271/271
f 276/276/276 275/275/275 274/274/274
f 279/279/279 278/278/278 277/277/277
f 282/282/282 281/281/281 280/280/280
f 285/285/285 284/284/284 283/283/283
f 288/288/288 287/287/287 286/286/286
f 291/291/291 290/290/290 289/289/289
f 294/294/294 293/293/293 292/292/292
f 297/297/297 296/296/296 295/295/295
f 300/300/300 299/299/299 298/298/298
f 303/303/303 302/302/302 301/301/301
f 306/306/306 305/305/305 304/304/304
f 309/309/309 308/308/308 307/307/307
f 312/312/312 311/311/311 310/310/310
f 315/315/315 314/314/314 313/313/313
f 318/318/318 317/317/317 316/316/316
f 321/321/321 320/320/320 319/319/319
f 324/324/324 323/323/323 322/322/322
f 327/327/327 326/326/326 325/325/325
f 330/330/330 329/329/329 328/328/328
f 333/333/333 332/332/332 331/331/331
f 336/336/336 335/335/335 334/334/334
f 339/339/339 338/338/338 337/337/337
f 342/342/342 341/341/341 340/340/340
f 345/345/345 344/344/344 343/343/343
f 348/348/348 347/347/347 346/346/346
f 351/351/351 350/350/350 349/349/349
f 354/354/354 353/353/353 352/352/352
f 357/357/357 356/356/356 355/355/355
f 360/360/360 359/359/359 358/358/358
f 363/363/363 362/362/362 361/361/361
f 366/366/366 365/365/365 364/364/364
f 369/369/369 368/368/368 367/367/367
f 372/372/372 371/371/371 370/370/370
f 375/375/375 374/374/374 373/373/373
f 378/378/378 377/377/377 376/376/376
f 381/381/381 380/380/380 379/379/379
f 384/384/384 383/383/383 382/382/382
f 387/387/387 386/386/386 385/385/385
f 390/390/390 389/389/389 388/388/388
f 393/393/393 392/392/392 391/391/391
f 396/396/396 395/395/395 394/394/394
f 399/399/399 398/398/398 397/397/397
f 402/402/402 401/401/401 400/400/400
f 405/405/405 404/404/404 403/403/403
f 408/408/408 407/407/407 406/406/406
f 411/411/411 410/410/410 409/409/409
f 414/414/414 413/413/413 412/412/412
f 417/417/417 416/416/416 415/415/415
f 420/420/420 419/419/419 418/418/418
f 423/423/423 422/422/422 421/421/421
f 426/426/426 425/425/425 424/424/424
f 429/429/429 428/428/428 427/427/427
f 432/432/432 431/431/431 430/430/430
f 435/435/435 434/434/434 433/433/433
f 438/438/438 437/437/437 436/436/436
f 441/441/441 440/440/440 439/439/439
f 444/444/444 443/443/443 442/442/442
f 447/447/447 446/446/446 445/445/445
f 450/450/450 449/449/449 448/448/448
f 453/453/453 452/452/452 451/451/451
f 456/456/456 455/455/455 454/454/454
f 459/459/459 458/458/458 457/457/457
f 462/462/462 461/461/461 460/460/460
f 465/465/465 464/464/464 463/463/463
f 468/468/468 467/467/467 466/466/466
f 471/471/471 470/470/470 469/469/469
f 474/474/474 473/473/473 472/472/472
f 477/477/477 476/476/476 475/475/475
f 480/480/480 479/479/479 478/478/478
f 483/483/483 482/482/482 481/481/481
f 486/486/486 485/485/485 484/484/484
f 489/489/489 488/488/488 487/487/487
f 492/492/492 491/491/491 490/490/490
f 495/495/495 494/494/494 493/493/493
f 498/498/498 497/497/497 496/496/496
f 501/501/501 500/500/500 499/499/499
f 504/504/504 503/503/503 502/502/502
f 507/507/507 506/506/506 505/505/505
f 510/510/510 509/509/509 508/508/508
f 513/513/513 512/512/512 511/511/511
f 516/516/516 515/515/515 514/514/514
f 519/519/519 518/518/518 517/517/517
f 522/522/522 521/521/521 520/520/520
f 525/525/525 524/524/524 523/523/523
f 528/528/528 527/527/527 526/526/526
f 531/531/531 530/530/530 529/529/529
f 534/534/534 533/533/533 532/532/532
f 537/537/537 536/536/536 535/535/535
f 540/540/540 539/539/539 538/538/538
f 543/543/543 542/542/542 541/541/541
f 546/546/546 545/545/545 544/544/544
f 549/549/549 548/548/548 547/547/547
f 552/552/552 551/551/551 550/550/550
f 555/555/555 554/554/554 553/553/553
f 558/558/558 557/557/557 556/556/556
f 561/561/561 560/560/560 559/559/559
f 564/564/564 563/563/563 562/562/562
f 567/567/567 566/566/566 565/565/565
f 570/570/570 569/569/569 568/568/568
f 573/573/573 572/572/572 571/571/571
f 576/576/576 575/575/575 574/574/574
f 579/579/579 578/578/578 577/577/577
f 582/582/582 581/581/581 580/580/580
f 585/585/585 584/584/584 583/583/583
f 588/588/588 587/587/587 586/586/586
f 591/591/591 590/590/590 589/589/589
f 594/594/594 593/593/593 592/592/592
f 597/597/597 596/596/596 595/595/595
f 600/600/600 599/599/599 598/598/598
f 603/603/603 602/602/602 601/601/601
f 606/606/606 605/605/605 604/604/604
f 609/609/609 608/608/608 607/607/607
f 612/612/612 611/611/611 610/610/610
f 615/615/615 614/614/614 613/613/613
f 618/618/618 617/617/617 616/616/616
f 621/621/621 620/620/620 619/619/619
f 624/624/624 623/623/623 622/622/622
f 627/627/627 626/626/626 625/625/625
f 630/630/630 629/629/629 628/628/628
f 633/633/633 632/632/632 631/631/631
f 636/636/636 635/635/635 634/634/634
f 639/639/639 638/638/638 637/637/637
f 642/642/642 641/641/641 640/640/640
f 645/645/645 644/644/644 643/643/643
f 648/648/648 647/647/647 646/646/646
f 651/651/651 650/650/650 649/649/649
f 654/654/654 653/653/653 652/652/652
f 657/657/657 656/656/656 655/655/655
f 660/660/660 659/659/659 658/658/658
f 663/663/663 662/662/662 661/661/661
f 666/666/666 665/665/665 664/664/664
f 669/669/669 668/668/668 667/667/667
f 672/672/672 671/671/671 670/670/670
f 675/675/675 674/674/674 673/673/673
f 678/678/678 677/677/677 676/676/676
f 681/681/681 680/680/680 679/679/679
f 684/684/684 683/683/683 682/682/682
f 687/687/687 686/686/686 685/685/685
f 690/690/690 689/689/689 688/688/688
f 693/693/693 692/692/692 691/691/691
f 696/696/696 695/695/695 694/694/694
f 699/699/699 698/698/698 697/697/697
f 702/702/702 701/701/701 700/700/700
f 705/705/705 704/704/704 703/703/703
f 708/708/708 707/707/707 706/706/706
f 711/711/711 710/710/710 709/709/709
f 714/714/714 713/713/713 712/712/712
f 717/717/717 716/716/716 715/715/715
f 720/720/720 719/719/719 718/718/718
