# Static pose baked from local Project Zomboid assets
o Kate_Hair_Bob
v -0.096122060 0.121677773 -0.452860707
v -0.101380649 0.152837098 -0.448246254
v -0.115985782 0.145878204 -0.449978517
v -0.096122060 0.121677773 -0.452860707
v -0.085383063 0.144286301 -0.444504260
v -0.101380649 0.152837098 -0.448246254
v -0.096122060 0.121677773 -0.452860707
v -0.072148435 0.142260948 -0.454894110
v -0.085383063 0.144286301 -0.444504260
v -0.096122060 0.121677773 -0.452860707
v -0.064002958 0.125826928 -0.459776167
v -0.072148435 0.142260948 -0.454894110
v -0.096122060 0.121677773 -0.452860707
v -0.067314278 0.111755851 -0.462453094
v -0.064002958 0.125826928 -0.459776167
v -0.096122060 0.121677773 -0.452860707
v -0.074156669 0.094845432 -0.454482717
v -0.067314278 0.111755851 -0.462453094
v -0.106406750 0.175883883 -0.418449466
v -0.115985782 0.145878204 -0.449978517
v -0.101380649 0.152837098 -0.448246254
v -0.115985782 0.145878204 -0.449978517
v -0.106406750 0.175883883 -0.418449466
v -0.132839222 0.165019517 -0.417027057
v -0.081245838 0.159077551 -0.425901845
v -0.101380649 0.152837098 -0.448246254
v -0.085383063 0.144286301 -0.444504260
v -0.101380649 0.152837098 -0.448246254
v -0.081245838 0.159077551 -0.425901845
v -0.106406750 0.175883883 -0.418449466
v -0.056374519 0.156135759 -0.430197445
v -0.085383063 0.144286301 -0.444504260
v -0.072148435 0.142260948 -0.454894110
v -0.085383063 0.144286301 -0.444504260
v -0.056374519 0.156135759 -0.430197445
v -0.081245838 0.159077551 -0.425901845
v -0.034647765 0.126164865 -0.443028822
v -0.072148435 0.142260948 -0.454894110
v -0.064002958 0.125826928 -0.459776167
v -0.072148435 0.142260948 -0.454894110
v -0.034647765 0.126164865 -0.443028822
v -0.056374519 0.156135759 -0.430197445
v -0.038508096 0.101745986 -0.447949990
v -0.064002958 0.125826928 -0.459776167
v -0.067314278 0.111755851 -0.462453094
v -0.064002958 0.125826928 -0.459776167
v -0.038508096 0.101745986 -0.447949990
v -0.034647765 0.126164865 -0.443028822
v -0.057709636 0.074419401 -0.448358660
v -0.067314278 0.111755851 -0.462453094
v -0.074156669 0.094845432 -0.454482717
v -0.067314278 0.111755851 -0.462453094
v -0.057709636 0.074419401 -0.448358660
v -0.038508096 0.101745986 -0.447949990
v -0.104457106 0.178826453 -0.388894875
v -0.132839222 0.165019517 -0.417027057
v -0.106406750 0.175883883 -0.418449466
v -0.132839222 0.165019517 -0.417027057
v -0.104457106 0.178826453 -0.388894875
v -0.134845401 0.166077347 -0.386345644
v -0.078920687 0.173680521 -0.395434105
v -0.106406750 0.175883883 -0.418449466
v -0.081245838 0.159077551 -0.425901845
v -0.106406750 0.175883883 -0.418449466
v -0.078920687 0.173680521 -0.395434105
v -0.104457106 0.178826453 -0.388894875
v -0.036600989 0.163004778 -0.388522868
v -0.081245838 0.159077551 -0.425901845
v -0.056374519 0.156135759 -0.430197445
v -0.081245838 0.159077551 -0.425901845
v -0.036600989 0.163004778 -0.388522868
v -0.078920687 0.173680521 -0.395434105
v -0.010526909 0.131108562 -0.409891688
v -0.056374519 0.156135759 -0.430197445
v -0.034647765 0.126164865 -0.443028822
v -0.056374519 0.156135759 -0.430197445
v -0.010526909 0.131108562 -0.409891688
v -0.036600989 0.163004778 -0.388522868
v -0.018053025 0.096323503 -0.416605731
v -0.034647765 0.126164865 -0.443028822
v -0.038508096 0.101745986 -0.447949990
v -0.034647765 0.126164865 -0.443028822
v -0.018053025 0.096323503 -0.416605731
v -0.010526909 0.131108562 -0.409891688
v -0.047142939 0.060203505 -0.420468248
v -0.038508096 0.101745986 -0.447949990
v -0.057709636 0.074419401 -0.448358660
v -0.038508096 0.101745986 -0.447949990
v -0.047142939 0.060203505 -0.420468248
v -0.018053025 0.096323503 -0.416605731
v -0.105913890 0.173696765 -0.383739579
v -0.134845401 0.166077347 -0.386345644
v -0.104457106 0.178826453 -0.388894875
v -0.134845401 0.166077347 -0.386345644
v -0.105913890 0.173696765 -0.383739579
v -0.132213953 0.162628874 -0.381411143
v -0.083380506 0.167330475 -0.390114071
v -0.104457106 0.178826453 -0.388894875
v -0.078920687 0.173680521 -0.395434105
v -0.104457106 0.178826453 -0.388894875
v -0.083380506 0.167330475 -0.390114071
v -0.105913890 0.173696765 -0.383739579
v -0.071368346 0.167201306 -0.347482661
v -0.078920687 0.173680521 -0.395434105
v -0.036600989 0.163004778 -0.388522868
v -0.078920687 0.173680521 -0.395434105
v -0.071368346 0.167201306 -0.347482661
v -0.083380506 0.167330475 -0.390114071
v -0.015036597 0.125195876 -0.363680969
v -0.036600989 0.163004778 -0.388522868
v -0.010526909 0.131108562 -0.409891688
v -0.036600989 0.163004778 -0.388522868
v -0.015036597 0.125195876 -0.363680969
v -0.071368346 0.167201306 -0.347482661
v -0.016732521 0.088671267 -0.371637818
v -0.010526909 0.131108562 -0.409891688
v -0.018053025 0.096323503 -0.416605731
v -0.010526909 0.131108562 -0.409891688
v -0.016732521 0.088671267 -0.371637818
v -0.015036597 0.125195876 -0.363680969
v -0.043967676 0.054257529 -0.375388109
v -0.018053025 0.096323503 -0.416605731
v -0.047142939 0.060203505 -0.420468248
v -0.018053025 0.096323503 -0.416605731
v -0.043967676 0.054257529 -0.375388109
v -0.016732521 0.088671267 -0.371637818
v -0.015036597 0.125195876 -0.363680969
v -0.062808093 0.151525148 -0.323590112
v -0.071368346 0.167201306 -0.347482661
v -0.062808093 0.151525148 -0.323590112
v -0.015036597 0.125195876 -0.363680969
v -0.010493065 0.138091303 -0.331803806
v -0.016732521 0.088671267 -0.371637818
v -0.010493065 0.138091303 -0.331803806
v -0.015036597 0.125195876 -0.363680969
v -0.010493065 0.138091303 -0.331803806
v -0.016732521 0.088671267 -0.371637818
v -0.004674609 0.081960950 -0.344829154
v -0.043967676 0.054257529 -0.375388109
v -0.004674609 0.081960950 -0.344829154
v -0.016732521 0.088671267 -0.371637818
v -0.004674609 0.081960950 -0.344829154
v -0.043967676 0.054257529 -0.375388109
v -0.033775173 0.040608018 -0.349865613
v -0.010493065 0.138091303 -0.331803806
v -0.076248811 0.142207059 -0.303867397
v -0.062808093 0.151525148 -0.323590112
v -0.076248811 0.142207059 -0.303867397
v -0.010493065 0.138091303 -0.331803806
v -0.034917813 0.129745560 -0.302143890
v -0.004674609 0.081960950 -0.344829154
v -0.034917813 0.129745560 -0.302143890
v -0.010493065 0.138091303 -0.331803806
v -0.034917813 0.129745560 -0.302143890
v -0.004674609 0.081960950 -0.344829154
v -0.015592219 0.080150198 -0.318494290
v -0.033775173 0.040608018 -0.349865613
v -0.015592219 0.080150198 -0.318494290
v -0.004674609 0.081960950 -0.344829154
v -0.015592219 0.080150198 -0.318494290
v -0.033775173 0.040608018 -0.349865613
v -0.041251650 0.048488559 -0.321856646
v -0.085146476 0.162047438 -0.387686325
v -0.071368346 0.167201306 -0.347482661
v -0.067405522 0.151237217 -0.351647890
v -0.071368346 0.167201306 -0.347482661
v -0.085146476 0.162047438 -0.387686325
v -0.083380506 0.167330475 -0.390114071
v -0.062808093 0.151525148 -0.323590112
v -0.067405522 0.151237217 -0.351647890
v -0.071368346 0.167201306 -0.347482661
v -0.067405522 0.151237217 -0.351647890
v -0.062808093 0.151525148 -0.323590112
v -0.066685251 0.137895278 -0.326085235
v -0.076248811 0.142207059 -0.303867397
v -0.066685251 0.137895278 -0.326085235
v -0.062808093 0.151525148 -0.323590112
v -0.066685251 0.137895278 -0.326085235
v -0.076248811 0.142207059 -0.303867397
v -0.081779811 0.137691745 -0.304073377
v -0.034917813 0.129745560 -0.302143890
v -0.081779811 0.137691745 -0.304073377
v -0.076248811 0.142207059 -0.303867397
v -0.081779811 0.137691745 -0.304073377
v -0.034917813 0.129745560 -0.302143890
v -0.055236859 0.113157802 -0.302900589
v -0.015592219 0.080150198 -0.318494290
v -0.055236859 0.113157802 -0.302900589
v -0.034917813 0.129745560 -0.302143890
v -0.055236859 0.113157802 -0.302900589
v -0.015592219 0.080150198 -0.318494290
v -0.036890649 0.081802440 -0.315010521
v -0.041251650 0.048488559 -0.321856646
v -0.036890649 0.081802440 -0.315010521
v -0.015592219 0.080150198 -0.318494290
v -0.036890649 0.081802440 -0.315010521
v -0.041251650 0.048488559 -0.321856646
v -0.053945657 0.063796490 -0.316562811
v -0.096122060 0.121677773 -0.452860707
v -0.115985782 0.145878204 -0.449978517
v -0.125784258 0.132914846 -0.449155065
v -0.096122060 0.121677773 -0.452860707
v -0.125784258 0.132914846 -0.449155065
v -0.120766593 0.115400426 -0.445821973
v -0.096122060 0.121677773 -0.452860707
v -0.120766593 0.115400426 -0.445821973
v -0.120955653 0.102416444 -0.456711733
v -0.096122060 0.121677773 -0.452860707
v -0.120955653 0.102416444 -0.456711733
v -0.106271781 0.091320142 -0.461350294
v -0.096122060 0.121677773 -0.452860707
v -0.106271781 0.091320142 -0.461350294
v -0.091717887 0.091833599 -0.463361905
v -0.096122060 0.121677773 -0.452860707
v -0.091717887 0.091833599 -0.463361905
v -0.074156669 0.094845432 -0.454482717
v -0.148675572 0.141377096 -0.420023593
v -0.115985782 0.145878204 -0.449978517
v -0.132839222 0.165019517 -0.417027057
v -0.115985782 0.145878204 -0.449978517
v -0.148675572 0.141377096 -0.420023593
v -0.125784258 0.132914846 -0.449155065
v -0.136901178 0.113642481 -0.427974497
v -0.125784258 0.132914846 -0.449155065
v -0.148675572 0.141377096 -0.420023593
v -0.125784258 0.132914846 -0.449155065
v -0.136901178 0.113642481 -0.427974497
v -0.120766593 0.115400426 -0.445821973
v -0.138782770 0.088860548 -0.433266399
v -0.120766593 0.115400426 -0.445821973
v -0.136901178 0.113642481 -0.427974497
v -0.120766593 0.115400426 -0.445821973
v -0.138782770 0.088860548 -0.433266399
v -0.120955653 0.102416444 -0.456711733
v -0.113196784 0.062040197 -0.445954055
v -0.120955653 0.102416444 -0.456711733
v -0.138782770 0.088860548 -0.433266399
v -0.120955653 0.102416444 -0.456711733
v -0.113196784 0.062040197 -0.445954055
v -0.106271781 0.091320142 -0.461350294
v -0.088303353 0.061094882 -0.449804408
v -0.106271781 0.091320142 -0.461350294
v -0.113196784 0.062040197 -0.445954055
v -0.106271781 0.091320142 -0.461350294
v -0.088303353 0.061094882 -0.449804408
v -0.091717887 0.091833599 -0.463361905
v -0.057709636 0.074419401 -0.448358660
v -0.091717887 0.091833599 -0.463361905
v -0.088303353 0.061094882 -0.449804408
v -0.091717887 0.091833599 -0.463361905
v -0.057709636 0.074419401 -0.448358660
v -0.074156669 0.094845432 -0.454482717
v -0.153264324 0.138981950 -0.390712498
v -0.132839222 0.165019517 -0.417027057
v -0.134845401 0.166077347 -0.386345644
v -0.132839222 0.165019517 -0.417027057
v -0.153264324 0.138981950 -0.390712498
v -0.148675572 0.141377096 -0.420023593
v -0.153020438 0.113188079 -0.398193643
v -0.148675572 0.141377096 -0.420023593
v -0.153264324 0.138981950 -0.390712498
v -0.148675572 0.141377096 -0.420023593
v -0.153020438 0.113188079 -0.398193643
v -0.136901178 0.113642481 -0.427974497
v -0.151306315 0.069363367 -0.392794592
v -0.136901178 0.113642481 -0.427974497
v -0.153020438 0.113188079 -0.398193643
v -0.136901178 0.113642481 -0.427974497
v -0.151306315 0.069363367 -0.392794592
v -0.138782770 0.088860548 -0.433266399
v -0.124320072 0.038211809 -0.414129442
v -0.138782770 0.088860548 -0.433266399
v -0.151306315 0.069363367 -0.392794592
v -0.138782770 0.088860548 -0.433266399
v -0.124320072 0.038211809 -0.414129442
v -0.113196784 0.062040197 -0.445954055
v -0.088468541 0.038838742 -0.419228065
v -0.113196784 0.062040197 -0.445954055
v -0.124320072 0.038211809 -0.414129442
v -0.113196784 0.062040197 -0.445954055
v -0.088468541 0.038838742 -0.419228065
v -0.088303353 0.061094882 -0.449804408
v -0.047142939 0.060203505 -0.420468248
v -0.088303353 0.061094882 -0.449804408
v -0.088468541 0.038838742 -0.419228065
v -0.088303353 0.061094882 -0.449804408
v -0.047142939 0.060203505 -0.420468248
v -0.057709636 0.074419401 -0.448358660
v -0.148182713 0.139189979 -0.385313706
v -0.134845401 0.166077347 -0.386345644
v -0.132213953 0.162628874 -0.381411143
v -0.134845401 0.166077347 -0.386345644
v -0.148182713 0.139189979 -0.385313706
v -0.153264324 0.138981950 -0.390712498
v -0.146153440 0.116084851 -0.392451788
v -0.153264324 0.138981950 -0.390712498
v -0.148182713 0.139189979 -0.385313706
v -0.153264324 0.138981950 -0.390712498
v -0.146153440 0.116084851 -0.392451788
v -0.153020438 0.113188079 -0.398193643
v -0.150323111 0.102745402 -0.350423004
v -0.153020438 0.113188079 -0.398193643
v -0.146153440 0.116084851 -0.392451788
v -0.153020438 0.113188079 -0.398193643
v -0.150323111 0.102745402 -0.350423004
v -0.151306315 0.069363367 -0.392794592
v -0.119697377 0.039754480 -0.367578626
v -0.151306315 0.069363367 -0.392794592
v -0.150323111 0.102745402 -0.350423004
v -0.151306315 0.069363367 -0.392794592
v -0.119697377 0.039754480 -0.367578626
v -0.124320072 0.038211809 -0.414129442
v -0.083248536 0.034369922 -0.374114931
v -0.124320072 0.038211809 -0.414129442
v -0.119697377 0.039754480 -0.367578626
v -0.124320072 0.038211809 -0.414129442
v -0.083248536 0.034369922 -0.374114931
v -0.088468541 0.038838742 -0.419228065
v -0.043967676 0.054257529 -0.375388109
v -0.088468541 0.038838742 -0.419228065
v -0.083248536 0.034369922 -0.374114931
v -0.088468541 0.038838742 -0.419228065
v -0.043967676 0.054257529 -0.375388109
v -0.047142939 0.060203505 -0.420468248
v -0.119697377 0.039754480 -0.367578626
v -0.137748758 0.090346213 -0.326380967
v -0.134649786 0.036734104 -0.336427508
v -0.137748758 0.090346213 -0.326380967
v -0.119697377 0.039754480 -0.367578626
v -0.150323111 0.102745402 -0.350423004
v -0.083248536 0.034369922 -0.374114931
v -0.134649786 0.036734104 -0.336427508
v -0.080278100 0.020240908 -0.347644692
v -0.134649786 0.036734104 -0.336427508
v -0.083248536 0.034369922 -0.374114931
v -0.119697377 0.039754480 -0.367578626
v -0.043967676 0.054257529 -0.375388109
v -0.080278100 0.020240908 -0.347644692
v -0.033775173 0.040608018 -0.349865613
v -0.080278100 0.020240908 -0.347644692
v -0.043967676 0.054257529 -0.375388109
v -0.083248536 0.034369922 -0.374114931
v -0.134649786 0.036734104 -0.336427508
v -0.126830780 0.100913711 -0.305751113
v -0.122939913 0.057887400 -0.305421908
v -0.126830780 0.100913711 -0.305751113
v -0.134649786 0.036734104 -0.336427508
v -0.137748758 0.090346213 -0.326380967
v -0.080278100 0.020240908 -0.347644692
v -0.122939913 0.057887400 -0.305421908
v -0.077507203 0.029604974 -0.320800057
v -0.122939913 0.057887400 -0.305421908
v -0.080278100 0.020240908 -0.347644692
v -0.134649786 0.036734104 -0.336427508
v -0.033775173 0.040608018 -0.349865613
v -0.077507203 0.029604974 -0.320800057
v -0.041251650 0.048488559 -0.321856646
v -0.077507203 0.029604974 -0.320800057
v -0.033775173 0.040608018 -0.349865613
v -0.080278100 0.020240908 -0.347644692
v -0.140738326 0.116664199 -0.389756613
v -0.150323111 0.102745402 -0.350423004
v -0.146153440 0.116084851 -0.392451788
v -0.150323111 0.102745402 -0.350423004
v -0.140738326 0.116664199 -0.389756613
v -0.135298285 0.095811943 -0.354176274
v -0.137748758 0.090346213 -0.326380967
v -0.135298285 0.095811943 -0.354176274
v -0.123522214 0.091495572 -0.328201892
v -0.135298285 0.095811943 -0.354176274
v -0.137748758 0.090346213 -0.326380967
v -0.150323111 0.102745402 -0.350423004
v -0.126830780 0.100913711 -0.305751113
v -0.123522214 0.091495572 -0.328201892
v -0.121299781 0.105429025 -0.305545134
v -0.123522214 0.091495572 -0.328201892
v -0.126830780 0.100913711 -0.305751113
v -0.137748758 0.090346213 -0.326380967
v -0.122939913 0.057887400 -0.305421908
v -0.121299781 0.105429025 -0.305545134
v -0.102620867 0.074475157 -0.304665209
v -0.121299781 0.105429025 -0.305545134
v -0.122939913 0.057887400 -0.305421908
v -0.126830780 0.100913711 -0.305751113
v -0.077507203 0.029604974 -0.320800057
v -0.102620867 0.074475157 -0.304665209
v -0.075038516 0.050659857 -0.316431180
v -0.102620867 0.074475157 -0.304665209
v -0.077507203 0.029604974 -0.320800057
v -0.122939913 0.057887400 -0.305421908
v -0.041251650 0.048488559 -0.321856646
v -0.075038516 0.050659857 -0.316431180
v -0.053945657 0.063796490 -0.316562811
v -0.075038516 0.050659857 -0.316431180
v -0.041251650 0.048488559 -0.321856646
v -0.077507203 0.029604974 -0.320800057
vt 0.201452002 0.376536965
vt 0.241410002 0.458920956
vt 0.200026006 0.462502956
vt 0.201452002 0.376536965
vt 0.278138995 0.426470041
vt 0.241410002 0.458920956
vt 0.306840986 0.024426997
vt 0.252721995 0.061303020
vt 0.229321003 0.043986022
vt 0.306840986 0.024426997
vt 0.294961005 0.070536017
vt 0.252721995 0.061303020
vt 0.306840986 0.024426997
vt 0.334239006 0.068275988
vt 0.294961005 0.070536017
vt 0.306840986 0.024426997
vt 0.393480986 0.068028986
vt 0.334239006 0.068275988
vt 0.268258005 0.559836984
vt 0.200026006 0.462502956
vt 0.241410002 0.458920956
vt 0.200026006 0.462502956
vt 0.268258005 0.559836984
vt 0.198148996 0.575707972
vt 0.324712992 0.497231007
vt 0.241410002 0.458920956
vt 0.278138995 0.426470041
vt 0.241410002 0.458920956
vt 0.324712992 0.497231007
vt 0.268258005 0.559836984
vt 0.195352003 0.095734000
vt 0.229321003 0.043986022
vt 0.252721995 0.061303020
vt 0.229321003 0.043986022
vt 0.195352003 0.095734000
vt 0.158020005 0.069949985
vt 0.275628000 0.114161015
vt 0.252721995 0.061303020
vt 0.294961005 0.070536017
vt 0.252721995 0.061303020
vt 0.275628000 0.114161015
vt 0.195352003 0.095734000
vt 0.326647013 0.114273012
vt 0.294961005 0.070536017
vt 0.334239006 0.068275988
vt 0.294961005 0.070536017
vt 0.326647013 0.114273012
vt 0.275628000 0.114161015
vt 0.392738998 0.113941014
vt 0.334239006 0.068275988
vt 0.393480986 0.068028986
vt 0.334239006 0.068275988
vt 0.392738998 0.113941014
vt 0.326647013 0.114273012
vt 0.289133012 0.637656987
vt 0.198148996 0.575707972
vt 0.268258005 0.559836984
vt 0.198148996 0.575707972
vt 0.289133012 0.637656987
vt 0.196775004 0.658820987
vt 0.353841990 0.597265005
vt 0.268258005 0.559836984
vt 0.324712992 0.497231007
vt 0.268258005 0.559836984
vt 0.353841990 0.597265005
vt 0.289133012 0.637656987
vt 0.152842999 0.161903977
vt 0.158020005 0.069949985
vt 0.195352003 0.095734000
vt 0.158020005 0.069949985
vt 0.152842999 0.161903977
vt 0.083094999 0.122246027
vt 0.241043001 0.163609028
vt 0.195352003 0.095734000
vt 0.275628000 0.114161015
vt 0.195352003 0.095734000
vt 0.241043001 0.163609028
vt 0.152842999 0.161903977
vt 0.304280013 0.165601969
vt 0.275628000 0.114161015
vt 0.326647013 0.114273012
vt 0.275628000 0.114161015
vt 0.304280013 0.165601969
vt 0.241043001 0.163609028
vt 0.391914994 0.164876997
vt 0.326647013 0.114273012
vt 0.392738998 0.113941014
vt 0.326647013 0.114273012
vt 0.391914994 0.164876997
vt 0.304280013 0.165601969
vt 0.286778986 0.657455027
vt 0.196775004 0.658820987
vt 0.289133012 0.637656987
vt 0.196775004 0.658820987
vt 0.286778986 0.657455027
vt 0.196502998 0.675261974
vt 0.353377014 0.625795007
vt 0.289133012 0.637656987
vt 0.353841990 0.597265005
vt 0.289133012 0.637656987
vt 0.353377014 0.625795007
vt 0.286778986 0.657455027
vt 0.054724999 0.211055994
vt 0.083094999 0.122246027
vt 0.152842999 0.161903977
vt 0.083094999 0.122246027
vt 0.054724999 0.211055994
vt 0.057367999 0.142791986
vt 0.213997006 0.222612977
vt 0.152842999 0.161903977
vt 0.241043001 0.163609028
vt 0.152842999 0.161903977
vt 0.213997006 0.222612977
vt 0.054724999 0.211055994
vt 0.297816008 0.229247987
vt 0.241043001 0.163609028
vt 0.304280013 0.165601969
vt 0.241043001 0.163609028
vt 0.297816008 0.229247987
vt 0.213997006 0.222612977
vt 0.390839010 0.231364965
vt 0.304280013 0.165601969
vt 0.391914994 0.164876997
vt 0.304280013 0.165601969
vt 0.390839010 0.231364965
vt 0.297816008 0.229247987
vt 0.213997006 0.222612977
vt 0.070221998 0.261026025
vt 0.054724999 0.211055994
vt 0.070221998 0.261026025
vt 0.213997006 0.222612977
vt 0.183258995 0.257542968
vt 0.297816008 0.229247987
vt 0.183258995 0.257542968
vt 0.213997006 0.222612977
vt 0.183258995 0.257542968
vt 0.297816008 0.229247987
vt 0.293633997 0.270334959
vt 0.390839010 0.231364965
vt 0.293633997 0.270334959
vt 0.297816008 0.229247987
vt 0.293633997 0.270334959
vt 0.390839010 0.231364965
vt 0.390127987 0.275061965
vt 0.183258995 0.257542968
vt 0.064595997 0.304639995
vt 0.070221998 0.261026025
vt 0.064595997 0.304639995
vt 0.183258995 0.257542968
vt 0.161569998 0.304264009
vt 0.293633997 0.270334959
vt 0.161569998 0.304264009
vt 0.183258995 0.257542968
vt 0.161569998 0.304264009
vt 0.293633997 0.270334959
vt 0.290253013 0.309579015
vt 0.390127987 0.275061965
vt 0.290253013 0.309579015
vt 0.293633997 0.270334959
vt 0.290253013 0.309579015
vt 0.390127987 0.275061965
vt 0.389432013 0.318019986
vt 0.043471001 0.149921000
vt 0.054724999 0.211055994
vt 0.023313999 0.216723979
vt 0.054724999 0.211055994
vt 0.043471001 0.149921000
vt 0.057367999 0.142791986
vt 0.070221998 0.261026025
vt 0.023313999 0.216723979
vt 0.054724999 0.211055994
vt 0.023313999 0.216723979
vt 0.070221998 0.261026025
vt 0.038550999 0.267773032
vt 0.064595997 0.304639995
vt 0.038550999 0.267773032
vt 0.070221998 0.261026025
vt 0.038550999 0.267773032
vt 0.064595997 0.304639995
vt 0.059560999 0.312649012
vt 0.161569998 0.304264009
vt 0.059560999 0.312649012
vt 0.064595997 0.304639995
vt 0.059560999 0.312649012
vt 0.161569998 0.304264009
vt 0.159804001 0.338217974
vt 0.290253013 0.309579015
vt 0.159804001 0.338217974
vt 0.161569998 0.304264009
vt 0.159804001 0.338217974
vt 0.290253013 0.309579015
vt 0.289321989 0.337581992
vt 0.389432013 0.318019986
vt 0.289321989 0.337581992
vt 0.290253013 0.309579015
vt 0.289321989 0.337581992
vt 0.389432013 0.318019986
vt 0.388965011 0.346894026
vt 0.201452002 0.376536965
vt 0.200026006 0.462502956
vt 0.158782005 0.457549989
vt 0.201452002 0.376536965
vt 0.158782005 0.457549989
vt 0.123147003 0.423898995
vt 0.481510997 0.025641024
vt 0.558393002 0.046283007
vt 0.534435987 0.063266993
vt 0.481510997 0.025641024
vt 0.534435987 0.063266993
vt 0.491903991 0.071905017
vt 0.481510997 0.025641024
vt 0.491903991 0.071905017
vt 0.452702999 0.069097996
vt 0.481510997 0.025641024
vt 0.452702999 0.069097996
vt 0.393480986 0.068028986
vt 0.128601998 0.557519019
vt 0.200026006 0.462502956
vt 0.198148996 0.575707972
vt 0.200026006 0.462502956
vt 0.128601998 0.557519019
vt 0.158782005 0.457549989
vt 0.074244000 0.493083000
vt 0.158782005 0.457549989
vt 0.128601998 0.557519019
vt 0.158782005 0.457549989
vt 0.074244000 0.493083000
vt 0.123147003 0.423898995
vt 0.590687990 0.098500013
vt 0.558393002 0.046283007
vt 0.628849983 0.073251009
vt 0.558393002 0.046283007
vt 0.590687990 0.098500013
vt 0.534435987 0.063266993
vt 0.509827018 0.115790009
vt 0.534435987 0.063266993
vt 0.590687990 0.098500013
vt 0.534435987 0.063266993
vt 0.509827018 0.115790009
vt 0.491903991 0.071905017
vt 0.458808988 0.115188003
vt 0.491903991 0.071905017
vt 0.509827018 0.115790009
vt 0.491903991 0.071905017
vt 0.458808988 0.115188003
vt 0.452702999 0.069097996
vt 0.392738998 0.113941014
vt 0.452702999 0.069097996
vt 0.458808988 0.115188003
vt 0.452702999 0.069097996
vt 0.392738998 0.113941014
vt 0.393480986 0.068028986
vt 0.105169997 0.634597003
vt 0.198148996 0.575707972
vt 0.196775004 0.658820987
vt 0.198148996 0.575707972
vt 0.105169997 0.634597003
vt 0.128601998 0.557519019
vt 0.041809998 0.592123985
vt 0.128601998 0.557519019
vt 0.105169997 0.634597003
vt 0.128601998 0.557519019
vt 0.041809998 0.592123985
vt 0.074244000 0.493083000
vt 0.631047010 0.165261984
vt 0.628849983 0.073251009
vt 0.702073991 0.126608968
vt 0.628849983 0.073251009
vt 0.631047010 0.165261984
vt 0.590687990 0.098500013
vt 0.542809010 0.165705979
vt 0.590687990 0.098500013
vt 0.631047010 0.165261984
vt 0.590687990 0.098500013
vt 0.542809010 0.165705979
vt 0.509827018 0.115790009
vt 0.479510009 0.166813970
vt 0.509827018 0.115790009
vt 0.542809010 0.165705979
vt 0.509827018 0.115790009
vt 0.479510009 0.166813970
vt 0.458808988 0.115188003
vt 0.391914994 0.164876997
vt 0.458808988 0.115188003
vt 0.479510009 0.166813970
vt 0.458808988 0.115188003
vt 0.391914994 0.164876997
vt 0.392738998 0.113941014
vt 0.106880002 0.654456973
vt 0.196775004 0.658820987
vt 0.196502998 0.675261974
vt 0.196775004 0.658820987
vt 0.106880002 0.654456973
vt 0.105169997 0.634597003
vt 0.041342001 0.620671988
vt 0.105169997 0.634597003
vt 0.106880002 0.654456973
vt 0.105169997 0.634597003
vt 0.041342001 0.620671988
vt 0.041809998 0.592123985
vt 0.727549016 0.215829968
vt 0.702073991 0.126608968
vt 0.727135003 0.147533000
vt 0.702073991 0.126608968
vt 0.727549016 0.215829968
vt 0.631047010 0.165261984
vt 0.567942977 0.225058019
vt 0.631047010 0.165261984
vt 0.727549016 0.215829968
vt 0.631047010 0.165261984
vt 0.567942977 0.225058019
vt 0.542809010 0.165705979
vt 0.483915001 0.230525970
vt 0.542809010 0.165705979
vt 0.567942977 0.225058019
vt 0.542809010 0.165705979
vt 0.483915001 0.230525970
vt 0.479510009 0.166813970
vt 0.390839010 0.231364965
vt 0.479510009 0.166813970
vt 0.483915001 0.230525970
vt 0.479510009 0.166813970
vt 0.390839010 0.231364965
vt 0.391914994 0.164876997
vt 0.567942977 0.225058019
vt 0.710393012 0.265568972
vt 0.597498000 0.260421038
vt 0.710393012 0.265568972
vt 0.567942977 0.225058019
vt 0.727549016 0.215829968
vt 0.483915001 0.230525970
vt 0.597498000 0.260421038
vt 0.486746997 0.271661043
vt 0.597498000 0.260421038
vt 0.483915001 0.230525970
vt 0.567942977 0.225058019
vt 0.390839010 0.231364965
vt 0.486746997 0.271661043
vt 0.390127987 0.275061965
vt 0.486746997 0.271661043
vt 0.390839010 0.231364965
vt 0.483915001 0.230525970
vt 0.597498000 0.260421038
vt 0.714591980 0.309240997
vt 0.617663980 0.307456970
vt 0.714591980 0.309240997
vt 0.597498000 0.260421038
vt 0.710393012 0.265568972
vt 0.486746997 0.271661043
vt 0.617663980 0.307456970
vt 0.488851994 0.310953975
vt 0.617663980 0.307456970
vt 0.486746997 0.271661043
vt 0.597498000 0.260421038
vt 0.390127987 0.275061965
vt 0.488851994 0.310953975
vt 0.389432013 0.318019986
vt 0.488851994 0.310953975
vt 0.390127987 0.275061965
vt 0.486746997 0.271661043
vt 0.740795016 0.154863000
vt 0.727549016 0.215829968
vt 0.727135003 0.147533000
vt 0.727549016 0.215829968
vt 0.740795016 0.154863000
vt 0.758762002 0.221939981
vt 0.710393012 0.265568972
vt 0.758762002 0.221939981
vt 0.741840005 0.272758961
vt 0.758762002 0.221939981
vt 0.710393012 0.265568972
vt 0.727549016 0.215829968
vt 0.714591980 0.309240997
vt 0.741840005 0.272758961
vt 0.719367981 0.317321002
vt 0.741840005 0.272758961
vt 0.714591980 0.309240997
vt 0.710393012 0.265568972
vt 0.617663980 0.307456970
vt 0.719367981 0.317321002
vt 0.618317008 0.341436028
vt 0.719367981 0.317321002
vt 0.617663980 0.307456970
vt 0.714591980 0.309240997
vt 0.488851994 0.310953975
vt 0.618317008 0.341436028
vt 0.488873988 0.338968992
vt 0.618317008 0.341436028
vt 0.488851994 0.310953975
vt 0.617663980 0.307456970
vt 0.389432013 0.318019986
vt 0.488873988 0.338968992
vt 0.388965011 0.346894026
vt 0.488873988 0.338968992
vt 0.389432013 0.318019986
vt 0.488851994 0.310953975
vn -0.124661853 0.197063911 -0.972432639
vn 0.205905709 0.597825118 -0.774730900
vn -0.404146769 0.529093822 -0.746140145
vn -0.124661853 0.197063911 -0.972432639
vn 0.021809491 0.690657001 -0.722853548
vn 0.205905709 0.597825118 -0.774730900
vn -0.124661853 0.197063911 -0.972432639
vn 0.129424364 0.608451657 -0.782966101
vn 0.021809491 0.690657001 -0.722853548
vn -0.124661853 0.197063911 -0.972432639
vn 0.240148578 0.214523774 -0.946735555
vn 0.129424364 0.608451657 -0.782966101
vn -0.124661853 0.197063911 -0.972432639
vn 0.077313946 -0.161947021 -0.983766088
vn 0.240148578 0.214523774 -0.946735555
vn -0.124661853 0.197063911 -0.972432639
vn 0.068918975 -0.038947033 -0.996861727
vn 0.077313946 -0.161947021 -0.983766088
vn -0.002663102 0.899747150 -0.436403453
vn -0.404146769 0.529093822 -0.746140145
vn 0.205905709 0.597825118 -0.774730900
vn -0.404146769 0.529093822 -0.746140145
vn -0.002663102 0.899747150 -0.436403453
vn -0.597833620 0.745727225 -0.294084798
vn 0.267542675 0.854424991 -0.445397408
vn 0.205905709 0.597825118 -0.774730900
vn 0.021809491 0.690657001 -0.722853548
vn 0.205905709 0.597825118 -0.774730900
vn 0.267542675 0.854424991 -0.445397408
vn -0.002663102 0.899747150 -0.436403453
vn 0.391033735 0.788123132 -0.475346765
vn 0.021809491 0.690657001 -0.722853548
vn 0.129424364 0.608451657 -0.782966101
vn 0.021809491 0.690657001 -0.722853548
vn 0.391033735 0.788123132 -0.475346765
vn 0.267542675 0.854424991 -0.445397408
vn 0.664319328 0.328590965 -0.671347755
vn 0.129424364 0.608451657 -0.782966101
vn 0.240148578 0.214523774 -0.946735555
vn 0.129424364 0.608451657 -0.782966101
vn 0.664319328 0.328590965 -0.671347755
vn 0.391033735 0.788123132 -0.475346765
vn 0.649526628 -0.266991938 -0.711920266
vn 0.240148578 0.214523774 -0.946735555
vn 0.077313946 -0.161947021 -0.983766088
vn 0.240148578 0.214523774 -0.946735555
vn 0.649526628 -0.266991938 -0.711920266
vn 0.664319328 0.328590965 -0.671347755
vn 0.394009267 -0.445977589 -0.803654582
vn 0.077313946 -0.161947021 -0.983766088
vn 0.068918975 -0.038947033 -0.996861727
vn 0.077313946 -0.161947021 -0.983766088
vn 0.394009267 -0.445977589 -0.803654582
vn 0.649526628 -0.266991938 -0.711920266
vn -0.173960752 0.981039297 0.085437426
vn -0.597833620 0.745727225 -0.294084798
vn -0.002663102 0.899747150 -0.436403453
vn -0.597833620 0.745727225 -0.294084798
vn -0.173960752 0.981039297 0.085437426
vn -0.628706872 0.763362625 0.148341401
vn 0.229588431 0.964978105 -0.126911027
vn -0.002663102 0.899747150 -0.436403453
vn 0.267542675 0.854424991 -0.445397408
vn -0.002663102 0.899747150 -0.436403453
vn 0.229588431 0.964978105 -0.126911027
vn -0.173960752 0.981039297 0.085437426
vn 0.527457501 0.849574998 0.003302741
vn 0.267542675 0.854424991 -0.445397408
vn 0.391033735 0.788123132 -0.475346765
vn 0.267542675 0.854424991 -0.445397408
vn 0.527457501 0.849574998 0.003302741
vn 0.229588431 0.964978105 -0.126911027
vn 0.908930021 0.346123529 -0.232475202
vn 0.391033735 0.788123132 -0.475346765
vn 0.664319328 0.328590965 -0.671347755
vn 0.391033735 0.788123132 -0.475346765
vn 0.908930021 0.346123529 -0.232475202
vn 0.527457501 0.849574998 0.003302741
vn 0.857256860 -0.410757528 -0.310465667
vn 0.664319328 0.328590965 -0.671347755
vn 0.649526628 -0.266991938 -0.711920266
vn 0.664319328 0.328590965 -0.671347755
vn 0.857256860 -0.410757528 -0.310465667
vn 0.908930021 0.346123529 -0.232475202
vn 0.593406810 -0.709554239 -0.380001499
vn 0.649526628 -0.266991938 -0.711920266
vn 0.394009267 -0.445977589 -0.803654582
vn 0.649526628 -0.266991938 -0.711920266
vn 0.593406810 -0.709554239 -0.380001499
vn 0.857256860 -0.410757528 -0.310465667
vn -0.061181758 0.718138051 0.693205981
vn -0.628706872 0.763362625 0.148341401
vn -0.173960752 0.981039297 0.085437426
vn -0.628706872 0.763362625 0.148341401
vn -0.061181758 0.718138051 0.693205981
vn -0.489902890 0.570012927 0.659606263
vn -0.443702359 0.704053751 0.554469596
vn -0.173960752 0.981039297 0.085437426
vn 0.229588431 0.964978105 -0.126911027
vn -0.173960752 0.981039297 0.085437426
vn -0.443702359 0.704053751 0.554469596
vn -0.061181758 0.718138051 0.693205981
vn 0.301773435 0.866481809 0.397670804
vn 0.229588431 0.964978105 -0.126911027
vn 0.527457501 0.849574998 0.003302741
vn 0.229588431 0.964978105 -0.126911027
vn 0.301773435 0.866481809 0.397670804
vn -0.443702359 0.704053751 0.554469596
vn 0.783161168 0.606878509 0.135488229
vn 0.527457501 0.849574998 0.003302741
vn 0.908930021 0.346123529 -0.232475202
vn 0.527457501 0.849574998 0.003302741
vn 0.783161168 0.606878509 0.135488229
vn 0.301773435 0.866481809 0.397670804
vn 0.956777214 -0.230363163 -0.177511059
vn 0.908930021 0.346123529 -0.232475202
vn 0.857256860 -0.410757528 -0.310465667
vn 0.908930021 0.346123529 -0.232475202
vn 0.956777214 -0.230363163 -0.177511059
vn 0.783161168 0.606878509 0.135488229
vn 0.609928801 -0.733438002 -0.300092577
vn 0.857256860 -0.410757528 -0.310465667
vn 0.593406810 -0.709554239 -0.380001499
vn 0.857256860 -0.410757528 -0.310465667
vn 0.609928801 -0.733438002 -0.300092577
vn 0.956777214 -0.230363163 -0.177511059
vn 0.783161168 0.606878509 0.135488229
vn 0.186812120 0.976899221 0.103774489
vn 0.301773435 0.866481809 0.397670804
vn 0.186812120 0.976899221 0.103774489
vn 0.783161168 0.606878509 0.135488229
vn 0.790220904 0.586729518 0.176916354
vn 0.956777214 -0.230363163 -0.177511059
vn 0.790220904 0.586729518 0.176916354
vn 0.783161168 0.606878509 0.135488229
vn 0.790220904 0.586729518 0.176916354
vn 0.956777214 -0.230363163 -0.177511059
vn 0.976597526 -0.210883261 0.042255438
vn 0.609928801 -0.733438002 -0.300092577
vn 0.976597526 -0.210883261 0.042255438
vn 0.956777214 -0.230363163 -0.177511059
vn 0.976597526 -0.210883261 0.042255438
vn 0.609928801 -0.733438002 -0.300092577
vn 0.632445209 -0.774601522 -0.002353764
vn 0.790220904 0.586729518 0.176916354
vn 0.105475502 0.867539399 0.486055871
vn 0.186812120 0.976899221 0.103774489
vn 0.105475502 0.867539399 0.486055871
vn 0.790220904 0.586729518 0.176916354
vn 0.568184401 0.172918222 0.804528293
vn 0.976597526 -0.210883261 0.042255438
vn 0.568184401 0.172918222 0.804528293
vn 0.790220904 0.586729518 0.176916354
vn 0.568184401 0.172918222 0.804528293
vn 0.976597526 -0.210883261 0.042255438
vn 0.634698382 -0.330259479 0.698631978
vn 0.632445209 -0.774601522 -0.002353764
vn 0.634698382 -0.330259479 0.698631978
vn 0.976597526 -0.210883261 0.042255438
vn 0.634698382 -0.330259479 0.698631978
vn 0.632445209 -0.774601522 -0.002353764
vn 0.400756075 -0.525150289 0.750740795
vn -0.933704046 -0.124007700 0.335885167
vn 0.301773435 0.866481809 0.397670804
vn -0.954663464 -0.164560999 0.248067226
vn 0.301773435 0.866481809 0.397670804
vn -0.933704046 -0.124007700 0.335885167
vn -0.443702359 0.704053751 0.554469596
vn 0.186812120 0.976899221 0.103774489
vn -0.954663464 -0.164560999 0.248067226
vn 0.301773435 0.866481809 0.397670804
vn -0.954663464 -0.164560999 0.248067226
vn 0.186812120 0.976899221 0.103774489
vn -0.904065741 0.388392738 -0.178371007
vn 0.105475502 0.867539399 0.486055871
vn -0.904065741 0.388392738 -0.178371007
vn 0.186812120 0.976899221 0.103774489
vn -0.904065741 0.388392738 -0.178371007
vn 0.105475502 0.867539399 0.486055871
vn -0.129159410 0.113273129 0.985133009
vn 0.568184401 0.172918222 0.804528293
vn -0.129159410 0.113273129 0.985133009
vn 0.105475502 0.867539399 0.486055871
vn -0.129159410 0.113273129 0.985133009
vn 0.568184401 0.172918222 0.804528293
vn 0.096003507 -0.180994977 0.978787078
vn 0.634698382 -0.330259479 0.698631978
vn 0.096003507 -0.180994977 0.978787078
vn 0.568184401 0.172918222 0.804528293
vn 0.096003507 -0.180994977 0.978787078
vn 0.634698382 -0.330259479 0.698631978
vn 0.138292287 -0.242180839 0.960324781
vn 0.400756075 -0.525150289 0.750740795
vn 0.138292287 -0.242180839 0.960324781
vn 0.634698382 -0.330259479 0.698631978
vn 0.138292287 -0.242180839 0.960324781
vn 0.400756075 -0.525150289 0.750740795
vn 0.141161945 -0.216978296 0.965916003
vn -0.124661853 0.197063911 -0.972432639
vn -0.404146769 0.529093822 -0.746140145
vn -0.591650489 -0.053271898 -0.804432597
vn -0.124661853 0.197063911 -0.972432639
vn -0.591650489 -0.053271898 -0.804432597
vn -0.648180946 0.143700222 -0.747804591
vn -0.124661853 0.197063911 -0.972432639
vn -0.648180946 0.143700222 -0.747804591
vn -0.586453798 0.024033737 -0.809626038
vn -0.124661853 0.197063911 -0.972432639
vn -0.586453798 0.024033737 -0.809626038
vn -0.215556191 -0.157497679 -0.963706392
vn -0.124661853 0.197063911 -0.972432639
vn -0.215556191 -0.157497679 -0.963706392
vn 0.187073023 -0.072343546 -0.979678567
vn -0.124661853 0.197063911 -0.972432639
vn 0.187073023 -0.072343546 -0.979678567
vn 0.068918975 -0.038947033 -0.996861727
vn -0.860787968 0.199204015 -0.468360794
vn -0.404146769 0.529093822 -0.746140145
vn -0.597833620 0.745727225 -0.294084798
vn -0.404146769 0.529093822 -0.746140145
vn -0.860787968 0.199204015 -0.468360794
vn -0.591650489 -0.053271898 -0.804432597
vn -0.869831501 -0.074087536 -0.487754238
vn -0.591650489 -0.053271898 -0.804432597
vn -0.860787968 0.199204015 -0.468360794
vn -0.591650489 -0.053271898 -0.804432597
vn -0.869831501 -0.074087536 -0.487754238
vn -0.648180946 0.143700222 -0.747804591
vn -0.828181923 -0.207201930 -0.520751440
vn -0.648180946 0.143700222 -0.747804591
vn -0.869831501 -0.074087536 -0.487754238
vn -0.648180946 0.143700222 -0.747804591
vn -0.828181923 -0.207201930 -0.520751440
vn -0.586453798 0.024033737 -0.809626038
vn -0.423996818 -0.559872308 -0.711877586
vn -0.586453798 0.024033737 -0.809626038
vn -0.828181923 -0.207201930 -0.520751440
vn -0.586453798 0.024033737 -0.809626038
vn -0.423996818 -0.559872308 -0.711877586
vn -0.215556191 -0.157497679 -0.963706392
vn 0.163806708 -0.663516687 -0.730008883
vn -0.215556191 -0.157497679 -0.963706392
vn -0.423996818 -0.559872308 -0.711877586
vn -0.215556191 -0.157497679 -0.963706392
vn 0.163806708 -0.663516687 -0.730008883
vn 0.187073023 -0.072343546 -0.979678567
vn 0.394009267 -0.445977589 -0.803654582
vn 0.187073023 -0.072343546 -0.979678567
vn 0.163806708 -0.663516687 -0.730008883
vn 0.187073023 -0.072343546 -0.979678567
vn 0.394009267 -0.445977589 -0.803654582
vn 0.068918975 -0.038947033 -0.996861727
vn -0.929557991 0.364196161 0.057298321
vn -0.597833620 0.745727225 -0.294084798
vn -0.628706872 0.763362625 0.148341401
vn -0.597833620 0.745727225 -0.294084798
vn -0.929557991 0.364196161 0.057298321
vn -0.860787968 0.199204015 -0.468360794
vn -0.984721446 -0.026342020 -0.172133005
vn -0.860787968 0.199204015 -0.468360794
vn -0.929557991 0.364196161 0.057298321
vn -0.860787968 0.199204015 -0.468360794
vn -0.984721446 -0.026342020 -0.172133005
vn -0.869831501 -0.074087536 -0.487754238
vn -0.936885273 -0.345863271 -0.051230678
vn -0.869831501 -0.074087536 -0.487754238
vn -0.984721446 -0.026342020 -0.172133005
vn -0.869831501 -0.074087536 -0.487754238
vn -0.936885273 -0.345863271 -0.051230678
vn -0.828181923 -0.207201930 -0.520751440
vn -0.509475171 -0.811812900 -0.285297854
vn -0.828181923 -0.207201930 -0.520751440
vn -0.936885273 -0.345863271 -0.051230678
vn -0.828181923 -0.207201930 -0.520751440
vn -0.509475171 -0.811812900 -0.285297854
vn -0.423996818 -0.559872308 -0.711877586
vn 0.245247085 -0.910380881 -0.333257438
vn -0.423996818 -0.559872308 -0.711877586
vn -0.509475171 -0.811812900 -0.285297854
vn -0.423996818 -0.559872308 -0.711877586
vn 0.245247085 -0.910380881 -0.333257438
vn 0.163806708 -0.663516687 -0.730008883
vn 0.593406810 -0.709554239 -0.380001499
vn 0.163806708 -0.663516687 -0.730008883
vn 0.245247085 -0.910380881 -0.333257438
vn 0.163806708 -0.663516687 -0.730008883
vn 0.593406810 -0.709554239 -0.380001499
vn 0.394009267 -0.445977589 -0.803654582
vn -0.721793113 0.178838050 0.668604258
vn -0.628706872 0.763362625 0.148341401
vn -0.489902890 0.570012927 0.659606263
vn -0.628706872 0.763362625 0.148341401
vn -0.721793113 0.178838050 0.668604258
vn -0.929557991 0.364196161 0.057298321
vn -0.625628093 0.555535951 0.547694528
vn -0.929557991 0.364196161 0.057298321
vn -0.721793113 0.178838050 0.668604258
vn -0.929557991 0.364196161 0.057298321
vn -0.625628093 0.555535951 0.547694528
vn -0.984721446 -0.026342020 -0.172133005
vn -0.926101251 -0.135912155 0.351943686
vn -0.984721446 -0.026342020 -0.172133005
vn -0.625628093 0.555535951 0.547694528
vn -0.984721446 -0.026342020 -0.172133005
vn -0.926101251 -0.135912155 0.351943686
vn -0.936885273 -0.345863271 -0.051230678
vn -0.756125820 -0.649741611 0.078163821
vn -0.936885273 -0.345863271 -0.051230678
vn -0.926101251 -0.135912155 0.351943686
vn -0.936885273 -0.345863271 -0.051230678
vn -0.756125820 -0.649741611 0.078163821
vn -0.509475171 -0.811812900 -0.285297854
vn 0.042892531 -0.976426637 -0.211544921
vn -0.509475171 -0.811812900 -0.285297854
vn -0.756125820 -0.649741611 0.078163821
vn -0.509475171 -0.811812900 -0.285297854
vn 0.042892531 -0.976426637 -0.211544921
vn 0.245247085 -0.910380881 -0.333257438
vn 0.609928801 -0.733438002 -0.300092577
vn 0.245247085 -0.910380881 -0.333257438
vn 0.042892531 -0.976426637 -0.211544921
vn 0.245247085 -0.910380881 -0.333257438
vn 0.609928801 -0.733438002 -0.300092577
vn 0.593406810 -0.709554239 -0.380001499
vn -0.756125820 -0.649741611 0.078163821
vn -0.998174303 0.009517748 0.059644553
vn -0.739657049 -0.662209395 0.119942347
vn -0.998174303 0.009517748 0.059644553
vn -0.756125820 -0.649741611 0.078163821
vn -0.926101251 -0.135912155 0.351943686
vn 0.042892531 -0.976426637 -0.211544921
vn -0.739657049 -0.662209395 0.119942347
vn 0.010061094 -0.999929786 0.006260767
vn -0.739657049 -0.662209395 0.119942347
vn 0.042892531 -0.976426637 -0.211544921
vn -0.756125820 -0.649741611 0.078163821
vn 0.609928801 -0.733438002 -0.300092577
vn 0.010061094 -0.999929786 0.006260767
vn 0.632445209 -0.774601522 -0.002353764
vn 0.010061094 -0.999929786 0.006260767
vn 0.609928801 -0.733438002 -0.300092577
vn 0.042892531 -0.976426637 -0.211544921
vn -0.739657049 -0.662209395 0.119942347
vn -0.891989594 0.053243784 0.448909416
vn -0.318364269 -0.550829142 0.771512442
vn -0.891989594 0.053243784 0.448909416
vn -0.739657049 -0.662209395 0.119942347
vn -0.998174303 0.009517748 0.059644553
vn 0.010061094 -0.999929786 0.006260767
vn -0.318364269 -0.550829142 0.771512442
vn 0.165703680 -0.713130358 0.681166193
vn -0.318364269 -0.550829142 0.771512442
vn 0.010061094 -0.999929786 0.006260767
vn -0.739657049 -0.662209395 0.119942347
vn 0.632445209 -0.774601522 -0.002353764
vn 0.165703680 -0.713130358 0.681166193
vn 0.400756075 -0.525150289 0.750740795
vn 0.165703680 -0.713130358 0.681166193
vn 0.632445209 -0.774601522 -0.002353764
vn 0.010061094 -0.999929786 0.006260767
vn 0.292350857 0.876900655 0.381544515
vn -0.926101251 -0.135912155 0.351943686
vn -0.625628093 0.555535951 0.547694528
vn -0.926101251 -0.135912155 0.351943686
vn 0.292350857 0.876900655 0.381544515
vn 0.340146438 0.892476537 0.296287076
vn -0.998174303 0.009517748 0.059644553
vn 0.340146438 0.892476537 0.296287076
vn -0.192200502 0.969534606 -0.151860511
vn 0.340146438 0.892476537 0.296287076
vn -0.998174303 0.009517748 0.059644553
vn -0.926101251 -0.135912155 0.351943686
vn -0.891989594 0.053243784 0.448909416
vn -0.192200502 0.969534606 -0.151860511
vn -0.129159410 0.113273129 0.985133009
vn -0.192200502 0.969534606 -0.151860511
vn -0.891989594 0.053243784 0.448909416
vn -0.998174303 0.009517748 0.059644553
vn -0.318364269 -0.550829142 0.771512442
vn -0.129159410 0.113273129 0.985133009
vn 0.114354906 -0.166013537 0.979470500
vn -0.129159410 0.113273129 0.985133009
vn -0.318364269 -0.550829142 0.771512442
vn -0.891989594 0.053243784 0.448909416
vn 0.165703680 -0.713130358 0.681166193
vn 0.114354906 -0.166013537 0.979470500
vn 0.166655164 -0.219026377 0.961381039
vn 0.114354906 -0.166013537 0.979470500
vn 0.165703680 -0.713130358 0.681166193
vn -0.318364269 -0.550829142 0.771512442
vn 0.400756075 -0.525150289 0.750740795
vn 0.166655164 -0.219026377 0.961381039
vn 0.141161945 -0.216978296 0.965916003
vn 0.166655164 -0.219026377 0.961381039
vn 0.400756075 -0.525150289 0.750740795
vn 0.165703680 -0.713130358 0.681166193
f 3/3/3 2/2/2 1/1/1
f 6/6/6 5/5/5 4/4/4
f 9/9/9 8/8/8 7/7/7
f 12/12/12 11/11/11 10/10/10
f 15/15/15 14/14/14 13/13/13
f 18/18/18 17/17/17 16/16/16
f 21/21/21 20/20/20 19/19/19
f 24/24/24 23/23/23 22/22/22
f 27/27/27 26/26/26 25/25/25
f 30/30/30 29/29/29 28/28/28
f 33/33/33 32/32/32 31/31/31
f 36/36/36 35/35/35 34/34/34
f 39/39/39 38/38/38 37/37/37
f 42/42/42 41/41/41 40/40/40
f 45/45/45 44/44/44 43/43/43
f 48/48/48 47/47/47 46/46/46
f 51/51/51 50/50/50 49/49/49
f 54/54/54 53/53/53 52/52/52
f 57/57/57 56/56/56 55/55/55
f 60/60/60 59/59/59 58/58/58
f 63/63/63 62/62/62 61/61/61
f 66/66/66 65/65/65 64/64/64
f 69/69/69 68/68/68 67/67/67
f 72/72/72 71/71/71 70/70/70
f 75/75/75 74/74/74 73/73/73
f 78/78/78 77/77/77 76/76/76
f 81/81/81 80/80/80 79/79/79
f 84/84/84 83/83/83 82/82/82
f 87/87/87 86/86/86 85/85/85
f 90/90/90 89/89/89 88/88/88
f 93/93/93 92/92/92 91/91/91
f 96/96/96 95/95/95 94/94/94
f 99/99/99 98/98/98 97/97/97
f 102/102/102 101/101/101 100/100/100
f 105/105/105 104/104/104 103/103/103
f 108/108/108 107/107/107 106/106/106
f 111/111/111 110/110/110 109/109/109
f 114/114/114 113/113/113 112/112/112
f 117/117/117 116/116/116 115/115/115
f 120/120/120 119/119/119 118/118/118
f 123/123/123 122/122/122 121/121/121
f 126/126/126 125/125/125 124/124/124
f 129/129/129 128/128/128 127/127/127
f 132/132/132 131/131/131 130/130/130
f 135/135/135 134/134/134 133/133/133
f 138/138/138 137/137/137 136/136/136
f 141/141/141 140/140/140 139/139/139
f 144/144/144 143/143/143 142/142/142
f 147/147/147 146/146/146 145/145/145
f 150/150/150 149/149/149 148/148/148
f 153/153/153 152/152/152 151/151/151
f 156/156/156 155/155/155 154/154/154
f 159/159/159 158/158/158 157/157/157
f 162/162/162 161/161/161 160/160/160
f 165/165/165 164/164/164 163/163/163
f 168/168/168 167/167/167 166/166/166
f 171/171/171 170/170/170 169/169/169
f 174/174/174 173/173/173 172/172/172
f 177/177/177 176/176/176 175/175/175
f 180/180/180 179/179/179 178/178/178
f 183/183/183 182/182/182 181/181/181
f 186/186/186 185/185/185 184/184/184
f 189/189/189 188/188/188 187/187/187
f 192/192/192 191/191/191 190/190/190
f 195/195/195 194/194/194 193/193/193
f 198/198/198 197/197/197 196/196/196
f 201/201/201 200/200/200 199/199/199
f 204/204/204 203/203/203 202/202/202
f 207/207/207 206/206/206 205/205/205
f 210/210/210 209/209/209 208/208/208
f 213/213/213 212/212/212 211/211/211
f 216/216/216 215/215/215 214/214/214
f 219/219/219 218/218/218 217/217/217
f 222/222/222 221/221/221 220/220/220
f 225/225/225 224/224/224 223/223/223
f 228/228/228 227/227/227 226/226/226
f 231/231/231 230/230/230 229/229/229
f 234/234/234 233/233/233 232/232/232
f 237/237/237 236/236/236 235/235/235
f 240/240/240 239/239/239 238/238/238
f 243/243/243 242/242/242 241/241/241
f 246/246/246 245/245/245 244/244/244
f 249/249/249 248/248/248 247/247/247
f 252/252/252 251/251/251 250/250/250
f 255/255/255 254/254/254 253/253/253
f 258/258/258 257/257/257 256/256/256
f 261/261/261 260/260/260 259/259/259
f 264/264/264 263/263/263 262/262/262
f 267/267/267 266/266/266 265/265/265
f 270/270/270 269/269/269 268/268/268
f 273/273/273 272/272/272 271/271/271
f 276/276/276 275/275/275 274/274/274
f 279/279/279 278/278/278 277/277/277
f 282/282/282 281/281/281 280/280/280
f 285/285/285 284/284/284 283/283/283
f 288/288/288 287/287/287 286/286/286
f 291/291/291 290/290/290 289/289/289
f 294/294/294 293/293/293 292/292/292
f 297/297/297 296/296/296 295/295/295
f 300/300/300 299/299/299 298/298/298
f 303/303/303 302/302/302 301/301/301
f 306/306/306 305/305/305 304/304/304
f 309/309/309 308/308/308 307/307/307
f 312/312/312 311/311/311 310/310/310
f 315/315/315 314/314/314 313/313/313
f 318/318/318 317/317/317 316/316/316
f 321/321/321 320/320/320 319/319/319
f 324/324/324 323/323/323 322/322/322
f 327/327/327 326/326/326 325/325/325
f 330/330/330 329/329/329 328/328/328
f 333/333/333 332/332/332 331/331/331
f 336/336/336 335/335/335 334/334/334
f 339/339/339 338/338/338 337/337/337
f 342/342/342 341/341/341 340/340/340
f 345/345/345 344/344/344 343/343/343
f 348/348/348 347/347/347 346/346/346
f 351/351/351 350/350/350 349/349/349
f 354/354/354 353/353/353 352/352/352
f 357/357/357 356/356/356 355/355/355
f 360/360/360 359/359/359 358/358/358
f 363/363/363 362/362/362 361/361/361
f 366/366/366 365/365/365 364/364/364
f 369/369/369 368/368/368 367/367/367
f 372/372/372 371/371/371 370/370/370
f 375/375/375 374/374/374 373/373/373
f 378/378/378 377/377/377 376/376/376
f 381/381/381 380/380/380 379/379/379
f 384/384/384 383/383/383 382/382/382
f 387/387/387 386/386/386 385/385/385
f 390/390/390 389/389/389 388/388/388
f 393/393/393 392/392/392 391/391/391
f 396/396/396 395/395/395 394/394/394
