# Static pose baked from local Project Zomboid assets
o Kate_Hair_Bun
v -0.069759851 0.089149187 -0.447678435
v -0.077146817 0.052801096 -0.431148008
v -0.046878230 0.060164123 -0.426712980
v -0.069759851 0.089149187 -0.447678435
v -0.102511246 0.065801823 -0.440437258
v -0.077146817 0.052801096 -0.431148008
v -0.069759851 0.089149187 -0.447678435
v -0.114245662 0.099030118 -0.448357936
v -0.102511246 0.065801823 -0.440437258
v -0.069759851 0.089149187 -0.447678435
v -0.100811381 0.127344585 -0.451165431
v -0.114245662 0.099030118 -0.448357936
v -0.069759851 0.089149187 -0.447678435
v -0.070542792 0.134707610 -0.446730404
v -0.100811381 0.127344585 -0.451165431
v -0.069759851 0.089149187 -0.447678435
v -0.040704671 0.116258546 -0.438135528
v -0.070542792 0.134707610 -0.446730404
v -0.069759851 0.089149187 -0.447678435
v -0.033443173 0.088479221 -0.429520447
v -0.040704671 0.116258546 -0.438135528
v -0.069759851 0.089149187 -0.447678435
v -0.046878230 0.060164123 -0.426712980
v -0.033443173 0.088479221 -0.429520447
v -0.086406346 0.037890165 -0.397907249
v -0.046878230 0.060164123 -0.426712980
v -0.077146817 0.052801096 -0.431148008
v -0.046878230 0.060164123 -0.426712980
v -0.086406346 0.037890165 -0.397907249
v -0.039345735 0.049315091 -0.391153246
v -0.124390292 0.056136922 -0.407910154
v -0.077146817 0.052801096 -0.431148008
v -0.102511246 0.065801823 -0.440437258
v -0.077146817 0.052801096 -0.431148008
v -0.124390292 0.056136922 -0.407910154
v -0.086406346 0.037890165 -0.397907249
v -0.145779470 0.111713532 -0.421904936
v -0.102511246 0.065801823 -0.440437258
v -0.114245662 0.099030118 -0.448357936
v -0.102511246 0.065801823 -0.440437258
v -0.145779470 0.111713532 -0.421904936
v -0.124390292 0.056136922 -0.407910154
v -0.124920844 0.155735155 -0.426128595
v -0.114245662 0.099030118 -0.448357936
v -0.100811381 0.127344585 -0.451165431
v -0.114245662 0.099030118 -0.448357936
v -0.124920844 0.155735155 -0.426128595
v -0.145779470 0.111713532 -0.421904936
v -0.077860376 0.167160301 -0.419375571
v -0.100811381 0.127344585 -0.451165431
v -0.070542792 0.134707610 -0.446730404
v -0.100811381 0.127344585 -0.451165431
v -0.077860376 0.167160301 -0.419375571
v -0.124920844 0.155735155 -0.426128595
v -0.028338446 0.134550285 -0.404333101
v -0.070542792 0.134707610 -0.446730404
v -0.040704671 0.116258546 -0.438135528
v -0.070542792 0.134707610 -0.446730404
v -0.028338446 0.134550285 -0.404333101
v -0.077860376 0.167160301 -0.419375571
v -0.018487253 0.093336934 -0.395377884
v -0.040704671 0.116258546 -0.438135528
v -0.033443173 0.088479221 -0.429520447
v -0.040704671 0.116258546 -0.438135528
v -0.018487253 0.093336934 -0.395377884
v -0.028338446 0.134550285 -0.404333101
v -0.039345735 0.049315091 -0.391153246
v -0.033443173 0.088479221 -0.429520447
v -0.046878230 0.060164123 -0.426712980
v -0.033443173 0.088479221 -0.429520447
v -0.039345735 0.049315091 -0.391153246
v -0.018487253 0.093336934 -0.395377884
v -0.088075773 0.050540007 -0.345220076
v -0.039345735 0.049315091 -0.391153246
v -0.086406346 0.037890165 -0.397907249
v -0.039345735 0.049315091 -0.391153246
v -0.088075773 0.050540007 -0.345220076
v -0.052990677 0.063398824 -0.333488811
v -0.122811528 0.061957341 -0.389071042
v -0.086406346 0.037890165 -0.397907249
v -0.124390292 0.056136922 -0.407910154
v -0.086406346 0.037890165 -0.397907249
v -0.122811528 0.061957341 -0.389071042
v -0.088075773 0.050540007 -0.345220076
v -0.148165271 0.117495894 -0.405496204
v -0.124390292 0.056136922 -0.407910154
v -0.145779470 0.111713532 -0.421904936
v -0.124390292 0.056136922 -0.407910154
v -0.148165271 0.117495894 -0.405496204
v -0.122811528 0.061957341 -0.389071042
v -0.127408033 0.157895551 -0.406700552
v -0.145779470 0.111713532 -0.421904936
v -0.124920844 0.155735155 -0.426128595
v -0.145779470 0.111713532 -0.421904936
v -0.127408033 0.157895551 -0.406700552
v -0.148165271 0.117495894 -0.405496204
v -0.083778644 0.170058881 -0.403098391
v -0.124920844 0.155735155 -0.426128595
v -0.077860376 0.167160301 -0.419375571
v -0.124920844 0.155735155 -0.426128595
v -0.083778644 0.170058881 -0.403098391
v -0.127408033 0.157895551 -0.406700552
v -0.035192075 0.133486794 -0.385808019
v -0.077860376 0.167160301 -0.419375571
v -0.028338446 0.134550285 -0.404333101
v -0.077860376 0.167160301 -0.419375571
v -0.035192075 0.133486794 -0.385808019
v -0.083778644 0.170058881 -0.403098391
v -0.032891220 0.095590743 -0.343164956
v -0.028338446 0.134550285 -0.404333101
v -0.018487253 0.093336934 -0.395377884
v -0.028338446 0.134550285 -0.404333101
v -0.032891220 0.095590743 -0.343164956
v -0.035192075 0.133486794 -0.385808019
v -0.052990677 0.063398824 -0.333488811
v -0.018487253 0.093336934 -0.395377884
v -0.039345735 0.049315091 -0.391153246
v -0.018487253 0.093336934 -0.395377884
v -0.052990677 0.063398824 -0.333488811
v -0.032891220 0.095590743 -0.343164956
v -0.070701215 0.085091421 -0.333449605
v -0.052990677 0.063398824 -0.333488811
v -0.088075773 0.050540007 -0.345220076
v -0.070701215 0.085091421 -0.333449605
v -0.088075773 0.050540007 -0.345220076
v -0.122811528 0.061957341 -0.389071042
v -0.070701215 0.085091421 -0.333449605
v -0.122811528 0.061957341 -0.389071042
v -0.148165271 0.117495894 -0.405496204
v -0.070701215 0.085091421 -0.333449605
v -0.148165271 0.117495894 -0.405496204
v -0.127408033 0.157895551 -0.406700552
v -0.070701215 0.085091421 -0.333449605
v -0.127408033 0.157895551 -0.406700552
v -0.083778644 0.170058881 -0.403098391
v -0.070701215 0.085091421 -0.333449605
v -0.083778644 0.170058881 -0.403098391
v -0.035192075 0.133486794 -0.385808019
v -0.070701215 0.085091421 -0.333449605
v -0.035192075 0.133486794 -0.385808019
v -0.032891220 0.095590743 -0.343164956
v -0.070701215 0.085091421 -0.333449605
v -0.032891220 0.095590743 -0.343164956
v -0.052990677 0.063398824 -0.333488811
v -0.051821691 0.068096451 -0.467856307
v -0.057272566 0.045803446 -0.455550564
v -0.039177580 0.051879360 -0.451880446
v -0.051821691 0.068096451 -0.467856307
v -0.073147323 0.053839531 -0.463375682
v -0.057272566 0.045803446 -0.455550564
v -0.051821691 0.068096451 -0.467856307
v -0.077502623 0.071278473 -0.470772143
v -0.073147323 0.053839531 -0.463375682
v -0.051821691 0.068096451 -0.467856307
v -0.067786964 0.087906175 -0.473406511
v -0.077502623 0.071278473 -0.470772143
v -0.051821691 0.068096451 -0.467856307
v -0.049691986 0.093982102 -0.469736451
v -0.067786964 0.087906175 -0.473406511
v -0.051821691 0.068096451 -0.467856307
v -0.033817836 0.085946747 -0.461911018
v -0.049691986 0.093982102 -0.469736451
v -0.051821691 0.068096451 -0.467856307
v -0.029461930 0.068507076 -0.454514872
v -0.033817836 0.085946747 -0.461911018
v -0.051821691 0.068096451 -0.467856307
v -0.039177580 0.051879360 -0.451880446
v -0.029461930 0.068507076 -0.454514872
v -0.062851533 0.040162611 -0.440025821
v -0.039177580 0.051879360 -0.451880446
v -0.057272566 0.045803446 -0.455550564
v -0.039177580 0.051879360 -0.451880446
v -0.062851533 0.040162611 -0.440025821
v -0.037261875 0.048755191 -0.434835793
v -0.085301177 0.051526479 -0.451093292
v -0.057272566 0.045803446 -0.455550564
v -0.073147323 0.053839531 -0.463375682
v -0.057272566 0.045803446 -0.455550564
v -0.085301177 0.051526479 -0.451093292
v -0.062851533 0.040162611 -0.440025821
v -0.091461059 0.076189646 -0.461552865
v -0.073147323 0.053839531 -0.463375682
v -0.077502623 0.071278473 -0.470772143
v -0.073147323 0.053839531 -0.463375682
v -0.091461059 0.076189646 -0.461552865
v -0.085301177 0.051526479 -0.451093292
v -0.077721230 0.099704282 -0.465278229
v -0.077502623 0.071278473 -0.470772143
v -0.067786964 0.087906175 -0.473406511
v -0.077502623 0.071278473 -0.470772143
v -0.077721230 0.099704282 -0.465278229
v -0.091461059 0.076189646 -0.461552865
v -0.052131572 0.108296861 -0.460088201
v -0.067786964 0.087906175 -0.473406511
v -0.049691986 0.093982102 -0.469736451
v -0.067786964 0.087906175 -0.473406511
v -0.052131572 0.108296861 -0.460088201
v -0.077721230 0.099704282 -0.465278229
v -0.029681456 0.096932471 -0.449021966
v -0.049691986 0.093982102 -0.469736451
v -0.033817836 0.085946747 -0.461911018
v -0.049691986 0.093982102 -0.469736451
v -0.029681456 0.096932471 -0.449021966
v -0.052131572 0.108296861 -0.460088201
v -0.023522046 0.072269826 -0.438561157
v -0.033817836 0.085946747 -0.461911018
v -0.029461930 0.068507076 -0.454514872
v -0.033817836 0.085946747 -0.461911018
v -0.023522046 0.072269826 -0.438561157
v -0.029681456 0.096932471 -0.449021966
v -0.037261875 0.048755191 -0.434835793
v -0.029461930 0.068507076 -0.454514872
v -0.039177580 0.051879360 -0.451880446
v -0.029461930 0.068507076 -0.454514872
v -0.037261875 0.048755191 -0.434835793
v -0.023522046 0.072269826 -0.438561157
v -0.065291114 0.054477364 -0.430377573
v -0.037261875 0.048755191 -0.434835793
v -0.062851533 0.040162611 -0.440025821
v -0.037261875 0.048755191 -0.434835793
v -0.065291114 0.054477364 -0.430377573
v -0.047196133 0.060553284 -0.426707454
v -0.081165269 0.062512725 -0.438203004
v -0.062851533 0.040162611 -0.440025821
v -0.085301177 0.051526479 -0.451093292
v -0.062851533 0.040162611 -0.440025821
v -0.081165269 0.062512725 -0.438203004
v -0.065291114 0.054477364 -0.430377573
v -0.085520560 0.079951654 -0.445599407
v -0.085301177 0.051526479 -0.451093292
v -0.091461059 0.076189646 -0.461552865
v -0.085301177 0.051526479 -0.451093292
v -0.085520560 0.079951654 -0.445599407
v -0.081165269 0.062512725 -0.438203004
v -0.075804904 0.096579364 -0.448233835
v -0.091461059 0.076189646 -0.461552865
v -0.077721230 0.099704282 -0.465278229
v -0.091461059 0.076189646 -0.461552865
v -0.075804904 0.096579364 -0.448233835
v -0.085520560 0.079951654 -0.445599407
v -0.057709923 0.102655283 -0.444563715
v -0.077721230 0.099704282 -0.465278229
v -0.052131572 0.108296861 -0.460088201
v -0.077721230 0.099704282 -0.465278229
v -0.057709923 0.102655283 -0.444563715
v -0.075804904 0.096579364 -0.448233835
v -0.041835782 0.094619941 -0.436738340
v -0.052131572 0.108296861 -0.460088201
v -0.029681456 0.096932471 -0.449021966
v -0.052131572 0.108296861 -0.460088201
v -0.041835782 0.094619941 -0.436738340
v -0.057709923 0.102655283 -0.444563715
v -0.037480478 0.077180994 -0.429341881
v -0.029681456 0.096932471 -0.449021966
v -0.023522046 0.072269826 -0.438561157
v -0.029681456 0.096932471 -0.449021966
v -0.037480478 0.077180994 -0.429341881
v -0.041835782 0.094619941 -0.436738340
v -0.047196133 0.060553284 -0.426707454
v -0.023522046 0.072269826 -0.438561157
v -0.037261875 0.048755191 -0.434835793
v -0.023522046 0.072269826 -0.438561157
v -0.047196133 0.060553284 -0.426707454
v -0.037480478 0.077180994 -0.429341881
v -0.063161405 0.080363008 -0.432257658
v -0.047196133 0.060553284 -0.426707454
v -0.065291114 0.054477364 -0.430377573
v -0.063161405 0.080363008 -0.432257658
v -0.065291114 0.054477364 -0.430377573
v -0.081165269 0.062512725 -0.438203004
v -0.063161405 0.080363008 -0.432257658
v -0.081165269 0.062512725 -0.438203004
v -0.085520560 0.079951654 -0.445599407
v -0.063161405 0.080363008 -0.432257658
v -0.085520560 0.079951654 -0.445599407
v -0.075804904 0.096579364 -0.448233835
v -0.063161405 0.080363008 -0.432257658
v -0.075804904 0.096579364 -0.448233835
v -0.057709923 0.102655283 -0.444563715
v -0.063161405 0.080363008 -0.432257658
v -0.057709923 0.102655283 -0.444563715
v -0.041835782 0.094619941 -0.436738340
v -0.063161405 0.080363008 -0.432257658
v -0.041835782 0.094619941 -0.436738340
v -0.037480478 0.077180994 -0.429341881
v -0.063161405 0.080363008 -0.432257658
v -0.037480478 0.077180994 -0.429341881
v -0.047196133 0.060553284 -0.426707454
vt 0.154459998 0.009316981
vt 0.201528996 0.070632994
vt 0.106816001 0.070632994
vt 0.248598993 0.009316981
vt 0.298539013 0.070632994
vt 0.201528996 0.070632994
vt 0.348479003 0.009316981
vt 0.397843987 0.070632994
vt 0.298539013 0.070632994
vt 0.447210014 0.009316981
vt 0.493781000 0.070632994
vt 0.397843987 0.070632994
vt 0.540351987 0.009316981
vt 0.587336004 0.070632994
vt 0.493781000 0.070632994
vt 0.634320021 0.009316981
vt 0.682923973 0.070632994
vt 0.587336004 0.070632994
vt 0.731527984 0.009316981
vt 0.775116980 0.070632994
vt 0.682923973 0.070632994
vt 0.059172001 0.009316981
vt 0.106816001 0.070632994
vt 0.015582000 0.070632994
vt 0.201528996 0.221266031
vt 0.106816001 0.070632994
vt 0.201528996 0.070632994
vt 0.106816001 0.070632994
vt 0.201528996 0.221266031
vt 0.106816001 0.221266031
vt 0.298539013 0.221266031
vt 0.201528996 0.070632994
vt 0.298539013 0.070632994
vt 0.201528996 0.070632994
vt 0.298539013 0.221266031
vt 0.201528996 0.221266031
vt 0.397843987 0.221266031
vt 0.298539013 0.070632994
vt 0.397843987 0.070632994
vt 0.298539013 0.070632994
vt 0.397843987 0.221266031
vt 0.298539013 0.221266031
vt 0.493781000 0.221266031
vt 0.397843987 0.070632994
vt 0.493781000 0.070632994
vt 0.397843987 0.070632994
vt 0.493781000 0.221266031
vt 0.397843987 0.221266031
vt 0.587336004 0.221266031
vt 0.493781000 0.070632994
vt 0.587336004 0.070632994
vt 0.493781000 0.070632994
vt 0.587336004 0.221266031
vt 0.493781000 0.221266031
vt 0.682923973 0.221266031
vt 0.587336004 0.070632994
vt 0.682923973 0.070632994
vt 0.587336004 0.070632994
vt 0.682923973 0.221266031
vt 0.587336004 0.221266031
vt 0.775116980 0.221266031
vt 0.682923973 0.070632994
vt 0.775116980 0.070632994
vt 0.682923973 0.070632994
vt 0.775116980 0.221266031
vt 0.682923973 0.221266031
vt 0.106816001 0.221266031
vt 0.015582000 0.070632994
vt 0.106816001 0.070632994
vt 0.015582000 0.070632994
vt 0.106816001 0.221266031
vt 0.015582000 0.221266031
vt 0.201528996 0.329205990
vt 0.106816001 0.221266031
vt 0.201528996 0.221266031
vt 0.106816001 0.221266031
vt 0.201528996 0.329205990
vt 0.106816001 0.329205990
vt 0.298539013 0.329205990
vt 0.201528996 0.221266031
vt 0.298539013 0.221266031
vt 0.201528996 0.221266031
vt 0.298539013 0.329205990
vt 0.201528996 0.329205990
vt 0.397843987 0.329205990
vt 0.298539013 0.221266031
vt 0.397843987 0.221266031
vt 0.298539013 0.221266031
vt 0.397843987 0.329205990
vt 0.298539013 0.329205990
vt 0.493781000 0.329205990
vt 0.397843987 0.221266031
vt 0.493781000 0.221266031
vt 0.397843987 0.221266031
vt 0.493781000 0.329205990
vt 0.397843987 0.329205990
vt 0.587336004 0.329205990
vt 0.493781000 0.221266031
vt 0.587336004 0.221266031
vt 0.493781000 0.221266031
vt 0.587336004 0.329205990
vt 0.493781000 0.329205990
vt 0.682923973 0.329205990
vt 0.587336004 0.221266031
vt 0.682923973 0.221266031
vt 0.587336004 0.221266031
vt 0.682923973 0.329205990
vt 0.587336004 0.329205990
vt 0.775116980 0.329205990
vt 0.682923973 0.221266031
vt 0.775116980 0.221266031
vt 0.682923973 0.221266031
vt 0.775116980 0.329205990
vt 0.682923973 0.329205990
vt 0.106816001 0.329205990
vt 0.015582000 0.221266031
vt 0.106816001 0.221266031
vt 0.015582000 0.221266031
vt 0.106816001 0.329205990
vt 0.015582000 0.329205990
vt 0.154459998 0.351482034
vt 0.106816001 0.329205990
vt 0.201528996 0.329205990
vt 0.248598993 0.351482034
vt 0.201528996 0.329205990
vt 0.298539013 0.329205990
vt 0.348479003 0.351482034
vt 0.298539013 0.329205990
vt 0.397843987 0.329205990
vt 0.447210014 0.351482034
vt 0.397843987 0.329205990
vt 0.493781000 0.329205990
vt 0.540351987 0.351482034
vt 0.493781000 0.329205990
vt 0.587336004 0.329205990
vt 0.634320021 0.351482034
vt 0.587336004 0.329205990
vt 0.682923973 0.329205990
vt 0.731527984 0.351482034
vt 0.682923973 0.329205990
vt 0.775116980 0.329205990
vt 0.059172001 0.351482034
vt 0.015582000 0.329205990
vt 0.106816001 0.329205990
vt 0.335110009 0.379826009
vt 0.377016991 0.437445045
vt 0.304392993 0.437445045
vt 0.408868015 0.379826009
vt 0.448556006 0.437445045
vt 0.377016991 0.437445045
vt 0.478188008 0.379826009
vt 0.519293010 0.437445045
vt 0.448556006 0.437445045
vt 0.550342023 0.379826009
vt 0.587228000 0.437445045
vt 0.519293010 0.437445045
vt 0.049461000 0.379826009
vt 0.090458997 0.437445045
vt 0.022630000 0.437445045
vt 0.121402003 0.379826009
vt 0.162515000 0.437445045
vt 0.090458997 0.437445045
vt 0.193572998 0.379826009
vt 0.233623996 0.437445045
vt 0.162515000 0.437445045
vt 0.263619989 0.379826009
vt 0.304392993 0.437445045
vt 0.233623996 0.437445045
vt 0.377016991 0.506259024
vt 0.304392993 0.437445045
vt 0.377016991 0.437445045
vt 0.304392993 0.437445045
vt 0.377016991 0.506259024
vt 0.304392993 0.506259024
vt 0.448556006 0.506259024
vt 0.377016991 0.437445045
vt 0.448556006 0.437445045
vt 0.377016991 0.437445045
vt 0.448556006 0.506259024
vt 0.377016991 0.506259024
vt 0.519293010 0.506259024
vt 0.448556006 0.437445045
vt 0.519293010 0.437445045
vt 0.448556006 0.437445045
vt 0.519293010 0.506259024
vt 0.448556006 0.506259024
vt 0.587228000 0.506259024
vt 0.519293010 0.437445045
vt 0.587228000 0.437445045
vt 0.519293010 0.437445045
vt 0.587228000 0.506259024
vt 0.519293010 0.506259024
vt 0.090458997 0.506259024
vt 0.022630000 0.437445045
vt 0.090458997 0.437445045
vt 0.022630000 0.437445045
vt 0.090458997 0.506259024
vt 0.022630000 0.506259024
vt 0.162515000 0.506259024
vt 0.090458997 0.437445045
vt 0.162515000 0.437445045
vt 0.090458997 0.437445045
vt 0.162515000 0.506259024
vt 0.090458997 0.506259024
vt 0.233623996 0.506259024
vt 0.162515000 0.437445045
vt 0.233623996 0.437445045
vt 0.162515000 0.437445045
vt 0.233623996 0.506259024
vt 0.162515000 0.506259024
vt 0.304392993 0.506259024
vt 0.233623996 0.437445045
vt 0.304392993 0.437445045
vt 0.233623996 0.437445045
vt 0.304392993 0.506259024
vt 0.233623996 0.506259024
vt 0.377016991 0.575073004
vt 0.304392993 0.506259024
vt 0.377016991 0.506259024
vt 0.304392993 0.506259024
vt 0.377016991 0.575073004
vt 0.304392993 0.575073004
vt 0.448556006 0.575073004
vt 0.377016991 0.506259024
vt 0.448556006 0.506259024
vt 0.377016991 0.506259024
vt 0.448556006 0.575073004
vt 0.377016991 0.575073004
vt 0.519293010 0.575073004
vt 0.448556006 0.506259024
vt 0.519293010 0.506259024
vt 0.448556006 0.506259024
vt 0.519293010 0.575073004
vt 0.448556006 0.575073004
vt 0.587228000 0.575073004
vt 0.519293010 0.506259024
vt 0.587228000 0.506259024
vt 0.519293010 0.506259024
vt 0.587228000 0.575073004
vt 0.519293010 0.575073004
vt 0.090458997 0.575073004
vt 0.022630000 0.506259024
vt 0.090458997 0.506259024
vt 0.022630000 0.506259024
vt 0.090458997 0.575073004
vt 0.022630000 0.575073004
vt 0.162515000 0.575073004
vt 0.090458997 0.506259024
vt 0.162515000 0.506259024
vt 0.090458997 0.506259024
vt 0.162515000 0.575073004
vt 0.090458997 0.575073004
vt 0.233623996 0.575073004
vt 0.162515000 0.506259024
vt 0.233623996 0.506259024
vt 0.162515000 0.506259024
vt 0.233623996 0.575073004
vt 0.162515000 0.575073004
vt 0.304392993 0.575073004
vt 0.233623996 0.506259024
vt 0.304392993 0.506259024
vt 0.233623996 0.506259024
vt 0.304392993 0.575073004
vt 0.233623996 0.575073004
vt 0.339987993 0.625446975
vt 0.304392993 0.575073004
vt 0.377016991 0.575073004
vt 0.413745999 0.625446975
vt 0.377016991 0.575073004
vt 0.448556006 0.575073004
vt 0.483065993 0.625446975
vt 0.448556006 0.575073004
vt 0.519293010 0.575073004
vt 0.555220008 0.625446975
vt 0.519293010 0.575073004
vt 0.587228000 0.575073004
vt 0.054338999 0.625446975
vt 0.022630000 0.575073004
vt 0.090458997 0.575073004
vt 0.126279995 0.625446975
vt 0.090458997 0.575073004
vt 0.162515000 0.575073004
vt 0.198451996 0.625446975
vt 0.162515000 0.575073004
vt 0.233623996 0.575073004
vt 0.268498003 0.625446975
vt 0.233623996 0.575073004
vt 0.304392993 0.575073004
vn 0.196021959 -0.196288058 -0.960753033
vn -0.012755406 -0.767981609 -0.640344867
vn 0.435194606 -0.687560401 -0.581262720
vn 0.196021959 -0.196288058 -0.960753033
vn -0.422950595 -0.496102174 -0.758284529
vn -0.012755406 -0.767981609 -0.640344867
vn 0.196021959 -0.196288058 -0.960753033
vn -0.431341160 -0.049681930 -0.900819910
vn -0.422950595 -0.496102174 -0.758284529
vn 0.196021959 -0.196288058 -0.960753033
vn -0.108490647 0.340835630 -0.933841985
vn -0.431341160 -0.049681930 -0.900819910
vn 0.196021959 -0.196288058 -0.960753033
vn 0.371599362 0.452156778 -0.810844105
vn -0.108490647 0.340835630 -0.933841985
vn 0.196021959 -0.196288058 -0.960753033
vn 0.693331230 0.179668143 -0.697861852
vn 0.371599362 0.452156778 -0.810844105
vn 0.196021959 -0.196288058 -0.960753033
vn 0.764059550 -0.285528882 -0.578520753
vn 0.693331230 0.179668143 -0.697861852
vn 0.196021959 -0.196288058 -0.960753033
vn 0.435194606 -0.687560401 -0.581262720
vn 0.764059550 -0.285528882 -0.578520753
vn -0.077395630 -0.995891321 -0.047014809
vn 0.435194606 -0.687560401 -0.581262720
vn -0.012755406 -0.767981609 -0.640344867
vn 0.435194606 -0.687560401 -0.581262720
vn -0.077395630 -0.995891321 -0.047014809
vn 0.606629815 -0.792675885 0.060540965
vn -0.679704663 -0.669044214 -0.300635014
vn -0.012755406 -0.767981609 -0.640344867
vn -0.422950595 -0.496102174 -0.758284529
vn -0.012755406 -0.767981609 -0.640344867
vn -0.679704663 -0.669044214 -0.300635014
vn -0.077395630 -0.995891321 -0.047014809
vn -0.822339502 -0.102248470 -0.559734753
vn -0.422950595 -0.496102174 -0.758284529
vn -0.431341160 -0.049681930 -0.900819910
vn -0.422950595 -0.496102174 -0.758284529
vn -0.822339502 -0.102248470 -0.559734753
vn -0.679704663 -0.669044214 -0.300635014
vn -0.469923445 0.571353203 -0.672850261
vn -0.431341160 -0.049681930 -0.900819910
vn -0.108490647 0.340835630 -0.933841985
vn -0.431341160 -0.049681930 -0.900819910
vn -0.469923445 0.571353203 -0.672850261
vn -0.822339502 -0.102248470 -0.559734753
vn 0.293877118 0.817536594 -0.495247571
vn -0.108490647 0.340835630 -0.933841985
vn 0.371599362 0.452156778 -0.810844105
vn -0.108490647 0.340835630 -0.933841985
vn 0.293877118 0.817536594 -0.495247571
vn -0.469923445 0.571353203 -0.672850261
vn 0.824282065 0.530054328 -0.199001222
vn 0.371599362 0.452156778 -0.810844105
vn 0.693331230 0.179668143 -0.697861852
vn 0.371599362 0.452156778 -0.810844105
vn 0.824282065 0.530054328 -0.199001222
vn 0.293877118 0.817536594 -0.495247571
vn 0.984687863 -0.172393511 0.025889946
vn 0.693331230 0.179668143 -0.697861852
vn 0.764059550 -0.285528882 -0.578520753
vn 0.693331230 0.179668143 -0.697861852
vn 0.984687863 -0.172393511 0.025889946
vn 0.824282065 0.530054328 -0.199001222
vn 0.606629815 -0.792675885 0.060540965
vn 0.764059550 -0.285528882 -0.578520753
vn 0.435194606 -0.687560401 -0.581262720
vn 0.764059550 -0.285528882 -0.578520753
vn 0.606629815 -0.792675885 0.060540965
vn 0.984687863 -0.172393511 0.025889946
vn -0.249802689 -0.817048940 0.519643769
vn 0.606629815 -0.792675885 0.060540965
vn -0.077395630 -0.995891321 -0.047014809
vn 0.606629815 -0.792675885 0.060540965
vn -0.249802689 -0.817048940 0.519643769
vn 0.633602511 -0.560586614 0.533188997
vn -0.762314462 -0.317463705 0.563997746
vn -0.077395630 -0.995891321 -0.047014809
vn -0.679704663 -0.669044214 -0.300635014
vn -0.077395630 -0.995891321 -0.047014809
vn -0.762314462 -0.317463705 0.563997746
vn -0.249802689 -0.817048940 0.519643769
vn -0.781030503 0.045787982 0.622812021
vn -0.679704663 -0.669044214 -0.300635014
vn -0.822339502 -0.102248470 -0.559734753
vn -0.679704663 -0.669044214 -0.300635014
vn -0.781030503 0.045787982 0.622812021
vn -0.762314462 -0.317463705 0.563997746
vn -0.521835874 0.556263069 0.646729246
vn -0.822339502 -0.102248470 -0.559734753
vn -0.469923445 0.571353203 -0.672850261
vn -0.822339502 -0.102248470 -0.559734753
vn -0.521835874 0.556263069 0.646729246
vn -0.781030503 0.045787982 0.622812021
vn 0.015463826 0.767745679 0.640568062
vn -0.469923445 0.571353203 -0.672850261
vn 0.293877118 0.817536594 -0.495247571
vn -0.469923445 0.571353203 -0.672850261
vn 0.015463826 0.767745679 0.640568062
vn -0.521835874 0.556263069 0.646729246
vn 0.303401819 0.739527713 0.600871116
vn 0.293877118 0.817536594 -0.495247571
vn 0.824282065 0.530054328 -0.199001222
vn 0.293877118 0.817536594 -0.495247571
vn 0.303401819 0.739527713 0.600871116
vn 0.015463826 0.767745679 0.640568062
vn 0.739719603 0.297193746 0.603730724
vn 0.824282065 0.530054328 -0.199001222
vn 0.984687863 -0.172393511 0.025889946
vn 0.824282065 0.530054328 -0.199001222
vn 0.739719603 0.297193746 0.603730724
vn 0.303401819 0.739527713 0.600871116
vn 0.633602511 -0.560586614 0.533188997
vn 0.984687863 -0.172393511 0.025889946
vn 0.606629815 -0.792675885 0.060540965
vn 0.984687863 -0.172393511 0.025889946
vn 0.633602511 -0.560586614 0.533188997
vn 0.739719603 0.297193746 0.603730724
vn -0.353473866 0.394287960 0.848288412
vn 0.633602511 -0.560586614 0.533188997
vn -0.249802689 -0.817048940 0.519643769
vn -0.353473866 0.394287960 0.848288412
vn -0.249802689 -0.817048940 0.519643769
vn -0.762314462 -0.317463705 0.563997746
vn -0.353473866 0.394287960 0.848288412
vn -0.762314462 -0.317463705 0.563997746
vn -0.781030503 0.045787982 0.622812021
vn -0.353473866 0.394287960 0.848288412
vn -0.781030503 0.045787982 0.622812021
vn -0.521835874 0.556263069 0.646729246
vn -0.353473866 0.394287960 0.848288412
vn -0.521835874 0.556263069 0.646729246
vn 0.015463826 0.767745679 0.640568062
vn -0.353473866 0.394287960 0.848288412
vn 0.015463826 0.767745679 0.640568062
vn 0.303401819 0.739527713 0.600871116
vn -0.353473866 0.394287960 0.848288412
vn 0.303401819 0.739527713 0.600871116
vn 0.739719603 0.297193746 0.603730724
vn -0.353473866 0.394287960 0.848288412
vn 0.739719603 0.297193746 0.603730724
vn 0.633602511 -0.560586614 0.533188997
vn 0.288359327 -0.311926087 -0.905290569
vn 0.080777553 -0.784828004 -0.614426555
vn 0.493625458 -0.703846693 -0.510816738
vn 0.288359327 -0.311926087 -0.905290569
vn -0.240126814 -0.556697868 -0.795252536
vn 0.080777553 -0.784828004 -0.614426555
vn 0.288359327 -0.311926087 -0.905290569
vn -0.281125180 -0.153084656 -0.947382563
vn -0.240126814 -0.556697868 -0.795252536
vn 0.288359327 -0.311926087 -0.905290569
vn -0.018214458 0.189571055 -0.981698043
vn -0.281125180 -0.153084656 -0.947382563
vn 0.288359327 -0.311926087 -0.905290569
vn 0.394628922 0.270549245 -0.878106554
vn -0.018214458 0.189571055 -0.981698043
vn 0.288359327 -0.311926087 -0.905290569
vn 0.715546271 0.042427962 -0.697275700
vn 0.394628922 0.270549245 -0.878106554
vn 0.288359327 -0.311926087 -0.905290569
vn 0.756555207 -0.361171100 -0.545141868
vn 0.715546271 0.042427962 -0.697275700
vn 0.288359327 -0.311926087 -0.905290569
vn 0.493625458 -0.703846693 -0.510816738
vn 0.756555207 -0.361171100 -0.545141868
vn -0.149240056 -0.948536253 0.279296227
vn 0.493625458 -0.703846693 -0.510816738
vn 0.080777553 -0.784828004 -0.614426555
vn 0.493625458 -0.703846693 -0.510816738
vn -0.149240056 -0.948536253 0.279296227
vn 0.563265833 -0.709297639 0.423825980
vn -0.774324434 -0.632131415 -0.028836526
vn 0.080777553 -0.784828004 -0.614426555
vn -0.240126814 -0.556697868 -0.795252536
vn 0.080777553 -0.784828004 -0.614426555
vn -0.774324434 -0.632131415 -0.028836526
vn -0.149240056 -0.948536253 0.279296227
vn -0.945824670 0.054577291 -0.320057827
vn -0.240126814 -0.556697868 -0.795252536
vn -0.281125180 -0.153084656 -0.947382563
vn -0.240126814 -0.556697868 -0.795252536
vn -0.945824670 0.054577291 -0.320057827
vn -0.774324434 -0.632131415 -0.028836526
vn -0.563270722 0.709308256 -0.423801714
vn -0.281125180 -0.153084656 -0.947382563
vn -0.018214458 0.189571055 -0.981698043
vn -0.281125180 -0.153084656 -0.947382563
vn -0.563270722 0.709308256 -0.423801714
vn -0.945824670 0.054577291 -0.320057827
vn 0.149235720 0.948538757 -0.279290041
vn -0.018214458 0.189571055 -0.981698043
vn 0.394628922 0.270549245 -0.878106554
vn -0.018214458 0.189571055 -0.981698043
vn 0.149235720 0.948538757 -0.279290041
vn -0.563270722 0.709308256 -0.423801714
vn 0.774324434 0.632131415 0.028836526
vn 0.394628922 0.270549245 -0.878106554
vn 0.715546271 0.042427962 -0.697275700
vn 0.394628922 0.270549245 -0.878106554
vn 0.774324434 0.632131415 0.028836526
vn 0.149235720 0.948538757 -0.279290041
vn 0.945817802 -0.054570342 0.320079307
vn 0.715546271 0.042427962 -0.697275700
vn 0.756555207 -0.361171100 -0.545141868
vn 0.715546271 0.042427962 -0.697275700
vn 0.945817802 -0.054570342 0.320079307
vn 0.774324434 0.632131415 0.028836526
vn 0.563265833 -0.709297639 0.423825980
vn 0.756555207 -0.361171100 -0.545141868
vn 0.493625458 -0.703846693 -0.510816738
vn 0.756555207 -0.361171100 -0.545141868
vn 0.563265833 -0.709297639 0.423825980
vn 0.945817802 -0.054570342 0.320079307
vn -0.248158811 -0.279005266 0.927670882
vn 0.563265833 -0.709297639 0.423825980
vn -0.149240056 -0.948536253 0.279296227
vn 0.563265833 -0.709297639 0.423825980
vn -0.248158811 -0.279005266 0.927670882
vn 0.138113361 -0.091691204 0.986162980
vn -0.628340748 -0.152276188 0.762889158
vn -0.149240056 -0.948536253 0.279296227
vn -0.774324434 -0.632131415 -0.028836526
vn -0.149240056 -0.948536253 0.279296227
vn -0.628340748 -0.152276188 0.762889158
vn -0.248158811 -0.279005266 0.927670882
vn -0.779666338 0.214287884 0.588388566
vn -0.774324434 -0.632131415 -0.028836526
vn -0.945824670 0.054577291 -0.320057827
vn -0.774324434 -0.632131415 -0.028836526
vn -0.779666338 0.214287884 0.588388566
vn -0.628340748 -0.152276188 0.762889158
vn -0.613526746 0.605955510 0.506362372
vn -0.945824670 0.054577291 -0.320057827
vn -0.563270722 0.709308256 -0.423801714
vn -0.945824670 0.054577291 -0.320057827
vn -0.613526746 0.605955510 0.506362372
vn -0.779666338 0.214287884 0.588388566
vn -0.227257085 0.793278463 0.564857060
vn -0.563270722 0.709308256 -0.423801714
vn 0.149235720 0.948538757 -0.279290041
vn -0.563270722 0.709308256 -0.423801714
vn -0.227257085 0.793278463 0.564857060
vn -0.613526746 0.605955510 0.506362372
vn 0.152916528 0.666551670 0.729606337
vn 0.149235720 0.948538757 -0.279290041
vn 0.774324434 0.632131415 0.028836526
vn 0.149235720 0.948538757 -0.279290041
vn 0.152916528 0.666551670 0.729606337
vn -0.227257085 0.793278463 0.564857060
vn 0.304245550 0.299986994 0.904125240
vn 0.774324434 0.632131415 0.028836526
vn 0.945817802 -0.054570342 0.320079307
vn 0.774324434 0.632131415 0.028836526
vn 0.304245550 0.299986994 0.904125240
vn 0.152916528 0.666551670 0.729606337
vn 0.138113361 -0.091691204 0.986162980
vn 0.945817802 -0.054570342 0.320079307
vn 0.563265833 -0.709297639 0.423825980
vn 0.945817802 -0.054570342 0.320079307
vn 0.138113361 -0.091691204 0.986162980
vn 0.304245550 0.299986994 0.904125240
vn -0.288368160 0.311937210 0.905283923
vn 0.138113361 -0.091691204 0.986162980
vn -0.248158811 -0.279005266 0.927670882
vn -0.288368160 0.311937210 0.905283923
vn -0.248158811 -0.279005266 0.927670882
vn -0.628340748 -0.152276188 0.762889158
vn -0.288368160 0.311937210 0.905283923
vn -0.628340748 -0.152276188 0.762889158
vn -0.779666338 0.214287884 0.588388566
vn -0.288368160 0.311937210 0.905283923
vn -0.779666338 0.214287884 0.588388566
vn -0.613526746 0.605955510 0.506362372
vn -0.288368160 0.311937210 0.905283923
vn -0.613526746 0.605955510 0.506362372
vn -0.227257085 0.793278463 0.564857060
vn -0.288368160 0.311937210 0.905283923
vn -0.227257085 0.793278463 0.564857060
vn 0.152916528 0.666551670 0.729606337
vn -0.288368160 0.311937210 0.905283923
vn 0.152916528 0.666551670 0.729606337
vn 0.304245550 0.299986994 0.904125240
vn -0.288368160 0.311937210 0.905283923
vn 0.304245550 0.299986994 0.904125240
vn 0.138113361 -0.091691204 0.986162980
f 3/3/3 2/2/2 1/1/1
f 6/6/6 5/5/5 4/4/4
f 9/9/9 8/8/8 7/7/7
f 12/12/12 11/11/11 10/10/10
f 15/15/15 14/14/14 13/13/13
f 18/18/18 17/17/17 16/16/16
f 21/21/21 20/20/20 19/19/19
f 24/24/24 23/23/23 22/22/22
f 27/27/27 26/26/26 25/25/25
f 30/30/30 29/29/29 28/28/28
f 33/33/33 32/32/32 31/31/31
f 36/36/36 35/35/35 34/34/34
f 39/39/39 38/38/38 37/37/37
f 42/42/42 41/41/41 40/40/40
f 45/45/45 44/44/44 43/43/43
f 48/48/48 47/47/47 46/46/46
f 51/51/51 50/50/50 49/49/49
f 54/54/54 53/53/53 52/52/52
f 57/57/57 56/56/56 55/55/55
f 60/60/60 59/59/59 58/58/58
f 63/63/63 62/62/62 61/61/61
f 66/66/66 65/65/65 64/64/64
f 69/69/69 68/68/68 67/67/67
f 72/72/72 71/71/71 70/70/70
f 75/75/75 74/74/74 73/73/73
f 78/78/78 77/77/77 76/76/76
f 81/81/81 80/80/80 79/79/79
f 84/84/84 83/83/83 82/82/82
f 87/87/87 86/86/86 85/85/85
f 90/90/90 89/89/89 88/88/88
f 93/93/93 92/92/92 91/91/91
f 96/96/96 95/95/95 94/94/94
f 99/99/99 98/98/98 97/97/97
f 102/102/102 101/101/101 100/100/100
f 105/105/105 104/104/104 103/103/103
f 108/108/108 107/107/107 106/106/106
f 111/111/111 110/110/110 109/109/109
f 114/114/114 113/113/113 112/112/112
f 117/117/117 116/116/116 115/115/115
f 120/120/120 119/119/119 118/118/118
f 123/123/123 122/122/122 121/121/121
f 126/126/126 125/125/125 124/124/124
f 129/129/129 128/128/128 127/127/127
f 132/132/132 131/131/131 130/130/130
f 135/135/135 134/134/134 133/133/133
f 138/138/138 137/137/137 136/136/136
f 141/141/141 140/140/140 139/139/139
f 144/144/144 143/143/143 142/142/142
f 147/147/147 146/146/146 145/145/145
f 150/150/150 149/149/149 148/148/148
f 153/153/153 152/152/152 151/151/151
f 156/156/156 155/155/155 154/154/154
f 159/159/159 158/158/158 157/157/157
f 162/162/162 161/161/161 160/160/160
f 165/165/165 164/164/164 163/163/163
f 168/168/168 167/167/167 166/166/166
f 171/171/171 170/170/170 169/169/169
f 174/174/174 173/173/173 172/172/172
f 177/177/177 176/176/176 175/175/175
f 180/180/180 179/179/179 178/178/178
f 183/183/183 182/182/182 181/181/181
f 186/186/186 185/185/185 184/184/184
f 189/189/189 188/188/188 187/187/187
f 192/192/192 191/191/191 190/190/190
f 195/195/195 194/194/194 193/193/193
f 198/198/198 197/197/197 196/196/196
f 201/201/201 200/200/200 199/199/199
f 204/204/204 203/203/203 202/202/202
f 207/207/207 206/206/206 205/205/205
f 210/210/210 209/209/209 208/208/208
f 213/213/213 212/212/212 211/211/211
f 216/216/216 215/215/215 214/214/214
f 219/219/219 218/218/218 217/217/217
f 222/222/222 221/221/221 220/220/220
f 225/225/225 224/224/224 223/223/223
f 228/228/228 227/227/227 226/226/226
f 231/231/231 230/230/230 229/229/229
f 234/234/234 233/233/233 232/232/232
f 237/237/237 236/236/236 235/235/235
f 240/240/240 239/239/239 238/238/238
f 243/243/243 242/242/242 241/241/241
f 246/246/246 245/245/245 244/244/244
f 249/249/249 248/248/248 247/247/247
f 252/252/252 251/251/251 250/250/250
f 255/255/255 254/254/254 253/253/253
f 258/258/258 257/257/257 256/256/256
f 261/261/261 260/260/260 259/259/259
f 264/264/264 263/263/263 262/262/262
f 267/267/267 266/266/266 265/265/265
f 270/270/270 269/269/269 268/268/268
f 273/273/273 272/272/272 271/271/271
f 276/276/276 275/275/275 274/274/274
f 279/279/279 278/278/278 277/277/277
f 282/282/282 281/281/281 280/280/280
f 285/285/285 284/284/284 283/283/283
f 288/288/288 287/287/287 286/286/286
