# Static pose baked from local Project Zomboid assets
o Kate_Hair_PonyTail
v -0.094400597 0.157438781 -0.424966547
v -0.112702544 0.141300400 -0.437789744
v -0.067153059 0.138559967 -0.440105150
v -0.112702544 0.141300400 -0.437789744
v -0.094400597 0.157438781 -0.424966547
v -0.112705967 0.141304437 -0.437786301
v -0.037518184 0.124103933 -0.426715748
v -0.046921781 0.142058672 -0.387956462
v -0.071126724 0.161190711 -0.418212649
v -0.046921781 0.142058672 -0.387956462
v -0.037518184 0.124103933 -0.426715748
v -0.033348043 0.123660773 -0.407500676
v -0.048137838 0.060939942 -0.409896633
v -0.036966936 0.098465585 -0.426613041
v -0.055207653 0.070527873 -0.430235471
v -0.036966936 0.098465585 -0.426613041
v -0.048137838 0.060939942 -0.409896633
v -0.029965812 0.091891632 -0.406275534
v -0.067153059 0.138559967 -0.440105150
v -0.037518184 0.124103933 -0.426715748
v -0.071126724 0.161190711 -0.418212649
v -0.037518184 0.124103933 -0.426715748
v -0.067153059 0.138559967 -0.440105150
v -0.049526337 0.116310631 -0.441433260
v -0.036966936 0.098465585 -0.426613041
v -0.070745777 0.090408066 -0.448800306
v -0.055207653 0.070527873 -0.430235471
v -0.070745777 0.090408066 -0.448800306
v -0.036966936 0.098465585 -0.426613041
v -0.049526337 0.116310631 -0.441433260
v -0.071126724 0.161190711 -0.418212649
v -0.094400597 0.157438781 -0.424966547
v -0.067153059 0.138559967 -0.440105150
v -0.027283264 0.107812635 -0.386867230
v -0.029965812 0.091891632 -0.406275534
v -0.029713522 0.080578061 -0.380256107
v -0.029965812 0.091891632 -0.406275534
v -0.027283264 0.107812635 -0.386867230
v -0.033348043 0.123660773 -0.407500676
v -0.049526337 0.116310631 -0.441433260
v -0.036966936 0.098465585 -0.426613041
v -0.037518184 0.124103933 -0.426715748
v -0.098390236 0.165628571 -0.413444641
v -0.120251082 0.149984826 -0.425467908
v -0.094400597 0.157438781 -0.424966547
v -0.120251082 0.149984826 -0.425467908
v -0.098390236 0.165628571 -0.413444641
v -0.123947622 0.153848235 -0.410898214
v -0.067153059 0.138559967 -0.440105150
v -0.112702544 0.141300400 -0.437789744
v -0.093823314 0.118750700 -0.450422168
v -0.046138428 0.057206442 -0.381742362
v -0.037354700 0.073603828 -0.362314205
v -0.029713522 0.080578061 -0.380256107
v -0.037354700 0.073603828 -0.362314205
v -0.046138428 0.057206442 -0.381742362
v -0.048805991 0.059592813 -0.362424541
v -0.029713522 0.080578061 -0.380256107
v -0.031816616 0.095344761 -0.362536263
v -0.027283264 0.107812635 -0.386867230
v -0.031816616 0.095344761 -0.362536263
v -0.029713522 0.080578061 -0.380256107
v -0.037354700 0.073603828 -0.362314205
v -0.036449010 0.130701526 -0.390249221
v -0.043188776 0.117657983 -0.364517987
v -0.048188310 0.135304385 -0.384582216
v -0.043188776 0.117657983 -0.364517987
v -0.036449010 0.130701526 -0.390249221
v -0.029496860 0.108866638 -0.365651913
v -0.027283264 0.107812635 -0.386867230
v -0.029496860 0.108866638 -0.365651913
v -0.036449010 0.130701526 -0.390249221
v -0.029496860 0.108866638 -0.365651913
v -0.027283264 0.107812635 -0.386867230
v -0.031816616 0.095344761 -0.362536263
v -0.048805991 0.059592813 -0.362424541
v -0.048709737 0.061855854 -0.345039459
v -0.037354700 0.073603828 -0.362314205
v -0.048709737 0.061855854 -0.345039459
v -0.048805991 0.059592813 -0.362424541
v -0.050657380 0.054687202 -0.346298772
v -0.037354700 0.073603828 -0.362314205
v -0.048709737 0.061855854 -0.345039459
v -0.031816616 0.095344761 -0.362536263
v -0.029496860 0.108866638 -0.365651913
v -0.052418260 0.066296325 -0.342956631
v -0.043188776 0.117657983 -0.364517987
v -0.052418260 0.066296325 -0.342956631
v -0.029496860 0.108866638 -0.365651913
v -0.048709737 0.061855854 -0.345039459
v -0.031816616 0.095344761 -0.362536263
v -0.048709737 0.061855854 -0.345039459
v -0.029496860 0.108866638 -0.365651913
v -0.046921781 0.142058672 -0.387956462
v -0.071248081 0.161795430 -0.405495902
v -0.071126724 0.161190711 -0.418212649
v -0.071248081 0.161795430 -0.405495902
v -0.046921781 0.142058672 -0.387956462
v -0.055730840 0.141475555 -0.368201124
v -0.098390236 0.165628571 -0.413444641
v -0.071126724 0.161190711 -0.418212649
v -0.071248081 0.161795430 -0.405495902
v -0.071126724 0.161190711 -0.418212649
v -0.098390236 0.165628571 -0.413444641
v -0.094400597 0.157438781 -0.424966547
v -0.029713522 0.080578061 -0.380256107
v -0.048137838 0.060939942 -0.409896633
v -0.046138428 0.057206442 -0.381742362
v -0.048137838 0.060939942 -0.409896633
v -0.029713522 0.080578061 -0.380256107
v -0.029965812 0.091891632 -0.406275534
v -0.036966936 0.098465585 -0.426613041
v -0.033348043 0.123660773 -0.407500676
v -0.037518184 0.124103933 -0.426715748
v -0.033348043 0.123660773 -0.407500676
v -0.036966936 0.098465585 -0.426613041
v -0.029965812 0.091891632 -0.406275534
v -0.036449010 0.130701526 -0.390249221
v -0.033348043 0.123660773 -0.407500676
v -0.027283264 0.107812635 -0.386867230
v -0.033348043 0.123660773 -0.407500676
v -0.036449010 0.130701526 -0.390249221
v -0.046921781 0.142058672 -0.387956462
v -0.048188310 0.135304385 -0.384582216
v -0.046921781 0.142058672 -0.387956462
v -0.036449010 0.130701526 -0.390249221
v -0.046921781 0.142058672 -0.387956462
v -0.048188310 0.135304385 -0.384582216
v -0.055730840 0.141475555 -0.368201124
v -0.071248081 0.161795430 -0.405495902
v -0.089335913 0.152838060 -0.404591323
v -0.098390236 0.165628571 -0.413444641
v -0.089335913 0.152838060 -0.404591323
v -0.071248081 0.161795430 -0.405495902
v -0.068450263 0.145267757 -0.394529216
v -0.098390236 0.165628571 -0.413444641
v -0.115160780 0.142755039 -0.403668110
v -0.123947622 0.153848235 -0.410898214
v -0.115160780 0.142755039 -0.403668110
v -0.098390236 0.165628571 -0.413444641
v -0.089335913 0.152838060 -0.404591323
v -0.043188776 0.117657983 -0.364517987
v -0.048765841 0.129195038 -0.379030051
v -0.048188310 0.135304385 -0.384582216
v -0.048765841 0.129195038 -0.379030051
v -0.043188776 0.117657983 -0.364517987
v -0.045708938 0.112706156 -0.362450192
v -0.052418260 0.066296325 -0.342956631
v -0.045708938 0.112706156 -0.362450192
v -0.043188776 0.117657983 -0.364517987
v -0.055730840 0.141475555 -0.368201124
v -0.068450263 0.145267757 -0.394529216
v -0.071248081 0.161795430 -0.405495902
v -0.068450263 0.145267757 -0.394529216
v -0.055730840 0.141475555 -0.368201124
v -0.057381992 0.135243467 -0.376106781
v -0.048188310 0.135304385 -0.384582216
v -0.057381992 0.135243467 -0.376106781
v -0.055730840 0.141475555 -0.368201124
v -0.057381992 0.135243467 -0.376106781
v -0.048188310 0.135304385 -0.384582216
v -0.048765841 0.129195038 -0.379030051
v -0.068450263 0.145267757 -0.394529216
v -0.074428489 0.129101344 -0.377662179
v -0.089335913 0.152838060 -0.404591323
v -0.074428489 0.129101344 -0.377662179
v -0.068450263 0.145267757 -0.394529216
v -0.068266381 0.122830805 -0.376991744
v -0.089335913 0.152838060 -0.404591323
v -0.096429468 0.118602968 -0.377202710
v -0.115160780 0.142755039 -0.403668110
v -0.096429468 0.118602968 -0.377202710
v -0.089335913 0.152838060 -0.404591323
v -0.074428489 0.129101344 -0.377662179
v -0.045708938 0.112706156 -0.362450192
v -0.059207151 0.111108498 -0.368937546
v -0.048765841 0.129195038 -0.379030051
v -0.059207151 0.111108498 -0.368937546
v -0.045708938 0.112706156 -0.362450192
v -0.055583143 0.099944981 -0.357852540
v -0.052418260 0.066296325 -0.342956631
v -0.055583143 0.099944981 -0.357852540
v -0.045708938 0.112706156 -0.362450192
v -0.055583143 0.099944981 -0.357852540
v -0.052418260 0.066296325 -0.342956631
v -0.057633839 0.064287407 -0.342437661
v -0.057381992 0.135243467 -0.376106781
v -0.068266381 0.122830805 -0.376991744
v -0.068450263 0.145267757 -0.394529216
v -0.068266381 0.122830805 -0.376991744
v -0.057381992 0.135243467 -0.376106781
v -0.062736077 0.117101712 -0.372334774
v -0.048765841 0.129195038 -0.379030051
v -0.062736077 0.117101712 -0.372334774
v -0.057381992 0.135243467 -0.376106781
v -0.062736077 0.117101712 -0.372334774
v -0.048765841 0.129195038 -0.379030051
v -0.059207151 0.111108498 -0.368937546
v -0.093823314 0.118750700 -0.450422168
v -0.049526337 0.116310631 -0.441433260
v -0.067153059 0.138559967 -0.440105150
v -0.049526337 0.116310631 -0.441433260
v -0.093823314 0.118750700 -0.450422168
v -0.070745777 0.090408066 -0.448800306
v -0.120251082 0.149984826 -0.425467908
v -0.112705967 0.141304437 -0.437786301
v -0.094400597 0.157438781 -0.424966547
v -0.132718041 0.126157762 -0.426393521
v -0.112702544 0.141300400 -0.437789744
v -0.112705967 0.141304437 -0.437786301
v -0.112702544 0.141300400 -0.437789744
v -0.132718041 0.126157762 -0.426393521
v -0.118987883 0.096243832 -0.442035523
v -0.111335304 0.063842222 -0.429464760
v -0.128770196 0.075240493 -0.391004567
v -0.112590857 0.058969715 -0.410451746
v -0.128770196 0.075240493 -0.391004567
v -0.111335304 0.063842222 -0.429464760
v -0.141232405 0.103924017 -0.420722610
v -0.048137838 0.060939942 -0.409896633
v -0.086368452 0.058169599 -0.428445230
v -0.082945089 0.048641205 -0.408248528
v -0.086368452 0.058169599 -0.428445230
v -0.048137838 0.060939942 -0.409896633
v -0.055207653 0.070527873 -0.430235471
v -0.118987883 0.096243832 -0.442035523
v -0.111335304 0.063842222 -0.429464760
v -0.100658073 0.074568472 -0.443337450
v -0.111335304 0.063842222 -0.429464760
v -0.118987883 0.096243832 -0.442035523
v -0.141232405 0.103924017 -0.420722610
v -0.086368452 0.058169599 -0.428445230
v -0.070745777 0.090408066 -0.448800306
v -0.100658073 0.074568472 -0.443337450
v -0.070745777 0.090408066 -0.448800306
v -0.086368452 0.058169599 -0.428445230
v -0.055207653 0.070527873 -0.430235471
v -0.141232405 0.103924017 -0.420722610
v -0.118987883 0.096243832 -0.442035523
v -0.132718041 0.126157762 -0.426393521
v -0.099205611 0.049097750 -0.389545680
v -0.082945089 0.048641205 -0.408248528
v -0.112590857 0.058969715 -0.410451746
v -0.082945089 0.048641205 -0.408248528
v -0.099205611 0.049097750 -0.389545680
v -0.072354795 0.045767219 -0.381844104
v -0.100658073 0.074568472 -0.443337450
v -0.111335304 0.063842222 -0.429464760
v -0.086368452 0.058169599 -0.428445230
v -0.140456185 0.131287403 -0.415011212
v -0.120251082 0.149984826 -0.425467908
v -0.123947622 0.153848235 -0.410898214
v -0.120251082 0.149984826 -0.425467908
v -0.140456185 0.131287403 -0.415011212
v -0.132718041 0.126157762 -0.426393521
v -0.118987883 0.096243832 -0.442035523
v -0.093823314 0.118750700 -0.450422168
v -0.112702544 0.141300400 -0.437789744
v -0.046138428 0.057206442 -0.381742362
v -0.066624820 0.053383663 -0.362578731
v -0.048805991 0.059592813 -0.362424541
v -0.066624820 0.053383663 -0.362578731
v -0.046138428 0.057206442 -0.381742362
v -0.072354795 0.045767219 -0.381844104
v -0.072354795 0.045767219 -0.381844104
v -0.087183134 0.050145475 -0.364598159
v -0.066624820 0.053383663 -0.362578731
v -0.087183134 0.050145475 -0.364598159
v -0.072354795 0.045767219 -0.381844104
v -0.099205611 0.049097750 -0.389545680
v -0.119635459 0.062791023 -0.393347156
v -0.106673313 0.065831430 -0.366882206
v -0.100743225 0.050703601 -0.368305188
v -0.106673313 0.065831430 -0.366882206
v -0.119635459 0.062791023 -0.393347156
v -0.122056537 0.075000952 -0.387333132
v -0.099205611 0.049097750 -0.389545680
v -0.100743225 0.050703601 -0.368305188
v -0.087183134 0.050145475 -0.364598159
v -0.100743225 0.050703601 -0.368305188
v -0.099205611 0.049097750 -0.389545680
v -0.119635459 0.062791023 -0.393347156
v -0.048805991 0.059592813 -0.362424541
v -0.058148795 0.055135501 -0.344955655
v -0.050657380 0.054687202 -0.346298772
v -0.058148795 0.055135501 -0.344955655
v -0.048805991 0.059592813 -0.362424541
v -0.066624820 0.053383663 -0.362578731
v -0.066624820 0.053383663 -0.362578731
v -0.087183134 0.050145475 -0.364598159
v -0.058148795 0.055135501 -0.344955655
v -0.100743225 0.050703601 -0.368305188
v -0.061104950 0.060111960 -0.342879774
v -0.058148795 0.055135501 -0.344955655
v -0.061104950 0.060111960 -0.342879774
v -0.100743225 0.050703601 -0.368305188
v -0.106673313 0.065831430 -0.366882206
v -0.087183134 0.050145475 -0.364598159
v -0.100743225 0.050703601 -0.368305188
v -0.058148795 0.055135501 -0.344955655
v -0.142463472 0.103657680 -0.408148024
v -0.128770196 0.075240493 -0.391004567
v -0.141232405 0.103924017 -0.420722610
v -0.128770196 0.075240493 -0.391004567
v -0.142463472 0.103657680 -0.408148024
v -0.127327201 0.083026794 -0.370867434
v -0.140456185 0.131287403 -0.415011212
v -0.142463472 0.103657680 -0.408148024
v -0.141232405 0.103924017 -0.420722610
v -0.141232405 0.103924017 -0.420722610
v -0.132718041 0.126157762 -0.426393521
v -0.140456185 0.131287403 -0.415011212
v -0.072354795 0.045767219 -0.381844104
v -0.048137838 0.060939942 -0.409896633
v -0.082945089 0.048641205 -0.408248528
v -0.048137838 0.060939942 -0.409896633
v -0.072354795 0.045767219 -0.381844104
v -0.046138428 0.057206442 -0.381742362
v -0.086368452 0.058169599 -0.428445230
v -0.112590857 0.058969715 -0.410451746
v -0.082945089 0.048641205 -0.408248528
v -0.112590857 0.058969715 -0.410451746
v -0.086368452 0.058169599 -0.428445230
v -0.111335304 0.063842222 -0.429464760
v -0.119635459 0.062791023 -0.393347156
v -0.112590857 0.058969715 -0.410451746
v -0.128770196 0.075240493 -0.391004567
v -0.112590857 0.058969715 -0.410451746
v -0.119635459 0.062791023 -0.393347156
v -0.099205611 0.049097750 -0.389545680
v -0.122056537 0.075000952 -0.387333132
v -0.128770196 0.075240493 -0.391004567
v -0.127327201 0.083026794 -0.370867434
v -0.128770196 0.075240493 -0.391004567
v -0.122056537 0.075000952 -0.387333132
v -0.119635459 0.062791023 -0.393347156
v -0.142463472 0.103657680 -0.408148024
v -0.130132742 0.119532957 -0.406110632
v -0.127330666 0.097199859 -0.396721972
v -0.130132742 0.119532957 -0.406110632
v -0.142463472 0.103657680 -0.408148024
v -0.140456185 0.131287403 -0.415011212
v -0.140456185 0.131287403 -0.415011212
v -0.115160780 0.142755039 -0.403668110
v -0.130132742 0.119532957 -0.406110632
v -0.115160780 0.142755039 -0.403668110
v -0.140456185 0.131287403 -0.415011212
v -0.123947622 0.153848235 -0.410898214
v -0.106673313 0.065831430 -0.366882206
v -0.116208725 0.074137030 -0.381541682
v -0.101416933 0.067228100 -0.364524805
v -0.116208725 0.074137030 -0.381541682
v -0.106673313 0.065831430 -0.366882206
v -0.122056537 0.075000952 -0.387333132
v -0.061104950 0.060111960 -0.342879774
v -0.106673313 0.065831430 -0.366882206
v -0.101416933 0.067228100 -0.364524805
v -0.127327201 0.083026794 -0.370867434
v -0.127330666 0.097199859 -0.396721972
v -0.120544411 0.083679880 -0.378459003
v -0.127330666 0.097199859 -0.396721972
v -0.127327201 0.083026794 -0.370867434
v -0.142463472 0.103657680 -0.408148024
v -0.122056537 0.075000952 -0.387333132
v -0.120544411 0.083679880 -0.378459003
v -0.116208725 0.074137030 -0.381541682
v -0.120544411 0.083679880 -0.378459003
v -0.122056537 0.075000952 -0.387333132
v -0.127327201 0.083026794 -0.370867434
v -0.127330666 0.097199859 -0.396721972
v -0.111067198 0.099190785 -0.379026636
v -0.106185822 0.091874701 -0.378403896
v -0.111067198 0.099190785 -0.379026636
v -0.127330666 0.097199859 -0.396721972
v -0.130132742 0.119532957 -0.406110632
v -0.130132742 0.119532957 -0.406110632
v -0.096429468 0.118602968 -0.377202710
v -0.111067198 0.099190785 -0.379026636
v -0.096429468 0.118602968 -0.377202710
v -0.130132742 0.119532957 -0.406110632
v -0.115160780 0.142755039 -0.403668110
v -0.101416933 0.067228100 -0.364524805
v -0.096874162 0.080358470 -0.370340298
v -0.087162417 0.074164768 -0.359028579
v -0.096874162 0.080358470 -0.370340298
v -0.101416933 0.067228100 -0.364524805
v -0.116208725 0.074137030 -0.381541682
v -0.061104950 0.060111960 -0.342879774
v -0.087162417 0.074164768 -0.359028579
v -0.057633839 0.064287407 -0.342437661
v -0.087162417 0.074164768 -0.359028579
v -0.061104950 0.060111960 -0.342879774
v -0.101416933 0.067228100 -0.364524805
v -0.120544411 0.083679880 -0.378459003
v -0.106185822 0.091874701 -0.378403896
v -0.101886695 0.085140519 -0.373792776
v -0.106185822 0.091874701 -0.378403896
v -0.120544411 0.083679880 -0.378459003
v -0.127330666 0.097199859 -0.396721972
v -0.116208725 0.074137030 -0.381541682
v -0.101886695 0.085140519 -0.373792776
v -0.096874162 0.080358470 -0.370340298
v -0.101886695 0.085140519 -0.373792776
v -0.116208725 0.074137030 -0.381541682
v -0.120544411 0.083679880 -0.378459003
v -0.093823314 0.118750700 -0.450422168
v -0.100658073 0.074568472 -0.443337450
v -0.070745777 0.090408066 -0.448800306
v -0.100658073 0.074568472 -0.443337450
v -0.093823314 0.118750700 -0.450422168
v -0.118987883 0.096243832 -0.442035523
v -0.120251082 0.149984826 -0.425467908
v -0.132718041 0.126157762 -0.426393521
v -0.112705967 0.141304437 -0.437786301
v -0.050657380 0.054687202 -0.346298772
v -0.045128496 0.061754876 -0.341243195
v -0.048709737 0.061855854 -0.345039459
v -0.045128496 0.061754876 -0.341243195
v -0.050657380 0.054687202 -0.346298772
v -0.046905228 0.054409892 -0.342895409
v -0.048709737 0.061855854 -0.345039459
v -0.048986945 0.066075712 -0.338802803
v -0.052418260 0.066296325 -0.342956631
v -0.048986945 0.066075712 -0.338802803
v -0.048709737 0.061855854 -0.345039459
v -0.045128496 0.061754876 -0.341243195
v -0.052418260 0.066296325 -0.342956631
v -0.054190480 0.063821848 -0.338291939
v -0.057633839 0.064287407 -0.342437661
v -0.054190480 0.063821848 -0.338291939
v -0.052418260 0.066296325 -0.342956631
v -0.048986945 0.066075712 -0.338802803
v -0.057633839 0.064287407 -0.342437661
v -0.057579086 0.059453389 -0.338914446
v -0.061104950 0.060111960 -0.342879774
v -0.057579086 0.059453389 -0.338914446
v -0.057633839 0.064287407 -0.342437661
v -0.054190480 0.063821848 -0.338291939
v -0.061104950 0.060111960 -0.342879774
v -0.054465395 0.054559361 -0.341363977
v -0.058148795 0.055135501 -0.344955655
v -0.054465395 0.054559361 -0.341363977
v -0.061104950 0.060111960 -0.342879774
v -0.057579086 0.059453389 -0.338914446
v -0.058148795 0.055135501 -0.344955655
v -0.046905228 0.054409892 -0.342895409
v -0.050657380 0.054687202 -0.346298772
v -0.046905228 0.054409892 -0.342895409
v -0.058148795 0.055135501 -0.344955655
v -0.054465395 0.054559361 -0.341363977
v -0.046905228 0.054409892 -0.342895409
v -0.041931586 0.057060568 -0.335338633
v -0.045128496 0.061754876 -0.341243195
v -0.041931586 0.057060568 -0.335338633
v -0.046905228 0.054409892 -0.342895409
v -0.046713504 0.049374110 -0.336397140
v -0.045128496 0.061754876 -0.341243195
v -0.041931586 0.057060568 -0.335338633
v -0.043007984 0.061903453 -0.332333002
v -0.045128496 0.061754876 -0.341243195
v -0.047164484 0.065527791 -0.329429109
v -0.048986945 0.066075712 -0.338802803
v -0.047164484 0.065527791 -0.329429109
v -0.045128496 0.061754876 -0.341243195
v -0.043007984 0.061903453 -0.332333002
v -0.048986945 0.066075712 -0.338802803
v -0.055690844 0.063099474 -0.327152756
v -0.054190480 0.063821848 -0.338291939
v -0.055690844 0.063099474 -0.327152756
v -0.048986945 0.066075712 -0.338802803
v -0.047164484 0.065527791 -0.329429109
v -0.054190480 0.063821848 -0.338291939
v -0.061005947 0.056124352 -0.328940905
v -0.057579086 0.059453389 -0.338914446
v -0.061005947 0.056124352 -0.328940905
v -0.054190480 0.063821848 -0.338291939
v -0.055690844 0.063099474 -0.327152756
v -0.057579086 0.059453389 -0.338914446
v -0.059485188 0.050709949 -0.331751648
v -0.054465395 0.054559361 -0.341363977
v -0.059485188 0.050709949 -0.331751648
v -0.057579086 0.059453389 -0.338914446
v -0.061005947 0.056124352 -0.328940905
v -0.054465395 0.054559361 -0.341363977
v -0.059485188 0.050709949 -0.331751648
v -0.055534894 0.047819988 -0.334858862
v -0.054465395 0.054559361 -0.341363977
v -0.046713504 0.049374110 -0.336397140
v -0.046905228 0.054409892 -0.342895409
v -0.046713504 0.049374110 -0.336397140
v -0.054465395 0.054559361 -0.341363977
v -0.055534894 0.047819988 -0.334858862
v -0.046713504 0.049374110 -0.336397140
v -0.037533054 0.046103727 -0.317992216
v -0.041931586 0.057060568 -0.335338633
v -0.037533054 0.046103727 -0.317992216
v -0.046713504 0.049374110 -0.336397140
v -0.044140221 0.036940662 -0.319090538
v -0.041931586 0.057060568 -0.335338633
v -0.038014188 0.052045114 -0.314597270
v -0.043007984 0.061903453 -0.332333002
v -0.038014188 0.052045114 -0.314597270
v -0.041931586 0.057060568 -0.335338633
v -0.037533054 0.046103727 -0.317992216
v -0.043007984 0.061903453 -0.332333002
v -0.042655082 0.057449983 -0.310560002
v -0.047164484 0.065527791 -0.329429109
v -0.042655082 0.057449983 -0.310560002
v -0.043007984 0.061903453 -0.332333002
v -0.038014188 0.052045114 -0.314597270
v -0.047164484 0.065527791 -0.329429109
v -0.053073743 0.055423046 -0.307282272
v -0.055690844 0.063099474 -0.327152756
v -0.053073743 0.055423046 -0.307282272
v -0.047164484 0.065527791 -0.329429109
v -0.042655082 0.057449983 -0.310560002
v -0.055690844 0.063099474 -0.327152756
v -0.060506904 0.047658245 -0.308676152
v -0.061005947 0.056124352 -0.328940905
v -0.060506904 0.047658245 -0.308676152
v -0.055690844 0.063099474 -0.327152756
v -0.053073743 0.055423046 -0.307282272
v -0.061005947 0.056124352 -0.328940905
v -0.059265719 0.040388329 -0.312355770
v -0.059485188 0.050709949 -0.331751648
v -0.059265719 0.040388329 -0.312355770
v -0.061005947 0.056124352 -0.328940905
v -0.060506904 0.047658245 -0.308676152
v -0.059485188 0.050709949 -0.331751648
v -0.055077154 0.036480412 -0.316141961
v -0.055534894 0.047819988 -0.334858862
v -0.055077154 0.036480412 -0.316141961
v -0.059485188 0.050709949 -0.331751648
v -0.059265719 0.040388329 -0.312355770
v -0.055534894 0.047819988 -0.334858862
v -0.044140221 0.036940662 -0.319090538
v -0.046713504 0.049374110 -0.336397140
v -0.044140221 0.036940662 -0.319090538
v -0.055534894 0.047819988 -0.334858862
v -0.055077154 0.036480412 -0.316141961
v -0.044140221 0.036940662 -0.319090538
v -0.037833415 0.034789455 -0.298815523
v -0.037533054 0.046103727 -0.317992216
v -0.037833415 0.034789455 -0.298815523
v -0.044140221 0.036940662 -0.319090538
v -0.043673999 0.027420853 -0.299266299
v -0.037533054 0.046103727 -0.317992216
v -0.037814186 0.040360995 -0.295759624
v -0.038014188 0.052045114 -0.314597270
v -0.037814186 0.040360995 -0.295759624
v -0.037533054 0.046103727 -0.317992216
v -0.037833415 0.034789455 -0.298815523
v -0.038014188 0.052045114 -0.314597270
v -0.041171892 0.045926190 -0.292131759
v -0.042655082 0.057449983 -0.310560002
v -0.041171892 0.045926190 -0.292131759
v -0.038014188 0.052045114 -0.314597270
v -0.037814186 0.040360995 -0.295759624
v -0.042655082 0.057449983 -0.310560002
v -0.049620022 0.045629046 -0.288681721
v -0.053073743 0.055423046 -0.307282272
v -0.049620022 0.045629046 -0.288681721
v -0.042655082 0.057449983 -0.310560002
v -0.041171892 0.045926190 -0.292131759
v -0.053073743 0.055423046 -0.307282272
v -0.056095828 0.039543875 -0.289603896
v -0.060506904 0.047658245 -0.308676152
v -0.056095828 0.039543875 -0.289603896
v -0.053073743 0.055423046 -0.307282272
v -0.049620022 0.045629046 -0.288681721
v -0.060506904 0.047658245 -0.308676152
v -0.055580527 0.032764716 -0.292750965
v -0.059265719 0.040388329 -0.312355770
v -0.055580527 0.032764716 -0.292750965
v -0.060506904 0.047658245 -0.308676152
v -0.056095828 0.039543875 -0.289603896
v -0.059265719 0.040388329 -0.312355770
v -0.052500411 0.028517953 -0.296331221
v -0.055077154 0.036480412 -0.316141961
v -0.052500411 0.028517953 -0.296331221
v -0.059265719 0.040388329 -0.312355770
v -0.055580527 0.032764716 -0.292750965
v -0.055077154 0.036480412 -0.316141961
v -0.043673999 0.027420853 -0.299266299
v -0.044140221 0.036940662 -0.319090538
v -0.043673999 0.027420853 -0.299266299
v -0.055077154 0.036480412 -0.316141961
v -0.052500411 0.028517953 -0.296331221
v -0.043673999 0.027420853 -0.299266299
v -0.041255756 0.027526500 -0.276425803
v -0.037833415 0.034789455 -0.298815523
v -0.041255756 0.027526500 -0.276425803
v -0.043673999 0.027420853 -0.299266299
v -0.044319447 0.024348139 -0.276175478
v -0.037833415 0.034789455 -0.298815523
v -0.041255756 0.027526500 -0.276425803
v -0.037814186 0.040360995 -0.295759624
v -0.037814186 0.040360995 -0.295759624
v -0.042047862 0.031758741 -0.274756485
v -0.041171892 0.045926190 -0.292131759
v -0.042047862 0.031758741 -0.274756485
v -0.037814186 0.040360995 -0.295759624
v -0.041255756 0.027526500 -0.276425803
v -0.041171892 0.045926190 -0.292131759
v -0.045895715 0.031437299 -0.273576028
v -0.049620022 0.045629046 -0.288681721
v -0.045895715 0.031437299 -0.273576028
v -0.041171892 0.045926190 -0.292131759
v -0.042047862 0.031758741 -0.274756485
v -0.049620022 0.045629046 -0.288681721
v -0.049293644 0.029493961 -0.273079081
v -0.056095828 0.039543875 -0.289603896
v -0.049293644 0.029493961 -0.273079081
v -0.049620022 0.045629046 -0.288681721
v -0.045895715 0.031437299 -0.273576028
v -0.056095828 0.039543875 -0.289603896
v -0.048376513 0.025301085 -0.274778426
v -0.055580527 0.032764716 -0.292750965
v -0.048376513 0.025301085 -0.274778426
v -0.056095828 0.039543875 -0.289603896
v -0.049293644 0.029493961 -0.273079081
v -0.055580527 0.032764716 -0.292750965
v -0.048376513 0.025301085 -0.274778426
v -0.052500411 0.028517953 -0.296331221
v -0.052500411 0.028517953 -0.296331221
v -0.044319447 0.024348139 -0.276175478
v -0.043673999 0.027420853 -0.299266299
v -0.044319447 0.024348139 -0.276175478
v -0.052500411 0.028517953 -0.296331221
v -0.048376513 0.025301085 -0.274778426
v -0.044319447 0.024348139 -0.276175478
v -0.041468016 0.023271492 -0.264295773
v -0.041255756 0.027526500 -0.276425803
v -0.041255756 0.027526500 -0.276425803
v -0.041468016 0.023271492 -0.264295773
v -0.042047862 0.031758741 -0.274756485
v -0.042047862 0.031758741 -0.274756485
v -0.041468016 0.023271492 -0.264295773
v -0.045895715 0.031437299 -0.273576028
v -0.045895715 0.031437299 -0.273576028
v -0.041468016 0.023271492 -0.264295773
v -0.049293644 0.029493961 -0.273079081
v -0.049293644 0.029493961 -0.273079081
v -0.041468016 0.023271492 -0.264295773
v -0.048376513 0.025301085 -0.274778426
v -0.048376513 0.025301085 -0.274778426
v -0.041468016 0.023271492 -0.264295773
v -0.044319447 0.024348139 -0.276175478
vt 0.163342997 0.059368014
vt 0.222782001 0.014806986
vt 0.220088005 0.112595975
vt 0.222782001 0.014806986
vt 0.163342997 0.059368014
vt 0.202781007 0.011348009
vt 0.212077007 0.185289025
vt 0.132737994 0.208414018
vt 0.153439999 0.110207975
vt 0.132737994 0.208414018
vt 0.212077007 0.185289025
vt 0.190157995 0.211098015
vt 0.298171014 0.270264030
vt 0.241968006 0.216840029
vt 0.298016995 0.225439012
vt 0.241968006 0.216840029
vt 0.298171014 0.270264030
vt 0.237657994 0.261389971
vt 0.220088005 0.112595975
vt 0.212077007 0.185289025
vt 0.153439999 0.110207975
vt 0.212077007 0.185289025
vt 0.220088005 0.112595975
vt 0.238821000 0.163273990
vt 0.241968006 0.216840029
vt 0.297951013 0.159473002
vt 0.298016995 0.225439012
vt 0.297951013 0.159473002
vt 0.241968006 0.216840029
vt 0.238821000 0.163273990
vt 0.153439999 0.110207975
vt 0.163342997 0.059368014
vt 0.220088005 0.112595975
vt 0.199494004 0.264167011
vt 0.237657994 0.261389971
vt 0.238591999 0.312813997
vt 0.237657994 0.261389971
vt 0.199494004 0.264167011
vt 0.190157995 0.211098015
vt 0.238821000 0.163273990
vt 0.241968006 0.216840029
vt 0.212077007 0.185289025
vt 0.130790994 0.065918982
vt 0.149899006 0.003461003
vt 0.163342997 0.059368014
vt 0.149899006 0.003461003
vt 0.130790994 0.065918982
vt 0.101453997 0.016242981
vt 0.220088005 0.112595975
vt 0.222782001 0.014806986
vt 0.297771007 0.074699998
vt 0.298626006 0.324665010
vt 0.251242995 0.348680019
vt 0.238591999 0.312813997
vt 0.251242995 0.348680019
vt 0.298626006 0.324665010
vt 0.299187005 0.360895991
vt 0.238591999 0.312813997
vt 0.203952998 0.321265996
vt 0.199494004 0.264167011
vt 0.203952998 0.321265996
vt 0.238591999 0.312813997
vt 0.251242995 0.348680019
vt 0.159139007 0.230387986
vt 0.146193996 0.296365023
vt 0.131629005 0.231251001
vt 0.146193996 0.296365023
vt 0.159139007 0.230387986
vt 0.179668993 0.299072027
vt 0.199494004 0.264167011
vt 0.179668993 0.299072027
vt 0.159139007 0.230387986
vt 0.179668993 0.299072027
vt 0.199494004 0.264167011
vt 0.203952998 0.321265996
vt 0.299187005 0.360895991
vt 0.263218999 0.380483985
vt 0.251242995 0.348680019
vt 0.263218999 0.380483985
vt 0.299187005 0.360895991
vt 0.299071014 0.385213017
vt 0.251242995 0.348680019
vt 0.263218999 0.380483985
vt 0.203952998 0.321265996
vt 0.179668993 0.299072027
vt 0.235625997 0.375804007
vt 0.146193996 0.296365023
vt 0.235625997 0.375804007
vt 0.179668993 0.299072027
vt 0.263218999 0.380483985
vt 0.203952998 0.321265996
vt 0.263218999 0.380483985
vt 0.179668993 0.299072027
vt 0.132737994 0.208414018
vt 0.139124006 0.128910005
vt 0.153439999 0.110207975
vt 0.139124006 0.128910005
vt 0.132737994 0.208414018
vt 0.097488999 0.218639970
vt 0.130790994 0.065918982
vt 0.153439999 0.110207975
vt 0.139124006 0.128910005
vt 0.153439999 0.110207975
vt 0.130790994 0.065918982
vt 0.163342997 0.059368014
vt 0.238591999 0.312813997
vt 0.298171014 0.270264030
vt 0.298626006 0.324665010
vt 0.298171014 0.270264030
vt 0.238591999 0.312813997
vt 0.237657994 0.261389971
vt 0.241968006 0.216840029
vt 0.190157995 0.211098015
vt 0.212077007 0.185289025
vt 0.190157995 0.211098015
vt 0.241968006 0.216840029
vt 0.237657994 0.261389971
vt 0.159139007 0.230387986
vt 0.190157995 0.211098015
vt 0.199494004 0.264167011
vt 0.190157995 0.211098015
vt 0.159139007 0.230387986
vt 0.132737994 0.208414018
vt 0.131629005 0.231251001
vt 0.132737994 0.208414018
vt 0.159139007 0.230387986
vt 0.132737994 0.208414018
vt 0.131629005 0.231251001
vt 0.097488999 0.218639970
vt 0.139124006 0.128910005
vt 0.110794000 0.102204978
vt 0.130790994 0.065918982
vt 0.110794000 0.102204978
vt 0.139124006 0.128910005
vt 0.110816002 0.160995007
vt 0.130790994 0.065918982
vt 0.070404001 0.054355979
vt 0.101453997 0.016242981
vt 0.070404001 0.054355979
vt 0.130790994 0.065918982
vt 0.110794000 0.102204978
vt 0.146193996 0.296365023
vt 0.127875000 0.244826019
vt 0.131629005 0.231251001
vt 0.127875000 0.244826019
vt 0.146193996 0.296365023
vt 0.143608004 0.302091956
vt 0.235625997 0.375804007
vt 0.143608004 0.302091956
vt 0.146193996 0.296365023
vt 0.097488999 0.218639970
vt 0.110816002 0.160995007
vt 0.139124006 0.128910005
vt 0.110816002 0.160995007
vt 0.097488999 0.218639970
vt 0.103749000 0.220232964
vt 0.131629005 0.231251001
vt 0.103749000 0.220232964
vt 0.097488999 0.218639970
vt 0.103749000 0.220232964
vt 0.131629005 0.231251001
vt 0.127875000 0.244826019
vt 0.110816002 0.160995007
vt 0.062576003 0.175248981
vt 0.110794000 0.102204978
vt 0.062576003 0.175248981
vt 0.110816002 0.160995007
vt 0.066363998 0.204941988
vt 0.110794000 0.102204978
vt 0.020341000 0.135594010
vt 0.070404001 0.054355979
vt 0.020341000 0.135594010
vt 0.110794000 0.102204978
vt 0.062576003 0.175248981
vt 0.143608004 0.302091956
vt 0.096699998 0.281803966
vt 0.127875000 0.244826019
vt 0.096699998 0.281803966
vt 0.143608004 0.302091956
vt 0.136298999 0.332224965
vt 0.235625997 0.375804007
vt 0.136298999 0.332224965
vt 0.143608004 0.302091956
vt 0.136298999 0.332224965
vt 0.235625997 0.375804007
vt 0.222844005 0.382516980
vt 0.103749000 0.220232964
vt 0.066363998 0.204941988
vt 0.110816002 0.160995007
vt 0.066363998 0.204941988
vt 0.103749000 0.220232964
vt 0.074534997 0.243723989
vt 0.127875000 0.244826019
vt 0.074534997 0.243723989
vt 0.103749000 0.220232964
vt 0.074534997 0.243723989
vt 0.127875000 0.244826019
vt 0.096699998 0.281803966
vt 0.297771007 0.074699998
vt 0.238821000 0.163273990
vt 0.220088005 0.112595975
vt 0.238821000 0.163273990
vt 0.297771007 0.074699998
vt 0.297951013 0.159473002
vt 0.149899006 0.003461003
vt 0.202781007 0.011348009
vt 0.163342997 0.059368014
vt 0.432211995 0.058580995
vt 0.372478992 0.014337003
vt 0.392509013 0.010766983
vt 0.372478992 0.014337003
vt 0.432211995 0.058580995
vt 0.375708014 0.112082005
vt 0.384065986 0.184598982
vt 0.463613987 0.207252026
vt 0.406327993 0.210209012
vt 0.463613987 0.207252026
vt 0.384065986 0.184598982
vt 0.442465007 0.109296978
vt 0.298171014 0.270264030
vt 0.354142994 0.216152012
vt 0.360338986 0.260125995
vt 0.354142994 0.216152012
vt 0.298171014 0.270264030
vt 0.298016995 0.225439012
vt 0.375708014 0.112082005
vt 0.384065986 0.184598982
vt 0.357156008 0.162775993
vt 0.384065986 0.184598982
vt 0.375708014 0.112082005
vt 0.442465007 0.109296978
vt 0.354142994 0.216152012
vt 0.297951013 0.159473002
vt 0.357156008 0.162775993
vt 0.297951013 0.159473002
vt 0.354142994 0.216152012
vt 0.298016995 0.225439012
vt 0.442465007 0.109296978
vt 0.375708014 0.112082005
vt 0.432211995 0.058580995
vt 0.397056013 0.263381958
vt 0.360338986 0.260125995
vt 0.406327993 0.210209012
vt 0.360338986 0.260125995
vt 0.397056013 0.263381958
vt 0.358190000 0.311708987
vt 0.357156008 0.162775993
vt 0.384065986 0.184598982
vt 0.354142994 0.216152012
vt 0.464798003 0.064925015
vt 0.445365012 0.002596021
vt 0.493891001 0.015111983
vt 0.445365012 0.002596021
vt 0.464798003 0.064925015
vt 0.432211995 0.058580995
vt 0.375708014 0.112082005
vt 0.297771007 0.074699998
vt 0.372478992 0.014337003
vt 0.298626006 0.324665010
vt 0.349505991 0.349341989
vt 0.299187005 0.360895991
vt 0.349505991 0.349341989
vt 0.298626006 0.324665010
vt 0.358190000 0.311708987
vt 0.358190000 0.311708987
vt 0.391932994 0.320119023
vt 0.349505991 0.349341989
vt 0.391932994 0.320119023
vt 0.358190000 0.311708987
vt 0.397056013 0.263381958
vt 0.437283009 0.229294002
vt 0.450309008 0.295001984
vt 0.416417003 0.297721982
vt 0.450309008 0.295001984
vt 0.437283009 0.229294002
vt 0.464796990 0.230054975
vt 0.397056013 0.263381958
vt 0.416417003 0.297721982
vt 0.391932994 0.320119023
vt 0.416417003 0.297721982
vt 0.397056013 0.263381958
vt 0.437283009 0.229294002
vt 0.299187005 0.360895991
vt 0.335083991 0.380952001
vt 0.299071014 0.385213017
vt 0.335083991 0.380952001
vt 0.299187005 0.360895991
vt 0.349505991 0.349341989
vt 0.349505991 0.349341989
vt 0.391932994 0.320119023
vt 0.335083991 0.380952001
vt 0.416417003 0.297721982
vt 0.362291992 0.376278996
vt 0.335083991 0.380952001
vt 0.362291992 0.376278996
vt 0.416417003 0.297721982
vt 0.450309008 0.295001984
vt 0.391932994 0.320119023
vt 0.416417003 0.297721982
vt 0.335083991 0.380952001
vt 0.456730008 0.127893984
vt 0.463613987 0.207252026
vt 0.442465007 0.109296978
vt 0.463613987 0.207252026
vt 0.456730008 0.127893984
vt 0.498899996 0.217360020
vt 0.464798003 0.064925015
vt 0.456730008 0.127893984
vt 0.442465007 0.109296978
vt 0.442465007 0.109296978
vt 0.432211995 0.058580995
vt 0.464798003 0.064925015
vt 0.358190000 0.311708987
vt 0.298171014 0.270264030
vt 0.360338986 0.260125995
vt 0.298171014 0.270264030
vt 0.358190000 0.311708987
vt 0.298626006 0.324665010
vt 0.354142994 0.216152012
vt 0.406327993 0.210209012
vt 0.360338986 0.260125995
vt 0.406327993 0.210209012
vt 0.354142994 0.216152012
vt 0.384065986 0.184598982
vt 0.437283009 0.229294002
vt 0.406327993 0.210209012
vt 0.463613987 0.207252026
vt 0.406327993 0.210209012
vt 0.437283009 0.229294002
vt 0.397056013 0.263381958
vt 0.464796990 0.230054975
vt 0.463613987 0.207252026
vt 0.498899996 0.217360020
vt 0.463613987 0.207252026
vt 0.464796990 0.230054975
vt 0.437283009 0.229294002
vt 0.456730008 0.127893984
vt 0.484988004 0.101098001
vt 0.485228002 0.159850001
vt 0.484988004 0.101098001
vt 0.456730008 0.127893984
vt 0.464798003 0.064925015
vt 0.464798003 0.064925015
vt 0.525147974 0.053066969
vt 0.484988004 0.101098001
vt 0.525147974 0.053066969
vt 0.464798003 0.064925015
vt 0.493891001 0.015111983
vt 0.450309008 0.295001984
vt 0.468618006 0.243659973
vt 0.453106999 0.300978005
vt 0.468618006 0.243659973
vt 0.450309008 0.295001984
vt 0.464796990 0.230054975
vt 0.362291992 0.376278996
vt 0.450309008 0.295001984
vt 0.453106999 0.300978005
vt 0.498899996 0.217360020
vt 0.485228002 0.159850001
vt 0.492624015 0.219004035
vt 0.485228002 0.159850001
vt 0.498899996 0.217360020
vt 0.456730008 0.127893984
vt 0.464796990 0.230054975
vt 0.492624015 0.219004035
vt 0.468618006 0.243659973
vt 0.492624015 0.219004035
vt 0.464796990 0.230054975
vt 0.498899996 0.217360020
vt 0.485228002 0.159850001
vt 0.533538997 0.173916996
vt 0.529895008 0.203599989
vt 0.533538997 0.173916996
vt 0.485228002 0.159850001
vt 0.484988004 0.101098001
vt 0.484988004 0.101098001
vt 0.575591981 0.134073973
vt 0.533538997 0.173916996
vt 0.575591981 0.134073973
vt 0.484988004 0.101098001
vt 0.525147974 0.053066969
vt 0.453106999 0.300978005
vt 0.499971002 0.280539989
vt 0.460763007 0.331212997
vt 0.499971002 0.280539989
vt 0.453106999 0.300978005
vt 0.468618006 0.243659973
vt 0.362291992 0.376278996
vt 0.460763007 0.331212997
vt 0.374909997 0.382735014
vt 0.460763007 0.331212997
vt 0.362291992 0.376278996
vt 0.453106999 0.300978005
vt 0.492624015 0.219004035
vt 0.529895008 0.203599989
vt 0.521929979 0.242380977
vt 0.529895008 0.203599989
vt 0.492624015 0.219004035
vt 0.485228002 0.159850001
vt 0.468618006 0.243659973
vt 0.521929979 0.242380977
vt 0.499971002 0.280539989
vt 0.521929979 0.242380977
vt 0.468618006 0.243659973
vt 0.492624015 0.219004035
vt 0.297771007 0.074699998
vt 0.357156008 0.162775993
vt 0.297951013 0.159473002
vt 0.357156008 0.162775993
vt 0.297771007 0.074699998
vt 0.375708014 0.112082005
vt 0.445365012 0.002596021
vt 0.432211995 0.058580995
vt 0.392509013 0.010766983
vt 0.299071014 0.385213017
vt 0.269391000 0.395680010
vt 0.263218999 0.380483985
vt 0.269391000 0.395680010
vt 0.299071014 0.385213017
vt 0.298970997 0.398939967
vt 0.263218999 0.380483985
vt 0.247292995 0.393938005
vt 0.235625997 0.375804007
vt 0.247292995 0.393938005
vt 0.263218999 0.380483985
vt 0.269391000 0.395680010
vt 0.235625997 0.375804007
vt 0.232977003 0.395280957
vt 0.222844005 0.382516980
vt 0.232977003 0.395280957
vt 0.235625997 0.375804007
vt 0.247292995 0.393938005
vt 0.374909997 0.382735014
vt 0.350629002 0.394439995
vt 0.362291992 0.376278996
vt 0.350629002 0.394439995
vt 0.374909997 0.382735014
vt 0.364639014 0.395828009
vt 0.362291992 0.376278996
vt 0.328543007 0.396049976
vt 0.335083991 0.380952001
vt 0.328543007 0.396049976
vt 0.362291992 0.376278996
vt 0.350629002 0.394439995
vt 0.335083991 0.380952001
vt 0.298970997 0.398939967
vt 0.299071014 0.385213017
vt 0.298970997 0.398939967
vt 0.335083991 0.380952001
vt 0.328543007 0.396049976
vt 0.298970997 0.398939967
vt 0.276257008 0.417158961
vt 0.269391000 0.395680010
vt 0.276257008 0.417158961
vt 0.298970997 0.398939967
vt 0.298808992 0.418444991
vt 0.269391000 0.395680010
vt 0.276257008 0.417158961
vt 0.262432009 0.418080986
vt 0.269391000 0.395680010
vt 0.248041004 0.418350995
vt 0.247292995 0.393938005
vt 0.248041004 0.418350995
vt 0.269391000 0.395680010
vt 0.262432009 0.418080986
vt 0.247292995 0.393938005
vt 0.226924002 0.417912006
vt 0.232977003 0.395280957
vt 0.226924002 0.417912006
vt 0.247292995 0.393938005
vt 0.248041004 0.418350995
vt 0.364639014 0.395828009
vt 0.349640012 0.418869972
vt 0.350629002 0.394439995
vt 0.349640012 0.418869972
vt 0.364639014 0.395828009
vt 0.370317012 0.418796003
vt 0.350629002 0.394439995
vt 0.335134000 0.418537021
vt 0.328543007 0.396049976
vt 0.335134000 0.418537021
vt 0.350629002 0.394439995
vt 0.349640012 0.418869972
vt 0.328543007 0.396049976
vt 0.335134000 0.418537021
vt 0.321341991 0.417441010
vt 0.328543007 0.396049976
vt 0.298808992 0.418444991
vt 0.298970997 0.398939967
vt 0.298808992 0.418444991
vt 0.328543007 0.396049976
vt 0.321341991 0.417441010
vt 0.298808992 0.418444991
vt 0.274832010 0.488086998
vt 0.276257008 0.417158961
vt 0.274832010 0.488086998
vt 0.298808992 0.418444991
vt 0.298361003 0.489840031
vt 0.276257008 0.417158961
vt 0.261691988 0.489627004
vt 0.262432009 0.418080986
vt 0.261691988 0.489627004
vt 0.276257008 0.417158961
vt 0.274832010 0.488086998
vt 0.262432009 0.418080986
vt 0.245046005 0.490584970
vt 0.248041004 0.418350995
vt 0.245046005 0.490584970
vt 0.262432009 0.418080986
vt 0.261691988 0.489627004
vt 0.248041004 0.418350995
vt 0.220255002 0.493229032
vt 0.226924002 0.417912006
vt 0.220255002 0.493229032
vt 0.248041004 0.418350995
vt 0.245046005 0.490584970
vt 0.370317012 0.418796003
vt 0.351848006 0.491286039
vt 0.349640012 0.418869972
vt 0.351848006 0.491286039
vt 0.370317012 0.418796003
vt 0.375995010 0.494289994
vt 0.349640012 0.418869972
vt 0.335085005 0.490090966
vt 0.335134000 0.418537021
vt 0.335085005 0.490090966
vt 0.349640012 0.418869972
vt 0.351848006 0.491286039
vt 0.335134000 0.418537021
vt 0.321951002 0.488389969
vt 0.321341991 0.417441010
vt 0.321951002 0.488389969
vt 0.335134000 0.418537021
vt 0.335085005 0.490090966
vt 0.321341991 0.417441010
vt 0.298361003 0.489840031
vt 0.298808992 0.418444991
vt 0.298361003 0.489840031
vt 0.321341991 0.417441010
vt 0.321951002 0.488389969
vt 0.298361003 0.489840031
vt 0.279110998 0.557170987
vt 0.274832010 0.488086998
vt 0.279110998 0.557170987
vt 0.298361003 0.489840031
vt 0.297987014 0.557582974
vt 0.274832010 0.488086998
vt 0.267251015 0.559674025
vt 0.261691988 0.489627004
vt 0.267251015 0.559674025
vt 0.274832010 0.488086998
vt 0.279110998 0.557170987
vt 0.261691988 0.489627004
vt 0.252090007 0.561896980
vt 0.245046005 0.490584970
vt 0.252090007 0.561896980
vt 0.261691988 0.489627004
vt 0.267251015 0.559674025
vt 0.245046005 0.490584970
vt 0.233245999 0.569836020
vt 0.220255002 0.493229032
vt 0.233245999 0.569836020
vt 0.245046005 0.490584970
vt 0.252090007 0.561896980
vt 0.375995010 0.494289994
vt 0.343858004 0.562592983
vt 0.351848006 0.491286039
vt 0.343858004 0.562592983
vt 0.375995010 0.494289994
vt 0.362188011 0.570650995
vt 0.351848006 0.491286039
vt 0.328637987 0.560030997
vt 0.335085005 0.490090966
vt 0.328637987 0.560030997
vt 0.351848006 0.491286039
vt 0.343858004 0.562592983
vt 0.335085005 0.490090966
vt 0.316830009 0.557385027
vt 0.321951002 0.488389969
vt 0.316830009 0.557385027
vt 0.335085005 0.490090966
vt 0.328637987 0.560030997
vt 0.321951002 0.488389969
vt 0.297987014 0.557582974
vt 0.298361003 0.489840031
vt 0.297987014 0.557582974
vt 0.321951002 0.488389969
vt 0.316830009 0.557385027
vt 0.297987014 0.557582974
vt 0.286861986 0.636878014
vt 0.279110998 0.557170987
vt 0.286861986 0.636878014
vt 0.297987014 0.557582974
vt 0.297567993 0.637149990
vt 0.279110998 0.557170987
vt 0.286861986 0.636878014
vt 0.267251015 0.559674025
vt 0.267251015 0.559674025
vt 0.276118010 0.637996972
vt 0.252090007 0.561896980
vt 0.276118010 0.637996972
vt 0.267251015 0.559674025
vt 0.286861986 0.636878014
vt 0.252090007 0.561896980
vt 0.268886000 0.643573999
vt 0.233245999 0.569836020
vt 0.268886000 0.643573999
vt 0.252090007 0.561896980
vt 0.276118010 0.637996972
vt 0.362188011 0.570650995
vt 0.318978012 0.638338029
vt 0.343858004 0.562592983
vt 0.318978012 0.638338029
vt 0.362188011 0.570650995
vt 0.325987995 0.643836975
vt 0.343858004 0.562592983
vt 0.308272988 0.637000024
vt 0.328637987 0.560030997
vt 0.308272988 0.637000024
vt 0.343858004 0.562592983
vt 0.318978012 0.638338029
vt 0.328637987 0.560030997
vt 0.308272988 0.637000024
vt 0.316830009 0.557385027
vt 0.316830009 0.557385027
vt 0.297567993 0.637149990
vt 0.297987014 0.557582974
vt 0.297567993 0.637149990
vt 0.316830009 0.557385027
vt 0.308272988 0.637000024
vt 0.297567993 0.637149990
vt 0.297367990 0.678640008
vt 0.286861986 0.636878014
vt 0.286861986 0.636878014
vt 0.297367990 0.678640008
vt 0.276118010 0.637996972
vt 0.276118010 0.637996972
vt 0.297367990 0.678640008
vt 0.268886000 0.643573999
vt 0.325987995 0.643836975
vt 0.297367990 0.678640008
vt 0.318978012 0.638338029
vt 0.318978012 0.638338029
vt 0.297367990 0.678640008
vt 0.308272988 0.637000024
vt 0.308272988 0.637000024
vt 0.297367990 0.678640008
vt 0.297567993 0.637149990
vn -0.030318752 0.711119208 -0.702417430
vn -0.267827404 0.368679302 -0.890137098
vn 0.225288363 0.546636371 -0.806494781
vn -0.267827404 0.368679302 -0.890137098
vn -0.030318752 0.711119208 -0.702417430
vn -0.447154144 0.578845009 -0.681902945
vn 0.743463960 0.550858743 -0.379230781
vn 0.697929698 0.716071489 -0.011651581
vn 0.519296466 0.770017125 -0.370681545
vn 0.697929698 0.716071489 -0.011651581
vn 0.743463960 0.550858743 -0.379230781
vn 0.940613731 0.281842265 -0.189237274
vn 0.603554834 -0.724256389 -0.333428022
vn 0.786395051 -0.226846731 -0.574563646
vn 0.472730868 -0.548181509 -0.689943881
vn 0.786395051 -0.226846731 -0.574563646
vn 0.603554834 -0.724256389 -0.333428022
vn 0.943672916 -0.210046275 -0.255659911
vn 0.225288363 0.546636371 -0.806494781
vn 0.743463960 0.550858743 -0.379230781
vn 0.519296466 0.770017125 -0.370681545
vn 0.743463960 0.550858743 -0.379230781
vn 0.225288363 0.546636371 -0.806494781
vn 0.421019016 0.104499585 -0.901012111
vn 0.786395051 -0.226846731 -0.574563646
vn 0.265511259 -0.283341920 -0.921531946
vn 0.472730868 -0.548181509 -0.689943881
vn 0.265511259 -0.283341920 -0.921531946
vn 0.786395051 -0.226846731 -0.574563646
vn 0.421019016 0.104499585 -0.901012111
vn 0.519296466 0.770017125 -0.370681545
vn -0.030318752 0.711119208 -0.702417430
vn 0.225288363 0.546636371 -0.806494781
vn 0.995301437 0.096824735 -0.000145613
vn 0.943672916 -0.210046275 -0.255659911
vn 0.927201982 -0.374098856 -0.018615343
vn 0.943672916 -0.210046275 -0.255659911
vn 0.995301437 0.096824735 -0.000145613
vn 0.940613731 0.281842265 -0.189237274
vn 0.421019016 0.104499585 -0.901012111
vn 0.786395051 -0.226846731 -0.574563646
vn 0.743463960 0.550858743 -0.379230781
vn -0.197441520 0.946626239 0.254785421
vn -0.509204685 0.649505463 -0.564670915
vn -0.030318752 0.711119208 -0.702417430
vn -0.509204685 0.649505463 -0.564670915
vn -0.197441520 0.946626239 0.254785421
vn -0.594643477 0.711308542 0.374752308
vn 0.225288363 0.546636371 -0.806494781
vn -0.267827404 0.368679302 -0.890137098
vn -0.059528561 0.118136037 -0.991211495
vn 0.618105218 -0.785581146 0.028428907
vn 0.856486797 -0.460890808 0.232400582
vn 0.927201982 -0.374098856 -0.018615343
vn 0.856486797 -0.460890808 0.232400582
vn 0.618105218 -0.785581146 0.028428907
vn 0.567613031 -0.820948198 0.062124901
vn 0.927201982 -0.374098856 -0.018615343
vn 0.940590919 -0.133427480 0.312227210
vn 0.995301437 0.096824735 -0.000145613
vn 0.940590919 -0.133427480 0.312227210
vn 0.927201982 -0.374098856 -0.018615343
vn 0.856486797 -0.460890808 0.232400582
vn 0.772969704 0.581687676 0.253292882
vn 0.333314864 0.557002312 0.760690230
vn 0.627693119 0.411127421 0.661041294
vn 0.333314864 0.557002312 0.760690230
vn 0.772969704 0.581687676 0.253292882
vn 0.678083740 0.357215092 0.642339334
vn 0.995301437 0.096824735 -0.000145613
vn 0.678083740 0.357215092 0.642339334
vn 0.772969704 0.581687676 0.253292882
vn 0.678083740 0.357215092 0.642339334
vn 0.995301437 0.096824735 -0.000145613
vn 0.940590919 -0.133427480 0.312227210
vn 0.567613031 -0.820948198 0.062124901
vn 0.878075880 -0.183359062 0.441997968
vn 0.856486797 -0.460890808 0.232400582
vn 0.878075880 -0.183359062 0.441997968
vn 0.567613031 -0.820948198 0.062124901
vn 0.612097828 -0.714070830 -0.339763298
vn 0.856486797 -0.460890808 0.232400582
vn 0.878075880 -0.183359062 0.441997968
vn 0.940590919 -0.133427480 0.312227210
vn 0.678083740 0.357215092 0.642339334
vn 0.210494474 0.359486042 0.909099479
vn 0.333314864 0.557002312 0.760690230
vn 0.210494474 0.359486042 0.909099479
vn 0.678083740 0.357215092 0.642339334
vn 0.878075880 -0.183359062 0.441997968
vn 0.940590919 -0.133427480 0.312227210
vn 0.878075880 -0.183359062 0.441997968
vn 0.678083740 0.357215092 0.642339334
vn 0.697929698 0.716071489 -0.011651581
vn 0.075133587 0.863933711 0.497969363
vn 0.519296466 0.770017125 -0.370681545
vn 0.075133587 0.863933711 0.497969363
vn 0.697929698 0.716071489 -0.011651581
vn -0.028445877 0.689865943 0.723378057
vn -0.197441520 0.946626239 0.254785421
vn 0.519296466 0.770017125 -0.370681545
vn 0.075133587 0.863933711 0.497969363
vn 0.519296466 0.770017125 -0.370681545
vn -0.197441520 0.946626239 0.254785421
vn -0.030318752 0.711119208 -0.702417430
vn 0.927201982 -0.374098856 -0.018615343
vn 0.603554834 -0.724256389 -0.333428022
vn 0.618105218 -0.785581146 0.028428907
vn 0.603554834 -0.724256389 -0.333428022
vn 0.927201982 -0.374098856 -0.018615343
vn 0.943672916 -0.210046275 -0.255659911
vn 0.786395051 -0.226846731 -0.574563646
vn 0.940613731 0.281842265 -0.189237274
vn 0.743463960 0.550858743 -0.379230781
vn 0.940613731 0.281842265 -0.189237274
vn 0.786395051 -0.226846731 -0.574563646
vn 0.943672916 -0.210046275 -0.255659911
vn 0.772969704 0.581687676 0.253292882
vn 0.940613731 0.281842265 -0.189237274
vn 0.995301437 0.096824735 -0.000145613
vn 0.940613731 0.281842265 -0.189237274
vn 0.772969704 0.581687676 0.253292882
vn 0.697929698 0.716071489 -0.011651581
vn 0.627693119 0.411127421 0.661041294
vn 0.697929698 0.716071489 -0.011651581
vn 0.772969704 0.581687676 0.253292882
vn 0.697929698 0.716071489 -0.011651581
vn 0.627693119 0.411127421 0.661041294
vn -0.028445877 0.689865943 0.723378057
vn 0.075133587 0.863933711 0.497969363
vn -0.204205441 0.607191556 0.767866233
vn -0.197441520 0.946626239 0.254785421
vn -0.204205441 0.607191556 0.767866233
vn 0.075133587 0.863933711 0.497969363
vn -0.456142814 0.494982851 0.739544259
vn -0.197441520 0.946626239 0.254785421
vn -0.381131166 0.429516745 0.818690662
vn -0.594643477 0.711308542 0.374752308
vn -0.381131166 0.429516745 0.818690662
vn -0.197441520 0.946626239 0.254785421
vn -0.204205441 0.607191556 0.767866233
vn 0.333314864 0.557002312 0.760690230
vn -0.097268063 0.519067997 0.849180392
vn 0.627693119 0.411127421 0.661041294
vn -0.097268063 0.519067997 0.849180392
vn 0.333314864 0.557002312 0.760690230
vn -0.277311354 0.518550488 0.808828662
vn 0.210494474 0.359486042 0.909099479
vn -0.277311354 0.518550488 0.808828662
vn 0.333314864 0.557002312 0.760690230
vn -0.028445877 0.689865943 0.723378057
vn -0.456142814 0.494982851 0.739544259
vn 0.075133587 0.863933711 0.497969363
vn -0.456142814 0.494982851 0.739544259
vn -0.028445877 0.689865943 0.723378057
vn -0.373017128 0.185096269 0.909174127
vn 0.627693119 0.411127421 0.661041294
vn -0.373017128 0.185096269 0.909174127
vn -0.028445877 0.689865943 0.723378057
vn -0.373017128 0.185096269 0.909174127
vn 0.627693119 0.411127421 0.661041294
vn -0.097268063 0.519067997 0.849180392
vn -0.456142814 0.494982851 0.739544259
vn -0.128091765 0.676977540 0.724771626
vn -0.204205441 0.607191556 0.767866233
vn -0.128091765 0.676977540 0.724771626
vn -0.456142814 0.494982851 0.739544259
vn -0.314950735 0.527945508 0.788720213
vn -0.204205441 0.607191556 0.767866233
vn -0.440156225 0.505306315 0.742245260
vn -0.381131166 0.429516745 0.818690662
vn -0.440156225 0.505306315 0.742245260
vn -0.204205441 0.607191556 0.767866233
vn -0.128091765 0.676977540 0.724771626
vn -0.277311354 0.518550488 0.808828662
vn -0.326909960 0.584050846 0.742976775
vn -0.097268063 0.519067997 0.849180392
vn -0.326909960 0.584050846 0.742976775
vn -0.277311354 0.518550488 0.808828662
vn -0.169932821 0.452101375 0.875629592
vn 0.210494474 0.359486042 0.909099479
vn -0.169932821 0.452101375 0.875629592
vn -0.277311354 0.518550488 0.808828662
vn -0.169932821 0.452101375 0.875629592
vn 0.210494474 0.359486042 0.909099479
vn -0.295122004 0.390763855 0.871898281
vn -0.373017128 0.185096269 0.909174127
vn -0.314950735 0.527945508 0.788720213
vn -0.456142814 0.494982851 0.739544259
vn -0.314950735 0.527945508 0.788720213
vn -0.373017128 0.185096269 0.909174127
vn 0.025790400 0.287054154 0.957567109
vn -0.097268063 0.519067997 0.849180392
vn 0.025790400 0.287054154 0.957567109
vn -0.373017128 0.185096269 0.909174127
vn 0.025790400 0.287054154 0.957567109
vn -0.097268063 0.519067997 0.849180392
vn -0.326909960 0.584050846 0.742976775
vn -0.059528561 0.118136037 -0.991211495
vn 0.421019016 0.104499585 -0.901012111
vn 0.225288363 0.546636371 -0.806494781
vn 0.421019016 0.104499585 -0.901012111
vn -0.059528561 0.118136037 -0.991211495
vn 0.265511259 -0.283341920 -0.921531946
vn -0.509204685 0.649505463 -0.564670915
vn -0.447154144 0.578845009 -0.681902945
vn -0.030318752 0.711119208 -0.702417430
vn -0.660142450 0.196605057 -0.724954065
vn -0.267827404 0.368679302 -0.890137098
vn -0.447154144 0.578845009 -0.681902945
vn -0.267827404 0.368679302 -0.890137098
vn -0.660142450 0.196605057 -0.724954065
vn -0.545408279 -0.081880702 -0.834161471
vn -0.671516991 -0.602289660 -0.431638849
vn -0.839778177 -0.538352082 -0.070353743
vn -0.464927296 -0.851388299 -0.242859163
vn -0.839778177 -0.538352082 -0.070353743
vn -0.671516991 -0.602289660 -0.431638849
vn -0.840677660 -0.340222390 -0.421319116
vn 0.603554834 -0.724256389 -0.333428022
vn 0.090776626 -0.790779963 -0.605331855
vn 0.029106369 -0.956558505 -0.290083861
vn 0.090776626 -0.790779963 -0.605331855
vn 0.603554834 -0.724256389 -0.333428022
vn 0.472730868 -0.548181509 -0.689943881
vn -0.545408279 -0.081880702 -0.834161471
vn -0.671516991 -0.602289660 -0.431638849
vn -0.145817236 -0.358428511 -0.922098875
vn -0.671516991 -0.602289660 -0.431638849
vn -0.545408279 -0.081880702 -0.834161471
vn -0.840677660 -0.340222390 -0.421319116
vn 0.090776626 -0.790779963 -0.605331855
vn 0.265511259 -0.283341920 -0.921531946
vn -0.145817236 -0.358428511 -0.922098875
vn 0.265511259 -0.283341920 -0.921531946
vn 0.090776626 -0.790779963 -0.605331855
vn 0.472730868 -0.548181509 -0.689943881
vn -0.840677660 -0.340222390 -0.421319116
vn -0.545408279 -0.081880702 -0.834161471
vn -0.660142450 0.196605057 -0.724954065
vn -0.300137967 -0.953163784 -0.037363115
vn 0.029106369 -0.956558505 -0.290083861
vn -0.464927296 -0.851388299 -0.242859163
vn 0.029106369 -0.956558505 -0.290083861
vn -0.300137967 -0.953163784 -0.037363115
vn 0.195716510 -0.980564976 -0.013688540
vn -0.145817236 -0.358428511 -0.922098875
vn -0.671516991 -0.602289660 -0.431638849
vn 0.090776626 -0.790779963 -0.605331855
vn -0.899096175 0.373509978 0.228290090
vn -0.509204685 0.649505463 -0.564670915
vn -0.594643477 0.711308542 0.374752308
vn -0.509204685 0.649505463 -0.564670915
vn -0.899096175 0.373509978 0.228290090
vn -0.660142450 0.196605057 -0.724954065
vn -0.545408279 -0.081880702 -0.834161471
vn -0.059528561 0.118136037 -0.991211495
vn -0.267827404 0.368679302 -0.890137098
vn 0.618105218 -0.785581146 0.028428907
vn 0.275109633 -0.948074998 0.159588495
vn 0.567613031 -0.820948198 0.062124901
vn 0.275109633 -0.948074998 0.159588495
vn 0.618105218 -0.785581146 0.028428907
vn 0.195716510 -0.980564976 -0.013688540
vn 0.195716510 -0.980564976 -0.013688540
vn -0.021186347 -0.983681940 0.178664434
vn 0.275109633 -0.948074998 0.159588495
vn -0.021186347 -0.983681940 0.178664434
vn 0.195716510 -0.980564976 -0.013688540
vn -0.300137967 -0.953163784 -0.037363115
vn -0.734706772 -0.649099036 0.197170995
vn -0.677655965 -0.238684310 0.695566095
vn -0.544767108 -0.640327722 0.541487956
vn -0.677655965 -0.238684310 0.695566095
vn -0.734706772 -0.649099036 0.197170995
vn -0.557002885 -0.556016936 0.616922161
vn -0.300137967 -0.953163784 -0.037363115
vn -0.544767108 -0.640327722 0.541487956
vn -0.021186347 -0.983681940 0.178664434
vn -0.544767108 -0.640327722 0.541487956
vn -0.300137967 -0.953163784 -0.037363115
vn -0.734706772 -0.649099036 0.197170995
vn 0.567613031 -0.820948198 0.062124901
vn -0.008283714 -0.974353475 0.224870376
vn 0.612097828 -0.714070830 -0.339763298
vn -0.008283714 -0.974353475 0.224870376
vn 0.567613031 -0.820948198 0.062124901
vn 0.275109633 -0.948074998 0.159588495
vn 0.275109633 -0.948074998 0.159588495
vn -0.021186347 -0.983681940 0.178664434
vn -0.008283714 -0.974353475 0.224870376
vn -0.544767108 -0.640327722 0.541487956
vn -0.471579887 -0.134716169 0.871472297
vn -0.008283714 -0.974353475 0.224870376
vn -0.471579887 -0.134716169 0.871472297
vn -0.544767108 -0.640327722 0.541487956
vn -0.677655965 -0.238684310 0.695566095
vn -0.021186347 -0.983681940 0.178664434
vn -0.544767108 -0.640327722 0.541487956
vn -0.008283714 -0.974353475 0.224870376
vn -0.883422460 0.081610415 0.461415753
vn -0.839778177 -0.538352082 -0.070353743
vn -0.840677660 -0.340222390 -0.421319116
vn -0.839778177 -0.538352082 -0.070353743
vn -0.883422460 0.081610415 0.461415753
vn -0.701983159 0.140013611 0.698294947
vn -0.899096175 0.373509978 0.228290090
vn -0.883422460 0.081610415 0.461415753
vn -0.840677660 -0.340222390 -0.421319116
vn -0.840677660 -0.340222390 -0.421319116
vn -0.660142450 0.196605057 -0.724954065
vn -0.899096175 0.373509978 0.228290090
vn 0.195716510 -0.980564976 -0.013688540
vn 0.603554834 -0.724256389 -0.333428022
vn 0.029106369 -0.956558505 -0.290083861
vn 0.603554834 -0.724256389 -0.333428022
vn 0.195716510 -0.980564976 -0.013688540
vn 0.618105218 -0.785581146 0.028428907
vn 0.090776626 -0.790779963 -0.605331855
vn -0.464927296 -0.851388299 -0.242859163
vn 0.029106369 -0.956558505 -0.290083861
vn -0.464927296 -0.851388299 -0.242859163
vn 0.090776626 -0.790779963 -0.605331855
vn -0.671516991 -0.602289660 -0.431638849
vn -0.734706772 -0.649099036 0.197170995
vn -0.464927296 -0.851388299 -0.242859163
vn -0.839778177 -0.538352082 -0.070353743
vn -0.464927296 -0.851388299 -0.242859163
vn -0.734706772 -0.649099036 0.197170995
vn -0.300137967 -0.953163784 -0.037363115
vn -0.557002885 -0.556016936 0.616922161
vn -0.839778177 -0.538352082 -0.070353743
vn -0.701983159 0.140013611 0.698294947
vn -0.839778177 -0.538352082 -0.070353743
vn -0.557002885 -0.556016936 0.616922161
vn -0.734706772 -0.649099036 0.197170995
vn -0.883422460 0.081610415 0.461415753
vn -0.588034094 0.293842493 0.753573151
vn -0.426745620 0.518981697 0.740639031
vn -0.588034094 0.293842493 0.753573151
vn -0.883422460 0.081610415 0.461415753
vn -0.899096175 0.373509978 0.228290090
vn -0.899096175 0.373509978 0.228290090
vn -0.381131166 0.429516745 0.818690662
vn -0.588034094 0.293842493 0.753573151
vn -0.381131166 0.429516745 0.818690662
vn -0.899096175 0.373509978 0.228290090
vn -0.594643477 0.711308542 0.374752308
vn -0.677655965 -0.238684310 0.695566095
vn -0.526692926 0.168498843 0.833188275
vn -0.492909329 0.371770048 0.786655849
vn -0.526692926 0.168498843 0.833188275
vn -0.677655965 -0.238684310 0.695566095
vn -0.557002885 -0.556016936 0.616922161
vn -0.471579887 -0.134716169 0.871472297
vn -0.677655965 -0.238684310 0.695566095
vn -0.492909329 0.371770048 0.786655849
vn -0.701983159 0.140013611 0.698294947
vn -0.426745620 0.518981697 0.740639031
vn -0.147512646 0.369190340 0.917572074
vn -0.426745620 0.518981697 0.740639031
vn -0.701983159 0.140013611 0.698294947
vn -0.883422460 0.081610415 0.461415753
vn -0.557002885 -0.556016936 0.616922161
vn -0.147512646 0.369190340 0.917572074
vn -0.526692926 0.168498843 0.833188275
vn -0.147512646 0.369190340 0.917572074
vn -0.557002885 -0.556016936 0.616922161
vn -0.701983159 0.140013611 0.698294947
vn -0.426745620 0.518981697 0.740639031
vn -0.669587070 0.234915757 0.704604671
vn -0.489329832 0.385588499 0.782226198
vn -0.669587070 0.234915757 0.704604671
vn -0.426745620 0.518981697 0.740639031
vn -0.588034094 0.293842493 0.753573151
vn -0.588034094 0.293842493 0.753573151
vn -0.440156225 0.505306315 0.742245260
vn -0.669587070 0.234915757 0.704604671
vn -0.440156225 0.505306315 0.742245260
vn -0.588034094 0.293842493 0.753573151
vn -0.381131166 0.429516745 0.818690662
vn -0.492909329 0.371770048 0.786655849
vn -0.539828304 0.410238179 0.735044243
vn -0.455149741 0.290223266 0.841789267
vn -0.539828304 0.410238179 0.735044243
vn -0.492909329 0.371770048 0.786655849
vn -0.526692926 0.168498843 0.833188275
vn -0.471579887 -0.134716169 0.871472297
vn -0.455149741 0.290223266 0.841789267
vn -0.295122004 0.390763855 0.871898281
vn -0.455149741 0.290223266 0.841789267
vn -0.471579887 -0.134716169 0.871472297
vn -0.492909329 0.371770048 0.786655849
vn -0.147512646 0.369190340 0.917572074
vn -0.489329832 0.385588499 0.782226198
vn -0.328910546 -0.002511263 0.944357743
vn -0.489329832 0.385588499 0.782226198
vn -0.147512646 0.369190340 0.917572074
vn -0.426745620 0.518981697 0.740639031
vn -0.526692926 0.168498843 0.833188275
vn -0.328910546 -0.002511263 0.944357743
vn -0.539828304 0.410238179 0.735044243
vn -0.328910546 -0.002511263 0.944357743
vn -0.526692926 0.168498843 0.833188275
vn -0.147512646 0.369190340 0.917572074
vn -0.059528561 0.118136037 -0.991211495
vn -0.145817236 -0.358428511 -0.922098875
vn 0.265511259 -0.283341920 -0.921531946
vn -0.145817236 -0.358428511 -0.922098875
vn -0.059528561 0.118136037 -0.991211495
vn -0.545408279 -0.081880702 -0.834161471
vn -0.509204685 0.649505463 -0.564670915
vn -0.660142450 0.196605057 -0.724954065
vn -0.447154144 0.578845009 -0.681902945
vn 0.612097828 -0.714070830 -0.339763298
vn 0.812161379 0.394877956 -0.429494231
vn 0.878075880 -0.183359062 0.441997968
vn 0.812161379 0.394877956 -0.429494231
vn 0.612097828 -0.714070830 -0.339763298
vn 0.521759642 -0.647216616 -0.555767513
vn 0.878075880 -0.183359062 0.441997968
vn 0.086627743 0.993991750 -0.066903172
vn 0.210494474 0.359486042 0.909099479
vn 0.086627743 0.993991750 -0.066903172
vn 0.878075880 -0.183359062 0.441997968
vn 0.812161379 0.394877956 -0.429494231
vn 0.210494474 0.359486042 0.909099479
vn -0.652202234 0.752947083 0.087766378
vn -0.295122004 0.390763855 0.871898281
vn -0.652202234 0.752947083 0.087766378
vn 0.210494474 0.359486042 0.909099479
vn 0.086627743 0.993991750 -0.066903172
vn -0.295122004 0.390763855 0.871898281
vn -0.995172391 0.071301648 -0.067438770
vn -0.471579887 -0.134716169 0.871472297
vn -0.995172391 0.071301648 -0.067438770
vn -0.295122004 0.390763855 0.871898281
vn -0.652202234 0.752947083 0.087766378
vn -0.471579887 -0.134716169 0.871472297
vn -0.498190221 -0.737834457 -0.455419387
vn -0.008283714 -0.974353475 0.224870376
vn -0.498190221 -0.737834457 -0.455419387
vn -0.471579887 -0.134716169 0.871472297
vn -0.995172391 0.071301648 -0.067438770
vn -0.008283714 -0.974353475 0.224870376
vn 0.521759642 -0.647216616 -0.555767513
vn 0.612097828 -0.714070830 -0.339763298
vn 0.521759642 -0.647216616 -0.555767513
vn -0.008283714 -0.974353475 0.224870376
vn -0.498190221 -0.737834457 -0.455419387
vn 0.521759642 -0.647216616 -0.555767513
vn 0.943632578 -0.070417919 -0.323417493
vn 0.812161379 0.394877956 -0.429494231
vn 0.943632578 -0.070417919 -0.323417493
vn 0.521759642 -0.647216616 -0.555767513
vn 0.499290590 -0.648826518 -0.574223873
vn 0.812161379 0.394877956 -0.429494231
vn 0.943632578 -0.070417919 -0.323417493
vn 0.823875841 0.566723635 0.007274672
vn 0.812161379 0.394877956 -0.429494231
vn 0.149747949 0.953453841 0.261727578
vn 0.086627743 0.993991750 -0.066903172
vn 0.149747949 0.953453841 0.261727578
vn 0.812161379 0.394877956 -0.429494231
vn 0.823875841 0.566723635 0.007274672
vn 0.086627743 0.993991750 -0.066903172
vn -0.585824519 0.772198337 0.246006833
vn -0.652202234 0.752947083 0.087766378
vn -0.585824519 0.772198337 0.246006833
vn 0.086627743 0.993991750 -0.066903172
vn 0.149747949 0.953453841 0.261727578
vn -0.652202234 0.752947083 0.087766378
vn -0.977379376 0.211248591 -0.010177826
vn -0.995172391 0.071301648 -0.067438770
vn -0.977379376 0.211248591 -0.010177826
vn -0.652202234 0.752947083 0.087766378
vn -0.585824519 0.772198337 0.246006833
vn -0.995172391 0.071301648 -0.067438770
vn -0.855830835 -0.400729241 -0.327062162
vn -0.498190221 -0.737834457 -0.455419387
vn -0.855830835 -0.400729241 -0.327062162
vn -0.995172391 0.071301648 -0.067438770
vn -0.977379376 0.211248591 -0.010177826
vn -0.498190221 -0.737834457 -0.455419387
vn -0.855830835 -0.400729241 -0.327062162
vn -0.224813966 -0.792756305 -0.566565196
vn -0.498190221 -0.737834457 -0.455419387
vn 0.499290590 -0.648826518 -0.574223873
vn 0.521759642 -0.647216616 -0.555767513
vn 0.499290590 -0.648826518 -0.574223873
vn -0.498190221 -0.737834457 -0.455419387
vn -0.224813966 -0.792756305 -0.566565196
vn 0.499290590 -0.648826518 -0.574223873
vn 0.920347966 -0.279575432 -0.273490767
vn 0.943632578 -0.070417919 -0.323417493
vn 0.920347966 -0.279575432 -0.273490767
vn 0.499290590 -0.648826518 -0.574223873
vn 0.396333628 -0.780559293 -0.483370299
vn 0.943632578 -0.070417919 -0.323417493
vn 0.929057652 0.361101635 0.080358498
vn 0.823875841 0.566723635 0.007274672
vn 0.929057652 0.361101635 0.080358498
vn 0.943632578 -0.070417919 -0.323417493
vn 0.920347966 -0.279575432 -0.273490767
vn 0.823875841 0.566723635 0.007274672
vn 0.382491488 0.845002880 0.373725024
vn 0.149747949 0.953453841 0.261727578
vn 0.382491488 0.845002880 0.373725024
vn 0.823875841 0.566723635 0.007274672
vn 0.929057652 0.361101635 0.080358498
vn 0.149747949 0.953453841 0.261727578
vn -0.403433189 0.806283783 0.432606199
vn -0.585824519 0.772198337 0.246006833
vn -0.403433189 0.806283783 0.432606199
vn 0.149747949 0.953453841 0.261727578
vn 0.382491488 0.845002880 0.373725024
vn -0.585824519 0.772198337 0.246006833
vn -0.928714848 0.280941239 0.241993288
vn -0.977379376 0.211248591 -0.010177826
vn -0.928714848 0.280941239 0.241993288
vn -0.585824519 0.772198337 0.246006833
vn -0.403433189 0.806283783 0.432606199
vn -0.977379376 0.211248591 -0.010177826
vn -0.918212966 -0.386357066 -0.087253466
vn -0.855830835 -0.400729241 -0.327062162
vn -0.918212966 -0.386357066 -0.087253466
vn -0.977379376 0.211248591 -0.010177826
vn -0.928714848 0.280941239 0.241993288
vn -0.855830835 -0.400729241 -0.327062162
vn -0.389353729 -0.832694290 -0.393730737
vn -0.224813966 -0.792756305 -0.566565196
vn -0.389353729 -0.832694290 -0.393730737
vn -0.855830835 -0.400729241 -0.327062162
vn -0.918212966 -0.386357066 -0.087253466
vn -0.224813966 -0.792756305 -0.566565196
vn 0.396333628 -0.780559293 -0.483370299
vn 0.499290590 -0.648826518 -0.574223873
vn 0.396333628 -0.780559293 -0.483370299
vn -0.224813966 -0.792756305 -0.566565196
vn -0.389353729 -0.832694290 -0.393730737
vn 0.396333628 -0.780559293 -0.483370299
vn 0.889859304 -0.433215161 -0.143091034
vn 0.920347966 -0.279575432 -0.273490767
vn 0.889859304 -0.433215161 -0.143091034
vn 0.396333628 -0.780559293 -0.483370299
vn 0.290785596 -0.914524903 -0.281225781
vn 0.920347966 -0.279575432 -0.273490767
vn 0.975621334 0.146923712 0.163022809
vn 0.929057652 0.361101635 0.080358498
vn 0.975621334 0.146923712 0.163022809
vn 0.920347966 -0.279575432 -0.273490767
vn 0.889859304 -0.433215161 -0.143091034
vn 0.929057652 0.361101635 0.080358498
vn 0.600303731 0.652727501 0.462149586
vn 0.382491488 0.845002880 0.373725024
vn 0.600303731 0.652727501 0.462149586
vn 0.929057652 0.361101635 0.080358498
vn 0.975621334 0.146923712 0.163022809
vn 0.382491488 0.845002880 0.373725024
vn -0.184242214 0.790657512 0.583879701
vn -0.403433189 0.806283783 0.432606199
vn -0.184242214 0.790657512 0.583879701
vn 0.382491488 0.845002880 0.373725024
vn 0.600303731 0.652727501 0.462149586
vn -0.403433189 0.806283783 0.432606199
vn -0.859216772 0.299598848 0.414713237
vn -0.928714848 0.280941239 0.241993288
vn -0.859216772 0.299598848 0.414713237
vn -0.403433189 0.806283783 0.432606199
vn -0.184242214 0.790657512 0.583879701
vn -0.928714848 0.280941239 0.241993288
vn -0.933284840 -0.338580288 0.119761415
vn -0.918212966 -0.386357066 -0.087253466
vn -0.933284840 -0.338580288 0.119761415
vn -0.928714848 0.280941239 0.241993288
vn -0.859216772 0.299598848 0.414713237
vn -0.918212966 -0.386357066 -0.087253466
vn -0.500537252 -0.852547905 -0.150414522
vn -0.389353729 -0.832694290 -0.393730737
vn -0.500537252 -0.852547905 -0.150414522
vn -0.918212966 -0.386357066 -0.087253466
vn -0.933284840 -0.338580288 0.119761415
vn -0.389353729 -0.832694290 -0.393730737
vn 0.290785596 -0.914524903 -0.281225781
vn 0.396333628 -0.780559293 -0.483370299
vn 0.290785596 -0.914524903 -0.281225781
vn -0.389353729 -0.832694290 -0.393730737
vn -0.500537252 -0.852547905 -0.150414522
vn 0.290785596 -0.914524903 -0.281225781
vn 0.929819270 -0.367603537 0.017428822
vn 0.889859304 -0.433215161 -0.143091034
vn 0.929819270 -0.367603537 0.017428822
vn 0.290785596 -0.914524903 -0.281225781
vn 0.082344416 -0.988515076 -0.126717564
vn 0.889859304 -0.433215161 -0.143091034
vn 0.929819270 -0.367603537 0.017428822
vn 0.975621334 0.146923712 0.163022809
vn 0.975621334 0.146923712 0.163022809
vn 0.798317079 0.440479711 0.410691447
vn 0.600303731 0.652727501 0.462149586
vn 0.798317079 0.440479711 0.410691447
vn 0.975621334 0.146923712 0.163022809
vn 0.929819270 -0.367603537 0.017428822
vn 0.600303731 0.652727501 0.462149586
vn 0.057788517 0.742973048 0.666821969
vn -0.184242214 0.790657512 0.583879701
vn 0.057788517 0.742973048 0.666821969
vn 0.600303731 0.652727501 0.462149586
vn 0.798317079 0.440479711 0.410691447
vn -0.184242214 0.790657512 0.583879701
vn -0.704790575 0.351508838 0.616207581
vn -0.859216772 0.299598848 0.414713237
vn -0.704790575 0.351508838 0.616207581
vn -0.184242214 0.790657512 0.583879701
vn 0.057788517 0.742973048 0.666821969
vn -0.859216772 0.299598848 0.414713237
vn -0.796361999 -0.581221665 0.167298960
vn -0.933284840 -0.338580288 0.119761415
vn -0.796361999 -0.581221665 0.167298960
vn -0.859216772 0.299598848 0.414713237
vn -0.704790575 0.351508838 0.616207581
vn -0.933284840 -0.338580288 0.119761415
vn -0.796361999 -0.581221665 0.167298960
vn -0.500537252 -0.852547905 -0.150414522
vn -0.500537252 -0.852547905 -0.150414522
vn 0.082344416 -0.988515076 -0.126717564
vn 0.290785596 -0.914524903 -0.281225781
vn 0.082344416 -0.988515076 -0.126717564
vn -0.500537252 -0.852547905 -0.150414522
vn -0.796361999 -0.581221665 0.167298960
vn 0.082344416 -0.988515076 -0.126717564
vn 0.298979277 -0.281472533 0.911802942
vn 0.929819270 -0.367603537 0.017428822
vn 0.929819270 -0.367603537 0.017428822
vn 0.298979277 -0.281472533 0.911802942
vn 0.798317079 0.440479711 0.410691447
vn 0.798317079 0.440479711 0.410691447
vn 0.298979277 -0.281472533 0.911802942
vn 0.057788517 0.742973048 0.666821969
vn 0.057788517 0.742973048 0.666821969
vn 0.298979277 -0.281472533 0.911802942
vn -0.704790575 0.351508838 0.616207581
vn -0.704790575 0.351508838 0.616207581
vn 0.298979277 -0.281472533 0.911802942
vn -0.796361999 -0.581221665 0.167298960
vn -0.796361999 -0.581221665 0.167298960
vn 0.298979277 -0.281472533 0.911802942
vn 0.082344416 -0.988515076 -0.126717564
f 3/3/3 2/2/2 1/1/1
f 6/6/6 5/5/5 4/4/4
f 9/9/9 8/8/8 7/7/7
f 12/12/12 11/11/11 10/10/10
f 15/15/15 14/14/14 13/13/13
f 18/18/18 17/17/17 16/16/16
f 21/21/21 20/20/20 19/19/19
f 24/24/24 23/23/23 22/22/22
f 27/27/27 26/26/26 25/25/25
f 30/30/30 29/29/29 28/28/28
f 33/33/33 32/32/32 31/31/31
f 36/36/36 35/35/35 34/34/34
f 39/39/39 38/38/38 37/37/37
f 42/42/42 41/41/41 40/40/40
f 45/45/45 44/44/44 43/43/43
f 48/48/48 47/47/47 46/46/46
f 51/51/51 50/50/50 49/49/49
f 54/54/54 53/53/53 52/52/52
f 57/57/57 56/56/56 55/55/55
f 60/60/60 59/59/59 58/58/58
f 63/63/63 62/62/62 61/61/61
f 66/66/66 65/65/65 64/64/64
f 69/69/69 68/68/68 67/67/67
f 72/72/72 71/71/71 70/70/70
f 75/75/75 74/74/74 73/73/73
f 78/78/78 77/77/77 76/76/76
f 81/81/81 80/80/80 79/79/79
f 84/84/84 83/83/83 82/82/82
f 87/87/87 86/86/86 85/85/85
f 90/90/90 89/89/89 88/88/88
f 93/93/93 92/92/92 91/91/91
f 96/96/96 95/95/95 94/94/94
f 99/99/99 98/98/98 97/97/97
f 102/102/102 101/101/101 100/100/100
f 105/105/105 104/104/104 103/103/103
f 108/108/108 107/107/107 106/106/106
f 111/111/111 110/110/110 109/109/109
f 114/114/114 113/113/113 112/112/112
f 117/117/117 116/116/116 115/115/115
f 120/120/120 119/119/119 118/118/118
f 123/123/123 122/122/122 121/121/121
f 126/126/126 125/125/125 124/124/124
f 129/129/129 128/128/128 127/127/127
f 132/132/132 131/131/131 130/130/130
f 135/135/135 134/134/134 133/133/133
f 138/138/138 137/137/137 136/136/136
f 141/141/141 140/140/140 139/139/139
f 144/144/144 143/143/143 142/142/142
f 147/147/147 146/146/146 145/145/145
f 150/150/150 149/149/149 148/148/148
f 153/153/153 152/152/152 151/151/151
f 156/156/156 155/155/155 154/154/154
f 159/159/159 158/158/158 157/157/157
f 162/162/162 161/161/161 160/160/160
f 165/165/165 164/164/164 163/163/163
f 168/168/168 167/167/167 166/166/166
f 171/171/171 170/170/170 169/169/169
f 174/174/174 173/173/173 172/172/172
f 177/177/177 176/176/176 175/175/175
f 180/180/180 179/179/179 178/178/178
f 183/183/183 182/182/182 181/181/181
f 186/186/186 185/185/185 184/184/184
f 189/189/189 188/188/188 187/187/187
f 192/192/192 191/191/191 190/190/190
f 195/195/195 194/194/194 193/193/193
f 198/198/198 197/197/197 196/196/196
f 201/201/201 200/200/200 199/199/199
f 204/204/204 203/203/203 202/202/202
f 207/207/207 206/206/206 205/205/205
f 210/210/210 209/209/209 208/208/208
f 213/213/213 212/212/212 211/211/211
f 216/216/216 215/215/215 214/214/214
f 219/219/219 218/218/218 217/217/217
f 222/222/222 221/221/221 220/220/220
f 225/225/225 224/224/224 223/223/223
f 228/228/228 227/227/227 226/226/226
f 231/231/231 230/230/230 229/229/229
f 234/234/234 233/233/233 232/232/232
f 237/237/237 236/236/236 235/235/235
f 240/240/240 239/239/239 238/238/238
f 243/243/243 242/242/242 241/241/241
f 246/246/246 245/245/245 244/244/244
f 249/249/249 248/248/248 247/247/247
f 252/252/252 251/251/251 250/250/250
f 255/255/255 254/254/254 253/253/253
f 258/258/258 257/257/257 256/256/256
f 261/261/261 260/260/260 259/259/259
f 264/264/264 263/263/263 262/262/262
f 267/267/267 266/266/266 265/265/265
f 270/270/270 269/269/269 268/268/268
f 273/273/273 272/272/272 271/271/271
f 276/276/276 275/275/275 274/274/274
f 279/279/279 278/278/278 277/277/277
f 282/282/282 281/281/281 280/280/280
f 285/285/285 284/284/284 283/283/283
f 288/288/288 287/287/287 286/286/286
f 291/291/291 290/290/290 289/289/289
f 294/294/294 293/293/293 292/292/292
f 297/297/297 296/296/296 295/295/295
f 300/300/300 299/299/299 298/298/298
f 303/303/303 302/302/302 301/301/301
f 306/306/306 305/305/305 304/304/304
f 309/309/309 308/308/308 307/307/307
f 312/312/312 311/311/311 310/310/310
f 315/315/315 314/314/314 313/313/313
f 318/318/318 317/317/317 316/316/316
f 321/321/321 320/320/320 319/319/319
f 324/324/324 323/323/323 322/322/322
f 327/327/327 326/326/326 325/325/325
f 330/330/330 329/329/329 328/328/328
f 333/333/333 332/332/332 331/331/331
f 336/336/336 335/335/335 334/334/334
f 339/339/339 338/338/338 337/337/337
f 342/342/342 341/341/341 340/340/340
f 345/345/345 344/344/344 343/343/343
f 348/348/348 347/347/347 346/346/346
f 351/351/351 350/350/350 349/349/349
f 354/354/354 353/353/353 352/352/352
f 357/357/357 356/356/356 355/355/355
f 360/360/360 359/359/359 358/358/358
f 363/363/363 362/362/362 361/361/361
f 366/366/366 365/365/365 364/364/364
f 369/369/369 368/368/368 367/367/367
f 372/372/372 371/371/371 370/370/370
f 375/375/375 374/374/374 373/373/373
f 378/378/378 377/377/377 376/376/376
f 381/381/381 380/380/380 379/379/379
f 384/384/384 383/383/383 382/382/382
f 387/387/387 386/386/386 385/385/385
f 390/390/390 389/389/389 388/388/388
f 393/393/393 392/392/392 391/391/391
f 396/396/396 395/395/395 394/394/394
f 399/399/399 398/398/398 397/397/397
f 402/402/402 401/401/401 400/400/400
f 405/405/405 404/404/404 403/403/403
f 408/408/408 407/407/407 406/406/406
f 411/411/411 410/410/410 409/409/409
f 414/414/414 413/413/413 412/412/412
f 417/417/417 416/416/416 415/415/415
f 420/420/420 419/419/419 418/418/418
f 423/423/423 422/422/422 421/421/421
f 426/426/426 425/425/425 424/424/424
f 429/429/429 428/428/428 427/427/427
f 432/432/432 431/431/431 430/430/430
f 435/435/435 434/434/434 433/433/433
f 438/438/438 437/437/437 436/436/436
f 441/441/441 440/440/440 439/439/439
f 444/444/444 443/443/443 442/442/442
f 447/447/447 446/446/446 445/445/445
f 450/450/450 449/449/449 448/448/448
f 453/453/453 452/452/452 451/451/451
f 456/456/456 455/455/455 454/454/454
f 459/459/459 458/458/458 457/457/457
f 462/462/462 461/461/461 460/460/460
f 465/465/465 464/464/464 463/463/463
f 468/468/468 467/467/467 466/466/466
f 471/471/471 470/470/470 469/469/469
f 474/474/474 473/473/473 472/472/472
f 477/477/477 476/476/476 475/475/475
f 480/480/480 479/479/479 478/478/478
f 483/483/483 482/482/482 481/481/481
f 486/486/486 485/485/485 484/484/484
f 489/489/489 488/488/488 487/487/487
f 492/492/492 491/491/491 490/490/490
f 495/495/495 494/494/494 493/493/493
f 498/498/498 497/497/497 496/496/496
f 501/501/501 500/500/500 499/499/499
f 504/504/504 503/503/503 502/502/502
f 507/507/507 506/506/506 505/505/505
f 510/510/510 509/509/509 508/508/508
f 513/513/513 512/512/512 511/511/511
f 516/516/516 515/515/515 514/514/514
f 519/519/519 518/518/518 517/517/517
f 522/522/522 521/521/521 520/520/520
f 525/525/525 524/524/524 523/523/523
f 528/528/528 527/527/527 526/526/526
f 531/531/531 530/530/530 529/529/529
f 534/534/534 533/533/533 532/532/532
f 537/537/537 536/536/536 535/535/535
f 540/540/540 539/539/539 538/538/538
f 543/543/543 542/542/542 541/541/541
f 546/546/546 545/545/545 544/544/544
f 549/549/549 548/548/548 547/547/547
f 552/552/552 551/551/551 550/550/550
f 555/555/555 554/554/554 553/553/553
f 558/558/558 557/557/557 556/556/556
f 561/561/561 560/560/560 559/559/559
f 564/564/564 563/563/563 562/562/562
f 567/567/567 566/566/566 565/565/565
f 570/570/570 569/569/569 568/568/568
f 573/573/573 572/572/572 571/571/571
f 576/576/576 575/575/575 574/574/574
f 579/579/579 578/578/578 577/577/577
f 582/582/582 581/581/581 580/580/580
f 585/585/585 584/584/584 583/583/583
f 588/588/588 587/587/587 586/586/586
f 591/591/591 590/590/590 589/589/589
f 594/594/594 593/593/593 592/592/592
f 597/597/597 596/596/596 595/595/595
f 600/600/600 599/599/599 598/598/598
f 603/603/603 602/602/602 601/601/601
f 606/606/606 605/605/605 604/604/604
f 609/609/609 608/608/608 607/607/607
f 612/612/612 611/611/611 610/610/610
f 615/615/615 614/614/614 613/613/613
f 618/618/618 617/617/617 616/616/616
f 621/621/621 620/620/620 619/619/619
f 624/624/624 623/623/623 622/622/622
f 627/627/627 626/626/626 625/625/625
f 630/630/630 629/629/629 628/628/628
f 633/633/633 632/632/632 631/631/631
f 636/636/636 635/635/635 634/634/634
f 639/639/639 638/638/638 637/637/637
f 642/642/642 641/641/641 640/640/640
f 645/645/645 644/644/644 643/643/643
f 648/648/648 647/647/647 646/646/646
