# Static pose baked from local Project Zomboid assets
o Kate_Trousers
v 0.062480806 0.003621810 -0.041466546
v 0.025404308 -0.003952105 -0.064186083
v 0.023633091 -0.013790381 -0.030924632
v 0.025404308 -0.003952105 -0.064186083
v 0.062480806 0.003621810 -0.041466546
v 0.058260279 0.020015334 -0.073171237
v 0.073784316 0.065491633 -0.077811708
v 0.062480806 0.003621810 -0.041466546
v 0.084908338 0.047029801 -0.033830123
v 0.062480806 0.003621810 -0.041466546
v 0.073784316 0.065491633 -0.077811708
v 0.058260279 0.020015334 -0.073171237
v 0.049566473 0.096750618 -0.072256482
v 0.075520752 0.084618026 -0.015425353
v 0.047024109 0.100768198 -0.006716629
v 0.075520752 0.084618026 -0.015425353
v 0.049566473 0.096750618 -0.072256482
v 0.073784316 0.065491633 -0.077811708
v 0.023633091 -0.013790381 -0.030924632
v -0.013282816 0.013789808 -0.060194428
v -0.018358436 -0.003543644 -0.026485185
v -0.013282816 0.013789808 -0.060194428
v 0.023633091 -0.013790381 -0.030924632
v 0.025404308 -0.003952105 -0.064186083
v 0.051588606 0.109709493 0.033627766
v 0.097266755 0.100135484 0.138749535
v 0.051291589 0.134078578 0.129458764
v 0.097266755 0.100135484 0.138749535
v 0.051588606 0.109709493 0.033627766
v 0.101120832 0.076035277 0.041592100
v 0.097266755 0.100135484 0.138749535
v 0.054156598 0.149074440 0.237235329
v 0.051291589 0.134078578 0.129458764
v 0.054156598 0.149074440 0.237235329
v 0.097266755 0.100135484 0.138749535
v 0.088435932 0.107579602 0.230857001
v 0.003162487 0.096214501 0.045781759
v 0.028442845 0.020211283 0.152751458
v -0.003341030 0.008822704 0.074830532
v 0.028442845 0.020211283 0.152751458
v 0.003162487 0.096214501 0.045781759
v 0.007930061 0.095353418 0.138379544
v 0.007930061 0.095353418 0.138379544
v 0.042660694 0.058846989 0.229466396
v 0.028442845 0.020211283 0.152751458
v 0.042660694 0.058846989 0.229466396
v 0.007930061 0.095353418 0.138379544
v 0.032036868 0.101980918 0.233410804
v 0.028442845 0.020211283 0.152751458
v 0.098053601 0.013414806 0.061381850
v -0.003341030 0.008822704 0.074830532
v 0.098053601 0.013414806 0.061381850
v 0.028442845 0.020211283 0.152751458
v 0.104714787 0.046963940 0.146731520
v 0.028442845 0.020211283 0.152751458
v 0.094675078 0.067094363 0.225500175
v 0.104714787 0.046963940 0.146731520
v 0.094675078 0.067094363 0.225500175
v 0.028442845 0.020211283 0.152751458
v 0.042660694 0.058846989 0.229466396
v 0.098053601 0.013414806 0.061381850
v 0.097266755 0.100135484 0.138749535
v 0.101120832 0.076035277 0.041592100
v 0.097266755 0.100135484 0.138749535
v 0.098053601 0.013414806 0.061381850
v 0.104714787 0.046963940 0.146731520
v 0.104714787 0.046963940 0.146731520
v 0.088435932 0.107579602 0.230857001
v 0.097266755 0.100135484 0.138749535
v 0.088435932 0.107579602 0.230857001
v 0.104714787 0.046963940 0.146731520
v 0.094675078 0.067094363 0.225500175
v 0.060252164 0.129431691 0.287805932
v 0.094242461 0.080832358 0.352026721
v 0.063891835 0.110541765 0.358341672
v 0.094242461 0.080832358 0.352026721
v 0.060252164 0.129431691 0.287805932
v 0.091654697 0.097282328 0.278886482
v 0.063891835 0.110541765 0.358341672
v 0.094670455 0.072193922 0.403784124
v 0.069804702 0.104169598 0.406386920
v 0.094670455 0.072193922 0.403784124
v 0.063891835 0.110541765 0.358341672
v 0.094242461 0.080832358 0.352026721
v 0.034907393 0.089793858 0.300417390
v 0.047682998 0.037686774 0.339578241
v 0.041153061 0.042200601 0.272668532
v 0.047682998 0.037686774 0.339578241
v 0.034907393 0.089793858 0.300417390
v 0.039693533 0.074697405 0.356446308
v 0.039693533 0.074697405 0.356446308
v 0.055414775 0.037086393 0.388225841
v 0.047682998 0.037686774 0.339578241
v 0.055414775 0.037086393 0.388225841
v 0.039693533 0.074697405 0.356446308
v 0.042507265 0.063275055 0.418610952
v 0.041153061 0.042200601 0.272668532
v 0.099280279 0.046258362 0.338088662
v 0.097964090 0.053885513 0.261778597
v 0.099280279 0.046258362 0.338088662
v 0.041153061 0.042200601 0.272668532
v 0.047682998 0.037686774 0.339578241
v 0.047682998 0.037686774 0.339578241
v 0.095114828 0.034931151 0.383060131
v 0.099280279 0.046258362 0.338088662
v 0.095114828 0.034931151 0.383060131
v 0.047682998 0.037686774 0.339578241
v 0.055414775 0.037086393 0.388225841
v 0.097964090 0.053885513 0.261778597
v 0.094242461 0.080832358 0.352026721
v 0.091654697 0.097282328 0.278886482
v 0.094242461 0.080832358 0.352026721
v 0.097964090 0.053885513 0.261778597
v 0.099280279 0.046258362 0.338088662
v 0.099280279 0.046258362 0.338088662
v 0.094670455 0.072193922 0.403784124
v 0.094242461 0.080832358 0.352026721
v 0.094670455 0.072193922 0.403784124
v 0.099280279 0.046258362 0.338088662
v 0.095114828 0.034931151 0.383060131
v 0.101120832 0.076035277 0.041592100
v 0.075520752 0.084618026 -0.015425353
v 0.096476408 0.056507934 -0.001165524
v 0.075520752 0.084618026 -0.015425353
v 0.101120832 0.076035277 0.041592100
v 0.051588606 0.109709493 0.033627766
v 0.047024109 0.100768198 -0.006716629
v 0.007896826 0.113525348 0.042635278
v 0.009553342 0.121949083 -0.001050319
v 0.007896826 0.113525348 0.042635278
v 0.047024109 0.100768198 -0.006716629
v 0.003162487 0.096214501 0.045781759
v 0.023633091 -0.013790381 -0.030924632
v 0.072494455 -0.007718750 0.009425244
v 0.062480806 0.003621810 -0.041466546
v 0.072494455 -0.007718750 0.009425244
v 0.023633091 -0.013790381 -0.030924632
v 0.021064333 -0.021148069 0.015729698
v 0.021064333 -0.021148069 0.015729698
v 0.093731931 0.004690470 0.050989828
v 0.072494455 -0.007718750 0.009425244
v 0.093731931 0.004690470 0.050989828
v 0.021064333 -0.021148069 0.015729698
v 0.023096541 -0.012846640 0.053273044
v 0.023096541 -0.012846640 0.053273044
v 0.098053601 0.013414806 0.061381850
v 0.093731931 0.004690470 0.050989828
v 0.098053601 0.013414806 0.061381850
v 0.023096541 -0.012846640 0.053273044
v -0.003341030 0.008822704 0.074830532
v 0.060252164 0.129431691 0.287805932
v 0.088435932 0.107579602 0.230857001
v 0.091654697 0.097282328 0.278886482
v 0.088435932 0.107579602 0.230857001
v 0.060252164 0.129431691 0.287805932
v 0.054156598 0.149074440 0.237235329
v 0.091654697 0.097282328 0.278886482
v 0.094675078 0.067094363 0.225500175
v 0.097964090 0.053885513 0.261778597
v 0.094675078 0.067094363 0.225500175
v 0.091654697 0.097282328 0.278886482
v 0.088435932 0.107579602 0.230857001
v 0.094675078 0.067094363 0.225500175
v 0.041153061 0.042200601 0.272668532
v 0.097964090 0.053885513 0.261778597
v 0.041153061 0.042200601 0.272668532
v 0.094675078 0.067094363 0.225500175
v 0.042660694 0.058846989 0.229466396
v 0.042660694 0.058846989 0.229466396
v 0.034907393 0.089793858 0.300417390
v 0.041153061 0.042200601 0.272668532
v 0.034907393 0.089793858 0.300417390
v 0.042660694 0.058846989 0.229466396
v 0.032036868 0.101980918 0.233410804
v 0.062480806 0.003621810 -0.041466546
v 0.096476408 0.056507934 -0.001165524
v 0.084908338 0.047029801 -0.033830123
v 0.096476408 0.056507934 -0.001165524
v 0.062480806 0.003621810 -0.041466546
v 0.072494455 -0.007718750 0.009425244
v 0.072494455 -0.007718750 0.009425244
v 0.101120832 0.076035277 0.041592100
v 0.096476408 0.056507934 -0.001165524
v 0.101120832 0.076035277 0.041592100
v 0.072494455 -0.007718750 0.009425244
v 0.093731931 0.004690470 0.050989828
v 0.093731931 0.004690470 0.050989828
v 0.098053601 0.013414806 0.061381850
v 0.101120832 0.076035277 0.041592100
v 0.047024109 0.100768198 -0.006716629
v 0.051588606 0.109709493 0.033627766
v 0.003162487 0.096214501 0.045781759
v 0.075520752 0.084618026 -0.015425353
v 0.051588606 0.109709493 0.033627766
v 0.047024109 0.100768198 -0.006716629
v 0.051588606 0.109709493 0.033627766
v 0.051291589 0.134078578 0.129458764
v 0.007930061 0.095353418 0.138379544
v 0.051291589 0.134078578 0.129458764
v 0.032036868 0.101980918 0.233410804
v 0.007930061 0.095353418 0.138379544
v 0.032036868 0.101980918 0.233410804
v 0.051291589 0.134078578 0.129458764
v 0.054156598 0.149074440 0.237235329
v 0.054156598 0.149074440 0.237235329
v 0.034907393 0.089793858 0.300417390
v 0.032036868 0.101980918 0.233410804
v 0.034907393 0.089793858 0.300417390
v 0.054156598 0.149074440 0.237235329
v 0.060252164 0.129431691 0.287805932
v 0.034907393 0.089793858 0.300417390
v 0.063891835 0.110541765 0.358341672
v 0.039693533 0.074697405 0.356446308
v 0.063891835 0.110541765 0.358341672
v 0.034907393 0.089793858 0.300417390
v 0.060252164 0.129431691 0.287805932
v 0.039693533 0.074697405 0.356446308
v 0.069804702 0.104169598 0.406386920
v 0.042507265 0.063275055 0.418610952
v 0.069804702 0.104169598 0.406386920
v 0.039693533 0.074697405 0.356446308
v 0.063891835 0.110541765 0.358341672
v 0.073784316 0.065491633 -0.077811708
v 0.084908338 0.047029801 -0.033830123
v 0.075520752 0.084618026 -0.015425353
v 0.084908338 0.047029801 -0.033830123
v 0.096476408 0.056507934 -0.001165524
v 0.075520752 0.084618026 -0.015425353
v 0.003162487 0.096214501 0.045781759
v -0.001665085 0.069825514 0.066755427
v 0.007896826 0.113525348 0.042635278
v 0.009553342 0.121949083 -0.001050319
v 0.049566473 0.096750618 -0.072256482
v 0.047024109 0.100768198 -0.006716629
v -0.018358436 -0.003543644 -0.026485185
v 0.021064333 -0.021148069 0.015729698
v 0.023633091 -0.013790381 -0.030924632
v 0.021064333 -0.021148069 0.015729698
v -0.018358436 -0.003543644 -0.026485185
v -0.019892664 -0.011443935 0.018533134
v 0.021064333 -0.021148069 0.015729698
v -0.018212342 -0.004557689 0.051024541
v 0.023096541 -0.012846640 0.053273044
v -0.018212342 -0.004557689 0.051024541
v 0.021064333 -0.021148069 0.015729698
v -0.019892664 -0.011443935 0.018533134
v -0.018212342 -0.004557689 0.051024541
v -0.015843356 0.005713580 0.070771841
v 0.023096541 -0.012846640 0.053273044
v -0.015843356 0.005713580 0.070771841
v -0.001665085 0.069825514 0.066755427
v -0.003341030 0.008822704 0.074830532
v -0.003341030 0.008822704 0.074830532
v -0.001665085 0.069825514 0.066755427
v 0.003162487 0.096214501 0.045781759
v 0.051588606 0.109709493 0.033627766
v 0.007930061 0.095353418 0.138379544
v 0.003162487 0.096214501 0.045781759
v 0.094670455 0.072193922 0.403784124
v 0.062222576 0.106300185 0.425398721
v 0.069804702 0.104169598 0.406386920
v 0.062222576 0.106300185 0.425398721
v 0.094670455 0.072193922 0.403784124
v 0.096927023 0.081771405 0.427303802
v 0.042507265 0.063275055 0.418610952
v 0.055632059 0.012229261 0.430455697
v 0.055414775 0.037086393 0.388225841
v 0.055632059 0.012229261 0.430455697
v 0.042507265 0.063275055 0.418610952
v 0.039959464 0.064170056 0.444709053
v 0.055414775 0.037086393 0.388225841
v 0.106398654 0.027648371 0.416433958
v 0.095114828 0.034931151 0.383060131
v 0.106398654 0.027648371 0.416433958
v 0.055414775 0.037086393 0.388225841
v 0.055632059 0.012229261 0.430455697
v 0.095114828 0.034931151 0.383060131
v 0.096927023 0.081771405 0.427303802
v 0.094670455 0.072193922 0.403784124
v 0.096927023 0.081771405 0.427303802
v 0.095114828 0.034931151 0.383060131
v 0.106398654 0.027648371 0.416433958
v 0.069804702 0.104169598 0.406386920
v 0.039959464 0.064170056 0.444709053
v 0.042507265 0.063275055 0.418610952
v 0.039959464 0.064170056 0.444709053
v 0.069804702 0.104169598 0.406386920
v 0.062222576 0.106300185 0.425398721
v 0.096927023 0.081771405 0.427303802
v 0.070289716 0.101504670 0.449348074
v 0.062222576 0.106300185 0.425398721
v 0.070289716 0.101504670 0.449348074
v 0.096927023 0.081771405 0.427303802
v 0.104858531 0.077998323 0.451433595
v 0.039959464 0.064170056 0.444709053
v 0.063042326 0.008818867 0.452463737
v 0.055632059 0.012229261 0.430455697
v 0.063042326 0.008818867 0.452463737
v 0.039959464 0.064170056 0.444709053
v 0.047269208 0.061897480 0.461926112
v 0.055632059 0.012229261 0.430455697
v 0.114178515 0.023804366 0.440624200
v 0.106398654 0.027648371 0.416433958
v 0.114178515 0.023804366 0.440624200
v 0.055632059 0.012229261 0.430455697
v 0.063042326 0.008818867 0.452463737
v 0.106398654 0.027648371 0.416433958
v 0.104858531 0.077998323 0.451433595
v 0.096927023 0.081771405 0.427303802
v 0.104858531 0.077998323 0.451433595
v 0.106398654 0.027648371 0.416433958
v 0.114178515 0.023804366 0.440624200
v 0.062222576 0.106300185 0.425398721
v 0.047269208 0.061897480 0.461926112
v 0.039959464 0.064170056 0.444709053
v 0.047269208 0.061897480 0.461926112
v 0.062222576 0.106300185 0.425398721
v 0.070289716 0.101504670 0.449348074
v 0.104858531 0.077998323 0.451433595
v 0.080556194 0.053437814 0.458646207
v 0.070289716 0.101504670 0.449348074
v 0.047269208 0.061897480 0.461926112
v 0.080556194 0.053437814 0.458646207
v 0.063042326 0.008818867 0.452463737
v 0.063042326 0.008818867 0.452463737
v 0.095747610 0.040155624 0.450957009
v 0.114178515 0.023804366 0.440624200
v 0.095747610 0.040155624 0.450957009
v 0.063042326 0.008818867 0.452463737
v 0.080556194 0.053437814 0.458646207
v 0.095747610 0.040155624 0.450957009
v 0.104858531 0.077998323 0.451433595
v 0.114178515 0.023804366 0.440624200
v 0.104858531 0.077998323 0.451433595
v 0.095747610 0.040155624 0.450957009
v 0.080556194 0.053437814 0.458646207
v 0.070289716 0.101504670 0.449348074
v 0.080556194 0.053437814 0.458646207
v 0.047269208 0.061897480 0.461926112
v 0.058260279 0.020015334 -0.073171237
v -0.005435254 0.055264518 -0.066843584
v 0.025404308 -0.003952105 -0.064186083
v 0.073784316 0.065491633 -0.077811708
v -0.005435254 0.055264518 -0.066843584
v 0.058260279 0.020015334 -0.073171237
v 0.049566473 0.096750618 -0.072256482
v -0.005435254 0.055264518 -0.066843584
v 0.073784316 0.065491633 -0.077811708
v 0.005350105 0.109556085 -0.068386045
v -0.005435254 0.055264518 -0.066843584
v 0.049566473 0.096750618 -0.072256482
v 0.025404308 -0.003952105 -0.064186083
v -0.005435254 0.055264518 -0.066843584
v -0.013282816 0.013789808 -0.060194428
v -0.088747798 0.037111111 -0.040743366
v -0.056138950 0.011646149 -0.058691600
v -0.078284531 0.046134729 -0.063970684
v -0.056138950 0.011646149 -0.058691600
v -0.088747798 0.037111111 -0.040743366
v -0.060788746 0.004904682 -0.030520925
v -0.075662165 0.094078964 -0.067741825
v -0.088747798 0.037111111 -0.040743366
v -0.078284531 0.046134729 -0.063970684
v -0.088747798 0.037111111 -0.040743366
v -0.075662165 0.094078964 -0.067741825
v -0.090681814 0.085913923 -0.032990446
v -0.040661241 0.114010105 -0.066176831
v -0.072675131 0.110665765 -0.015121133
v -0.075662165 0.094078964 -0.067741825
v -0.072675131 0.110665765 -0.015121133
v -0.040661241 0.114010105 -0.066176831
v -0.033406458 0.118579402 -0.006332008
v -0.060788746 0.004904682 -0.030520925
v -0.013282816 0.013789808 -0.060194428
v -0.056138950 0.011646149 -0.058691600
v -0.013282816 0.013789808 -0.060194428
v -0.060788746 0.004904682 -0.030520925
v -0.018358436 -0.003543644 -0.026485185
v -0.074557490 0.126791551 0.035697039
v -0.120889843 0.092751691 0.133440608
v -0.103242965 0.076505435 0.037655565
v -0.120889843 0.092751691 0.133440608
v -0.074557490 0.126791551 0.035697039
v -0.095448445 0.139079662 0.131752304
v -0.120889843 0.092751691 0.133440608
v -0.113660951 0.142025551 0.237957231
v -0.122074838 0.089057567 0.227540322
v -0.113660951 0.142025551 0.237957231
v -0.120889843 0.092751691 0.133440608
v -0.095448445 0.139079662 0.131752304
v -0.013603457 0.126885929 0.050544177
v -0.020344590 0.050108030 0.153411434
v -0.039388278 0.126411095 0.143992289
v -0.020344590 0.050108030 0.153411434
v -0.013603457 0.126885929 0.050544177
v -0.014667638 0.020293060 0.075247772
v -0.039388278 0.126411095 0.143992289
v -0.057560311 0.069246427 0.231872257
v -0.070288299 0.112233725 0.236120563
v -0.057560311 0.069246427 0.231872257
v -0.039388278 0.126411095 0.143992289
v -0.020344590 0.050108030 0.153411434
v -0.081231659 0.022693836 0.056004216
v -0.020344590 0.050108030 0.153411434
v -0.014667638 0.020293060 0.075247772
v -0.020344590 0.050108030 0.153411434
v -0.081231659 0.022693836 0.056004216
v -0.098895508 0.035847907 0.140046672
v -0.020344590 0.050108030 0.153411434
v -0.106741330 0.050566282 0.222620752
v -0.057560311 0.069246427 0.231872257
v -0.106741330 0.050566282 0.222620752
v -0.020344590 0.050108030 0.153411434
v -0.098895508 0.035847907 0.140046672
v -0.081231659 0.022693836 0.056004216
v -0.120889843 0.092751691 0.133440608
v -0.098895508 0.035847907 0.140046672
v -0.120889843 0.092751691 0.133440608
v -0.081231659 0.022693836 0.056004216
v -0.103242965 0.076505435 0.037655565
v -0.098895508 0.035847907 0.140046672
v -0.122074838 0.089057567 0.227540322
v -0.106741330 0.050566282 0.222620752
v -0.122074838 0.089057567 0.227540322
v -0.098895508 0.035847907 0.140046672
v -0.120889843 0.092751691 0.133440608
v -0.114728864 0.122549592 0.286430879
v -0.126294054 0.064564330 0.350206325
v -0.125497794 0.078845551 0.276664086
v -0.126294054 0.064564330 0.350206325
v -0.114728864 0.122549592 0.286430879
v -0.115771011 0.105280553 0.357408170
v -0.115771011 0.105280553 0.357408170
v -0.129204116 0.056803514 0.402090096
v -0.126294054 0.064564330 0.350206325
v -0.129204116 0.056803514 0.402090096
v -0.115771011 0.105280553 0.357408170
v -0.122652139 0.096510512 0.404936949
v -0.074315896 0.100852925 0.303863298
v -0.064588640 0.049422896 0.344876014
v -0.077719608 0.085740257 0.360031922
v -0.064588640 0.049422896 0.344876014
v -0.074315896 0.100852925 0.303863298
v -0.053308930 0.056063810 0.278728909
v -0.077719608 0.085740257 0.360031922
v -0.074501903 0.044428184 0.392445960
v -0.092472383 0.085384908 0.415851887
v -0.074501903 0.044428184 0.392445960
v -0.077719608 0.085740257 0.360031922
v -0.064588640 0.049422896 0.344876014
v -0.053308930 0.056063810 0.278728909
v -0.112177276 0.031834904 0.338080680
v -0.064588640 0.049422896 0.344876014
v -0.112177276 0.031834904 0.338080680
v -0.053308930 0.056063810 0.278728909
v -0.107774415 0.037789336 0.261831495
v -0.064588640 0.049422896 0.344876014
v -0.108059484 0.022090548 0.383667038
v -0.074501903 0.044428184 0.392445960
v -0.108059484 0.022090548 0.383667038
v -0.064588640 0.049422896 0.344876014
v -0.112177276 0.031834904 0.338080680
v -0.107774415 0.037789336 0.261831495
v -0.126294054 0.064564330 0.350206325
v -0.112177276 0.031834904 0.338080680
v -0.126294054 0.064564330 0.350206325
v -0.107774415 0.037789336 0.261831495
v -0.125497794 0.078845551 0.276664086
v -0.112177276 0.031834904 0.338080680
v -0.129204116 0.056803514 0.402090096
v -0.108059484 0.022090548 0.383667038
v -0.129204116 0.056803514 0.402090096
v -0.112177276 0.031834904 0.338080680
v -0.126294054 0.064564330 0.350206325
v -0.103242965 0.076505435 0.037655565
v -0.072675131 0.110665765 -0.015121133
v -0.074557490 0.126791551 0.035697039
v -0.072675131 0.110665765 -0.015121133
v -0.103242965 0.076505435 0.037655565
v -0.090946012 0.068886837 -0.004357174
v 0.007896826 0.113525348 0.042635278
v -0.033406458 0.118579402 -0.006332008
v 0.009553342 0.121949083 -0.001050319
v -0.033406458 0.118579402 -0.006332008
v 0.007896826 0.113525348 0.042635278
v -0.013603457 0.126885929 0.050544177
v -0.060788746 0.004904682 -0.030520925
v -0.102148646 0.030955648 0.010260392
v -0.061141215 -0.002943799 0.016122807
v -0.102148646 0.030955648 0.010260392
v -0.060788746 0.004904682 -0.030520925
v -0.088747798 0.037111111 -0.040743366
v -0.061141215 -0.002943799 0.016122807
v -0.092047338 0.026290982 0.047773466
v -0.059136344 0.005363683 0.053666284
v -0.092047338 0.026290982 0.047773466
v -0.061141215 -0.002943799 0.016122807
v -0.102148646 0.030955648 0.010260392
v -0.059136344 0.005363683 0.053666284
v -0.081231659 0.022693836 0.056004216
v -0.014667638 0.020293060 0.075247772
v -0.081231659 0.022693836 0.056004216
v -0.059136344 0.005363683 0.053666284
v -0.092047338 0.026290982 0.047773466
v -0.114728864 0.122549592 0.286430879
v -0.122074838 0.089057567 0.227540322
v -0.113660951 0.142025551 0.237957231
v -0.122074838 0.089057567 0.227540322
v -0.114728864 0.122549592 0.286430879
v -0.125497794 0.078845551 0.276664086
v -0.125497794 0.078845551 0.276664086
v -0.106741330 0.050566282 0.222620752
v -0.122074838 0.089057567 0.227540322
v -0.106741330 0.050566282 0.222620752
v -0.125497794 0.078845551 0.276664086
v -0.107774415 0.037789336 0.261831495
v -0.106741330 0.050566282 0.222620752
v -0.053308930 0.056063810 0.278728909
v -0.057560311 0.069246427 0.231872257
v -0.053308930 0.056063810 0.278728909
v -0.106741330 0.050566282 0.222620752
v -0.107774415 0.037789336 0.261831495
v -0.057560311 0.069246427 0.231872257
v -0.074315896 0.100852925 0.303863298
v -0.070288299 0.112233725 0.236120563
v -0.074315896 0.100852925 0.303863298
v -0.057560311 0.069246427 0.231872257
v -0.053308930 0.056063810 0.278728909
v -0.088747798 0.037111111 -0.040743366
v -0.090946012 0.068886837 -0.004357174
v -0.102148646 0.030955648 0.010260392
v -0.090946012 0.068886837 -0.004357174
v -0.088747798 0.037111111 -0.040743366
v -0.090681814 0.085913923 -0.032990446
v -0.102148646 0.030955648 0.010260392
v -0.103242965 0.076505435 0.037655565
v -0.092047338 0.026290982 0.047773466
v -0.103242965 0.076505435 0.037655565
v -0.102148646 0.030955648 0.010260392
v -0.090946012 0.068886837 -0.004357174
v -0.092047338 0.026290982 0.047773466
v -0.103242965 0.076505435 0.037655565
v -0.081231659 0.022693836 0.056004216
v -0.033406458 0.118579402 -0.006332008
v -0.013603457 0.126885929 0.050544177
v -0.074557490 0.126791551 0.035697039
v -0.072675131 0.110665765 -0.015121133
v -0.033406458 0.118579402 -0.006332008
v -0.074557490 0.126791551 0.035697039
v -0.074557490 0.126791551 0.035697039
v -0.039388278 0.126411095 0.143992289
v -0.095448445 0.139079662 0.131752304
v -0.095448445 0.139079662 0.131752304
v -0.070288299 0.112233725 0.236120563
v -0.113660951 0.142025551 0.237957231
v -0.070288299 0.112233725 0.236120563
v -0.095448445 0.139079662 0.131752304
v -0.039388278 0.126411095 0.143992289
v -0.113660951 0.142025551 0.237957231
v -0.074315896 0.100852925 0.303863298
v -0.114728864 0.122549592 0.286430879
v -0.074315896 0.100852925 0.303863298
v -0.113660951 0.142025551 0.237957231
v -0.070288299 0.112233725 0.236120563
v -0.074315896 0.100852925 0.303863298
v -0.115771011 0.105280553 0.357408170
v -0.114728864 0.122549592 0.286430879
v -0.115771011 0.105280553 0.357408170
v -0.074315896 0.100852925 0.303863298
v -0.077719608 0.085740257 0.360031922
v -0.077719608 0.085740257 0.360031922
v -0.122652139 0.096510512 0.404936949
v -0.115771011 0.105280553 0.357408170
v -0.122652139 0.096510512 0.404936949
v -0.077719608 0.085740257 0.360031922
v -0.092472383 0.085384908 0.415851887
v -0.075662165 0.094078964 -0.067741825
v -0.072675131 0.110665765 -0.015121133
v -0.090681814 0.085913923 -0.032990446
v -0.090681814 0.085913923 -0.032990446
v -0.072675131 0.110665765 -0.015121133
v -0.090946012 0.068886837 -0.004357174
v -0.013603457 0.126885929 0.050544177
v 0.007896826 0.113525348 0.042635278
v -0.001665085 0.069825514 0.066755427
v 0.009553342 0.121949083 -0.001050319
v -0.033406458 0.118579402 -0.006332008
v -0.040661241 0.114010105 -0.066176831
v -0.018358436 -0.003543644 -0.026485185
v -0.061141215 -0.002943799 0.016122807
v -0.019892664 -0.011443935 0.018533134
v -0.061141215 -0.002943799 0.016122807
v -0.018358436 -0.003543644 -0.026485185
v -0.060788746 0.004904682 -0.030520925
v -0.061141215 -0.002943799 0.016122807
v -0.018212342 -0.004557689 0.051024541
v -0.019892664 -0.011443935 0.018533134
v -0.018212342 -0.004557689 0.051024541
v -0.061141215 -0.002943799 0.016122807
v -0.059136344 0.005363683 0.053666284
v -0.018212342 -0.004557689 0.051024541
v -0.059136344 0.005363683 0.053666284
v -0.015843356 0.005713580 0.070771841
v -0.015843356 0.005713580 0.070771841
v -0.014667638 0.020293060 0.075247772
v -0.001665085 0.069825514 0.066755427
v -0.014667638 0.020293060 0.075247772
v -0.013603457 0.126885929 0.050544177
v -0.001665085 0.069825514 0.066755427
v -0.074557490 0.126791551 0.035697039
v -0.013603457 0.126885929 0.050544177
v -0.039388278 0.126411095 0.143992289
v -0.129204116 0.056803514 0.402090096
v -0.139928892 0.097188162 0.425845762
v -0.139242181 0.053840652 0.430164050
v -0.139928892 0.097188162 0.425845762
v -0.129204116 0.056803514 0.402090096
v -0.122652139 0.096510512 0.404936949
v -0.092472383 0.085384908 0.415851887
v -0.059769335 0.044135020 0.427664792
v -0.090774249 0.088851887 0.441465633
v -0.059769335 0.044135020 0.427664792
v -0.092472383 0.085384908 0.415851887
v -0.074501903 0.044428184 0.392445960
v -0.074501903 0.044428184 0.392445960
v -0.102630310 0.012804378 0.419095329
v -0.059769335 0.044135020 0.427664792
v -0.102630310 0.012804378 0.419095329
v -0.074501903 0.044428184 0.392445960
v -0.108059484 0.022090548 0.383667038
v -0.108059484 0.022090548 0.383667038
v -0.139242181 0.053840652 0.430164050
v -0.102630310 0.012804378 0.419095329
v -0.139242181 0.053840652 0.430164050
v -0.108059484 0.022090548 0.383667038
v -0.129204116 0.056803514 0.402090096
v -0.122652139 0.096510512 0.404936949
v -0.090774249 0.088851887 0.441465633
v -0.139928892 0.097188162 0.425845762
v -0.090774249 0.088851887 0.441465633
v -0.122652139 0.096510512 0.404936949
v -0.092472383 0.085384908 0.415851887
v -0.139242181 0.053840652 0.430164050
v -0.139922717 0.090069464 0.450562900
v -0.139113860 0.046773552 0.454898668
v -0.139922717 0.090069464 0.450562900
v -0.139242181 0.053840652 0.430164050
v -0.139928892 0.097188162 0.425845762
v -0.090774249 0.088851887 0.441465633
v -0.059784323 0.037625518 0.450212816
v -0.091984000 0.082811905 0.459263764
v -0.059784323 0.037625518 0.450212816
v -0.090774249 0.088851887 0.441465633
v -0.059769335 0.044135020 0.427664792
v -0.059769335 0.044135020 0.427664792
v -0.102354356 0.005880496 0.443841141
v -0.059784323 0.037625518 0.450212816
v -0.102354356 0.005880496 0.443841141
v -0.059769335 0.044135020 0.427664792
v -0.102630310 0.012804378 0.419095329
v -0.102630310 0.012804378 0.419095329
v -0.139113860 0.046773552 0.454898668
v -0.102354356 0.005880496 0.443841141
v -0.139113860 0.046773552 0.454898668
v -0.102630310 0.012804378 0.419095329
v -0.139242181 0.053840652 0.430164050
v -0.139928892 0.097188162 0.425845762
v -0.091984000 0.082811905 0.459263764
v -0.139922717 0.090069464 0.450562900
v -0.091984000 0.082811905 0.459263764
v -0.139928892 0.097188162 0.425845762
v -0.090774249 0.088851887 0.441465633
v -0.139113860 0.046773552 0.454898668
v -0.139922717 0.090069464 0.450562900
v -0.104930123 0.051367654 0.459108017
v -0.091984000 0.082811905 0.459263764
v -0.059784323 0.037625518 0.450212816
v -0.104930123 0.051367654 0.459108017
v -0.059784323 0.037625518 0.450212816
v -0.103819642 0.030908054 0.452663631
v -0.104930123 0.051367654 0.459108017
v -0.103819642 0.030908054 0.452663631
v -0.059784323 0.037625518 0.450212816
v -0.102354356 0.005880496 0.443841141
v -0.139113860 0.046773552 0.454898668
v -0.103819642 0.030908054 0.452663631
v -0.102354356 0.005880496 0.443841141
v -0.103819642 0.030908054 0.452663631
v -0.139113860 0.046773552 0.454898668
v -0.104930123 0.051367654 0.459108017
v -0.139922717 0.090069464 0.450562900
v -0.091984000 0.082811905 0.459263764
v -0.104930123 0.051367654 0.459108017
v -0.078284531 0.046134729 -0.063970684
v -0.056138950 0.011646149 -0.058691600
v -0.005435254 0.055264518 -0.066843584
v -0.075662165 0.094078964 -0.067741825
v -0.078284531 0.046134729 -0.063970684
v -0.005435254 0.055264518 -0.066843584
v -0.040661241 0.114010105 -0.066176831
v -0.075662165 0.094078964 -0.067741825
v -0.005435254 0.055264518 -0.066843584
v 0.005350105 0.109556085 -0.068386045
v -0.040661241 0.114010105 -0.066176831
v -0.005435254 0.055264518 -0.066843584
v -0.056138950 0.011646149 -0.058691600
v -0.013282816 0.013789808 -0.060194428
v -0.005435254 0.055264518 -0.066843584
v 0.049566473 0.096750618 -0.072256482
v 0.009553342 0.121949083 -0.001050319
v 0.005350105 0.109556085 -0.068386045
v 0.009553342 0.121949083 -0.001050319
v -0.040661241 0.114010105 -0.066176831
v 0.005350105 0.109556085 -0.068386045
v 0.023096541 -0.012846640 0.053273044
v -0.015843356 0.005713580 0.070771841
v -0.003341030 0.008822704 0.074830532
v -0.015843356 0.005713580 0.070771841
v -0.059136344 0.005363683 0.053666284
v -0.014667638 0.020293060 0.075247772
vt 0.655812979 0.560059011
vt 0.740234017 0.535561979
vt 0.742870986 0.568826020
vt 0.740234017 0.535561979
vt 0.655812979 0.560059011
vt 0.652606010 0.535561979
vt 0.584580004 0.535561979
vt 0.655812979 0.560059011
vt 0.606445014 0.576452017
vt 0.655812979 0.560059011
vt 0.584580004 0.535561979
vt 0.652606010 0.535561979
vt 0.546494007 0.535561979
vt 0.577148020 0.587302029
vt 0.539062977 0.589254975
vt 0.577148020 0.587302029
vt 0.546494007 0.535561979
vt 0.584580004 0.535561979
vt 0.742870986 0.568826020
vt 0.785156012 0.535561979
vt 0.785156012 0.570591986
vt 0.785156012 0.535561979
vt 0.742870986 0.568826020
vt 0.740234017 0.535561979
vt 0.571289003 0.614257991
vt 0.620117009 0.710937977
vt 0.583007991 0.711914003
vt 0.620117009 0.710937977
vt 0.571289003 0.614257991
vt 0.616210997 0.614257991
vt 0.620117009 0.710937977
vt 0.594506025 0.771530986
vt 0.583007991 0.711914003
vt 0.594506025 0.771530986
vt 0.620117009 0.710937977
vt 0.633000016 0.774496973
vt 0.781250000 0.617187977
vt 0.729492009 0.701171994
vt 0.738281012 0.629882991
vt 0.729492009 0.701171994
vt 0.781250000 0.617187977
vt 0.774414003 0.709960997
vt 0.774414003 0.709960997
vt 0.722656012 0.771484017
vt 0.729492009 0.701171994
vt 0.722656012 0.771484017
vt 0.774414003 0.709960997
vt 0.768554986 0.771484017
vt 0.729492009 0.701171994
vt 0.680441976 0.630411983
vt 0.738281012 0.629882991
vt 0.680441976 0.630411983
vt 0.729492009 0.701171994
vt 0.676757991 0.704101980
vt 0.729492009 0.701171994
vt 0.676864982 0.770649016
vt 0.676757991 0.704101980
vt 0.676864982 0.770649016
vt 0.729492009 0.701171994
vt 0.722656012 0.771484017
vt 0.680441976 0.630411983
vt 0.620117009 0.710937977
vt 0.616210997 0.614257991
vt 0.620117009 0.710937977
vt 0.680441976 0.630411983
vt 0.676757991 0.704101980
vt 0.676757991 0.704101980
vt 0.633000016 0.774496973
vt 0.620117009 0.710937977
vt 0.633000016 0.774496973
vt 0.676757991 0.704101980
vt 0.676864982 0.770649016
vt 0.605823994 0.832777023
vt 0.655273020 0.876953006
vt 0.614238977 0.877417028
vt 0.655273020 0.876953006
vt 0.605823994 0.832777023
vt 0.646853983 0.829473019
vt 0.614238977 0.877417028
vt 0.661132991 0.920898020
vt 0.624240994 0.921905994
vt 0.661132991 0.920898020
vt 0.614238977 0.877417028
vt 0.655273020 0.876953006
vt 0.758789003 0.829101980
vt 0.722656012 0.876953006
vt 0.724609017 0.825195014
vt 0.722656012 0.876953006
vt 0.758789003 0.829101980
vt 0.753906012 0.876953006
vt 0.753906012 0.876953006
vt 0.717773020 0.921875000
vt 0.722656012 0.876953006
vt 0.717773020 0.921875000
vt 0.753906012 0.876953006
vt 0.747070014 0.921875000
vt 0.724609017 0.825195014
vt 0.679687977 0.875976980
vt 0.676509023 0.820604026
vt 0.679687977 0.875976980
vt 0.724609017 0.825195014
vt 0.722656012 0.876953006
vt 0.722656012 0.876953006
vt 0.683311999 0.921037018
vt 0.679687977 0.875976980
vt 0.683311999 0.921037018
vt 0.722656012 0.876953006
vt 0.717773020 0.921875000
vt 0.676509023 0.820604026
vt 0.655273020 0.876953006
vt 0.646853983 0.829473019
vt 0.655273020 0.876953006
vt 0.676509023 0.820604026
vt 0.679687977 0.875976980
vt 0.679687977 0.875976980
vt 0.661132991 0.920898020
vt 0.655273020 0.876953006
vt 0.661132991 0.920898020
vt 0.679687977 0.875976980
vt 0.683311999 0.921037018
vt 0.616210997 0.614257991
vt 0.577148020 0.587302029
vt 0.622070014 0.584178984
vt 0.577148020 0.587302029
vt 0.616210997 0.614257991
vt 0.571289003 0.614257991
vt 0.539062977 0.589254975
vt 0.500618994 0.616203010
vt 0.500618994 0.591796994
vt 0.500618994 0.616203010
vt 0.539062977 0.589254975
vt 0.512254000 0.615234017
vt 0.742870986 0.568826020
vt 0.677475989 0.591902971
vt 0.655812979 0.560059011
vt 0.677475989 0.591902971
vt 0.742870986 0.568826020
vt 0.744140983 0.590817988
vt 0.744140983 0.590817988
vt 0.681532979 0.613192976
vt 0.677475989 0.591902971
vt 0.681532979 0.613192976
vt 0.744140983 0.590817988
vt 0.741210997 0.610741973
vt 0.741210997 0.610741973
vt 0.680441976 0.630411983
vt 0.681532979 0.613192976
vt 0.680441976 0.630411983
vt 0.741210997 0.610741973
vt 0.738281012 0.629882991
vt 0.605823994 0.832777023
vt 0.633000016 0.774496973
vt 0.646853983 0.829473019
vt 0.633000016 0.774496973
vt 0.605823994 0.832777023
vt 0.594506025 0.771530986
vt 0.646853983 0.829473019
vt 0.676864982 0.770649016
vt 0.676509023 0.820604026
vt 0.676864982 0.770649016
vt 0.646853983 0.829473019
vt 0.633000016 0.774496973
vt 0.676864982 0.770649016
vt 0.724609017 0.825195014
vt 0.676509023 0.820604026
vt 0.724609017 0.825195014
vt 0.676864982 0.770649016
vt 0.722656012 0.771484017
vt 0.722656012 0.771484017
vt 0.758789003 0.829101980
vt 0.724609017 0.825195014
vt 0.758789003 0.829101980
vt 0.722656012 0.771484017
vt 0.768554986 0.771484017
vt 0.655812979 0.560059011
vt 0.622070014 0.584178984
vt 0.606445014 0.576452017
vt 0.622070014 0.584178984
vt 0.655812979 0.560059011
vt 0.677475989 0.591902971
vt 0.677475989 0.591902971
vt 0.616210997 0.614257991
vt 0.622070014 0.584178984
vt 0.616210997 0.614257991
vt 0.677475989 0.591902971
vt 0.681532979 0.613192976
vt 0.681532979 0.613192976
vt 0.680441976 0.630411983
vt 0.616210997 0.614257991
vt 0.539062977 0.589254975
vt 0.571289003 0.614257991
vt 0.512254000 0.615234017
vt 0.577148020 0.587302029
vt 0.571289003 0.614257991
vt 0.539062977 0.589254975
vt 0.571289003 0.614257991
vt 0.583007991 0.711914003
vt 0.537109017 0.710937977
vt 0.583007991 0.711914003
vt 0.551757991 0.772460997
vt 0.537109017 0.710937977
vt 0.551757991 0.772460997
vt 0.583007991 0.711914003
vt 0.594506025 0.771530986
vt 0.594506025 0.771530986
vt 0.567382991 0.843750000
vt 0.551757991 0.772460997
vt 0.567382991 0.843750000
vt 0.594506025 0.771530986
vt 0.605823994 0.832777023
vt 0.567382991 0.843750000
vt 0.614238977 0.877417028
vt 0.577046990 0.878556013
vt 0.614238977 0.877417028
vt 0.567382991 0.843750000
vt 0.605823994 0.832777023
vt 0.577046990 0.878556013
vt 0.624240994 0.921905994
vt 0.591796994 0.923828006
vt 0.624240994 0.921905994
vt 0.577046990 0.878556013
vt 0.614238977 0.877417028
vt 0.584580004 0.535561979
vt 0.606445014 0.576452017
vt 0.577148020 0.587302029
vt 0.606445014 0.576452017
vt 0.622070014 0.584178984
vt 0.577148020 0.587302029
vt 0.781250000 0.617187977
vt 0.781250000 0.609375000
vt 0.785156012 0.617187977
vt 0.500618994 0.591796994
vt 0.546494007 0.535561979
vt 0.539062977 0.589254975
vt 0.785156012 0.570591986
vt 0.744140983 0.590817988
vt 0.742870986 0.568826020
vt 0.744140983 0.590817988
vt 0.785156012 0.570591986
vt 0.785156012 0.589843988
vt 0.744140983 0.590817988
vt 0.785156012 0.609375000
vt 0.741210997 0.610741973
vt 0.785156012 0.609375000
vt 0.744140983 0.590817988
vt 0.785156012 0.589843988
vt 0.785156012 0.609375000
vt 0.781250000 0.605468988
vt 0.741210997 0.610741973
vt 0.781250000 0.605468988
vt 0.781250000 0.609375000
vt 0.738281012 0.629882991
vt 0.738281012 0.629882991
vt 0.781250000 0.609375000
vt 0.781250000 0.617187977
vt 0.571289003 0.614257991
vt 0.537109017 0.710937977
vt 0.512254000 0.615234017
vt 0.661132991 0.920898020
vt 0.631226003 0.953270972
vt 0.624240994 0.921905994
vt 0.631226003 0.953270972
vt 0.661132991 0.920898020
vt 0.663504004 0.952373981
vt 0.747070014 0.921875000
vt 0.712890983 0.952148020
vt 0.717773020 0.921875000
vt 0.712890983 0.952148020
vt 0.747070014 0.921875000
vt 0.742407978 0.952904999
vt 0.717773020 0.921875000
vt 0.685379028 0.952244997
vt 0.683311999 0.921037018
vt 0.685379028 0.952244997
vt 0.717773020 0.921875000
vt 0.712890983 0.952148020
vt 0.683311999 0.921037018
vt 0.663504004 0.952373981
vt 0.661132991 0.920898020
vt 0.663504004 0.952373981
vt 0.683311999 0.921037018
vt 0.685379028 0.952244997
vt 0.624240994 0.921905994
vt 0.604492009 0.955078006
vt 0.591796994 0.923828006
vt 0.604492009 0.955078006
vt 0.624240994 0.921905994
vt 0.631226003 0.953270972
vt 0.663504004 0.952373981
vt 0.637695014 0.980468988
vt 0.631226003 0.953270972
vt 0.637695014 0.980468988
vt 0.663504004 0.952373981
vt 0.666342020 0.980485976
vt 0.742407978 0.952904999
vt 0.708984017 0.980468988
vt 0.712890983 0.952148020
vt 0.708984017 0.980468988
vt 0.742407978 0.952904999
vt 0.738281012 0.980468988
vt 0.712890983 0.952148020
vt 0.687500000 0.980468988
vt 0.685379028 0.952244997
vt 0.687500000 0.980468988
vt 0.712890983 0.952148020
vt 0.708984017 0.980468988
vt 0.685379028 0.952244997
vt 0.666342020 0.980485976
vt 0.663504004 0.952373981
vt 0.666342020 0.980485976
vt 0.685379028 0.952244997
vt 0.687500000 0.980468988
vt 0.631226003 0.953270972
vt 0.615234017 0.981445014
vt 0.604492009 0.955078006
vt 0.615234017 0.981445014
vt 0.631226003 0.953270972
vt 0.637695014 0.980468988
vt 0.666342020 0.980485976
vt 0.639518976 0.992693007
vt 0.637695014 0.980468988
vt 0.738281012 0.980468988
vt 0.715812027 0.992156029
vt 0.708984017 0.980468988
vt 0.708984017 0.980468988
vt 0.685859978 0.991764009
vt 0.687500000 0.980468988
vt 0.685859978 0.991764009
vt 0.708984017 0.980468988
vt 0.715812027 0.992156029
vt 0.685859978 0.991764009
vt 0.666342020 0.980485976
vt 0.687500000 0.980468988
vt 0.666342020 0.980485976
vt 0.685859978 0.991764009
vt 0.639518976 0.992693007
vt 0.637695014 0.980468988
vt 0.639518976 0.992693007
vt 0.615234017 0.981445014
vt 0.503664017 0.565295994
vt 0.503464997 0.565297008
vt 0.506848991 0.565295994
vt 0.501191974 0.565295994
vt 0.503464997 0.565297008
vt 0.503664017 0.565295994
vt 0.499808013 0.565295994
vt 0.503464997 0.565297008
vt 0.501191974 0.565295994
vt 0.498140007 0.565298021
vt 0.503464997 0.565297008
vt 0.499808013 0.565298021
vt 0.506848991 0.565295994
vt 0.503464997 0.565297008
vt 0.508481979 0.565295994
vt 0.346322000 0.559849977
vt 0.261361003 0.535561979
vt 0.349251986 0.535561979
vt 0.261361003 0.535561979
vt 0.346322000 0.559849977
vt 0.259407997 0.568638980
vt 0.416635007 0.535561979
vt 0.346322000 0.559849977
vt 0.349251986 0.535561979
vt 0.346322000 0.559849977
vt 0.416635007 0.535561979
vt 0.395150006 0.576452017
vt 0.454721004 0.535561979
vt 0.424447000 0.586914003
vt 0.416635007 0.535561979
vt 0.424447000 0.586914003
vt 0.454721004 0.535561979
vt 0.462532997 0.588867009
vt 0.259407997 0.568638980
vt 0.210938007 0.535561979
vt 0.261361003 0.535561979
vt 0.210938007 0.535561979
vt 0.259407997 0.568638980
vt 0.210938007 0.570591986
vt 0.430307001 0.614257991
vt 0.381478995 0.710937977
vt 0.385385007 0.614257991
vt 0.381478995 0.710937977
vt 0.430307001 0.614257991
vt 0.418588012 0.711914003
vt 0.381478995 0.710937977
vt 0.406868994 0.771484017
vt 0.368782997 0.774414003
vt 0.406868994 0.771484017
vt 0.381478995 0.710937977
vt 0.418588012 0.711914003
vt 0.218750000 0.617187977
vt 0.272103995 0.701171994
vt 0.227182001 0.709960997
vt 0.272103995 0.701171994
vt 0.218750000 0.617187977
vt 0.263314009 0.629882991
vt 0.227182001 0.709960997
vt 0.278939009 0.771484017
vt 0.233041003 0.771484017
vt 0.278939009 0.771484017
vt 0.227182001 0.709960997
vt 0.272103995 0.701171994
vt 0.321907997 0.630859017
vt 0.272103995 0.701171994
vt 0.263314009 0.629882991
vt 0.272103995 0.701171994
vt 0.321907997 0.630859017
vt 0.324838012 0.704101980
vt 0.272103995 0.701171994
vt 0.324838012 0.770507991
vt 0.278939009 0.771484017
vt 0.324838012 0.770507991
vt 0.272103995 0.701171994
vt 0.324838012 0.704101980
vt 0.321907997 0.630859017
vt 0.381478995 0.710937977
vt 0.324838012 0.704101980
vt 0.381478995 0.710937977
vt 0.321907997 0.630859017
vt 0.385385007 0.614257991
vt 0.324838012 0.704101980
vt 0.368782997 0.774414003
vt 0.324838012 0.770507991
vt 0.368782997 0.774414003
vt 0.324838012 0.704101980
vt 0.381478995 0.710937977
vt 0.396126986 0.833007991
vt 0.346322000 0.876953006
vt 0.355111003 0.829101980
vt 0.346322000 0.876953006
vt 0.396126986 0.833007991
vt 0.387338012 0.876953006
vt 0.387338012 0.876953006
vt 0.340463012 0.920898020
vt 0.346322000 0.876953006
vt 0.340463012 0.920898020
vt 0.387338012 0.876953006
vt 0.377572000 0.921875000
vt 0.242807001 0.829101980
vt 0.278939009 0.876953006
vt 0.247690007 0.876953006
vt 0.278939009 0.876953006
vt 0.242807001 0.829101980
vt 0.276986003 0.825195014
vt 0.247690007 0.876953006
vt 0.283822000 0.921875000
vt 0.254525006 0.921875000
vt 0.283822000 0.921875000
vt 0.247690007 0.876953006
vt 0.278939009 0.876953006
vt 0.276986003 0.825195014
vt 0.321907997 0.875976980
vt 0.278939009 0.876953006
vt 0.321907997 0.875976980
vt 0.276986003 0.825195014
vt 0.325814009 0.820312977
vt 0.278939009 0.876953006
vt 0.318978995 0.920898020
vt 0.283822000 0.921875000
vt 0.318978995 0.920898020
vt 0.278939009 0.876953006
vt 0.321907997 0.875976980
vt 0.325814009 0.820312977
vt 0.346322000 0.876953006
vt 0.321907997 0.875976980
vt 0.346322000 0.876953006
vt 0.325814009 0.820312977
vt 0.355111003 0.829101980
vt 0.321907997 0.875976980
vt 0.340463012 0.920898020
vt 0.318978995 0.920898020
vt 0.340463012 0.920898020
vt 0.321907997 0.875976980
vt 0.346322000 0.876953006
vt 0.385385007 0.614257991
vt 0.424447000 0.586914003
vt 0.430307001 0.614257991
vt 0.424447000 0.586914003
vt 0.385385007 0.614257991
vt 0.379525006 0.583984017
vt 0.500618994 0.616203010
vt 0.462532997 0.588867009
vt 0.500618994 0.591796994
vt 0.462532997 0.588867009
vt 0.500618994 0.616203010
vt 0.489342004 0.615234017
vt 0.259407997 0.568638980
vt 0.324838012 0.591796994
vt 0.257454991 0.590820014
vt 0.324838012 0.591796994
vt 0.259407997 0.568638980
vt 0.346322000 0.559849977
vt 0.257454991 0.590820014
vt 0.319954991 0.613281012
vt 0.260385007 0.610351980
vt 0.319954991 0.613281012
vt 0.257454991 0.590820014
vt 0.324838012 0.591796994
vt 0.260385007 0.610351980
vt 0.321907997 0.630859017
vt 0.263314009 0.629882991
vt 0.321907997 0.630859017
vt 0.260385007 0.610351980
vt 0.319954991 0.613281012
vt 0.396126986 0.833007991
vt 0.368782997 0.774414003
vt 0.406868994 0.771484017
vt 0.368782997 0.774414003
vt 0.396126986 0.833007991
vt 0.355111003 0.829101980
vt 0.355111003 0.829101980
vt 0.324838012 0.770507991
vt 0.368782997 0.774414003
vt 0.324838012 0.770507991
vt 0.355111003 0.829101980
vt 0.325814009 0.820312977
vt 0.324838012 0.770507991
vt 0.276986003 0.825195014
vt 0.278939009 0.771484017
vt 0.276986003 0.825195014
vt 0.324838012 0.770507991
vt 0.325814009 0.820312977
vt 0.278939009 0.771484017
vt 0.242807001 0.829101980
vt 0.233041003 0.771484017
vt 0.242807001 0.829101980
vt 0.278939009 0.771484017
vt 0.276986003 0.825195014
vt 0.346322000 0.559849977
vt 0.379525006 0.583984017
vt 0.324838012 0.591796994
vt 0.379525006 0.583984017
vt 0.346322000 0.559849977
vt 0.395150006 0.576452017
vt 0.324838012 0.591796994
vt 0.385385007 0.614257991
vt 0.319954991 0.613281012
vt 0.385385007 0.614257991
vt 0.324838012 0.591796994
vt 0.379525006 0.583984017
vt 0.319954991 0.613281012
vt 0.385385007 0.614257991
vt 0.321907997 0.630859017
vt 0.462532997 0.588867009
vt 0.489342004 0.615234017
vt 0.430307001 0.614257991
vt 0.424447000 0.586914003
vt 0.462532997 0.588867009
vt 0.430307001 0.614257991
vt 0.430307001 0.614257991
vt 0.464486003 0.710937977
vt 0.418588012 0.711914003
vt 0.418588012 0.711914003
vt 0.449838012 0.772460997
vt 0.406868994 0.771484017
vt 0.449838012 0.772460997
vt 0.418588012 0.711914003
vt 0.464486003 0.710937977
vt 0.406868994 0.771484017
vt 0.434213012 0.843750000
vt 0.396126986 0.833007991
vt 0.434213012 0.843750000
vt 0.406868994 0.771484017
vt 0.449838012 0.772460997
vt 0.434213012 0.843750000
vt 0.387338012 0.876953006
vt 0.396126986 0.833007991
vt 0.387338012 0.876953006
vt 0.434213012 0.843750000
vt 0.424447000 0.878906012
vt 0.424447000 0.878906012
vt 0.377572000 0.921875000
vt 0.387338012 0.876953006
vt 0.377572000 0.921875000
vt 0.424447000 0.878906012
vt 0.409799010 0.923828006
vt 0.416635007 0.535561979
vt 0.424447000 0.586914003
vt 0.395150006 0.576452017
vt 0.395150006 0.576452017
vt 0.424447000 0.586914003
vt 0.379525006 0.583984017
vt 0.218750000 0.617187977
vt 0.214844003 0.617187977
vt 0.217416003 0.610351980
vt 0.500618994 0.591796994
vt 0.462532997 0.588867009
vt 0.454721004 0.535561979
vt 0.210938007 0.570591986
vt 0.257454991 0.590820014
vt 0.210938007 0.589843988
vt 0.257454991 0.590820014
vt 0.210938007 0.570591986
vt 0.259407997 0.568638980
vt 0.257454991 0.590820014
vt 0.210938007 0.609375000
vt 0.210938007 0.589843988
vt 0.210938007 0.609375000
vt 0.257454991 0.590820014
vt 0.260385007 0.610351980
vt 0.210938007 0.609375000
vt 0.260385007 0.610351980
vt 0.216440007 0.603515983
vt 0.216440007 0.603515983
vt 0.263314009 0.629882991
vt 0.217416003 0.610351980
vt 0.263314009 0.629882991
vt 0.218750000 0.617187977
vt 0.217416003 0.610351980
vt 0.430307001 0.614257991
vt 0.489342004 0.615234017
vt 0.464486003 0.710937977
vt 0.340463012 0.920898020
vt 0.370736003 0.953125000
vt 0.338510007 0.952148020
vt 0.370736003 0.953125000
vt 0.340463012 0.920898020
vt 0.377572000 0.921875000
vt 0.254525006 0.921875000
vt 0.288704991 0.952148020
vt 0.259407997 0.953125000
vt 0.288704991 0.952148020
vt 0.254525006 0.921875000
vt 0.283822000 0.921875000
vt 0.283822000 0.921875000
vt 0.317025006 0.952148020
vt 0.288704991 0.952148020
vt 0.317025006 0.952148020
vt 0.283822000 0.921875000
vt 0.318978995 0.920898020
vt 0.318978995 0.920898020
vt 0.338510007 0.952148020
vt 0.317025006 0.952148020
vt 0.338510007 0.952148020
vt 0.318978995 0.920898020
vt 0.340463012 0.920898020
vt 0.377572000 0.921875000
vt 0.397103995 0.955078006
vt 0.370736003 0.953125000
vt 0.397103995 0.955078006
vt 0.377572000 0.921875000
vt 0.409799010 0.923828006
vt 0.338510007 0.952148020
vt 0.363900006 0.980468988
vt 0.335579991 0.980468988
vt 0.363900006 0.980468988
vt 0.338510007 0.952148020
vt 0.370736003 0.953125000
vt 0.259407997 0.953125000
vt 0.292611003 0.980468988
vt 0.263314009 0.980468988
vt 0.292611003 0.980468988
vt 0.259407997 0.953125000
vt 0.288704991 0.952148020
vt 0.288704991 0.952148020
vt 0.314096004 0.980468988
vt 0.292611003 0.980468988
vt 0.314096004 0.980468988
vt 0.288704991 0.952148020
vt 0.317025006 0.952148020
vt 0.317025006 0.952148020
vt 0.335579991 0.980468988
vt 0.314096004 0.980468988
vt 0.335579991 0.980468988
vt 0.317025006 0.952148020
vt 0.338510007 0.952148020
vt 0.370736003 0.953125000
vt 0.386361003 0.981445014
vt 0.363900006 0.980468988
vt 0.386361003 0.981445014
vt 0.370736003 0.953125000
vt 0.397103995 0.955078006
vt 0.335579991 0.980468988
vt 0.363900006 0.980468988
vt 0.361947000 0.993164003
vt 0.263314009 0.980468988
vt 0.292611003 0.980468988
vt 0.285775006 0.992187977
vt 0.292611003 0.980468988
vt 0.316049010 0.992187977
vt 0.285775006 0.992187977
vt 0.316049010 0.992187977
vt 0.292611003 0.980468988
vt 0.314096004 0.980468988
vt 0.335579991 0.980468988
vt 0.316049010 0.992187977
vt 0.314096004 0.980468988
vt 0.316049010 0.992187977
vt 0.335579991 0.980468988
vt 0.361947000 0.993164003
vt 0.363900006 0.980468988
vt 0.386361003 0.981445014
vt 0.361947000 0.993164003
vt 0.492639005 0.565295994
vt 0.489445001 0.565295994
vt 0.492852002 0.565297008
vt 0.495088011 0.565295994
vt 0.492639005 0.565295994
vt 0.492852002 0.565297008
vt 0.496472001 0.565295994
vt 0.495088011 0.565295994
vt 0.492852002 0.565297008
vt 0.498140007 0.565298021
vt 0.496472001 0.565298021
vt 0.492852002 0.565297008
vt 0.489445001 0.565295994
vt 0.487612009 0.565295994
vt 0.492852002 0.565297008
vt 0.546494007 0.535561979
vt 0.500618994 0.591796994
vt 0.500618994 0.535561979
vt 0.500618994 0.591796994
vt 0.454721004 0.535561979
vt 0.500618994 0.535561979
vt 0.741210997 0.610741973
vt 0.781250000 0.605468988
vt 0.738281012 0.629882991
vt 0.216440007 0.603515983
vt 0.260385007 0.610351980
vt 0.263314009 0.629882991
vn 0.740779519 -0.593234885 -0.315147705
vn -0.040696668 -0.586038000 -0.809260924
vn 0.024171274 -0.964197819 -0.264080130
vn -0.040696668 -0.586038000 -0.809260924
vn 0.740779519 -0.593234885 -0.315147705
vn 0.139230475 -0.283184640 -0.948905335
vn 0.610587237 0.066957198 -0.789113401
vn 0.740779519 -0.593234885 -0.315147705
vn 0.955143570 -0.060572466 -0.289882281
vn 0.740779519 -0.593234885 -0.315147705
vn 0.610587237 0.066957198 -0.789113401
vn 0.139230475 -0.283184640 -0.948905335
vn 0.370022208 0.749590400 -0.548814903
vn 0.717854515 0.668382437 -0.194807118
vn 0.420779134 0.906896227 0.022003492
vn 0.717854515 0.668382437 -0.194807118
vn 0.370022208 0.749590400 -0.548814903
vn 0.610587237 0.066957198 -0.789113401
vn 0.024171274 -0.964197819 -0.264080130
vn -0.185803595 -0.698937824 -0.690625037
vn -0.209878165 -0.942105752 -0.261510819
vn -0.185803595 -0.698937824 -0.690625037
vn 0.024171274 -0.964197819 -0.264080130
vn -0.040696668 -0.586038000 -0.809260924
vn 0.145354355 0.973763449 -0.175090997
vn 0.856316757 0.510880477 -0.075648861
vn -0.256829727 0.959046306 -0.119451553
vn 0.856316757 0.510880477 -0.075648861
vn 0.145354355 0.973763449 -0.175090997
vn 0.942893940 0.297246253 -0.150318606
vn 0.856316757 0.510880477 -0.075648861
vn -0.012075414 0.998864132 0.046093707
vn -0.256829727 0.959046306 -0.119451553
vn -0.012075414 0.998864132 0.046093707
vn 0.856316757 0.510880477 -0.075648861
vn 0.910207013 0.408004712 0.071100970
vn -0.890255213 0.386211200 0.241426107
vn -0.441975465 -0.817998082 0.368153265
vn -0.425032139 -0.699297584 0.574743917
vn -0.441975465 -0.817998082 0.368153265
vn -0.890255213 0.386211200 0.241426107
vn -0.943411492 0.313654041 0.107684255
vn -0.943411492 0.313654041 0.107684255
vn -0.816644049 -0.536933209 0.211648827
vn -0.441975465 -0.817998082 0.368153265
vn -0.816644049 -0.536933209 0.211648827
vn -0.943411492 0.313654041 0.107684255
vn -0.943743157 0.315997348 0.097439876
vn -0.441975465 -0.817998082 0.368153265
vn 0.656442385 -0.715919529 0.237786928
vn -0.425032139 -0.699297584 0.574743917
vn 0.656442385 -0.715919529 0.237786928
vn -0.441975465 -0.817998082 0.368153265
vn 0.835623249 -0.510223207 0.203484801
vn -0.441975465 -0.817998082 0.368153265
vn 0.613412287 -0.779073400 0.129499047
vn 0.835623249 -0.510223207 0.203484801
vn 0.613412287 -0.779073400 0.129499047
vn -0.441975465 -0.817998082 0.368153265
vn -0.816644049 -0.536933209 0.211648827
vn 0.656442385 -0.715919529 0.237786928
vn 0.856316757 0.510880477 -0.075648861
vn 0.942893940 0.297246253 -0.150318606
vn 0.856316757 0.510880477 -0.075648861
vn 0.656442385 -0.715919529 0.237786928
vn 0.835623249 -0.510223207 0.203484801
vn 0.835623249 -0.510223207 0.203484801
vn 0.910207013 0.408004712 0.071100970
vn 0.856316757 0.510880477 -0.075648861
vn 0.910207013 0.408004712 0.071100970
vn 0.835623249 -0.510223207 0.203484801
vn 0.613412287 -0.779073400 0.129499047
vn 0.350944379 0.905351882 0.239115062
vn 0.891502398 0.447288064 0.071811300
vn -0.101050605 0.967809332 0.230507857
vn 0.891502398 0.447288064 0.071811300
vn 0.350944379 0.905351882 0.239115062
vn 0.915897715 0.399233768 0.041758526
vn -0.101050605 0.967809332 0.230507857
vn 0.898959121 0.437859109 0.012324770
vn -0.577021099 0.813936154 0.067487695
vn 0.898959121 0.437859109 0.012324770
vn -0.101050605 0.967809332 0.230507857
vn 0.891502398 0.447288064 0.071811300
vn -0.975681950 0.185774183 0.116330070
vn -0.575995128 -0.817220175 -0.019514035
vn -0.282648511 -0.944839453 -0.165493887
vn -0.575995128 -0.817220175 -0.019514035
vn -0.975681950 0.185774183 0.116330070
vn -0.975117861 0.182054710 0.126496003
vn -0.975117861 0.182054710 0.126496003
vn -0.588587384 -0.789472912 -0.174061520
vn -0.575995128 -0.817220175 -0.019514035
vn -0.588587384 -0.789472912 -0.174061520
vn -0.975117861 0.182054710 0.126496003
vn -0.997316973 0.069135523 -0.024065203
vn -0.282648511 -0.944839453 -0.165493887
vn 0.654961878 -0.750630530 -0.087055993
vn 0.859125938 -0.496499147 -0.124061354
vn 0.654961878 -0.750630530 -0.087055993
vn -0.282648511 -0.944839453 -0.165493887
vn -0.575995128 -0.817220175 -0.019514035
vn -0.575995128 -0.817220175 -0.019514035
vn 0.650802595 -0.737209336 -0.181599500
vn 0.654961878 -0.750630530 -0.087055993
vn 0.650802595 -0.737209336 -0.181599500
vn -0.575995128 -0.817220175 -0.019514035
vn -0.588587384 -0.789472912 -0.174061520
vn 0.859125938 -0.496499147 -0.124061354
vn 0.891502398 0.447288064 0.071811300
vn 0.915897715 0.399233768 0.041758526
vn 0.891502398 0.447288064 0.071811300
vn 0.859125938 -0.496499147 -0.124061354
vn 0.654961878 -0.750630530 -0.087055993
vn 0.654961878 -0.750630530 -0.087055993
vn 0.898959121 0.437859109 0.012324770
vn 0.891502398 0.447288064 0.071811300
vn 0.898959121 0.437859109 0.012324770
vn 0.654961878 -0.750630530 -0.087055993
vn 0.650802595 -0.737209336 -0.181599500
vn 0.942893940 0.297246253 -0.150318606
vn 0.717854515 0.668382437 -0.194807118
vn 0.965351260 -0.164043930 -0.202944655
vn 0.717854515 0.668382437 -0.194807118
vn 0.942893940 0.297246253 -0.150318606
vn 0.145354355 0.973763449 -0.175090997
vn 0.420779134 0.906896227 0.022003492
vn 0.514746311 0.797553946 0.314553556
vn 0.204778439 0.977509602 -0.050406043
vn 0.514746311 0.797553946 0.314553556
vn 0.420779134 0.906896227 0.022003492
vn -0.890255213 0.386211200 0.241426107
vn 0.024171274 -0.964197819 -0.264080130
vn 0.743747170 -0.642412360 -0.184787734
vn 0.740779519 -0.593234885 -0.315147705
vn 0.743747170 -0.642412360 -0.184787734
vn 0.024171274 -0.964197819 -0.264080130
vn 0.021318740 -0.999016138 0.038887882
vn 0.021318740 -0.999016138 0.038887882
vn 0.652269636 -0.757511331 -0.026849695
vn 0.743747170 -0.642412360 -0.184787734
vn 0.652269636 -0.757511331 -0.026849695
vn 0.021318740 -0.999016138 0.038887882
vn 0.079521946 -0.864764283 0.495841703
vn 0.079521946 -0.864764283 0.495841703
vn 0.656442385 -0.715919529 0.237786928
vn 0.652269636 -0.757511331 -0.026849695
vn 0.656442385 -0.715919529 0.237786928
vn 0.079521946 -0.864764283 0.495841703
vn -0.425032139 -0.699297584 0.574743917
vn 0.350944379 0.905351882 0.239115062
vn 0.910207013 0.408004712 0.071100970
vn 0.915897715 0.399233768 0.041758526
vn 0.910207013 0.408004712 0.071100970
vn 0.350944379 0.905351882 0.239115062
vn -0.012075414 0.998864132 0.046093707
vn 0.915897715 0.399233768 0.041758526
vn 0.613412287 -0.779073400 0.129499047
vn 0.859125938 -0.496499147 -0.124061354
vn 0.613412287 -0.779073400 0.129499047
vn 0.915897715 0.399233768 0.041758526
vn 0.910207013 0.408004712 0.071100970
vn 0.613412287 -0.779073400 0.129499047
vn -0.282648511 -0.944839453 -0.165493887
vn 0.859125938 -0.496499147 -0.124061354
vn -0.282648511 -0.944839453 -0.165493887
vn 0.613412287 -0.779073400 0.129499047
vn -0.816644049 -0.536933209 0.211648827
vn -0.816644049 -0.536933209 0.211648827
vn -0.975681950 0.185774183 0.116330070
vn -0.282648511 -0.944839453 -0.165493887
vn -0.975681950 0.185774183 0.116330070
vn -0.816644049 -0.536933209 0.211648827
vn -0.943743157 0.315997348 0.097439876
vn 0.740779519 -0.593234885 -0.315147705
vn 0.965351260 -0.164043930 -0.202944655
vn 0.955143570 -0.060572466 -0.289882281
vn 0.965351260 -0.164043930 -0.202944655
vn 0.740779519 -0.593234885 -0.315147705
vn 0.743747170 -0.642412360 -0.184787734
vn 0.743747170 -0.642412360 -0.184787734
vn 0.942893940 0.297246253 -0.150318606
vn 0.965351260 -0.164043930 -0.202944655
vn 0.942893940 0.297246253 -0.150318606
vn 0.743747170 -0.642412360 -0.184787734
vn 0.652269636 -0.757511331 -0.026849695
vn 0.652269636 -0.757511331 -0.026849695
vn 0.656442385 -0.715919529 0.237786928
vn 0.942893940 0.297246253 -0.150318606
vn 0.420779134 0.906896227 0.022003492
vn 0.145354355 0.973763449 -0.175090997
vn -0.890255213 0.386211200 0.241426107
vn 0.717854515 0.668382437 -0.194807118
vn 0.145354355 0.973763449 -0.175090997
vn 0.420779134 0.906896227 0.022003492
vn 0.145354355 0.973763449 -0.175090997
vn -0.256829727 0.959046306 -0.119451553
vn -0.943411492 0.313654041 0.107684255
vn -0.256829727 0.959046306 -0.119451553
vn -0.943743157 0.315997348 0.097439876
vn -0.943411492 0.313654041 0.107684255
vn -0.943743157 0.315997348 0.097439876
vn -0.256829727 0.959046306 -0.119451553
vn -0.012075414 0.998864132 0.046093707
vn -0.012075414 0.998864132 0.046093707
vn -0.975681950 0.185774183 0.116330070
vn -0.943743157 0.315997348 0.097439876
vn -0.975681950 0.185774183 0.116330070
vn -0.012075414 0.998864132 0.046093707
vn 0.350944379 0.905351882 0.239115062
vn -0.975681950 0.185774183 0.116330070
vn -0.101050605 0.967809332 0.230507857
vn -0.975117861 0.182054710 0.126496003
vn -0.101050605 0.967809332 0.230507857
vn -0.975681950 0.185774183 0.116330070
vn 0.350944379 0.905351882 0.239115062
vn -0.975117861 0.182054710 0.126496003
vn -0.577021099 0.813936154 0.067487695
vn -0.997316973 0.069135523 -0.024065203
vn -0.577021099 0.813936154 0.067487695
vn -0.975117861 0.182054710 0.126496003
vn -0.101050605 0.967809332 0.230507857
vn 0.610587237 0.066957198 -0.789113401
vn 0.955143570 -0.060572466 -0.289882281
vn 0.717854515 0.668382437 -0.194807118
vn 0.955143570 -0.060572466 -0.289882281
vn 0.965351260 -0.164043930 -0.202944655
vn 0.717854515 0.668382437 -0.194807118
vn -0.890255213 0.386211200 0.241426107
vn 0.443886170 0.179302525 0.877961088
vn 0.514746311 0.797553946 0.314553556
vn 0.204778439 0.977509602 -0.050406043
vn 0.370022208 0.749590400 -0.548814903
vn 0.420779134 0.906896227 0.022003492
vn -0.209878165 -0.942105752 -0.261510819
vn 0.021318740 -0.999016138 0.038887882
vn 0.024171274 -0.964197819 -0.264080130
vn 0.021318740 -0.999016138 0.038887882
vn -0.209878165 -0.942105752 -0.261510819
vn -0.216250074 -0.976259710 -0.012364616
vn 0.021318740 -0.999016138 0.038887882
vn -0.206295021 -0.937615696 0.279855623
vn 0.079521946 -0.864764283 0.495841703
vn -0.206295021 -0.937615696 0.279855623
vn 0.021318740 -0.999016138 0.038887882
vn -0.216250074 -0.976259710 -0.012364616
vn -0.206295021 -0.937615696 0.279855623
vn -0.156075834 -0.604419880 0.781227843
vn 0.079521946 -0.864764283 0.495841703
vn -0.156075834 -0.604419880 0.781227843
vn 0.443886170 0.179302525 0.877961088
vn -0.425032139 -0.699297584 0.574743917
vn -0.425032139 -0.699297584 0.574743917
vn 0.443886170 0.179302525 0.877961088
vn -0.890255213 0.386211200 0.241426107
vn 0.145354355 0.973763449 -0.175090997
vn -0.943411492 0.313654041 0.107684255
vn -0.890255213 0.386211200 0.241426107
vn 0.898959121 0.437859109 0.012324770
vn -0.176827116 0.982795051 0.053348461
vn -0.577021099 0.813936154 0.067487695
vn -0.176827116 0.982795051 0.053348461
vn 0.898959121 0.437859109 0.012324770
vn 0.844112071 0.487044122 -0.224193745
vn -0.997316973 0.069135523 -0.024065203
vn -0.479167284 -0.834971905 -0.270593112
vn -0.588587384 -0.789472912 -0.174061520
vn -0.479167284 -0.834971905 -0.270593112
vn -0.997316973 0.069135523 -0.024065203
vn -0.996157150 0.052269088 0.070277126
vn -0.588587384 -0.789472912 -0.174061520
vn 0.717421196 -0.535445802 -0.445650783
vn 0.650802595 -0.737209336 -0.181599500
vn 0.717421196 -0.535445802 -0.445650783
vn -0.588587384 -0.789472912 -0.174061520
vn -0.479167284 -0.834971905 -0.270593112
vn 0.650802595 -0.737209336 -0.181599500
vn 0.844112071 0.487044122 -0.224193745
vn 0.898959121 0.437859109 0.012324770
vn 0.844112071 0.487044122 -0.224193745
vn 0.650802595 -0.737209336 -0.181599500
vn 0.717421196 -0.535445802 -0.445650783
vn -0.577021099 0.813936154 0.067487695
vn -0.996157150 0.052269088 0.070277126
vn -0.997316973 0.069135523 -0.024065203
vn -0.996157150 0.052269088 0.070277126
vn -0.577021099 0.813936154 0.067487695
vn -0.176827116 0.982795051 0.053348461
vn 0.844112071 0.487044122 -0.224193745
vn 0.136168281 0.660372507 0.738489236
vn -0.176827116 0.982795051 0.053348461
vn 0.136168281 0.660372507 0.738489236
vn 0.844112071 0.487044122 -0.224193745
vn 0.837523372 0.323349434 0.440454022
vn -0.996157150 0.052269088 0.070277126
vn -0.224169458 -0.554666688 0.801307007
vn -0.479167284 -0.834971905 -0.270593112
vn -0.224169458 -0.554666688 0.801307007
vn -0.996157150 0.052269088 0.070277126
vn -0.444386073 0.187270632 0.876042652
vn -0.479167284 -0.834971905 -0.270593112
vn 0.689775864 -0.679819760 0.249107108
vn 0.717421196 -0.535445802 -0.445650783
vn 0.689775864 -0.679819760 0.249107108
vn -0.479167284 -0.834971905 -0.270593112
vn -0.224169458 -0.554666688 0.801307007
vn 0.717421196 -0.535445802 -0.445650783
vn 0.837523372 0.323349434 0.440454022
vn 0.844112071 0.487044122 -0.224193745
vn 0.837523372 0.323349434 0.440454022
vn 0.717421196 -0.535445802 -0.445650783
vn 0.689775864 -0.679819760 0.249107108
vn -0.176827116 0.982795051 0.053348461
vn -0.444386073 0.187270632 0.876042652
vn -0.996157150 0.052269088 0.070277126
vn -0.444386073 0.187270632 0.876042652
vn -0.176827116 0.982795051 0.053348461
vn 0.136168281 0.660372507 0.738489236
vn 0.837523372 0.323349434 0.440454022
vn 0.159006613 0.011845337 0.987206455
vn 0.136168281 0.660372507 0.738489236
vn -0.444386073 0.187270632 0.876042652
vn 0.159006613 0.011845337 0.987206455
vn -0.224169458 -0.554666688 0.801307007
vn -0.224169458 -0.554666688 0.801307007
vn 0.331358291 -0.186520466 0.924884749
vn 0.689775864 -0.679819760 0.249107108
vn 0.331358291 -0.186520466 0.924884749
vn -0.224169458 -0.554666688 0.801307007
vn 0.159006613 0.011845337 0.987206455
vn 0.331358291 -0.186520466 0.924884749
vn 0.837523372 0.323349434 0.440454022
vn 0.689775864 -0.679819760 0.249107108
vn 0.837523372 0.323349434 0.440454022
vn 0.331358291 -0.186520466 0.924884749
vn 0.159006613 0.011845337 0.987206455
vn 0.136168281 0.660372507 0.738489236
vn 0.159006613 0.011845337 0.987206455
vn -0.444386073 0.187270632 0.876042652
vn 0.139230475 -0.283184640 -0.948905335
vn -0.078571358 -0.060229446 -0.995087411
vn -0.040696668 -0.586038000 -0.809260924
vn 0.610587237 0.066957198 -0.789113401
vn -0.078571358 -0.060229446 -0.995087411
vn 0.139230475 -0.283184640 -0.948905335
vn 0.370022208 0.749590400 -0.548814903
vn -0.078571358 -0.060229446 -0.995087411
vn 0.610587237 0.066957198 -0.789113401
vn 0.083617660 0.690287064 -0.718687593
vn -0.078571358 -0.060229446 -0.995087411
vn 0.370022208 0.749590400 -0.548814903
vn -0.040696668 -0.586038000 -0.809260924
vn -0.078571358 -0.060229446 -0.995087411
vn -0.185803595 -0.698937824 -0.690625037
vn -0.915689743 -0.251250269 -0.313664785
vn -0.242633406 -0.491984963 -0.836109937
vn -0.261602606 -0.166337683 -0.950734375
vn -0.242633406 -0.491984963 -0.836109937
vn -0.915689743 -0.251250269 -0.313664785
vn -0.432713445 -0.863891488 -0.257780085
vn -0.494215661 0.263977867 -0.828291353
vn -0.915689743 -0.251250269 -0.313664785
vn -0.261602606 -0.166337683 -0.950734375
vn -0.915689743 -0.251250269 -0.313664785
vn -0.494215661 0.263977867 -0.828291353
vn -0.958278077 0.254633786 -0.129864398
vn -0.117892850 0.819300533 -0.561113102
vn -0.634514565 0.749535922 -0.188645617
vn -0.494215661 0.263977867 -0.828291353
vn -0.634514565 0.749535922 -0.188645617
vn -0.117892850 0.819300533 -0.561113102
vn -0.018781822 0.993213964 -0.114774844
vn -0.432713445 -0.863891488 -0.257780085
vn -0.185803595 -0.698937824 -0.690625037
vn -0.242633406 -0.491984963 -0.836109937
vn -0.185803595 -0.698937824 -0.690625037
vn -0.432713445 -0.863891488 -0.257780085
vn -0.209878165 -0.942105752 -0.261510819
vn -0.407765706 0.895020694 -0.180734851
vn -0.987955199 0.060041066 -0.142616952
vn -0.981627548 0.124293043 -0.144770843
vn -0.987955199 0.060041066 -0.142616952
vn -0.407765706 0.895020694 -0.180734851
vn -0.182695398 0.981988299 -0.048180621
vn -0.987955199 0.060041066 -0.142616952
vn -0.452640380 0.889233243 0.066188564
vn -0.993682788 -0.109794392 -0.023231625
vn -0.452640380 0.889233243 0.066188564
vn -0.987955199 0.060041066 -0.142616952
vn -0.182695398 0.981988299 -0.048180621
vn 0.776433572 0.602963215 0.183265572
vn 0.747837215 -0.571419535 0.337963335
vn 0.646874194 0.729544114 0.222079182
vn 0.747837215 -0.571419535 0.337963335
vn 0.776433572 0.602963215 0.183265572
vn 0.687595326 -0.511729663 0.515116899
vn 0.646874194 0.729544114 0.222079182
vn 0.955019013 -0.087989050 0.283190063
vn 0.648292098 0.734952314 0.198903123
vn 0.955019013 -0.087989050 0.283190063
vn 0.646874194 0.729544114 0.222079182
vn 0.747837215 -0.571419535 0.337963335
vn -0.525318121 -0.832520264 0.175928627
vn 0.747837215 -0.571419535 0.337963335
vn 0.687595326 -0.511729663 0.515116899
vn 0.747837215 -0.571419535 0.337963335
vn -0.525318121 -0.832520264 0.175928627
vn -0.515868969 -0.853500440 0.073594869
vn 0.747837215 -0.571419535 0.337963335
vn -0.146486647 -0.988050835 0.047929206
vn 0.955019013 -0.087989050 0.283190063
vn -0.146486647 -0.988050835 0.047929206
vn 0.747837215 -0.571419535 0.337963335
vn -0.515868969 -0.853500440 0.073594869
vn -0.525318121 -0.832520264 0.175928627
vn -0.987955199 0.060041066 -0.142616952
vn -0.515868969 -0.853500440 0.073594869
vn -0.987955199 0.060041066 -0.142616952
vn -0.525318121 -0.832520264 0.175928627
vn -0.981627548 0.124293043 -0.144770843
vn -0.515868969 -0.853500440 0.073594869
vn -0.993682788 -0.109794392 -0.023231625
vn -0.146486647 -0.988050835 0.047929206
vn -0.993682788 -0.109794392 -0.023231625
vn -0.515868969 -0.853500440 0.073594869
vn -0.987955199 0.060041066 -0.142616952
vn -0.777558862 0.609903569 0.153035463
vn -0.998005554 -0.055116872 -0.030774097
vn -0.992513477 -0.106218865 -0.060287230
vn -0.998005554 -0.055116872 -0.030774097
vn -0.777558862 0.609903569 0.153035463
vn -0.409046755 0.894496690 0.180433987
vn -0.409046755 0.894496690 0.180433987
vn -0.976781290 -0.102653163 -0.188044250
vn -0.998005554 -0.055116872 -0.030774097
vn -0.976781290 -0.102653163 -0.188044250
vn -0.409046755 0.894496690 0.180433987
vn -0.112904367 0.992635851 -0.043893865
vn 0.742494926 0.640869658 0.194903477
vn 0.906121908 -0.417327724 0.069142304
vn 0.742128269 0.633399175 0.219205650
vn 0.906121908 -0.417327724 0.069142304
vn 0.742494926 0.640869658 0.194903477
vn 0.723373592 -0.686537558 -0.073463107
vn 0.742128269 0.633399175 0.219205650
vn 0.970656674 -0.235895770 -0.046677683
vn 0.752832603 0.658027705 -0.015575982
vn 0.970656674 -0.235895770 -0.046677683
vn 0.742128269 0.633399175 0.219205650
vn 0.906121908 -0.417327724 0.069142304
vn 0.723373592 -0.686537558 -0.073463107
vn -0.201048710 -0.973405753 -0.109821016
vn 0.906121908 -0.417327724 0.069142304
vn -0.201048710 -0.973405753 -0.109821016
vn 0.723373592 -0.686537558 -0.073463107
vn -0.477049215 -0.864712919 -0.157148381
vn 0.906121908 -0.417327724 0.069142304
vn -0.186212543 -0.964552052 -0.186987239
vn 0.970656674 -0.235895770 -0.046677683
vn -0.186212543 -0.964552052 -0.186987239
vn 0.906121908 -0.417327724 0.069142304
vn -0.201048710 -0.973405753 -0.109821016
vn -0.477049215 -0.864712919 -0.157148381
vn -0.998005554 -0.055116872 -0.030774097
vn -0.201048710 -0.973405753 -0.109821016
vn -0.998005554 -0.055116872 -0.030774097
vn -0.477049215 -0.864712919 -0.157148381
vn -0.992513477 -0.106218865 -0.060287230
vn -0.201048710 -0.973405753 -0.109821016
vn -0.976781290 -0.102653163 -0.188044250
vn -0.186212543 -0.964552052 -0.186987239
vn -0.976781290 -0.102653163 -0.188044250
vn -0.201048710 -0.973405753 -0.109821016
vn -0.998005554 -0.055116872 -0.030774097
vn -0.981627548 0.124293043 -0.144770843
vn -0.634514565 0.749535922 -0.188645617
vn -0.407765706 0.895020694 -0.180734851
vn -0.634514565 0.749535922 -0.188645617
vn -0.981627548 0.124293043 -0.144770843
vn -0.962038914 0.214582723 -0.168627939
vn 0.514746311 0.797553946 0.314553556
vn -0.018781822 0.993213964 -0.114774844
vn 0.204778439 0.977509602 -0.050406043
vn -0.018781822 0.993213964 -0.114774844
vn 0.514746311 0.797553946 0.314553556
vn 0.776433572 0.602963215 0.183265572
vn -0.432713445 -0.863891488 -0.257780085
vn -0.897295009 -0.424304976 -0.121765980
vn -0.402403163 -0.915414637 0.009366832
vn -0.897295009 -0.424304976 -0.121765980
vn -0.432713445 -0.863891488 -0.257780085
vn -0.915689743 -0.251250269 -0.313664785
vn -0.402403163 -0.915414637 0.009366832
vn -0.780637287 -0.564035803 0.269200743
vn -0.360073120 -0.781705540 0.509199172
vn -0.780637287 -0.564035803 0.269200743
vn -0.402403163 -0.915414637 0.009366832
vn -0.897295009 -0.424304976 -0.121765980
vn -0.360073120 -0.781705540 0.509199172
vn -0.525318121 -0.832520264 0.175928627
vn 0.687595326 -0.511729663 0.515116899
vn -0.525318121 -0.832520264 0.175928627
vn -0.360073120 -0.781705540 0.509199172
vn -0.780637287 -0.564035803 0.269200743
vn -0.777558862 0.609903569 0.153035463
vn -0.993682788 -0.109794392 -0.023231625
vn -0.452640380 0.889233243 0.066188564
vn -0.993682788 -0.109794392 -0.023231625
vn -0.777558862 0.609903569 0.153035463
vn -0.992513477 -0.106218865 -0.060287230
vn -0.992513477 -0.106218865 -0.060287230
vn -0.146486647 -0.988050835 0.047929206
vn -0.993682788 -0.109794392 -0.023231625
vn -0.146486647 -0.988050835 0.047929206
vn -0.992513477 -0.106218865 -0.060287230
vn -0.477049215 -0.864712919 -0.157148381
vn -0.146486647 -0.988050835 0.047929206
vn 0.723373592 -0.686537558 -0.073463107
vn 0.955019013 -0.087989050 0.283190063
vn 0.723373592 -0.686537558 -0.073463107
vn -0.146486647 -0.988050835 0.047929206
vn -0.477049215 -0.864712919 -0.157148381
vn 0.955019013 -0.087989050 0.283190063
vn 0.742494926 0.640869658 0.194903477
vn 0.648292098 0.734952314 0.198903123
vn 0.742494926 0.640869658 0.194903477
vn 0.955019013 -0.087989050 0.283190063
vn 0.723373592 -0.686537558 -0.073463107
vn -0.915689743 -0.251250269 -0.313664785
vn -0.962038914 0.214582723 -0.168627939
vn -0.897295009 -0.424304976 -0.121765980
vn -0.962038914 0.214582723 -0.168627939
vn -0.915689743 -0.251250269 -0.313664785
vn -0.958278077 0.254633786 -0.129864398
vn -0.897295009 -0.424304976 -0.121765980
vn -0.981627548 0.124293043 -0.144770843
vn -0.780637287 -0.564035803 0.269200743
vn -0.981627548 0.124293043 -0.144770843
vn -0.897295009 -0.424304976 -0.121765980
vn -0.962038914 0.214582723 -0.168627939
vn -0.780637287 -0.564035803 0.269200743
vn -0.981627548 0.124293043 -0.144770843
vn -0.525318121 -0.832520264 0.175928627
vn -0.018781822 0.993213964 -0.114774844
vn 0.776433572 0.602963215 0.183265572
vn -0.407765706 0.895020694 -0.180734851
vn -0.634514565 0.749535922 -0.188645617
vn -0.018781822 0.993213964 -0.114774844
vn -0.407765706 0.895020694 -0.180734851
vn -0.407765706 0.895020694 -0.180734851
vn 0.646874194 0.729544114 0.222079182
vn -0.182695398 0.981988299 -0.048180621
vn -0.182695398 0.981988299 -0.048180621
vn 0.648292098 0.734952314 0.198903123
vn -0.452640380 0.889233243 0.066188564
vn 0.648292098 0.734952314 0.198903123
vn -0.182695398 0.981988299 -0.048180621
vn 0.646874194 0.729544114 0.222079182
vn -0.452640380 0.889233243 0.066188564
vn 0.742494926 0.640869658 0.194903477
vn -0.777558862 0.609903569 0.153035463
vn 0.742494926 0.640869658 0.194903477
vn -0.452640380 0.889233243 0.066188564
vn 0.648292098 0.734952314 0.198903123
vn 0.742494926 0.640869658 0.194903477
vn -0.409046755 0.894496690 0.180433987
vn -0.777558862 0.609903569 0.153035463
vn -0.409046755 0.894496690 0.180433987
vn 0.742494926 0.640869658 0.194903477
vn 0.742128269 0.633399175 0.219205650
vn 0.742128269 0.633399175 0.219205650
vn -0.112904367 0.992635851 -0.043893865
vn -0.409046755 0.894496690 0.180433987
vn -0.112904367 0.992635851 -0.043893865
vn 0.742128269 0.633399175 0.219205650
vn 0.752832603 0.658027705 -0.015575982
vn -0.494215661 0.263977867 -0.828291353
vn -0.634514565 0.749535922 -0.188645617
vn -0.958278077 0.254633786 -0.129864398
vn -0.958278077 0.254633786 -0.129864398
vn -0.634514565 0.749535922 -0.188645617
vn -0.962038914 0.214582723 -0.168627939
vn 0.776433572 0.602963215 0.183265572
vn 0.514746311 0.797553946 0.314553556
vn 0.443886170 0.179302525 0.877961088
vn 0.204778439 0.977509602 -0.050406043
vn -0.018781822 0.993213964 -0.114774844
vn -0.117892850 0.819300533 -0.561113102
vn -0.209878165 -0.942105752 -0.261510819
vn -0.402403163 -0.915414637 0.009366832
vn -0.216250074 -0.976259710 -0.012364616
vn -0.402403163 -0.915414637 0.009366832
vn -0.209878165 -0.942105752 -0.261510819
vn -0.432713445 -0.863891488 -0.257780085
vn -0.402403163 -0.915414637 0.009366832
vn -0.206295021 -0.937615696 0.279855623
vn -0.216250074 -0.976259710 -0.012364616
vn -0.206295021 -0.937615696 0.279855623
vn -0.402403163 -0.915414637 0.009366832
vn -0.360073120 -0.781705540 0.509199172
vn -0.206295021 -0.937615696 0.279855623
vn -0.360073120 -0.781705540 0.509199172
vn -0.156075834 -0.604419880 0.781227843
vn -0.156075834 -0.604419880 0.781227843
vn 0.687595326 -0.511729663 0.515116899
vn 0.443886170 0.179302525 0.877961088
vn 0.687595326 -0.511729663 0.515116899
vn 0.776433572 0.602963215 0.183265572
vn 0.443886170 0.179302525 0.877961088
vn -0.407765706 0.895020694 -0.180734851
vn 0.776433572 0.602963215 0.183265572
vn 0.646874194 0.729544114 0.222079182
vn -0.976781290 -0.102653163 -0.188044250
vn -0.612867522 0.785685067 -0.084216245
vn -0.916967348 -0.364978250 -0.161126530
vn -0.612867522 0.785685067 -0.084216245
vn -0.976781290 -0.102653163 -0.188044250
vn -0.112904367 0.992635851 -0.043893865
vn 0.752832603 0.658027705 -0.015575982
vn 0.959178660 -0.137202867 -0.247288640
vn 0.581762659 0.808311082 0.090473221
vn 0.959178660 -0.137202867 -0.247288640
vn 0.752832603 0.658027705 -0.015575982
vn 0.970656674 -0.235895770 -0.046677683
vn 0.970656674 -0.235895770 -0.046677683
vn -0.130950241 -0.957071214 -0.258586013
vn 0.959178660 -0.137202867 -0.247288640
vn -0.130950241 -0.957071214 -0.258586013
vn 0.970656674 -0.235895770 -0.046677683
vn -0.186212543 -0.964552052 -0.186987239
vn -0.186212543 -0.964552052 -0.186987239
vn -0.916967348 -0.364978250 -0.161126530
vn -0.130950241 -0.957071214 -0.258586013
vn -0.916967348 -0.364978250 -0.161126530
vn -0.186212543 -0.964552052 -0.186987239
vn -0.976781290 -0.102653163 -0.188044250
vn -0.112904367 0.992635851 -0.043893865
vn 0.581762659 0.808311082 0.090473221
vn -0.612867522 0.785685067 -0.084216245
vn 0.581762659 0.808311082 0.090473221
vn -0.112904367 0.992635851 -0.043893865
vn 0.752832603 0.658027705 -0.015575982
vn -0.916967348 -0.364978250 -0.161126530
vn -0.550976326 0.315730925 0.772488881
vn -0.724955659 -0.452988625 0.518883994
vn -0.550976326 0.315730925 0.772488881
vn -0.916967348 -0.364978250 -0.161126530
vn -0.612867522 0.785685067 -0.084216245
vn 0.581762659 0.808311082 0.090473221
vn 0.642454605 -0.097611772 0.760081589
vn 0.207766810 0.527602472 0.823692044
vn 0.642454605 -0.097611772 0.760081589
vn 0.581762659 0.808311082 0.090473221
vn 0.959178660 -0.137202867 -0.247288640
vn 0.959178660 -0.137202867 -0.247288640
vn 0.140647095 -0.943928751 0.298691993
vn 0.642454605 -0.097611772 0.760081589
vn 0.140647095 -0.943928751 0.298691993
vn 0.959178660 -0.137202867 -0.247288640
vn -0.130950241 -0.957071214 -0.258586013
vn -0.130950241 -0.957071214 -0.258586013
vn -0.724955659 -0.452988625 0.518883994
vn 0.140647095 -0.943928751 0.298691993
vn -0.724955659 -0.452988625 0.518883994
vn -0.130950241 -0.957071214 -0.258586013
vn -0.916967348 -0.364978250 -0.161126530
vn -0.612867522 0.785685067 -0.084216245
vn 0.207766810 0.527602472 0.823692044
vn -0.550976326 0.315730925 0.772488881
vn 0.207766810 0.527602472 0.823692044
vn -0.612867522 0.785685067 -0.084216245
vn 0.581762659 0.808311082 0.090473221
vn -0.724955659 -0.452988625 0.518883994
vn -0.550976326 0.315730925 0.772488881
vn -0.025742862 -0.059952117 0.997869254
vn 0.207766810 0.527602472 0.823692044
vn 0.642454605 -0.097611772 0.760081589
vn -0.025742862 -0.059952117 0.997869254
vn 0.642454605 -0.097611772 0.760081589
vn 0.019435972 -0.317137630 0.948180345
vn -0.025742862 -0.059952117 0.997869254
vn 0.019435972 -0.317137630 0.948180345
vn 0.642454605 -0.097611772 0.760081589
vn 0.140647095 -0.943928751 0.298691993
vn -0.724955659 -0.452988625 0.518883994
vn 0.019435972 -0.317137630 0.948180345
vn 0.140647095 -0.943928751 0.298691993
vn 0.019435972 -0.317137630 0.948180345
vn -0.724955659 -0.452988625 0.518883994
vn -0.025742862 -0.059952117 0.997869254
vn -0.550976326 0.315730925 0.772488881
vn 0.207766810 0.527602472 0.823692044
vn -0.025742862 -0.059952117 0.997869254
vn -0.261602606 -0.166337683 -0.950734375
vn -0.242633406 -0.491984963 -0.836109937
vn -0.078571358 -0.060229446 -0.995087411
vn -0.494215661 0.263977867 -0.828291353
vn -0.261602606 -0.166337683 -0.950734375
vn -0.078571358 -0.060229446 -0.995087411
vn -0.117892850 0.819300533 -0.561113102
vn -0.494215661 0.263977867 -0.828291353
vn -0.078571358 -0.060229446 -0.995087411
vn 0.083617660 0.690287064 -0.718687593
vn -0.117892850 0.819300533 -0.561113102
vn -0.078571358 -0.060229446 -0.995087411
vn -0.242633406 -0.491984963 -0.836109937
vn -0.185803595 -0.698937824 -0.690625037
vn -0.078571358 -0.060229446 -0.995087411
vn 0.370022208 0.749590400 -0.548814903
vn 0.204778439 0.977509602 -0.050406043
vn 0.083617660 0.690287064 -0.718687593
vn 0.204778439 0.977509602 -0.050406043
vn -0.117892850 0.819300533 -0.561113102
vn 0.083617660 0.690287064 -0.718687593
vn 0.079521946 -0.864764283 0.495841703
vn -0.156075834 -0.604419880 0.781227843
vn -0.425032139 -0.699297584 0.574743917
vn -0.156075834 -0.604419880 0.781227843
vn -0.360073120 -0.781705540 0.509199172
vn 0.687595326 -0.511729663 0.515116899
f 3/3/3 2/2/2 1/1/1
f 6/6/6 5/5/5 4/4/4
f 9/9/9 8/8/8 7/7/7
f 12/12/12 11/11/11 10/10/10
f 15/15/15 14/14/14 13/13/13
f 18/18/18 17/17/17 16/16/16
f 21/21/21 20/20/20 19/19/19
f 24/24/24 23/23/23 22/22/22
f 27/27/27 26/26/26 25/25/25
f 30/30/30 29/29/29 28/28/28
f 33/33/33 32/32/32 31/31/31
f 36/36/36 35/35/35 34/34/34
f 39/39/39 38/38/38 37/37/37
f 42/42/42 41/41/41 40/40/40
f 45/45/45 44/44/44 43/43/43
f 48/48/48 47/47/47 46/46/46
f 51/51/51 50/50/50 49/49/49
f 54/54/54 53/53/53 52/52/52
f 57/57/57 56/56/56 55/55/55
f 60/60/60 59/59/59 58/58/58
f 63/63/63 62/62/62 61/61/61
f 66/66/66 65/65/65 64/64/64
f 69/69/69 68/68/68 67/67/67
f 72/72/72 71/71/71 70/70/70
f 75/75/75 74/74/74 73/73/73
f 78/78/78 77/77/77 76/76/76
f 81/81/81 80/80/80 79/79/79
f 84/84/84 83/83/83 82/82/82
f 87/87/87 86/86/86 85/85/85
f 90/90/90 89/89/89 88/88/88
f 93/93/93 92/92/92 91/91/91
f 96/96/96 95/95/95 94/94/94
f 99/99/99 98/98/98 97/97/97
f 102/102/102 101/101/101 100/100/100
f 105/105/105 104/104/104 103/103/103
f 108/108/108 107/107/107 106/106/106
f 111/111/111 110/110/110 109/109/109
f 114/114/114 113/113/113 112/112/112
f 117/117/117 116/116/116 115/115/115
f 120/120/120 119/119/119 118/118/118
f 123/123/123 122/122/122 121/121/121
f 126/126/126 125/125/125 124/124/124
f 129/129/129 128/128/128 127/127/127
f 132/132/132 131/131/131 130/130/130
f 135/135/135 134/134/134 133/133/133
f 138/138/138 137/137/137 136/136/136
f 141/141/141 140/140/140 139/139/139
f 144/144/144 143/143/143 142/142/142
f 147/147/147 146/146/146 145/145/145
f 150/150/150 149/149/149 148/148/148
f 153/153/153 152/152/152 151/151/151
f 156/156/156 155/155/155 154/154/154
f 159/159/159 158/158/158 157/157/157
f 162/162/162 161/161/161 160/160/160
f 165/165/165 164/164/164 163/163/163
f 168/168/168 167/167/167 166/166/166
f 171/171/171 170/170/170 169/169/169
f 174/174/174 173/173/173 172/172/172
f 177/177/177 176/176/176 175/175/175
f 180/180/180 179/179/179 178/178/178
f 183/183/183 182/182/182 181/181/181
f 186/186/186 185/185/185 184/184/184
f 189/189/189 188/188/188 187/187/187
f 192/192/192 191/191/191 190/190/190
f 195/195/195 194/194/194 193/193/193
f 198/198/198 197/197/197 196/196/196
f 201/201/201 200/200/200 199/199/199
f 204/204/204 203/203/203 202/202/202
f 207/207/207 206/206/206 205/205/205
f 210/210/210 209/209/209 208/208/208
f 213/213/213 212/212/212 211/211/211
f 216/216/216 215/215/215 214/214/214
f 219/219/219 218/218/218 217/217/217
f 222/222/222 221/221/221 220/220/220
f 225/225/225 224/224/224 223/223/223
f 228/228/228 227/227/227 226/226/226
f 231/231/231 230/230/230 229/229/229
f 234/234/234 233/233/233 232/232/232
f 237/237/237 236/236/236 235/235/235
f 240/240/240 239/239/239 238/238/238
f 243/243/243 242/242/242 241/241/241
f 246/246/246 245/245/245 244/244/244
f 249/249/249 248/248/248 247/247/247
f 252/252/252 251/251/251 250/250/250
f 255/255/255 254/254/254 253/253/253
f 258/258/258 257/257/257 256/256/256
f 261/261/261 260/260/260 259/259/259
f 264/264/264 263/263/263 262/262/262
f 267/267/267 266/266/266 265/265/265
f 270/270/270 269/269/269 268/268/268
f 273/273/273 272/272/272 271/271/271
f 276/276/276 275/275/275 274/274/274
f 279/279/279 278/278/278 277/277/277
f 282/282/282 281/281/281 280/280/280
f 285/285/285 284/284/284 283/283/283
f 288/288/288 287/287/287 286/286/286
f 291/291/291 290/290/290 289/289/289
f 294/294/294 293/293/293 292/292/292
f 297/297/297 296/296/296 295/295/295
f 300/300/300 299/299/299 298/298/298
f 303/303/303 302/302/302 301/301/301
f 306/306/306 305/305/305 304/304/304
f 309/309/309 308/308/308 307/307/307
f 312/312/312 311/311/311 310/310/310
f 315/315/315 314/314/314 313/313/313
f 318/318/318 317/317/317 316/316/316
f 321/321/321 320/320/320 319/319/319
f 324/324/324 323/323/323 322/322/322
f 327/327/327 326/326/326 325/325/325
f 330/330/330 329/329/329 328/328/328
f 333/333/333 332/332/332 331/331/331
f 336/336/336 335/335/335 334/334/334
f 339/339/339 338/338/338 337/337/337
f 342/342/342 341/341/341 340/340/340
f 345/345/345 344/344/344 343/343/343
f 348/348/348 347/347/347 346/346/346
f 351/351/351 350/350/350 349/349/349
f 354/354/354 353/353/353 352/352/352
f 357/357/357 356/356/356 355/355/355
f 360/360/360 359/359/359 358/358/358
f 363/363/363 362/362/362 361/361/361
f 366/366/366 365/365/365 364/364/364
f 369/369/369 368/368/368 367/367/367
f 372/372/372 371/371/371 370/370/370
f 375/375/375 374/374/374 373/373/373
f 378/378/378 377/377/377 376/376/376
f 381/381/381 380/380/380 379/379/379
f 384/384/384 383/383/383 382/382/382
f 387/387/387 386/386/386 385/385/385
f 390/390/390 389/389/389 388/388/388
f 393/393/393 392/392/392 391/391/391
f 396/396/396 395/395/395 394/394/394
f 399/399/399 398/398/398 397/397/397
f 402/402/402 401/401/401 400/400/400
f 405/405/405 404/404/404 403/403/403
f 408/408/408 407/407/407 406/406/406
f 411/411/411 410/410/410 409/409/409
f 414/414/414 413/413/413 412/412/412
f 417/417/417 416/416/416 415/415/415
f 420/420/420 419/419/419 418/418/418
f 423/423/423 422/422/422 421/421/421
f 426/426/426 425/425/425 424/424/424
f 429/429/429 428/428/428 427/427/427
f 432/432/432 431/431/431 430/430/430
f 435/435/435 434/434/434 433/433/433
f 438/438/438 437/437/437 436/436/436
f 441/441/441 440/440/440 439/439/439
f 444/444/444 443/443/443 442/442/442
f 447/447/447 446/446/446 445/445/445
f 450/450/450 449/449/449 448/448/448
f 453/453/453 452/452/452 451/451/451
f 456/456/456 455/455/455 454/454/454
f 459/459/459 458/458/458 457/457/457
f 462/462/462 461/461/461 460/460/460
f 465/465/465 464/464/464 463/463/463
f 468/468/468 467/467/467 466/466/466
f 471/471/471 470/470/470 469/469/469
f 474/474/474 473/473/473 472/472/472
f 477/477/477 476/476/476 475/475/475
f 480/480/480 479/479/479 478/478/478
f 483/483/483 482/482/482 481/481/481
f 486/486/486 485/485/485 484/484/484
f 489/489/489 488/488/488 487/487/487
f 492/492/492 491/491/491 490/490/490
f 495/495/495 494/494/494 493/493/493
f 498/498/498 497/497/497 496/496/496
f 501/501/501 500/500/500 499/499/499
f 504/504/504 503/503/503 502/502/502
f 507/507/507 506/506/506 505/505/505
f 510/510/510 509/509/509 508/508/508
f 513/513/513 512/512/512 511/511/511
f 516/516/516 515/515/515 514/514/514
f 519/519/519 518/518/518 517/517/517
f 522/522/522 521/521/521 520/520/520
f 525/525/525 524/524/524 523/523/523
f 528/528/528 527/527/527 526/526/526
f 531/531/531 530/530/530 529/529/529
f 534/534/534 533/533/533 532/532/532
f 537/537/537 536/536/536 535/535/535
f 540/540/540 539/539/539 538/538/538
f 543/543/543 542/542/542 541/541/541
f 546/546/546 545/545/545 544/544/544
f 549/549/549 548/548/548 547/547/547
f 552/552/552 551/551/551 550/550/550
f 555/555/555 554/554/554 553/553/553
f 558/558/558 557/557/557 556/556/556
f 561/561/561 560/560/560 559/559/559
f 564/564/564 563/563/563 562/562/562
f 567/567/567 566/566/566 565/565/565
f 570/570/570 569/569/569 568/568/568
f 573/573/573 572/572/572 571/571/571
f 576/576/576 575/575/575 574/574/574
f 579/579/579 578/578/578 577/577/577
f 582/582/582 581/581/581 580/580/580
f 585/585/585 584/584/584 583/583/583
f 588/588/588 587/587/587 586/586/586
f 591/591/591 590/590/590 589/589/589
f 594/594/594 593/593/593 592/592/592
f 597/597/597 596/596/596 595/595/595
f 600/600/600 599/599/599 598/598/598
f 603/603/603 602/602/602 601/601/601
f 606/606/606 605/605/605 604/604/604
f 609/609/609 608/608/608 607/607/607
f 612/612/612 611/611/611 610/610/610
f 615/615/615 614/614/614 613/613/613
f 618/618/618 617/617/617 616/616/616
f 621/621/621 620/620/620 619/619/619
f 624/624/624 623/623/623 622/622/622
f 627/627/627 626/626/626 625/625/625
f 630/630/630 629/629/629 628/628/628
f 633/633/633 632/632/632 631/631/631
f 636/636/636 635/635/635 634/634/634
f 639/639/639 638/638/638 637/637/637
f 642/642/642 641/641/641 640/640/640
f 645/645/645 644/644/644 643/643/643
f 648/648/648 647/647/647 646/646/646
f 651/651/651 650/650/650 649/649/649
f 654/654/654 653/653/653 652/652/652
f 657/657/657 656/656/656 655/655/655
f 660/660/660 659/659/659 658/658/658
f 663/663/663 662/662/662 661/661/661
f 666/666/666 665/665/665 664/664/664
f 669/669/669 668/668/668 667/667/667
f 672/672/672 671/671/671 670/670/670
f 675/675/675 674/674/674 673/673/673
f 678/678/678 677/677/677 676/676/676
f 681/681/681 680/680/680 679/679/679
f 684/684/684 683/683/683 682/682/682
f 687/687/687 686/686/686 685/685/685
f 690/690/690 689/689/689 688/688/688
f 693/693/693 692/692/692 691/691/691
f 696/696/696 695/695/695 694/694/694
f 699/699/699 698/698/698 697/697/697
f 702/702/702 701/701/701 700/700/700
f 705/705/705 704/704/704 703/703/703
f 708/708/708 707/707/707 706/706/706
f 711/711/711 710/710/710 709/709/709
f 714/714/714 713/713/713 712/712/712
f 717/717/717 716/716/716 715/715/715
f 720/720/720 719/719/719 718/718/718
