# Static pose baked from local Project Zomboid assets
o Bob_Hair_Messy
v -0.016110389 0.071486764 -0.374838571
v -0.030219246 0.046363562 -0.348448697
v -0.046674029 0.067477343 -0.346225050
v -0.030219246 0.046363562 -0.348448697
v -0.016110389 0.071486764 -0.374838571
v -0.015028426 0.046827925 -0.364418737
v -0.076001544 0.054558116 -0.469043573
v -0.118404048 0.066109772 -0.460298393
v -0.100089707 0.038274790 -0.460140219
v -0.041037306 0.084658376 -0.409051423
v -0.054955852 0.087754229 -0.447561038
v -0.031769867 0.087685832 -0.430376390
v -0.054955852 0.087754229 -0.447561038
v -0.041037306 0.084658376 -0.409051423
v -0.055369864 0.089814817 -0.425575121
v -0.029350402 0.072679991 -0.408935936
v -0.011550576 0.060941263 -0.423633528
v -0.018814608 0.061688442 -0.402884951
v -0.029350402 0.072679991 -0.408935936
v -0.031769867 0.087685832 -0.430376390
v -0.011550576 0.060941263 -0.423633528
v -0.041037306 0.084658376 -0.409051423
v -0.031769867 0.087685832 -0.430376390
v -0.029350402 0.072679991 -0.408935936
v -0.015028426 0.046827925 -0.364418737
v -0.018814608 0.061688442 -0.402884951
v -0.015476551 0.024787622 -0.392770796
v -0.018814608 0.061688442 -0.402884951
v -0.015028426 0.046827925 -0.364418737
v -0.016110389 0.071486764 -0.374838571
v -0.043854975 -0.005351934 -0.379836040
v -0.020158127 0.009660302 -0.434167400
v -0.046347996 -0.022938027 -0.420633635
v -0.020158127 0.009660302 -0.434167400
v -0.043854975 -0.005351934 -0.379836040
v -0.015476551 0.024787622 -0.392770796
v -0.098837063 0.072031141 -0.462436498
v -0.054955852 0.087754229 -0.447561038
v -0.098491173 0.084713562 -0.447261058
v -0.047808165 0.074961822 -0.452992182
v -0.011550576 0.060941263 -0.423633528
v -0.031769867 0.087685832 -0.430376390
v -0.011550576 0.060941263 -0.423633528
v -0.047808165 0.074961822 -0.452992182
v -0.031059853 0.052514312 -0.446061152
v -0.020158127 0.009660302 -0.434167400
v -0.063837808 -0.008505822 -0.443961829
v -0.046347996 -0.022938027 -0.420633635
v -0.047808165 0.074961822 -0.452992182
v -0.054955852 0.087754229 -0.447561038
v -0.098837063 0.072031141 -0.462436498
v -0.054955852 0.087754229 -0.447561038
v -0.047808165 0.074961822 -0.452992182
v -0.031769867 0.087685832 -0.430376390
v -0.046525452 0.023478084 -0.332604302
v -0.015028426 0.046827925 -0.364418737
v -0.037879534 0.006344399 -0.340147264
v -0.015028426 0.046827925 -0.364418737
v -0.046525452 0.023478084 -0.332604302
v -0.030219246 0.046363562 -0.348448697
v -0.037879534 0.006344399 -0.340147264
v -0.015476551 0.024787622 -0.392770796
v -0.043854975 -0.005351934 -0.379836040
v -0.015476551 0.024787622 -0.392770796
v -0.037879534 0.006344399 -0.340147264
v -0.015028426 0.046827925 -0.364418737
v -0.020158127 0.009660302 -0.434167400
v -0.015476551 0.024787622 -0.392770796
v -0.011550576 0.060941263 -0.423633528
v -0.031059853 0.052514312 -0.446061152
v -0.020158127 0.009660302 -0.434167400
v -0.011550576 0.060941263 -0.423633528
v -0.051805805 0.100200208 -0.397114653
v -0.041037306 0.084658376 -0.409051423
v -0.039806400 0.089807295 -0.397480779
v -0.041037306 0.084658376 -0.409051423
v -0.051805805 0.100200208 -0.397114653
v -0.055369864 0.089814817 -0.425575121
v -0.046674029 0.067477343 -0.346225050
v -0.044810785 0.070591904 -0.368660831
v -0.016110389 0.071486764 -0.374838571
v -0.044810785 0.070591904 -0.368660831
v -0.046674029 0.067477343 -0.346225050
v -0.061139949 0.080450429 -0.334835833
v -0.016110389 0.071486764 -0.374838571
v -0.029350402 0.072679991 -0.408935936
v -0.018814608 0.061688442 -0.402884951
v -0.029350402 0.072679991 -0.408935936
v -0.016110389 0.071486764 -0.374838571
v -0.044810785 0.070591904 -0.368660831
v -0.076001544 0.054558116 -0.469043573
v -0.031059853 0.052514312 -0.446061152
v -0.047808165 0.074961822 -0.452992182
v -0.031059853 0.052514312 -0.446061152
v -0.076001544 0.054558116 -0.469043573
v -0.059739489 0.026908881 -0.465643941
v -0.127836489 0.086892565 -0.448081412
v -0.118404048 0.066109772 -0.460298393
v -0.098837063 0.072031141 -0.462436498
v -0.098491173 0.084713562 -0.447261058
v -0.127836489 0.086892565 -0.448081412
v -0.098837063 0.072031141 -0.462436498
v -0.127836489 0.086892565 -0.448081412
v -0.098491173 0.084713562 -0.447261058
v -0.123770696 0.090911667 -0.428591235
v -0.063837808 -0.008505822 -0.443961829
v -0.059739489 0.026908881 -0.465643941
v -0.078555411 0.008878443 -0.453597068
v -0.059739489 0.026908881 -0.465643941
v -0.100089707 0.038274790 -0.460140219
v -0.078555411 0.008878443 -0.453597068
v -0.100089707 0.038274790 -0.460140219
v -0.059739489 0.026908881 -0.465643941
v -0.076001544 0.054558116 -0.469043573
v -0.118404048 0.066109772 -0.460298393
v -0.076001544 0.054558116 -0.469043573
v -0.098837063 0.072031141 -0.462436498
v -0.059739489 0.026908881 -0.465643941
v -0.020158127 0.009660302 -0.434167400
v -0.031059853 0.052514312 -0.446061152
v -0.063837808 -0.008505822 -0.443961829
v -0.020158127 0.009660302 -0.434167400
v -0.059739489 0.026908881 -0.465643941
v -0.030219246 0.046363562 -0.348448697
v -0.050259677 0.064711100 -0.355907382
v -0.046674029 0.067477343 -0.346225050
v -0.050259677 0.064711100 -0.355907382
v -0.030219246 0.046363562 -0.348448697
v -0.034212676 0.048884162 -0.352271178
v -0.055369864 0.089814817 -0.425575121
v -0.063629201 0.080609928 -0.444358097
v -0.054955852 0.087754229 -0.447561038
v -0.063629201 0.080609928 -0.444358097
v -0.055369864 0.089814817 -0.425575121
v -0.060251577 0.096725284 -0.410720041
v -0.029350402 0.072679991 -0.408935936
v -0.044364800 0.080728830 -0.408083031
v -0.041037306 0.084658376 -0.409051423
v -0.044364800 0.080728830 -0.408083031
v -0.029350402 0.072679991 -0.408935936
v -0.034410720 0.070527392 -0.407984684
v -0.054955852 0.087754229 -0.447561038
v -0.088371693 0.069934299 -0.440118151
v -0.098491173 0.084713562 -0.447261058
v -0.088371693 0.069934299 -0.440118151
v -0.054955852 0.087754229 -0.447561038
v -0.063629201 0.080609928 -0.444358097
v -0.046525452 0.023478084 -0.332604302
v -0.034212676 0.048884162 -0.352271178
v -0.030219246 0.046363562 -0.348448697
v -0.034212676 0.048884162 -0.352271178
v -0.046525452 0.023478084 -0.332604302
v -0.052154579 0.025497888 -0.345120515
v -0.051805805 0.100200208 -0.397114653
v -0.060251577 0.096725284 -0.410720041
v -0.055369864 0.089814817 -0.425575121
v -0.060251577 0.096725284 -0.410720041
v -0.051805805 0.100200208 -0.397114653
v -0.055134832 0.099090705 -0.392790346
v -0.039806400 0.089807295 -0.397480779
v -0.055134832 0.099090705 -0.392790346
v -0.051805805 0.100200208 -0.397114653
v -0.055134832 0.099090705 -0.392790346
v -0.039806400 0.089807295 -0.397480779
v -0.042051010 0.086209754 -0.392458644
v -0.041037306 0.084658376 -0.409051423
v -0.042051010 0.086209754 -0.392458644
v -0.039806400 0.089807295 -0.397480779
v -0.042051010 0.086209754 -0.392458644
v -0.041037306 0.084658376 -0.409051423
v -0.044364800 0.080728830 -0.408083031
v -0.046674029 0.067477343 -0.346225050
v -0.062579745 0.075760047 -0.346207948
v -0.061139949 0.080450429 -0.334835833
v -0.062579745 0.075760047 -0.346207948
v -0.046674029 0.067477343 -0.346225050
v -0.050259677 0.064711100 -0.355907382
v -0.041301253 0.076700805 -0.366035288
v -0.061139949 0.080450429 -0.334835833
v -0.062579745 0.075760047 -0.346207948
v -0.061139949 0.080450429 -0.334835833
v -0.041301253 0.076700805 -0.366035288
v -0.044810785 0.070591904 -0.368660831
v -0.034410720 0.070527392 -0.407984684
v -0.044810785 0.070591904 -0.368660831
v -0.041301253 0.076700805 -0.366035288
v -0.044810785 0.070591904 -0.368660831
v -0.034410720 0.070527392 -0.407984684
v -0.029350402 0.072679991 -0.408935936
v -0.098491173 0.084713562 -0.447261058
v -0.117686493 0.084179070 -0.423742003
v -0.123770696 0.090911667 -0.428591235
v -0.117686493 0.084179070 -0.423742003
v -0.098491173 0.084713562 -0.447261058
v -0.088371693 0.069934299 -0.440118151
v -0.098837063 0.072031141 -0.462436498
v -0.076001544 0.054558116 -0.469043573
v -0.047808165 0.074961822 -0.452992182
v -0.011550576 0.060941263 -0.423633528
v -0.015476551 0.024787622 -0.392770796
v -0.018814608 0.061688442 -0.402884951
v -0.114822401 0.006730984 -0.340893132
v -0.077704512 0.015212891 -0.332119294
v -0.089618513 -0.002103701 -0.338768431
v -0.077704512 0.015212891 -0.332119294
v -0.114822401 0.006730984 -0.340893132
v -0.089808701 0.039180692 -0.331391745
v -0.124860937 0.022506008 -0.452241630
v -0.100089707 0.038274790 -0.460140219
v -0.118404048 0.066109772 -0.460298393
v -0.133910491 0.023732907 -0.377113860
v -0.149579237 0.025680617 -0.415021610
v -0.141439920 0.033352250 -0.395977042
v -0.149579237 0.025680617 -0.415021610
v -0.133910491 0.023732907 -0.377113860
v -0.148647654 0.011013175 -0.390184038
v -0.128888008 -0.016032925 -0.383283112
v -0.127117402 0.008544146 -0.375315470
v -0.118188769 -0.003501712 -0.368711809
v -0.148647654 0.011013175 -0.390184038
v -0.127117402 0.008544146 -0.375315470
v -0.128888008 -0.016032925 -0.383283112
v -0.133910491 0.023732907 -0.377113860
v -0.127117402 0.008544146 -0.375315470
v -0.148647654 0.011013175 -0.390184038
v -0.089618513 -0.002103701 -0.338768431
v -0.118188769 -0.003501712 -0.368711809
v -0.114822401 0.006730984 -0.340893132
v -0.118188769 -0.003501712 -0.368711809
v -0.089618513 -0.002103701 -0.338768431
v -0.083406547 -0.019774937 -0.369410786
v -0.043854975 -0.005351934 -0.379836040
v -0.087610798 -0.034589129 -0.410971535
v -0.083406547 -0.019774937 -0.369410786
v -0.087610798 -0.034589129 -0.410971535
v -0.043854975 -0.005351934 -0.379836040
v -0.046347996 -0.022938027 -0.420633635
v -0.130073902 0.051539553 -0.451694662
v -0.134179854 0.061301534 -0.434988307
v -0.149579237 0.025680617 -0.415021610
v -0.143236739 0.012360001 -0.420175863
v -0.128888008 -0.016032925 -0.383283112
v -0.126022351 -0.009781760 -0.413405109
v -0.128888008 -0.016032925 -0.383283112
v -0.143236739 0.012360001 -0.420175863
v -0.148647654 0.011013175 -0.390184038
v -0.087610798 -0.034589129 -0.410971535
v -0.046347996 -0.022938027 -0.420633635
v -0.063837808 -0.008505822 -0.443961829
v -0.143236739 0.012360001 -0.420175863
v -0.149579237 0.025680617 -0.415021610
v -0.148647654 0.011013175 -0.390184038
v -0.149579237 0.025680617 -0.415021610
v -0.143236739 0.012360001 -0.420175863
v -0.130073902 0.051539553 -0.451694662
v -0.046525452 0.023478084 -0.332604302
v -0.089618513 -0.002103701 -0.338768431
v -0.077704512 0.015212891 -0.332119294
v -0.089618513 -0.002103701 -0.338768431
v -0.046525452 0.023478084 -0.332604302
v -0.037879534 0.006344399 -0.340147264
v -0.037879534 0.006344399 -0.340147264
v -0.083406547 -0.019774937 -0.369410786
v -0.089618513 -0.002103701 -0.338768431
v -0.083406547 -0.019774937 -0.369410786
v -0.037879534 0.006344399 -0.340147264
v -0.043854975 -0.005351934 -0.379836040
v -0.087610798 -0.034589129 -0.410971535
v -0.128888008 -0.016032925 -0.383283112
v -0.083406547 -0.019774937 -0.369410786
v -0.126022351 -0.009781760 -0.413405109
v -0.128888008 -0.016032925 -0.383283112
v -0.087610798 -0.034589129 -0.410971535
v -0.138637660 0.043237895 -0.367254604
v -0.133910491 0.023732907 -0.377113860
v -0.141439920 0.033352250 -0.395977042
v -0.133910491 0.023732907 -0.377113860
v -0.138637660 0.043237895 -0.367254604
v -0.133492808 0.028348346 -0.365263562
v -0.089808701 0.039180692 -0.331391745
v -0.102954763 0.032449042 -0.348666072
v -0.091524989 0.060517627 -0.324386917
v -0.102954763 0.032449042 -0.348666072
v -0.089808701 0.039180692 -0.331391745
v -0.114822401 0.006730984 -0.340893132
v -0.114822401 0.006730984 -0.340893132
v -0.127117402 0.008544146 -0.375315470
v -0.102954763 0.032449042 -0.348666072
v -0.127117402 0.008544146 -0.375315470
v -0.114822401 0.006730984 -0.340893132
v -0.118188769 -0.003501712 -0.368711809
v -0.124860937 0.022506008 -0.452241630
v -0.126022351 -0.009781760 -0.413405109
v -0.104666148 -0.002563327 -0.450194401
v -0.126022351 -0.009781760 -0.413405109
v -0.124860937 0.022506008 -0.452241630
v -0.143236739 0.012360001 -0.420175863
v -0.127836489 0.086892565 -0.448081412
v -0.130073902 0.051539553 -0.451694662
v -0.118404048 0.066109772 -0.460298393
v -0.134179854 0.061301534 -0.434988307
v -0.127836489 0.086892565 -0.448081412
v -0.123770696 0.090911667 -0.428591235
v -0.127836489 0.086892565 -0.448081412
v -0.134179854 0.061301534 -0.434988307
v -0.130073902 0.051539553 -0.451694662
v -0.063837808 -0.008505822 -0.443961829
v -0.078555411 0.008878443 -0.453597068
v -0.104666148 -0.002563327 -0.450194401
v -0.104666148 -0.002563327 -0.450194401
v -0.100089707 0.038274790 -0.460140219
v -0.124860937 0.022506008 -0.452241630
v -0.100089707 0.038274790 -0.460140219
v -0.104666148 -0.002563327 -0.450194401
v -0.078555411 0.008878443 -0.453597068
v -0.118404048 0.066109772 -0.460298393
v -0.130073902 0.051539553 -0.451694662
v -0.124860937 0.022506008 -0.452241630
v -0.104666148 -0.002563327 -0.450194401
v -0.126022351 -0.009781760 -0.413405109
v -0.087610798 -0.034589129 -0.410971535
v -0.063837808 -0.008505822 -0.443961829
v -0.104666148 -0.002563327 -0.450194401
v -0.087610798 -0.034589129 -0.410971535
v -0.077704512 0.015212891 -0.332119294
v -0.090720029 0.038168823 -0.341993731
v -0.080373638 0.018602244 -0.336397182
v -0.090720029 0.038168823 -0.341993731
v -0.077704512 0.015212891 -0.332119294
v -0.089808701 0.039180692 -0.331391745
v -0.141439920 0.033352250 -0.395977042
v -0.139575731 0.030788465 -0.418241332
v -0.139274222 0.044885868 -0.383545452
v -0.139575731 0.030788465 -0.418241332
v -0.141439920 0.033352250 -0.395977042
v -0.149579237 0.025680617 -0.415021610
v -0.127117402 0.008544146 -0.375315470
v -0.129181272 0.025088623 -0.378916040
v -0.123396172 0.012152304 -0.377384049
v -0.129181272 0.025088623 -0.378916040
v -0.127117402 0.008544146 -0.375315470
v -0.133910491 0.023732907 -0.377113860
v -0.149579237 0.025680617 -0.415021610
v -0.121435876 0.048243961 -0.428747922
v -0.139575731 0.030788465 -0.418241332
v -0.121435876 0.048243961 -0.428747922
v -0.149579237 0.025680617 -0.415021610
v -0.134179854 0.061301534 -0.434988307
v -0.046525452 0.023478084 -0.332604302
v -0.080373638 0.018602244 -0.336397182
v -0.052154579 0.025497888 -0.345120515
v -0.080373638 0.018602244 -0.336397182
v -0.046525452 0.023478084 -0.332604302
v -0.077704512 0.015212891 -0.332119294
v -0.138637660 0.043237895 -0.367254604
v -0.139274222 0.044885868 -0.383545452
v -0.134806771 0.046825347 -0.365392474
v -0.139274222 0.044885868 -0.383545452
v -0.138637660 0.043237895 -0.367254604
v -0.141439920 0.033352250 -0.395977042
v -0.133492808 0.028348346 -0.365263562
v -0.134806771 0.046825347 -0.365392474
v -0.127560165 0.030115142 -0.363053450
v -0.134806771 0.046825347 -0.365392474
v -0.133492808 0.028348346 -0.365263562
v -0.138637660 0.043237895 -0.367254604
v -0.133910491 0.023732907 -0.377113860
v -0.127560165 0.030115142 -0.363053450
v -0.129181272 0.025088623 -0.378916040
v -0.127560165 0.030115142 -0.363053450
v -0.133910491 0.023732907 -0.377113860
v -0.133492808 0.028348346 -0.365263562
v -0.089808701 0.039180692 -0.331391745
v -0.092182097 0.056340694 -0.336028185
v -0.090720029 0.038168823 -0.341993731
v -0.092182097 0.056340694 -0.336028185
v -0.089808701 0.039180692 -0.331391745
v -0.091524989 0.060517627 -0.324386917
v -0.107987305 0.032954282 -0.343103050
v -0.091524989 0.060517627 -0.324386917
v -0.102954763 0.032449042 -0.348666072
v -0.091524989 0.060517627 -0.324386917
v -0.107987305 0.032954282 -0.343103050
v -0.092182097 0.056340694 -0.336028185
v -0.123396172 0.012152304 -0.377384049
v -0.102954763 0.032449042 -0.348666072
v -0.127117402 0.008544146 -0.375315470
v -0.102954763 0.032449042 -0.348666072
v -0.123396172 0.012152304 -0.377384049
v -0.107987305 0.032954282 -0.343103050
v -0.134179854 0.061301534 -0.434988307
v -0.117686493 0.084179070 -0.423742003
v -0.121435876 0.048243961 -0.428747922
v -0.117686493 0.084179070 -0.423742003
v -0.134179854 0.061301534 -0.434988307
v -0.123770696 0.090911667 -0.428591235
v -0.130073902 0.051539553 -0.451694662
v -0.143236739 0.012360001 -0.420175863
v -0.124860937 0.022506008 -0.452241630
v -0.128888008 -0.016032925 -0.383283112
v -0.118188769 -0.003501712 -0.368711809
v -0.083406547 -0.019774937 -0.369410786
vt 0.547159016 0.892579973
vt 0.623470008 0.950547993
vt 0.564655006 0.975055993
vt 0.623470008 0.950547993
vt 0.547159016 0.892579973
vt 0.598622978 0.908309996
vt 0.575388014 0.633992016
vt 0.536593974 0.552173972
vt 0.614920020 0.582588017
vt 0.466116011 0.797484994
vt 0.496448994 0.701074004
vt 0.496257007 0.760087013
vt 0.496448994 0.701074004
vt 0.466116011 0.797484994
vt 0.471264988 0.745384991
vt 0.501564980 0.825398982
vt 0.543417990 0.793291986
vt 0.537249982 0.835762024
vt 0.501564980 0.825398982
vt 0.496257007 0.760087013
vt 0.543417990 0.793291986
vt 0.466116011 0.797484994
vt 0.496257007 0.760087013
vt 0.501564980 0.825398982
vt 0.598622978 0.908309996
vt 0.537249982 0.835762024
vt 0.618745983 0.844866991
vt 0.537249982 0.835762024
vt 0.598622978 0.908309996
vt 0.547159016 0.892579973
vt 0.701747000 0.848196030
vt 0.635069013 0.764032006
vt 0.702112973 0.763076007
vt 0.635069013 0.764032006
vt 0.701747000 0.848196030
vt 0.618745983 0.844866991
vt 0.524047971 0.597316980
vt 0.496448994 0.701074004
vt 0.482524008 0.605809987
vt 0.525842011 0.700514972
vt 0.543417990 0.793291986
vt 0.496257007 0.760087013
vt 0.543417990 0.793291986
vt 0.525842011 0.700514972
vt 0.563948989 0.731159985
vt 0.635069013 0.764032006
vt 0.702381015 0.698305011
vt 0.702112973 0.763076007
vt 0.525842011 0.700514972
vt 0.496448994 0.701074004
vt 0.524047971 0.597316980
vt 0.496448994 0.701074004
vt 0.525842011 0.700514972
vt 0.496257007 0.760087013
vt 0.701799989 0.954851985
vt 0.598622978 0.908309996
vt 0.701798975 0.923744023
vt 0.598622978 0.908309996
vt 0.701799989 0.954851985
vt 0.623470008 0.950547993
vt 0.701798975 0.923744023
vt 0.618745983 0.844866991
vt 0.701747000 0.848196030
vt 0.618745983 0.844866991
vt 0.701798975 0.923744023
vt 0.598622978 0.908309996
vt 0.635069013 0.764032006
vt 0.618745983 0.844866991
vt 0.543417990 0.793291986
vt 0.563948989 0.731159985
vt 0.635069013 0.764032006
vt 0.543417990 0.793291986
vt 0.416601986 0.771685004
vt 0.466116011 0.797484994
vt 0.436928988 0.798636973
vt 0.466116011 0.797484994
vt 0.416601986 0.771685004
vt 0.471264988 0.745384991
vt 0.564655006 0.975055993
vt 0.510908008 0.926572025
vt 0.547159016 0.892579973
vt 0.510908008 0.926572025
vt 0.564655006 0.975055993
vt 0.535815001 1.001693010
vt 0.547159016 0.892579973
vt 0.501564980 0.825398982
vt 0.537249982 0.835762024
vt 0.501564980 0.825398982
vt 0.547159016 0.892579973
vt 0.510908008 0.926572025
vt 0.575388014 0.633992016
vt 0.563948989 0.731159985
vt 0.525842011 0.700514972
vt 0.563948989 0.731159985
vt 0.575388014 0.633992016
vt 0.629576027 0.662782013
vt 0.482804000 0.537523985
vt 0.536593974 0.552173972
vt 0.524047971 0.597316980
vt 0.482524008 0.605809987
vt 0.482804000 0.537523985
vt 0.524047971 0.597316980
vt 0.482804000 0.537523985
vt 0.482524008 0.605809987
vt 0.443269014 0.548183978
vt 0.702381015 0.698305011
vt 0.629576027 0.662782013
vt 0.701249003 0.643194973
vt 0.629576027 0.662782013
vt 0.614920020 0.582588017
vt 0.701249003 0.643194973
vt 0.614920020 0.582588017
vt 0.629576027 0.662782013
vt 0.575388014 0.633992016
vt 0.536593974 0.552173972
vt 0.575388014 0.633992016
vt 0.524047971 0.597316980
vt 0.629576027 0.662782013
vt 0.635069013 0.764032006
vt 0.563948989 0.731159985
vt 0.702381015 0.698305011
vt 0.635069013 0.764032006
vt 0.629576027 0.662782013
vt 0.623470008 0.950547993
vt 0.581928015 0.993404984
vt 0.564655006 0.975055993
vt 0.581928015 0.993404984
vt 0.623470008 0.950547993
vt 0.623659015 0.964627981
vt 0.471264988 0.745384991
vt 0.477443010 0.687121987
vt 0.496448994 0.701074004
vt 0.477443010 0.687121987
vt 0.471264988 0.745384991
vt 0.443235993 0.755833983
vt 0.501564980 0.825398982
vt 0.465986997 0.810808003
vt 0.466116011 0.797484994
vt 0.465986997 0.810808003
vt 0.501564980 0.825398982
vt 0.495902985 0.832556009
vt 0.496448994 0.701074004
vt 0.452951014 0.635303020
vt 0.482524008 0.605809987
vt 0.452951014 0.635303020
vt 0.496448994 0.701074004
vt 0.477443010 0.687121987
vt 0.701799989 0.954851985
vt 0.623659015 0.964627981
vt 0.623470008 0.950547993
vt 0.623659015 0.964627981
vt 0.701799989 0.954851985
vt 0.701831996 0.978793979
vt 0.416601986 0.771685004
vt 0.443235993 0.755833983
vt 0.471264988 0.745384991
vt 0.443235993 0.755833983
vt 0.416601986 0.771685004
vt 0.405966997 0.769429982
vt 0.436928988 0.798636973
vt 0.405966997 0.769429982
vt 0.416601986 0.771685004
vt 0.405966997 0.769429982
vt 0.436928988 0.798636973
vt 0.428570986 0.807705998
vt 0.466116011 0.797484994
vt 0.428570986 0.807705998
vt 0.436928988 0.798636973
vt 0.428570986 0.807705998
vt 0.466116011 0.797484994
vt 0.465986997 0.810808003
vt 0.564655006 0.975055993
vt 0.536336005 0.997380018
vt 0.535815001 1.001693010
vt 0.536336005 0.997380018
vt 0.564655006 0.975055993
vt 0.581928015 0.993404984
vt 0.506120980 0.928981006
vt 0.535815001 1.001693010
vt 0.536336005 0.997380018
vt 0.535815001 1.001693010
vt 0.506120980 0.928981006
vt 0.510908008 0.926572025
vt 0.495902985 0.832556009
vt 0.510908008 0.926572025
vt 0.506120980 0.928981006
vt 0.510908008 0.926572025
vt 0.495902985 0.832556009
vt 0.501564980 0.825398982
vt 0.482524008 0.605809987
vt 0.430467993 0.564294994
vt 0.443269014 0.548183978
vt 0.430467993 0.564294994
vt 0.482524008 0.605809987
vt 0.452951014 0.635303020
vt 0.524047971 0.597316980
vt 0.575388014 0.633992016
vt 0.525842011 0.700514972
vt 0.543417990 0.793291986
vt 0.618745983 0.844866991
vt 0.537249982 0.835762024
vt 0.856059015 0.892018974
vt 0.780059993 0.950192988
vt 0.804904997 0.907872021
vt 0.780059993 0.950192988
vt 0.856059015 0.892018974
vt 0.838787019 0.974663019
vt 0.834345996 0.623040974
vt 0.769070983 0.578867018
vt 0.903346002 0.554719985
vt 0.935509026 0.800552011
vt 0.912904978 0.703616977
vt 0.933768988 0.750177979
vt 0.912904978 0.703616977
vt 0.935509026 0.800552011
vt 0.906023026 0.760452986
vt 0.859230995 0.791541994
vt 0.899888992 0.825468004
vt 0.864673972 0.834962010
vt 0.906023026 0.760452986
vt 0.899888992 0.825468004
vt 0.859230995 0.791541994
vt 0.935509026 0.800552011
vt 0.899888992 0.825468004
vt 0.906023026 0.760452986
vt 0.804904997 0.907872021
vt 0.864673972 0.834962010
vt 0.856059015 0.892018974
vt 0.864673972 0.834962010
vt 0.804904997 0.907872021
vt 0.784198999 0.844097972
vt 0.701747000 0.848196030
vt 0.769288003 0.761848986
vt 0.784198999 0.844097972
vt 0.769288003 0.761848986
vt 0.701747000 0.848196030
vt 0.702112973 0.763076007
vt 0.899870992 0.597337008
vt 0.938205004 0.614369988
vt 0.912904978 0.703616977
vt 0.880010009 0.697547972
vt 0.859230995 0.791541994
vt 0.840429008 0.727449000
vt 0.859230995 0.791541994
vt 0.880010009 0.697547972
vt 0.906023026 0.760452986
vt 0.769288003 0.761848986
vt 0.702112973 0.763076007
vt 0.702381015 0.698305011
vt 0.880010009 0.697547972
vt 0.912904978 0.703616977
vt 0.906023026 0.760452986
vt 0.912904978 0.703616977
vt 0.880010009 0.697547972
vt 0.899870992 0.597337008
vt 0.701799989 0.954851985
vt 0.804904997 0.907872021
vt 0.780059993 0.950192988
vt 0.804904997 0.907872021
vt 0.701799989 0.954851985
vt 0.701798975 0.923744023
vt 0.701798975 0.923744023
vt 0.784198999 0.844097972
vt 0.804904997 0.907872021
vt 0.784198999 0.844097972
vt 0.701798975 0.923744023
vt 0.701747000 0.848196030
vt 0.769288003 0.761848986
vt 0.859230995 0.791541994
vt 0.784198999 0.844097972
vt 0.840429008 0.727449000
vt 0.859230995 0.791541994
vt 0.769288003 0.761848986
vt 0.987073004 0.777397990
vt 0.935509026 0.800552011
vt 0.933768988 0.750177979
vt 0.935509026 0.800552011
vt 0.987073004 0.777397990
vt 0.965135992 0.803327024
vt 0.838787019 0.974663019
vt 0.892302990 0.926320016
vt 0.867556989 1.001423001
vt 0.892302990 0.926320016
vt 0.838787019 0.974663019
vt 0.856059015 0.892018974
vt 0.856059015 0.892018974
vt 0.899888992 0.825468004
vt 0.892302990 0.926320016
vt 0.899888992 0.825468004
vt 0.856059015 0.892018974
vt 0.864673972 0.834962010
vt 0.834345996 0.623040974
vt 0.840429008 0.727449000
vt 0.775618017 0.658420026
vt 0.840429008 0.727449000
vt 0.834345996 0.623040974
vt 0.880010009 0.697547972
vt 0.960444987 0.555580974
vt 0.899870992 0.597337008
vt 0.903346002 0.554719985
vt 0.938205004 0.614369988
vt 0.960444987 0.555580974
vt 0.994813025 0.578773022
vt 0.960444987 0.555580974
vt 0.938205004 0.614369988
vt 0.899870992 0.597337008
vt 0.702381015 0.698305011
vt 0.701249003 0.643194973
vt 0.775618017 0.658420026
vt 0.775618017 0.658420026
vt 0.769070983 0.578867018
vt 0.834345996 0.623040974
vt 0.769070983 0.578867018
vt 0.775618017 0.658420026
vt 0.701249003 0.643194973
vt 0.903346002 0.554719985
vt 0.899870992 0.597337008
vt 0.834345996 0.623040974
vt 0.775618017 0.658420026
vt 0.840429008 0.727449000
vt 0.769288003 0.761848986
vt 0.702381015 0.698305011
vt 0.775618017 0.658420026
vt 0.769288003 0.761848986
vt 0.780059993 0.950192988
vt 0.821519971 0.993003011
vt 0.779891014 0.964271009
vt 0.821519971 0.993003011
vt 0.780059993 0.950192988
vt 0.838787019 0.974663019
vt 0.933768988 0.750177979
vt 0.933595002 0.692207992
vt 0.960435987 0.762238026
vt 0.933595002 0.692207992
vt 0.933768988 0.750177979
vt 0.912904978 0.703616977
vt 0.899888992 0.825468004
vt 0.935525000 0.813561022
vt 0.905080974 0.833117008
vt 0.935525000 0.813561022
vt 0.899888992 0.825468004
vt 0.935509026 0.800552011
vt 0.912904978 0.703616977
vt 0.966790974 0.643610001
vt 0.933595002 0.692207992
vt 0.966790974 0.643610001
vt 0.912904978 0.703616977
vt 0.938205004 0.614369988
vt 0.701799989 0.954851985
vt 0.779891014 0.964271009
vt 0.701831996 0.978793979
vt 0.779891014 0.964271009
vt 0.701799989 0.954851985
vt 0.780059993 0.950192988
vt 0.987073004 0.777397990
vt 0.960435987 0.762238026
vt 0.997792006 0.775247991
vt 0.960435987 0.762238026
vt 0.987073004 0.777397990
vt 0.933768988 0.750177979
vt 0.965135992 0.803327024
vt 0.997792006 0.775247991
vt 0.972985029 0.812638998
vt 0.997792006 0.775247991
vt 0.965135992 0.803327024
vt 0.987073004 0.777397990
vt 0.935509026 0.800552011
vt 0.972985029 0.812638998
vt 0.935525000 0.813561022
vt 0.972985029 0.812638998
vt 0.935509026 0.800552011
vt 0.965135992 0.803327024
vt 0.838787019 0.974663019
vt 0.867008984 0.997119009
vt 0.821519971 0.993003011
vt 0.867008984 0.997119009
vt 0.838787019 0.974663019
vt 0.867556989 1.001423001
vt 0.897174001 0.928879976
vt 0.867556989 1.001423001
vt 0.892302990 0.926320016
vt 0.867556989 1.001423001
vt 0.897174001 0.928879976
vt 0.867008984 0.997119009
vt 0.905080974 0.833117008
vt 0.892302990 0.926320016
vt 0.899888992 0.825468004
vt 0.892302990 0.926320016
vt 0.905080974 0.833117008
vt 0.897174001 0.928879976
vt 0.938205004 0.614369988
vt 0.983116984 0.568921030
vt 0.966790974 0.643610001
vt 0.983116984 0.568921030
vt 0.938205004 0.614369988
vt 0.967749000 0.553937972
vt 0.899870992 0.597337008
vt 0.880010009 0.697547972
vt 0.834345996 0.623040974
vt 0.859230995 0.791541994
vt 0.864673972 0.834962010
vt 0.784198999 0.844097972
vn 0.614698627 0.733437897 0.290197259
vn 0.515564830 0.228054208 0.825944420
vn 0.369999355 0.546516648 0.751278930
vn 0.515564830 0.228054208 0.825944420
vn 0.614698627 0.733437897 0.290197259
vn 0.944491185 -0.067595754 0.321507722
vn 0.136378496 0.095423309 -0.986050353
vn -0.326222567 0.001756680 -0.945291358
vn -0.179106031 -0.228591766 -0.956904820
vn 0.494806219 0.868598355 0.026527419
vn 0.065009747 0.964209765 -0.257047199
vn 0.623648911 0.753858310 -0.206784148
vn 0.065009747 0.964209765 -0.257047199
vn 0.494806219 0.868598355 0.026527419
vn 0.246683348 0.925608922 -0.287046074
vn 0.439964152 0.879870409 0.179609600
vn 0.941670002 0.182836767 -0.282539067
vn 0.975338903 0.220460135 0.010552394
vn 0.439964152 0.879870409 0.179609600
vn 0.623648911 0.753858310 -0.206784148
vn 0.941670002 0.182836767 -0.282539067
vn 0.494806219 0.868598355 0.026527419
vn 0.623648911 0.753858310 -0.206784148
vn 0.439964152 0.879870409 0.179609600
vn 0.944491185 -0.067595754 0.321507722
vn 0.975338903 0.220460135 0.010552394
vn 0.931054492 -0.348274006 0.108824393
vn 0.975338903 0.220460135 0.010552394
vn 0.944491185 -0.067595754 0.321507722
vn 0.614698627 0.733437897 0.290197259
vn 0.586829528 -0.779283449 0.219882724
vn 0.803264329 -0.434925146 -0.406947828
vn 0.515692895 -0.848473388 -0.118969525
vn 0.803264329 -0.434925146 -0.406947828
vn 0.586829528 -0.779283449 0.219882724
vn 0.931054492 -0.348274006 0.108824393
vn 0.012139389 0.550022891 -0.835061348
vn 0.065009747 0.964209765 -0.257047199
vn 0.196664129 0.980324251 0.016958285
vn 0.439767244 0.357583869 -0.823855902
vn 0.941670002 0.182836767 -0.282539067
vn 0.623648911 0.753858310 -0.206784148
vn 0.941670002 0.182836767 -0.282539067
vn 0.439767244 0.357583869 -0.823855902
vn 0.598538043 0.064447206 -0.798497820
vn 0.803264329 -0.434925146 -0.406947828
vn 0.183235716 -0.660843851 -0.727811842
vn 0.515692895 -0.848473388 -0.118969525
vn 0.439767244 0.357583869 -0.823855902
vn 0.065009747 0.964209765 -0.257047199
vn 0.012139389 0.550022891 -0.835061348
vn 0.065009747 0.964209765 -0.257047199
vn 0.439767244 0.357583869 -0.823855902
vn 0.623648911 0.753858310 -0.206784148
vn 0.256046229 0.112951151 0.960042898
vn 0.944491185 -0.067595754 0.321507722
vn 0.592667580 -0.665967656 0.453025629
vn 0.944491185 -0.067595754 0.321507722
vn 0.256046229 0.112951151 0.960042898
vn 0.515564830 0.228054208 0.825944420
vn 0.592667580 -0.665967656 0.453025629
vn 0.931054492 -0.348274006 0.108824393
vn 0.586829528 -0.779283449 0.219882724
vn 0.931054492 -0.348274006 0.108824393
vn 0.592667580 -0.665967656 0.453025629
vn 0.944491185 -0.067595754 0.321507722
vn 0.803264329 -0.434925146 -0.406947828
vn 0.931054492 -0.348274006 0.108824393
vn 0.941670002 0.182836767 -0.282539067
vn 0.598538043 0.064447206 -0.798497820
vn 0.803264329 -0.434925146 -0.406947828
vn 0.941670002 0.182836767 -0.282539067
vn 0.499755782 0.821558147 -0.274383616
vn 0.494806219 0.868598355 0.026527419
vn 0.786695862 0.598668466 0.150684065
vn 0.494806219 0.868598355 0.026527419
vn 0.499755782 0.821558147 -0.274383616
vn 0.246683348 0.925608922 -0.287046074
vn 0.369999355 0.546516648 0.751278930
vn 0.319145880 0.928645269 0.189113381
vn 0.614698627 0.733437897 0.290197259
vn 0.319145880 0.928645269 0.189113381
vn 0.369999355 0.546516648 0.751278930
vn 0.717498910 0.536423416 0.444348099
vn 0.614698627 0.733437897 0.290197259
vn 0.439964152 0.879870409 0.179609600
vn 0.975338903 0.220460135 0.010552394
vn 0.439964152 0.879870409 0.179609600
vn 0.614698627 0.733437897 0.290197259
vn 0.319145880 0.928645269 0.189113381
vn 0.136378496 0.095423309 -0.986050353
vn 0.598538043 0.064447206 -0.798497820
vn 0.439767244 0.357583869 -0.823855902
vn 0.598538043 0.064447206 -0.798497820
vn 0.136378496 0.095423309 -0.986050353
vn 0.284452963 -0.258282556 -0.923242457
vn -0.580859895 0.593301286 -0.557310834
vn -0.326222567 0.001756680 -0.945291358
vn 0.012139389 0.550022891 -0.835061348
vn 0.196664129 0.980324251 0.016958285
vn -0.580859895 0.593301286 -0.557310834
vn 0.012139389 0.550022891 -0.835061348
vn -0.580859895 0.593301286 -0.557310834
vn 0.196664129 0.980324251 0.016958285
vn -0.455703682 0.843581782 0.284084375
vn 0.183235716 -0.660843851 -0.727811842
vn 0.284452963 -0.258282556 -0.923242457
vn -0.071694314 -0.375171999 -0.924178498
vn 0.284452963 -0.258282556 -0.923242457
vn -0.179106031 -0.228591766 -0.956904820
vn -0.071694314 -0.375171999 -0.924178498
vn -0.179106031 -0.228591766 -0.956904820
vn 0.284452963 -0.258282556 -0.923242457
vn 0.136378496 0.095423309 -0.986050353
vn -0.326222567 0.001756680 -0.945291358
vn 0.136378496 0.095423309 -0.986050353
vn 0.012139389 0.550022891 -0.835061348
vn 0.284452963 -0.258282556 -0.923242457
vn 0.803264329 -0.434925146 -0.406947828
vn 0.598538043 0.064447206 -0.798497820
vn 0.183235716 -0.660843851 -0.727811842
vn 0.803264329 -0.434925146 -0.406947828
vn 0.284452963 -0.258282556 -0.923242457
vn 0.515564830 0.228054208 0.825944420
vn -0.610583337 -0.681716488 0.403051633
vn 0.369999355 0.546516648 0.751278930
vn -0.610583337 -0.681716488 0.403051633
vn 0.515564830 0.228054208 0.825944420
vn -0.624493012 0.568959419 0.535064162
vn 0.246683348 0.925608922 -0.287046074
vn -0.363048970 0.928291366 -0.080439948
vn 0.065009747 0.964209765 -0.257047199
vn -0.363048970 0.928291366 -0.080439948
vn 0.246683348 0.925608922 -0.287046074
vn 0.010262249 0.938469844 -0.345208689
vn 0.439964152 0.879870409 0.179609600
vn 0.454654465 -0.169500610 0.874390565
vn 0.494806219 0.868598355 0.026527419
vn 0.454654465 -0.169500610 0.874390565
vn 0.439964152 0.879870409 0.179609600
vn 0.810836967 0.166017626 0.561232181
vn 0.065009747 0.964209765 -0.257047199
vn 0.244802270 0.555179856 0.794888153
vn 0.196664129 0.980324251 0.016958285
vn 0.244802270 0.555179856 0.794888153
vn 0.065009747 0.964209765 -0.257047199
vn -0.363048970 0.928291366 -0.080439948
vn 0.256046229 0.112951151 0.960042898
vn -0.624493012 0.568959419 0.535064162
vn 0.515564830 0.228054208 0.825944420
vn -0.624493012 0.568959419 0.535064162
vn 0.256046229 0.112951151 0.960042898
vn -0.435409402 0.837201135 0.330927352
vn 0.499755782 0.821558147 -0.274383616
vn 0.010262249 0.938469844 -0.345208689
vn 0.246683348 0.925608922 -0.287046074
vn 0.010262249 0.938469844 -0.345208689
vn 0.499755782 0.821558147 -0.274383616
vn 0.319833327 0.808239738 0.494424078
vn 0.786695862 0.598668466 0.150684065
vn 0.319833327 0.808239738 0.494424078
vn 0.499755782 0.821558147 -0.274383616
vn 0.319833327 0.808239738 0.494424078
vn 0.786695862 0.598668466 0.150684065
vn 0.902418126 -0.090982549 0.421145701
vn 0.494806219 0.868598355 0.026527419
vn 0.902418126 -0.090982549 0.421145701
vn 0.786695862 0.598668466 0.150684065
vn 0.902418126 -0.090982549 0.421145701
vn 0.494806219 0.868598355 0.026527419
vn 0.454654465 -0.169500610 0.874390565
vn 0.369999355 0.546516648 0.751278930
vn -0.952100116 -0.220741054 0.211609914
vn 0.717498910 0.536423416 0.444348099
vn -0.952100116 -0.220741054 0.211609914
vn 0.369999355 0.546516648 0.751278930
vn -0.610583337 -0.681716488 0.403051633
vn 0.940566817 -0.167191620 0.295602815
vn 0.717498910 0.536423416 0.444348099
vn -0.952100116 -0.220741054 0.211609914
vn 0.717498910 0.536423416 0.444348099
vn 0.940566817 -0.167191620 0.295602815
vn 0.319145880 0.928645269 0.189113381
vn 0.810836967 0.166017626 0.561232181
vn 0.319145880 0.928645269 0.189113381
vn 0.940566817 -0.167191620 0.295602815
vn 0.319145880 0.928645269 0.189113381
vn 0.810836967 0.166017626 0.561232181
vn 0.439964152 0.879870409 0.179609600
vn 0.196664129 0.980324251 0.016958285
vn 0.017687984 0.442927262 0.896383052
vn -0.455703682 0.843581782 0.284084375
vn 0.017687984 0.442927262 0.896383052
vn 0.196664129 0.980324251 0.016958285
vn 0.244802270 0.555179856 0.794888153
vn 0.012139389 0.550022891 -0.835061348
vn 0.136378496 0.095423309 -0.986050353
vn 0.439767244 0.357583869 -0.823855902
vn 0.941670002 0.182836767 -0.282539067
vn 0.931054492 -0.348274006 0.108824393
vn 0.975338903 0.220460135 0.010552394
vn -0.671681603 -0.110436719 0.732562322
vn 0.023325416 -0.094858362 0.995217472
vn -0.075250545 -0.736553591 0.672180157
vn 0.023325416 -0.094858362 0.995217472
vn -0.671681603 -0.110436719 0.732562322
vn -0.237213981 0.148180364 0.960089635
vn -0.558523934 -0.360437647 -0.747084813
vn -0.179106031 -0.228591766 -0.956904820
vn -0.326222567 0.001756680 -0.945291358
vn -0.868347226 -0.025640029 0.495293533
vn -0.950012708 0.298347816 0.092002366
vn -0.983587926 0.118542206 0.136024030
vn -0.950012708 0.298347816 0.092002366
vn -0.868347226 -0.025640029 0.495293533
vn -0.912311346 -0.253742582 0.321407390
vn -0.554871146 -0.798904905 0.232096885
vn -0.793924295 0.070430787 0.603923604
vn -0.466392472 -0.725325933 0.506340156
vn -0.912311346 -0.253742582 0.321407390
vn -0.793924295 0.070430787 0.603923604
vn -0.554871146 -0.798904905 0.232096885
vn -0.868347226 -0.025640029 0.495293533
vn -0.793924295 0.070430787 0.603923604
vn -0.912311346 -0.253742582 0.321407390
vn -0.075250545 -0.736553591 0.672180157
vn -0.466392472 -0.725325933 0.506340156
vn -0.671681603 -0.110436719 0.732562322
vn -0.466392472 -0.725325933 0.506340156
vn -0.075250545 -0.736553591 0.672180157
vn 0.072006561 -0.911815555 0.404236873
vn 0.586829528 -0.779283449 0.219882724
vn -0.046396638 -0.992308785 -0.114763355
vn 0.072006561 -0.911815555 0.404236873
vn -0.046396638 -0.992308785 -0.114763355
vn 0.586829528 -0.779283449 0.219882724
vn 0.515692895 -0.848473388 -0.118969525
vn -0.840400541 -0.009249379 -0.541886870
vn -0.880349247 0.273795809 0.387325521
vn -0.950012708 0.298347816 0.092002366
vn -0.797033146 -0.453766018 -0.398540544
vn -0.554871146 -0.798904905 0.232096885
vn -0.583698050 -0.711108113 -0.391946218
vn -0.554871146 -0.798904905 0.232096885
vn -0.797033146 -0.453766018 -0.398540544
vn -0.912311346 -0.253742582 0.321407390
vn -0.046396638 -0.992308785 -0.114763355
vn 0.515692895 -0.848473388 -0.118969525
vn 0.183235716 -0.660843851 -0.727811842
vn -0.797033146 -0.453766018 -0.398540544
vn -0.950012708 0.298347816 0.092002366
vn -0.912311346 -0.253742582 0.321407390
vn -0.950012708 0.298347816 0.092002366
vn -0.797033146 -0.453766018 -0.398540544
vn -0.840400541 -0.009249379 -0.541886870
vn 0.256046229 0.112951151 0.960042898
vn -0.075250545 -0.736553591 0.672180157
vn 0.023325416 -0.094858362 0.995217472
vn -0.075250545 -0.736553591 0.672180157
vn 0.256046229 0.112951151 0.960042898
vn 0.592667580 -0.665967656 0.453025629
vn 0.592667580 -0.665967656 0.453025629
vn 0.072006561 -0.911815555 0.404236873
vn -0.075250545 -0.736553591 0.672180157
vn 0.072006561 -0.911815555 0.404236873
vn 0.592667580 -0.665967656 0.453025629
vn 0.586829528 -0.779283449 0.219882724
vn -0.046396638 -0.992308785 -0.114763355
vn -0.554871146 -0.798904905 0.232096885
vn 0.072006561 -0.911815555 0.404236873
vn -0.583698050 -0.711108113 -0.391946218
vn -0.554871146 -0.798904905 0.232096885
vn -0.046396638 -0.992308785 -0.114763355
vn -0.963577384 -0.138398848 0.228832654
vn -0.868347226 -0.025640029 0.495293533
vn -0.983587926 0.118542206 0.136024030
vn -0.868347226 -0.025640029 0.495293533
vn -0.963577384 -0.138398848 0.228832654
vn -0.669597472 -0.356670361 0.651479454
vn -0.237213981 0.148180364 0.960089635
vn -0.795809679 0.197226475 0.572528315
vn -0.466269287 -0.240136975 0.851426559
vn -0.795809679 0.197226475 0.572528315
vn -0.237213981 0.148180364 0.960089635
vn -0.671681603 -0.110436719 0.732562322
vn -0.671681603 -0.110436719 0.732562322
vn -0.793924295 0.070430787 0.603923604
vn -0.795809679 0.197226475 0.572528315
vn -0.793924295 0.070430787 0.603923604
vn -0.671681603 -0.110436719 0.732562322
vn -0.466392472 -0.725325933 0.506340156
vn -0.558523934 -0.360437647 -0.747084813
vn -0.583698050 -0.711108113 -0.391946218
vn -0.274122963 -0.624712351 -0.731157356
vn -0.583698050 -0.711108113 -0.391946218
vn -0.558523934 -0.360437647 -0.747084813
vn -0.797033146 -0.453766018 -0.398540544
vn -0.580859895 0.593301286 -0.557310834
vn -0.840400541 -0.009249379 -0.541886870
vn -0.326222567 0.001756680 -0.945291358
vn -0.880349247 0.273795809 0.387325521
vn -0.580859895 0.593301286 -0.557310834
vn -0.455703682 0.843581782 0.284084375
vn -0.580859895 0.593301286 -0.557310834
vn -0.880349247 0.273795809 0.387325521
vn -0.840400541 -0.009249379 -0.541886870
vn 0.183235716 -0.660843851 -0.727811842
vn -0.071694314 -0.375171999 -0.924178498
vn -0.274122963 -0.624712351 -0.731157356
vn -0.274122963 -0.624712351 -0.731157356
vn -0.179106031 -0.228591766 -0.956904820
vn -0.558523934 -0.360437647 -0.747084813
vn -0.179106031 -0.228591766 -0.956904820
vn -0.274122963 -0.624712351 -0.731157356
vn -0.071694314 -0.375171999 -0.924178498
vn -0.326222567 0.001756680 -0.945291358
vn -0.840400541 -0.009249379 -0.541886870
vn -0.558523934 -0.360437647 -0.747084813
vn -0.274122963 -0.624712351 -0.731157356
vn -0.583698050 -0.711108113 -0.391946218
vn -0.046396638 -0.992308785 -0.114763355
vn 0.183235716 -0.660843851 -0.727811842
vn -0.274122963 -0.624712351 -0.731157356
vn -0.046396638 -0.992308785 -0.114763355
vn 0.023325416 -0.094858362 0.995217472
vn 0.934549125 0.331901436 -0.128294073
vn -0.062371069 0.937715414 0.341759641
vn 0.934549125 0.331901436 -0.128294073
vn 0.023325416 -0.094858362 0.995217472
vn -0.237213981 0.148180364 0.960089635
vn -0.983587926 0.118542206 0.136024030
vn -0.716372634 0.696508535 0.041062262
vn -0.951401370 0.307611672 -0.014508356
vn -0.716372634 0.696508535 0.041062262
vn -0.983587926 0.118542206 0.136024030
vn -0.950012708 0.298347816 0.092002366
vn -0.793924295 0.070430787 0.603923604
vn 0.399414540 -0.205738395 0.893386668
vn -0.127748316 -0.449701015 0.883996247
vn 0.399414540 -0.205738395 0.893386668
vn -0.793924295 0.070430787 0.603923604
vn -0.868347226 -0.025640029 0.495293533
vn -0.950012708 0.298347816 0.092002366
vn -0.188692423 0.270804242 0.943959868
vn -0.716372634 0.696508535 0.041062262
vn -0.188692423 0.270804242 0.943959868
vn -0.950012708 0.298347816 0.092002366
vn -0.880349247 0.273795809 0.387325521
vn 0.256046229 0.112951151 0.960042898
vn -0.062371069 0.937715414 0.341759641
vn -0.435409402 0.837201135 0.330927352
vn -0.062371069 0.937715414 0.341759641
vn 0.256046229 0.112951151 0.960042898
vn 0.023325416 -0.094858362 0.995217472
vn -0.963577384 -0.138398848 0.228832654
vn -0.951401370 0.307611672 -0.014508356
vn -0.558404385 0.232109534 0.796435627
vn -0.951401370 0.307611672 -0.014508356
vn -0.963577384 -0.138398848 0.228832654
vn -0.983587926 0.118542206 0.136024030
vn -0.669597472 -0.356670361 0.651479454
vn -0.558404385 0.232109534 0.796435627
vn 0.001078502 -0.682267761 0.731101593
vn -0.558404385 0.232109534 0.796435627
vn -0.669597472 -0.356670361 0.651479454
vn -0.963577384 -0.138398848 0.228832654
vn -0.868347226 -0.025640029 0.495293533
vn 0.001078502 -0.682267761 0.731101593
vn 0.399414540 -0.205738395 0.893386668
vn 0.001078502 -0.682267761 0.731101593
vn -0.868347226 -0.025640029 0.495293533
vn -0.669597472 -0.356670361 0.651479454
vn -0.237213981 0.148180364 0.960089635
vn 0.558523708 0.770238954 -0.307868837
vn 0.934549125 0.331901436 -0.128294073
vn 0.558523708 0.770238954 -0.307868837
vn -0.237213981 0.148180364 0.960089635
vn -0.466269287 -0.240136975 0.851426559
vn -0.001231429 -0.785017972 0.619471765
vn -0.466269287 -0.240136975 0.851426559
vn -0.795809679 0.197226475 0.572528315
vn -0.466269287 -0.240136975 0.851426559
vn -0.001231429 -0.785017972 0.619471765
vn 0.558523708 0.770238954 -0.307868837
vn -0.127748316 -0.449701015 0.883996247
vn -0.795809679 0.197226475 0.572528315
vn -0.793924295 0.070430787 0.603923604
vn -0.795809679 0.197226475 0.572528315
vn -0.127748316 -0.449701015 0.883996247
vn -0.001231429 -0.785017972 0.619471765
vn -0.880349247 0.273795809 0.387325521
vn 0.017687984 0.442927262 0.896383052
vn -0.188692423 0.270804242 0.943959868
vn 0.017687984 0.442927262 0.896383052
vn -0.880349247 0.273795809 0.387325521
vn -0.455703682 0.843581782 0.284084375
vn -0.840400541 -0.009249379 -0.541886870
vn -0.797033146 -0.453766018 -0.398540544
vn -0.558523934 -0.360437647 -0.747084813
vn -0.554871146 -0.798904905 0.232096885
vn -0.466392472 -0.725325933 0.506340156
vn 0.072006561 -0.911815555 0.404236873
f 3/3/3 2/2/2 1/1/1
f 6/6/6 5/5/5 4/4/4
f 9/9/9 8/8/8 7/7/7
f 12/12/12 11/11/11 10/10/10
f 15/15/15 14/14/14 13/13/13
f 18/18/18 17/17/17 16/16/16
f 21/21/21 20/20/20 19/19/19
f 24/24/24 23/23/23 22/22/22
f 27/27/27 26/26/26 25/25/25
f 30/30/30 29/29/29 28/28/28
f 33/33/33 32/32/32 31/31/31
f 36/36/36 35/35/35 34/34/34
f 39/39/39 38/38/38 37/37/37
f 42/42/42 41/41/41 40/40/40
f 45/45/45 44/44/44 43/43/43
f 48/48/48 47/47/47 46/46/46
f 51/51/51 50/50/50 49/49/49
f 54/54/54 53/53/53 52/52/52
f 57/57/57 56/56/56 55/55/55
f 60/60/60 59/59/59 58/58/58
f 63/63/63 62/62/62 61/61/61
f 66/66/66 65/65/65 64/64/64
f 69/69/69 68/68/68 67/67/67
f 72/72/72 71/71/71 70/70/70
f 75/75/75 74/74/74 73/73/73
f 78/78/78 77/77/77 76/76/76
f 81/81/81 80/80/80 79/79/79
f 84/84/84 83/83/83 82/82/82
f 87/87/87 86/86/86 85/85/85
f 90/90/90 89/89/89 88/88/88
f 93/93/93 92/92/92 91/91/91
f 96/96/96 95/95/95 94/94/94
f 99/99/99 98/98/98 97/97/97
f 102/102/102 101/101/101 100/100/100
f 105/105/105 104/104/104 103/103/103
f 108/108/108 107/107/107 106/106/106
f 111/111/111 110/110/110 109/109/109
f 114/114/114 113/113/113 112/112/112
f 117/117/117 116/116/116 115/115/115
f 120/120/120 119/119/119 118/118/118
f 123/123/123 122/122/122 121/121/121
f 126/126/126 125/125/125 124/124/124
f 129/129/129 128/128/128 127/127/127
f 132/132/132 131/131/131 130/130/130
f 135/135/135 134/134/134 133/133/133
f 138/138/138 137/137/137 136/136/136
f 141/141/141 140/140/140 139/139/139
f 144/144/144 143/143/143 142/142/142
f 147/147/147 146/146/146 145/145/145
f 150/150/150 149/149/149 148/148/148
f 153/153/153 152/152/152 151/151/151
f 156/156/156 155/155/155 154/154/154
f 159/159/159 158/158/158 157/157/157
f 162/162/162 161/161/161 160/160/160
f 165/165/165 164/164/164 163/163/163
f 168/168/168 167/167/167 166/166/166
f 171/171/171 170/170/170 169/169/169
f 174/174/174 173/173/173 172/172/172
f 177/177/177 176/176/176 175/175/175
f 180/180/180 179/179/179 178/178/178
f 183/183/183 182/182/182 181/181/181
f 186/186/186 185/185/185 184/184/184
f 189/189/189 188/188/188 187/187/187
f 192/192/192 191/191/191 190/190/190
f 195/195/195 194/194/194 193/193/193
f 198/198/198 197/197/197 196/196/196
f 201/201/201 200/200/200 199/199/199
f 204/204/204 203/203/203 202/202/202
f 207/207/207 206/206/206 205/205/205
f 210/210/210 209/209/209 208/208/208
f 213/213/213 212/212/212 211/211/211
f 216/216/216 215/215/215 214/214/214
f 219/219/219 218/218/218 217/217/217
f 222/222/222 221/221/221 220/220/220
f 225/225/225 224/224/224 223/223/223
f 228/228/228 227/227/227 226/226/226
f 231/231/231 230/230/230 229/229/229
f 234/234/234 233/233/233 232/232/232
f 237/237/237 236/236/236 235/235/235
f 240/240/240 239/239/239 238/238/238
f 243/243/243 242/242/242 241/241/241
f 246/246/246 245/245/245 244/244/244
f 249/249/249 248/248/248 247/247/247
f 252/252/252 251/251/251 250/250/250
f 255/255/255 254/254/254 253/253/253
f 258/258/258 257/257/257 256/256/256
f 261/261/261 260/260/260 259/259/259
f 264/264/264 263/263/263 262/262/262
f 267/267/267 266/266/266 265/265/265
f 270/270/270 269/269/269 268/268/268
f 273/273/273 272/272/272 271/271/271
f 276/276/276 275/275/275 274/274/274
f 279/279/279 278/278/278 277/277/277
f 282/282/282 281/281/281 280/280/280
f 285/285/285 284/284/284 283/283/283
f 288/288/288 287/287/287 286/286/286
f 291/291/291 290/290/290 289/289/289
f 294/294/294 293/293/293 292/292/292
f 297/297/297 296/296/296 295/295/295
f 300/300/300 299/299/299 298/298/298
f 303/303/303 302/302/302 301/301/301
f 306/306/306 305/305/305 304/304/304
f 309/309/309 308/308/308 307/307/307
f 312/312/312 311/311/311 310/310/310
f 315/315/315 314/314/314 313/313/313
f 318/318/318 317/317/317 316/316/316
f 321/321/321 320/320/320 319/319/319
f 324/324/324 323/323/323 322/322/322
f 327/327/327 326/326/326 325/325/325
f 330/330/330 329/329/329 328/328/328
f 333/333/333 332/332/332 331/331/331
f 336/336/336 335/335/335 334/334/334
f 339/339/339 338/338/338 337/337/337
f 342/342/342 341/341/341 340/340/340
f 345/345/345 344/344/344 343/343/343
f 348/348/348 347/347/347 346/346/346
f 351/351/351 350/350/350 349/349/349
f 354/354/354 353/353/353 352/352/352
f 357/357/357 356/356/356 355/355/355
f 360/360/360 359/359/359 358/358/358
f 363/363/363 362/362/362 361/361/361
f 366/366/366 365/365/365 364/364/364
f 369/369/369 368/368/368 367/367/367
f 372/372/372 371/371/371 370/370/370
f 375/375/375 374/374/374 373/373/373
f 378/378/378 377/377/377 376/376/376
f 381/381/381 380/380/380 379/379/379
f 384/384/384 383/383/383 382/382/382
f 387/387/387 386/386/386 385/385/385
f 390/390/390 389/389/389 388/388/388
f 393/393/393 392/392/392 391/391/391
f 396/396/396 395/395/395 394/394/394
f 399/399/399 398/398/398 397/397/397
f 402/402/402 401/401/401 400/400/400
