# Static pose baked from local Project Zomboid assets
o Bob_Hair_Short
v -0.021507519 0.072448853 -0.361466810
v -0.029752855 0.052651434 -0.335097436
v -0.039303838 0.076814895 -0.337243701
v -0.029752855 0.052651434 -0.335097436
v -0.021507519 0.072448853 -0.361466810
v -0.024541695 0.045527136 -0.354161067
v -0.075366460 0.051629884 -0.472782794
v -0.122741683 0.069924339 -0.465635235
v -0.100299203 0.033919204 -0.469058327
v -0.041037306 0.084658376 -0.409051423
v -0.065693570 0.085542993 -0.442582734
v -0.048682126 0.072109276 -0.452630436
v -0.065693570 0.085542993 -0.442582734
v -0.041037306 0.084658376 -0.409051423
v -0.056236350 0.098581137 -0.411371819
v -0.029350402 0.072679991 -0.408935936
v -0.032454753 0.041957127 -0.447332033
v -0.018814608 0.061688442 -0.402884951
v -0.029350402 0.072679991 -0.408935936
v -0.048682126 0.072109276 -0.452630436
v -0.032454753 0.041957127 -0.447332033
v -0.041037306 0.084658376 -0.409051423
v -0.048682126 0.072109276 -0.452630436
v -0.029350402 0.072679991 -0.408935936
v -0.024541695 0.045527136 -0.354161067
v -0.018814608 0.061688442 -0.402884951
v -0.017488703 0.027617989 -0.393222728
v -0.018814608 0.061688442 -0.402884951
v -0.024541695 0.045527136 -0.354161067
v -0.021507519 0.072448853 -0.361466810
v -0.041719288 -0.008356068 -0.379356362
v -0.027708130 0.010130426 -0.441854410
v -0.051233290 -0.020091706 -0.429410113
v -0.027708130 0.010130426 -0.441854410
v -0.041719288 -0.008356068 -0.379356362
v -0.017488703 0.027617989 -0.393222728
v -0.099584647 0.097179296 -0.462935004
v -0.065693570 0.085542993 -0.442582734
v -0.088492333 0.097032319 -0.440983300
v -0.059159147 0.064871979 -0.465644629
v -0.032454753 0.041957127 -0.447332033
v -0.048682126 0.072109276 -0.452630436
v -0.032454753 0.041957127 -0.447332033
v -0.059159147 0.064871979 -0.465644629
v -0.046401797 0.039017684 -0.460157369
v -0.027708130 0.010130426 -0.441854410
v -0.060599725 -0.015319155 -0.447543016
v -0.051233290 -0.020091706 -0.429410113
v -0.099584647 0.097179296 -0.462935004
v -0.048682126 0.072109276 -0.452630436
v -0.065693570 0.085542993 -0.442582734
v -0.048682126 0.072109276 -0.452630436
v -0.099584647 0.097179296 -0.462935004
v -0.059159147 0.064871979 -0.465644629
v -0.046058497 0.029765133 -0.319252968
v -0.024541695 0.045527136 -0.354161067
v -0.042620225 0.012449154 -0.342287313
v -0.024541695 0.045527136 -0.354161067
v -0.046058497 0.029765133 -0.319252968
v -0.029752855 0.052651434 -0.335097436
v -0.042620225 0.012449154 -0.342287313
v -0.017488703 0.027617989 -0.393222728
v -0.041719288 -0.008356068 -0.379356362
v -0.017488703 0.027617989 -0.393222728
v -0.042620225 0.012449154 -0.342287313
v -0.024541695 0.045527136 -0.354161067
v -0.027708130 0.010130426 -0.441854410
v -0.018814608 0.061688442 -0.402884951
v -0.032454753 0.041957127 -0.447332033
v -0.018814608 0.061688442 -0.402884951
v -0.027708130 0.010130426 -0.441854410
v -0.017488703 0.027617989 -0.393222728
v -0.046401797 0.039017684 -0.460157369
v -0.027708130 0.010130426 -0.441854410
v -0.032454753 0.041957127 -0.447332033
v -0.052837560 0.105495246 -0.390013913
v -0.041037306 0.084658376 -0.409051423
v -0.040838738 0.095103125 -0.390380226
v -0.041037306 0.084658376 -0.409051423
v -0.052837560 0.105495246 -0.390013913
v -0.056236350 0.098581137 -0.411371819
v -0.039303838 0.076814895 -0.337243701
v -0.037439959 0.079929701 -0.359680780
v -0.021507519 0.072448853 -0.361466810
v -0.037439959 0.079929701 -0.359680780
v -0.039303838 0.076814895 -0.337243701
v -0.053769926 0.089787701 -0.325855506
v -0.021507519 0.072448853 -0.361466810
v -0.029350402 0.072679991 -0.408935936
v -0.018814608 0.061688442 -0.402884951
v -0.029350402 0.072679991 -0.408935936
v -0.021507519 0.072448853 -0.361466810
v -0.037439959 0.079929701 -0.359680780
v -0.075366460 0.051629884 -0.472782794
v -0.046401797 0.039017684 -0.460157369
v -0.059159147 0.064871979 -0.465644629
v -0.046401797 0.039017684 -0.460157369
v -0.075366460 0.051629884 -0.472782794
v -0.055755649 0.021354116 -0.464655598
v -0.132174124 0.090707131 -0.453418254
v -0.122741683 0.069924339 -0.465635235
v -0.099584647 0.097179296 -0.462935004
v -0.088492333 0.097032319 -0.440983300
v -0.132174124 0.090707131 -0.453418254
v -0.099584647 0.097179296 -0.462935004
v -0.132174124 0.090707131 -0.453418254
v -0.088492333 0.097032319 -0.440983300
v -0.123770696 0.090911667 -0.428591235
v -0.060599725 -0.015319155 -0.447543016
v -0.055755649 0.021354116 -0.464655598
v -0.075563343 0.001649348 -0.458686783
v -0.055755649 0.021354116 -0.464655598
v -0.100299203 0.033919204 -0.469058327
v -0.075563343 0.001649348 -0.458686783
v -0.100299203 0.033919204 -0.469058327
v -0.055755649 0.021354116 -0.464655598
v -0.075366460 0.051629884 -0.472782794
v -0.059159147 0.064871979 -0.465644629
v -0.122741683 0.069924339 -0.465635235
v -0.075366460 0.051629884 -0.472782794
v -0.122741683 0.069924339 -0.465635235
v -0.059159147 0.064871979 -0.465644629
v -0.099584647 0.097179296 -0.462935004
v -0.055755649 0.021354116 -0.464655598
v -0.027708130 0.010130426 -0.441854410
v -0.046401797 0.039017684 -0.460157369
v -0.060599725 -0.015319155 -0.447543016
v -0.027708130 0.010130426 -0.441854410
v -0.055755649 0.021354116 -0.464655598
v -0.029752855 0.052651434 -0.335097436
v -0.042888682 0.074049180 -0.346926310
v -0.039303838 0.076814895 -0.337243701
v -0.042888682 0.074049180 -0.346926310
v -0.029752855 0.052651434 -0.335097436
v -0.034753794 0.053469330 -0.345097865
v -0.056236350 0.098581137 -0.411371819
v -0.070535424 0.088756127 -0.437802389
v -0.065693570 0.085542993 -0.442582734
v -0.070535424 0.088756127 -0.437802389
v -0.056236350 0.098581137 -0.411371819
v -0.060251577 0.096725284 -0.410720041
v -0.029350402 0.072679991 -0.408935936
v -0.044364800 0.080728830 -0.408083031
v -0.041037306 0.084658376 -0.409051423
v -0.044364800 0.080728830 -0.408083031
v -0.029350402 0.072679991 -0.408935936
v -0.034410720 0.070527392 -0.407984684
v -0.065693570 0.085542993 -0.442582734
v -0.084781493 0.091268138 -0.435278907
v -0.088492333 0.097032319 -0.440983300
v -0.084781493 0.091268138 -0.435278907
v -0.065693570 0.085542993 -0.442582734
v -0.070535424 0.088756127 -0.437802389
v -0.046058497 0.029765133 -0.319252968
v -0.034753794 0.053469330 -0.345097865
v -0.029752855 0.052651434 -0.335097436
v -0.034753794 0.053469330 -0.345097865
v -0.046058497 0.029765133 -0.319252968
v -0.052695855 0.030082790 -0.337948167
v -0.052837560 0.105495246 -0.390013913
v -0.060251577 0.096725284 -0.410720041
v -0.056236350 0.098581137 -0.411371819
v -0.060251577 0.096725284 -0.410720041
v -0.052837560 0.105495246 -0.390013913
v -0.056166586 0.104385742 -0.385689606
v -0.040838738 0.095103125 -0.390380226
v -0.056166586 0.104385742 -0.385689606
v -0.052837560 0.105495246 -0.390013913
v -0.056166586 0.104385742 -0.385689606
v -0.040838738 0.095103125 -0.390380226
v -0.043082923 0.091504527 -0.385358870
v -0.041037306 0.084658376 -0.409051423
v -0.043082923 0.091504527 -0.385358870
v -0.040838738 0.095103125 -0.390380226
v -0.043082923 0.091504527 -0.385358870
v -0.041037306 0.084658376 -0.409051423
v -0.044364800 0.080728830 -0.408083031
v -0.039303838 0.076814895 -0.337243701
v -0.055209555 0.085097601 -0.337226600
v -0.053769926 0.089787701 -0.325855506
v -0.055209555 0.085097601 -0.337226600
v -0.039303838 0.076814895 -0.337243701
v -0.042888682 0.074049180 -0.346926310
v -0.053769926 0.089787701 -0.325855506
v -0.041301253 0.076700805 -0.366035288
v -0.037439959 0.079929701 -0.359680780
v -0.041301253 0.076700805 -0.366035288
v -0.053769926 0.089787701 -0.325855506
v -0.055209555 0.085097601 -0.337226600
v -0.037439959 0.079929701 -0.359680780
v -0.034410720 0.070527392 -0.407984684
v -0.029350402 0.072679991 -0.408935936
v -0.034410720 0.070527392 -0.407984684
v -0.037439959 0.079929701 -0.359680780
v -0.041301253 0.076700805 -0.366035288
v -0.088492333 0.097032319 -0.440983300
v -0.117686493 0.084179070 -0.423742003
v -0.123770696 0.090911667 -0.428591235
v -0.117686493 0.084179070 -0.423742003
v -0.088492333 0.097032319 -0.440983300
v -0.084781493 0.091268138 -0.435278907
v -0.108125621 0.015626764 -0.331680268
v -0.077238121 0.021500762 -0.318768032
v -0.081187795 0.008366892 -0.334681404
v -0.077238121 0.021500762 -0.318768032
v -0.108125621 0.015626764 -0.331680268
v -0.095879224 0.039701041 -0.317788355
v -0.124225852 0.019577776 -0.455980851
v -0.100299203 0.033919204 -0.469058327
v -0.122741683 0.069924339 -0.465635235
v -0.133910491 0.023732907 -0.377113860
v -0.142364934 0.035246035 -0.416216711
v -0.142306406 0.042118570 -0.381773740
v -0.142364934 0.035246035 -0.416216711
v -0.133910491 0.023732907 -0.377113860
v -0.140404581 0.011938696 -0.421088590
v -0.117235865 -0.013659884 -0.418177201
v -0.127117402 0.008544146 -0.375315470
v -0.118188769 -0.003501712 -0.368711809
v -0.140404581 0.011938696 -0.421088590
v -0.127117402 0.008544146 -0.375315470
v -0.117235865 -0.013659884 -0.418177201
v -0.133910491 0.023732907 -0.377113860
v -0.127117402 0.008544146 -0.375315470
v -0.140404581 0.011938696 -0.421088590
v -0.081187795 0.008366892 -0.334681404
v -0.118188769 -0.003501712 -0.368711809
v -0.108125621 0.015626764 -0.331680268
v -0.118188769 -0.003501712 -0.368711809
v -0.081187795 0.008366892 -0.334681404
v -0.085418700 -0.016944571 -0.369862718
v -0.041719288 -0.008356068 -0.379356362
v -0.089222330 -0.030223326 -0.420700687
v -0.085418700 -0.016944571 -0.369862718
v -0.089222330 -0.030223326 -0.420700687
v -0.041719288 -0.008356068 -0.379356362
v -0.051233290 -0.020091706 -0.429410113
v -0.151383543 0.063198853 -0.445122215
v -0.144743072 0.060131435 -0.421639595
v -0.142364934 0.035246035 -0.416216711
v -0.136998916 0.013808538 -0.438876810
v -0.117235865 -0.013659884 -0.418177201
v -0.116376106 -0.006885960 -0.436094353
v -0.117235865 -0.013659884 -0.418177201
v -0.136998916 0.013808538 -0.438876810
v -0.140404581 0.011938696 -0.421088590
v -0.089222330 -0.030223326 -0.420700687
v -0.051233290 -0.020091706 -0.429410113
v -0.060599725 -0.015319155 -0.447543016
v -0.151383543 0.063198853 -0.445122215
v -0.140404581 0.011938696 -0.421088590
v -0.136998916 0.013808538 -0.438876810
v -0.140404581 0.011938696 -0.421088590
v -0.151383543 0.063198853 -0.445122215
v -0.142364934 0.035246035 -0.416216711
v -0.046058497 0.029765133 -0.319252968
v -0.081187795 0.008366892 -0.334681404
v -0.077238121 0.021500762 -0.318768032
v -0.081187795 0.008366892 -0.334681404
v -0.046058497 0.029765133 -0.319252968
v -0.042620225 0.012449154 -0.342287313
v -0.042620225 0.012449154 -0.342287313
v -0.085418700 -0.016944571 -0.369862718
v -0.081187795 0.008366892 -0.334681404
v -0.085418700 -0.016944571 -0.369862718
v -0.042620225 0.012449154 -0.342287313
v -0.041719288 -0.008356068 -0.379356362
v -0.089222330 -0.030223326 -0.420700687
v -0.118188769 -0.003501712 -0.368711809
v -0.085418700 -0.016944571 -0.369862718
v -0.118188769 -0.003501712 -0.368711809
v -0.089222330 -0.030223326 -0.420700687
v -0.117235865 -0.013659884 -0.418177201
v -0.116376106 -0.006885960 -0.436094353
v -0.117235865 -0.013659884 -0.418177201
v -0.089222330 -0.030223326 -0.420700687
v -0.139669415 0.048532933 -0.360153864
v -0.133910491 0.023732907 -0.377113860
v -0.142306406 0.042118570 -0.381773740
v -0.133910491 0.023732907 -0.377113860
v -0.139669415 0.048532933 -0.360153864
v -0.134525147 0.033644177 -0.358163008
v -0.095879224 0.039701041 -0.317788355
v -0.109026255 0.032968583 -0.335063429
v -0.097595680 0.061037695 -0.310784549
v -0.109026255 0.032968583 -0.335063429
v -0.095879224 0.039701041 -0.317788355
v -0.108125621 0.015626764 -0.331680268
v -0.108125621 0.015626764 -0.331680268
v -0.127117402 0.008544146 -0.375315470
v -0.109026255 0.032968583 -0.335063429
v -0.127117402 0.008544146 -0.375315470
v -0.108125621 0.015626764 -0.331680268
v -0.118188769 -0.003501712 -0.368711809
v -0.124225852 0.019577776 -0.455980851
v -0.116376106 -0.006885960 -0.436094353
v -0.100682308 -0.008118091 -0.449206058
v -0.116376106 -0.006885960 -0.436094353
v -0.124225852 0.019577776 -0.455980851
v -0.136998916 0.013808538 -0.438876810
v -0.132174124 0.090707131 -0.453418254
v -0.151383543 0.063198853 -0.445122215
v -0.122741683 0.069924339 -0.465635235
v -0.144743072 0.060131435 -0.421639595
v -0.132174124 0.090707131 -0.453418254
v -0.123770696 0.090911667 -0.428591235
v -0.132174124 0.090707131 -0.453418254
v -0.144743072 0.060131435 -0.421639595
v -0.151383543 0.063198853 -0.445122215
v -0.060599725 -0.015319155 -0.447543016
v -0.075563343 0.001649348 -0.458686783
v -0.100682308 -0.008118091 -0.449206058
v -0.100682308 -0.008118091 -0.449206058
v -0.100299203 0.033919204 -0.469058327
v -0.124225852 0.019577776 -0.455980851
v -0.100299203 0.033919204 -0.469058327
v -0.100682308 -0.008118091 -0.449206058
v -0.075563343 0.001649348 -0.458686783
v -0.136998916 0.013808538 -0.438876810
v -0.122741683 0.069924339 -0.465635235
v -0.151383543 0.063198853 -0.445122215
v -0.122741683 0.069924339 -0.465635235
v -0.136998916 0.013808538 -0.438876810
v -0.124225852 0.019577776 -0.455980851
v -0.100682308 -0.008118091 -0.449206058
v -0.116376106 -0.006885960 -0.436094353
v -0.089222330 -0.030223326 -0.420700687
v -0.060599725 -0.015319155 -0.447543016
v -0.100682308 -0.008118091 -0.449206058
v -0.089222330 -0.030223326 -0.420700687
v -0.077238121 0.021500762 -0.318768032
v -0.096791356 0.038688644 -0.328390066
v -0.080914756 0.023187412 -0.329223868
v -0.096791356 0.038688644 -0.328390066
v -0.077238121 0.021500762 -0.318768032
v -0.095879224 0.039701041 -0.317788355
v -0.142306406 0.042118570 -0.381773740
v -0.141552785 0.042168234 -0.413380685
v -0.139274222 0.044885868 -0.383545452
v -0.141552785 0.042168234 -0.413380685
v -0.142306406 0.042118570 -0.381773740
v -0.142364934 0.035246035 -0.416216711
v -0.127117402 0.008544146 -0.375315470
v -0.129181272 0.025088623 -0.378916040
v -0.123396172 0.012152304 -0.377384049
v -0.129181272 0.025088623 -0.378916040
v -0.127117402 0.008544146 -0.375315470
v -0.133910491 0.023732907 -0.377113860
v -0.142364934 0.035246035 -0.416216711
v -0.138407733 0.056088944 -0.416837724
v -0.141552785 0.042168234 -0.413380685
v -0.138407733 0.056088944 -0.416837724
v -0.142364934 0.035246035 -0.416216711
v -0.144743072 0.060131435 -0.421639595
v -0.046058497 0.029765133 -0.319252968
v -0.080914756 0.023187412 -0.329223868
v -0.052695855 0.030082790 -0.337948167
v -0.080914756 0.023187412 -0.329223868
v -0.046058497 0.029765133 -0.319252968
v -0.077238121 0.021500762 -0.318768032
v -0.139669415 0.048532933 -0.360153864
v -0.139274222 0.044885868 -0.383545452
v -0.135838526 0.052120385 -0.358291734
v -0.139274222 0.044885868 -0.383545452
v -0.139669415 0.048532933 -0.360153864
v -0.142306406 0.042118570 -0.381773740
v -0.134525147 0.033644177 -0.358163008
v -0.135838526 0.052120385 -0.358291734
v -0.128592078 0.035409914 -0.355953676
v -0.135838526 0.052120385 -0.358291734
v -0.134525147 0.033644177 -0.358163008
v -0.139669415 0.048532933 -0.360153864
v -0.133910491 0.023732907 -0.377113860
v -0.128592078 0.035409914 -0.355953676
v -0.129181272 0.025088623 -0.378916040
v -0.128592078 0.035409914 -0.355953676
v -0.133910491 0.023732907 -0.377113860
v -0.134525147 0.033644177 -0.358163008
v -0.095879224 0.039701041 -0.317788355
v -0.098252621 0.056861045 -0.322424796
v -0.096791356 0.038688644 -0.328390066
v -0.098252621 0.056861045 -0.322424796
v -0.095879224 0.039701041 -0.317788355
v -0.097595680 0.061037695 -0.310784549
v -0.097595680 0.061037695 -0.310784549
v -0.107987305 0.032954282 -0.343103050
v -0.098252621 0.056861045 -0.322424796
v -0.107987305 0.032954282 -0.343103050
v -0.097595680 0.061037695 -0.310784549
v -0.109026255 0.032968583 -0.335063429
v -0.109026255 0.032968583 -0.335063429
v -0.123396172 0.012152304 -0.377384049
v -0.107987305 0.032954282 -0.343103050
v -0.123396172 0.012152304 -0.377384049
v -0.109026255 0.032968583 -0.335063429
v -0.127117402 0.008544146 -0.375315470
v -0.144743072 0.060131435 -0.421639595
v -0.117686493 0.084179070 -0.423742003
v -0.138407733 0.056088944 -0.416837724
v -0.117686493 0.084179070 -0.423742003
v -0.144743072 0.060131435 -0.421639595
v -0.123770696 0.090911667 -0.428591235
vt 0.231472000 0.269191027
vt 0.311340988 0.298097968
vt 0.243588999 0.307554007
vt 0.311340988 0.298097968
vt 0.231472000 0.269191027
vt 0.299506992 0.271335006
vt 0.245623007 0.091320992
vt 0.174061000 0.037231982
vt 0.289168000 0.058817029
vt 0.139311999 0.192520976
vt 0.130154997 0.130401969
vt 0.186589003 0.137696981
vt 0.130154997 0.130401969
vt 0.139311999 0.192520976
vt 0.096551999 0.173452973
vt 0.177185997 0.208970010
vt 0.255980998 0.153638005
vt 0.213566005 0.215201974
vt 0.177185997 0.208970010
vt 0.186589003 0.137696981
vt 0.255980998 0.153638005
vt 0.139311999 0.192520976
vt 0.186589003 0.137696981
vt 0.177185997 0.208970010
vt 0.299506992 0.271335006
vt 0.213566005 0.215201974
vt 0.295488000 0.218972981
vt 0.213566005 0.215201974
vt 0.299506992 0.271335006
vt 0.231472000 0.269191027
vt 0.397085011 0.219743013
vt 0.319485009 0.159254014
vt 0.397762001 0.158024013
vt 0.319485009 0.159254014
vt 0.397085011 0.219743013
vt 0.295488000 0.218972981
vt 0.124989003 0.076780021
vt 0.130154997 0.130401969
vt 0.093029000 0.101359010
vt 0.210366994 0.115438998
vt 0.255980998 0.153638005
vt 0.186589003 0.137696981
vt 0.255980998 0.153638005
vt 0.210366994 0.115438998
vt 0.266377002 0.128005981
vt 0.319485009 0.159254014
vt 0.398012012 0.133623004
vt 0.397762001 0.158024013
vt 0.124989003 0.076780021
vt 0.186589003 0.137696981
vt 0.130154997 0.130401969
vt 0.186589003 0.137696981
vt 0.124989003 0.076780021
vt 0.210366994 0.115438998
vt 0.396254987 0.299126029
vt 0.299506992 0.271335006
vt 0.396586001 0.267223001
vt 0.299506992 0.271335006
vt 0.396254987 0.299126029
vt 0.311340988 0.298097968
vt 0.396586001 0.267223001
vt 0.295488000 0.218972981
vt 0.397085011 0.219743013
vt 0.295488000 0.218972981
vt 0.396586001 0.267223001
vt 0.299506992 0.271335006
vt 0.319485009 0.159254014
vt 0.213566005 0.215201974
vt 0.255980998 0.153638005
vt 0.213566005 0.215201974
vt 0.319485009 0.159254014
vt 0.295488000 0.218972981
vt 0.266377002 0.128005981
vt 0.319485009 0.159254014
vt 0.255980998 0.153638005
vt 0.062592000 0.195635021
vt 0.139311999 0.192520976
vt 0.092519999 0.206597984
vt 0.139311999 0.192520976
vt 0.062592000 0.195635021
vt 0.096551999 0.173452973
vt 0.243588999 0.307554007
vt 0.196217000 0.278376997
vt 0.231472000 0.269191027
vt 0.196217000 0.278376997
vt 0.243588999 0.307554007
vt 0.208454996 0.325343966
vt 0.231472000 0.269191027
vt 0.177185997 0.208970010
vt 0.213566005 0.215201974
vt 0.177185997 0.208970010
vt 0.231472000 0.269191027
vt 0.196217000 0.278376997
vt 0.245623007 0.091320992
vt 0.266377002 0.128005981
vt 0.210366994 0.115438998
vt 0.266377002 0.128005981
vt 0.245623007 0.091320992
vt 0.316464990 0.114346027
vt 0.096952997 0.038388014
vt 0.174061000 0.037231982
vt 0.124989003 0.076780021
vt 0.093029000 0.101359010
vt 0.096952997 0.038388014
vt 0.124989003 0.076780021
vt 0.096952997 0.038388014
vt 0.093029000 0.101359010
vt 0.039018001 0.060724974
vt 0.398012012 0.133623004
vt 0.316464990 0.114346027
vt 0.398351997 0.099462986
vt 0.316464990 0.114346027
vt 0.289168000 0.058817029
vt 0.398351997 0.099462986
vt 0.289168000 0.058817029
vt 0.316464990 0.114346027
vt 0.245623007 0.091320992
vt 0.210366994 0.115438998
vt 0.174061000 0.037231982
vt 0.245623007 0.091320992
vt 0.174061000 0.037231982
vt 0.210366994 0.115438998
vt 0.124989003 0.076780021
vt 0.316464990 0.114346027
vt 0.319485009 0.159254014
vt 0.266377002 0.128005981
vt 0.398012012 0.133623004
vt 0.319485009 0.159254014
vt 0.316464990 0.114346027
vt 0.311340988 0.298097968
vt 0.260289997 0.320204020
vt 0.243588999 0.307554007
vt 0.260289997 0.320204020
vt 0.311340988 0.298097968
vt 0.311482012 0.313256025
vt 0.096551999 0.173452973
vt 0.110900000 0.129186988
vt 0.130154997 0.130401969
vt 0.110900000 0.129186988
vt 0.096551999 0.173452973
vt 0.088729002 0.168857992
vt 0.177185997 0.208970010
vt 0.141003996 0.198900998
vt 0.139311999 0.192520976
vt 0.141003996 0.198900998
vt 0.177185997 0.208970010
vt 0.163987994 0.213379979
vt 0.130154997 0.130401969
vt 0.082898997 0.110795975
vt 0.093029000 0.101359010
vt 0.082898997 0.110795975
vt 0.130154997 0.130401969
vt 0.110900000 0.129186988
vt 0.396254987 0.299126029
vt 0.311482012 0.313256025
vt 0.311340988 0.298097968
vt 0.311482012 0.313256025
vt 0.396254987 0.299126029
vt 0.396023005 0.321511030
vt 0.062592000 0.195635021
vt 0.088729002 0.168857992
vt 0.096551999 0.173452973
vt 0.088729002 0.168857992
vt 0.062592000 0.195635021
vt 0.050524998 0.197710037
vt 0.092519999 0.206597984
vt 0.050524998 0.197710037
vt 0.062592000 0.195635021
vt 0.050524998 0.197710037
vt 0.092519999 0.206597984
vt 0.088462003 0.214053035
vt 0.139311999 0.192520976
vt 0.088462003 0.214053035
vt 0.092519999 0.206597984
vt 0.088462003 0.214053035
vt 0.139311999 0.192520976
vt 0.141003996 0.198900998
vt 0.243588999 0.307554007
vt 0.208065003 0.321933031
vt 0.208454996 0.325343966
vt 0.208065003 0.321933031
vt 0.243588999 0.307554007
vt 0.260289997 0.320204020
vt 0.208454996 0.325343966
vt 0.178407997 0.272451997
vt 0.196217000 0.278376997
vt 0.178407997 0.272451997
vt 0.208454996 0.325343966
vt 0.208065003 0.321933031
vt 0.196217000 0.278376997
vt 0.163987994 0.213379979
vt 0.177185997 0.208970010
vt 0.163987994 0.213379979
vt 0.196217000 0.278376997
vt 0.178407997 0.272451997
vt 0.093029000 0.101359010
vt 0.025242999 0.073077977
vt 0.039018001 0.060724974
vt 0.025242999 0.073077977
vt 0.093029000 0.101359010
vt 0.082898997 0.110795975
vt 0.561630011 0.270137012
vt 0.481184006 0.298583031
vt 0.493566990 0.271888971
vt 0.481184006 0.298583031
vt 0.561630011 0.270137012
vt 0.548731983 0.308427989
vt 0.551253021 0.092194974
vt 0.508328974 0.059454978
vt 0.623642981 0.038424015
vt 0.655161977 0.194045007
vt 0.666571021 0.131835997
vt 0.698036015 0.175338030
vt 0.666571021 0.131835997
vt 0.655161977 0.194045007
vt 0.609579027 0.138836980
vt 0.539686978 0.154408991
vt 0.617075026 0.210240006
vt 0.580617011 0.216246009
vt 0.609579027 0.138836980
vt 0.617075026 0.210240006
vt 0.539686978 0.154408991
vt 0.655161977 0.194045007
vt 0.617075026 0.210240006
vt 0.609579027 0.138836980
vt 0.493566990 0.271888971
vt 0.580617011 0.216246009
vt 0.561630011 0.270137012
vt 0.580617011 0.216246009
vt 0.493566990 0.271888971
vt 0.498676002 0.219547987
vt 0.397085011 0.219743013
vt 0.476029992 0.159684002
vt 0.498676002 0.219547987
vt 0.476029992 0.159684002
vt 0.397085011 0.219743013
vt 0.397762001 0.158024013
vt 0.672026992 0.078193009
vt 0.703835011 0.102828979
vt 0.666571021 0.131835997
vt 0.586139977 0.116492033
vt 0.539686978 0.154408991
vt 0.529814005 0.128735006
vt 0.539686978 0.154408991
vt 0.586139977 0.116492033
vt 0.609579027 0.138836980
vt 0.476029992 0.159684002
vt 0.397762001 0.158024013
vt 0.398012012 0.133623004
vt 0.672026992 0.078193009
vt 0.609579027 0.138836980
vt 0.586139977 0.116492033
vt 0.609579027 0.138836980
vt 0.672026992 0.078193009
vt 0.666571021 0.131835997
vt 0.396254987 0.299126029
vt 0.493566990 0.271888971
vt 0.481184006 0.298583031
vt 0.493566990 0.271888971
vt 0.396254987 0.299126029
vt 0.396586001 0.267223001
vt 0.396586001 0.267223001
vt 0.498676002 0.219547987
vt 0.493566990 0.271888971
vt 0.498676002 0.219547987
vt 0.396586001 0.267223001
vt 0.397085011 0.219743013
vt 0.476029992 0.159684002
vt 0.580617011 0.216246009
vt 0.498676002 0.219547987
vt 0.580617011 0.216246009
vt 0.476029992 0.159684002
vt 0.539686978 0.154408991
vt 0.529814005 0.128735006
vt 0.539686978 0.154408991
vt 0.476029992 0.159684002
vt 0.731719971 0.197631001
vt 0.655161977 0.194045007
vt 0.698036015 0.175338030
vt 0.655161977 0.194045007
vt 0.731719971 0.197631001
vt 0.701600015 0.208433986
vt 0.548731983 0.308427989
vt 0.596689999 0.279528022
vt 0.583496988 0.326421022
vt 0.596689999 0.279528022
vt 0.548731983 0.308427989
vt 0.561630011 0.270137012
vt 0.561630011 0.270137012
vt 0.617075026 0.210240006
vt 0.596689999 0.279528022
vt 0.617075026 0.210240006
vt 0.561630011 0.270137012
vt 0.580617011 0.216246009
vt 0.551253021 0.092194974
vt 0.529814005 0.128735006
vt 0.479947001 0.114804983
vt 0.529814005 0.128735006
vt 0.551253021 0.092194974
vt 0.586139977 0.116492033
vt 0.700621009 0.039879024
vt 0.672026992 0.078193009
vt 0.623642981 0.038424015
vt 0.703835011 0.102828979
vt 0.700621009 0.039879024
vt 0.758270979 0.062367976
vt 0.700621009 0.039879024
vt 0.703835011 0.102828979
vt 0.672026992 0.078193009
vt 0.398012012 0.133623004
vt 0.398351997 0.099462986
vt 0.479947001 0.114804983
vt 0.479947001 0.114804983
vt 0.508328974 0.059454978
vt 0.551253021 0.092194974
vt 0.508328974 0.059454978
vt 0.479947001 0.114804983
vt 0.398351997 0.099462986
vt 0.586139977 0.116492033
vt 0.623642981 0.038424015
vt 0.672026992 0.078193009
vt 0.623642981 0.038424015
vt 0.586139977 0.116492033
vt 0.551253021 0.092194974
vt 0.479947001 0.114804983
vt 0.529814005 0.128735006
vt 0.476029992 0.159684002
vt 0.398012012 0.133623004
vt 0.479947001 0.114804983
vt 0.476029992 0.159684002
vt 0.481184006 0.298583031
vt 0.531772017 0.320981026
vt 0.480729014 0.313739002
vt 0.531772017 0.320981026
vt 0.481184006 0.298583031
vt 0.548731983 0.308427989
vt 0.698036015 0.175338030
vt 0.685962975 0.130748987
vt 0.705775976 0.170845985
vt 0.685962975 0.130748987
vt 0.698036015 0.175338030
vt 0.666571021 0.131835997
vt 0.617075026 0.210240006
vt 0.653364003 0.200389028
vt 0.630153000 0.214730024
vt 0.653364003 0.200389028
vt 0.617075026 0.210240006
vt 0.655161977 0.194045007
vt 0.666571021 0.131835997
vt 0.713918984 0.112308025
vt 0.685962975 0.130748987
vt 0.713918984 0.112308025
vt 0.666571021 0.131835997
vt 0.703835011 0.102828979
vt 0.396254987 0.299126029
vt 0.480729014 0.313739002
vt 0.396023005 0.321511030
vt 0.480729014 0.313739002
vt 0.396254987 0.299126029
vt 0.481184006 0.298583031
vt 0.731719971 0.197631001
vt 0.705775976 0.170845985
vt 0.743750989 0.199755013
vt 0.705775976 0.170845985
vt 0.731719971 0.197631001
vt 0.698036015 0.175338030
vt 0.701600015 0.208433986
vt 0.743750989 0.199755013
vt 0.705498993 0.215909004
vt 0.743750989 0.199755013
vt 0.701600015 0.208433986
vt 0.731719971 0.197631001
vt 0.655161977 0.194045007
vt 0.705498993 0.215909004
vt 0.653364003 0.200389028
vt 0.705498993 0.215909004
vt 0.655161977 0.194045007
vt 0.701600015 0.208433986
vt 0.548731983 0.308427989
vt 0.583953977 0.323011041
vt 0.531772017 0.320981026
vt 0.583953977 0.323011041
vt 0.548731983 0.308427989
vt 0.583496988 0.326421022
vt 0.583496988 0.326421022
vt 0.614612997 0.273705959
vt 0.583953977 0.323011041
vt 0.614612997 0.273705959
vt 0.583496988 0.326421022
vt 0.596689999 0.279528022
vt 0.596689999 0.279528022
vt 0.630153000 0.214730024
vt 0.614612997 0.273705959
vt 0.630153000 0.214730024
vt 0.596689999 0.279528022
vt 0.617075026 0.210240006
vt 0.703835011 0.102828979
vt 0.771929026 0.074750006
vt 0.713918984 0.112308025
vt 0.771929026 0.074750006
vt 0.703835011 0.102828979
vt 0.758270979 0.062367976
vn 0.882224842 0.446154716 0.150417076
vn 0.681059420 0.069345568 0.728937075
vn 0.585354625 0.436384568 0.683321645
vn 0.681059420 0.069345568 0.728937075
vn 0.882224842 0.446154716 0.150417076
vn 0.948359260 -0.185942073 0.256982995
vn 0.089743478 0.042624899 -0.995052374
vn -0.344287125 0.032966363 -0.938285455
vn -0.161016393 -0.254430803 -0.953592517
vn 0.666908892 0.676103044 -0.313236659
vn 0.482560856 0.820858110 -0.305494652
vn 0.647846337 0.611990427 -0.453610892
vn 0.482560856 0.820858110 -0.305494652
vn 0.666908892 0.676103044 -0.313236659
vn 0.477487579 0.778915524 -0.406566377
vn 0.707995566 0.653615637 -0.267448831
vn 0.833801722 0.242920534 -0.495746207
vn 0.981586687 0.130573055 -0.139421139
vn 0.707995566 0.653615637 -0.267448831
vn 0.647846337 0.611990427 -0.453610892
vn 0.833801722 0.242920534 -0.495746207
vn 0.666908892 0.676103044 -0.313236659
vn 0.647846337 0.611990427 -0.453610892
vn 0.707995566 0.653615637 -0.267448831
vn 0.948359260 -0.185942073 0.256982995
vn 0.981586687 0.130573055 -0.139421139
vn 0.945229600 -0.306840597 0.111309705
vn 0.981586687 0.130573055 -0.139421139
vn 0.948359260 -0.185942073 0.256982995
vn 0.882224842 0.446154716 0.150417076
vn 0.584732536 -0.785878370 0.201204000
vn 0.872066607 -0.362993294 -0.328231170
vn 0.532661976 -0.844105733 -0.061292178
vn 0.872066607 -0.362993294 -0.328231170
vn 0.584732536 -0.785878370 0.201204000
vn 0.945229600 -0.306840597 0.111309705
vn 0.135729832 0.649645548 -0.748022777
vn 0.482560856 0.820858110 -0.305494652
vn 0.037403558 0.980545430 0.192695701
vn 0.283276863 0.271732829 -0.919736641
vn 0.833801722 0.242920534 -0.495746207
vn 0.647846337 0.611990427 -0.453610892
vn 0.833801722 0.242920534 -0.495746207
vn 0.283276863 0.271732829 -0.919736641
vn 0.550284374 -0.000382346 -0.834977222
vn 0.872066607 -0.362993294 -0.328231170
vn 0.215338842 -0.690329640 -0.690705561
vn 0.532661976 -0.844105733 -0.061292178
vn 0.135729832 0.649645548 -0.748022777
vn 0.647846337 0.611990427 -0.453610892
vn 0.482560856 0.820858110 -0.305494652
vn 0.647846337 0.611990427 -0.453610892
vn 0.135729832 0.649645548 -0.748022777
vn 0.283276863 0.271732829 -0.919736641
vn 0.421568549 -0.176355072 0.889482348
vn 0.948359260 -0.185942073 0.256982995
vn 0.591712893 -0.657417993 0.466559144
vn 0.948359260 -0.185942073 0.256982995
vn 0.421568549 -0.176355072 0.889482348
vn 0.681059420 0.069345568 0.728937075
vn 0.591712893 -0.657417993 0.466559144
vn 0.945229600 -0.306840597 0.111309705
vn 0.584732536 -0.785878370 0.201204000
vn 0.945229600 -0.306840597 0.111309705
vn 0.591712893 -0.657417993 0.466559144
vn 0.948359260 -0.185942073 0.256982995
vn 0.872066607 -0.362993294 -0.328231170
vn 0.981586687 0.130573055 -0.139421139
vn 0.833801722 0.242920534 -0.495746207
vn 0.981586687 0.130573055 -0.139421139
vn 0.872066607 -0.362993294 -0.328231170
vn 0.945229600 -0.306840597 0.111309705
vn 0.550284374 -0.000382346 -0.834977222
vn 0.872066607 -0.362993294 -0.328231170
vn 0.833801722 0.242920534 -0.495746207
vn 0.472829013 0.831302911 -0.292178361
vn 0.666908892 0.676103044 -0.313236659
vn 0.813847759 0.579873827 0.037392109
vn 0.666908892 0.676103044 -0.313236659
vn 0.472829013 0.831302911 -0.292178361
vn 0.477487579 0.778915524 -0.406566377
vn 0.585354625 0.436384568 0.683321645
vn 0.273111200 0.960601406 -0.051528749
vn 0.882224842 0.446154716 0.150417076
vn 0.273111200 0.960601406 -0.051528749
vn 0.585354625 0.436384568 0.683321645
vn 0.254096697 0.966940720 -0.021459584
vn 0.882224842 0.446154716 0.150417076
vn 0.707995566 0.653615637 -0.267448831
vn 0.981586687 0.130573055 -0.139421139
vn 0.707995566 0.653615637 -0.267448831
vn 0.882224842 0.446154716 0.150417076
vn 0.273111200 0.960601406 -0.051528749
vn 0.089743478 0.042624899 -0.995052374
vn 0.550284374 -0.000382346 -0.834977222
vn 0.283276863 0.271732829 -0.919736641
vn 0.550284374 -0.000382346 -0.834977222
vn 0.089743478 0.042624899 -0.995052374
vn 0.273241646 -0.284928059 -0.918779083
vn -0.582645158 0.791551555 -0.184311574
vn -0.344287125 0.032966363 -0.938285455
vn 0.135729832 0.649645548 -0.748022777
vn 0.037403558 0.980545430 0.192695701
vn -0.582645158 0.791551555 -0.184311574
vn 0.135729832 0.649645548 -0.748022777
vn -0.582645158 0.791551555 -0.184311574
vn 0.037403558 0.980545430 0.192695701
vn -0.411137107 0.827345297 0.382708818
vn 0.215338842 -0.690329640 -0.690705561
vn 0.273241646 -0.284928059 -0.918779083
vn -0.033896111 -0.422997441 -0.905496670
vn 0.273241646 -0.284928059 -0.918779083
vn -0.161016393 -0.254430803 -0.953592517
vn -0.033896111 -0.422997441 -0.905496670
vn -0.161016393 -0.254430803 -0.953592517
vn 0.273241646 -0.284928059 -0.918779083
vn 0.089743478 0.042624899 -0.995052374
vn 0.283276863 0.271732829 -0.919736641
vn -0.344287125 0.032966363 -0.938285455
vn 0.089743478 0.042624899 -0.995052374
vn -0.344287125 0.032966363 -0.938285455
vn 0.283276863 0.271732829 -0.919736641
vn 0.135729832 0.649645548 -0.748022777
vn 0.273241646 -0.284928059 -0.918779083
vn 0.872066607 -0.362993294 -0.328231170
vn 0.550284374 -0.000382346 -0.834977222
vn 0.215338842 -0.690329640 -0.690705561
vn 0.872066607 -0.362993294 -0.328231170
vn 0.273241646 -0.284928059 -0.918779083
vn 0.681059420 0.069345568 0.728937075
vn -0.780118267 -0.462781372 0.421009372
vn 0.585354625 0.436384568 0.683321645
vn -0.780118267 -0.462781372 0.421009372
vn 0.681059420 0.069345568 0.728937075
vn -0.785483036 0.507915846 0.353606976
vn 0.477487579 0.778915524 -0.406566377
vn -0.034540146 0.933945767 -0.355741877
vn 0.482560856 0.820858110 -0.305494652
vn -0.034540146 0.933945767 -0.355741877
vn 0.477487579 0.778915524 -0.406566377
vn -0.460470928 0.873361916 -0.158762365
vn 0.707995566 0.653615637 -0.267448831
vn 0.520392196 -0.238592788 0.819917949
vn 0.666908892 0.676103044 -0.313236659
vn 0.520392196 -0.238592788 0.819917949
vn 0.707995566 0.653615637 -0.267448831
vn -0.399539382 0.915106206 -0.054303911
vn 0.482560856 0.820858110 -0.305494652
vn 0.204240299 0.823790739 0.528823901
vn 0.037403558 0.980545430 0.192695701
vn 0.204240299 0.823790739 0.528823901
vn 0.482560856 0.820858110 -0.305494652
vn -0.034540146 0.933945767 -0.355741877
vn 0.421568549 -0.176355072 0.889482348
vn -0.785483036 0.507915846 0.353606976
vn 0.681059420 0.069345568 0.728937075
vn -0.785483036 0.507915846 0.353606976
vn 0.421568549 -0.176355072 0.889482348
vn -0.492288099 0.849618008 0.189213285
vn 0.472829013 0.831302911 -0.292178361
vn -0.460470928 0.873361916 -0.158762365
vn 0.477487579 0.778915524 -0.406566377
vn -0.460470928 0.873361916 -0.158762365
vn 0.472829013 0.831302911 -0.292178361
vn 0.194963070 0.886993398 0.418607350
vn 0.813847759 0.579873827 0.037392109
vn 0.194963070 0.886993398 0.418607350
vn 0.472829013 0.831302911 -0.292178361
vn 0.194963070 0.886993398 0.418607350
vn 0.813847759 0.579873827 0.037392109
vn 0.896133557 -0.168907718 0.410383761
vn 0.666908892 0.676103044 -0.313236659
vn 0.896133557 -0.168907718 0.410383761
vn 0.813847759 0.579873827 0.037392109
vn 0.896133557 -0.168907718 0.410383761
vn 0.666908892 0.676103044 -0.313236659
vn 0.520392196 -0.238592788 0.819917949
vn 0.585354625 0.436384568 0.683321645
vn -0.803084854 -0.508134891 0.311213190
vn 0.254096697 0.966940720 -0.021459584
vn -0.803084854 -0.508134891 0.311213190
vn 0.585354625 0.436384568 0.683321645
vn -0.780118267 -0.462781372 0.421009372
vn 0.254096697 0.966940720 -0.021459584
vn -0.261025255 0.915389313 -0.306477116
vn 0.273111200 0.960601406 -0.051528749
vn -0.261025255 0.915389313 -0.306477116
vn 0.254096697 0.966940720 -0.021459584
vn -0.803084854 -0.508134891 0.311213190
vn 0.273111200 0.960601406 -0.051528749
vn -0.399539382 0.915106206 -0.054303911
vn 0.707995566 0.653615637 -0.267448831
vn -0.399539382 0.915106206 -0.054303911
vn 0.273111200 0.960601406 -0.051528749
vn -0.261025255 0.915389313 -0.306477116
vn 0.037403558 0.980545430 0.192695701
vn -0.097449446 0.574546315 0.812650071
vn -0.411137107 0.827345297 0.382708818
vn -0.097449446 0.574546315 0.812650071
vn 0.037403558 0.980545430 0.192695701
vn 0.204240299 0.823790739 0.528823901
vn -0.568348088 -0.505431483 0.649245306
vn 0.066464650 -0.333832984 0.940286121
vn -0.004768868 -0.811200907 0.584748106
vn 0.066464650 -0.333832984 0.940286121
vn -0.568348088 -0.505431483 0.649245306
vn -0.236862071 -0.102995456 0.966068473
vn -0.504196224 -0.347003787 -0.790806259
vn -0.161016393 -0.254430803 -0.953592517
vn -0.344287125 0.032966363 -0.938285455
vn -0.906322731 -0.355948133 0.227771889
vn -0.971789262 -0.133205940 0.194632494
vn -0.979663770 -0.176986155 0.094524064
vn -0.971789262 -0.133205940 0.194632494
vn -0.906322731 -0.355948133 0.227771889
vn -0.908791611 -0.409175181 0.081691362
vn -0.669023207 -0.742943349 0.021050637
vn -0.878911742 -0.387406887 0.278262562
vn -0.458665490 -0.814242645 0.355857954
vn -0.908791611 -0.409175181 0.081691362
vn -0.878911742 -0.387406887 0.278262562
vn -0.669023207 -0.742943349 0.021050637
vn -0.906322731 -0.355948133 0.227771889
vn -0.878911742 -0.387406887 0.278262562
vn -0.908791611 -0.409175181 0.081691362
vn -0.004768868 -0.811200907 0.584748106
vn -0.458665490 -0.814242645 0.355857954
vn -0.568348088 -0.505431483 0.649245306
vn -0.458665490 -0.814242645 0.355857954
vn -0.004768868 -0.811200907 0.584748106
vn 0.033875036 -0.904695671 0.424709577
vn 0.584732536 -0.785878370 0.201204000
vn -0.092434401 -0.995712817 0.003444906
vn 0.033875036 -0.904695671 0.424709577
vn -0.092434401 -0.995712817 0.003444906
vn 0.584732536 -0.785878370 0.201204000
vn 0.532661976 -0.844105733 -0.061292178
vn -0.922172817 -0.044346129 -0.384227428
vn -0.756065308 0.460024209 0.465556633
vn -0.971789262 -0.133205940 0.194632494
vn -0.721265596 -0.387254197 -0.574290978
vn -0.669023207 -0.742943349 0.021050637
vn -0.530908734 -0.709652744 -0.463172645
vn -0.669023207 -0.742943349 0.021050637
vn -0.721265596 -0.387254197 -0.574290978
vn -0.908791611 -0.409175181 0.081691362
vn -0.092434401 -0.995712817 0.003444906
vn 0.532661976 -0.844105733 -0.061292178
vn 0.215338842 -0.690329640 -0.690705561
vn -0.922172817 -0.044346129 -0.384227428
vn -0.908791611 -0.409175181 0.081691362
vn -0.721265596 -0.387254197 -0.574290978
vn -0.908791611 -0.409175181 0.081691362
vn -0.922172817 -0.044346129 -0.384227428
vn -0.971789262 -0.133205940 0.194632494
vn 0.421568549 -0.176355072 0.889482348
vn -0.004768868 -0.811200907 0.584748106
vn 0.066464650 -0.333832984 0.940286121
vn -0.004768868 -0.811200907 0.584748106
vn 0.421568549 -0.176355072 0.889482348
vn 0.591712893 -0.657417993 0.466559144
vn 0.591712893 -0.657417993 0.466559144
vn 0.033875036 -0.904695671 0.424709577
vn -0.004768868 -0.811200907 0.584748106
vn 0.033875036 -0.904695671 0.424709577
vn 0.591712893 -0.657417993 0.466559144
vn 0.584732536 -0.785878370 0.201204000
vn -0.092434401 -0.995712817 0.003444906
vn -0.458665490 -0.814242645 0.355857954
vn 0.033875036 -0.904695671 0.424709577
vn -0.458665490 -0.814242645 0.355857954
vn -0.092434401 -0.995712817 0.003444906
vn -0.669023207 -0.742943349 0.021050637
vn -0.530908734 -0.709652744 -0.463172645
vn -0.669023207 -0.742943349 0.021050637
vn -0.092434401 -0.995712817 0.003444906
vn -0.971887594 -0.116441486 0.204635979
vn -0.906322731 -0.355948133 0.227771889
vn -0.979663770 -0.176986155 0.094524064
vn -0.906322731 -0.355948133 0.227771889
vn -0.971887594 -0.116441486 0.204635979
vn -0.711904028 -0.421030241 0.562073120
vn -0.236862071 -0.102995456 0.966068473
vn -0.916339527 0.180313257 0.357503846
vn -0.902813490 0.207999398 0.376382854
vn -0.916339527 0.180313257 0.357503846
vn -0.236862071 -0.102995456 0.966068473
vn -0.568348088 -0.505431483 0.649245306
vn -0.568348088 -0.505431483 0.649245306
vn -0.878911742 -0.387406887 0.278262562
vn -0.916339527 0.180313257 0.357503846
vn -0.878911742 -0.387406887 0.278262562
vn -0.568348088 -0.505431483 0.649245306
vn -0.458665490 -0.814242645 0.355857954
vn -0.504196224 -0.347003787 -0.790806259
vn -0.530908734 -0.709652744 -0.463172645
vn -0.246297973 -0.625749758 -0.740117929
vn -0.530908734 -0.709652744 -0.463172645
vn -0.504196224 -0.347003787 -0.790806259
vn -0.721265596 -0.387254197 -0.574290978
vn -0.582645158 0.791551555 -0.184311574
vn -0.922172817 -0.044346129 -0.384227428
vn -0.344287125 0.032966363 -0.938285455
vn -0.756065308 0.460024209 0.465556633
vn -0.582645158 0.791551555 -0.184311574
vn -0.411137107 0.827345297 0.382708818
vn -0.582645158 0.791551555 -0.184311574
vn -0.756065308 0.460024209 0.465556633
vn -0.922172817 -0.044346129 -0.384227428
vn 0.215338842 -0.690329640 -0.690705561
vn -0.033896111 -0.422997441 -0.905496670
vn -0.246297973 -0.625749758 -0.740117929
vn -0.246297973 -0.625749758 -0.740117929
vn -0.161016393 -0.254430803 -0.953592517
vn -0.504196224 -0.347003787 -0.790806259
vn -0.161016393 -0.254430803 -0.953592517
vn -0.246297973 -0.625749758 -0.740117929
vn -0.033896111 -0.422997441 -0.905496670
vn -0.721265596 -0.387254197 -0.574290978
vn -0.344287125 0.032966363 -0.938285455
vn -0.922172817 -0.044346129 -0.384227428
vn -0.344287125 0.032966363 -0.938285455
vn -0.721265596 -0.387254197 -0.574290978
vn -0.504196224 -0.347003787 -0.790806259
vn -0.246297973 -0.625749758 -0.740117929
vn -0.530908734 -0.709652744 -0.463172645
vn -0.092434401 -0.995712817 0.003444906
vn 0.215338842 -0.690329640 -0.690705561
vn -0.246297973 -0.625749758 -0.740117929
vn -0.092434401 -0.995712817 0.003444906
vn 0.066464650 -0.333832984 0.940286121
vn 0.806454560 0.578021732 -0.124586998
vn -0.044315783 0.994126833 0.098731714
vn 0.806454560 0.578021732 -0.124586998
vn 0.066464650 -0.333832984 0.940286121
vn -0.236862071 -0.102995456 0.966068473
vn -0.979663770 -0.176986155 0.094524064
vn -0.939187110 0.340490928 -0.044648636
vn -0.676222346 0.731827455 -0.084568994
vn -0.939187110 0.340490928 -0.044648636
vn -0.979663770 -0.176986155 0.094524064
vn -0.971789262 -0.133205940 0.194632494
vn -0.878911742 -0.387406887 0.278262562
vn 0.414596958 -0.307995218 0.856299193
vn -0.682957735 0.729181755 0.043159010
vn 0.414596958 -0.307995218 0.856299193
vn -0.878911742 -0.387406887 0.278262562
vn -0.906322731 -0.355948133 0.227771889
vn -0.971789262 -0.133205940 0.194632494
vn -0.522607899 0.346973137 0.778775080
vn -0.939187110 0.340490928 -0.044648636
vn -0.522607899 0.346973137 0.778775080
vn -0.971789262 -0.133205940 0.194632494
vn -0.756065308 0.460024209 0.465556633
vn 0.421568549 -0.176355072 0.889482348
vn -0.044315783 0.994126833 0.098731714
vn -0.492288099 0.849618008 0.189213285
vn -0.044315783 0.994126833 0.098731714
vn 0.421568549 -0.176355072 0.889482348
vn 0.066464650 -0.333832984 0.940286121
vn -0.971887594 -0.116441486 0.204635979
vn -0.676222346 0.731827455 -0.084568994
vn -0.622400136 0.350797308 0.699685157
vn -0.676222346 0.731827455 -0.084568994
vn -0.971887594 -0.116441486 0.204635979
vn -0.979663770 -0.176986155 0.094524064
vn -0.711904028 -0.421030241 0.562073120
vn -0.622400136 0.350797308 0.699685157
vn 0.064150943 -0.714694234 0.696488915
vn -0.622400136 0.350797308 0.699685157
vn -0.711904028 -0.421030241 0.562073120
vn -0.971887594 -0.116441486 0.204635979
vn -0.906322731 -0.355948133 0.227771889
vn 0.064150943 -0.714694234 0.696488915
vn 0.414596958 -0.307995218 0.856299193
vn 0.064150943 -0.714694234 0.696488915
vn -0.906322731 -0.355948133 0.227771889
vn -0.711904028 -0.421030241 0.562073120
vn -0.236862071 -0.102995456 0.966068473
vn 0.802810846 0.545344157 -0.241027999
vn 0.806454560 0.578021732 -0.124586998
vn 0.802810846 0.545344157 -0.241027999
vn -0.236862071 -0.102995456 0.966068473
vn -0.902813490 0.207999398 0.376382854
vn -0.902813490 0.207999398 0.376382854
vn -0.835568361 0.538484956 -0.108901175
vn 0.802810846 0.545344157 -0.241027999
vn -0.835568361 0.538484956 -0.108901175
vn -0.902813490 0.207999398 0.376382854
vn -0.916339527 0.180313257 0.357503846
vn -0.916339527 0.180313257 0.357503846
vn -0.682957735 0.729181755 0.043159010
vn -0.835568361 0.538484956 -0.108901175
vn -0.682957735 0.729181755 0.043159010
vn -0.916339527 0.180313257 0.357503846
vn -0.878911742 -0.387406887 0.278262562
vn -0.756065308 0.460024209 0.465556633
vn -0.097449446 0.574546315 0.812650071
vn -0.522607899 0.346973137 0.778775080
vn -0.097449446 0.574546315 0.812650071
vn -0.756065308 0.460024209 0.465556633
vn -0.411137107 0.827345297 0.382708818
f 3/3/3 2/2/2 1/1/1
f 6/6/6 5/5/5 4/4/4
f 9/9/9 8/8/8 7/7/7
f 12/12/12 11/11/11 10/10/10
f 15/15/15 14/14/14 13/13/13
f 18/18/18 17/17/17 16/16/16
f 21/21/21 20/20/20 19/19/19
f 24/24/24 23/23/23 22/22/22
f 27/27/27 26/26/26 25/25/25
f 30/30/30 29/29/29 28/28/28
f 33/33/33 32/32/32 31/31/31
f 36/36/36 35/35/35 34/34/34
f 39/39/39 38/38/38 37/37/37
f 42/42/42 41/41/41 40/40/40
f 45/45/45 44/44/44 43/43/43
f 48/48/48 47/47/47 46/46/46
f 51/51/51 50/50/50 49/49/49
f 54/54/54 53/53/53 52/52/52
f 57/57/57 56/56/56 55/55/55
f 60/60/60 59/59/59 58/58/58
f 63/63/63 62/62/62 61/61/61
f 66/66/66 65/65/65 64/64/64
f 69/69/69 68/68/68 67/67/67
f 72/72/72 71/71/71 70/70/70
f 75/75/75 74/74/74 73/73/73
f 78/78/78 77/77/77 76/76/76
f 81/81/81 80/80/80 79/79/79
f 84/84/84 83/83/83 82/82/82
f 87/87/87 86/86/86 85/85/85
f 90/90/90 89/89/89 88/88/88
f 93/93/93 92/92/92 91/91/91
f 96/96/96 95/95/95 94/94/94
f 99/99/99 98/98/98 97/97/97
f 102/102/102 101/101/101 100/100/100
f 105/105/105 104/104/104 103/103/103
f 108/108/108 107/107/107 106/106/106
f 111/111/111 110/110/110 109/109/109
f 114/114/114 113/113/113 112/112/112
f 117/117/117 116/116/116 115/115/115
f 120/120/120 119/119/119 118/118/118
f 123/123/123 122/122/122 121/121/121
f 126/126/126 125/125/125 124/124/124
f 129/129/129 128/128/128 127/127/127
f 132/132/132 131/131/131 130/130/130
f 135/135/135 134/134/134 133/133/133
f 138/138/138 137/137/137 136/136/136
f 141/141/141 140/140/140 139/139/139
f 144/144/144 143/143/143 142/142/142
f 147/147/147 146/146/146 145/145/145
f 150/150/150 149/149/149 148/148/148
f 153/153/153 152/152/152 151/151/151
f 156/156/156 155/155/155 154/154/154
f 159/159/159 158/158/158 157/157/157
f 162/162/162 161/161/161 160/160/160
f 165/165/165 164/164/164 163/163/163
f 168/168/168 167/167/167 166/166/166
f 171/171/171 170/170/170 169/169/169
f 174/174/174 173/173/173 172/172/172
f 177/177/177 176/176/176 175/175/175
f 180/180/180 179/179/179 178/178/178
f 183/183/183 182/182/182 181/181/181
f 186/186/186 185/185/185 184/184/184
f 189/189/189 188/188/188 187/187/187
f 192/192/192 191/191/191 190/190/190
f 195/195/195 194/194/194 193/193/193
f 198/198/198 197/197/197 196/196/196
f 201/201/201 200/200/200 199/199/199
f 204/204/204 203/203/203 202/202/202
f 207/207/207 206/206/206 205/205/205
f 210/210/210 209/209/209 208/208/208
f 213/213/213 212/212/212 211/211/211
f 216/216/216 215/215/215 214/214/214
f 219/219/219 218/218/218 217/217/217
f 222/222/222 221/221/221 220/220/220
f 225/225/225 224/224/224 223/223/223
f 228/228/228 227/227/227 226/226/226
f 231/231/231 230/230/230 229/229/229
f 234/234/234 233/233/233 232/232/232
f 237/237/237 236/236/236 235/235/235
f 240/240/240 239/239/239 238/238/238
f 243/243/243 242/242/242 241/241/241
f 246/246/246 245/245/245 244/244/244
f 249/249/249 248/248/248 247/247/247
f 252/252/252 251/251/251 250/250/250
f 255/255/255 254/254/254 253/253/253
f 258/258/258 257/257/257 256/256/256
f 261/261/261 260/260/260 259/259/259
f 264/264/264 263/263/263 262/262/262
f 267/267/267 266/266/266 265/265/265
f 270/270/270 269/269/269 268/268/268
f 273/273/273 272/272/272 271/271/271
f 276/276/276 275/275/275 274/274/274
f 279/279/279 278/278/278 277/277/277
f 282/282/282 281/281/281 280/280/280
f 285/285/285 284/284/284 283/283/283
f 288/288/288 287/287/287 286/286/286
f 291/291/291 290/290/290 289/289/289
f 294/294/294 293/293/293 292/292/292
f 297/297/297 296/296/296 295/295/295
f 300/300/300 299/299/299 298/298/298
f 303/303/303 302/302/302 301/301/301
f 306/306/306 305/305/305 304/304/304
f 309/309/309 308/308/308 307/307/307
f 312/312/312 311/311/311 310/310/310
f 315/315/315 314/314/314 313/313/313
f 318/318/318 317/317/317 316/316/316
f 321/321/321 320/320/320 319/319/319
f 324/324/324 323/323/323 322/322/322
f 327/327/327 326/326/326 325/325/325
f 330/330/330 329/329/329 328/328/328
f 333/333/333 332/332/332 331/331/331
f 336/336/336 335/335/335 334/334/334
f 339/339/339 338/338/338 337/337/337
f 342/342/342 341/341/341 340/340/340
f 345/345/345 344/344/344 343/343/343
f 348/348/348 347/347/347 346/346/346
f 351/351/351 350/350/350 349/349/349
f 354/354/354 353/353/353 352/352/352
f 357/357/357 356/356/356 355/355/355
f 360/360/360 359/359/359 358/358/358
f 363/363/363 362/362/362 361/361/361
f 366/366/366 365/365/365 364/364/364
f 369/369/369 368/368/368 367/367/367
f 372/372/372 371/371/371 370/370/370
f 375/375/375 374/374/374 373/373/373
f 378/378/378 377/377/377 376/376/376
f 381/381/381 380/380/380 379/379/379
f 384/384/384 383/383/383 382/382/382
f 387/387/387 386/386/386 385/385/385
f 390/390/390 389/389/389 388/388/388
f 393/393/393 392/392/392 391/391/391
f 396/396/396 395/395/395 394/394/394
f 399/399/399 398/398/398 397/397/397
f 402/402/402 401/401/401 400/400/400
