# Static pose baked from local Project Zomboid assets
o Bob_Hair_MohawkShort
v -0.118279035 0.053950868 -0.449688860
v -0.130230837 0.071588829 -0.454086740
v -0.124699782 0.067190781 -0.443103112
v -0.130230837 0.071588829 -0.454086740
v -0.118279035 0.053950868 -0.449688860
v -0.122729408 0.056712860 -0.460650915
v -0.124699782 0.067190781 -0.443103112
v -0.116839947 0.080373348 -0.458691648
v -0.109847980 0.076933669 -0.448210402
v -0.116839947 0.080373348 -0.458691648
v -0.124699782 0.067190781 -0.443103112
v -0.130230837 0.071588829 -0.454086740
v -0.109847980 0.076933669 -0.448210402
v -0.109338517 0.065497379 -0.465255822
v -0.103427233 0.063693756 -0.454796151
v -0.109338517 0.065497379 -0.465255822
v -0.109847980 0.076933669 -0.448210402
v -0.116839947 0.080373348 -0.458691648
v -0.103427233 0.063693756 -0.454796151
v -0.093740171 0.040648384 -0.467299454
v -0.091024467 0.042276391 -0.459586079
v -0.093740171 0.040648384 -0.467299454
v -0.103427233 0.063693756 -0.454796151
v -0.109338517 0.065497379 -0.465255822
v -0.091024467 0.042276391 -0.459586079
v -0.069867867 0.008288057 -0.460368002
v -0.069782306 0.013268841 -0.453150759
v -0.069867867 0.008288057 -0.460368002
v -0.091024467 0.042276391 -0.459586079
v -0.093740171 0.040648384 -0.467299454
v -0.069782306 0.013268841 -0.453150759
v -0.047094066 -0.011969460 -0.432786793
v -0.050458339 -0.003081095 -0.428147264
v -0.047094066 -0.011969460 -0.432786793
v -0.069782306 0.013268841 -0.453150759
v -0.069867867 0.008288057 -0.460368002
v -0.050458339 -0.003081095 -0.428147264
v -0.033443936 -0.005272754 -0.379579605
v -0.037928966 0.002423836 -0.381210895
v -0.033443936 -0.005272754 -0.379579605
v -0.050458339 -0.003081095 -0.428147264
v -0.047094066 -0.011969460 -0.432786793
v -0.037928966 0.002423836 -0.381210895
v -0.037232366 0.017855329 -0.347210686
v -0.042227309 0.026944126 -0.346934348
v -0.037232366 0.017855329 -0.347210686
v -0.037928966 0.002423836 -0.381210895
v -0.033443936 -0.005272754 -0.379579605
v -0.042227309 0.026944126 -0.346934348
v -0.050957546 0.008851514 -0.342490822
v -0.057079111 0.017201238 -0.341827057
v -0.050957546 0.008851514 -0.342490822
v -0.042227309 0.026944126 -0.346934348
v -0.037232366 0.017855329 -0.347210686
v -0.057079111 0.017201238 -0.341827057
v -0.046842863 -0.014062545 -0.374971934
v -0.052780768 -0.007319052 -0.376103604
v -0.046842863 -0.014062545 -0.374971934
v -0.057079111 0.017201238 -0.341827057
v -0.050957546 0.008851514 -0.342490822
v -0.052780768 -0.007319052 -0.376103604
v -0.060820854 -0.020974330 -0.428066376
v -0.065310141 -0.012823983 -0.423039973
v -0.060820854 -0.020974330 -0.428066376
v -0.052780768 -0.007319052 -0.376103604
v -0.046842863 -0.014062545 -0.374971934
v -0.065310141 -0.012823983 -0.423039973
v -0.083594655 -0.000716813 -0.455647586
v -0.084634108 0.003525953 -0.448043468
v -0.083594655 -0.000716813 -0.455647586
v -0.065310141 -0.012823983 -0.423039973
v -0.060820854 -0.020974330 -0.428066376
v -0.084634108 0.003525953 -0.448043468
v -0.107131061 0.031863865 -0.462694547
v -0.105876269 0.032533503 -0.454478788
v -0.107131061 0.031863865 -0.462694547
v -0.084634108 0.003525953 -0.448043468
v -0.083594655 -0.000716813 -0.455647586
v -0.105876269 0.032533503 -0.454478788
v -0.122729408 0.056712860 -0.460650915
v -0.118279035 0.053950868 -0.449688860
v -0.122729408 0.056712860 -0.460650915
v -0.105876269 0.032533503 -0.454478788
v -0.107131061 0.031863865 -0.462694547
v -0.116839947 0.080373348 -0.458691648
v -0.122729408 0.056712860 -0.460650915
v -0.109338517 0.065497379 -0.465255822
v -0.122729408 0.056712860 -0.460650915
v -0.116839947 0.080373348 -0.458691648
v -0.130230837 0.071588829 -0.454086740
v -0.109338517 0.065497379 -0.465255822
v -0.107131061 0.031863865 -0.462694547
v -0.093740171 0.040648384 -0.467299454
v -0.107131061 0.031863865 -0.462694547
v -0.109338517 0.065497379 -0.465255822
v -0.122729408 0.056712860 -0.460650915
v -0.093740171 0.040648384 -0.467299454
v -0.083594655 -0.000716813 -0.455647586
v -0.069867867 0.008288057 -0.460368002
v -0.083594655 -0.000716813 -0.455647586
v -0.093740171 0.040648384 -0.467299454
v -0.107131061 0.031863865 -0.462694547
v -0.069867867 0.008288057 -0.460368002
v -0.060820854 -0.020974330 -0.428066376
v -0.047094066 -0.011969460 -0.432786793
v -0.060820854 -0.020974330 -0.428066376
v -0.069867867 0.008288057 -0.460368002
v -0.083594655 -0.000716813 -0.455647586
v -0.047094066 -0.011969460 -0.432786793
v -0.046842863 -0.014062545 -0.374971934
v -0.033443936 -0.005272754 -0.379579605
v -0.046842863 -0.014062545 -0.374971934
v -0.047094066 -0.011969460 -0.432786793
v -0.060820854 -0.020974330 -0.428066376
v -0.033443936 -0.005272754 -0.379579605
v -0.050957546 0.008851514 -0.342490822
v -0.037232366 0.017855329 -0.347210686
v -0.050957546 0.008851514 -0.342490822
v -0.033443936 -0.005272754 -0.379579605
v -0.046842863 -0.014062545 -0.374971934
vt 0.640625000 0.328125000
vt 0.734375000 0.218750000
vt 0.734375000 0.328125000
vt 0.734375000 0.218750000
vt 0.640625000 0.328125000
vt 0.640625000 0.218750000
vt 0.781250000 0.218750000
vt 0.734375000 0.132812977
vt 0.781250000 0.132812977
vt 0.734375000 0.132812977
vt 0.781250000 0.218750000
vt 0.734375000 0.218750000
vt 0.734375000 0.023437977
vt 0.640625000 0.132812977
vt 0.640625000 0.023437977
vt 0.640625000 0.132812977
vt 0.734375000 0.023437977
vt 0.734375000 0.132812977
vt 0.640625000 0.023437977
vt 0.570312977 0.132812977
vt 0.570312977 0.023437977
vt 0.570312977 0.132812977
vt 0.640625000 0.023437977
vt 0.640625000 0.132812977
vt 0.570312977 0.023437977
vt 0.453125000 0.132812977
vt 0.453125000 0.023437977
vt 0.453125000 0.132812977
vt 0.570312977 0.023437977
vt 0.570312977 0.132812977
vt 0.453125000 0.023437977
vt 0.296875000 0.132812977
vt 0.296875000 0.023437977
vt 0.296875000 0.132812977
vt 0.453125000 0.023437977
vt 0.453125000 0.132812977
vt 0.296875000 0.023437977
vt 0.140625000 0.132812977
vt 0.140625000 0.023437977
vt 0.140625000 0.132812977
vt 0.296875000 0.023437977
vt 0.296875000 0.132812977
vt 0.140625000 0.023437977
vt 0.046875000 0.132812977
vt 0.046875000 0.023437977
vt 0.046875000 0.132812977
vt 0.140625000 0.023437977
vt 0.140625000 0.132812977
vt 0.000000000 0.132812977
vt 0.046875000 0.218750000
vt 0.000000000 0.218750000
vt 0.046875000 0.218750000
vt 0.000000000 0.132812977
vt 0.046875000 0.132812977
vt 0.046875000 0.328125000
vt 0.140625000 0.218750000
vt 0.140625000 0.328125000
vt 0.140625000 0.218750000
vt 0.046875000 0.328125000
vt 0.046875000 0.218750000
vt 0.140625000 0.328125000
vt 0.296875000 0.218750000
vt 0.296875000 0.328125000
vt 0.296875000 0.218750000
vt 0.140625000 0.328125000
vt 0.140625000 0.218750000
vt 0.296875000 0.328125000
vt 0.453125000 0.218750000
vt 0.453125000 0.328125000
vt 0.453125000 0.218750000
vt 0.296875000 0.328125000
vt 0.296875000 0.218750000
vt 0.453125000 0.328125000
vt 0.570312977 0.218750000
vt 0.570312977 0.328125000
vt 0.570312977 0.218750000
vt 0.453125000 0.328125000
vt 0.453125000 0.218750000
vt 0.570312977 0.328125000
vt 0.640625000 0.218750000
vt 0.640625000 0.328125000
vt 0.640625000 0.218750000
vt 0.570312977 0.328125000
vt 0.570312977 0.218750000
vt 0.734375000 0.132812977
vt 0.640625000 0.218750000
vt 0.640625000 0.132812977
vt 0.640625000 0.218750000
vt 0.734375000 0.132812977
vt 0.734375000 0.218750000
vt 0.640625000 0.132812977
vt 0.570312977 0.218750000
vt 0.570312977 0.132812977
vt 0.570312977 0.218750000
vt 0.640625000 0.132812977
vt 0.640625000 0.218750000
vt 0.570312977 0.132812977
vt 0.453125000 0.218750000
vt 0.453125000 0.132812977
vt 0.453125000 0.218750000
vt 0.570312977 0.132812977
vt 0.570312977 0.218750000
vt 0.453125000 0.132812977
vt 0.296875000 0.218750000
vt 0.296875000 0.132812977
vt 0.296875000 0.218750000
vt 0.453125000 0.132812977
vt 0.453125000 0.218750000
vt 0.296875000 0.132812977
vt 0.140625000 0.218750000
vt 0.140625000 0.132812977
vt 0.140625000 0.218750000
vt 0.296875000 0.132812977
vt 0.296875000 0.218750000
vt 0.140625000 0.132812977
vt 0.046875000 0.218750000
vt 0.046875000 0.132812977
vt 0.046875000 0.218750000
vt 0.140625000 0.132812977
vt 0.140625000 0.218750000
vn -0.830342178 -0.516793769 0.208461189
vn -0.992749673 0.013368584 -0.119454461
vn -0.667428026 0.511720544 0.541000846
vn -0.992749673 0.013368584 -0.119454461
vn -0.830342178 -0.516793769 0.208461189
vn -0.742902219 -0.246381041 -0.622408768
vn -0.667428026 0.511720544 0.541000846
vn -0.314938032 0.798912255 -0.512399497
vn 0.500347450 0.864225093 -0.052606253
vn -0.314938032 0.798912255 -0.512399497
vn -0.667428026 0.511720544 0.541000846
vn -0.992749673 0.013368584 -0.119454461
vn 0.500347450 0.864225093 -0.052606253
vn 0.131927036 0.242387200 -0.961167885
vn 0.771730497 0.526763682 -0.356303332
vn 0.131927036 0.242387200 -0.961167885
vn 0.500347450 0.864225093 -0.052606253
vn -0.314938032 0.798912255 -0.512399497
vn 0.771730497 0.526763682 -0.356303332
vn 0.174328699 -0.002735885 -0.984683715
vn 0.779890908 0.504494723 -0.370479753
vn 0.174328699 -0.002735885 -0.984683715
vn 0.771730497 0.526763682 -0.356303332
vn 0.131927036 0.242387200 -0.961167885
vn 0.779890908 0.504494723 -0.370479753
vn 0.430962996 -0.301350284 -0.850563873
vn 0.810272407 0.480932378 -0.334906964
vn 0.430962996 -0.301350284 -0.850563873
vn 0.779890908 0.504494723 -0.370479753
vn 0.174328699 -0.002735885 -0.984683715
vn 0.810272407 0.480932378 -0.334906964
vn 0.782069965 -0.529100765 -0.329270330
vn 0.840257278 0.458794994 -0.288920161
vn 0.782069965 -0.529100765 -0.329270330
vn 0.810272407 0.480932378 -0.334906964
vn 0.430962996 -0.301350284 -0.850563873
vn 0.840257278 0.458794994 -0.288920161
vn 0.910577407 -0.394350385 0.123840865
vn 0.855311047 0.454800719 -0.248192100
vn 0.910577407 -0.394350385 0.123840865
vn 0.840257278 0.458794994 -0.288920161
vn 0.782069965 -0.529100765 -0.329270330
vn 0.855311047 0.454800719 -0.248192100
vn 0.941000446 -0.077293314 0.329460019
vn 0.758742969 0.401385214 0.513029255
vn 0.941000446 -0.077293314 0.329460019
vn 0.855311047 0.454800719 -0.248192100
vn 0.910577407 -0.394350385 0.123840865
vn 0.758742969 0.401385214 0.513029255
vn 0.381824768 -0.604411070 0.699211774
vn -0.640589656 -0.526869563 0.558617361
vn 0.381824768 -0.604411070 0.699211774
vn 0.758742969 0.401385214 0.513029255
vn 0.941000446 -0.077293314 0.329460019
vn -0.640589656 -0.526869563 0.558617361
vn 0.184633881 -0.956152911 0.227336623
vn -0.748285677 -0.596969246 0.289303067
vn 0.184633881 -0.956152911 0.227336623
vn -0.640589656 -0.526869563 0.558617361
vn 0.381824768 -0.604411070 0.699211774
vn -0.748285677 -0.596969246 0.289303067
vn -0.086673361 -0.966854961 -0.240164971
vn -0.775492636 -0.582452843 0.243638785
vn -0.086673361 -0.966854961 -0.240164971
vn -0.748285677 -0.596969246 0.289303067
vn 0.184633881 -0.956152911 0.227336623
vn -0.775492636 -0.582452843 0.243638785
vn -0.370064913 -0.642670866 -0.670839860
vn -0.803506319 -0.562664390 0.194387189
vn -0.370064913 -0.642670866 -0.670839860
vn -0.775492636 -0.582452843 0.243638785
vn -0.086673361 -0.966854961 -0.240164971
vn -0.803506319 -0.562664390 0.194387189
vn -0.552876218 -0.398304108 -0.731902811
vn -0.822446966 -0.538996777 0.181833610
vn -0.552876218 -0.398304108 -0.731902811
vn -0.803506319 -0.562664390 0.194387189
vn -0.370064913 -0.642670866 -0.670839860
vn -0.822446966 -0.538996777 0.181833610
vn -0.742902219 -0.246381041 -0.622408768
vn -0.830342178 -0.516793769 0.208461189
vn -0.742902219 -0.246381041 -0.622408768
vn -0.822446966 -0.538996777 0.181833610
vn -0.552876218 -0.398304108 -0.731902811
vn -0.314938032 0.798912255 -0.512399497
vn -0.742902219 -0.246381041 -0.622408768
vn 0.131927036 0.242387200 -0.961167885
vn -0.742902219 -0.246381041 -0.622408768
vn -0.314938032 0.798912255 -0.512399497
vn -0.992749673 0.013368584 -0.119454461
vn 0.131927036 0.242387200 -0.961167885
vn -0.552876218 -0.398304108 -0.731902811
vn 0.174328699 -0.002735885 -0.984683715
vn -0.552876218 -0.398304108 -0.731902811
vn 0.131927036 0.242387200 -0.961167885
vn -0.742902219 -0.246381041 -0.622408768
vn 0.174328699 -0.002735885 -0.984683715
vn -0.370064913 -0.642670866 -0.670839860
vn 0.430962996 -0.301350284 -0.850563873
vn -0.370064913 -0.642670866 -0.670839860
vn 0.174328699 -0.002735885 -0.984683715
vn -0.552876218 -0.398304108 -0.731902811
vn 0.430962996 -0.301350284 -0.850563873
vn -0.086673361 -0.966854961 -0.240164971
vn 0.782069965 -0.529100765 -0.329270330
vn -0.086673361 -0.966854961 -0.240164971
vn 0.430962996 -0.301350284 -0.850563873
vn -0.370064913 -0.642670866 -0.670839860
vn 0.782069965 -0.529100765 -0.329270330
vn 0.184633881 -0.956152911 0.227336623
vn 0.910577407 -0.394350385 0.123840865
vn 0.184633881 -0.956152911 0.227336623
vn 0.782069965 -0.529100765 -0.329270330
vn -0.086673361 -0.966854961 -0.240164971
vn 0.910577407 -0.394350385 0.123840865
vn 0.381824768 -0.604411070 0.699211774
vn 0.941000446 -0.077293314 0.329460019
vn 0.381824768 -0.604411070 0.699211774
vn 0.910577407 -0.394350385 0.123840865
vn 0.184633881 -0.956152911 0.227336623
f 3/3/3 2/2/2 1/1/1
f 6/6/6 5/5/5 4/4/4
f 9/9/9 8/8/8 7/7/7
f 12/12/12 11/11/11 10/10/10
f 15/15/15 14/14/14 13/13/13
f 18/18/18 17/17/17 16/16/16
f 21/21/21 20/20/20 19/19/19
f 24/24/24 23/23/23 22/22/22
f 27/27/27 26/26/26 25/25/25
f 30/30/30 29/29/29 28/28/28
f 33/33/33 32/32/32 31/31/31
f 36/36/36 35/35/35 34/34/34
f 39/39/39 38/38/38 37/37/37
f 42/42/42 41/41/41 40/40/40
f 45/45/45 44/44/44 43/43/43
f 48/48/48 47/47/47 46/46/46
f 51/51/51 50/50/50 49/49/49
f 54/54/54 53/53/53 52/52/52
f 57/57/57 56/56/56 55/55/55
f 60/60/60 59/59/59 58/58/58
f 63/63/63 62/62/62 61/61/61
f 66/66/66 65/65/65 64/64/64
f 69/69/69 68/68/68 67/67/67
f 72/72/72 71/71/71 70/70/70
f 75/75/75 74/74/74 73/73/73
f 78/78/78 77/77/77 76/76/76
f 81/81/81 80/80/80 79/79/79
f 84/84/84 83/83/83 82/82/82
f 87/87/87 86/86/86 85/85/85
f 90/90/90 89/89/89 88/88/88
f 93/93/93 92/92/92 91/91/91
f 96/96/96 95/95/95 94/94/94
f 99/99/99 98/98/98 97/97/97
f 102/102/102 101/101/101 100/100/100
f 105/105/105 104/104/104 103/103/103
f 108/108/108 107/107/107 106/106/106
f 111/111/111 110/110/110 109/109/109
f 114/114/114 113/113/113 112/112/112
f 117/117/117 116/116/116 115/115/115
f 120/120/120 119/119/119 118/118/118
